<?xml version="1.0" encoding="utf-8"?>
<!-- Generator: Adobe Illustrator 24.0.0, SVG Export Plug-In . SVG Version: 6.00 Build 0)  -->
<svg version="1.1" id="Layer_1" xmlns="http://www.w3.org/2000/svg" xmlns:xlink="http://www.w3.org/1999/xlink" x="0px" y="0px"
	 viewBox="0 0 48.4 17.21" style="enable-background:new 0 0 48.4 17.21;" xml:space="preserve">
<style type="text/css">
	.st0{fill:#FFFFFF;}
</style>
<path class="st0" d="M7.98,13.19c0.47,0.42,0.79,0.76,1.17,1.03c0.97,0.69,1.81,0.71,2.69-0.07c0.69-0.62,1.27-1.37,1.84-2.11
	c0.38-0.49,0.65-1.07,0.97-1.61c0.1,0.03,0.2,0.06,0.3,0.09c0.1,1.01,0.23,2.02,0.29,3.04c0.01,0.22-0.2,0.5-0.38,0.69
	c-0.48,0.53-0.32,0.95,0.2,1.28c0.27,0.17,0.59,0.29,0.91,0.36c2.4,0.53,4.68-0.05,6.88-0.94c0.47-0.19,0.97-0.7,1.15-1.18
	c0.37-1.02,1.1-1.32,2.04-1.4c1.66,1.36,3.49,1.52,5.36,0.48c0.93-0.52,1-1.38,0.17-2.04c-0.07-0.06-0.15-0.12-0.24-0.15
	c-1.27-0.51-2.52-1.07-3.81-1.49c-0.48-0.16-1.07,0.01-1.67,0.04c0.09,0.86,0.16,1.54,0.24,2.28c-0.62,0.22-1.13,0.39-1.63,0.57
	c-0.85-1.44-2.23-2.57-3.68-3.1c-1.7-0.62-2.75-0.25-3.7,1.28c-0.1,0.16-0.25,0.29-0.54,0.6c-0.18-3.11-0.34-5.97-0.52-8.84
	C16,1.59,15.94,1.16,15.8,0.77c-0.22-0.63-0.82-0.89-1.49-0.71c-0.62,0.17-0.56,0.61-0.5,1.12c0.27,2.14,0.52,4.29,0.75,6.43
	c0.04,0.36,0.07,0.77-0.06,1.08c-0.61,1.44-1.34,2.79-2.63,3.78c-1.31,1.01-2.26,0.8-2.74-0.79C8.86,10.8,8.77,9.84,8.7,8.91
	C8.65,8.35,8.45,8.09,7.93,7.9C5.55,7,2.71,8.1,1.14,10.33c-1.43,2.02,0.03,4.04,1.96,4.28C4.9,14.83,6.58,14.66,7.98,13.19z"/>
<path class="st0" d="M43.58,6.02c-0.81-0.12-1.39-0.27-1.97-0.28c-0.78-0.02-1.58,0.02-2.35,0.15c-0.21,0.03-0.5,0.48-0.48,0.72
	c0.02,0.24,0.34,0.54,0.6,0.64c0.34,0.13,0.74,0.13,1.11,0.14c1.03,0.02,2.05,0.01,3.14,0.01c0.3,2.82,0.03,5.57,0.64,8.23
	c1.42-0.35,1.37-0.38,1.78-1.07c0.43-0.71,0.2-1.22-0.31-1.73c-0.08-0.09-0.1-0.27-0.1-0.4c-0.01-1.73,0-3.46,0-5.15
	c0.48-0.24,1.04-0.41,1.46-0.75c0.42-0.34,1.09-0.69,0.63-1.57c-0.75,0.24-1.47,0.47-2.31,0.74C45.3,4.89,45.2,4.24,45.1,3.6
	c-0.1-0.65-0.22-1.3-0.29-1.96c-0.07-0.62-0.37-0.94-1.01-0.92c-0.92,0.03-1.36,0.64-1,1.51C43.27,3.38,43.26,4.59,43.58,6.02z"/>
<path class="st0" d="M39.84,8.31c-0.43,1.75-1.25,3.1-2.46,4.2c-0.9,0.82-1.53,0.69-1.83-0.48c-0.23-0.88-0.18-1.85-0.18-2.77
	c-0.01-0.89-0.24-1.11-1.08-0.89c-0.63,0.17-1.12,0.8-1.02,1.47c0.13,0.93,0.28,1.86,0.53,2.76c0.61,2.17,2.66,2.75,4.37,1.25
	c0.42-0.37,0.75-0.83,1.12-1.24c0.86,0.74,1.44,0.85,2.23,0.38c0.44-0.26,0.84-0.79,0.38-1.13c-0.88-0.64-0.62-1.48-0.69-2.28
	c-0.03-0.4-0.05-0.81-0.07-1.26C40.63,8.31,40.27,8.31,39.84,8.31z"/>
<path d="M7.98,13.19c-1.4,1.47-3.08,1.64-4.88,1.42c-1.93-0.24-3.39-2.26-1.96-4.28C2.71,8.1,5.55,7,7.93,7.9
	c0.52,0.2,0.72,0.46,0.77,1.01c0.08,0.93,0.16,1.89,0.44,2.77c0.49,1.59,1.43,1.79,2.74,0.79c1.29-0.99,2.02-2.34,2.63-3.78
	c0.13-0.31,0.1-0.72,0.06-1.08c-0.23-2.15-0.48-4.29-0.75-6.43c-0.06-0.51-0.12-0.95,0.5-1.12c0.66-0.18,1.27,0.08,1.49,0.71
	c0.14,0.39,0.19,0.83,0.22,1.24c0.18,2.86,0.34,5.72,0.52,8.84c0.28-0.32,0.44-0.44,0.54-0.6c0.95-1.53,2-1.9,3.7-1.28
	c1.46,0.53,2.83,1.66,3.68,3.1c0.49-0.17,1.01-0.35,1.63-0.57c-0.08-0.74-0.15-1.42-0.24-2.28c0.61-0.02,1.19-0.19,1.67-0.04
	c1.3,0.42,2.55,0.98,3.81,1.49c0.09,0.03,0.16,0.09,0.24,0.15c0.83,0.66,0.75,1.52-0.17,2.04c-1.87,1.05-3.7,0.88-5.36-0.48
	c-0.94,0.09-1.67,0.38-2.04,1.4c-0.17,0.48-0.67,0.99-1.15,1.18c-2.2,0.89-4.48,1.46-6.88,0.94c-0.31-0.07-0.64-0.19-0.91-0.36
	c-0.52-0.33-0.68-0.75-0.2-1.28c0.17-0.19,0.39-0.46,0.38-0.69c-0.06-1.02-0.19-2.03-0.29-3.04c-0.1-0.03-0.2-0.06-0.3-0.09
	c-0.32,0.54-0.59,1.12-0.97,1.61c-0.57,0.74-1.15,1.49-1.84,2.11c-0.88,0.79-1.72,0.76-2.69,0.07C8.77,13.95,8.45,13.6,7.98,13.19z
	 M7.6,11.51c-0.99,0.44-1.74,0.56-2.36-0.3c0.33-0.45,0.69-0.87,0.95-1.35C6.3,9.66,6.28,9.3,6.17,9.09
	C6.11,8.96,5.74,8.9,5.54,8.95C4,9.28,2.75,10.07,1.94,11.44c-0.47,0.79-0.18,1.58,0.67,1.99c1.28,0.62,3.67,0.19,4.61-0.87
	C7.39,12.36,7.42,12.02,7.6,11.51z M22.82,12.71c0-0.3,0.05-0.47-0.01-0.57c-0.76-1.19-1.92-1.77-3.24-2.05
	c-0.22-0.05-0.67,0.23-0.76,0.45c-0.37,0.89-0.63,1.83-1,2.96C19.63,13.22,21.18,12.97,22.82,12.71z M17.14,14.94
	c1.78-0.17,3.53-0.42,5.05-1.49C20.49,13.9,18.54,13.46,17.14,14.94z M29.62,11.92c-0.01-0.11-0.03-0.23-0.04-0.34
	c-0.46-0.27-0.9-0.35-1.35,0.42C28.77,11.97,29.2,11.95,29.62,11.92z"/>
<path d="M43.58,6.02c-0.31-1.43-0.31-2.64-0.78-3.79c-0.36-0.87,0.08-1.48,1-1.51c0.64-0.02,0.94,0.3,1.01,0.92
	C44.88,2.3,45,2.95,45.1,3.6c0.1,0.65,0.2,1.29,0.33,2.1c0.83-0.27,1.56-0.5,2.31-0.74c0.46,0.88-0.21,1.23-0.63,1.57
	c-0.42,0.34-0.98,0.52-1.46,0.75c0,1.7,0,3.42,0,5.15c0,0.14,0.02,0.32,0.1,0.4c0.5,0.51,0.74,1.02,0.31,1.73
	c-0.41,0.69-0.36,0.72-1.78,1.07c-0.62-2.67-0.35-5.41-0.64-8.23c-1.09,0-2.12,0.01-3.14-0.01c-0.37-0.01-0.78,0-1.11-0.14
	c-0.26-0.1-0.58-0.4-0.6-0.64c-0.02-0.24,0.27-0.69,0.48-0.72c0.77-0.13,1.57-0.16,2.35-0.15C42.19,5.75,42.76,5.9,43.58,6.02z"/>
<path d="M39.84,8.31c0.44,0,0.8,0,1.29,0c0.03,0.45,0.04,0.85,0.07,1.26c0.07,0.8-0.19,1.64,0.69,2.28
	c0.46,0.34,0.06,0.87-0.38,1.13c-0.78,0.47-1.36,0.36-2.23-0.38c-0.37,0.42-0.71,0.88-1.12,1.24c-1.71,1.5-3.76,0.93-4.37-1.25
	c-0.25-0.9-0.4-1.83-0.53-2.76c-0.1-0.67,0.39-1.3,1.02-1.47c0.84-0.22,1.07,0.01,1.08,0.89c0.01,0.93-0.05,1.89,0.18,2.77
	c0.3,1.17,0.93,1.29,1.83,0.48C38.59,11.41,39.41,10.06,39.84,8.31z"/>
</svg>
