<?xml version="1.0" encoding="utf-8"?>
<!-- Generator: Adobe Illustrator 24.0.0, SVG Export Plug-In . SVG Version: 6.00 Build 0)  -->
<svg version="1.1" id="Layer_1" xmlns="http://www.w3.org/2000/svg" xmlns:xlink="http://www.w3.org/1999/xlink" x="0px" y="0px"
	 viewBox="0 0 38.48 12.42" style="enable-background:new 0 0 38.48 12.42;" xml:space="preserve">
<style type="text/css">
	.st0{fill:#FFFFFF;}
</style>
<path class="st0" d="M94.54-19.34"/>
<path d="M94.54-19.34"/>
<path class="st0" d="M31.66,4.54c-3.34,0.07-6.34,0.08-9.35,0.21C16.09,5.02,9.87,4.98,3.65,4.77C2.99,4.75,2.33,4.84,1.68,4.91
	c-0.46,0.05-0.8,0.29-0.84,0.8C0.8,6.28,0.97,6.78,1.54,6.96c0.39,0.12,0.83,0.1,1.25,0.09c0.47-0.02,0.93-0.14,1.4-0.15
	c3.39-0.07,6.79-0.09,10.18-0.18C19.8,6.56,25.21,6.38,30.63,6.2c0.62-0.02,1.19-0.07,1.72,0.47c-0.82,0.79-1.6,1.6-2.45,2.34
	c-0.53,0.47-0.57,0.92-0.2,1.48c0.57,0.83,1.35,1,1.99,0.19c1.49-1.86,3.13-3.45,5.26-4.61c1.08-0.59,0.88-1.71-0.25-2.25
	c-1.57-0.75-3.17-1.45-4.77-2.11c-0.47-0.19-1.02-0.3-1.52-0.26c-0.36,0.02-0.8,0.27-1.04,0.55c-0.33,0.39-0.08,0.82,0.28,1.1
	C30.2,3.53,30.79,3.92,31.66,4.54z"/>
<path d="M31.66,4.54c-0.87-0.62-1.46-1.01-2-1.44C29.3,2.82,29.05,2.39,29.38,2c0.24-0.28,0.67-0.52,1.04-0.55
	c0.5-0.03,1.05,0.07,1.52,0.26c1.61,0.66,3.2,1.36,4.77,2.11c1.13,0.54,1.33,1.66,0.25,2.25c-2.13,1.16-3.77,2.75-5.26,4.61
	c-0.64,0.8-1.42,0.64-1.99-0.19c-0.38-0.55-0.33-1.01,0.2-1.48c0.84-0.74,1.63-1.55,2.45-2.34c-0.52-0.54-1.1-0.49-1.72-0.47
	C25.21,6.38,19.8,6.56,14.38,6.71C10.98,6.8,7.59,6.82,4.19,6.89C3.73,6.9,3.26,7.03,2.79,7.04C2.38,7.06,1.93,7.07,1.54,6.96
	C0.97,6.78,0.8,6.28,0.84,5.71c0.04-0.51,0.38-0.75,0.84-0.8c0.65-0.08,1.32-0.16,1.97-0.14c6.22,0.21,12.44,0.25,18.67-0.02
	C25.32,4.62,28.32,4.61,31.66,4.54z"/>
</svg>
