<?xml version="1.0" encoding="utf-8"?>
<!-- Generator: Adobe Illustrator 24.0.0, SVG Export Plug-In . SVG Version: 6.00 Build 0)  -->
<svg version="1.1" id="Layer_1" xmlns="http://www.w3.org/2000/svg" xmlns:xlink="http://www.w3.org/1999/xlink" x="0px" y="0px"
	 viewBox="0 0 65.6 19.41" style="enable-background:new 0 0 65.6 19.41;" xml:space="preserve">
<style type="text/css">
	.st0{fill:#FFFFFF;}
	.st1{fill:none;}
</style>
<path class="st0" d="M11.54,12.31c-0.67,0.06-1.04,0.38-1.34,1.03c-0.36,0.78-0.86,1.75-1.56,2.08c-1.81,0.86-3.8,1.09-5.79,0.64
	C2.56,16,2.12,15.73,2.11,15.54c-0.03-0.73,0.01-1.49,0.17-2.2c0.12-0.53,0.38-1.03,1.14-1.02c0.3,0,0.64-0.37,0.89-0.64
	c0.35-0.38,0.18-1.42-0.23-1.81c-0.46-0.44-0.9-0.14-1.28,0.11c-1.5,0.98-2.49,2.37-2.62,4.15C-0.02,17.06,1.02,18.3,4,18.12
	c0.19-0.01,0.38-0.03,0.56-0.07c1.55-0.38,3.11-0.75,4.65-1.18c0.42-0.12,0.76-0.24,1.18,0.06c2.34,1.67,5.05,0.22,6.23-1.35
	c0.94-1.24,0.82-2.49-0.32-3.53c-1.09-0.99-2.39-1.51-3.87-1.46c-0.42,0.01-0.84,0.26-1.3,0.41c0.16,0.56,0.27,0.96,0.38,1.36
	L11.54,12.31z"/>
<path class="st0" d="M44.61,16.87c-1.23-1.34-1.7-3.07-1.95-4.83c-0.14-0.94-0.59-1.39-1.38-1.51c-0.68-0.11-1.42-0.1-2.09,0.04
	c-0.85,0.18-1.67,0.54-2.57,0.84c-0.01-0.77-0.44-0.83-1.06-0.64c-0.51,0.15-1.04,0.22-1.67,0.35c-0.04-0.62-0.08-1.03-0.09-1.44
	c-0.03-1.74-0.01-3.49-0.08-5.23c-0.04-1-0.35-1.24-1.18-1.15c-0.87,0.09-1.13,0.41-1.09,1.3c0.08,1.55,0.16,3.1,0.22,4.65
	c0.02,0.41-0.03,0.81-0.05,1.29c-1.43-0.18-2.92-1.2-3.95,0.6c1,1.58,2.77,0.7,4,1.38c-0.04,1.67-0.13,3.32-0.09,4.96
	c0.03,1.47,0.36,1.64,1.81,1.26c0.45-0.88,0.5-1.71,0.29-2.71c-0.23-1.05-0.3-2.23,0.25-3.31c0.64-0.09,1.23-0.18,1.85-0.27
	c-0.72,2.64-0.49,4.3,0.91,5.19c2.06,1.31,3.72,0.28,5.09-1.12c0.67,0.75,1.18,1.48,1.85,2.04c0.85,0.71,1.9,0.44,2.39-0.5
	c0.27-0.52,0.48-1.13,0.01-1.57c-0.48-0.46-0.8,0.21-1.2,0.37C44.8,16.88,44.75,16.87,44.61,16.87z"/>
<path class="st0" d="M59.25,19.02c1.53,0.75,2.15,0.42,2.17-1.06c0-0.38,0.02-0.75-0.02-1.12c-0.2-1.73-0.42-3.45-0.61-5.18
	c-0.03-0.26,0.07-0.54,0.13-0.93c0.65,0.01,1.25,0.02,1.85,0.02c0.52-0.01,1.07,0.08,1.53-0.1c0.31-0.12,0.6-0.58,0.67-0.94
	c0.09-0.45-0.2-0.81-0.74-0.81c-0.51,0-1.03-0.07-1.53,0.01c-1.63,0.23-1.89,0.04-1.99-1.64c-0.02-0.33-0.01-0.66-0.03-0.99
	c-0.12-1.74-0.19-3.48-0.39-5.21c-0.1-0.86-0.69-1.2-1.38-1.02c-0.7,0.18-0.91,0.64-0.83,1.49c0.2,2.06,0.37,4.13,0.53,6.19
	c0.02,0.3-0.08,0.61-0.14,1.04c-0.83-0.12-1.57-0.26-2.31-0.33c-0.46-0.05-0.95-0.08-1.38,0.03c-0.31,0.08-0.76,0.4-0.78,0.64
	c-0.03,0.35,0.17,0.9,0.45,1.07c0.54,0.33,1.2,0.54,1.83,0.63c0.78,0.11,1.58,0.06,2.46,0.07C58.91,13.62,59.08,16.28,59.25,19.02z"
	/>
<path class="st0" d="M22.08,13.08c-0.94-2.57-3.21-2.91-4.98-0.91c0.5,0.59,1.11,0.32,1.7,0.22c0.98-0.17,1.2-0.07,1.28,0.93
	c0.06,0.78-0.06,1.58-0.14,2.37c-0.09,0.92,0.24,1.35,1.11,1.35c0.56,0,0.77-0.39,1.01-0.83c0.62-1.18,1.42-2.25,2.34-3.46
	c0.2,0.44,0.36,0.63,0.38,0.84c0.13,1.07,0.22,2.14,0.32,3.22c0.08,0.8,0.33,1.06,1.01,1.08c0.66,0.02,0.96-0.37,1-0.94
	c0.13-1.73-0.23-3.39-1.17-4.83c-0.81-1.24-2.11-1.23-3.06-0.11C22.61,12.32,22.38,12.67,22.08,13.08z"/>
<path class="st0" d="M50.09,12.9c0.25-0.07,0.58-0.07,0.76-0.23c0.29-0.26,0.65-0.6,0.71-0.94c0.19-1.23-1.01-2.11-2.17-1.67
	c-0.91,0.34-1.51,1.24-1.55,2.3c-0.15,3.91,3.75,6.85,7.42,5.58c0.52-0.18,0.99-0.54,1.42-0.9c0.16-0.13,0.26-0.56,0.17-0.72
	c-0.1-0.18-0.46-0.29-0.71-0.31c-0.21-0.01-0.44,0.14-0.65,0.23C52.83,17.31,50.49,15.89,50.09,12.9z"/>
<path d="M44.61,16.87c0.14,0,0.19,0.01,0.23,0c0.4-0.16,0.71-0.83,1.2-0.37c0.47,0.45,0.26,1.06-0.01,1.57
	c-0.49,0.94-1.53,1.21-2.39,0.5c-0.67-0.55-1.19-1.29-1.85-2.04c-1.37,1.4-3.03,2.43-5.09,1.12c-1.4-0.89-1.64-2.55-0.91-5.19
	c-0.62,0.09-1.22,0.18-1.85,0.27c-0.55,1.08-0.48,2.26-0.25,3.31c0.22,1,0.16,1.83-0.29,2.71c-1.45,0.38-1.77,0.21-1.81-1.26
	c-0.04-1.64,0.05-3.29,0.09-4.96c-1.23-0.68-3,0.2-4-1.38c1.02-1.8,2.51-0.78,3.95-0.6c0.02-0.47,0.07-0.88,0.05-1.29
	c-0.06-1.55-0.15-3.1-0.22-4.65c-0.04-0.89,0.22-1.21,1.09-1.3c0.84-0.09,1.15,0.16,1.18,1.15c0.06,1.74,0.05,3.49,0.08,5.23
	c0.01,0.41,0.05,0.82,0.09,1.44c0.63-0.13,1.16-0.2,1.67-0.35c0.62-0.19,1.04-0.13,1.06,0.64c0.9-0.3,1.72-0.67,2.57-0.84
	c0.67-0.14,1.41-0.15,2.09-0.04c0.79,0.12,1.24,0.57,1.38,1.51C42.91,13.8,43.38,15.53,44.61,16.87z M40.55,12.19
	c-2.29-0.43-3.96,1.11-3.41,3c0.11,0.37,0.38,0.78,0.69,0.98c0.62,0.4,1.28,0.16,1.83-0.24c0.66-0.48,1.06-1.15,1.21-2.21
	c-0.27-0.1-0.62-0.24-0.95-0.37C40.2,12.85,40.35,12.57,40.55,12.19z"/>
<path d="M11.51,12.35c-0.11-0.4-0.22-0.8-0.38-1.36c0.45-0.15,0.87-0.39,1.3-0.41c1.48-0.05,2.78,0.47,3.87,1.46
	c1.14,1.04,1.25,2.28,0.32,3.53c-1.18,1.57-3.89,3.03-6.23,1.35c-0.42-0.3-0.75-0.17-1.18-0.06c-1.54,0.42-3.1,0.79-4.65,1.18
	C4.38,18.09,4.19,18.11,4,18.12c-2.98,0.18-4.02-1.06-3.81-3.99c0.13-1.78,1.12-3.17,2.62-4.15c0.38-0.25,0.82-0.55,1.28-0.11
	c0.42,0.39,0.58,1.43,0.23,1.81c-0.25,0.27-0.59,0.64-0.89,0.64c-0.77-0.01-1.02,0.5-1.14,1.02c-0.16,0.71-0.2,1.47-0.17,2.2
	c0.01,0.19,0.45,0.46,0.73,0.52c2,0.44,3.99,0.21,5.79-0.64c0.7-0.33,1.2-1.3,1.56-2.08c0.3-0.66,0.68-0.97,1.35-1.03
	c0.09,0.1,0.18,0.22,0.28,0.31c0.92,0.78,0.91,0.77,0.13,1.73c-0.24,0.29-0.38,0.67-0.58,1.01c1.4,0.63,3.06,0.15,3.71-0.92
	c0.35-0.58,0.3-1.21-0.22-1.64c-0.65-0.53-1.29-1.09-2.25-0.55C12.32,12.41,11.88,12.32,11.51,12.35z"/>
<path d="M59.25,19.02c-0.17-2.74-0.34-5.4-0.52-8.14c-0.88-0.02-1.68,0.04-2.46-0.07c-0.63-0.09-1.29-0.3-1.83-0.63
	c-0.28-0.17-0.48-0.72-0.45-1.07c0.02-0.24,0.47-0.56,0.78-0.64c0.44-0.11,0.92-0.08,1.38-0.03c0.74,0.07,1.47,0.21,2.31,0.33
	c0.06-0.43,0.16-0.74,0.14-1.04c-0.16-2.07-0.33-4.13-0.53-6.19c-0.08-0.86,0.13-1.31,0.83-1.49c0.69-0.18,1.28,0.16,1.38,1.02
	c0.2,1.73,0.27,3.47,0.39,5.21c0.02,0.33,0.01,0.66,0.03,0.99c0.1,1.68,0.36,1.87,1.99,1.64c0.5-0.07,1.02,0,1.53-0.01
	c0.55,0,0.83,0.35,0.74,0.81c-0.07,0.35-0.36,0.82-0.67,0.94c-0.46,0.17-1.02,0.09-1.53,0.1c-0.6,0.01-1.19-0.01-1.85-0.02
	c-0.06,0.4-0.15,0.67-0.13,0.93c0.19,1.73,0.41,3.46,0.61,5.18c0.04,0.37,0.02,0.75,0.02,1.12C61.4,19.44,60.78,19.77,59.25,19.02z"
	/>
<path d="M22.08,13.08c0.3-0.41,0.53-0.76,0.8-1.08c0.95-1.12,2.25-1.13,3.06,0.11c0.94,1.45,1.3,3.1,1.17,4.83
	c-0.04,0.58-0.34,0.96-1,0.94c-0.68-0.02-0.93-0.28-1.01-1.08c-0.1-1.07-0.2-2.15-0.32-3.22c-0.02-0.21-0.18-0.4-0.38-0.84
	c-0.92,1.22-1.71,2.28-2.34,3.46c-0.23,0.44-0.45,0.84-1.01,0.83c-0.87,0-1.2-0.43-1.11-1.35c0.08-0.79,0.21-1.59,0.14-2.37
	c-0.08-1-0.3-1.1-1.28-0.93c-0.59,0.1-1.2,0.36-1.7-0.22C18.87,10.17,21.14,10.51,22.08,13.08z"/>
<path d="M50.09,12.9c0.4,2.99,2.74,4.41,5.39,3.34c0.22-0.09,0.44-0.24,0.65-0.23c0.25,0.02,0.61,0.12,0.71,0.31
	c0.09,0.17,0,0.59-0.17,0.72c-0.43,0.36-0.9,0.72-1.42,0.9c-3.67,1.28-7.57-1.67-7.42-5.58c0.04-1.06,0.64-1.96,1.55-2.3
	c1.16-0.44,2.35,0.44,2.17,1.67c-0.05,0.35-0.41,0.69-0.71,0.94C50.66,12.82,50.34,12.83,50.09,12.9z"/>
<path class="st1" d="M11.51,12.35c0.37-0.03,0.81,0.07,1.11-0.1c0.96-0.54,1.61,0.02,2.25,0.55c0.52,0.43,0.57,1.05,0.22,1.64
	c-0.65,1.08-2.32,1.55-3.71,0.92c0.2-0.35,0.34-0.72,0.58-1.01c0.78-0.96,0.79-0.95-0.13-1.73c-0.11-0.09-0.19-0.21-0.28-0.31
	C11.54,12.31,11.51,12.35,11.51,12.35z"/>
</svg>
