<?xml version="1.0" encoding="utf-8"?>
<!-- Generator: Adobe Illustrator 24.0.0, SVG Export Plug-In . SVG Version: 6.00 Build 0)  -->
<svg version="1.1" id="Layer_1" xmlns="http://www.w3.org/2000/svg" xmlns:xlink="http://www.w3.org/1999/xlink" x="0px" y="0px"
	 viewBox="0 0 33.98 19.44" style="enable-background:new 0 0 33.98 19.44;" xml:space="preserve">
<style type="text/css">
	.st0{fill:#FFFFFF;}
</style>
<path class="st0" d="M94.54-19.34"/>
<path d="M94.54-19.34"/>
<path class="st0" d="M28.46,2.73c0.1-0.06,0.2-0.12,0.3-0.19c0.2,0.43,0.5,0.84,0.59,1.29c0.52,2.74,0.87,5.49,0.47,8.29
	c-0.13,0.9,0.1,1.42,0.84,1.86c0.56,0.33,1.09,0.28,1.56-0.14c0.41-0.36,0.82-1.91,0.5-2.21c-0.7-0.65-0.5-1.44-0.56-2.22
	c-0.15-1.73-0.35-3.46-0.54-5.19c-0.06-0.56-0.21-1.11-0.2-1.66c0.02-1.39-0.29-1.78-1.69-1.77C28.8,0.79,27.86,0.96,26.92,1
	C20.93,1.24,14.95,1.52,8.96,1.65C6.87,1.69,4.78,2.27,2.65,1.6C1.51,1.24,0.92,2.25,1.38,3.4c0.31,0.78,0.63,1.61,0.67,2.43
	c0.13,2.44,0.15,4.89,0.15,7.34c0,0.73,0.35,1.18,0.93,1.43c0.29,0.13,0.76,0.1,1.05-0.06c0.6-0.33,0.58-0.96,0.38-1.51
	c-0.39-1.05-0.38-2.11-0.29-3.2c0.07-0.79,0-1.6-0.06-2.4C4.13,6.24,3.99,5.03,3.86,3.63c7.45-0.36,14.8-1.17,22.17-1.04
	c0.31,0.97-0.23,1.47-0.71,1.98c-1.2,1.27-2.4,2.53-3.61,3.79c-0.25,0.26-0.53,0.5-0.78,0.74c-0.98-0.58-0.98-0.56-2.24-0.41
	c-0.26,0.03-0.56-0.04-0.81-0.15c-1.39-0.57-2.78-1.14-4.16-1.74c-2.28-0.99-4.79-1.36-6.96-2.69c-0.33-0.2-1.16,0.02-1.51,0.33
	c-0.47,0.42-0.06,1,0.32,1.34c0.33,0.3,0.78,0.53,1.21,0.67c1.52,0.51,3.07,0.9,4.57,1.45c3.14,1.16,6.24,2.39,9.37,3.59
	c0.91,0.35,1.41,0.14,1.92-0.64c0.43-0.66,0.86-1.34,1.38-1.92c1.29-1.43,2.59-2.87,3.99-4.19C28.97,3.81,29.05,3.89,28.46,2.73z"/>
<path class="st0" d="M27.16,16.67c0.93,0.05,1.54,0.14,2.15,0.08c0.32-0.03,0.76-0.27,0.88-0.54c0.1-0.23-0.1-0.68-0.28-0.95
	c-0.59-0.88-1.38-1.22-2.4-0.7c-0.12,0.06-0.27,0.07-0.41,0.09c-6.05,1.01-12.19,1.03-18.27,1.63c-0.35,0.03-0.99-0.05-1.04-0.21
	c-0.2-0.75-0.82-0.66-1.33-0.8c-0.95-0.26-1.82,0.16-2.03,0.95c-0.18,0.68,0.28,1.39,1.13,1.71c0.22,0.08,0.45,0.15,0.68,0.17
	c0.8,0.05,1.6,0.13,2.39,0.09c2.91-0.18,5.82-0.39,8.73-0.62c1.87-0.15,3.75-0.33,5.62-0.51C24.48,16.92,25.97,16.78,27.16,16.67z"
	/>
<path d="M28.46,2.73c0.59,1.15,0.51,1.07-0.47,2.01C26.6,6.07,25.3,7.5,24,8.93c-0.53,0.58-0.95,1.26-1.38,1.92
	c-0.51,0.78-1.01,0.99-1.92,0.64c-3.12-1.19-6.23-2.43-9.37-3.59c-1.5-0.55-3.05-0.95-4.57-1.45C6.33,6.31,5.89,6.09,5.56,5.79
	C5.18,5.44,4.77,4.86,5.24,4.45c0.35-0.31,1.18-0.53,1.51-0.33c2.17,1.32,4.68,1.69,6.96,2.69c1.38,0.6,2.77,1.18,4.16,1.74
	c0.25,0.1,0.55,0.18,0.81,0.15c1.26-0.16,1.25-0.17,2.24,0.41c0.25-0.23,0.52-0.47,0.78-0.74c1.21-1.26,2.41-2.52,3.61-3.79
	c0.48-0.51,1.02-1.02,0.71-1.98C18.66,2.46,11.31,3.27,3.86,3.63c0.13,1.4,0.26,2.6,0.35,3.81c0.06,0.8,0.13,1.61,0.06,2.4
	c-0.09,1.09-0.1,2.15,0.29,3.2c0.2,0.54,0.22,1.18-0.38,1.51c-0.28,0.16-0.76,0.19-1.05,0.06c-0.58-0.25-0.93-0.7-0.93-1.43
	c0-2.45-0.02-4.9-0.15-7.34C2.01,5.01,1.69,4.18,1.38,3.4C0.92,2.25,1.51,1.24,2.65,1.6c2.13,0.67,4.22,0.09,6.31,0.05
	C14.95,1.52,20.93,1.24,26.92,1c0.94-0.04,1.88-0.21,2.82-0.22c1.4-0.01,1.71,0.38,1.69,1.77c-0.01,0.55,0.14,1.11,0.2,1.66
	c0.19,1.73,0.39,3.46,0.54,5.19c0.07,0.78-0.14,1.57,0.56,2.22c0.32,0.3-0.09,1.84-0.5,2.21c-0.47,0.42-1,0.47-1.56,0.14
	c-0.74-0.43-0.97-0.95-0.84-1.86c0.4-2.79,0.05-5.55-0.47-8.29c-0.09-0.45-0.39-0.86-0.59-1.29C28.66,2.61,28.56,2.67,28.46,2.73z"
	/>
<path d="M27.16,16.67c-1.19,0.11-2.69,0.26-4.18,0.39c-1.87,0.17-3.74,0.36-5.62,0.51c-2.91,0.23-5.82,0.44-8.73,0.62
	c-0.79,0.05-1.6-0.04-2.39-0.09c-0.23-0.01-0.46-0.08-0.68-0.17c-0.85-0.32-1.31-1.03-1.13-1.71c0.21-0.79,1.08-1.2,2.03-0.95
	c0.51,0.14,1.12,0.05,1.33,0.8c0.04,0.16,0.68,0.24,1.04,0.21c6.09-0.6,12.23-0.62,18.27-1.63c0.14-0.02,0.29-0.03,0.41-0.09
	c1.02-0.52,1.81-0.18,2.4,0.7c0.18,0.27,0.38,0.72,0.28,0.95c-0.12,0.27-0.56,0.51-0.88,0.54C28.71,16.81,28.09,16.72,27.16,16.67z"
	/>
</svg>
