<?xml version="1.0" encoding="utf-8"?>
<!-- Generator: Adobe Illustrator 24.2.3, SVG Export Plug-In . SVG Version: 6.00 Build 0)  -->
<svg version="1.1" xmlns="http://www.w3.org/2000/svg" xmlns:xlink="http://www.w3.org/1999/xlink" x="0px" y="0px"
	 viewBox="0 0 16 16" style="enable-background:new 0 0 16 16;" xml:space="preserve">
<style type="text/css">
	.st0{fill:#FCFAFB;}
	.st1{fill:#ED2290;}
</style>
<g id="Layer_2">
	<polygon class="st0" points="5.1,0.7 5.4,6.8 6.5,6.8 6.5,0.4 	"/>
	<polygon class="st0" points="8.8,0.4 13.7,0.4 12.6,3.2 8.8,3.2 	"/>
	<polygon class="st0" points="11,12.7 15.2,12.7 15.2,15.6 9.4,15.6 	"/>
</g>
<g id="Layer_1">
	<g id="Layer_3">
	</g>
	<g id="Layer_2_1_">
	</g>
	<path class="st1" d="M2.4,10.7c0.1,1.1,0.4,1.8,1.2,1.8c0.7,0,1.3-0.5,1.3-2.4V0h2.4v10.8C7.2,14,5.6,16,3.6,16
		c-2,0-3.6-1.9-3.6-5.2L2.4,10.7z M6.5,6.2V0.7H5.4v5.4H6.5z"/>
	<path d="M2.4,10.7c0.1,1.1,0.4,1.8,1.2,1.8c0.7,0,1.3-0.5,1.3-2.4V0h2.4v10.8C7.2,14,5.6,16,3.6,16c-2,0-3.6-1.9-3.6-5.2L2.4,10.7z
		 M3.6,15.3c1.6,0,2.9-1.7,2.9-4.5v-10H5.4v9.4c0,1.8-0.5,3.1-1.9,3.1c-0.8,0-1.3-0.4-1.6-1.8l-1.2,0.1C0.9,13.9,2.1,15.3,3.6,15.3z
		"/>
	<path class="st1" d="M7.7,15.7l4.5-12H8.2V0h7.7l-0.3,0.3l-4.4,12h4.5V16H7.7L7.7,15.7L7.7,15.7z M12.4,2.9l0.8-2.1H8.8v2.1H12.4z
		 M15.2,15.2v-2.1h-4.3l-0.8,2.1H15.2z"/>
	<path d="M7.5,15.7l4.1-12H7.9V0h7.7v0.4l-4.3,12h4.3V16H7.5L7.5,15.7L7.5,15.7z M15,15.3v-2.1h-4.6v-0.2l4.4-12.2H8.5v2.1h4V3
		L8.3,15.3H15z"/>
</g>
</svg>
