<?xml version="1.0" encoding="utf-8"?>
<!-- Generator: Adobe Illustrator 24.2.3, SVG Export Plug-In . SVG Version: 6.00 Build 0)  -->
<svg version="1.1" xmlns="http://www.w3.org/2000/svg" xmlns:xlink="http://www.w3.org/1999/xlink" x="0px" y="0px"
	 viewBox="0 0 16 16" style="enable-background:new 0 0 16 16;" xml:space="preserve">
<style type="text/css">
	.st0{clip-path:url(#SVGID_2_);}
	.st1{clip-path:url(#SVGID_4_);}
	.st2{clip-path:url(#SVGID_6_);}
	.st3{fill:#FFFFFF;}
	.st4{fill:none;}
	.st5{fill:#010101;}
</style>
<g id="Layer_3">
</g>
<g id="Layer_2">
</g>
<g id="Layer_4">
	<g>
		<defs>
			<rect id="SVGID_1_" x="0" width="16" height="16"/>
		</defs>
		<clipPath id="SVGID_2_">
			<use xlink:href="#SVGID_1_"  style="overflow:visible;"/>
		</clipPath>
		<g class="st0">
			<defs>
				<rect id="SVGID_3_" x="0" y="-2.6" width="18.6" height="18.6"/>
			</defs>
			<clipPath id="SVGID_4_">
				<use xlink:href="#SVGID_3_"  style="overflow:visible;"/>
			</clipPath>
			<g class="st1">
				<defs>
					<rect id="SVGID_5_" x="0" y="-2.6" width="21.1" height="21.1"/>
				</defs>
				<clipPath id="SVGID_6_">
					<use xlink:href="#SVGID_5_"  style="overflow:visible;"/>
				</clipPath>
				<g class="st2">
					<polygon class="st3" points="15.8,-12.9 14.1,-11.9 13.4,-10 11.3,-6.7 9.3,-5.5 8,-3.2 6.6,-3.1 4.2,1.1 2.6,2.3 1.5,3.2 
						1.4,5.2 0.6,6.8 1.1,8.7 1.9,9.8 3,11 3.6,13.3 2.6,16.7 1.5,17.4 2.5,18.9 1.8,19.7 2.8,21.6 3.8,20.2 4.5,17.4 5,15.1 
						5.5,13.8 6.1,11.8 7.8,12.2 9,13.2 11.4,11.1 13.7,12.6 12.6,16.3 11.4,17.2 11.3,19 9.3,20.4 9.1,22.3 11.6,21.9 12.6,19.6 
						14.5,17.7 15.4,15.2 17.2,14.4 17.4,12.2 19.5,10.8 19.3,8.6 20.3,7.8 20.4,6.6 21.7,6 21.5,4.3 22.7,3.6 23.3,1.8 24,1.1 
						24.5,1.4 24.3,4.1 25.6,5 27.2,4.2 27.1,2.3 27.1,0.8 25.1,-4.3 25.3,-6 23.4,-8.6 23.1,-10.1 24.1,-10.8 23.4,-12.9 
						22.9,-13.6 21.2,-13.2 20.6,-13.3 19.8,-11.6 18.5,-11 					"/>
					<path class="st3" d="M11.3,4.2c-0.2,0-0.5,0.1-0.5,0.3c-0.1,0.2-0.1,0.4-0.1,0.5c-0.1,0.2,0,0.6,0.2,0.7s0.5,0.3,0.8,0.3
						c0.4,0,0.6-0.2,0.7-0.7C12.3,4.7,11.8,4.4,11.3,4.2z"/>
					<path class="st3" d="M4.2,4.1C3.8,4,3.6,4.2,3.6,4.5c0,0.3-0.1,0.6,0.2,0.9C4,5.6,4.2,5.8,4.5,5.8c0.2,0,0.3-0.1,0.5-0.1
						C5.3,5.5,5.6,5,5.4,4.8C5.1,4.4,4.7,4.1,4.2,4.1z"/>
					<path class="st3" d="M16.9,8.9c0.2,0,0.1-0.1,0.2-0.3c0.1-0.3,0.2-0.6,0.4-0.8c0.2-0.2,0.3-0.3,0.3-0.6c0,0,0,0,0,0
						c-0.1-0.5-0.1-1.1-0.4-1.6c-0.1-0.2-0.2-0.4-0.5-0.4c-0.1,0-0.2-0.2-0.2-0.2c0.1-0.6-0.1-1.1-0.3-1.6c0,0-0.1-0.1-0.1-0.1
						c-0.3-0.2-0.7-0.3-0.9-0.7c-0.2-0.3-0.6-0.4-0.9-0.6c-0.1,0-0.2,0-0.3-0.1c-0.1,0-0.2,0-0.2-0.1c-0.4-0.6-0.9-0.9-1.5-1.1
						c-0.8-0.2-1.2,0.6-1.2,1.2c0.4,0.2,0.4,0.2,0.6-0.3C12,1,12.1,0.9,12.5,1c0.6,0.1,1.2,0.7,1.3,1.3c0,0.1,0.1,0.2,0.2,0.3
						c0.1,0,0.2-0.1,0.3-0.1c0,0,0.1,0,0.1,0c0.2,0.1,0.5,0.2,0.6,0.4c0.2,0.4,0.4,0.6,0.8,0.7c0.4,0,0.6,0.9,0.4,1.3
						c-0.1,0.2-0.1,0.5-0.2,0.8c0.2,0,0.3,0,0.4,0c0.2-0.1,0.4,0,0.5,0.2c0.1,0.1,0.4,0.2,0.1,0.4c0,0,0,0,0,0
						c0.1,0.3,0.1,0.6,0.2,0.9c0,0.1,0,0.2-0.1,0.2c-0.3,0.2-0.4,0.6-0.5,0.9c-0.1,0.3-0.2,0.4-0.5,0.5c-0.2,0.1-0.3,0.5-0.2,0.7
						c0,0,0.1,0.2,0,0.2c0,0.1-0.1,0.1-0.2,0.1c-0.2,0-0.4,0-0.6,0c-0.5,0-0.8-0.3-0.9-0.8c0-0.3-0.2-0.4-0.4-0.4
						c-0.1,0-0.3,0-0.4,0c0-0.1,0-0.3,0-0.4c0.2-0.3,0.1-0.6-0.1-0.8C13.3,7,13,7.1,12.9,7.3c0.3,0.2,0.4,0.5,0.2,0.8
						c0,0.1,0,0.2,0,0.2C13,8.8,13.1,9,13.5,9.1c0.1,0,0.3,0.1,0.5,0.2c0.4,0.3,0.7,0.7,1.3,0.8c0.4,0.1,0.7,0,1-0.2
						c0.2-0.2,0.5-0.4,0.3-0.8C16.5,9.1,16.7,8.9,16.9,8.9z"/>
					<path class="st4" d="M27.4,3.2c-0.3-0.4-0.3-0.7,0.1-1.1c0.1-0.1,0.1-0.2,0.1-0.3c0-0.5-0.1-1-0.5-1.5c0-0.1-0.1-0.2-0.1-0.3
						c-0.1-0.4-0.2-0.7-0.3-1.1c0,0,0,0,0-0.1c-0.2-0.3-0.4-0.5-0.4-0.9c0-0.3,0-0.6-0.1-0.8c-0.2-0.5-0.4-0.9-0.6-1.3
						c-0.1-0.2-0.1-0.5-0.1-0.8c0-0.2,0.1-0.5,0.2-0.8c0.1-0.6-0.3-1-0.7-1.4c-0.2-0.2-0.5-0.3-0.6-0.6c-0.2-0.2-0.2-0.6-0.5-0.8
						c-0.2-0.2-0.3-0.2-0.5-0.2c0.1,0.3,0.1,0.4,0.3,0.7c0.1,0.1,0.1,0.2,0.1,0.3c0,0.1,0,0.3,0.1,0.3c0.2,0.1,0.5,0.2,0.6,0.5
						c0.1,0.2,0.3,0.2,0.4,0.4c0.3,0.3,0.4,0.6,0.2,1C25-5.1,25-4.7,25.1-4.3c0.1,0.4,0.4,0.8,0.6,1.1c0.1,0.3,0.2,0.5,0.2,0.9
						c0,0.4,0,0.8,0.3,1.2c0.3,0.4,0.5,0.9,0.5,1.4c0,0,0,0.1,0.1,0.2c0.2,0.3,0.4,0.6,0.4,1c0,0.3-0.2,0.6-0.3,0.9
						c0,0.2,0,0.4,0,0.5c0.1,0.3,0.2,0.6,0.3,0.9c0,0.1,0,0.2,0,0.3c0,0-0.1,0-0.1,0c-0.2-0.3-0.3-0.1-0.3,0.1
						c-0.2,0.5-0.8,0.9-1.3,0.7c-0.2-0.1-0.4-0.4-0.4-0.6c0-0.2,0-0.4-0.3-0.3c0-0.2-0.1-0.4-0.1-0.6c0-0.2,0-0.5,0.1-0.8
						c0.1-0.2,0.1-0.3,0.1-0.5c0-0.5-0.2-0.7-0.7-0.8c-0.1,0-0.2-0.1-0.2-0.2c0,0,0.1-0.1,0.1-0.2c0.1-0.1,0.3-0.2,0.4-0.4
						c0.1-0.4-0.1-0.7-0.3-1c-0.1,0.3-0.1,0.5,0,0.8c0,0,0,0.1,0,0.1c-0.2,0.2-0.4,0.2-0.8,0c0,0.1-0.1,0.2-0.1,0.2
						c0,0.2,0,0.4,0,0.6c0,0,0,0.1,0,0.2c0.2,0.3,0.1,0.5-0.2,0.7c0,0-0.1,0.1-0.1,0.2c0.2,1-0.6,1.5-1.4,1.7
						c-0.2,0-0.4,0.1-0.5,0.2c0,0.1,0.1,0.3,0.1,0.5c0.2,0.4,0.4,0.8,0.2,1.2c0,0,0,0.1,0,0.1c0,0.1,0,0.1,0,0.2h-0.2
						c-0.3,0.2-0.7,0.5-1,0.7c-0.3,0.2-0.3,0.4-0.1,0.6c0,0.1,0.1,0.1,0.1,0.2c0,0.5-0.7,1-1.2,0.9c-0.1,0-0.2,0-0.3,0
						c0,0.1,0,0.2,0,0.3c0.2,0.4,0.4,0.8,0.5,1.2c0.1,0.5-0.2,1-0.7,1.1c-0.2,0.1-0.5,0.1-0.8,0.1c0,0.1-0.1,0.3-0.2,0.5
						c-0.1,0.2-0.4,0.4-0.5,0.6c0,0-0.1,0.1-0.1,0.2c-0.1,0.4-0.1,0.7-0.2,1.1c0,0.2-0.1,0.4-0.3,0.5c-0.1,0-0.3,0.1-0.4,0.2
						c-0.4,0.3-0.7,0.6-1,1c-0.3,0.5-0.5,1-0.5,1.5c0,0.3-0.1,0.4-0.3,0.6c-0.4,0.2-0.7,0.6-0.6,1.1c-0.1,0.1-0.2,0.2-0.3,0.2
						c-0.7,0.5-1.2,1.1-1.5,1.8c-0.1,0.3-0.3,0.6-0.5,0.7c-0.2,0.1-0.4,0.2-0.5,0.3c-0.1,0.1-0.1,0.2-0.2,0.3
						c-0.4,0.1-0.8,0.2-1.2,0.3c-0.1,0-0.2-0.1-0.3-0.2c0-0.1,0-0.3,0-0.4c0-0.2,0-0.5,0.2-0.7c0.1,0,0.1-0.2,0.1-0.2
						c0.1-0.1,0.1-0.3,0.2-0.3c0.4-0.3,0.9-0.5,1.3-0.8c0.1-0.1,0.2-0.1,0.2-0.3c0-0.4,0-0.8,0-1.1c-0.1-0.4,0-0.7,0.4-1
						c0.1-0.1,0.2-0.2,0.3-0.4c0.1-0.2,0.3-0.4,0.6-0.3c0.2,0.1,0.3-0.1,0.3-0.1c0.1-0.3,0.1-0.6,0.1-0.9c0-0.2-0.1-0.4-0.1-0.6
						c0-0.2,0-0.5,0.3-0.6c0.6-0.2,0.6-0.5,0.4-0.9c0-0.1,0-0.2,0-0.3c0.2-0.3,0.2-0.7,0-0.9c-0.2-0.2-0.6-0.3-0.7-0.7
						c0,0-0.1,0-0.1,0c-0.2,0-0.5,0-0.7-0.1c-0.2,0-0.4-0.2-0.6,0c0,0-0.1,0-0.2-0.1c-0.2-0.1-0.3-0.3-0.5-0.1
						C11,11,11,11.1,10.8,11.3c-0.3,0.1-0.8,0.1-0.9,0.7c0,0-0.1,0.1-0.2,0.1c-0.3-0.1-0.6,0-0.6,0.4c0,0.1,0,0.3,0,0.4
						c-0.3,0-0.3-0.3-0.4-0.5c0-0.1,0-0.3,0.1-0.4c0.2-0.4,0.6-0.7,0.8-1.1c0.2-0.4,0.2-0.8,0.1-1.2C9.7,9.4,9.3,9.2,9.1,9.3
						C8.9,9.5,8.6,9.8,8.4,10c-0.2,0.2-0.3,0.4-0.5,0.5c-0.3,0.3-0.7,0.6-0.9,1c-0.1,0.1-0.2,0.2-0.3,0.4c-0.1-0.4-0.1-0.7-0.2-0.9
						c-0.2-0.2-0.5-0.2-0.9-0.3c0.1-0.1,0.2-0.3,0.4-0.4C6.1,10,6.3,9.9,6.4,9.8c0.2-0.2,0-0.4,0-0.7c0,0,0-0.1,0-0.2
						C6.7,8.6,7,8.4,7.1,8c0,0,0.1-0.1,0.2-0.1c0.2-0.1,0.3-0.3,0.5-0.4c0.1-0.1,0-0.4-0.2-0.5c0-0.3-0.1-0.5-0.1-0.7
						c0,0-0.3-0.1-0.3,0c-0.2,0.4-0.7,0.5-1,0.7C5.8,7.1,5.7,7.2,5.8,7.6h0.9C6.5,7.9,6.5,8.2,6.3,8.3C6,8.7,5.5,9,5.1,9.3
						C4.8,9.5,4.8,9.7,5,10c0.1,0.1,0.1,0.2-0.1,0.3c-0.3,0.1-0.4,0.4-0.2,0.7c0,0.1,0.1,0.2,0.1,0.3c0,0.4,0.1,0.8,0.4,1.1
						c0,0,0.1,0.1,0.2,0.2c0.1,0.3,0.3,0.4,0.6,0.2c0.1,0,0.2,0,0.3,0c0.1,0,0.3,0,0.3,0c0.3-0.1,0.5-0.3,0.7-0.6
						c0-0.1,0.2-0.2,0.2-0.1c0.1,0,0.2,0.1,0.3,0.2c0.1,0.1,0.1,0.2,0.1,0.2c0,0.1,0.1,0.2,0.2,0.3c0,0,0,0,0.1,0
						c0.3,0,0.5,0,0.5,0.4c0,0.1,0.1,0.3,0.3,0.4c0.3,0.2,0.5,0.1,0.6-0.4c0-0.1,0-0.2,0-0.3c0-0.1,0.2-0.2,0.2-0.2
						c0.1,0,0.1,0.2,0.2,0.2c0,0,0,0,0,0c0.1,0,0.3,0,0.4,0c0-0.3,0.1-0.5,0.1-0.8c0.2,0,0.5,0.1,0.6,0c0.3-0.2,0.5-0.1,0.8,0
						c0,0,0-0.1,0.1-0.1c0.3,0,0.7,0.1,1,0.2c0.1,0,0.2,0.1,0.3,0.2c0.1,0.1,0.2,0.1,0.1,0.3c-0.1,0.2-0.1,0.4,0.2,0.6
						c-0.1,0.2-0.3,0.3-0.4,0.5c-0.1,0.2-0.3,0.3-0.3,0.5c-0.1,0.2-0.1,0.5-0.1,0.7c0.1,0.5-0.2,0.7-0.5,1c-0.3,0.3-0.6,0.6-0.9,0.9
						C10.8,17.3,11,18,11,18.6c0,0.2,0,0.4-0.2,0.5c-0.2,0.1-0.5,0.2-0.7,0.4c-0.2,0.2-0.7,0.2-0.6,0.7c0,0,0,0,0,0.1
						C9.2,20.4,9,20.7,9,21c0,0.3-0.3,0.5-0.2,0.8c0.2,0.6,0.4,0.9,1,0.7c0.6-0.1,1.3-0.1,1.8-0.6c0,0,0,0,0,0
						c0.5-0.2,0.8-0.6,0.9-1.1c0.2-0.7,0.6-1.2,1.2-1.6c0.3-0.2,0.7-0.4,0.7-0.8c0.1-0.5,0.4-0.7,0.7-0.9c0.4-0.3,0.5-0.4,0.3-0.9
						c0-0.1,0-0.3,0-0.4c0.1-0.5,0.4-0.9,0.7-1.2c0,0,0.1-0.1,0.2-0.2c0.3-0.2,0.7-0.4,1-0.6c0,0,0.1-0.1,0.1-0.2
						c0.2-0.3,0.1-0.6,0.2-0.9c0-0.2,0.1-0.4,0.2-0.7c0.1-0.2,0.2-0.3,0.4-0.5c0.1-0.1,0.2-0.1,0.3-0.2c0.2-0.1,0.4-0.2,0.5-0.3
						c0.1-0.1,0.2-0.2,0.4-0.2c0.5-0.2,0.7-0.5,0.7-1c0-0.4-0.1-0.7-0.2-1.1c-0.1-0.4-0.1-0.5,0.3-0.6c0.4-0.1,0.7-0.5,0.8-0.9
						c0.1-0.3,0.1-0.7,0.1-1c0,0,0,0,0,0c0.6-0.1,0.9-0.5,1-1c0.1-0.3,0-0.8-0.1-1.1c0-0.2-0.1-0.4-0.1-0.5C22,4,22.1,3.9,22.3,3.9
						c0.2-0.1,0.4-0.3,0.6-0.4c0.5-0.2,0.6-0.6,0.7-1.1c0-0.1,0.1-0.3,0.2-0.4c0-0.1,0.1-0.1,0.1-0.2c0-0.4,0.3-0.3,0.6-0.3
						c-0.4,0.7-0.6,1.4-0.1,2.2c-0.1,0-0.2,0-0.3,0c0,0.1,0,0.2,0,0.4c0.1,0.3,0.2,0.6,0.3,0.9c0.1,0.3,0.3,0.4,0.6,0.4
						c0.3,0,0.6,0,0.9,0c0.6,0,0.8-0.4,1.1-0.7c0.1-0.1,0.1-0.3,0.3-0.2c0,0,0.1,0,0.2-0.1C27.8,3.8,27.7,3.6,27.4,3.2z"/>
					<path class="st3" d="M23.9-1.7c0-0.1,0-0.2,0-0.3c-0.1-0.3-0.2-0.6-0.3-0.9c0,0-0.1,0-0.2-0.1c-0.2-0.1-0.4,0-0.4,0.2
						c0,0.1,0,0.3,0.2,0.4c0.1,0,0.2,0.1,0.2,0.1c0,0.2,0,0.5-0.1,0.7c0.1,0.2,0.3,0.4,0.4,0.6c0.1,0.2,0.1,0.2,0.3,0.2
						c0-0.1,0-0.2-0.1-0.3C23.8-1.3,23.9-1.5,23.9-1.7z"/>
					<path class="st5" d="M24.1-0.8c0.1,0.3,0.4,0.6,0.3,1c-0.1,0.2-0.3,0.3-0.4,0.4c-0.1,0.1-0.2,0.2-0.1,0.2
						c0,0.1,0.1,0.2,0.2,0.2c0.4,0.1,0.6,0.3,0.7,0.8c0,0.2,0,0.3-0.1,0.5c-0.1,0.2-0.1,0.5-0.1,0.8c0,0.2,0,0.4,0.1,0.6
						c0.2,0,0.3,0.1,0.3,0.3c0,0.3,0.2,0.6,0.4,0.6c0.5,0.1,1.1-0.2,1.3-0.7c0.1-0.1,0.1-0.4,0.3-0.1c0,0,0.1,0,0.1,0
						c0-0.1,0.1-0.2,0-0.3c-0.1-0.3-0.2-0.6-0.3-0.9c0-0.2,0-0.4,0-0.5c0.1-0.3,0.3-0.6,0.3-0.9c0-0.4-0.2-0.7-0.4-1
						c0,0-0.1-0.1-0.1-0.2c0-0.5-0.2-1-0.5-1.4c-0.3-0.4-0.3-0.8-0.3-1.2c0-0.3,0-0.6-0.2-0.9c-0.2-0.4-0.5-0.7-0.6-1.1
						C24.9-4.6,25-5,25.2-5.4c0.2-0.4,0.2-0.7-0.2-1c-0.1-0.1-0.4-0.2-0.4-0.4c-0.1-0.3-0.4-0.3-0.6-0.5c-0.1,0-0.1-0.2-0.1-0.3
						c0-0.1,0-0.2-0.1-0.3c-0.2-0.2-0.3-0.3-0.3-0.7c0.2,0,0.3,0,0.5,0.2c0.2,0.2,0.3,0.6,0.5,0.8c0.2,0.2,0.5,0.3,0.6,0.6
						c0.3,0.4,0.8,0.8,0.7,1.4c0,0.2-0.1,0.5-0.2,0.8s0,0.6,0.1,0.8c0.2,0.5,0.4,0.9,0.6,1.3c0.1,0.2,0.1,0.5,0.1,0.8
						c0,0.4,0.1,0.7,0.4,0.9c0,0,0,0,0,0.1c0.1,0.4,0.2,0.7,0.3,1.1c0,0.1,0,0.2,0.1,0.3c0.3,0.4,0.5,0.9,0.5,1.5
						c0,0.1,0,0.2-0.1,0.3c-0.4,0.4-0.4,0.7-0.1,1.1c0.2,0.4,0.3,0.6,0,1c0,0-0.2,0.1-0.2,0.1c-0.2-0.1-0.2,0-0.3,0.2
						c-0.3,0.3-0.6,0.8-1.1,0.7c-0.3,0-0.6,0-0.9,0c-0.3,0-0.5-0.1-0.6-0.4S24,4.3,23.9,4c0-0.1,0-0.2,0-0.4c0.1,0,0.2,0,0.3,0
						c-0.5-0.8-0.3-1.5,0.1-2.2c-0.3,0-0.6,0-0.6,0.3c0,0.1-0.1,0.1-0.1,0.2c0,0.1-0.1,0.3-0.2,0.4c-0.1,0.5-0.2,0.9-0.7,1.1
						c-0.2,0.1-0.4,0.2-0.6,0.4c-0.1,0.1-0.3,0.1-0.4,0.2c0,0.1,0.1,0.3,0.1,0.5c0,0.4,0.2,0.8,0.1,1.1c-0.1,0.5-0.5,0.9-1,1
						c0,0,0,0,0,0c0,0.4,0,0.7-0.1,1c-0.1,0.4-0.4,0.7-0.8,0.9c-0.4,0.1-0.4,0.2-0.3,0.6c0.1,0.3,0.2,0.7,0.2,1.1
						c0,0.5-0.2,0.9-0.7,1c-0.1,0-0.2,0.2-0.4,0.2c-0.2,0.1-0.4,0.2-0.5,0.3c-0.1,0-0.2,0.1-0.3,0.2c-0.1,0.1-0.3,0.3-0.4,0.5
						c-0.1,0.2-0.1,0.4-0.2,0.7c0,0.3,0.1,0.7-0.2,0.9c0,0-0.1,0.1-0.1,0.2c-0.3,0.2-0.7,0.4-1,0.6c-0.1,0-0.1,0.1-0.2,0.2
						c-0.3,0.3-0.6,0.7-0.7,1.2c0,0.1,0,0.3,0,0.4c0.2,0.5,0.1,0.6-0.3,0.9c-0.3,0.2-0.7,0.4-0.7,0.9c0,0.3-0.4,0.6-0.7,0.8
						c-0.6,0.4-1,0.9-1.2,1.6c-0.1,0.5-0.4,0.9-0.9,1.1c0,0,0,0,0,0c-0.5,0.5-1.2,0.5-1.8,0.6c-0.6,0.1-0.8-0.2-1-0.7
						c-0.1-0.3,0.1-0.6,0.2-0.8c0-0.3,0.2-0.6,0.4-0.8c0,0,0,0,0-0.1c0-0.4,0.3-0.5,0.6-0.7c0.2-0.1,0.5-0.2,0.7-0.4
						c0.2-0.1,0.2-0.3,0.2-0.5c0-0.7-0.2-1.4,0.3-1.9c0.3-0.3,0.6-0.6,0.9-0.9c0.3-0.3,0.6-0.5,0.5-1c0-0.2,0-0.5,0.1-0.7
						c0.1-0.2,0.2-0.3,0.3-0.5s0.3-0.3,0.4-0.5c-0.3-0.2-0.3-0.4-0.2-0.6c0.1-0.1,0-0.2-0.1-0.3c-0.1,0-0.2-0.2-0.3-0.2
						c-0.3-0.1-0.7-0.1-1-0.2c0,0,0,0.1-0.1,0.1c-0.3-0.1-0.5-0.2-0.8,0c-0.1,0.1-0.4,0-0.6,0c0,0.3-0.1,0.5-0.1,0.8
						c-0.1,0-0.2,0-0.4,0l0,0c-0.1-0.1-0.1-0.2-0.2-0.2c0,0-0.2,0.1-0.2,0.2c0,0.1,0,0.2,0,0.3c-0.1,0.5-0.3,0.6-0.6,0.4
						c-0.1-0.1-0.3-0.3-0.3-0.4c0-0.4-0.2-0.4-0.5-0.4c0,0-0.1,0-0.1,0c-0.1-0.1-0.1-0.2-0.2-0.3c0-0.1-0.1-0.2-0.1-0.2
						c-0.1-0.1-0.2-0.2-0.3-0.2c0,0-0.2,0.1-0.2,0.1c-0.1,0.3-0.4,0.4-0.7,0.6c-0.1,0-0.2,0-0.3,0s-0.2,0-0.3,0
						c-0.2,0.1-0.5,0-0.6-0.2c0-0.1-0.1-0.1-0.2-0.2c-0.3-0.3-0.4-0.7-0.4-1.1c0-0.1,0-0.2-0.1-0.3c-0.2-0.3-0.1-0.5,0.2-0.7
						c0.2-0.1,0.2-0.2,0.1-0.3C4.6,9.9,4.7,9.7,4.9,9.5c0.4-0.3,0.9-0.6,1.2-1C6.3,8.3,6.3,8,6.5,7.7c-0.3,0-0.6,0-0.9,0
						c0-0.4,0-0.5,0.4-0.7c0.3-0.2,0.8-0.3,1-0.7c0,0,0.3,0,0.3,0C7.3,6.5,7.4,6.8,7.4,7c0.2,0.1,0.3,0.4,0.2,0.5
						C7.5,7.7,7.3,7.8,7.1,8c0,0-0.1,0.1-0.2,0.1c0,0.4-0.4,0.6-0.7,0.9c0,0-0.1,0.1,0,0.2c0.1,0.2,0.2,0.4,0,0.7
						C6.1,10,6,10.1,5.8,10.3c-0.1,0.1-0.3,0.3-0.4,0.4C5.7,10.8,6,10.8,6.2,11c0.2,0.2,0.1,0.6,0.2,0.9c0.1-0.1,0.2-0.2,0.3-0.4
						c0.2-0.4,0.6-0.7,0.9-1c0.2-0.2,0.3-0.4,0.5-0.5C8.5,9.9,8.7,9.7,9,9.4c0.1-0.1,0.6,0.1,0.7,0.3c0.1,0.4,0.1,0.8-0.1,1.2
						C9.3,11.3,9,11.6,8.7,12c-0.1,0.1-0.1,0.3-0.1,0.4c0,0.2,0,0.4,0.4,0.5c0-0.2,0-0.3,0-0.4c0-0.4,0.3-0.5,0.6-0.4
						c0,0,0.2,0,0.2-0.1c0.1-0.5,0.6-0.5,0.9-0.7c0.1-0.1,0.2-0.3,0.3-0.4c0.2-0.2,0.3,0,0.5,0.1c0,0,0.1,0.1,0.2,0.1
						c0.2-0.1,0.4,0,0.6,0c0.2,0,0.5,0,0.7,0.1c0,0,0.1,0,0.1,0c0,0.4,0.5,0.5,0.7,0.7s0.2,0.6,0,0.9c0,0.1-0.1,0.2,0,0.3
						c0.1,0.5,0.1,0.7-0.4,0.9C13,14.4,13,14.6,13,14.8c0,0.2,0.1,0.4,0.1,0.6c0,0.3-0.1,0.6-0.1,0.9c0,0-0.1,0.2-0.3,0.1
						c-0.3-0.1-0.4,0.1-0.6,0.3c-0.1,0.1-0.2,0.3-0.3,0.4c-0.3,0.3-0.4,0.6-0.4,1c0,0.4,0,0.8,0,1.1c0,0.1,0,0.2-0.2,0.3
						c-0.4,0.2-0.9,0.5-1.3,0.8c-0.1,0.1-0.1,0.2-0.2,0.3c0,0.1-0.1,0.2-0.1,0.2c-0.2,0.2-0.2,0.4-0.2,0.7c0,0.1,0,0.3,0,0.4
						c0,0.1,0.2,0.2,0.3,0.2c0.4-0.1,0.8-0.2,1.2-0.3c0.1,0,0.2-0.2,0.2-0.3c0.1-0.2,0.3-0.2,0.5-0.3c0.2-0.1,0.4-0.4,0.5-0.7
						c0.3-0.8,0.8-1.4,1.5-1.8c0.1-0.1,0.2-0.1,0.3-0.2c-0.1-0.5,0.2-0.9,0.6-1.1c0.2-0.1,0.4-0.2,0.3-0.6c0-0.5,0.1-1,0.5-1.5
						c0.3-0.4,0.6-0.7,1-1c0.1-0.1,0.3-0.1,0.4-0.2c0.2-0.1,0.3-0.3,0.3-0.5c0-0.4,0.1-0.7,0.2-1.1c0-0.1,0-0.2,0.1-0.2
						c0.2-0.2,0.4-0.4,0.5-0.6c0.1-0.1,0.1-0.4,0.2-0.5c0.3,0,0.5,0,0.8-0.1c0.5-0.1,0.8-0.7,0.7-1.1c-0.1-0.4-0.4-0.8-0.5-1.2
						c0-0.1,0-0.2,0-0.3c0.1,0,0.2,0,0.3,0c0.5,0,1.1-0.4,1.2-0.9c0-0.1,0-0.2-0.1-0.2C20,7,20.1,6.8,20.4,6.6
						c0.3-0.2,0.7-0.4,1-0.7c0,0,0.1,0,0.2,0c0-0.1,0-0.1,0-0.2c0,0,0-0.1,0-0.1c0.1-0.4,0-0.8-0.2-1.2c-0.1-0.1-0.2-0.4-0.1-0.5
						c0.1-0.1,0.3-0.2,0.5-0.2C22.4,3.5,23.2,3,23,2.1c0,0,0-0.2,0.1-0.2c0.3-0.2,0.4-0.4,0.2-0.7c0,0,0-0.1,0-0.2
						c0-0.2,0-0.4,0-0.6c0-0.1,0-0.1,0.1-0.2c0.4,0.2,0.5,0.2,0.8,0c0,0,0.1-0.1,0-0.1C23.9-0.3,24-0.5,24.1-0.8L24.1-0.8z
						 M8.9,10.2c-0.1,0.1-0.3,0.2-0.4,0.4C8.3,11,7.7,11.2,8,11.8C8.3,11.7,9,10.6,8.9,10.2z"/>
					<path class="st5" d="M24-11.8c-0.1-0.3-0.4-0.6-0.3-0.9c0-0.1,0.2-0.3,0.1-0.5c-0.1-0.3-0.2-0.7-0.7-0.7c0,0,0,0-0.1,0
						c-0.3,0-0.6-0.1-0.9,0.1c-0.2,0.2-0.6,0.3-0.9,0.5c-0.1-0.3-0.3-0.5-0.6-0.4c-0.3,0-0.3,0.2-0.4,0.5c0,0.2,0,0.3-0.1,0.5
						c-0.1,0.2-0.2,0.5-0.4,0.6c-0.3,0.2-0.7,0.4-1.1,0.6c-0.3,0.1-0.5,0-0.7-0.2c-0.1-0.1-0.2-0.3-0.4-0.4
						c-0.3-0.1-0.6-0.4-0.9-0.3c-0.1,0-0.2-0.1-0.2-0.1c-0.1-0.1-0.1-0.3-0.2-0.4c-0.3-0.3-0.9-0.3-1.3,0.1
						c-0.3,0.4-0.6,0.5-0.9,0.2c0,0.1-0.1,0.1-0.1,0.2c-0.1,0.2-0.2,0.3-0.3,0.5c-0.1,0.2-0.1,0.4-0.1,0.5c0,0.4,0.1,0.8-0.1,1.1
						c0,0.1-0.1,0.1-0.2,0.1c-0.3,0-0.5,0.2-0.6,0.5c-0.1,0.3-0.2,0.5-0.5,0.6c-0.1,0-0.1,0.2-0.1,0.2c0,0.3-0.1,0.6-0.3,0.9
						c-0.1,0.3-0.2,0.5-0.4,0.8c-0.2,0.3-0.5,0.6-0.9,0.8c-0.3,0.1-0.7,0.2-1.1,0.3C9.3-6.1,9-6,8.9-5.8C8.7-5.4,8.5-5,8.4-4.6
						C8.2-4.1,8-3.8,7.5-3.6C7.1-3.5,7-3.5,6.7-3.8C6.6-3.7,6.4-3.6,6.2-3.5C6.1-3.3,6-3.1,5.9-3C5.6-2.5,5.4-2.1,5.3-1.6
						C5.2-1.2,5.1-0.8,4.8-0.5C4.6-0.2,4.5,0.1,4.4,0.3C4.3,0.6,4.5,0.8,4.8,0.8c0.1,0,0.1,0,0.3,0C5,0.9,4.9,1,4.9,1
						C4.6,1,4.4,1,4.2,1.1c-0.3,0-0.6,0-0.9,0.1C2.8,1.4,2.7,1.9,2.6,2.3C2.2,2.4,1.8,2.5,1.5,2.6c-0.1,0-0.3,0.1-0.4,0.3
						C1,3.2,0.9,3.5,0.9,3.7c0,0.4,0.1,0.9,0,1.3c0,0.2-0.2,0.5-0.3,0.7C0.5,5.9,0.4,6,0.2,6.1c-0.2,0.3-0.2,0.6,0,1
						C0.4,7.5,0.6,8,0.5,8.5c0,0.2,0,0.4,0.2,0.6c0.1,0.1,0.1,0.2,0.2,0.3c0.2,0.1,0.3,0.3,0.5,0.4c0.1,0.1,0.3,0.1,0.4,0.2
						c0.2,0.3,0.3,0.6,0.6,0.9c0.1,0.1,0.2,0.2,0.4,0.2C3,11.1,3,11.2,3,11.4c0,0.2,0,0.4,0,0.5c0.1,0.3,0.2,0.6,0.1,0.9
						C3,13.5,3,14.1,2.7,14.7c0,0,0,0,0,0.1c-0.1,0.4-0.2,0.7-0.3,1.1c0,0.1-0.1,0.3-0.2,0.4c-0.2,0.4-0.5,0.8-0.7,1.2
						c-0.1,0.1-0.1,0.3,0.1,0.5c0.1,0.1,0.2,0.4,0.3,0.5C2,18.7,2.1,19,1.7,19.1c0,0-0.1,0.1-0.1,0.1c-0.3,0.5-0.1,1,0.1,1.4
						c0.1,0.3,0.4,0.6,0.7,0.9c0.1,0.2,0.3,0.1,0.4,0c0.4-0.4,0.8-0.8,1-1.4C3.9,20,4,19.7,4.2,19.5c0.2-0.2,0.3-0.4,0.4-0.7
						c0-0.2,0-0.4,0.1-0.5c0.2-0.5,0.1-1,0.1-1.5c0-0.3-0.1-0.5,0.2-0.7C5,16,5.2,15.8,5.3,15.7c0.2-0.2,0.4-0.5,0.2-0.8
						c-0.1-0.4,0-0.7,0.3-0.9C5.9,13.9,6,13.8,6,13.7c0.1-0.1,0.1-0.3-0.1-0.3c-0.4-0.1-0.5,0-0.7,0.3C5,14.1,4.8,14.5,5,14.9
						c0,0,0,0.1,0,0.1c-0.5,0.3-0.6,0.7-0.7,1.2c0,0.2,0,0.4,0,0.6c0,0.3,0.1,0.6,0,0.8c0,0.3-0.1,0.5-0.4,0.7
						c-0.1,0-0.2,0.2-0.1,0.4c0,0.1,0,0.3,0,0.4c-0.2,0.5-0.5,0.9-0.7,1.4c-0.2,0.3-0.5,0.4-0.7,0.1c-0.1-0.1-0.2-0.4-0.3-0.6
						c-0.1-0.2-0.1-0.3,0.1-0.5c0.2-0.1,0.4-0.4,0.3-0.7c-0.1-0.3-0.2-0.6-0.3-0.9c-0.1-0.1-0.2-0.2-0.2-0.4c0-0.1,0.1-0.3,0.2-0.4
						c0.2-0.4,0.6-0.7,0.6-1.2c0,0,0,0,0,0c0.2-0.5,0.4-1,0.6-1.6c0.1-0.4,0.2-0.8,0.2-1.2c0-0.6,0-1.2,0-1.8c0-0.1,0-0.3-0.2-0.3
						c0,0-0.1-0.2,0-0.2c0.1-0.3,0.3-0.5,0.4-0.8C3.9,9.8,3.9,9.5,4,9.2c-0.2-0.3-0.3-0.7-0.5-1c0-0.1-0.2-0.2-0.3-0.2
						C3.1,8.1,3,8.2,3,8.3c0,0.1,0,0.3,0.1,0.4C3.4,9.2,3.4,9.7,3,10.1c-0.1,0.1-0.3,0.2-0.4,0.2c-0.1,0-0.2-0.2-0.2-0.3
						c0-0.3,0-0.5-0.2-0.7C2,9,2,9,1.8,9.1c-0.1,0-0.1,0.1-0.2,0.3C1.5,9.1,1.3,8.9,1.1,8.7C1,8.5,1,8.3,1.2,8.1
						c0.2-0.2,0.1-0.9-0.3-1C0.6,7,0.5,6.8,0.8,6.5c0.4-0.4,0.6-0.8,0.6-1.3c0,0,0-0.1,0-0.1c0.2-0.3,0.1-0.6,0-0.9
						c-0.1-0.3-0.1-0.7,0-0.9c0.1-0.3,0.9-0.5,1.3-0.4c0.1,0,0.3,0.1,0.3,0c0.1-0.1,0.2-0.3,0.1-0.4C3.1,2.2,3.2,2,3.4,1.8
						c0.2-0.2,0.5-0.3,0.9-0.2c0.1,0,0.2,0,0.2,0c0.3-0.1,0.6-0.3,0.9-0.4c0.1,0,0.2-0.1,0.3,0c0.3,0.1,0.6,0.2,0.9,0.3
						c0.4,0.1,0.8,0,1.1,0c0.3-0.1,0.9,0.1,1.1,0.4C9,2,9.1,2.2,9.3,2.4c0.1,0.2,0.2,0.3,0.4,0.1c0.1-0.1,0.3-0.3,0.4-0.3
						c0.3,0,0.3-0.1,0.2-0.4c-0.2,0-0.5,0.1-0.8,0.1c-0.1,0-0.2,0-0.2-0.1C9.3,1.7,9.1,1.6,9,1.4C8.7,0.9,8.2,0.7,7.6,0.9
						C6.8,1.2,6,1.2,5.4,0.5C5.3,0.6,5.2,0.7,5.1,0.8L5,0.7C5.2,0.3,5.7,0,5.5-0.6c0,0,0.1,0,0.2,0c0,0,0-0.1,0-0.2c0,0,0,0-0.1,0
						c0-0.2,0-0.3,0.1-0.4c0-0.1,0.1-0.3,0.1-0.5c0-0.2,0-0.3,0.1-0.5c0,0,0,0,0-0.1c0-0.1,0.1-0.1,0.1-0.2c0.2-0.2,0.4-0.3,0.7-0.3
						c0,0,0.1-0.1,0.1-0.1C7.2-2.9,7.4-3,7.6-3.1c0.1,0,0.3-0.1,0.4-0.1c0.3,0.1,0.4-0.2,0.5-0.4C8.8-4.2,9-4.8,9.2-5.3
						c0,0,0-0.1,0.1-0.1c0.4-0.3,0.9-0.5,1.5-0.6c0.5-0.1,0.8-0.4,1-0.8c0.1-0.4,0.3-0.7,0.4-1.1c0.1-0.2,0.2-0.4,0.3-0.6
						c0.1-0.2,0.3-0.4,0.4-0.7c0.1-0.2,0.3-0.4,0.5-0.3c0,0,0.1,0,0.1,0c0.3-0.1,0.5-0.8,0.5-1.1c0-0.2,0-0.4-0.1-0.6
						c0-0.2,0.1-0.4,0.3-0.4c0.1,0,0.3,0,0.3-0.1c0.2-0.2,0.4-0.4,0.6-0.6c0.3-0.3,0.6-0.3,0.9,0c0.1,0.1,0.1,0.4,0.2,0.5
						c0,0.1,0.2,0.2,0.3,0.1c0.2,0,0.4,0,0.6,0c0.6,0.1,0.8,0.5,1,0.9c0.3,0,0.6-0.1,0.9-0.4c0.2-0.1,0.9-0.1,1,0c0,0,0,0,0,0
						c0.1,0.1,0.1,0.2,0.2,0.2c0.1,0,0.3,0,0.4-0.1c0,0,0-0.2,0-0.3c0-0.3-0.3-0.3-0.6-0.3c0.1-0.4,0.2-0.8,0.3-1.2
						c0-0.3,0.3-0.4,0.4-0.2c0.1,0.1,0.2,0.3,0.4,0.5c0.1-0.1,0.3-0.1,0.4-0.2c0.2-0.3,0.6-0.5,0.9-0.6c0.2,0,0.4,0,0.5,0.1
						c0,0,0,0.2,0,0.3c0,0.1,0,0.3-0.1,0.4c0,0.2,0,0.3,0.1,0.5c0.2,0.1,0.4,0.3,0.5,0.6c0.2,0.4,0.1,0.6-0.3,0.8
						c-0.2,0.1-0.3,0.3-0.3,0.5c0,0.2,0,0.5,0,0.7c0,0.2,0.1,0.4,0.2,0.6c0,0,0.2,0,0.2,0c0-0.1,0.1-0.3,0.1-0.5
						c0-0.2-0.1-0.5,0-0.7c0-0.1,0.2-0.2,0.3-0.3c0.3-0.1,0.4-0.5,0.4-0.7C24.3-11.2,24.1-11.5,24-11.8z"/>
					<path class="st5" d="M16.1,5.5c0.1-0.3,0.1-0.5,0.2-0.8c0.2-0.4,0-1.3-0.4-1.3c-0.5,0-0.7-0.2-0.8-0.7
						c-0.1-0.2-0.4-0.3-0.6-0.4c0,0-0.1,0-0.1,0c-0.1,0-0.2,0.1-0.3,0.1c-0.1,0-0.2-0.2-0.2-0.3c-0.1-0.6-0.7-1.2-1.3-1.3
						c-0.4,0-0.6,0-0.7,0.4c-0.1,0.5-0.1,0.5-0.6,0.3c0-0.6,0.4-1.4,1.2-1.2C13.2,0.7,13.7,1,14,1.5c0,0,0.1,0.1,0.2,0.1
						c0.1,0,0.2,0,0.3,0.1c0.3,0.2,0.7,0.3,0.9,0.6C15.7,2.7,16,2.8,16.4,3c0,0,0.1,0.1,0.1,0.1c0.2,0.5,0.4,1,0.3,1.6
						C16.7,4.8,16.9,5,17,5c0.3,0,0.4,0.2,0.5,0.4c0.2,0.5,0.2,1.1,0.4,1.6c0,0,0,0,0,0c0,0.4,0,0.4-0.3,0.6
						c-0.2,0.2-0.3,0.5-0.4,0.8c0,0.1,0,0.2-0.2,0.3c-0.2,0-0.3,0.2-0.2,0.4c0.1,0.4-0.1,0.6-0.3,0.8c-0.3,0.2-0.6,0.2-1,0.2
						c-0.6-0.1-0.9-0.6-1.3-0.8c-0.1-0.1-0.3-0.2-0.5-0.2c-0.4-0.1-0.5-0.4-0.4-0.8c0-0.1,0-0.2,0-0.2c0.2-0.4,0-0.6-0.2-0.8
						C13.1,7,13.4,7,13.6,7.2c0.2,0.3,0.3,0.5,0.1,0.8c-0.1,0.1,0,0.3,0,0.4c0.1,0,0.3,0,0.4,0c0.2,0,0.4,0.1,0.4,0.4
						c0.1,0.5,0.4,0.8,0.9,0.8c0.2,0,0.4,0,0.6,0c0.1,0,0.2-0.1,0.2-0.1c0,0,0-0.2,0-0.2c-0.1-0.2-0.1-0.6,0.2-0.7
						c0.2-0.1,0.4-0.2,0.5-0.5c0.1-0.3,0.2-0.7,0.5-0.9c0,0,0.1-0.1,0.1-0.2c0-0.3-0.1-0.6-0.2-0.9l0,0c0.3-0.2,0-0.3-0.1-0.4
						c-0.1-0.2-0.3-0.3-0.5-0.2C16.4,5.5,16.3,5.5,16.1,5.5z"/>
					<path class="st5" d="M4.5,5.8C4.1,5.8,4,5.7,3.7,5.4C3.5,5.1,3.5,4.8,3.6,4.6c0-0.4,0.2-0.5,0.6-0.5c0.5,0.1,0.9,0.3,1.2,0.8
						C5.5,5.1,5.3,5.6,5,5.7C4.8,5.8,4.6,5.8,4.5,5.8z"/>
					<path class="st5" d="M11.3,4.2c0.6,0.1,1,0.5,0.9,1.2c-0.1,0.4-0.3,0.7-0.7,0.7c-0.2,0-0.5-0.1-0.8-0.3
						c-0.2-0.1-0.3-0.5-0.2-0.7c0-0.2,0.1-0.4,0.1-0.5C10.8,4.4,11,4.2,11.3,4.2z"/>
					<path class="st5" d="M24.1-0.8c-0.2,0-0.3-0.1-0.3-0.2c-0.1-0.2-0.2-0.4-0.4-0.6c0-0.2,0.1-0.5,0.1-0.7c0,0-0.1-0.1-0.2-0.1
						c-0.2,0-0.2-0.2-0.2-0.4C23-3,23.2-3.1,23.4-3c0.1,0,0.1,0.1,0.2,0.1c0.1,0.3,0.2,0.6,0.3,0.9c0,0.1,0,0.2,0,0.3
						c0,0.2-0.1,0.5,0.1,0.7C24.1-1,24.1-0.9,24.1-0.8C24.1-0.8,24.1-0.8,24.1-0.8z"/>
					<path class="st4" d="M8.9,10.2C9,10.7,8.3,11.7,8,11.8c-0.3-0.6,0.2-0.9,0.5-1.2C8.6,10.5,8.8,10.4,8.9,10.2z"/>
				</g>
			</g>
		</g>
	</g>
</g>
</svg>
