<?xml version="1.0" encoding="utf-8"?>
<!-- Generator: Adobe Illustrator 24.2.3, SVG Export Plug-In . SVG Version: 6.00 Build 0)  -->
<svg version="1.1" id="Layer_1" xmlns="http://www.w3.org/2000/svg" xmlns:xlink="http://www.w3.org/1999/xlink" x="0px" y="0px"
	 viewBox="0 0 252 219.9" style="enable-background:new 0 0 252 219.9;" xml:space="preserve">
<style type="text/css">
	.st0{fill:#FFFFFF;}
</style>
<g>
	<path class="st0" d="M5.4,72.6c-0.7,0.6-1.8,1.3-2.5,2.2c-0.7,0.9-1.4,2-1.6,3c-0.3,1.6-0.8,3.5-0.1,4.8c1.1,2.1,2.9,3.8,4.6,5.5
		c2,2,6.9,1.7,7.9-0.7c0.8-1.9,2.1-2.1,3.5-2.2c3-0.3,4.6-2.5,6.4-4.5c0.7-0.7,1.3-1.4,1.9-2.2c-0.1,2.3-0.5,4.3-0.9,6.3
		c0,0.2-0.3,0.4-0.4,0.4c-3.1,0.5-2.9,3.5-3.2,5.3c-0.6,3.8,1.5,6.9,3.9,9.7c1.5,1.7,1.9,3.2,0.9,5.1c-1.1,2.1-1.8,4.3-1.3,6.8
		c0.4,1.9,0,5.9-0.6,7.4c-0.2,0.4-0.4,0.7-0.7,1c-0.8,1.3-0.6,5.5,0.1,6.7c0.6,1.1,1.3,2.3,1.3,3.5c-0.2,4.5,1.8,8,5.4,10.3
		c1.3,0.8,1.5,1.6,1.5,2.8c-0.1,1.4,0,2.9-0.6,4.1c-2.3,4.7,0.1,8.9,1.4,13.2c0.2,0.7,1,1.3,1.5,2c0.6,0.8,1.5,1.5,1.9,2.3
		c1.2,2.9,2.4,5.7,3.3,8.7c0.5,1.8,0.5,3.7,0.9,5.5c0.6,3.1,1.3,6.1,0.1,9.4c-0.8,2.1-0.5,4.9,0.2,7.2c1,3.2,2.8,6.2,4.3,9.3
		c0.2,0.4,0.7,0.8,1.1,1.1c1.7,1.2,3.4,2.4,5.1,3.6c2,1.4,3.8,3,5.9,4.1c3.1,1.7,6.3,3.2,9.6,4.6c2.6,1.1,4.9,0.4,6.8-1.8
		c0.8-1,1.9-1.8,2.9-2.6c1.2-0.9,2.7-1.5,3.9-2.4c1.7-1.3,3.4-2.2,5.2-1.7c0.9-0.6,1.6-1,2.2-1.3c0.3,0.6,0.7,1.1,0.9,1.7
		c0.4,1.6,1.6,1.8,2.9,1.7c3.4-0.3,5.9-1.9,7.3-5c0.6-1.3,1.3-2.3,3-1.8c1.4,0.4,2.4,0,2.7-1.7c0.1-0.5,0.6-0.9,0.8-1.4
		c1-2.2,1-4.8,3.2-6.4c0.1-0.1,0-0.3,0.1-0.4c0.5-2.4,0.1-4.5-2.2-6c-1.1-0.7-2.2-1.5-3.1-2.5c-0.6-0.7-1.3-1.7-1.3-2.6
		c0-2.7,0.3-5.4,0.5-7.8c-1-0.5-2.1-0.7-2.4-1.3c-0.6-1.1-1.5-0.9-2.3-1.3c-2.4-1-6.4,0.1-6-4.6c0-0.2-0.4-0.4-0.5-0.7
		c-0.8-2.6-3.3-3.4-5.1-5c-0.5-0.4-0.5-1.3-0.7-2c0.9-0.1,1.9-0.4,2.6-0.1c1.1,0.6,1.9,1.6,2.7,2.5c1.1,1.2,2.3,2.3,3.1,3.7
		c1.9,3.7,4.6,4.5,8.3,2.4c0.4-0.2,0.9-0.4,1.4-0.4c2.4,0.1,4.7,0.3,7.1,0.5c0.3,0,0.6,0.2,0.9,0.5c1.7,1.7,3.5,3.4,6.2,3.4
		c1.2,0,2.3,0.3,3.5,0.4c3,0.2,3.5,0.7,3.3,3.6c-0.2,2.7-0.6,5.5-0.8,8.2c-0.1,1.6,0.1,3.2,0.1,4.7c0,1.2-0.2,2.5-0.3,3.7
		c-0.1,2.3,0.9,4,2.3,5.8c1.7,2.3,2.8,5,4.5,7.2c1.2,1.6,2.9,3.1,4.7,4c2.6,1.4,5.1,3.4,8.5,2.5c1.3-0.4,2.9-0.3,4.3-0.1
		c5.4,0.7,10-0.6,13.7-4.8c1.1-1.2,2.4-2.3,3.8-3.2c1-0.7,2.2-0.9,3.3-1.5c1.3-0.6,2.5-1.6,3.9-1.8c1.8-0.3,2.3-1.4,2.8-2.9
		c0.9-2.4,1.6-4.9,3-7c2.7-4,4.2-8.2,4.4-13c0-0.4,0.8-1.2,1.2-1.2c1.5-0.1,2.3-0.9,2.4-2.4c0.1-1.8,0.5-3.9-1.8-4.6
		c-2.2-0.6-2.8-1.1-2.3-3.8c0.9-4.9-0.8-9.6-3.2-14c-1.1-1.9-2.2-3.8-1.4-6.2c0.2-0.6,0-1.4,0.1-2.1c0.1-1.1,0-2.5,0.7-3.2
		c1.4-1.6,3.3-2.3,3.4-5.1c0.1-1.4,2.8-2.8,4.4-4c0.5-0.3,1.3-0.2,2.6-0.4c-0.6,1.4-1,2.2-1.3,3.1c-1.5,3.8-3.1,7.5-4.5,11.3
		c-0.2,0.5,0,1.4,0.3,1.7c0.4,0.3,1.3,0.3,1.7,0.1c2.4-1.2,4.7-2.5,7.1-3.8c1.5-0.8,2.9-1.6,4.5-2c1.3-0.3,2.7-0.1,4-0.1
		c-0.2,1.5-0.2,3.2-0.8,4.6c-0.7,1.6-0.5,2.6,0.9,3.6c2.9-2.3,3.7,0.8,5.1,1.9c0.9-0.2,1.8-0.6,2.4-0.4c2.3,0.8,4.5,1.8,6.5,2.7
		c1.8-2,3.5-3.6,4.7-5.5c2.3-3.6,6-5.4,10.2-4.7c1.3,0.2,2.9,0.1,4-0.5c2.6-1.3,5-2.9,7.4-4.6c3.3-2.3,6.4-4.8,9.6-7.3
		c0.3-0.2,0.4-0.6,0.5-0.9c0.2-1.1,0.3-2.2,0.7-3.2c0.4-1.2,0.1-2.2-0.6-3.2c-1.3-2.1-2.3-4.3-3.4-6.5c-0.3-0.7-0.3-1.6-0.5-2.3
		c-0.8-2.6-1.8-5.2-2.5-7.8c-0.6-2-0.4-4.2-1.3-6c-3-5.6-3.6-11.7-4.2-17.7c-0.2-1.5-0.6-2.7-1.1-4c-0.8-2-1.4-4.2-2.8-5.7
		c-0.9-1-1.1-1.6-0.8-2.6c0.6-1.9,1.3-3.7,1.9-5.6c1.2-4.1,2.4-8.3,3.4-12.5c0.3-1.3-0.6-2.4-1.8-3.3c-2.2-1.7-5.5-1.5-7.1-4.4
		c-0.7-1.3-0.8-2.7,0.8-4.5c1-1.2,1.7-0.3,2.6,0.3c1.1,0.7,2.3,1.5,3.5,1.6c2,0.1,4.4-3.2,4.7-5.3c0.3-2.1,0.9-4.2,1.7-6.2
		c0.6-1.5,1.9-2.8,2.6-4.3c1.2-2.5,2.3-5.1,3-7.7c0.4-1.3,0.3-3.2-0.4-4.3c-1.2-2-3.1-3.4-5.4-4.2c-2.1-0.7-4.2-1.4-4.4-4.1
		c0-0.3-0.6-0.5-0.9-0.7c-3.3-2.1-6.4-1.3-9.6,0.3c-0.9,0.5-2,0.4-3,0.6c0.1-0.9,0.1-1.7,0.2-2.7c-1.6-1.6-3.5-2.5-5.7-0.9
		c-1.4,0.9-2.9,1.8-3.9,3c-1.3,1.6-3,3.3-2.2,6c1.4-1.5,2.7-2.8,4-4.1c1.5-1.4,3.6-1.3,3.7,0.1c0.2,2.4,0.6,4.9-1.5,7
		c-1.5,1.5,0.3,2.7,0.7,4c0.1,0.2,1.5,0.1,2.2-0.1c1-0.3,2-0.7,2.9-1.1c1-0.4,1.9-0.8,2.1-2.2c0.3-1.4,0.9-2.8,1.8-3.9
		c0.5-0.7,1.8-0.9,2.7-1c0.4-0.1,1.2,0.6,1.3,1c0.2,1.7,0.2,3.4,0.3,5.2c1.3,2.3,3.4,1.8,5.6,1.1c0.3-0.1,0.5-0.2,0.8-0.3
		c1.8-0.6,2.8,0,2.5,1.8c-0.3,2.4-1.1,4.7-1.8,6.9c-0.5,1.5-1.6,2.4-3.1,3c-2.5,0.9-3,3.6-4.4,5.5c-1,1.4-3.5,2.1-3.8,1
		c-0.6-1.9-1.9-2.2-3.4-2.2c0.5-3.7-0.7-5.7-4.3-7.1c-1.6-0.6-3.1-1.5-4.7-2.2c-0.8-0.3-1.7-0.6-2.6-0.7c-1.4-0.1-3,0.7-3.7-1.5
		c-0.2-0.6-0.9-1.1-1.5-1.4c-3.3-1.6-4-3.3-3-7.1c2.6,0.5,2.7,0.6,3.4,2.8c0.1,0.3,0.9,0.7,1.2,0.6c0.6-0.2,1.1-0.7,1.8-1.1
		c-0.3-0.3-0.6-0.4-0.7-0.7c-1.5-2.9-3.8-4.6-7-5.1c-0.6-0.1-1.1-0.8-1.6-1.2c-0.5-0.3-1-0.8-1.5-0.9c-2.5-0.5-4.9-0.9-7.2,1.1
		c-1.3,1.1-2.6,1.5-4.3,0.1c-1.9-1.6-4.1-2.2-6.7-0.8c-1.1,0.6-2.7,0.4-4.1,0.6c-0.5,0.1-1,0.1-1.4,0.4c-2.2,1.6-4.3,3.4-6.6,5
		c-0.7,0.5-1.8,0.8-2.6,0.7c-0.5-0.1-1.1-1.1-1.2-1.9c-0.6-2.4-0.9-4.9-1.7-7.2c-0.4-1.3-1.5-2.3-2.4-3.4c-1.6-1.8-4.8-2.5-6-1.1
		c-2.2,2.4-5.8,3.5-6.4,7.3c0,0.2-0.2,0.3-0.4,0.5c-1.4,1.8-2.8,3.6-4.3,5.4c-0.3,0.4-0.8,0.9-1.2,0.9c-0.3,0-0.8-0.6-0.9-1
		c-0.9-2.2-0.9-4.6-2.2-6.8c-2.3-4.1-4.5-4.4-8.4-2.4c-2.7,1.4-4.8,3.8-7.2,5.7c-0.1,0-0.1,0.1-0.1,0.2c-0.1,2.6-2.8,3.4-4.1,5.2
		c-0.4,0.6-1.9,0.5-2.9,0.5c-0.2,0-0.3-1.1-0.5-1.7c-0.9-2.6-1-5.6-3.8-7.2c-1.6-1-3.1-2.5-4.8-3.1c-2-0.7-4.5-1.6-6.2-0.9
		c-4.7,1.7-10,1.4-14.5,4c-3.3,1.9-7.1,3.2-10.5,4.9c-1.5,0.8-2.8,1.8-4.5,0.2c-0.3-0.3-1-0.3-1.4-0.2c-3.3,0.8-6.6,1.5-9.3,3.8
		c-0.5,0.5-1.9,0.7-2.3,0.3c-1.5-1.2-2.9-2.7-4.2-4.2c-0.5-0.6-0.7-1.6-1.3-2c-3.5-2.2-7-1-8.6,2.8c-0.1,0.3-0.2,0.7-0.4,0.9
		c-2.4,3.8-4.8,7.6-7.3,11.3c-1.2,1.9-2.3,4-3.9,5.4c-2,1.9-4.3,3.6-7.2,4.2c-1,0.2-1.8,0.9-2.7,1.6c-2.3,1.8-4.9,1.9-7.2,0
		c-1.4-1.2-3.2-1.2-4.2,0.2c-2.4,3.2-4.6,6.7-4.5,10.9c0.1,3.1-0.1,6-2,8.7c-0.9,1.3-1.1,3-3.1,3.2c-0.4,0-1,0.8-0.9,1.2
		C4.5,67.1,5,69.7,5.4,72.6z"/>
	<path d="M5.4,72.6c-0.4-2.8-0.9-5.5-1.2-8.2c0-0.4,0.6-1.2,0.9-1.2c2-0.2,2.3-1.9,3.1-3.2c1.9-2.7,2-5.6,2-8.7
		c-0.1-4.2,2.1-7.7,4.5-10.9c1.1-1.4,2.8-1.4,4.2-0.2c2.3,1.9,4.9,1.9,7.2,0c0.8-0.6,1.7-1.4,2.7-1.6c2.9-0.6,5.2-2.3,7.2-4.2
		c1.6-1.5,2.7-3.6,3.9-5.4c2.5-3.8,4.9-7.6,7.3-11.3c0.2-0.3,0.3-0.6,0.4-0.9c1.6-3.8,5.1-5,8.6-2.8c0.6,0.4,0.7,1.4,1.3,2
		c1.3,1.5,2.7,3,4.2,4.2c0.4,0.4,1.8,0.1,2.3-0.3c2.7-2.3,6-3.1,9.3-3.8c0.4-0.1,1.1-0.1,1.4,0.2c1.6,1.6,2.9,0.5,4.5-0.2
		c3.5-1.7,7.2-3,10.5-4.9c4.5-2.6,9.8-2.3,14.5-4c1.8-0.6,4.3,0.2,6.2,0.9c1.7,0.6,3.2,2.1,4.8,3.1c2.7,1.7,2.9,4.6,3.8,7.2
		c0.2,0.6,0.3,1.7,0.5,1.7c1,0,2.5,0.1,2.9-0.5c1.3-1.8,3.9-2.5,4.1-5.2c0-0.1,0.1-0.1,0.1-0.2c2.4-1.9,4.5-4.3,7.2-5.7
		c3.9-2,6-1.7,8.4,2.4c1.3,2.3,1.3,4.6,2.2,6.8c0.2,0.4,0.7,1.1,0.9,1c0.4,0,0.9-0.5,1.2-0.9c1.4-1.8,2.8-3.6,4.3-5.4
		c0.1-0.2,0.3-0.3,0.4-0.5c0.6-3.8,4.3-4.9,6.4-7.3c1.2-1.4,4.4-0.7,6,1.1c0.9,1,2,2.1,2.4,3.4c0.8,2.3,1.1,4.8,1.7,7.2
		c0.2,0.7,0.7,1.7,1.2,1.9c0.8,0.2,1.9-0.2,2.6-0.7c2.2-1.6,4.4-3.3,6.6-5c0.4-0.3,0.9-0.3,1.4-0.4c1.4-0.2,3,0,4.1-0.6
		c2.6-1.4,4.8-0.8,6.7,0.8c1.6,1.4,3,1,4.3-0.1c2.2-1.9,4.7-1.5,7.2-1.1c0.6,0.1,1,0.6,1.5,0.9c0.6,0.4,1.1,1.1,1.6,1.2
		c3.3,0.5,5.6,2.2,7,5.1c0.1,0.2,0.4,0.4,0.7,0.7c-0.7,0.5-1.2,1-1.8,1.1c-0.3,0.1-1.1-0.3-1.2-0.6c-0.7-2.2-0.7-2.3-3.4-2.8
		c-1,3.8-0.3,5.5,3,7.1c0.6,0.3,1.3,0.8,1.5,1.4c0.7,2.1,2.3,1.4,3.7,1.5c0.9,0,1.8,0.3,2.6,0.7c1.6,0.7,3.1,1.6,4.7,2.2
		c3.6,1.4,4.9,3.4,4.3,7.1c1.6,0.1,2.9,0.3,3.4,2.2c0.3,1.1,2.8,0.3,3.8-1c1.4-1.9,1.9-4.6,4.4-5.5c1.6-0.6,2.7-1.6,3.1-3
		c0.8-2.3,1.5-4.6,1.8-6.9c0.3-1.8-0.7-2.3-2.5-1.8c-0.3,0.1-0.5,0.2-0.8,0.3c-2.1,0.8-4.2,1.3-5.6-1.1c-0.1-1.8-0.1-3.5-0.3-5.2
		c-0.1-0.4-0.9-1.1-1.3-1c-1,0.1-2.2,0.4-2.7,1c-0.9,1.1-1.5,2.5-1.8,3.9c-0.3,1.4-1.1,1.8-2.1,2.2c-1,0.4-1.9,0.8-2.9,1.1
		c-0.7,0.2-2.1,0.3-2.2,0.1c-0.4-1.3-2.2-2.6-0.7-4c2.1-2,1.7-4.5,1.5-7c-0.1-1.5-2.2-1.5-3.7-0.1c-1.3,1.3-2.6,2.6-4,4.1
		c-0.8-2.7,1-4.4,2.2-6c1-1.3,2.5-2.1,3.9-3c2.3-1.6,4.2-0.7,5.7,0.9c-0.1,1-0.1,1.8-0.2,2.7c1-0.2,2.1-0.1,3-0.6
		c3.2-1.6,6.3-2.4,9.6-0.3c0.3,0.2,0.9,0.5,0.9,0.7c0.2,2.8,2.3,3.5,4.4,4.1c2.3,0.7,4.2,2.2,5.4,4.2c0.7,1.1,0.7,3,0.4,4.3
		c-0.7,2.7-1.8,5.2-3,7.7c-0.7,1.5-2,2.8-2.6,4.3c-0.8,2-1.4,4.1-1.7,6.2c-0.3,2.1-2.7,5.4-4.7,5.3c-1.2-0.1-2.5-0.9-3.5-1.6
		c-0.9-0.6-1.6-1.5-2.6-0.3c-1.6,1.8-1.5,3.2-0.8,4.5c1.6,2.9,4.9,2.7,7.1,4.4c1.3,1,2.2,2,1.8,3.3c-1,4.2-2.2,8.4-3.4,12.5
		c-0.5,1.9-1.3,3.7-1.9,5.6c-0.3,1-0.1,1.6,0.8,2.6c1.4,1.5,1.9,3.7,2.8,5.7c0.5,1.3,1,2.5,1.1,4c0.6,6.1,1.2,12.1,4.2,17.7
		c0.9,1.7,0.8,4,1.3,6c0.7,2.6,1.7,5.2,2.5,7.8c0.2,0.8,0.2,1.6,0.5,2.3c1,2.2,2.1,4.4,3.4,6.5c0.7,1.1,1,2,0.6,3.2
		c-0.3,1-0.4,2.2-0.7,3.2c-0.1,0.3-0.3,0.7-0.5,0.9c-3.2,2.4-6.3,4.9-9.6,7.3c-2.4,1.7-4.8,3.3-7.4,4.6c-1.1,0.6-2.7,0.7-4,0.5
		c-4.1-0.7-7.9,1-10.2,4.7c-1.2,1.9-2.9,3.4-4.7,5.5c-2-0.9-4.3-1.9-6.5-2.7c-0.6-0.2-1.4,0.2-2.4,0.4c-1.4-1.1-2.2-4.3-5.1-1.9
		c-1.4-1-1.7-1.9-0.9-3.6c0.6-1.4,0.6-3,0.8-4.6c-1.4,0-2.8-0.2-4,0.1c-1.6,0.4-3,1.3-4.5,2c-2.4,1.2-4.7,2.6-7.1,3.8
		c-0.5,0.2-1.4,0.2-1.7-0.1c-0.4-0.3-0.5-1.2-0.3-1.7c1.4-3.8,3-7.6,4.5-11.3c0.4-0.9,0.8-1.7,1.3-3.1c-1.3,0.2-2.1,0-2.6,0.4
		c-1.6,1.3-4.4,2.6-4.4,4c-0.1,2.8-2,3.6-3.4,5.1c-0.6,0.7-0.5,2.1-0.7,3.2c-0.1,0.7,0.2,1.4-0.1,2.1c-0.9,2.4,0.3,4.3,1.4,6.2
		c2.4,4.4,4.1,9.1,3.2,14c-0.5,2.7,0.1,3.2,2.3,3.8c2.3,0.6,1.9,2.8,1.8,4.6c-0.1,1.5-0.9,2.2-2.4,2.4c-0.5,0-1.2,0.8-1.2,1.2
		c-0.2,4.8-1.7,9-4.4,13c-1.4,2.1-2.1,4.6-3,7c-0.5,1.4-1,2.5-2.8,2.9c-1.4,0.2-2.6,1.2-3.9,1.8c-1.1,0.5-2.3,0.8-3.3,1.5
		c-1.4,0.9-2.7,2-3.8,3.2c-3.7,4.1-8.3,5.5-13.7,4.8c-1.4-0.2-2.9-0.3-4.3,0.1c-3.4,0.9-5.9-1.1-8.5-2.5c-1.8-0.9-3.5-2.4-4.7-4
		c-1.7-2.2-2.8-4.9-4.5-7.2c-1.4-1.8-2.4-3.6-2.3-5.8c0.1-1.2,0.3-2.5,0.3-3.7c0-1.6-0.2-3.2-0.1-4.7c0.2-2.7,0.6-5.5,0.8-8.2
		c0.2-2.9-0.3-3.4-3.3-3.6c-1.2-0.1-2.3-0.4-3.5-0.4c-2.7,0-4.4-1.7-6.2-3.4c-0.2-0.2-0.6-0.4-0.9-0.5c-2.4-0.2-4.7-0.4-7.1-0.5
		c-0.4,0-1,0.2-1.4,0.4c-3.6,2.1-6.3,1.2-8.3-2.4c-0.7-1.4-2-2.5-3.1-3.7c-0.8-0.9-1.7-1.9-2.7-2.5c-0.6-0.4-1.7,0-2.6,0.1
		c0.2,0.7,0.3,1.6,0.7,2c1.8,1.6,4.3,2.4,5.1,5c0.1,0.2,0.5,0.5,0.5,0.7c-0.4,4.7,3.7,3.6,6,4.6c0.9,0.4,1.7,0.2,2.3,1.3
		c0.3,0.6,1.5,0.8,2.4,1.3c-0.2,2.5-0.5,5.1-0.5,7.8c0,0.9,0.6,1.9,1.3,2.6c0.9,1,2,1.8,3.1,2.5c2.3,1.4,2.7,3.5,2.2,6
		c0,0.1,0,0.3-0.1,0.4c-2.1,1.6-2.2,4.2-3.2,6.4c-0.2,0.5-0.8,0.9-0.8,1.4c-0.2,1.7-1.2,2-2.7,1.7c-1.7-0.5-2.4,0.5-3,1.8
		c-1.4,3.1-3.9,4.7-7.3,5c-1.3,0.1-2.5-0.1-2.9-1.7c-0.2-0.6-0.6-1.1-0.9-1.7c-0.7,0.4-1.3,0.8-2.2,1.3c-1.8-0.5-3.5,0.4-5.2,1.7
		c-1.2,0.9-2.6,1.5-3.9,2.4c-1.1,0.8-2.1,1.6-2.9,2.6c-1.9,2.2-4.1,3-6.8,1.8c-3.3-1.4-6.5-2.9-9.6-4.6c-2.1-1.2-3.9-2.7-5.9-4.1
		c-1.7-1.2-3.4-2.4-5.1-3.6c-0.4-0.3-0.9-0.7-1.1-1.1c-1.5-3.1-3.3-6.1-4.3-9.3c-0.7-2.2-1-5-0.2-7.2c1.2-3.3,0.5-6.3-0.1-9.4
		c-0.4-1.8-0.3-3.8-0.9-5.5c-0.9-3-2.1-5.8-3.3-8.7c-0.4-0.9-1.3-1.6-1.9-2.3c-0.5-0.6-1.3-1.2-1.5-2c-1.3-4.3-3.7-8.4-1.4-13.2
		c0.6-1.2,0.5-2.7,0.6-4.1c0.1-1.2-0.2-2-1.5-2.8c-3.6-2.4-5.5-5.8-5.4-10.3c0-1.1-0.7-2.4-1.3-3.5c-0.7-1.1-0.9-5.4-0.1-6.7
		c0.2-0.3,0.5-0.6,0.7-1c0.6-1.5,1.1-5.5,0.6-7.4c-0.5-2.5,0.2-4.7,1.3-6.8c1-1.9,0.6-3.4-0.9-5.1c-2.4-2.7-4.6-5.9-3.9-9.7
		c0.3-1.8,0.1-4.8,3.2-5.3c0.2,0,0.4-0.3,0.4-0.4c0.4-2,0.8-4,0.9-6.3c-0.6,0.7-1.3,1.5-1.9,2.2c-1.8,2-3.4,4.2-6.4,4.5
		c-1.5,0.2-2.7,0.3-3.5,2.2c-1,2.4-5.9,2.7-7.9,0.7c-1.7-1.7-3.5-3.4-4.6-5.5c-0.7-1.2-0.2-3.2,0.1-4.8c0.2-1.1,0.9-2.2,1.6-3
		C3.7,73.8,4.7,73.2,5.4,72.6z M33.2,111c1.8,0.7,4.2,3.3,4.1,4.5c-0.3,2.7-0.3,2.7,2.4,2.8c0.6,0,1.1,0.2,1.7,0.2
		c2-0.2,2.7,1.2,3,2.7c0.3,1.7-0.7,2.7-2.2,3.1c-1.5,0.4-3,0.6-4.6,0.9c-2.3,0.5-4.6,0.8-6.8,1.6c-0.8,0.3-1.2,1.6-1.6,2.6
		c-0.1,0.4,0.3,1.3,0.7,1.5c1.2,0.6,2.4,1,3.7,1.2c2.1,0.4,2.6,1.1,1.8,3.1c-1.4,3.6-0.6,5,3.2,5.7c1.4,0.3,2.9,0.3,4.3,0.6
		c1.8,0.4,3.5,3,2.5,3.7c-0.9,0.7-2.1,1.3-3.3,1.5c-3,0.4-5.5,1.3-6.8,4.3c-0.3,0.8-1,1.4-1.2,2.2c-0.2,1.2-0.3,2.6-0.1,3.8
		c0.1,0.4,1.2,0.8,1.8,0.8c2.1-0.1,2.9,0.6,2.8,2.7c-0.1,1.3-0.2,2.5-0.1,3.8c0.3,3,1.4,3.9,4.4,3.6c0.5,0,1-0.1,1.8-0.1
		c-0.3,0.5-0.3,0.8-0.5,0.9c-2.5,1-3,2.9-2.1,5.3c1,2.7,2,5.5,3,8.2c-1.4,0.7-1.8,2.3-0.5,3.1c1,0.6,2.3,1.4,3.4,1.3
		c2.6-0.1,3.7,1.5,5,3.4c-0.8,0.5-1.5,0.9-2.1,1.3c-1.2,0.9-2.9,1.6-3.4,2.8c-0.8,2-1.2,4.4,0,6.5c0.4,0.8,1.4,1.4,1.7,2.2
		c2.1,5.2,6.9,6.8,11.5,8.7c2.7,1.1,5.8-0.8,8.2,1.4c0.3,0.2,1,0,1.4-0.1c3.4-0.7,5.2-4.6,3.8-8.2c-0.8-2.1-2.2-4.2-1.6-6.8
		c2.7,1.1,5.1,2.7,8,2.1c0.1-2.2-2.9-4.9-5.2-4.6c-3.6,0.4-4.9-1.1-4-4.6c0.4-1.4,1-2.6,1.6-4c0.5-1.2,1-2.3,1.4-3.5
		c0.1-0.4,0.3-1,0.1-1.4c-1.3-2.7-4.6-3-6.4-0.6c-2.5-0.5-2.5-0.6-2.2-3c0.3-2.2-0.5-3.1-2.9-3.3c-0.6,0-1.1-0.3-1.7-0.5
		c0.2-0.5,0.5-1,0.7-1.6c0.4-1.1,1.4-2.4,1.2-3.3c-0.6-2.2-1.9-4.3-2.8-6.5c-0.5-1.1-0.9-2.3-1.3-3.5c0.2-0.1,0.4-0.3,0.6-0.4
		c0.5,0.4,1.1,0.6,1.4,1.1c0.9,1.5,1.6,3.1,2.5,4.6c0.3,0.5,1.2,1.1,1.4,1c0.5-0.4,1.2-1.1,1.2-1.7c0.2-4.8-1.8-8.5-5.9-11
		c-1.6-1-2.6-3.2-2.1-5c0.4-1.4,0.9-2.9,1.3-4.4c2.1-0.3,2.5,0.1,1.9,2.2c-0.2,0.7,0,2.1,0.4,2.4c0.8,0.4,2.1,0.4,2.9,0.1
		c1.3-0.5,2.4-1.5,3.7-2c0.8-0.3,1.8-0.1,2.7-0.1c-0.2,1-0.1,2.4-0.6,2.8c-1.5,1-1.1,2.4-0.5,3c0.9,0.8,2.3,1.4,3.6,1.4
		c1.8,0.1,3.7-0.4,5.6-0.3c3,0.1,3.6-0.3,5.1-2.7c0.6-0.9,2-2.2,2.7-2c1.6,0.4,4,0.3,4,3c0,0.8,0.2,1.6,0.4,3.1
		c2.6-0.6,5.1-1,7.5-1.7c2.4-0.7,3.2-0.6,4.4,1.3c0.2,0.3,0.8,0.4,1.2,0.6c1.7,0.9,3.7,1.4,3.6,4.1c0,1,1,2.1,1.7,3.1
		c0.6,0.8,1.4,1.5,2,2.3c0.6,0.8,1.3,1.2,1.9,0.2c0.9-1.3,1.7-1.3,3.1-0.6c3.1,1.5,6.7,0.3,8.3-2.5c0.8-1.5,0.4-2.6-1.2-3.2
		c-0.7-0.2-1.4-0.6-2.6-1.1c1.3-0.9,2.2-1.4,2.9-2.2c0.8-0.9,1.3-2,1.7-2.7c1.4,0,2.3,0,2.8,0c0.7-1.2,1.1-2,1.5-2.8
		c0.5,0.9,1,1.9,1.6,2.8c0.4,0.5,1.2,0.7,1.9,1c2.2,1.1,3,0.8,4.3-1.4c0.4-0.7,1.3-1.2,2-1.7c0.2,0.2,0.4,0.4,0.5,0.6
		c-0.9,1.2-1.7,2.4-2.6,3.6c-1.5,1.9-3.1,3.8-4.6,5.7c-0.4,0.5-0.6,1.6-0.3,2c1.1,1.7,2.5,0.8,3.8,0c-0.3,0.6-0.7,1-1.1,1.5
		c-2,2-6.1,1.7-6.5,5.6c0,0.1-0.2,0.1-0.3,0.2c-1,1.2-2.1,2.5-3.1,3.7c-0.1,0.1-0.1,0.4,0,0.6c0.2,1.4,0.6,2.4,2.5,2.4
		c4-0.1,5.9,1.4,5.6,4.5c-0.2,1.6,0.1,2.8,1.1,4c0.3,0.3,0.4,1.3,0.1,1.6c-0.3,0.3-1.1,0.4-1.7,0.3c-0.5-0.1-0.9-0.8-1.4-0.8
		c-0.9-0.1-2-0.1-2.7,0.3c-0.6,0.3-1.1,1.4-1,2c0.3,2.1,1,4.2,1.3,6.3c0.3,2.1,1,2.6,3.1,2.8c1.4,0.1,2.9,0.5,4.1,1.2
		c0.8,0.5,1.7,1.8,1.7,2.7c0,1.1-1,2.2-1.4,3.1c-1.2-0.1-2-0.2-2.9-0.2c-0.1,0.2-0.3,0.4-0.4,0.6c1.2,1.4,2.1,3.1,3.5,4.2
		c2.4,1.9,4.8,0.3,7-0.7c0.4-0.2,0.6-1.7,0.3-2.3c-0.8-1.7-1.8-3.1,0.1-4.7c0.4-0.3,0.4-1.1,0.5-1.7c0.1-1.6,0.2-3.2,0.2-4.8
		c0-2.3,0-4.6-0.1-6.9c-0.1-1.7-0.4-3.4-0.7-5.1c-0.1-0.9-0.2-1.9-0.5-2.7c-0.5-1.5-1.8-2.9-1.7-4.3c0.4-3.7,1.2-7.4,3.9-10.4
		c0.4-0.5,0.7-1.6,0.4-2.2c-1.9-4.4-2.8-8.8-0.7-13.4c0.2-0.4-0.1-1.2-0.2-1.7c-0.2-0.6-0.4-1.2-0.6-1.8c0.8,0.4,1.2,1,1.7,1.4
		c0.2,0.1,0.9-0.2,1.2-0.6c1.9-2.7,3.6-5.9,7.9-4.1c0.2,0.1,0.6-0.2,0.8-0.1c0.7,0.4,1.6,0.7,1.8,1.3c0.4,0.9,0.3,2,0.3,3.1
		c0,1.2-2.2,2.7-3.4,2.4c-1.5-0.4-3.6,0.6-3.9,2c-0.3,1.6-0.4,3.1-0.6,5c1.2,0.1,2.4-0.1,3.4,0.2c0.7,0.2,1.4,0.9,1.9,1.6
		c0.2,0.2-0.2,1.1-0.6,1.5c-1.4,1.4-2.5,2.7-0.4,4.4c0.3,0.2,0.5,0.6,0.5,0.9c0.2,1.3,0.8,2.9-0.8,3.6c-1.2,0.6-2.7,0.7-4,1.1
		c-1.7,4.8,0.2,11.6,6.3,13c0.6,0.1,1.4,1.3,1.5,2c0.3,1.4,0,2.6-1.3,3.8c-1.8,1.5-4.2,2.1-5.4,4.6c-1.2,2.7-1.5,5.5,0.5,7.6
		c0.4,0.4,1.2,0.3,1.9,0.4c0.5-2.4,2.9-1.2,4-2.4c1.6,2.2,3.7,3.1,5.5,2.5c3.2-1,3.9-2.4,2.9-5.4c-0.9-2.6,0-5.4,2.4-5.6
		c3.3-0.2,4.9-1.5,6.2-4.3c0.9-1.9,0.6-4.9-1.3-5.8c-2.2-0.9-3.3-3-3.7-5.1c-0.6-3.2-0.6-6.4-0.8-9.7c-0.3-4.2-0.6-8.5-0.7-12.7
		c-0.2-5.3-0.2-10.6,1.9-15.6c0.5-1.3,1.4-2.8,3.4-2.6c2.3,0.2,4.5-0.5,6.3-2c2.8-2.2,5.4-4.6,8.4-6.6c1.2-0.8,2.9-1,4.4-1.4
		c0.3-0.1,0.8,0,1,0.2c1.6,1.5,4,2.6,3.1,5.6c-1.4-0.2-1.5,2-3.2,1.8c-1.6-0.2-2,0.9-1.3,2.2c-1.4,1-2.8,1.8-4,2.8
		c-0.3,0.2-0.4,0.6-0.5,0.9c-0.5,1.1-1,2.3-1.5,3.4c-0.5,1.2-0.2,2.1,1.3,2c0.7-0.1,1.4-0.1,2.1-0.3c3.3-0.6,6.5-1.4,9.8-1.9
		c0.5-0.1,1.4,0.6,1.6,1.2c0.5,1.3,1.3,1.7,2.6,1.3c0.5-0.1,1.1,0,1.6,0.1c0,1.7,0,3.2,0,4.7c0,1.2,0.5,2.4,1.9,2.3
		c0.9-0.1,1.9-0.9,2.5-1.7c0.4-0.6,0.3-1.6,0.4-2.4c0.1-1.2,0.1-2.3,0.2-3.1c1.8-0.7,3.3-1.1,4.6-1.8c1.2-0.7,1.1-1.9-0.2-2.2
		c-4.1-1-6.2-4.6-9.5-6.6c-0.1,0-0.1-0.3-0.1-0.5c0.5-0.5,1.1-0.9,1.7-1.4c4.2,1.5,6.5,6.2,11.4,7c-0.2-2-0.4-3.7-0.5-5.4
		c0-0.6,0-1.5,0.4-1.9c1.5-1.4,3.2-2.7,4.9-3.9c1.3-0.9,2.8-1.7,4.3-2.5c0.2-0.1,0.5-0.2,0.8-0.1c2.9,0.3,5.9,0.6,8.8,1.1
		c0.7,0.1,1.2,0.9,1.9,1.3c0.6,0.4,1.3,0.8,2.4,1.5c-0.7-2.3-1.2-3.8-1.6-5.3c-0.4-1.4-0.6-2.9-0.9-4.3c-0.3-1.5-0.6-2.9-0.9-4.4
		c-0.4-2-1.3-3.6-2.2-5.4c-1.1-2.1-1-4.7-1.6-7c-0.5-1.9-1.6-3.7-1.8-5.7c-0.3-3.7-1.8-6.7-3.8-9.7c-0.7-1-1.2-2.3-1.7-3.4
		c-0.4-0.8-0.7-1.6-1-2.2c0.5-0.6,1.5-1.3,1.8-2.2c1-2.9,1.7-5.9,2.6-8.8c0.7-2.3,0.9-5.1,2.3-6.8c2.3-2.6,0.6-4.6-0.2-6.7
		c-0.2-0.6-1.1-2.1-2.4-0.8c-0.7,0.7-1.3,1.5-2,2.3c-1.6-0.7-3.1-1.3-4.7-1.9c0-1.2,0.3-2.4-0.1-3.3c-0.3-0.6-1.6-0.7-2.6-1.2
		c0.1-0.7,0.3-1.9,0.3-3.1c0-0.9-0.1-1.8-0.2-2.6c-0.8,0.5-1.9,0.7-2.3,1.4c-1.1,1.9-2.8,2.3-4.7,1.7c-1.9-0.6-3.2-1.9-3.1-4.1
		c0-0.9,0.1-1.9-0.2-2.7c-0.9-2.4-2.1-4.7-3.1-7c-0.9-2.1-2.6-2.7-4.5-1.8c-0.6,0.3-1.4,0.3-2.1,0.1c-1.8-0.6-3.6-1.4-5.4-2.2
		c0-0.2,0.3-0.9,0.1-1.5c-0.5-2-1.2-3.9-1.8-5.9c-0.4-1.3-2.1-1.9-2.8-0.9c-0.9,1.1-1.8,2.4-2,3.7c-0.7,3.4-0.6,3.4-4.1,3.3
		c-0.6,0-1.3,0-1.9-0.2c-1.6-0.4-3.1-2.7-2.9-4.1c0.2-1.4,0.3-2.8,0.2-4.2c-0.1-0.6-0.7-1.4-1.3-1.5c-0.4-0.1-1,0.7-1.6,1
		c-0.3,0.2-0.7,0.3-1,0.6c-1.2,1.2-2.7,2.2-3.5,3.7c-0.9,1.8-1.3,3.9-1.8,5.8c-0.4,1.3,0,3.3-2.5,3c-0.5-0.1-1.1,0.7-1.6,1.1
		c-0.9-0.6-1.9-1-2.6-1.7c-0.4-0.4-0.7-1.2-0.8-1.8c-0.1-2,0.2-4.1-0.3-5.9c-1.3-4.7-2.9-9.4-4.5-14.4c-1.1,0.6-2,0.9-2.5,1.6
		c-1.4,1.5-2.7,3.2-4.1,4.8c-2.3,2.6-3.2,5.9-4.3,9c-0.6,1.7-0.6,3.6-1.2,5.3c-0.5,1.3-1.5,2.5-2,3.3c-0.9-0.1-1.4-0.1-1.8-0.1
		c-2.7,0.3-4.8-1.8-4.4-4.4c0.5-3.1,0.2-6.1-1-9c-2.8,0.1-10.3,2.8-12,4.8c-1,1.2-1.8,2.9-2.1,4.5c-0.3,2,0.1,4.2,0.1,6.2
		c0.1,2.7-1.2,4-3.7,4c-2.2,0-4.3-2.3-4.2-4.4c0.1-3.1,1.3-6.2-0.4-9.4c-0.8-1.4-0.5-3.4-0.8-5.1c-0.1-0.4-0.4-1-0.7-1.2
		c-1.9-0.8-2.6-2.6-3.5-4.2c-1.1-2.1-5.8-4.6-7.7-3.6c-2.3,1.2-4.5,2.8-6.4,4.6c-1.7,1.7-2.8,4.1-4.2,6.1c-1.3,1.8-1.9,3.6-1.7,5.9
		c0.2,1.8,1.3,4.1-1,5.5c-1,0.6-2.2,0.7-3.2,1.2c-2,1-3-0.4-3.9-1.6c-1.2-1.5-2.1-3.3-3.1-5c-1.2-1.8-2.3-3.6-3.6-5.2
		c-0.5-0.6-1.3-0.9-1.9-1.4c-0.2,0.2-0.5,0.4-0.7,0.5c0.4,1.1,0.8,2.1,1.2,3.3c-1.1,1.1-1.9-0.2-2.8-0.8c-0.4-0.3-0.7-0.9-1.2-1
		c-3.1-0.4-5.2,1.4-5.6,4.5C65.3,30,65,30.8,64.6,31c-1.4,0.8-2.9,1.4-4.3,2.1c-0.8-1.1-1.4-1.6-1.7-2.3c-0.4-0.8-0.6-1.7-0.8-2.6
		c-0.2-0.7,0.1-2-0.3-2.2c-0.6-0.4-1.8-0.4-2.5,0c-3.1,1.6-6.4,2.7-9.1,5.2c-2.7,2.5-3.5,5.6-3.7,8.8c-0.2,2.9-1.9,4.7-4.7,3.9
		c-1.7-0.5-2.9,0.5-2.6,2.3c0.2,1.1,0.5,2.1,0.8,3.2c-0.2-0.1-0.4-0.1-0.6-0.2c-0.6,1.6-1.3,3.3-1.9,4.9c-0.2,0.5-0.4,1-0.5,1.6
		c-0.6,1.9-1.1,3.8-1.7,5.7C31,62,31,62.9,30.6,63.1C30.1,63.4,29.3,63,29,63c0-1.5,0-2.6,0-3.6c-0.8,0.1-1.5,0.2-2.3,0.3
		c-0.1,0.2-0.1,0.3-0.2,0.5c-2.7-1.8-5.4-3.7-8.3-5.3c-0.5-0.3-2,0.3-2.4,0.9c-0.7,1-0.8,2.3-1.2,3.5c-0.6,1.6-0.2,2.2,1.5,2.5
		c0.8,0.1,1.6,1.1,2.2,1.9c0.2,0.2-0.3,1.4-0.4,1.4c-1,0-1.9-0.2-2.9-0.5c-0.9-0.2-1.8-0.6-3.2-1.1c0.5,1.6,0.8,2.5,1.1,3.4
		c1,3.5,0.9,4.4,5.6,4.3c0.2-1.3,0.4-1.1,2.4-3.8c1.7-2.3,3.5-0.5,5.1-0.3c1.1,0.1,2,1.4,1.8,2.9c-0.2,1.5,0.6,2,2,1.8
		c2-0.3,3.9-0.7,5.9-1c0.8-0.1,1.9-0.4,1.8,1c-0.2,2.3,1.4,5.1-2,6.4c-0.2,0.1-0.2,0.4-0.3,0.5c-1.8,2.2-3,4.9-5.6,6.5
		c-0.5,0.3-0.9,1.7-0.6,1.9c1.3,1.4,0.8,2.7,0.4,4.2c-0.3,1.4-0.3,2.9-0.1,4.4c0.1,1.4,0.3,3,2.3,3.1c0.9,0,1.8,0.1,2.7,0.3
		c0.5,0.1,1.1,0.2,1.5,0.5c1.8,1.9,2.7,4.4,0.5,6.5c-1.2,0-2.3,0-3.7,0c0.2,1,0.4,1.8,0.6,2.6C32.9,109.4,33.1,110.2,33.2,111
		c-0.5-1.3-1.6-1.9-2.7-1.1c-0.5,0.4-0.2,2-0.1,3c0,0.4,0.7,0.7,0.9,1.1c1.1,2.1,2.1,2.1,3.2,0.4C34,113,33.6,112,33.2,111z
		 M93.5,182c-0.8,0.1-1.7,0.2-2.6,0.5c-2.8,0.9-3.4,0.8-4-2.2c-0.3-1.3-0.1-2.7,0.1-4c0.3-2.3-0.1-2.9-2.3-3.3
		c-1.5-0.3-2.9-0.6-2.5-3c0.2-1.1-0.8-2.5-1.6-3.6c-0.3-0.4-1.5-0.1-2.3-0.1c-2.6,0-4.9-0.6-6.5-2.7c-0.3-0.4-1.1-0.7-1.6-0.6
		c-0.5,0.1-1,0.7-1.2,1.2c-0.5,1.3-0.9,2.8-1.4,4.1c-1.3,3.3-1.1,4.4,1.8,6.2c1.8,1.1,3.9,1.7,5.7,2.9c2.7,1.8,7,2.5,5.6,7.5
		c-0.1,0.3,0.5,0.7,0.8,1.1c0.9,1.5,2,2.9,2.6,4.5c0.8,2,0.8,4.6,2,6.2c1.3,1.6,1.5,3.2,1.8,4.9c0.3,1.9,1.4,2.7,3.2,1.8
		c0.7-0.4,1.5-0.7,1.8-1.3c0.7-1.2,1.7-1.4,3-1.3c2,0.1,3.7-0.9,4.4-2.6c1.2-2.9-1.9-7.3-5.1-7.6c-0.6-0.1-1.3,0.1-1.8,0.4
		c-1,0.5-2,1.2-2.7,0c-0.7-1.1-1.2-2.6-1.1-3.8c0.1-0.7,1.5-1.6,2.4-1.8C94.1,184.6,94.3,184.5,93.5,182z M12.9,85.8
		c-0.4-0.4-0.6-0.8-0.9-0.9c-2.7-1.2-4.2-3.4-4.1-6.5c0-1.3,0.3-2.8-1.7-2.9c-2-0.1-3.1,0.6-3.3,2.6c-0.1,1.5-0.2,3.1,0,4.6
		c0.3,2.6,1.9,4.4,4.4,5.2C9.7,88.6,11.3,87.4,12.9,85.8z M93.4,12.6c-1.3-0.1-2.2-0.4-2.9-0.2c-3.1,1.4-6.2,3.1-9.3,4.5
		c-1,0.5-1.4,0.9-0.7,1.9c0.8,1.3,1.6,2.7,2.5,3.9c0.4,0.5,1.2,0.8,1.9,0.9c0.4,0,0.8-0.7,1.1-1.2c0.6-1,0.9-2.2,1.7-3.1
		c1.4-1.7,2.9-3.3,4.4-5C92.4,14,92.6,13.6,93.4,12.6z M28.2,50.4c0,0.2,0,0.5-0.1,0.7c-0.7-0.7-1.3-1.4-2-2c-0.5-0.4-1.4-1.1-1.7-1
		c-0.8,0.5-1.6,1.2-1.9,2.1c-0.1,0.3,0.9,1.5,1.6,1.6c2.3,0.6,4.1,1.8,5.4,3.9c0.2,0.4,1.1,0.7,1.5,0.6c0.6-0.2,1.3-0.8,1.4-1.3
		c0.2-1.6,0.1-3.2,0.1-5C31.1,50.1,29.7,50.3,28.2,50.4z M18.5,41.1c-1.3,0.6-2.6,1.1-3.7,1.9c-0.7,0.5-1,1.5-1.4,2.4
		c-0.4,1-0.6,2.1-0.9,3.1c1.1-0.3,2.4-0.4,3.3-1c1.4-1,2.5-2.4,3.6-3.6c0.5-0.5,0.8-1.1,1.2-1.6C20,42,19.4,41.7,18.5,41.1z
		 M137.5,18.3c-0.1-3.1-1.5-4.1-3.7-2.7c-1.4,0.9-2.6,2.2-3.8,3.4c-0.3,0.3-0.2,1.1,0,1.5c0.1,0.3,0.8,0.5,1.2,0.4
		c1.8-0.4,3.7-0.9,5.4-1.4C137.1,19.3,137.4,18.6,137.5,18.3z M214,30.3c0.6,2,0,3.8,2.2,4.1c0.2,0,0.4,0.4,0.5,0.6
		c0.1,2.7,1.8,2.4,3.5,1.8c0.6-0.2,1.6-0.8,1.6-1.1c-0.1-0.8-0.5-1.7-1.1-2.2c-1.2-0.9-2.5-1.6-3.9-2.3
		C216,30.9,215.2,30.7,214,30.3z M191.3,14.6c-0.4-0.5-0.6-0.9-1-1.2c-1.7-1.5-3.5-2.2-5.6-0.9c-0.4,0.2-1.1,0.5-1,0.7
		c0.1,0.5,0.5,0.9,0.7,1.3c0.5,0.8,1.1,1.6,1.7,2.4c0.3,0.4,0.6,1,0.9,1.1c0.4,0.1,0.9-0.3,1.4-0.6c0.6-0.4,1.2-0.9,1.8-1.5
		C190.6,15.5,190.9,15.1,191.3,14.6z M76.5,208.5c3,0.2,3.3-0.2,2.6-2.6c-0.1-0.4,0-0.8,0-1.2c0.2-2.9-0.8-3.8-4.4-3.6
		C75.4,203.5,75.9,205.9,76.5,208.5z M27.6,118.3c-2.1,0.1-2.5,1.5-2.7,3c-0.1,0.6,0.2,1.6,0.6,1.8c0.7,0.2,1.6,0.1,2.3-0.2
		c1-0.4,1.9-1,2.7-1.7c0.3-0.3,0.5-1.5,0.4-1.5C29.7,119.1,28.6,118.7,27.6,118.3z M42,193c1.4,0.1,4.6-2.8,4.6-4
		c0-0.4-0.3-0.8-0.5-1c-2.9-1.9-3.4-1.3-4,1.5C41.8,190.6,42,191.8,42,193z M32.2,149.1c0.5,0.2,1.1,0.7,1.6,0.6
		c1.2-0.1,3.5-2.5,3.2-3.6c-0.2-0.8-1.1-1.6-1.9-2.1c-0.3-0.2-1.4,0.1-1.5,0.4C33,145.7,32.7,147.2,32.2,149.1z M49.5,25.2
		c0.2,0.2,0.4,0.5,0.6,0.7c1.4-0.5,2.7-1,4.1-1.6c0.4-0.2,0.8-1.1,0.7-1.3c-0.6-0.8-1.3-1.6-2.2-2.1c-0.3-0.2-1.3,0-1.4,0.3
		C50.6,22.5,50.1,23.8,49.5,25.2z M200.3,19.9c-1.1-1-1.9-2.1-2.6-2.1c-0.8,0.1-2,1-2.3,1.8c-0.4,1.4,1.2,3.1,2.5,2.7
		C198.7,22.1,199.2,21,200.3,19.9z M94.4,155.8c-0.1,0.1-0.8,0.6-0.8,0.8c0.4,1.2,1.1,2.4,1.6,3.5c0.7-0.8,1.8-1.5,2-2.5
		C97.8,156,96.3,155.9,94.4,155.8z M179.1,166.6c-0.6-1-1.1-1.7-1.6-2.5c-0.6,0.9-1.7,1.7-1.7,2.6c0,0.9,1,1.8,1.6,2.8
		C177.9,168.6,178.4,167.7,179.1,166.6z M147.2,186.9c0.3,0.2,0.5,0.4,0.8,0.6c0.9-0.9,2.2-1.7,2.5-2.8c0.2-0.5-0.9-2.3-2.8-1.8
		C147.6,184.1,147.4,185.5,147.2,186.9z M158.7,209c-1.4-1.5-2.3-3-3.8-1.9c-0.4,0.3,0.2,2.1,0.3,3.2
		C156.3,209.9,157.3,209.5,158.7,209z M78.9,160.4c1-1.1,1.6-1.8,2.3-2.6c-0.4-0.3-0.9-0.9-1.3-0.9c-1.1,0.1-2.6-0.1-2.6,1.6
		C77.3,159,78.1,159.5,78.9,160.4z M200.2,24.4c0-0.3-0.1-0.6-0.1-0.8c-0.7-0.2-1.4-0.8-2-0.6c-0.6,0.2-1,1-1.4,1.5
		c0.5,0.4,1.1,1.2,1.5,1.2C199,25.6,199.6,24.9,200.2,24.4z M13.7,79.5c0.4,0.3,0.7,0.5,1.1,0.8c0.7-0.7,1.3-1.3,2-2
		c-0.6-0.3-1.6-1.1-1.7-0.9C14.5,78,14.2,78.8,13.7,79.5z M20,73.4c-0.7-0.7-1.1-1.1-1.6-1.5c-0.4,0.6-1,1.1-1.1,1.7
		c0,0.5,0.6,1,1,1.5C18.8,74.6,19.3,74.1,20,73.4z M79.4,190.7c0.4-0.2,0.7-0.4,1.1-0.6c-0.4-0.8-0.7-1.7-1.1-2.5
		c-0.6,0.4-1.2,0.7-1.8,1.1C78.2,189.4,78.8,190.1,79.4,190.7z M7,71.4c-0.3,0.2-0.5,0.4-0.8,0.6c0.4,0.7,0.8,1.5,1.1,2.2
		c0.4-0.4,1.2-1,1.1-1.1C8.1,72.4,7.5,72,7,71.4z M151.7,159.2c0.2,0.1,0.4,0.2,0.6,0.4c0.5-0.5,0.9-1.1,1.4-1.6
		c-0.6-0.4-1.2-0.7-2.1-1.4C151.6,157.9,151.7,158.6,151.7,159.2z"/>
	<path class="st0" d="M93.5,182c0.8,2.5,0.6,2.6-1.5,3.1c-0.9,0.2-2.3,1.1-2.4,1.8c-0.1,1.2,0.4,2.7,1.1,3.8c0.7,1.2,1.8,0.5,2.7,0
		c0.5-0.3,1.2-0.4,1.8-0.4c3.2,0.3,6.3,4.7,5.1,7.6c-0.7,1.7-2.4,2.8-4.4,2.6c-1.3-0.1-2.3,0.1-3,1.3c-0.4,0.6-1.1,1-1.8,1.3
		c-1.7,0.9-2.8,0.2-3.2-1.8c-0.3-1.7-0.5-3.3-1.8-4.9c-1.3-1.6-1.2-4.2-2-6.2c-0.6-1.6-1.7-3-2.6-4.5c-0.2-0.4-0.8-0.8-0.8-1.1
		c1.4-5-2.9-5.7-5.6-7.5c-1.8-1.1-3.9-1.7-5.7-2.9c-2.9-1.8-3.1-2.9-1.8-6.2c0.5-1.3,0.9-2.8,1.4-4.1c0.2-0.5,0.7-1.1,1.2-1.2
		c0.5-0.1,1.3,0.2,1.6,0.6c1.7,2.2,4,2.7,6.5,2.7c0.8,0,2-0.3,2.3,0.1c0.8,1.1,1.8,2.5,1.6,3.6c-0.5,2.4,1,2.7,2.5,3
		c2.2,0.4,2.6,1,2.3,3.3c-0.2,1.3-0.4,2.8-0.1,4c0.7,3,1.2,3.2,4,2.2C91.8,182.2,92.7,182.2,93.5,182z"/>
	<path class="st0" d="M12.9,85.8c-1.6,1.6-3.2,2.8-5.6,2.1c-2.6-0.8-4.1-2.6-4.4-5.2c-0.2-1.5-0.1-3.1,0-4.6c0.2-2,1.3-2.8,3.3-2.6
		c2,0.1,1.7,1.6,1.7,2.9c-0.1,3.1,1.4,5.3,4.1,6.5C12.3,85,12.5,85.4,12.9,85.8z"/>
	<path class="st0" d="M93.4,12.6c-0.8,1-1,1.4-1.3,1.7c-1.5,1.6-3,3.2-4.4,5c-0.7,0.9-1.1,2.1-1.7,3.1c-0.3,0.5-0.8,1.2-1.1,1.2
		c-0.6,0-1.5-0.4-1.9-0.9c-1-1.2-1.7-2.6-2.5-3.9c-0.6-1-0.2-1.4,0.7-1.9c3.1-1.5,6.2-3.1,9.3-4.5C91.2,12.2,92.1,12.5,93.4,12.6z"
		/>
	<path class="st0" d="M28.2,50.4c1.5-0.1,2.9-0.3,4.4-0.5c0,1.8,0.1,3.4-0.1,5c-0.1,0.5-0.8,1.1-1.4,1.3c-0.4,0.1-1.3-0.2-1.5-0.6
		c-1.3-2.1-3.1-3.2-5.4-3.9c-0.7-0.2-1.7-1.3-1.6-1.6c0.3-0.8,1.1-1.6,1.9-2.1c0.3-0.2,1.2,0.5,1.7,1c0.7,0.6,1.3,1.4,2,2
		C28.2,50.9,28.2,50.6,28.2,50.4z"/>
	<path class="st0" d="M18.5,41.1c0.9,0.5,1.5,0.9,2.1,1.2c-0.4,0.5-0.8,1.1-1.2,1.6c-1.2,1.2-2.3,2.6-3.6,3.6
		c-0.9,0.6-2.2,0.7-3.3,1c0.3-1,0.5-2.1,0.9-3.1c0.3-0.9,0.7-1.9,1.4-2.4C15.8,42.2,17.2,41.8,18.5,41.1z"/>
	<path class="st0" d="M137.5,18.3c-0.2,0.2-0.4,1-0.8,1.1c-1.8,0.6-3.6,1-5.4,1.4c-0.4,0.1-1.1-0.1-1.2-0.4c-0.2-0.4-0.3-1.3,0-1.5
		c1.2-1.2,2.3-2.5,3.8-3.4C136,14.2,137.4,15.2,137.5,18.3z"/>
	<path class="st0" d="M214,30.3c1.2,0.4,2,0.6,2.7,0.9c1.3,0.7,2.7,1.4,3.9,2.3c0.6,0.5,1,1.4,1.1,2.2c0,0.3-0.9,0.9-1.6,1.1
		c-1.7,0.5-3.4,0.8-3.5-1.8c0-0.2-0.3-0.6-0.5-0.6C214,34.1,214.6,32.3,214,30.3z"/>
	<path class="st0" d="M191.3,14.6c-0.4,0.5-0.7,0.9-1.1,1.2c-0.6,0.5-1.2,1-1.8,1.5c-0.4,0.3-1,0.7-1.4,0.6
		c-0.4-0.1-0.7-0.7-0.9-1.1c-0.6-0.8-1.1-1.6-1.7-2.4c-0.3-0.4-0.7-0.8-0.7-1.3c0-0.2,0.7-0.5,1-0.7c2.1-1.2,4-0.6,5.6,0.9
		C190.7,13.7,190.9,14.1,191.3,14.6z"/>
	<path class="st0" d="M76.5,208.5c-0.6-2.5-1.2-4.9-1.8-7.4c3.6-0.2,4.6,0.7,4.4,3.6c0,0.4-0.1,0.8,0,1.2
		C79.9,208.3,79.6,208.6,76.5,208.5z"/>
	<path class="st0" d="M27.6,118.3c1,0.4,2.2,0.8,3.2,1.4c0.1,0.1-0.1,1.2-0.4,1.5c-0.8,0.7-1.7,1.3-2.7,1.7
		c-0.7,0.3-1.6,0.4-2.3,0.2c-0.4-0.1-0.7-1.2-0.6-1.8C25,119.8,25.4,118.3,27.6,118.3z"/>
	<path class="st0" d="M42,193c0-1.1-0.2-2.3,0-3.5c0.6-2.8,1-3.4,4-1.5c0.3,0.2,0.5,0.7,0.5,1C46.6,190.2,43.4,193.1,42,193z"/>
	<path class="st0" d="M32.2,149.1c0.5-1.9,0.8-3.4,1.3-4.7c0.1-0.3,1.2-0.6,1.5-0.4c0.8,0.5,1.7,1.3,1.9,2.1c0.3,1.2-2,3.6-3.2,3.6
		C33.3,149.8,32.7,149.3,32.2,149.1z"/>
	<path class="st0" d="M49.5,25.2c0.6-1.3,1.1-2.7,1.8-4c0.2-0.3,1.1-0.5,1.4-0.3c0.8,0.6,1.5,1.3,2.2,2.1c0.1,0.2-0.3,1.1-0.7,1.3
		c-1.3,0.6-2.7,1.1-4.1,1.6C49.9,25.6,49.7,25.4,49.5,25.2z"/>
	<path class="st0" d="M33.2,111c0.4,1,0.8,2.1,1.2,3.4c-1.1,1.7-2,1.7-3.2-0.4c-0.2-0.4-0.8-0.7-0.9-1.1c-0.1-1-0.4-2.6,0.1-3
		C31.6,109,32.7,109.6,33.2,111C33.2,111,33.2,111,33.2,111z"/>
	<path class="st0" d="M200.3,19.9c-1,1.1-1.6,2.2-2.4,2.5c-1.3,0.4-2.9-1.3-2.5-2.7c0.2-0.8,1.5-1.8,2.3-1.8
		C198.4,17.8,199.1,18.9,200.3,19.9z"/>
	<path class="st0" d="M94.4,155.8c1.9,0,3.4,0.1,2.9,1.9c-0.2,0.9-1.3,1.7-2,2.5c-0.6-1.2-1.2-2.3-1.6-3.5
		C93.6,156.4,94.3,155.9,94.4,155.8z"/>
	<path class="st0" d="M179.1,166.6c-0.6,1.1-1.1,2-1.6,2.8c-0.6-0.9-1.6-1.8-1.6-2.8c0-0.9,1.1-1.7,1.7-2.6
		C178,164.9,178.5,165.6,179.1,166.6z"/>
	<path class="st0" d="M147.2,186.9c0.2-1.4,0.4-2.8,0.6-4.1c1.9-0.5,3,1.3,2.8,1.8c-0.4,1.1-1.6,1.9-2.5,2.8
		C147.8,187.3,147.5,187.1,147.2,186.9z"/>
	<path class="st0" d="M158.7,209c-1.4,0.5-2.5,0.9-3.5,1.2c-0.1-1.1-0.8-2.9-0.3-3.2C156.5,205.9,157.3,207.4,158.7,209z"/>
	<path class="st0" d="M78.9,160.4c-0.8-0.9-1.6-1.4-1.6-1.8c0-1.7,1.5-1.5,2.6-1.6c0.4,0,0.8,0.6,1.3,0.9
		C80.5,158.6,79.9,159.3,78.9,160.4z"/>
	<path class="st0" d="M200.2,24.4c-0.7,0.4-1.3,1.1-2,1.2c-0.4,0.1-1-0.7-1.5-1.2c0.5-0.5,0.9-1.4,1.4-1.5c0.6-0.2,1.3,0.4,2,0.6
		C200.2,23.9,200.2,24.2,200.2,24.4z"/>
	<path class="st0" d="M13.7,79.5c0.4-0.7,0.8-1.6,1.4-2.1c0.2-0.1,1.1,0.6,1.7,0.9c-0.7,0.7-1.3,1.3-2,2
		C14.4,80.1,14.1,79.8,13.7,79.5z"/>
	<path class="st0" d="M20,73.4c-0.7,0.8-1.2,1.3-1.6,1.7c-0.4-0.5-1-1-1-1.5c0.1-0.6,0.7-1.1,1.1-1.7C18.8,72.3,19.3,72.7,20,73.4z"
		/>
	<path class="st0" d="M79.4,190.7c-0.6-0.7-1.2-1.3-1.8-2c0.6-0.4,1.2-0.7,1.8-1.1c0.4,0.8,0.7,1.7,1.1,2.5
		C80.1,190.4,79.7,190.5,79.4,190.7z"/>
	<path class="st0" d="M7,71.4c0.5,0.5,1.1,1,1.5,1.6c0.1,0.1-0.7,0.7-1.1,1.1C7,73.5,6.6,72.7,6.2,72C6.5,71.8,6.7,71.6,7,71.4z"/>
	<path class="st0" d="M151.7,159.2c0-0.7-0.1-1.3-0.1-2.7c1,0.6,1.6,1,2.1,1.4c-0.5,0.5-0.9,1.1-1.4,1.6
		C152.1,159.5,151.9,159.4,151.7,159.2z"/>
	<path d="M163.8,44.9c3.1,2.2,6.1,4.3,8.8,6.2c-0.2,1.1-0.1,2.1-0.6,2.6c-1,0.9-2.2,1.6-3.4,1.9c-2,0.6-3.9-0.7-5-1.9
		c-1.7-2-2.9-0.8-4.3-0.1c-0.9,0.4-2,0.8-2.5,1.5c-0.8,1.2-1.6,2.7-1.4,4.1c0.2,2.5,3.2,4.5,5.8,4.2c0.7-0.1,1.4-0.5,2.4-0.9
		c0.9,0.7,2.2,1.6,3.2,2.7c0.4,0.5,0.4,2.1,0.1,2.2c-2.3,1.2-2.7,3.7-3.5,5.7c-1.2,2.9-1.8,5.9-2.6,8.8c1.4,1.6,2.2,3.4,4.7,3
		c1.8-0.3,4.1-2,4.8-3.6c0.9-1.9,2-3.8,3.3-5.4c0.5-0.5,2-0.4,3-0.2c1.3,0.3,2.6,1,3.9,1.6c-1.1,2-2.8,3.2-1.9,5.5
		c0.3,0.8-0.6,2.1-0.7,3.2c-0.1,1.1,0.1,2.2,0.2,3.3c1.1-0.5,2.3-0.9,3.4-1.5c1-0.7,1.8-1.6,2.7-2.4c1.7-1.6,3.3-3,3.9-5.5
		c0.3-1.4,2.3-3.3,3.7-3.4c2-0.2,4.4,0.6,6.2,1.7c2.1,1.3,2.3,2.9,1.1,5.2c-0.4,0.8-1.5,1.6-2.4,1.7c-2.7,0.2-4.3,2.3-6.6,3.3
		c-0.6,0.3-1,1.1-1.5,1.7c-0.6,0.7-1.2,1.3-1.7,2c-0.4,0.6-0.7,1.3-1.1,1.8c-0.6,0.8-1.2,1.5-1.9,2.2c-0.4,0.4-0.9,1-1.3,1
		c-2.2,0-4.4,1.5-6.8-0.3c-1.5-1.1-3-2.1-4-3.7c-1.1-1.7-2.6-1.6-4.2-1.3c-1,0.1-1.9,0.5-2.4-0.8c-0.1-0.3-0.9-0.6-1.3-0.5
		c-3.5,1.1-5.1-1.8-7.1-3.5c-1.8-1.6-3.4-3.7-4.4-5.9c-0.9-1.8-1-4.1-1.1-6.2c-0.1-1.3,0.8-2.7,0.7-4c-0.1-1-0.8-2.1-1.6-2.8
		c-1.7-1.5-4.3-2.5-5.1-4.3c-1.4-3.3-4.4-6-3.8-10.2c0.4-2.5,2.9-4.9,5.5-4.7c0.8,0.1,1.7-0.2,2.5-0.3c1.1-0.2,2.2-0.4,3.3-0.6
		c0.5-0.1,1.2,0.1,1.4-0.1c2.5-2.4,5.7-2.1,8.8-2.3C163.3,45.3,163.6,45,163.8,44.9z"/>
	<path d="M198.5,97c-0.2-3.1,1-5.5,3.5-6.4c2.3-0.8,4.7-1.3,7.2-1.7c0.6-0.1,1.4,1,2.1,1c2.8,0.2,4.8,1.9,7,3.3
		c3.6,2.3,3.8,4.8,0.2,7.5c-0.4,0.3-0.6,0.8-1.1,1c-1.1,0.5-2.2,1.2-3.5-0.1c-0.9-1-2-1.9-3.8-1.6c-0.5,0.1-1.7-1.9-2-3.1
		c-0.4-1.8-2.3-3.5-4-2.9c-1.5,0.6-3.8,0.1-4.2,2.6C199.7,96.9,199,96.9,198.5,97z"/>
</g>
</svg>
