<?xml version="1.0" encoding="utf-8"?>
<!-- Generator: Adobe Illustrator 24.2.3, SVG Export Plug-In . SVG Version: 6.00 Build 0)  -->
<svg version="1.1" id="Layer_1" xmlns="http://www.w3.org/2000/svg" xmlns:xlink="http://www.w3.org/1999/xlink" x="0px" y="0px"
	 viewBox="0 0 146.9 131.5" style="enable-background:new 0 0 146.9 131.5;" xml:space="preserve">
<style type="text/css">
	.st0{fill:none;}
</style>
<path class="st0" d="M320.1,221.9c1.2,0.3,1.7-0.6,2.3-1.4c1.1-1.4,0.3-2.9,0.6-4.3c0.2-1-0.1-2.1-0.1-3.4c0.4,0.2,0.8,0.3,0.9,0.6
	c1.6,2.5,2.7,5.1,3.1,8c0.2,1.2,0.6,1.5,1.8,1.3c1.3-0.2,1.4-0.4,1.2-1.8c-0.2-1,0.2-1.8,1.1-2.4c2.4-1.7,5.4-1.1,7.9-2.3
	c0,0,0.1,0.1,0.3,0.2c-0.3,0.6-0.6,1.3-0.9,1.9c-0.3,0.7-0.4,1.4,0.3,1.8c0.6,0.2,1.3,0.2,2,0.1c0.2,0,0.3-0.8,0.3-1.2
	c-0.1-2.1,0.2-2.5,2.2-3.3c0.2-0.1,0.4-0.8,0.3-1c-0.5-1-1-2-2.5-1.8c-1.3,0.2-2.6,0-3.8,0c-0.2,0-0.7,0.1-0.7,0.2
	c-0.1,1.2-1.1,1.2-1.9,1.3c-1.3,0.1-2.4,1.3-4,0.6c-1.3-0.6-1.8-0.3-2.2,1.4c-0.4-0.3-0.8-0.5-1-0.8c-1.5-2.4-2.1-5.1-3.9-7.4
	c-1.2-1.5-1.4-2-3.4-1.7c0.1,0.6,0.2,1.3,0.4,1.9c0.3,1.1,0.8,2.2,0.9,3.3c0.1,1.4,0.4,2.8,0.8,4.1c0.1,0.3,0.2,0.6,0.1,0.9
	c-0.1,0.9-0.3,1.8-0.4,2.7c-0.1,1.1-1.2,2.1-2.1,1.9c-0.2,0.6-0.3,1.3-0.5,1.9c0.1,0,0.2,0,0.3,0.1
	C319.8,222.9,320,222.4,320.1,221.9z"/>
<path class="st0" d="M342.4,237.1c0.9-0.8,1.3-0.4,1.7,0.4c0.7,1.3,1.3,2.5,1.9,3.9c0.4,0.8,0.5,1.7,0.8,2.5
	c0.1,0.4,0.3,0.8,0.5,1.1c0.1,0.3,0.5,0.5,0.5,0.8c0,1.6,0,3.3,0,4.9c0,0.1-0.2,0.3-0.3,0.4c-1.5,2.4-2.1,5-1.9,7.8
	c0.1,1,1.1,1.9,2.1,1.6c0.9-0.3,1.8-0.8,2.7-1.3c0.9-0.5,1.7-0.7,2.4,0.2c0.3,0.3,0.9,0.6,1.3,0.5c1.6-0.5,3,0.1,4.5,0.6
	c1.7,0.6,2,1.7,1.5,3.5c-0.2,0.8,0.1,1.8,0.5,2.5c0.6,0.9,2.1,0.3,2.5-1c0.4-1.2,0.8-2.5,1.1-3.7c0.6-2,1.2-2.3,3.1-2.3
	c0.6,0,1.3-0.1,1.9-0.3c2.2-0.5,2.7-1,2.3-3.2c-0.2-1.4-1-2.9-1.7-4.2c-0.9-1.4-2.2-2.5-3-3.9c-0.5-0.9-0.9-2.3-0.5-3.2
	c0.9-2.1,2.9-3.4,4.8-4.6c1.3-0.8,1.7-1.2,0.9-2.5c-0.7-1.2-1.8-2.2-2.8-3.3c-0.6-0.6-1.4-1.1-1.9-1.8c-0.6-0.9-0.9-2-1.5-2.9
	c-0.3-0.4-1-0.9-1.3-0.8c-0.5,0.2-1.1,0.8-1.3,1.3c-0.2,0.5-0.2,1.2,0.6,1.6c0.6,0.3,1,1,1.5,1.5c0.3,0.4,0.5,0.8,0.8,1.1
	c0.5,0.4,1.1,0.8,1.6,1.2c2,1.6,1.9,2.8-0.1,4.3c-0.9,0.7-1.7,1.6-2.5,2.4c-0.7,0.7-1.2,1.6-1.8,2.3c0.2,0.8,0.3,1.7,0.7,2.4
	c0.5,0.9,1.3,1.6,1.8,2.5c1.2,1.9,2.7,3.6,3.1,5.9c0.1,0.9-0.1,1.3-1.1,1.2c-0.8-0.1-1.6-0.2-2.5-0.2c-1.2-0.1-2.5,0.8-2.9,2
	c-0.4,1.4-1.1,1.5-2.2,0.6c-0.3-0.3-0.7-0.5-1.1-0.6c-1.5-0.5-3-0.9-4.4-1.6c-1.6-0.8-3.1-1.8-4.8-0.6c-0.6,0.3-1.2,0.7-1.7,1
	c-0.1-0.1-0.2-0.2-0.3-0.3c0.1-0.9-0.2-2,0.2-2.8c1.1-2.1,2.5-4.1,3.9-6.1c0.2-0.4,0.8-0.5,1.3-0.7c1-0.3,1.5-1.1,1.1-2
	c-0.1-0.3-0.3-0.7-0.4-1h-2.6c-0.6,0.5-0.9,0.7-1.2,1c-0.4-1-0.6-1.9-1.1-2.6c-0.2-0.4-0.9-0.4-1.2-0.8c-0.7-1-1.5-2-1.9-3.2
	c-0.6-1.8-2-2.2-3.4-2.8C342.7,236.4,342.5,236.8,342.4,237.1z"/>
<path class="st0" d="M380.1,212.1c0.1-1,0.9-1.3,1.4-1.9c1.6-1.7,3.7-2,5.7-1.7c2.1,0.3,4.2,0.9,6.2,1.4c1.7,0.4,3.5,0.8,5.1,1.5
	c1.8,0.8,3.6,0.5,5.4,0.2c0.5-0.1,1-0.4,1.5-0.7c0.7-0.4,1.3-0.9,2-1.2c0.9-0.3,1.9-0.4,2.9-0.5c2.3-0.1,4.7-0.2,6.9,1.1
	c1-0.5,0.9-1.6,0.5-2.2c-0.3-0.6-1.3-1-2-1.1c-1.9-0.2-3.9-0.4-5.8-0.2c-1.6,0.1-3.2,0.6-4.7,1.3c-2.1,1-4.2,1.8-6.5,1
	c-1.3-0.4-2.4-1-3.7-1.4c-2.9-0.8-5.9-1.6-8.8-2.3c-0.5-0.1-1.2,0.2-1.8,0.4c-0.2,0.1-0.4,0.3-0.6,0.4c-1.5,0.8-3,1.6-4.5,2.5
	c-1,0.6-1.3,2-0.7,2.9C378.9,212.3,380,212.5,380.1,212.1z"/>
<path class="st0" d="M423.3,214.1c1.2-0.6,2.4-1.2,3.6-1.8c1.5-0.8,3-1.6,4.5-2.3c0.4-0.2,1-0.2,1.3,0c0.7,0.5,1.4,1.2,2,1.9
	c0.2,0.2,0.3,0.4,0.5,0.5c0.8,0.4,1.7,0.8,2.5,1.2c1.2,0.6,2.7,0.6,3.3-0.1c1.8-2.4,4-3.3,6.9-2.6c0.7,0.2,1.4,0.3,2.1,0.4
	c0.5-1.1,0.5-2-0.8-2.4c-0.8-0.3-1.6-0.6-2.4-0.8c-0.4-0.1-0.9-0.4-1.2-0.3c-1.6,0.8-3.5,0.8-4.9,2.2c-0.4,0.4-0.9,0.8-1.4,1.1
	c-0.4,0.2-1,0.2-1.3,0c-1.3-0.9-2.6-1.9-3.9-2.8c-0.7-0.4-1.7-0.8-2.4-0.7c-1.3,0.3-2.6,1.1-3.9,1.7c-1.8,0.9-3.5,1.8-5.3,2.6
	c-1.3,0.6-1.6,0.9-1.2,2.6C422,214.4,422.7,214.3,423.3,214.1z"/>
<path class="st0" d="M337.1,239.1c-1.3-0.9-2.9-1.6-4.5-0.8c-1.2,0.6-2.5,1.3-3.1,2.3c-1.2,2,0.6,5.1,3,5.5c0.7,0.1,1.6,0,2.3-0.3
	c0.9-0.4,1.6-1.2,2.5-1.9c-0.3-0.8-0.5-1.6,0.2-2.5C338,240.6,337.8,239.6,337.1,239.1z"/>
<path class="st0" d="M295.1,246.1c0.6,0.1,1-0.2,1.1-0.9c0.3-1.2,1.4-2,2.6-2c1.2,0,2.4,0.2,3.6,0.2c0.5,0,1-0.2,1.4-0.2
	c-0.3-0.9-0.5-1.7-0.7-2.5c1.7-0.1,2.1,0.3,1.7,1.7c-0.1,0.2-0.2,0.4-0.2,0.7c-0.2,0.9-0.4,1.7-0.4,2.6c0,0.9,0,1.7,0.2,2.6
	c0.1,0.6,0.4,1.2,0.6,1.8c0.1,0.4,0.3,0.7,0.7,1.5c-2.9-1-5.2-0.2-7.5,0.7c0.1,0.4,0.2,0.7,0.3,1c-1.5,1-1.7,1.5-1.3,3.2
	c0.1,0.7,0.3,1.3,0.3,2c0,2.1,0.5,3.9,2.5,5c0.2,0.1,0.3,0.3,0.4,0.4c0.4,0.9,1.1,1,2,0.9c1.4-0.1,2.4,0.6,2.4,1.7
	c0,1.1-0.1,2.1-0.3,3.2c-0.3,1.6,0.7,3.2,2.3,3.4c0.3,0,0.7,0.1,1,0.2c1.5,0.6,2.9,0.4,4.3-0.4c0.5-0.3,1-0.7,1.5-1
	c0.8-0.5,1.2,0,1.3,0.6c0.1,0.8,0,1.6,0,2.5c0.5,0.4,1.1,1,1.6,1.4c1.5-1.2,2.8-2.2,4-3.2c0.6,0.7,1.2,1.7,1.9,2
	c0.9,0.3,2,0.1,2.8,0.1c0.2-1,0.2-1.8,0.5-2.6c0.6-1.5,1.4-1.7,3-1.2c0.6,0.2,1.4,0.1,2.1,0.1c0.6-0.1,1.2-0.3,1.8-0.5
	c0.9-2.2,0.7-2.8-1.7-3.8c-0.3,0.2-0.8,0.3-1,0.6c-0.5,1-1,0.7-1.7,0.2c-1.4-1.1-2.3-0.9-3.4,0.7c-0.5,0.7-0.7,1.8-2,1.5
	c0-0.2,0-0.3-0.1-0.5c-0.4-1.7-0.8-2.1-2.2-2.2c-0.6-0.1-1.8,1.2-2.2,2c-0.1,0.3-0.4,0.5-0.6,0.7c-0.2-0.2-0.4-0.4-0.5-0.7
	c-0.1-0.3-0.2-0.6-0.2-0.9c-0.3-1.3-1.1-1.6-2.3-1c-0.5,0.2-1,0.3-1.5,0.5c0-0.3-0.1-0.5,0-0.5c1.2-1.8,2.1-3.7,2.3-5.9
	c0-0.3-0.1-0.8-0.3-1c-0.4-0.5-0.9-0.8-1.3-1.2c-0.5,0.1-1.3,0.1-1.5,0.5c-0.5,0.8-1.2,0.9-1.7,0.6c-1.2-0.5-2.1,0.3-3.1,0.5
	c-1.1,0.3-2.3,0.6-3.6,0.9c0.5-2.1,0.5-3.8-0.5-5.7c-1.1-2-2.4-2.8-4.5-3c0-0.2,0-0.4,0.1-0.5c0.6-0.7,3.5-1.2,4.3-0.7
	c0.5,0.3,0.9,0.8,1.3,1c1.4,0.6,2.4,1.5,3.1,2.9c0.2,0.5,1.5,0.9,2,0.7c0.7-0.2,0.9-1.1,0.4-1.9c-0.2-0.4-0.4-0.8-0.6-1.3
	c-0.2-0.7-0.6-1.5-0.6-2.2c0-0.7,0.4-1.4,1.4-0.6c0.6,0.5,1.3,0.8,1.8,1.4c0.5,0.6,1.1,0.9,1.8,0.6c0.8-0.3,1.3-0.8,1.2-1.8
	c0-0.8,0.1-1.6,0.3-2.3c0.1-0.5,0.4-1.2,1.1-0.2c0.3,0.4,1,0.6,1.6,0.7c0.7,0.2,1.4-0.1,1.4-0.9c0-0.8-0.2-1.7-0.6-2.2
	c-0.5-0.6-1.5-0.7-2.2-1.1c-1-0.6-1.8-0.4-2.4,0.6c-0.5,0.9-1,1.8-1.5,2.8c-0.4,0.8-0.7,0.7-1.4,0.1c-1-0.9-1.9-2-3.4-2
	c-0.2,0-0.6-0.4-0.7-0.6c-0.9-2.3,0.5-4.3,3-4.2c1.4,0.1,2.8-0.2,3.4-1.3c1.1-2,1.1-4.2-0.1-6.3c-0.2-0.4-0.6-0.8-1-1
	c-2.6-0.8-5.2,0.9-5.5,3.6c-0.1,1.3-0.6,1.7-1.9,1.3c-0.4-0.1-0.8-0.4-1.4-0.7c0.2-0.4,0.3-1,0.6-1.2c0.8-0.5,1.2-1.2,1.5-2.1
	c0.4-0.9,1.2-2,2.1-2.2c1.5-0.4,2-0.8,1.3-2.2c-0.3-0.7-0.6-1.4-1-2.3c1.2,0.2,2.1,0.2,2.9,0.5c1.8,0.7,3.7,0.4,5.6,0.9
	c0.3,0.1,1.1-0.2,1.2-0.6c0.2-0.5,0.4-1.4,0.1-1.7c-0.7-0.8-0.5-1.6-0.2-2.4c0.2-0.5,0.5-1.1,0.3-1.6c-0.2-0.8-1.2-1.7,0.4-2.2
	c0.1,0,0.1-0.2,0.1-0.3c0.5-1.1-0.2-1.7-1-2.1c-0.3,0.2-0.4,0.5-0.7,0.6c-1.7,0.6-3.3,1.2-4.8,2.2c-0.5,0.3-1,0.9-1.6,0.9
	c-1.9,0.3-3.7,0.3-5.6,0.5c-2.6,0.4-5.6,0.2-6.8,3.5c-0.1,0.2-0.4,0.4-0.7,0.5c-1.3,0.4-2.6,0.7-3.9,1.1c-1.4,0.4-2.9,0.6-4.2,1.3
	c-1.4,0.7-2.6,0.9-3.6,0.1c-0.7,0.2-1.2,0.4-1.7,0.5c-0.4,0.1-0.9,0.1-1.2,0.3c-2.7,1.6-5.4,3.2-8.2,4.7c-0.3,0.2-0.7,0.5-1,0.5
	c-1.5-0.1-3-0.1-4.3-0.5c-1.6-0.4-2.9-0.1-4.1,0.8c-0.8,0.6-1.5,1.7-2.4,1.9c-1.2,0.2-1.7,1.1-2.5,1.7c-0.6,0.5-1.1,1.1-1.5,1.7
	c-0.4,0.7-0.9,1.6-0.8,2.3c0.1,1,0.1,1.8-0.3,2.7c-0.5,1.2-1.3,2.5-0.5,3.8c0.6,0.9,1.4,1.7,2.1,2.5c1.3,1.6,3.1,2.5,5,3.2
	c0.4,0.1,0.8,0,1.3-0.1c1-0.2,1.9-0.5,2.9-0.7c0.4-0.1,0.8,0,1.1-0.2c1.4-0.8,2.8-1.8,4.3-2.5c1.1-0.5,2.4-0.9,3.7-1
	c0.5,0,1.1,0.9,1.7,1.2c0.7,0.3,1.7,0.7,2.3,0.4c2.1-0.9,4.1-2,6.2-3c1-0.5,2.2-0.7,3.2-1.3C292.2,246.8,293.5,246,295.1,246.1z"/>
<path class="st0" d="M298.8,303.9c1.2,1.6,3,1.9,4.8,1.1c1-0.5,2.2-0.6,3.3-0.7c1.8-0.1,3.6-0.1,4.9-1.5c1.8-2,4.2-3,6.6-3.9
	c1.7-0.7,3.6-0.8,5.4-1.2c0.5-0.1,1-0.2,1.4-0.5c0.9-0.7,1.7-1.7,2.7-2.1c1.8-0.7,2.5-2.5,3.8-3.7c1.1-1,2.9-1.7,4.2-1.4
	c1.8,0.4,3.7,0.8,5.2-0.7c1.3-1.2,2.5-2.4,3.5-3.9c0.6-1,1.3-1.3,2.3-1.5c2.1-0.3,4.1-0.7,6-1.7c1.7-0.9,3.4-1.1,5,0
	c1.6,1,3.1,1.8,5.1,1c1.6-0.6,3.3-0.9,4.8-1.9c0.5-0.4,1.3-0.6,1.9-0.7c1.4-0.2,2.8-0.4,4.2-0.5c0.6-0.1,1.1-0.1,1.7-0.1
	c0.8,0,1.5,0,2.3,0c0.5,0,1.1,0.1,1.8,0.1c1-0.3,2-0.6,3.1-0.9c2.3-0.5,4.6-1.5,7-1.1c0.4,0.1,0.9,0,1.3,0c1.3,0.1,2.6-0.1,3.8,0.2
	c2.8,0.7,5.6,1.6,8.4,2.6c3.8,1.3,7.5,0.7,11.2,0c1.8-0.4,3.5-1,5.3-1.6c0.5-0.2,0.9-0.6,1.3-0.9c0.6-0.4,1.1-0.9,1.8-1.1
	c0.2-0.1,0.9,0.3,0.9,0.5c0.2,1.4,0.4,2.9,0.5,4.3c0.1,2.1,1.2,3.7,2.8,4.7c1.5,1,3.3,0.6,4.9,0.1c0.9-0.3,1.8-0.6,2.7-0.7
	c1.4,0,2-0.6,2.4-1.9c0.2-0.7,1-1.2,1.9-0.6c0.8-1.7,2.9-2.5,4.7-2c1.4,0.4,2.9,0.4,4.3,0.3c2.9-0.1,5.6-1.1,8.1-2.6
	c0.3-0.2,0.7-0.3,1-0.5c0.9-0.4,1.7-0.8,2.6-1.1c0.5-0.2,1.1-0.4,1.7-0.5c0.6-0.1,1.2,0.1,1.8,0c1.3-0.3,3,0,3.2-2
	c0-0.2,0.6-0.4,0.9-0.6c0.3-0.2,0.7-0.3,0.9-0.6c1.1-1.4,1.3-3.2,1.5-4.8c0.4-3.5,0.8-6.9,1.7-10.3c0.1-0.2,0.6-0.6,0.9-0.5
	c0.8,0.2,1.6,0.4,2.6,0.5c1.8,0.1,3.5,0.2,5-1.1c0.3-0.3,0.8-0.3,1.3-0.4c0.8-0.2,1.6-0.4,2.3-0.8c0.8-0.4,1.4-1.1,2.1-1.4
	c1.2-0.6,1.7-1.6,2.1-2.7c0.2-0.5,0-1.1-0.2-1.6c-0.7-2-1.9-4-1.1-6.3c0.1-0.5,0.1-1.2-0.2-1.6c-1.3-2.2-2.8-4.4-4.9-6
	c-2.1-1.6-4.2-3.3-6.4-4.7c-1.8-1.1-1.7-2.5-1.6-4.3c0.2-1.5,0.7-3-0.3-4.5c-1.2-1.9-3.1-2.3-4.9-3c-0.6-0.2-1.2,0-1.3,0.7
	c-0.1,0.6-0.1,1.2,0.8,1.4c0.9,0.3,1.7,0.7,2.5,1.2c0.7,0.5,1,1.1,0.8,2.2c-0.3,2.1-0.5,4.3,0.1,6.4c0,0.2,0.2,0.4,0.4,0.5
	c2.5,1.7,4.8,3.6,7.5,5.1c2.1,1.2,3.2,3.1,4.6,4.9c0.2,0.3,0,0.8,0,1.2c-0.1,0.8-0.6,1.6-0.4,2.3c0.4,1.3,1.2,2.6,1.7,3.9
	c0.2,0.4,0.2,1,0,1.3c-0.2,0.2-0.8,0.2-1.2,0.2c-0.3,0-0.5-0.1-0.9-0.3c-0.1,0.8-0.2,1.4-0.3,2.1c-0.1,0.6-0.3,1-1,0.9
	c-1.5-0.2-2.8,0.3-4,1.2c-1.2,0.9-2.4,0.7-2.9-0.6c-0.5-1.2-1.1-1.1-2-0.8c-0.4,0.1-1.1,0.2-1.2,0c-0.6-1.1-1.2-2.2-1.7-3.4
	c-0.3-0.6-0.3-1.5-0.8-1.9c-1-0.7-2.1-1.5-3.7-0.5c0.2,0.8,0.3,1.8,0.7,2.6c0.5,0.9,1.4,1.6,1.4,2.8c0,0.3,0.5,0.7,0.8,1
	c0.2,0.4,0.6,0.8,0.6,1.2c-0.1,1.4-0.3,2.7-0.4,4.1c-0.2,1.8-0.4,3.5-0.6,5.3c-0.2,1.3-0.5,2.6-0.6,3.9c-0.1,1.9-1.1,3.1-3.1,3
	c-1-0.1-1.5,0.3-1.8,1.2c-0.1,0.4-0.3,0.9-0.6,0.9c-2.1,0.7-4.2,1.4-6.4,2c-1,0.3-2,0.3-2.4,1.5c0,0.2-0.3,0.3-0.5,0.4
	c-1.2,0.3-2.3,0.8-3.5,0.9c-1.3,0.1-2.7,0.1-3.9-0.3c-1.3-0.4-2.5-0.7-3.7,0c-1.7,0.9-3.6,1.8-5.3,2.7c-0.4,0.2-0.7,0.7-1,1
	c-0.5,0.5-0.9,1.1-1.5,1.4c-0.7,0.3-1.5,0.4-2.3,0.5c-2.4,0.4-3.5-0.6-3.5-3c0-0.5,0.1-1.2-0.2-1.6c-0.9-1.3-0.6-2.6,0-3.8
	c0.8-1.6,1.6-3.2,3.6-3.8c0.7-0.2,1.4-0.3,2.1-0.3c0.9-0.1,1.9-0.2,2.8-0.1c1.2,0.1,2.5,0.4,3.7,0.4c1,0,2-0.4,3.1-0.4
	c1-0.1,2.1-1,2.2-2.2c0.1-1.3-0.9-1.2-1.7-1.5c-0.3-0.1-0.8-0.7-0.7-0.9c0.4-0.9,0.9-1.7,1.5-2.5c-0.4-0.8-1-1.8-1.5-2.8
	c-0.4-0.8-0.6-1.8-1.1-2.5c-0.8-1.1-1.8-2.1-2.7-3.2c-0.4-0.4-0.8-3.1-0.3-3.3c1-0.5,1.8-1.5,3.1-1.3c0.9,0.1,3.5-2.1,3.3-2.9
	c-0.3-1-0.8-2-1.4-2.9c-0.6-0.7-1.5-1.1-2-1.5c-0.6,0.1-1.1,0.4-1.5,0.2c-0.3-0.1-0.4-0.7-0.5-1.1c-0.7-2.3,0.8-4,1.9-5.7
	c0.2-0.4,0.6-0.8,0.9-0.9c2-0.3,4.1-0.5,6.1-0.8c0.1,0,0.1,0.1,0.2,0.1c1.2-0.1,2.8,1.4,3.6-0.9c0,0,0.1,0,0.2-0.1
	c1.3-0.6,2.5-1.2,4.1-1c2.3,0.3,4.3,0.7,4.9,3.3c0.2,0.9,0.9,0.7,1.4,0.6c0.7-0.2,1-1.4,0.7-2.2c-0.2-0.3-0.1-0.8-0.3-1.1
	c-0.2-0.5-0.4-1.1-0.9-1.4c-2.6-1.6-5.4-2.5-8.5-2.1c-0.9,0.1-2.1,0.5-2.7,1.2c-0.8,0.9-1.6,1-2.7,0.8c-1.8-0.3-3.6-1.1-5.4,0
	c-1,0.6-2,1.3-3,1.9c-0.3,0.2-0.6,0.3-0.8,0.6c-0.7,0.8-1.3,1.8-2,2.6c-2.1,2-2.5,6.1,0,8.9c0.8,0.9,0.8,1.4,0.1,2.3
	c-0.8,1-1.5,2-2,3.1c-0.2,0.4-0.3,1.2-0.1,1.6c0.5,1,1.1,1.9,1.7,2.8c0.4,0.7,0.9,1.3,1.3,2c0.5,1,0.8,2.1,1.5,2.9
	c1.5,1.5,0.8,3.4-0.8,4.2c-1.9,0.9-3.8,1.9-6,2.2c-1.1,0.1-2.2,0.7-3.1,1.3c-2,1.5-3.8,3.2-5.8,4.7c-0.4,0.4-1.1,0.5-1.4,1
	c-0.8,1-1.7,1.4-2.9,1.5c-0.3,0-0.6,0.1-0.8,0.3c-0.5,0.3-1,0.8-1.5,1c-1.6,0.4-3.2,0.7-4.8,1.1c-1.7,0.5-3.3,0.6-5,0.2
	c-1.8-0.4-3.7-0.6-5.5-1.1c-0.9-0.3-2.5,0-2.4-1.8c-1.8-0.1-3.6-0.2-5.3-0.3c-1.7-0.1-3.3-0.4-4.9-0.5c-1.4-0.1-2.7,0-4.1,0.1
	c-0.6,0-1.6,0.2-1.7,0.5c-0.3,0.9-0.9,0.6-1.4,0.6c-0.2,0-0.4-0.1-0.6,0c-1.5,0.2-3.1,0.6-4.6,0.7c-2.3,0.2-4.6,0-6.9,0.3
	c-1.5,0.2-2.9,1.2-4.3,1.8c-2.9,1.4-5,1.7-7.4-0.8c-0.6-0.6-2.4-0.7-3.2-0.4c-1,0.5-2,1-3.1,1.2c-2.2,0.5-4.4,0.9-6.5,0.4
	c-0.5,0.6-0.9,1.2-1.3,1.7c-0.3,0.4-0.7,0.7-1.1,1.1c-0.9,1-1.7,2.1-2.7,3.1c-1.1,1.2-2,1.2-3.5,0.7c-1-0.3-2.1-0.3-3.1-0.4
	c-0.2,0-0.4,0.1-0.6,0.3c-1.6,1.6-3.1,3.3-4.7,4.9c-0.7,0.7-1.7,1-2.3,1.7c-1.8,1.8-4.1,2-6.3,1.8c-2.3-0.2-3.9,1.3-5.9,2
	c0,0-0.1,0.1-0.1,0.1c-1.5,1.8-3.3,2.9-5.7,2.7c-0.4,0.4-0.9,0.6-1.3,0.7c-0.3,0.1-0.7,0-1,0.1c-1.2,0.5-2.3,1.1-3.5,1.5
	c-0.5,0.2-1.3,0-1.7-0.4c-0.3-0.3-0.2-1.1,0-1.6c0.3-1,0-1.7-1-1.9c-0.5-0.1-0.9-0.3-1.3-0.4c-0.5,0.2-0.6,1.3-1.5,0.4
	c-0.4-0.4-1-0.6-1.5-1c-0.1-0.1,0-0.4,0.1-0.6c0.6-1.3,0.5-2.8-0.1-4.2c-0.1-0.2,0.1-0.5,0.3-0.7c0.2-0.3,0.4-0.7,0.7-0.9
	c1-0.9,1.8-2,3.3-2.1c0.3,0,0.5-0.1,0.8-0.3c1.3-0.9,2.7-1.9,4-2.8c0.1-0.1,0.2-0.1,0.3-0.2c1.9-0.9,3.9-1.1,5.9-1.3
	c1.4-0.2,2.7,0.3,3.9,1.1c1.1,0.7,1.3,0.4,1.9-0.7c0.7-1.3,1.3-3,3.1-3.2c1.6-0.2,3.4-1.6,5,0.1c0.1,0.1,0.3,0.1,0.5,0.1
	c1.5,0.2,3.1,0.3,4.6,0.4c0.6,0,1.3,0.1,1.7-0.3c0.7-0.7,1.3-1.6,1.9-2.5c0.8-1.2,1.4-2.6,2.4-3.7c0.7-0.8,1-2.2,2.5-2
	c0.1,0,0.2-0.2,0.4-0.3c1.3-1.1,2.7-1.7,4.4-1c0.3-0.7,0.5-1.4,0.8-2c0.9-0.1,2-0.1,2.9-0.4c1.3-0.4,2.6-0.9,3.9-1.4
	c0.4-0.1,0.7-0.4,1-0.6c0.7-0.7,0.5-1.6-0.3-2.1c-0.6-0.4-1.2-0.7-1.6-0.9c-1.6,0-2.2,1.2-3.2,1.9c-0.9,0.6-1.8,0.5-2.8-0.1
	c-1.8-1.1-3.6-1.2-5.2,0.5c-0.3,0.3-0.9,0.4-1.3,0.6c-0.2,0.1-0.5,0.2-0.7,0.3c0.1,0.2,0.2,0.4,0.3,0.6c0.1,0.4,0.5,0.9,0.3,1.2
	c-0.5,0.8-1,1.5-1.7,2.1c-1,0.9-2.1,1.7-3.2,2.5c-0.1,0.1-0.3,0.2-0.4,0.2c-0.9-0.1-1.6,0-1.5,1.2c0,0.2-0.5,0.5-0.9,0.7
	c-0.5,0.3-1,0.5-1.4,0.8c-1.5,1.4-3.5,1.6-5,0.5c-0.5,0.2-0.9,0.4-1.3,0.5c-0.3,0.1-0.6,0-0.9,0.1c-1,0.3-2.1,0.5-3,1
	c-0.9,0.5-1.7,1.3-2.6,1.9c-0.4,0.3-0.8,0.7-1.2,0.6c-2.8-0.3-5.4-0.3-8.1,0.8c-1.8,0.7-3.7,1.4-5.1,2.9c-0.3,0.3-0.9,0.5-1.3,0.7
	c-1.5,0.7-3.2,0.7-4.4,2.1c-2.1,2.3-3.3,4.9-3.2,8c0.1,2.1,2,5.2,4.4,5.3C297.3,301.9,298.1,303,298.8,303.9z"/>
<path class="st0" d="M355,217.8c0.5-0.1,1.1-0.4,1.3-0.8c0.9-1.4,2.6-2.5,4.1-2c1.3,0.4,2.6,0.4,3.9,0.2c1.9-0.4,3.8-0.6,5.7-1
	c0.6-0.1,1.2-0.4,1.9-0.6c0,0.1,0,0.1,0.1,0.2c0.3,0,0.8,0.1,1-0.1c0.8-0.9,1.4-1.9,2.1-2.8c0.4-0.6,0.9-1.1,1.3-1.6
	c0.3-0.4,0.9-1,0.8-1.4c-0.2-1-1.1-1.3-2.1-1.1c-1.4,0.4-2,1.6-2.4,2.7c-0.5,1.3-1.3,1.6-2.4,1.9c-1.7,0.5-3.6,0.6-5.3,0.9
	c-1.9,0.3-3.6,0.2-5.4,0.1c-0.5,0-1.1-0.2-1.4,0.1c-1.1,0.9-2.7,1-3.6,2.2c-0.5,0.7-0.8,1.4-0.5,2.2
	C354.3,217.2,354.7,217.8,355,217.8z"/>
<path class="st0" d="M458.7,216.2c0.6,0.1,1.3,0.4,1.7,0.9c0.5,0.6,0.6,1.5,0.9,2.2c0.9,2,1.8,3,3.8,2c0.3-0.1,0.7-0.5,0.7-0.8
	c0-0.4-0.2-0.9-0.5-1.2c-0.2-0.3-0.7-0.4-1.1-0.5c-0.7-0.3-1.2-0.6-1.3-1.4c-0.1-0.7-0.4-1.5-0.8-2.1c-0.7-1.2-1.8-1.4-3.1-1.5
	c-1.6-0.1-3.3-0.1-4.8-0.4c-0.8-0.1-1.8-0.8-2.4,0c-0.3,0.5,0.1,1.4,0.2,2.1C454.2,215.7,456.4,215.9,458.7,216.2z"/>
<path d="M379.9,280.2c-0.7,0-1.2-0.1-1.8-0.1c-0.8,0-1.5,0-2.3,0c-0.6,0-1.1,0-1.7,0.1c-1.4,0.1-2.8,0.3-4.2,0.5
	c-0.7,0.1-1.4,0.3-1.9,0.7c-1.5,1-3.2,1.3-4.8,1.9c-1.9,0.7-3.5,0-5.1-1c-1.6-1.1-3.4-0.8-5,0c-1.9,1-3.9,1.4-6,1.7
	c-1,0.1-1.7,0.5-2.3,1.5c-0.9,1.4-2.2,2.7-3.5,3.9c-1.5,1.4-3.4,1-5.2,0.7c-1.4-0.3-3.2,0.5-4.2,1.4c-1.3,1.2-2,3-3.8,3.7
	c-1,0.4-1.8,1.4-2.7,2.1c-0.4,0.3-0.9,0.4-1.4,0.5c-1.8,0.4-3.7,0.5-5.4,1.2c-2.4,0.9-4.8,1.9-6.6,3.9c-1.3,1.4-3.1,1.4-4.9,1.5
	c-1.1,0.1-2.3,0.2-3.3,0.7c-1.8,0.9-3.6,0.6-4.8-1.1c-0.8-1-1.5-2-3-2.1c-2.4-0.1-4.4-3.2-4.4-5.3c-0.1-3.1,1.1-5.7,3.2-8
	c1.3-1.4,2.9-1.4,4.4-2.1c0.5-0.2,1-0.4,1.3-0.7c1.4-1.5,3.3-2.1,5.1-2.9c2.6-1.1,5.3-1.1,8.1-0.8c0.4,0,0.8-0.3,1.2-0.6
	c0.9-0.6,1.7-1.4,2.6-1.9c0.9-0.5,2-0.7,3-1c0.3-0.1,0.6,0,0.9-0.1c0.4-0.1,0.8-0.3,1.3-0.5c1.5,1,3.4,0.9,5-0.5
	c0.4-0.4,0.9-0.5,1.4-0.8c0.3-0.2,0.9-0.5,0.9-0.7c-0.1-1.2,0.6-1.3,1.5-1.2c0.1,0,0.3-0.1,0.4-0.2c1.1-0.8,2.2-1.6,3.2-2.5
	c0.7-0.6,1.2-1.3,1.7-2.1c0.1-0.2-0.2-0.8-0.3-1.2c-0.1-0.2-0.2-0.4-0.3-0.6c0.2-0.1,0.5-0.2,0.7-0.3c0.4-0.2,1-0.3,1.3-0.6
	c1.6-1.7,3.4-1.6,5.2-0.5c1,0.6,2,0.7,2.8,0.1c1-0.7,1.6-1.9,3.2-1.9c0.3,0.2,0.9,0.5,1.6,0.9c0.8,0.5,1,1.4,0.3,2.1
	c-0.3,0.3-0.6,0.5-1,0.6c-1.3,0.5-2.6,1.1-3.9,1.4c-0.9,0.3-2,0.3-2.9,0.4c-0.2,0.6-0.5,1.3-0.8,2c-1.7-0.6-3.1,0-4.4,1
	c-0.1,0.1-0.3,0.3-0.4,0.3c-1.5-0.2-1.8,1.2-2.5,2c-1,1.1-1.6,2.5-2.4,3.7c-0.6,0.9-1.1,1.8-1.9,2.5c-0.3,0.3-1.1,0.3-1.7,0.3
	c-1.5-0.1-3.1-0.3-4.6-0.4c-0.2,0-0.4,0-0.5-0.1c-1.6-1.7-3.3-0.3-5-0.1c-1.8,0.2-2.4,1.9-3.1,3.2c-0.6,1.1-0.8,1.4-1.9,0.7
	c-1.2-0.8-2.5-1.2-3.9-1.1c-2,0.2-4.1,0.4-5.9,1.3c-0.1,0-0.2,0.1-0.3,0.2c-1.3,0.9-2.7,1.9-4,2.8c-0.2,0.1-0.5,0.3-0.8,0.3
	c-1.5,0.1-2.3,1.2-3.3,2.1c-0.3,0.2-0.5,0.6-0.7,0.9c-0.1,0.2-0.3,0.5-0.3,0.7c0.6,1.4,0.6,2.9,0.1,4.2c-0.1,0.2-0.2,0.5-0.1,0.6
	c0.5,0.3,1.1,0.5,1.5,1c0.8,1,1-0.2,1.5-0.4c0.4,0.1,0.9,0.3,1.3,0.4c1,0.2,1.3,0.9,1,1.9c-0.1,0.5-0.3,1.4,0,1.6
	c0.4,0.4,1.2,0.5,1.7,0.4c1.2-0.4,2.3-1,3.5-1.5c0.3-0.1,0.7,0,1-0.1c0.5-0.1,0.9-0.4,1.3-0.7c2.4,0.1,4.2-1,5.7-2.7
	c0,0,0-0.1,0.1-0.1c1.9-0.7,3.6-2.2,5.9-2c2.3,0.2,4.5,0,6.3-1.8c0.7-0.7,1.7-1,2.3-1.7c1.6-1.6,3.1-3.2,4.7-4.9
	c0.1-0.1,0.4-0.3,0.6-0.3c1.1,0.1,2.1,0.1,3.1,0.4c1.5,0.5,2.5,0.4,3.5-0.7c0.9-1,1.8-2.1,2.7-3.1c0.3-0.4,0.7-0.7,1.1-1.1
	c0.4-0.5,0.8-1.1,1.3-1.7c2.1,0.6,4.3,0.2,6.5-0.4c1.1-0.2,2.1-0.7,3.1-1.2c0.8-0.4,2.6-0.2,3.2,0.4c2.4,2.5,4.5,2.2,7.4,0.8
	c1.4-0.7,2.8-1.6,4.3-1.8c2.2-0.4,4.6-0.1,6.9-0.3c1.5-0.1,3.1-0.5,4.6-0.7c0.2,0,0.4,0,0.6,0c0.5,0,1.1,0.3,1.4-0.6
	c0.1-0.3,1.1-0.4,1.7-0.5c1.4-0.1,2.7-0.1,4.1-0.1c1.7,0.1,3.3,0.3,4.9,0.5c1.8,0.1,3.5,0.2,5.3,0.3c-0.1,1.8,1.4,1.5,2.4,1.8
	c1.8,0.5,3.7,0.7,5.5,1.1c1.7,0.4,3.4,0.2,5-0.2c1.6-0.4,3.2-0.7,4.8-1.1c0.6-0.1,1-0.7,1.5-1c0.2-0.1,0.5-0.2,0.8-0.3
	c1.2-0.1,2.1-0.5,2.9-1.5c0.3-0.4,0.9-0.6,1.4-1c1.9-1.6,3.8-3.3,5.8-4.7c0.9-0.7,2-1.2,3.1-1.3c2.2-0.3,4.1-1.3,6-2.2
	c1.6-0.8,2.3-2.6,0.8-4.2c-0.7-0.7-1-1.9-1.5-2.9c-0.4-0.7-0.9-1.4-1.3-2c-0.6-0.9-1.3-1.8-1.7-2.8c-0.2-0.4-0.1-1.2,0.1-1.6
	c0.6-1.1,1.3-2.1,2-3.1c0.7-0.9,0.7-1.4-0.1-2.3c-2.5-2.7-2.1-6.8,0-8.9c0.8-0.8,1.3-1.7,2-2.6c0.2-0.3,0.6-0.4,0.8-0.6
	c1-0.6,2-1.3,3-1.9c1.8-1.1,3.6-0.3,5.4,0c1.1,0.2,1.8,0.2,2.7-0.8c0.6-0.7,1.7-1.1,2.7-1.2c3.1-0.4,5.9,0.5,8.5,2.1
	c0.4,0.3,0.6,0.9,0.9,1.4c0.2,0.3,0.1,0.8,0.3,1.1c0.4,0.7,0.1,2-0.7,2.2c-0.5,0.1-1.2,0.3-1.4-0.6c-0.7-2.6-2.7-3-4.9-3.3
	c-1.6-0.2-2.8,0.4-4.1,1c-0.1,0-0.2,0-0.2,0.1c-0.7,2.2-2.3,0.8-3.6,0.9c-0.1,0-0.1-0.1-0.2-0.1c-2,0.2-4.1,0.5-6.1,0.8
	c-0.4,0.1-0.7,0.5-0.9,0.9c-1.1,1.8-2.6,3.4-1.9,5.7c0.1,0.4,0.2,1,0.5,1.1c0.4,0.1,0.9-0.1,1.5-0.2c0.5,0.4,1.5,0.8,2,1.5
	c0.7,0.8,1.2,1.8,1.4,2.9c0.2,0.8-2.4,3-3.3,2.9c-1.3-0.2-2.1,0.8-3.1,1.3c-0.4,0.2,0,2.8,0.3,3.3c0.9,1,1.9,2,2.7,3.2
	c0.5,0.7,0.7,1.7,1.1,2.5c0.5,1,1,2,1.5,2.8c-0.5,0.9-1.1,1.7-1.5,2.5c-0.1,0.2,0.4,0.8,0.7,0.9c0.8,0.2,1.8,0.2,1.7,1.5
	c-0.1,1.1-1.2,2.1-2.2,2.2c-1,0.1-2,0.5-3.1,0.4c-1.2,0-2.5-0.3-3.7-0.4c-0.9-0.1-1.9,0-2.8,0.1c-0.7,0.1-1.4,0.1-2.1,0.3
	c-1.9,0.5-2.8,2.2-3.6,3.8c-0.6,1.2-0.9,2.5,0,3.8c0.3,0.4,0.2,1.1,0.2,1.6c0,2.4,1.1,3.3,3.5,3c0.8-0.1,1.6-0.2,2.3-0.5
	c0.6-0.3,1-0.9,1.5-1.4c0.3-0.3,0.6-0.8,1-1c1.8-0.9,3.6-1.8,5.3-2.7c1.3-0.7,2.4-0.5,3.7,0c1.2,0.4,2.6,0.4,3.9,0.3
	c1.2-0.1,2.4-0.5,3.5-0.9c0.2-0.1,0.5-0.2,0.5-0.4c0.4-1.2,1.4-1.3,2.4-1.5c2.1-0.6,4.3-1.2,6.4-2c0.3-0.1,0.5-0.6,0.6-0.9
	c0.3-0.9,0.8-1.3,1.8-1.2c1.9,0.1,3-1.1,3.1-3c0.1-1.3,0.4-2.6,0.6-3.9c0.2-1.8,0.4-3.5,0.6-5.3c0.2-1.4,0.4-2.7,0.4-4.1
	c0-0.4-0.3-0.8-0.6-1.2c-0.2-0.4-0.8-0.7-0.8-1c0-1.2-0.9-1.9-1.4-2.8c-0.4-0.8-0.5-1.8-0.7-2.6c1.6-1,2.7-0.2,3.7,0.5
	c0.5,0.3,0.5,1.2,0.8,1.9c0.5,1.1,1.1,2.3,1.7,3.4c0.1,0.2,0.8,0.1,1.2,0c0.9-0.3,1.6-0.4,2,0.8c0.5,1.3,1.7,1.5,2.9,0.6
	c1.2-0.9,2.5-1.4,4-1.2c0.7,0.1,0.9-0.3,1-0.9c0.1-0.7,0.2-1.3,0.3-2.1c0.4,0.1,0.6,0.3,0.9,0.3c0.4,0,1,0,1.2-0.2
	c0.2-0.3,0.2-0.9,0-1.3c-0.5-1.3-1.3-2.5-1.7-3.9c-0.2-0.7,0.3-1.5,0.4-2.3c0.1-0.4,0.2-1,0-1.2c-1.4-1.8-2.5-3.7-4.6-4.9
	c-2.6-1.5-5-3.4-7.5-5.1c-0.2-0.1-0.3-0.3-0.4-0.5c-0.5-2.1-0.4-4.3-0.1-6.4c0.2-1.1-0.1-1.7-0.8-2.2c-0.8-0.5-1.6-0.9-2.5-1.2
	c-0.8-0.3-0.8-0.9-0.8-1.4c0.1-0.7,0.7-0.9,1.3-0.7c1.8,0.7,3.7,1.1,4.9,3c1,1.5,0.4,3.1,0.3,4.5c-0.2,1.8-0.2,3.2,1.6,4.3
	c2.2,1.4,4.3,3.1,6.4,4.7c2.2,1.6,3.6,3.7,4.9,6c0.3,0.4,0.3,1.1,0.2,1.6c-0.7,2.3,0.4,4.3,1.1,6.3c0.2,0.5,0.4,1.2,0.2,1.6
	c-0.4,1.1-0.9,2.1-2.1,2.7c-0.8,0.4-1.4,1-2.1,1.4c-0.7,0.4-1.5,0.5-2.3,0.8c-0.4,0.1-1,0.1-1.3,0.4c-1.5,1.4-3.1,1.3-5,1.1
	c-0.9-0.1-1.7-0.2-2.6-0.5c-0.2-0.1-0.8,0.3-0.9,0.5c-0.9,3.4-1.4,6.8-1.7,10.3c-0.2,1.6-0.3,3.4-1.5,4.8c-0.2,0.3-0.6,0.4-0.9,0.6
	c-0.3,0.2-0.9,0.4-0.9,0.6c-0.3,2-2,1.7-3.2,2c-0.6,0.1-1.2,0-1.8,0c-0.6,0.1-1.1,0.3-1.7,0.5c-0.9,0.4-1.7,0.7-2.6,1.1
	c-0.3,0.2-0.7,0.3-1,0.5c-2.5,1.5-5.2,2.5-8.1,2.6c-1.4,0.1-2.9,0.1-4.3-0.3c-1.8-0.5-3.9,0.3-4.7,2c-0.9-0.6-1.7-0.1-1.9,0.6
	c-0.4,1.3-1,1.8-2.4,1.9c-0.9,0-1.8,0.4-2.7,0.7c-1.7,0.5-3.5,0.8-4.9-0.1c-1.6-1-2.6-2.6-2.8-4.7c-0.1-1.5-0.3-2.9-0.5-4.3
	c0-0.2-0.7-0.6-0.9-0.5c-0.6,0.3-1.2,0.7-1.8,1.1c-0.5,0.3-0.8,0.8-1.3,0.9c-1.7,0.6-3.5,1.3-5.3,1.6c-3.7,0.7-7.5,1.4-11.2,0
	c-2.7-1-5.5-1.8-8.4-2.6c-1.2-0.3-2.5-0.2-3.8-0.2c-0.4,0-0.9,0-1.3,0c-2.5-0.4-4.7,0.5-7,1.1C381.9,279.6,380.9,279.9,379.9,280.2z
	"/>
<path d="M325,275.1c-0.7,0-1.9,0.3-2.8-0.1c-0.8-0.3-1.3-1.3-1.9-2c-1.2,1-2.5,2-4,3.2c-0.5-0.4-1.1-1-1.6-1.4c0-0.9,0.1-1.7,0-2.5
	c-0.1-0.6-0.6-1.1-1.3-0.6c-0.5,0.3-1,0.7-1.5,1c-1.3,0.8-2.8,1.1-4.3,0.4c-0.3-0.1-0.7-0.1-1-0.2c-1.6-0.2-2.6-1.8-2.3-3.4
	c0.2-1,0.3-2.1,0.3-3.2c0-1.1-1-1.7-2.4-1.7c-0.8,0-1.6-0.1-2-0.9c-0.1-0.2-0.2-0.4-0.4-0.4c-2-1.1-2.5-2.9-2.5-5
	c0-0.7-0.1-1.3-0.3-2c-0.4-1.7-0.2-2.2,1.3-3.2c-0.1-0.3-0.2-0.6-0.3-1c2.3-0.9,4.6-1.7,7.5-0.7c-0.3-0.8-0.5-1.1-0.7-1.5
	c-0.2-0.6-0.5-1.2-0.6-1.8c-0.1-0.9-0.2-1.7-0.2-2.6c0-0.9,0.3-1.7,0.4-2.6c0-0.2,0.2-0.4,0.2-0.7c0.3-1.4,0-1.8-1.7-1.7
	c0.2,0.8,0.5,1.6,0.7,2.5c-0.4,0.1-0.9,0.2-1.4,0.2c-1.2,0-2.4-0.2-3.6-0.2c-1.3,0-2.4,0.7-2.6,2c-0.2,0.7-0.5,1-1.1,0.9
	c-1.6-0.1-2.9,0.7-4.2,1.5c-0.9,0.6-2.1,0.8-3.2,1.3c-2.1,1-4.1,2.2-6.2,3c-0.6,0.3-1.6-0.1-2.3-0.4c-0.6-0.3-1.2-1.2-1.7-1.2
	c-1.2,0.1-2.5,0.5-3.7,1c-1.5,0.7-2.8,1.7-4.3,2.5c-0.3,0.2-0.8,0.1-1.1,0.2c-1,0.2-1.9,0.5-2.9,0.7c-0.4,0.1-0.9,0.2-1.3,0.1
	c-1.9-0.7-3.7-1.6-5-3.2c-0.7-0.8-1.5-1.6-2.1-2.5c-0.8-1.3,0-2.6,0.5-3.8c0.4-0.9,0.4-1.7,0.3-2.7c-0.1-0.7,0.4-1.6,0.8-2.3
	c0.4-0.6,0.9-1.2,1.5-1.7c0.8-0.6,1.3-1.5,2.5-1.7c0.9-0.2,1.6-1.3,2.4-1.9c1.2-0.9,2.5-1.3,4.1-0.8c1.4,0.4,2.9,0.4,4.3,0.5
	c0.3,0,0.7-0.3,1-0.5c2.7-1.6,5.4-3.2,8.2-4.7c0.4-0.2,0.8-0.2,1.2-0.3c0.5-0.1,1-0.3,1.7-0.5c1,0.8,2.2,0.6,3.6-0.1
	c1.3-0.7,2.8-0.9,4.2-1.3c1.3-0.4,2.6-0.7,3.9-1.1c0.2-0.1,0.6-0.3,0.7-0.5c1.2-3.2,4.1-3.1,6.8-3.5c1.9-0.3,3.7-0.3,5.6-0.5
	c0.6-0.1,1.1-0.6,1.6-0.9c1.5-1,3.1-1.6,4.8-2.2c0.3-0.1,0.4-0.4,0.7-0.6c0.8,0.5,1.4,1,1,2.1c0,0.1-0.1,0.3-0.1,0.3
	c-1.6,0.5-0.6,1.3-0.4,2.2c0.1,0.5-0.1,1.1-0.3,1.6c-0.4,0.9-0.5,1.6,0.2,2.4c0.3,0.3,0.1,1.2-0.1,1.7c-0.1,0.3-0.8,0.6-1.2,0.6
	c-1.8-0.5-3.8-0.2-5.6-0.9c-0.8-0.3-1.7-0.3-2.9-0.5c0.4,0.9,0.7,1.6,1,2.3c0.7,1.4,0.2,1.9-1.3,2.2c-0.8,0.2-1.7,1.3-2.1,2.2
	c-0.4,0.9-0.7,1.6-1.5,2.1c-0.3,0.2-0.4,0.8-0.6,1.2c0.6,0.3,1,0.5,1.4,0.7c1.2,0.4,1.7,0,1.9-1.3c0.3-2.7,2.8-4.3,5.5-3.6
	c0.4,0.1,0.7,0.6,1,1c1.2,2.1,1.2,4.3,0.1,6.3c-0.6,1.1-2,1.4-3.4,1.3c-2.5-0.2-3.9,1.8-3,4.2c0.1,0.3,0.5,0.6,0.7,0.6
	c1.6,0,2.5,1.1,3.4,2c0.7,0.6,1,0.6,1.4-0.1c0.5-0.9,1-1.8,1.5-2.8c0.6-1.1,1.3-1.2,2.4-0.6c0.7,0.4,1.7,0.5,2.2,1.1
	c0.5,0.5,0.6,1.4,0.6,2.2c0,0.8-0.7,1-1.4,0.9c-0.6-0.1-1.3-0.3-1.6-0.7c-0.7-0.9-0.9-0.3-1.1,0.2c-0.2,0.7-0.3,1.6-0.3,2.3
	c0,1-0.5,1.5-1.2,1.8c-0.7,0.3-1.3,0-1.8-0.6c-0.5-0.6-1.2-0.9-1.8-1.4c-1-0.8-1.3-0.1-1.4,0.6c0,0.7,0.3,1.5,0.6,2.2
	c0.1,0.4,0.4,0.9,0.6,1.3c0.4,0.8,0.2,1.7-0.4,1.9c-0.6,0.2-1.8-0.2-2-0.7c-0.7-1.4-1.7-2.3-3.1-2.9c-0.5-0.2-0.9-0.7-1.3-1
	c-0.8-0.5-3.7,0-4.3,0.7c-0.1,0.1-0.1,0.3-0.1,0.5c2.1,0.2,3.4,0.9,4.5,3c1,2,1,3.7,0.5,5.7c1.3-0.3,2.4-0.6,3.6-0.9
	c1-0.3,1.9-1,3.1-0.5c0.6,0.2,1.3,0.1,1.7-0.6c0.2-0.3,1-0.3,1.5-0.5c0.4,0.4,0.9,0.7,1.3,1.2c0.2,0.3,0.3,0.7,0.3,1
	c-0.2,2.2-1.1,4.1-2.3,5.9c-0.1,0.1,0,0.2,0,0.5c0.5-0.2,1.1-0.3,1.5-0.5c1.2-0.6,1.9-0.3,2.3,1c0.1,0.3,0.1,0.6,0.2,0.9
	c0.1,0.3,0.3,0.5,0.5,0.7c0.2-0.2,0.5-0.4,0.6-0.7c0.3-0.8,1.6-2.1,2.2-2c1.4,0.1,1.8,0.5,2.2,2.2c0,0.1,0,0.3,0.1,0.5
	c1.3,0.3,1.6-0.8,2-1.5c1.1-1.6,1.9-1.9,3.4-0.7c0.7,0.6,1.2,0.9,1.7-0.2c0.2-0.3,0.6-0.4,1-0.6c2.3,1,2.6,1.6,1.7,3.8
	c-0.6,0.2-1.2,0.4-1.8,0.5c-0.7,0.1-1.4,0.1-2.1-0.1c-1.6-0.5-2.4-0.3-3,1.2C325.2,273.3,325.1,274.2,325,275.1z M301.8,231.3
	c-0.1-0.2-0.1-0.3-0.2-0.5c1.6-0.9,3.2-1.8,5-2.9c-0.1-0.2-0.2-0.7-0.5-1.1c-0.5-0.6-1-1.1-1.7-1.9c-1.4,0.2-3,0.1-3.8,2.1
	c-0.2,0.4-0.7,0.8-1.1,1c-2.1,0.9-4.2,1.8-6.3,2.6c-0.7,0.3-1.6,0.1-2.3,0.4c-1.5,0.5-3,1-4.7,1c-1.4,0-2.8,0.5-4.2,0.7
	c-0.1,0-0.1,0.1-0.2,0.1c-2.3,1.5-4.5,3-6.8,4.6c-0.8,0.6-1.6,0.6-2.4,0.2c-2.2-1-4.5-1.3-6.7-0.3c-0.4,0.2-1,0.5-1.1,0.9
	c-0.6,1.7-1.9,2.5-3,3c-0.5,1.6-0.7,3.1-1.3,4.4c-0.4,1-0.9,1.8-0.5,2.9c0.4,0.9,0.8,1.4,2.2,1.4c1.5,0.1,3.1,0.8,4.8,0.6
	c0.2,0,0.4,0.2,0.6,0.2c0.7,0,1.5,0.2,2.1-0.1c1.5-0.7,2.9-1.8,4.4-2.5c1.6-0.7,3.3-0.9,5-0.2c0.8,0.3,1.8,0.9,2.5,0.7
	c1.4-0.4,2.7-1.2,4-1.9c0.8-0.4,1.5-1,2.3-1.3c1.6-0.6,3.2-1.1,4.9-1.7c0.1,0,0.3-0.1,0.4-0.2c0.7-0.6,1.3-1.2,2-1.7
	c1.8-1.2,3.5-2.4,6.2-2c-2-1.5-0.6-2.5,0-3.5c0.5-1,0.8-2.2,1.5-2.9c0.9-0.8,0.7-1.6,0.7-2.5C302.8,231.3,302.3,231.3,301.8,231.3z
	 M310.7,263.8c-1,0.4-1.9,0.4-2.2,0.9c-0.8,1.2-1.3,2.5-1.9,3.9c-0.1,0.1,0.4,0.6,0.6,0.7c0.4,0.1,1.2,0.2,1.4,0
	c0.9-1.2,1.7-2.5,2.5-3.9C311.1,264.9,310.8,264.3,310.7,263.8z M314.3,225.9c-0.4-0.9-0.3-1.5,0.6-1.8c0.1,0,0.1-0.6,0.2-0.9
	c-0.3,0-0.8-0.2-0.9-0.1c-0.3,0.3-0.5,0.7-0.6,1c-1.5,0.1-2.9,0.2-4.5,0.3c0.2,0.3,0.3,0.6,0.4,0.7
	C311,225.3,312.6,225.6,314.3,225.9z M307.6,230.8c0.1,0,0.3,0,0.4,0c0-0.6-0.1-1.1-0.2-1.7c0-0.1-0.4-0.1-0.6-0.2
	c0,0.4,0,0.9,0.1,1.3C307.5,230.4,307.6,230.6,307.6,230.8z"/>
<path d="M342.4,237.1c0.2-0.4,0.4-0.7,0.6-1.2c1.4,0.6,2.9,1,3.4,2.8c0.4,1.2,1.2,2.2,1.9,3.2c0.3,0.4,0.9,0.4,1.2,0.8
	c0.4,0.7,0.6,1.5,1.1,2.6c0.3-0.2,0.6-0.5,1.2-1c0.6,0,1.6,0,2.6,0c0.1,0.3,0.3,0.7,0.4,1c0.4,0.9-0.1,1.7-1.1,2
	c-0.5,0.1-1,0.3-1.3,0.7c-1.4,2-2.8,4-3.9,6.1c-0.4,0.7-0.2,1.8-0.2,2.8c0.1,0.1,0.2,0.2,0.3,0.3c0.6-0.3,1.2-0.7,1.7-1
	c1.7-1.1,3.2-0.2,4.8,0.6c1.4,0.7,2.9,1.1,4.4,1.6c0.4,0.1,0.8,0.3,1.1,0.6c1.1,1,1.8,0.8,2.2-0.6c0.3-1.2,1.6-2.1,2.9-2
	c0.8,0.1,1.7,0.1,2.5,0.2c0.9,0.1,1.2-0.2,1.1-1.2c-0.3-2.3-1.9-4-3.1-5.9c-0.5-0.9-1.4-1.6-1.8-2.5c-0.4-0.7-0.5-1.6-0.7-2.4
	c0.6-0.7,1.1-1.6,1.8-2.3c0.8-0.9,1.6-1.7,2.5-2.4c2-1.5,2.1-2.7,0.1-4.3c-0.5-0.4-1.1-0.7-1.6-1.2c-0.3-0.3-0.5-0.8-0.8-1.1
	c-0.5-0.5-0.9-1.2-1.5-1.5c-0.8-0.4-0.8-1.1-0.6-1.6c0.2-0.5,0.7-1.1,1.3-1.3c0.3-0.1,1.1,0.4,1.3,0.8c0.6,0.9,0.9,2,1.5,2.9
	c0.5,0.7,1.3,1.2,1.9,1.8c1,1.1,2.1,2.1,2.8,3.3c0.7,1.3,0.3,1.6-0.9,2.5c-1.9,1.2-3.9,2.5-4.8,4.6c-0.4,0.9,0,2.3,0.5,3.2
	c0.8,1.4,2.1,2.5,3,3.9c0.8,1.3,1.5,2.7,1.7,4.2c0.3,2.2-0.2,2.7-2.3,3.2c-0.6,0.1-1.2,0.3-1.9,0.3c-1.9,0-2.5,0.2-3.1,2.3
	c-0.3,1.2-0.7,2.5-1.1,3.7c-0.5,1.3-2,1.9-2.5,1c-0.4-0.7-0.7-1.8-0.5-2.5c0.5-1.8,0.2-2.9-1.5-3.5c-1.4-0.5-2.9-1.1-4.5-0.6
	c-0.4,0.1-1-0.2-1.3-0.5c-0.8-0.9-1.6-0.7-2.4-0.2c-0.9,0.5-1.8,1-2.7,1.3c-0.9,0.3-2-0.5-2.1-1.6c-0.3-2.8,0.3-5.4,1.9-7.8
	c0.1-0.1,0.3-0.3,0.3-0.4c0-1.6,0.1-3.3,0-4.9c0-0.3-0.3-0.5-0.5-0.8c-0.2-0.4-0.3-0.7-0.5-1.1c-0.3-0.8-0.5-1.7-0.8-2.5
	c-0.6-1.3-1.3-2.6-1.9-3.9C343.7,236.8,343.2,236.3,342.4,237.1z"/>
<path d="M328.4,216.4c0.4-1.7,0.9-2.1,2.2-1.4c1.5,0.7,2.6-0.5,4-0.6c0.8-0.1,1.8-0.1,1.9-1.3c0-0.1,0.5-0.2,0.7-0.2
	c1.3,0,2.6,0.1,3.8,0c1.5-0.2,2,0.8,2.5,1.8c0.1,0.2-0.1,0.9-0.3,1c-2,0.9-2.2,1.2-2.2,3.3c0,0.4-0.1,1.2-0.3,1.2
	c-0.6,0.1-1.4,0.2-2-0.1c-0.8-0.3-0.6-1.1-0.3-1.8c0.3-0.7,0.6-1.3,0.9-1.9c-0.2-0.1-0.3-0.2-0.3-0.2c-2.5,1.3-5.5,0.7-7.9,2.3
	c-0.9,0.6-1.3,1.4-1.1,2.4c0.2,1.4,0.2,1.6-1.2,1.8c-1.2,0.2-1.6-0.1-1.8-1.3c-0.4-2.9-1.5-5.5-3.1-8c-0.1-0.2-0.5-0.3-0.9-0.6
	c0.1,1.3,0.3,2.4,0.1,3.4c-0.3,1.4,0.5,3-0.6,4.3c-0.6,0.8-1.1,1.6-2.3,1.4c-0.2,0.5-0.3,1-0.4,1.4c-0.1,0-0.2,0-0.3-0.1
	c0.2-0.6,0.3-1.3,0.5-1.9c0.9,0.2,1.9-0.8,2-1.9c0.1-0.9,0.3-1.8,0.4-2.7c0-0.3-0.1-0.6-0.1-0.9c-0.4-1.4-0.7-2.7-0.8-4.1
	c-0.1-1.1-0.6-2.2-0.9-3.3c-0.2-0.6-0.3-1.3-0.4-1.9c1.9-0.3,2.2,0.2,3.4,1.7c1.8,2.3,2.4,5,3.9,7.4
	C327.6,215.9,328,216.1,328.4,216.4z"/>
<path d="M417.2,210.4c-2.2-1.3-4.5-1.3-6.9-1.1c-1,0.1-2,0.2-2.9,0.5c-0.7,0.2-1.3,0.8-2,1.2c-0.5,0.3-1,0.6-1.5,0.7
	c-1.8,0.3-3.5,0.6-5.4-0.2c-1.6-0.7-3.4-1-5.1-1.5c-2.1-0.5-4.1-1.2-6.2-1.4c-2.1-0.3-4.1,0-5.7,1.7c-0.5,0.6-1.3,0.9-1.4,1.9
	c-0.1,0.5-1.1,0.3-1.5-0.4c-0.6-0.9-0.3-2.2,0.7-2.9c1.5-0.9,3-1.7,4.5-2.5c0.2-0.1,0.4-0.3,0.6-0.4c0.6-0.2,1.3-0.6,1.8-0.4
	c3,0.7,5.9,1.5,8.8,2.3c1.3,0.4,2.5,1,3.7,1.4c2.3,0.8,4.4,0,6.5-1c1.4-0.7,3.1-1.1,4.7-1.3c1.9-0.2,3.9,0,5.8,0.2
	c0.7,0.1,1.7,0.5,2,1.1C418,208.8,418.1,209.8,417.2,210.4z"/>
<path d="M450,211.3c-0.7-0.1-1.4-0.2-2.1-0.4c-2.9-0.7-5.2,0.2-6.9,2.6c-0.5,0.7-2.1,0.7-3.3,0.1c-0.8-0.4-1.7-0.8-2.5-1.2
	c-0.2-0.1-0.3-0.3-0.5-0.5c-0.7-0.6-1.3-1.3-2-1.9c-0.3-0.2-0.9-0.1-1.3,0c-1.5,0.7-3,1.5-4.5,2.3c-1.2,0.6-2.4,1.3-3.6,1.8
	c-0.6,0.3-1.3,0.3-1.9,0.5c-0.3-1.7-0.1-2,1.2-2.6c1.8-0.8,3.6-1.8,5.3-2.6c1.3-0.6,2.5-1.3,3.9-1.7c0.7-0.2,1.7,0.2,2.4,0.7
	c1.4,0.8,2.6,1.9,3.9,2.8c0.3,0.2,0.9,0.1,1.3,0c0.5-0.2,1-0.6,1.4-1.1c1.3-1.4,3.3-1.4,4.9-2.2c0.3-0.1,0.8,0.1,1.2,0.3
	c0.8,0.3,1.6,0.6,2.4,0.8C450.5,209.3,450.5,210.1,450,211.3z"/>
<path d="M371.9,213.6c-0.6,0.2-1.2,0.5-1.9,0.6c-1.9,0.4-3.8,0.6-5.7,1c-1.3,0.3-2.6,0.2-3.9-0.2c-1.5-0.5-3.2,0.6-4.1,2
	c-0.3,0.4-0.9,0.7-1.3,0.8c-0.2,0-0.7-0.5-0.8-0.9c-0.3-0.8,0-1.5,0.5-2.2c0.9-1.2,2.5-1.3,3.6-2.2c0.3-0.2,0.9-0.1,1.4-0.1
	c1.8,0.2,3.5,0.3,5.4-0.1c1.7-0.3,3.6-0.4,5.3-0.9c1-0.3,1.9-0.7,2.4-1.9c0.4-1.1,0.9-2.4,2.4-2.7c0.9-0.2,1.9,0.1,2.1,1.1
	c0.1,0.4-0.5,0.9-0.8,1.4c-0.4,0.6-0.9,1.1-1.3,1.6c-0.7,0.9-1.4,1.9-2.1,2.8c-0.2,0.2-0.7,0.1-1,0.1
	C371.9,213.7,371.9,213.6,371.9,213.6z"/>
<path d="M337.2,243.9c-0.9,0.7-1.6,1.4-2.5,1.9c-0.7,0.3-1.6,0.5-2.3,0.3c-2.3-0.4-4.1-3.5-3-5.5c0.6-1,2-1.7,3.1-2.3
	c1.6-0.8,3.2-0.1,4.5,0.8c0.7,0.5,0.9,1.5,0.3,2.2C336.7,242.2,336.9,243.1,337.2,243.9z"/>
<path d="M451.9,215.5c-0.1-0.7-0.5-1.6-0.2-2.1c0.6-0.8,1.5-0.2,2.4,0c1.6,0.3,3.2,0.3,4.8,0.4c1.3,0,2.4,0.3,3.1,1.5
	c0.4,0.6,0.7,1.4,0.8,2.1c0.1,0.9,0.7,1.2,1.3,1.4c0.4,0.1,0.8,0.2,1.1,0.5c0.3,0.3,0.5,0.8,0.5,1.2c0,0.3-0.4,0.7-0.7,0.8
	c-2,1-2.9-0.1-3.8-2c-0.3-0.7-0.5-1.6-0.9-2.2c-0.3-0.5-1.1-0.8-1.7-0.9C456.4,215.9,454.2,215.7,451.9,215.5z"/>
<path class="st0" d="M301.8,231.3c0.5,0,1,0,1.5,0c0,0.9,0.2,1.7-0.7,2.5c-0.8,0.7-1,1.9-1.5,2.9c-0.6,1.1-2.1,2.1,0,3.5
	c-2.7-0.5-4.5,0.8-6.2,2c-0.7,0.5-1.3,1.1-2,1.7c-0.1,0.1-0.3,0.2-0.4,0.2c-1.6,0.5-3.3,1-4.9,1.7c-0.8,0.3-1.5,0.9-2.3,1.3
	c-1.3,0.7-2.6,1.5-4,1.9c-0.7,0.2-1.7-0.4-2.5-0.7c-1.7-0.7-3.4-0.6-5,0.2c-1.5,0.7-2.9,1.7-4.4,2.5c-0.6,0.3-1.4,0.1-2.1,0.1
	c-0.2,0-0.4-0.2-0.6-0.2c-1.7,0.1-3.2-0.6-4.8-0.6c-1.3-0.1-1.8-0.5-2.2-1.4c-0.4-1,0.1-1.9,0.5-2.9c0.5-1.3,0.8-2.8,1.3-4.4
	c1.1-0.5,2.5-1.3,3-3c0.1-0.4,0.7-0.7,1.1-0.9c2.3-1,4.5-0.7,6.7,0.3c0.9,0.4,1.6,0.3,2.4-0.2c2.2-1.6,4.5-3.1,6.8-4.6
	c0.1,0,0.1-0.1,0.2-0.1c1.4-0.3,2.8-0.7,4.2-0.7c1.7,0,3.1-0.4,4.7-1c0.7-0.2,1.6-0.1,2.3-0.4c2.1-0.8,4.3-1.7,6.3-2.6
	c0.4-0.2,0.9-0.6,1.1-1c0.7-2,2.4-1.9,3.8-2.1c0.7,0.7,1.2,1.3,1.7,1.9c0.3,0.4,0.4,0.9,0.5,1.1c-1.8,1-3.4,1.9-5,2.9
	C301.7,231,301.7,231.1,301.8,231.3z"/>
<path class="st0" d="M310.7,263.8c0.1,0.5,0.5,1.1,0.3,1.5c-0.7,1.4-1.6,2.7-2.5,3.9c-0.2,0.2-0.9,0.1-1.4,0
	c-0.3-0.1-0.7-0.5-0.6-0.7c0.6-1.3,1.1-2.7,1.9-3.9C308.8,264.2,309.7,264.1,310.7,263.8z"/>
<path class="st0" d="M314.3,225.9c-1.8-0.3-3.3-0.5-4.9-0.8c-0.1,0-0.2-0.3-0.4-0.7c1.6-0.1,3.1-0.2,4.5-0.3c0.2-0.3,0.3-0.8,0.6-1
	c0.1-0.1,0.6,0.1,0.9,0.1c0,0.3,0,0.9-0.2,0.9C314.1,224.4,314,224.9,314.3,225.9z"/>
<path class="st0" d="M307.6,230.8c-0.1-0.2-0.2-0.4-0.2-0.6c-0.1-0.4-0.1-0.9-0.1-1.3c0.2,0.1,0.6,0.1,0.6,0.2
	c0.1,0.6,0.1,1.1,0.2,1.7C307.9,230.8,307.8,230.8,307.6,230.8z"/>
<path class="st0" d="M219.4,286.9c1.8,0.4,3.4,0.5,4.4-1.4c0.2-0.4,0.3-1.1,0.2-1.6c-0.2-0.8-0.8-1.6-0.9-2.4
	c-0.2-1.4-1.3-2-2.2-2.8c-0.5-0.5-1.2-1-1.4-1.6c-0.1-0.5,0.3-1.2,0.6-1.8c0.2-0.3,0.4-0.7,0.7-0.9c0.8-0.5,0.9-1.1,0.7-2
	c-0.1-0.6,0-1.2,0.3-1.7c0.5-0.9,0.5-2.3-0.1-3.2c-1.1-1.7-2.2-3.4-3.2-5.2c-0.9-1.6-1.7-3.1-1.6-5.1c0.1-0.8-0.3-1.7-0.7-2.3
	c-0.9-1.1-2-2-3.2-2.8c-0.8-0.5-1.8-0.8-2.9-0.6c-1.1,0.2-2.6,0.6-3.4-0.9c-0.1-0.2-0.4-0.3-0.7-0.4c-0.9-0.3-1.8-0.5-2.7-0.7
	c0.1-0.4,0.4-0.9,0.3-1.2c-0.2-0.7-0.6-1.4-1.1-1.9c-0.5-0.4-1.2-0.6-1.7,0.3c-0.1,0.2-0.7,0.3-1,0.4c-1,0.1-2,0.1-2.9,0.3
	c-1.2,0.3-1.3,0.3-1.5-0.9c-0.3-1.6-0.5-3.2-1-4.7c-0.3-0.9-1.1-1.9-2-2.3c-2.8-1.3-5.4-0.1-7.6,1.7c-0.7,0.6-0.9,0.4-1.4,0
	c-0.3,0.2-0.6,0.3-0.9,0.5c-1.6,1.1-3.5,1.2-5.1,0.2c-1.3-0.8-2.7-0.4-3.5,1c-0.2,0.4-0.5,0.7-0.8,1c-1.1,1-1.2,3.1,0.1,4.3
	c0.4-0.8,0.8-1.5,1.1-2.3c0.6-1.3,1.6-1.8,2.9-1.3c1,0.4,2,0.9,2.6,1.1c1.6-0.2,2.5-1.9,3.8-0.3c0.1,0.2,0.8,0,1.1-0.2
	c0.4-0.3,0.9-0.8,1-1.3c0.3-0.9,0.9-0.9,1.5-0.9c0.3,0,0.7,0.1,1,0.2c0.1-0.3,0.3-0.5,0.3-0.7c0.2-0.7,0.6-1.1,1.4-0.9
	c0.7,0.1,1.4,0.1,1.7,1.1c0.2,0.9,0.8,1.7,1,2.5c0.3,1.1,0.5,2.2,0.8,3.4c0.2,0.8,0.3,1.6,0.6,2.2c0.1,0.3,0.8,0.5,1.2,0.5
	c1-0.3,2-0.8,3-1.1c1.1-0.2,2.3-0.2,3.5-0.3c0.2,2.1,0.1,2.3,2.1,2.5c1,0.2,1.5,0.6,1.9,1.5c0.2,0.6,1,1.1,1.6,1.2
	c0.7,0.1,1.4-0.3,2.1-0.5c2.1-0.8,4.9,1.3,4.8,3.6c0,0.9-0.1,1.8-0.1,2.7c0,0.9,0.4,1.7,1.3,2.1c0.2,0.1,0.4,0.4,0.5,0.6
	c0.4,0.8,0.9,1.5,1.3,2.3c0.6,1,1.1,1.9,1.7,2.9c0.1,0.2,0,0.4-0.1,0.6c-0.3,0.8-1.3,1.4-0.4,2.4c0.1,0.1-0.1,0.5-0.2,0.7
	c-0.6,0.9-1.2,1.8-1.7,2.8c-0.1,0.2-0.3,0.5-0.3,0.7c0.2,1.8,0.9,3.1,2.4,4.2c0.9,0.7,1.8,1.5,1.6,2.9c-1.7,0.2-3.3,0.4-5,0.4
	c-0.5,0-1.1-0.2-1.6-0.5c-0.7-0.4-1.1-1.9-0.7-2.3c-0.4-0.1-0.8,0-1.1-0.2c-0.9-0.5-1.1-0.1-1.2,0.8c-0.1,1.5,0.9,2.3,1.6,3.3
	c1.2,1.8,3.1,1.8,4.9,2.1C218,286.8,218.8,286.7,219.4,286.9z"/>
<path class="st0" d="M207.3,272c1.2,0.4,2.4,0.9,3.8,0.5c1.6-0.5,2.6-1.5,2.6-3.1c0-1.9-0.7-3.4-2.3-4.1c-1.2-0.6-2.5-1.8-4-0.5
	c-0.6,0.5-1,1.2-1.5,1.9C204.7,268.1,205.5,271.3,207.3,272z"/>
<path class="st0" d="M178.4,277.7c1.7,0.7,3.3,0.2,4.6-1.1c1.3-1.1,1.7-2.4,0.7-3.8c-1-1.4-2.3-2.4-4.2-2.5
	c-1.3-0.3-2.1,0.4-2.8,1.3C174.9,274.2,175.4,276.4,178.4,277.7z"/>
<path class="st0" d="M181.1,309.1c1,0.5,1.9,1.2,2.8,1.3c0.9,0.1,1.9-0.4,2.9-0.7c0,0.1,0.1,0.2,0.1,0.4c-0.2,0.2-0.5,0.5-0.7,0.7
	c-0.8,1-0.7,1.8,0.4,2.3c0.4,0.2,1,0,1.5-0.1c0.6-0.1,1.1,0,0.9,0.6c-0.5,1.2,0.3,1.7,1,2.3c0.3,0.3,0.5,0.6,0.7,0.9
	c0.4,0.6,0.8,1.1,1.1,1.7c0.3,0.6,0.7,1.3,0.8,1.9c0.1,0.6-0.1,1.2-0.2,1.7c-0.3,1.1-0.1,2.3-1.2,3.1c-0.2,0.1-0.2,0.9,0,1.2
	c0.3,0.5,0.7,0.9,1.2,1.1c2.3,1.2,2,2.7,1.5,5.1c-0.1,0.6,0.4,1.8,0.9,2c2.2,0.8,2.3,0.7,2.5,3.2c0.2,2.1,2.1,3.6,4.2,3.4
	c0.6-0.1,1.4-0.1,1.8,0.2c0.6,0.5,1.1,0.5,1.8,0.5c1,0,1.2-0.7,1.6-1.2c0.5-0.7,1-1.6,1.1-2.4c0.1-1.4-0.1-2.8-0.2-3.7
	c1.1-1.1,2-1.9,2.8-2.7c-0.1-0.1-0.4-0.4-0.3-0.5c0.3-0.8,0.9-1.6,1.1-2.4c0.2-0.7,0.1-1.6,0-2.3c-0.1-0.5-0.6-0.8-0.9-1.2
	c-1.1-1.3-2.1-2.6-3.3-3.8c-1-0.9-1.5-1.8-0.8-3c0.5-1,1.2-1.8,1.9-2.7c0.6-0.9,0.8-3,0.1-3.7c-0.6-0.7-1.4-1.2-2-1.9
	c-0.4-0.4-0.5-1-0.9-1.3c-0.9-0.5-1.1-1.2-1.3-2.2c-0.4-2.4-0.4-2.8-2.7-2.4c-0.3,0-0.8-0.3-0.8-0.5c-0.1-0.7,0-1.4,0-2.1l0.3-0.1
	c0.3,0.3,0.6,0.7,0.8,0.9c0.8,0.2,1.6,0.4,2.4,0.6c0.1-0.3,0.3-0.7,0.4-0.9c0.8-0.1,1.5,0,2.2-0.2c1.4-0.5,2.2-1.7,2.9-3
	c0.7-1.2,1.1-2.6,0.6-4c-0.3-0.9-0.7-1.7-1.1-2.6c-0.1-0.3-0.4-0.5-0.6-0.8c-0.7-0.8-1-1.6-0.5-2.8c0.6-1.3,0-3,1.1-4.3
	c0.3-0.3,0.1-1.5-0.2-1.7c-0.5-0.3-1.4-0.3-2.1-0.2c-0.6,0-1.2,0.3-1.9,0.5c-0.1-0.1-0.1-0.2-0.2-0.3c0.3-0.5,0.6-1,1-1.5
	c0.9-1.2,1.6-2.4,0.8-4c-0.4-0.9-1-1.5-1.8-1.1c-0.5,0.3-1.2,1.5-1,1.8c0.7,1.3,0,2-0.7,2.8c-0.8,1.1-1.1,2.3-0.3,3.7
	c0.6,1.2,1.7,0.7,2.5,1.3v2c-0.9-0.1-1.7-0.3-2.6-0.3c-0.9,0-1.8,0.1-2.8,0.1c0.2-0.8,0.5-1.4,0.5-2c0-1.3-1-1.7-2-2.1
	c-1.1-0.4-1.2-0.6-0.6-1.6c-1.3-1.4-1.9-1.7-2.9-1.1c-1.4,0.8-2.6,1.7-3.3,3.3c-0.3,0.7-0.5,1.3,0,1.9c0.5,0.6,1.1,0.6,1.8,0.3
	c0.4-0.2,0.8-0.3,1.2-0.4c0.6-0.1,1.3-0.3,1.9-0.3c0.5,0,1.1,0.3,0.5,1c-0.6,0.8-1.2,1.7-1.9,2.4c-0.8,0.8-1,1.4-0.3,2.4
	c0.6,0.9,1.2,0.7,2,0.2c0.3-0.2,0.6-0.4,0.9-0.5c1.1-0.6,2.4-1.2,3.4-0.4c1,0.7,1.6,0.4,2.1-0.1c0.7-0.8,1.3-0.5,2-0.2
	c1.5,0.7,1.6,2.1,0.3,3.1c-0.3,0.3-0.7,0.6-0.9,0.9c-0.7,1.4-1.4,2.8-2.2,4.2c-1-0.5-2.2-1.1-3.3-1.6c-2.2-0.9-4.4-1.9-6.6-2.7
	c-0.3-0.1-0.7-0.1-1,0c-1.2,0.4-2.3,1-3.5,1.2c-1,0.2-1.6,0.6-1.9,1.6c1.1,1.2,2.2,2.5,3.3,3.8c1.2,1.4,2.3,2.9,3.5,4.2
	c0.5,0.5,1.2,0.8,1.8,1.2c0.9,1.6,0.9,1.6-1,2.3c-0.5,0.2-0.9,0.4-1.4,0.5c-0.4,0.1-0.8,0-1.2,0.1c0-0.3,0-0.7,0-1
	c0.2-0.9-0.6-1.3-1-1.8c-0.2-0.2-0.8-0.3-1-0.1c-1,0.8-2,0.5-2.9,0.1c0.1-0.8,0.2-1.6,0.3-2.2c-1.6-0.2-3-0.4-4.6-0.6
	c0.3-0.5,0.4-0.9,0.7-1.3c0.8-1.1,0.7-1.8-0.6-2.1c-1.7-0.4-3.4-0.5-5.2-0.7c-1.3-0.1-2.6,0.1-3.8-0.1c-1.4-0.2-2,0.3-1.5,1.7
	c0.3,1.1,1.7,1.5,2.9,0.9c0.2-0.1,0.5-0.3,0.7-0.3c1.1,0.1,2.1,0.2,3.2,0.3c0.4,0.8-0.1,1.1-0.7,1.4c-1,0.4-1.2,1.1-0.8,2.1
	c0.4,1.1,1.1,1,2.1,0.7c1.1-0.3,2.2-0.4,3.4-0.4c0.6,0,1,0.4,0.4,1.1C182,307.8,181.6,308.3,181.1,309.1z"/>
<path class="st0" d="M135.4,306.2c-0.4,3-0.4,3.9,2.2,5.8c0.9,0.7,2.2,1.1,1.9,3c-0.2,1.4,1,2.9,2.4,3.8c1,0.7,2,1.5,2,3
	c0,2.2,0.6,4.1,3,5c0.8,0.3,1.4,0.8,2,1.4c1,0.9,1.7,0.9,2.6-0.2c0.5-0.6,1-1.2,1.5-1.8c0.7,0.4,1.7,0.6,1.9,1.1
	c0.9,1.7,1.6,3.4,1.8,5.4c0.2,2.1,0.3,4.2,0.9,6.3c0.6,1.8,1.7,3,3.3,3.9c0.5,0.3,1.1,0.6,1.5,1.1c0.3,0.3,0.6,0.9,0.5,1.3
	c-0.8,2.6,1,3.9,2.6,5.3c0.4,0.4,0.7,0.8,1.1,1.1c0.9,0.7,1.7,1.6,2.7,2c1.4,0.6,3,0.9,4.5,1.2c0.9,0.1,2,0.1,2.7-0.4
	c1.6-0.9,2.5-2.5,2.4-4.4c-0.1-1.3,0.3-2.4,1.4-3.1c0.3-0.2,0.4-0.5,0.6-0.9c0.6-1.4,0.2-2.6-0.8-3.6c-0.5-0.5-1.4-1.4-1.2-1.6
	c0.5-0.9,0.2-1.7,0.1-2.5c-0.1-1.1,0.2-2.7-1.6-3c-0.1,0-0.2-0.2-0.3-0.3c-0.9-0.7-1.8-1.5-2.9-2.1c-1.1-0.6-1.5-1.5-1.2-2.7
	c0.4-1.2,1-2.5-0.2-3.8c-0.5-0.5-0.7-1.1-1.2-1.6c-1.7-1.5-2.4-3.2-1.8-5.6c0.3-1.1,0.5-2.4-0.4-3.4c-1.4-1.5-2.9-2.9-4.4-4.3
	c-0.6-0.6-0.8-1.2-0.5-1.9c0.5-1.2-0.2-1.9-1.1-2.4c-0.7-0.4-1.6-0.5-2.2-1.1c-0.5-0.4-0.8-1.2-0.8-1.8c0-0.4,0.7-1.1,1.1-1.1
	c0.6,0,1.3,0.4,1.8,0.8c0.5,0.5,2.1,0.9,2.6,0.4c1.2-1,2.3-2.1,3.5-3.1c-1.2-1.5,0.8-1.8,0.8-2.7c-0.8,0.6-1.6,1.2-2.5,1.7
	c-0.9,0.6-1.8,1.1-2.8,1.6c-0.9,0.4-1.3,0.1-1.3-0.9c-0.1-0.8-0.5-1.2-1.3-1.4c-1.4-0.4-2.7,0-4,0.5c-1.1,0.5-1.9,0.1-2.3-1
	c-0.1-0.4-0.3-0.8-0.5-1.1c-1.9,0.5-2.8,1.2-2.5,2.2c0.2,1.1,1.1,1.9,2.3,2.1c0.8,0.2,1.6,0.6,2.3,0.9c0.1,0.5,0,1,0.2,1.4
	c0.6,1.2,1.2,2.5,1.8,3.7c0.4,0.9,0.6,1.9,1.2,2.6c1.3,1.5,2.7,3.1,4.4,4.2c1.6,1.1,2.1,2.4,1.8,4.1c-0.3,1.8-0.4,3.5,0.6,5.2
	c0.3,0.6,0.4,1,1.2,1.3c1.4,0.6,1.8,2.2,1.2,3.6c-0.3,0.7-0.6,1.4-0.8,2.1c-0.2,0.8-0.2,1.7,0.8,2.2c1,0.5,1.8,1.3,2.7,1.9
	c0.1,0.1,0.4,0.2,0.6,0.1c1.1-0.3,1.6,0.5,1.9,1.3c0.3,0.8,0.6,1.7,0.5,2.4c-0.2,1.3,0.3,3,1.4,3.7c0.9,0.5,1,1.8,0.3,2.6
	c-0.4,0.5-0.7,1-1.1,1.6c-0.2,0.3-0.4,0.6-0.7,0.7c-0.9,0.6-1.1,1.4-0.6,2.3c0.2,0.3,0.4,1,0.3,1.1c-0.4,0.4-1,0.8-1.5,0.8
	c-1,0-1.9-0.3-2.9-0.4c-0.8-0.1-1.1-0.5-1.3-1.3c-0.2-1.1-0.7-1.8-1.9-2.2c-1.7-0.5-2.4-1.8-2.3-3.7c0.1-1.9-0.6-2.8-2.4-3.2
	c-1.1-0.3-3-2.5-3.1-3.6c-0.2-1.8-0.3-3.6-0.5-5.4c-0.1-0.9-0.2-1.7-0.5-2.5c-0.6-1.8-1.1-3.6-2.9-4.8c-0.9-0.6-1.7-1.5-2.9-2.6
	c-0.8-0.2-1.7,0.3-2.5,1.2c-0.5,0.5,0,1.8-1.1,1.6c-0.6-0.1-1.2-0.8-1.7-1.2c-0.7-0.6-1.5-1.1-0.8-2.4c0.3-0.5,0.3-2.1-1.2-2.5
	c-0.2,0-0.4-0.4-0.5-0.6c-0.6-0.8-1.3-1.6-1.9-2.5c-0.6-0.8-1.3-1.6-0.1-2.6c0.6-0.5,0.6-1.5-0.2-2c-0.8-0.5-1.7-0.7-2.5-1.1
	c-1.7-0.8-2.6-1.8-2.5-3.2c0-0.7,0-1.5,0-2.2c-0.1-2.1-1-3.7-3.1-4.5c-0.5-0.2-0.8-0.9-1.3-1.2c-0.3-0.3-0.7-0.6-1.1-0.6
	c-1.6-0.2-1.9-0.6-1.1-2c0.8-1.5,0.6-2.4-0.6-3.3c-0.4-0.3-0.6-0.7-0.9-1c-0.8-0.8-1.5-1.5-2.3-2.3c-0.3-0.3-0.6-0.5-0.8-0.8
	c-0.7-1.2-1.3-2.4-2.1-3.5c-0.8-1.2-2.3-1.4-3.5-0.5c-0.2,0.1-0.8,0.1-0.9,0c-0.6-0.5-1-1.2-1.5-1.8c-0.7-0.9-0.9-1.7-0.3-2.8
	c0.7-1.2,1.4-2.4,1.8-3.7c0.5-1.5,0.7-3,1-4.6c0.2,0,0.6,0,0.7-0.1c0.7-1,1.1-2,1.8-2.6c1.1-1,1.7-2.3,2.4-3.5
	c0.2-0.4,0.3-0.9,0.6-1.2c1.3-1.2,2.1-2.6,2.9-4.2c0.4-0.9,0.4-1.4-0.4-2.1c-0.6-0.5-1.2-1.2-1.4-1.9c-0.4-1.1-1.1-1.7-2.1-2.1
	c-0.9-0.4-1.8-0.7-2.9-1c0.3-0.4,0.8-0.7,0.8-1.1c0.1-0.8,0.2-1.6,0-2.3c-0.4-1.3-1.6-0.1-2.4-0.5c-0.2,0.4-0.4,0.9-0.6,1.3
	c-0.3,0.6-0.6,1.2-1,1.7c-0.3,0.5-1.1,1-1,1.4c0.1,0.5,0.8,1,1.3,1.2c1.1,0.4,2.4,0.6,3.5,1c0.5,0.2,1,0.6,1.3,1.1
	c0.5,0.9,0.9,1.9,2,2.3c0.2,0.1,0.3,0.8,0.2,1c-0.7,0.9-1.6,1.6-2.3,2.4c-0.6,0.6-1.1,1.1-1.3,2c-0.3,1.2-1.1,2.3-1.7,3.4
	c-0.8,1.2-2,2-3.3,2.7c-1,0.5-1.1,1.5-0.5,2.4c0.2,0.2,0.3,0.6,0.3,0.8c-0.2,0.7-0.4,1.4-0.7,2c-0.5,1.4-1.1,2.7-1.6,4.1
	c-0.3,1-0.5,2,0.2,2.9c0.6,0.8,1.2,1.6,1.6,2.5c0.9,1.8,1.4,3.6-0.2,5.2c-1.6,1.8-2,4.1-2.9,6.2c-0.2,0.4-0.2,1.1,0,1.5
	c0.4,0.9,0,1.4-0.5,1.9c-0.4,0.3-0.7,0.7-1.1,0.9c-0.4,0.3-0.9,0.6-1.4,0.6c-0.7,0.1-1.4,0-2.1,0c-0.3-1.2-1-1.8-2.1-2
	c-0.8-0.2-1.6-0.6-1.1-1.6c0.6-1.2,0.6-2.4,0.4-3.8c-0.3-1.7-0.1-3.6,0-5.3c0-0.3,0.1-0.8,0.3-1c0.7-0.8,0.1-1.3-0.4-1.5
	c-0.9-0.4-1-1.1-0.8-1.9c0.3-1.4-0.4-2.4-1.1-3.5c-0.3-0.4-0.7-1-1.1-1.1c-1.3-0.4-2.5-2-2.4-3.3c0-0.7-0.2-1.3-0.3-2
	c0-0.4,0.1-0.8,0.2-1.3c0.1-0.6,0.2-1.2,0.2-1.9c0-0.6,0.1-1.2,0-1.8c-0.3-1.6-0.6-3.1-1-4.6c-0.1-0.2-0.2-0.5-0.4-0.6
	c-1.1-0.6-2-1.5-2.7-2.6c-0.2-0.3-0.8-0.4-0.9-0.7c-0.4-1.2-1.1-2.4-0.5-3.9c0.1-0.2-0.5-0.8-0.8-1.1c-0.1-0.2-0.5-0.2-0.8-0.2
	c0.4-0.4,0.8-0.8,1-1.2c0.7-1.4-0.1-2.4-0.9-3.3c-0.6-0.7-1.2-1.4-1-2.4c0.2-1.1,0.5-2.2,0.9-3.2c0.1-0.3,0.7-0.5,1.1-0.7
	c0.4-0.2,1.2-0.5,1.2-0.6c-0.3-1.8,0.4-2.9,1.8-3.9c0.7-0.5,0.9-1.5,1.5-2.1c1.1-1.1,0.7-3.7-0.8-4.4c-1.5-0.6-1.5-0.6-0.7-2.1
	c0.2-0.5,0.5-1.1-0.3-1.3c-1.8-0.5-3.5-1.2-5.4-0.8c-0.8,0.2-1.6,0.2-2.5,0.3c-1,0.1-1.8-0.4-2.2-1.3c-0.2-0.5-0.2-1.5,0.2-1.9
	c0.7-0.7,1.5-1.6,2.8-1c1,0.4,2.1-0.1,2.1-1.1c0-0.6-0.7-1.1-0.9-1.7c-0.3-0.7-0.8-1.5-0.7-2c0.4-1.2,1-2.4,2.4-2.8
	c2.2-0.6,3.9-0.6,5.2,1.6c0.4,0.7,1,1.4,2,1c0.6-0.2,1.2-0.5,1.8-0.7c1.6-0.4,2-0.1,2.1,1.6c0,0.5,0.2,1,0.5,1.4
	c0.5,0.7,0.3,1.3-0.5,1.7c-1.5,0.6-1.8,1.1-1.1,2.6c0.3,0.6,0.9,1.2,1.5,1.3c0.8,0.2,0.6-0.8,0.9-1.2c0.3-0.4,0.6-0.9,1-1.1
	c1.1-0.5,2.4-0.6,3.3-1.3c1.8-1.3,3.6-0.6,5.4-0.6c0.6,0,1.3,0.1,1.8,0.4c1.1,0.7,2.1,1.7,3.2,2.4c1,0.7,2,1.3,3.4,0.6
	c1.8-0.8,3.7-1.4,5.5-2.3c1.8-0.9,3.6-0.8,5.4-0.8c0.8,0,1.4,0.3,1.7,1.4c0.3,1.1,1,2.2,1.8,3.1c0.3,0.4,1.2,0.3,1.8,0.3
	c0.5,0,1.1-0.4,1.6-0.5c1,0,2,0.1,3,0.1c2.1,0,3,0.8,3.1,2.8c0.1,2,0.5,3.9,1.9,5.5c1.2,1.4,2.4,2.8,3.2,4.4c0.6,1.2,1.4,2,2.4,2.9
	c0.6,0.6,1.1,1.4,1.5,2.1c0.5,1.2-0.9,1.2-1.3,2c-0.1,0.3-0.2,0.6-0.4,0.7c-0.2,0.1-0.6,0.2-0.8,0.1c-1.3-0.7-2.4-0.6-3.3,0.4
	c-1.9,2.3-3.8,4.6-4.7,7.5c-0.1,0.2-0.4,0.4-0.6,0.6c-0.4,0.4-1,0.7-1.2,1.2c-0.4,0.8-0.5,1.6-0.8,2.4c-1.2,3.2,0,5,3.2,5.2
	c0.7,0.1,1.4,0.3,2,0.6c0.7,0.2,0.9,0.6,0.6,1.4c-0.4,1.1-0.8,2.2-0.8,3.3c-0.1,2,1.5,3,3,3.5c1.5,0.5,3.2,0.7,4.9,0.7
	c1.6,0,2.6,0.5,3.3,2c0.3,0.7,1.1,1.4,2.1,1.1c0.9-0.3,1.7-0.8,2.5-1.3c0.5-0.3,0.8-0.8,1.3-1c2.8-1.4,4-3.8,4.4-6.7
	c0.1-0.5,0.2-1,0.1-1.5c-0.5-1.6-2.1-2.2-3.1-3.4c0.5-1.5,0.8-1.7,2.2-0.8c0.7,0.5,1.2,0.1,1.8-0.2c0.7-0.4,1.4-0.7,2.2-1
	c0.9-0.3,1.8-0.6,2.6-0.9c0.8-0.3,1.6-0.6,1.2-1.7c0-0.1,0.2-0.3,0.4-0.5c-1.4-0.3-2.6-0.4-3.8,0.5c-0.8,0.6-1.5,0.7-2.4,0.4
	c-0.6-0.2-1.2-0.5-1.8-0.4c-1.8,0.3-3.3,1.4-4.6,2.7c-0.8,0.8-1.1,1.8-0.4,2.8c0.6,0.8,1.3,1.6,2.1,2.3c0.8,0.8,1,2,0.5,2.8
	c-0.2,0.4-1.5,0.1-2.2,0.2c-0.1,0-0.2,0-0.1,0c-0.5,0.7-1,1.2-1.5,1.9c0.1,0.1,0.1,0.4,0.3,0.6c0.8,0.9,0.3,1.7-0.4,2.1
	c-0.5,0.3-1.5,0.3-2,0.1c-0.6-0.3-1-1-1.3-1.7c-0.6-1.1-2.5-1.8-3.6-1.1c-1.1,0.7-1.7,0.5-2-0.4c-1,0.1-2,0.1-3.2,0.2
	c0.2-1.1,0.2-2,0.5-2.8c0.2-0.7,0.7-1.3,1.1-1.9c0.8-1.1-0.2-2.9-2-3.3c-1.6-0.4-3.1-0.8-4.6-1.1c-0.2-2.3-0.2-2.2,1.9-2.8
	c0.8-0.2,1.3-0.7,1.1-1.7c-0.2-0.8-0.1-1.7,0.2-2.4c0.6-1.5,1.5-2.8,2.3-4.2c0.3-0.5,0.9-0.8,1.3-1.2c0.3,0.4,0.6,0.8,0.8,1.3
	c0.1,0.1,0,0.2,0.1,0.3c0.5,0.8,1.2,1.3,2.2,1c0.9-0.3,1.2-0.9,1.1-1.8c-0.2-1.1,0.2-1.9,1-2.7c0.3-0.3,0.7-0.7,1-1
	c0.9-1.1,1.1-1.1,2.1-0.2c1.8,1.5,3.1,1.8,4.5,0.7c0.4-0.3,0.8-0.7,0.8-1.1c0-0.3-0.6-0.6-1-0.8c-0.9-0.5-1.8-0.9-2.7-1.3
	c-1.1-0.5-2.1-1.2-3.2-1.2c-1.8,0-2.5-0.5-2.6-2.2c0-1.3-0.3-2.4-1.7-2.9c-0.6-0.2-1.1-0.9-1.6-1.2c-1.7-1-2-2.8-2.6-4.4
	c-0.6-1.7-0.9-3.4-1.5-5.1c-0.5-1.4-3.7-3-5.2-2.8c-1.4,0.2-2.8,0.3-4.2,0.4c-0.7-1.3-1.3-2.4-2-3.5c-0.4-0.6-1-1.3-1.5-1.4
	c-1.8-0.1-3.6-0.7-5.3,0.4c-0.2,0.1-0.4,0.1-0.5,0.2c-1.9,0.7-3.8,1.3-5.7,2.1c-1.4,0.6-3.3,0.6-4.2-0.9c-0.1-0.2-0.4-0.3-0.7-0.4
	c-2.2-0.7-4.3-1.3-6.5-1.9c-1.6-0.5-3.1-0.3-4.6,0.5c-0.4,0.2-1,0.2-1.5,0.3c-0.3-1.2-0.5-2.4-0.8-3.5c-0.3-1.1-1.9-2.2-3-2.1
	c-0.8,0.1-1.6,0.4-2.4,0.4c-0.5,0-1-0.1-1.4-0.4c-1.3-1.2-2.7-2-4.5-2c-2.4,0-4.4,0.9-5.8,2.9c-0.7,1-1.9,1.7-1.6,3.3
	c0.3,1.8,0.2,1.9-1.2,2.3c-0.6,0.9-1.1,1.6-1.6,2.2c-0.9,1-1,3.1,0,4.1c0.5,0.5,1.3,0.8,1.6,1.3c0.7,1.4,1.7,1.6,3,1.5
	c0.9-0.1,1.9,0,2.8,0c0.4,0,0.8,0.1,1.2,0.2c0.7,0.1,1.4,0.1,2.1,0.1c0.4,0,0.7,0,1.4-0.1c-0.4,0.6-0.7,0.9-0.9,1.3
	c-0.2,0.4-0.5,1.2-0.3,1.3c1.4,1,0.1,1.7-0.2,2.4c-0.7,1.5-2.3,2.2-2.9,3.9c-0.4,1.3-1.6,2.4-2.2,3.6c-1.3,2.5-1.4,5,0.5,7.4
	c0.8,1,1,2.2,0.3,3.4c-0.3,0.5-0.5,1.3-0.3,1.8c0.5,1.3,1.1,2.5,1.9,3.7c1,1.5,2.5,2.7,2.3,4.5c0.4,0.4,0.7,0.6,0.9,0.8
	c1.8,1.4,1.6,3.4,1.4,5.4c-0.2,1.8-0.6,3.6,0.2,5.4c0.6,1.3,1.1,2.5,2.5,3.4c0.8,0.5,1.6,1.3,1.8,2.1c0.4,1.6,0.5,3.3,0.6,5
	c0.2,1.8,0.2,3.6,0.5,5.4c0.2,1.4,0.1,2.7-0.4,3.9c-0.6,1.4-0.4,2,0.9,2.9c0.6,0.5,1.4,0.9,1.7,1.6c0.8,1.5,2,2.3,3.6,3
	c2,0.9,3.2,0.6,4.6-1.2c0.9-1.1,1.8-2.1,2.9-3c1-0.9,1.2-1.4,0.6-2.7c-0.5-1,0-2.4,0.7-3.2c0.7-0.9,1.4-1.9,1.8-3
	c0.4-1.3,0.5-2.8,0.8-4.1c0.1-0.4,0.7-0.7,1.1-0.9c0.2-0.1,0.6,0.4,0.8,0.7c0.4,0.6,0.5,1.5,1,1.9c1.4,1.3,2.9,2.5,4.2,3.8
	c0.3,0.3,1.3,0.9,0.3,1.9c-0.6,0.6-1.1,1.9-0.3,2.8c0.8,0.9,1.2,2.2,2.6,2.6c0.7,0.2,1.3,0.9,1.9,1.4c0.2,0.2,0.5,0.4,0.8,0.4
	C135.1,303.6,135.6,304.6,135.4,306.2z"/>
<path d="M122.1,272.5c-0.1,0-0.5,0-0.7,0.1c-0.3,1.6-0.5,3.2-1,4.6c-0.4,1.3-1.1,2.5-1.8,3.7c-0.6,1.1-0.4,1.9,0.3,2.8
	c0.5,0.6,1,1.3,1.5,1.8c0.2,0.2,0.7,0.2,0.9,0c1.2-0.8,2.7-0.7,3.5,0.5c0.8,1.1,1.4,2.3,2.1,3.5c0.2,0.3,0.5,0.6,0.8,0.8
	c0.8,0.8,1.5,1.5,2.3,2.3c0.3,0.3,0.6,0.7,0.9,1c1.2,0.9,1.4,1.9,0.6,3.3c-0.8,1.4-0.5,1.8,1.1,2c0.4,0,0.7,0.3,1.1,0.6
	c0.5,0.4,0.8,1.1,1.3,1.2c2.2,0.7,3,2.3,3.1,4.5c0,0.7,0,1.5,0,2.2c-0.1,1.4,0.7,2.5,2.5,3.2c0.8,0.4,1.7,0.6,2.5,1.1
	c0.8,0.5,0.8,1.5,0.2,2c-1.2,1-0.5,1.8,0.1,2.6c0.6,0.8,1.3,1.6,1.9,2.5c0.2,0.2,0.3,0.6,0.5,0.6c1.5,0.3,1.4,1.9,1.2,2.5
	c-0.6,1.3,0.1,1.8,0.8,2.4c0.5,0.5,1.1,1.1,1.7,1.2c1.1,0.2,0.7-1.1,1.1-1.6c0.8-0.9,1.7-1.4,2.5-1.2c1.2,1.1,1.9,2,2.9,2.6
	c1.8,1.2,2.3,3,2.9,4.8c0.3,0.8,0.4,1.7,0.5,2.5c0.2,1.8,0.3,3.6,0.5,5.4c0.1,1.1,2,3.3,3.1,3.6c1.8,0.4,2.5,1.3,2.4,3.2
	c-0.1,1.9,0.7,3.2,2.3,3.7c1.2,0.3,1.7,1.1,1.9,2.2c0.2,0.8,0.5,1.2,1.3,1.3c1,0.1,1.9,0.4,2.9,0.4c0.5,0,1.1-0.4,1.5-0.8
	c0.1-0.1-0.1-0.8-0.3-1.1c-0.5-0.9-0.3-1.7,0.6-2.3c0.3-0.2,0.5-0.5,0.7-0.7c0.4-0.5,0.7-1.1,1.1-1.6c0.7-0.8,0.6-2.1-0.3-2.6
	c-1.1-0.7-1.7-2.4-1.4-3.7c0.1-0.8-0.2-1.6-0.5-2.4c-0.3-0.8-0.8-1.6-1.9-1.3c-0.2,0-0.4,0-0.6-0.1c-0.9-0.6-1.8-1.4-2.7-1.9
	c-1-0.6-1-1.4-0.8-2.2c0.1-0.7,0.5-1.4,0.8-2.1c0.6-1.4,0.2-3-1.2-3.6c-0.7-0.3-0.8-0.8-1.2-1.3c-1.1-1.7-0.9-3.4-0.6-5.2
	c0.3-1.7-0.2-3-1.8-4.1c-1.7-1.1-3-2.7-4.4-4.2c-0.6-0.7-0.8-1.8-1.2-2.6c-0.6-1.2-1.2-2.4-1.8-3.7c-0.2-0.4-0.2-1-0.2-1.4
	c-0.7-0.3-1.5-0.7-2.3-0.9c-1.3-0.2-2.1-1-2.3-2.1c-0.2-1.1,0.6-1.7,2.5-2.2c0.2,0.4,0.4,0.7,0.5,1.1c0.4,1.1,1.1,1.5,2.3,1
	c1.3-0.5,2.6-0.9,4-0.5c0.8,0.2,1.2,0.6,1.3,1.4c0.1,1,0.4,1.3,1.3,0.9c1-0.4,1.9-1,2.8-1.6c0.8-0.5,1.6-1.2,2.5-1.7
	c0,0.9-2,1.2-0.8,2.7c-1.1,1-2.3,2.1-3.5,3.1c-0.5,0.5-2.1,0-2.6-0.4c-0.5-0.4-1.2-0.8-1.8-0.8c-0.4,0-1.1,0.7-1.1,1.1
	c0,0.6,0.4,1.4,0.8,1.8c0.6,0.5,1.5,0.7,2.2,1.1c0.9,0.5,1.5,1.2,1.1,2.4c-0.3,0.7-0.1,1.3,0.5,1.9c1.5,1.4,2.9,2.9,4.4,4.3
	c1,1,0.7,2.4,0.4,3.4c-0.6,2.3,0.1,4,1.8,5.6c0.5,0.4,0.7,1.1,1.2,1.6c1.2,1.2,0.5,2.5,0.2,3.8c-0.4,1.3,0,2.1,1.2,2.7
	c1,0.5,1.9,1.4,2.9,2.1c0.1,0.1,0.2,0.3,0.3,0.3c1.8,0.3,1.5,1.8,1.6,3c0.1,0.8,0.5,1.6-0.1,2.5c-0.1,0.2,0.7,1.1,1.2,1.6
	c1.1,1.1,1.4,2.2,0.8,3.6c-0.1,0.3-0.3,0.7-0.6,0.9c-1.1,0.8-1.4,1.8-1.4,3.1c0.1,1.9-0.8,3.5-2.4,4.4c-0.7,0.4-1.8,0.5-2.7,0.4
	c-1.5-0.2-3.1-0.6-4.5-1.2c-1-0.4-1.8-1.3-2.7-2c-0.4-0.3-0.7-0.8-1.1-1.1c-1.6-1.4-3.4-2.7-2.6-5.3c0.1-0.4-0.2-1-0.5-1.3
	c-0.4-0.5-1-0.8-1.5-1.1c-1.6-0.9-2.7-2.1-3.3-3.9c-0.7-2-0.8-4.2-0.9-6.3c-0.1-1.9-0.9-3.7-1.8-5.4c-0.3-0.5-1.2-0.7-1.9-1.1
	c-0.5,0.6-1,1.2-1.5,1.8c-0.9,1.1-1.6,1.1-2.6,0.2c-0.6-0.5-1.3-1.1-2-1.4c-2.4-0.8-3-2.8-3-5c0-1.5-1-2.3-2-3
	c-1.4-1-2.6-2.5-2.4-3.8c0.3-1.9-1-2.4-1.9-3c-2.6-1.9-2.7-2.8-2.2-5.8c0.2-1.6-0.3-2.6-1.8-2.8c-0.3,0-0.6-0.2-0.8-0.4
	c-0.6-0.5-1.2-1.2-1.9-1.4c-1.4-0.4-1.8-1.7-2.6-2.6c-0.8-0.9-0.2-2.2,0.3-2.8c1-1-0.1-1.6-0.3-1.9c-1.3-1.4-2.9-2.5-4.2-3.8
	c-0.5-0.5-0.6-1.3-1-1.9c-0.2-0.3-0.6-0.8-0.8-0.7c-0.4,0.1-1,0.5-1.1,0.9c-0.4,1.4-0.4,2.8-0.8,4.1c-0.4,1.1-1,2.1-1.8,3
	c-0.7,0.8-1.1,2.3-0.7,3.2c0.6,1.3,0.5,1.8-0.6,2.7c-1,0.9-2,1.9-2.9,3c-1.4,1.8-2.6,2-4.6,1.2c-1.6-0.6-2.8-1.5-3.6-3
	c-0.4-0.6-1.1-1.1-1.7-1.6c-1.3-0.9-1.5-1.5-0.9-2.9c0.5-1.3,0.6-2.5,0.4-3.9c-0.3-1.8-0.3-3.6-0.5-5.4c-0.2-1.7-0.2-3.4-0.6-5
	c-0.2-0.8-1.1-1.6-1.8-2.1c-1.3-0.8-1.8-2.1-2.5-3.4c-0.9-1.8-0.4-3.6-0.2-5.4c0.2-1.9,0.4-3.9-1.4-5.4c-0.3-0.2-0.5-0.5-0.9-0.8
	c0.2-1.8-1.3-3-2.3-4.5c-0.8-1.1-1.4-2.4-1.9-3.7c-0.2-0.5,0-1.3,0.3-1.8c0.6-1.3,0.4-2.5-0.3-3.4c-1.9-2.4-1.8-4.8-0.5-7.4
	c0.7-1.3,1.8-2.3,2.2-3.6c0.5-1.7,2.2-2.4,2.9-3.9c0.3-0.7,1.6-1.4,0.2-2.4c-0.1-0.1,0.1-0.9,0.3-1.3c0.2-0.4,0.5-0.7,0.9-1.3
	c-0.7,0-1.1,0.1-1.4,0.1c-0.7,0-1.4-0.1-2.1-0.1c-0.4,0-0.8-0.2-1.2-0.2c-0.9,0-1.9,0-2.8,0c-1.3,0.1-2.4-0.1-3-1.5
	c-0.3-0.6-1.1-0.8-1.6-1.3c-1-0.9-1-3.1,0-4.1c0.5-0.6,1-1.3,1.6-2.2c1.4-0.3,1.5-0.5,1.2-2.3c-0.3-1.6,0.9-2.3,1.6-3.3
	c1.4-1.9,3.4-2.9,5.8-2.9c1.8,0,3.2,0.8,4.5,2c0.3,0.3,0.9,0.4,1.4,0.4c0.8,0,1.6-0.3,2.4-0.4c1.1-0.2,2.7,0.9,3,2.1
	c0.3,1.1,0.5,2.2,0.8,3.5c0.6-0.1,1.1-0.1,1.5-0.3c1.5-0.8,3-1,4.6-0.5c2.2,0.7,4.3,1.3,6.5,1.9c0.3,0.1,0.6,0.2,0.7,0.4
	c0.9,1.5,2.8,1.5,4.2,0.9c1.9-0.8,3.8-1.4,5.7-2.1c0.2-0.1,0.4-0.1,0.5-0.2c1.7-1.1,3.5-0.5,5.3-0.4c0.5,0,1.1,0.8,1.5,1.4
	c0.7,1.1,1.3,2.2,2,3.5c1.4-0.1,2.8-0.2,4.2-0.4c1.5-0.2,4.7,1.3,5.2,2.8c0.6,1.7,0.9,3.4,1.5,5.1c0.6,1.6,0.9,3.4,2.6,4.4
	c0.6,0.3,1,1,1.6,1.2c1.5,0.5,1.7,1.6,1.7,2.9c0.1,1.7,0.8,2.2,2.6,2.2c1.1,0,2.1,0.8,3.2,1.2c0.9,0.4,1.8,0.9,2.7,1.3
	c0.4,0.2,1,0.6,1,0.8c0,0.4-0.4,0.9-0.8,1.1c-1.4,1-2.8,0.8-4.5-0.7c-1-0.9-1.2-0.9-2.1,0.2c-0.3,0.4-0.7,0.7-1,1
	c-0.8,0.7-1.1,1.6-1,2.7c0.1,0.9-0.1,1.5-1.1,1.8c-1,0.3-1.7-0.3-2.2-1c-0.1-0.1,0-0.2-0.1-0.3c-0.3-0.4-0.6-0.9-0.8-1.3
	c-0.5,0.4-1,0.7-1.3,1.2c-0.8,1.4-1.7,2.7-2.3,4.2c-0.3,0.7-0.3,1.7-0.2,2.4c0.3,1.1-0.2,1.5-1.1,1.7c-2,0.5-2,0.5-1.9,2.8
	c1.5,0.4,3.1,0.8,4.6,1.1c1.8,0.4,2.8,2.1,2,3.3c-0.4,0.6-0.9,1.2-1.1,1.9c-0.3,0.8-0.3,1.7-0.5,2.8c1.2-0.1,2.2-0.2,3.2-0.2
	c0.4,1,0.9,1.1,2,0.4c1.1-0.7,3,0,3.6,1.1c0.3,0.6,0.8,1.4,1.3,1.7c0.5,0.3,1.5,0.2,2-0.1c0.7-0.4,1.2-1.2,0.4-2.1
	c-0.2-0.2-0.2-0.5-0.3-0.6c0.5-0.6,1-1.2,1.5-1.9c-0.1,0,0,0,0.1,0c0.8-0.1,2.1,0.2,2.2-0.2c0.4-0.9,0.3-2-0.5-2.8
	c-0.7-0.7-1.4-1.5-2.1-2.3c-0.7-1-0.4-2,0.4-2.8c1.3-1.3,2.8-2.3,4.6-2.7c0.6-0.1,1.2,0.2,1.8,0.4c0.9,0.4,1.7,0.2,2.4-0.4
	c1.1-0.9,2.4-0.7,3.8-0.5c-0.2,0.2-0.4,0.5-0.4,0.5c0.5,1.2-0.4,1.4-1.2,1.7c-0.9,0.3-1.8,0.6-2.6,0.9c-0.8,0.3-1.5,0.7-2.2,1
	c-0.6,0.3-1.1,0.7-1.8,0.2c-1.4-0.9-1.7-0.7-2.2,0.8c1,1.2,2.6,1.8,3.1,3.4c0.1,0.4,0,1-0.1,1.5c-0.4,2.9-1.6,5.3-4.4,6.7
	c-0.5,0.2-0.8,0.7-1.3,1c-0.8,0.5-1.6,1-2.5,1.3c-0.9,0.3-1.7-0.5-2.1-1.1c-0.7-1.4-1.7-1.9-3.3-2c-1.6,0-3.4-0.2-4.9-0.7
	c-1.5-0.5-3.1-1.6-3-3.5c0-1.1,0.4-2.3,0.8-3.3c0.3-0.8,0.1-1.1-0.6-1.4c-0.7-0.2-1.3-0.5-2-0.6c-3.2-0.2-4.5-2-3.2-5.2
	c0.3-0.8,0.4-1.7,0.8-2.4c0.2-0.5,0.8-0.8,1.2-1.2c0.2-0.2,0.5-0.4,0.6-0.6c0.9-2.9,2.7-5.3,4.7-7.5c0.9-1,2-1.2,3.3-0.4
	c0.2,0.1,0.6,0,0.8-0.1c0.2-0.1,0.3-0.5,0.4-0.7c0.3-0.7,1.8-0.8,1.3-2c-0.4-0.8-0.8-1.5-1.5-2.1c-0.9-0.9-1.7-1.7-2.4-2.9
	c-0.9-1.6-2.1-3-3.2-4.4c-1.4-1.6-1.8-3.5-1.9-5.5c-0.1-2-1-2.9-3.1-2.8c-1,0-2-0.2-3-0.1c-0.5,0-1.1,0.4-1.6,0.5
	c-0.6,0-1.5,0.1-1.8-0.3c-0.8-0.9-1.5-2-1.8-3.1c-0.3-1.1-0.9-1.3-1.7-1.4c-1.8-0.1-3.7-0.1-5.4,0.8c-1.8,0.9-3.7,1.4-5.5,2.3
	c-1.4,0.6-2.4,0.1-3.4-0.6c-1.1-0.8-2.1-1.7-3.2-2.4c-0.5-0.3-1.2-0.4-1.8-0.4c-1.8,0-3.7-0.6-5.4,0.6c-0.9,0.7-2.2,0.8-3.3,1.3
	c-0.4,0.2-0.8,0.7-1,1.1c-0.3,0.4-0.1,1.4-0.9,1.2c-0.6-0.1-1.2-0.7-1.5-1.3c-0.7-1.5-0.4-1.9,1.1-2.6c0.8-0.4,1-1,0.5-1.7
	c-0.3-0.4-0.5-1-0.5-1.4c0-1.7-0.4-2.1-2.1-1.6c-0.6,0.2-1.2,0.4-1.8,0.7c-1,0.4-1.6-0.3-2-1c-1.4-2.2-3-2.2-5.2-1.6
	c-1.4,0.4-2,1.6-2.4,2.8c-0.2,0.5,0.4,1.4,0.7,2c0.3,0.6,0.9,1.2,0.9,1.7c0,1-1.1,1.6-2.1,1.1c-1.3-0.6-2.1,0.3-2.8,1
	c-0.4,0.4-0.4,1.4-0.2,1.9c0.4,0.8,1.2,1.4,2.2,1.3c0.8-0.1,1.7-0.1,2.5-0.3c1.9-0.4,3.7,0.2,5.4,0.8c0.8,0.2,0.6,0.8,0.3,1.3
	c-0.7,1.5-0.7,1.5,0.7,2.1c1.5,0.6,1.9,3.3,0.8,4.4c-0.6,0.6-0.9,1.6-1.5,2.1c-1.3,1-2.1,2.2-1.8,3.9c0,0.1-0.8,0.4-1.2,0.6
	c-0.4,0.2-1,0.4-1.1,0.7c-0.4,1-0.7,2.1-0.9,3.2c-0.2,1,0.3,1.7,1,2.4c0.8,0.9,1.7,1.9,0.9,3.3c-0.2,0.4-0.6,0.7-1,1.2
	c0.3,0.1,0.6,0.1,0.8,0.2c0.3,0.3,0.9,0.9,0.8,1.1c-0.6,1.4,0.1,2.6,0.5,3.9c0.1,0.3,0.7,0.4,0.9,0.7c0.7,1.1,1.6,2,2.7,2.6
	c0.2,0.1,0.4,0.4,0.4,0.6c0.4,1.5,0.7,3.1,1,4.6c0.1,0.6,0,1.2,0,1.8c0,0.6-0.1,1.2-0.2,1.9c-0.1,0.4-0.2,0.9-0.2,1.3
	c0.1,0.7,0.4,1.3,0.3,2c-0.1,1.3,1.2,3,2.4,3.3c0.4,0.1,0.8,0.7,1.1,1.1c0.7,1.1,1.3,2.1,1.1,3.5c-0.1,0.8-0.1,1.4,0.8,1.9
	c0.5,0.3,1.1,0.8,0.4,1.5c-0.2,0.2-0.3,0.7-0.3,1c0,1.8-0.2,3.6,0,5.3c0.2,1.4,0.1,2.5-0.4,3.8c-0.5,1.1,0.3,1.5,1.1,1.6
	c1.1,0.2,1.8,0.8,2.1,2c0.7,0,1.4,0.1,2.1,0c0.5-0.1,1-0.4,1.4-0.6c0.4-0.3,0.8-0.6,1.1-0.9c0.5-0.5,0.9-1,0.5-1.9
	c-0.2-0.4-0.2-1.1,0-1.5c0.9-2.1,1.3-4.4,2.9-6.2c1.5-1.7,1.1-3.5,0.2-5.2c-0.5-0.9-1-1.7-1.6-2.5c-0.7-1-0.5-2-0.2-2.9
	c0.5-1.4,1.1-2.8,1.6-4.1c0.3-0.7,0.5-1.3,0.7-2c0.1-0.2-0.1-0.6-0.3-0.8c-0.6-0.9-0.5-1.9,0.5-2.4c1.3-0.7,2.5-1.4,3.3-2.7
	c0.7-1.1,1.5-2.2,1.7-3.4c0.2-0.9,0.8-1.4,1.3-2c0.8-0.8,1.6-1.6,2.3-2.4c0.1-0.2,0-0.9-0.2-1c-1.1-0.4-1.5-1.4-2-2.3
	c-0.2-0.5-0.8-0.9-1.3-1.1c-1.2-0.4-2.4-0.6-3.5-1c-0.5-0.2-1.2-0.7-1.3-1.2c-0.1-0.4,0.7-0.9,1-1.4c0.4-0.6,0.7-1.2,1-1.7
	c0.2-0.4,0.4-0.9,0.6-1.3c0.7,0.4,1.9-0.8,2.4,0.5c0.2,0.7,0.1,1.6,0,2.3c-0.1,0.4-0.5,0.7-0.8,1.1c1.1,0.4,2,0.7,2.9,1
	c1,0.4,1.7,1,2.1,2.1c0.2,0.7,0.8,1.4,1.4,1.9c0.8,0.7,0.8,1.1,0.4,2.1c-0.7,1.6-1.6,3-2.9,4.2c-0.3,0.3-0.4,0.8-0.6,1.2
	c-0.7,1.3-1.3,2.5-2.4,3.5C123.2,270.5,122.8,271.4,122.1,272.5z"/>
<path d="M210.5,332.1c-0.8,0.8-1.7,1.6-2.8,2.7c0.1,0.9,0.3,2.3,0.2,3.7c-0.1,0.8-0.6,1.7-1.1,2.4c-0.4,0.5-0.6,1.2-1.6,1.2
	c-0.7,0-1.2,0-1.8-0.5c-0.4-0.3-1.2-0.3-1.8-0.2c-2.1,0.2-4-1.3-4.2-3.4c-0.2-2.5-0.3-2.4-2.5-3.2c-0.5-0.2-1-1.4-0.9-2
	c0.5-2.4,0.7-3.9-1.5-5.1c-0.5-0.3-1-0.7-1.2-1.1c-0.2-0.3-0.2-1.1,0-1.2c1.1-0.8,0.9-2,1.2-3.1c0.2-0.6,0.3-1.2,0.2-1.7
	c-0.1-0.7-0.5-1.3-0.8-1.9c-0.3-0.6-0.7-1.2-1.1-1.7c-0.2-0.3-0.5-0.6-0.7-0.9c-0.7-0.6-1.5-1.1-1-2.3c0.2-0.6-0.3-0.8-0.9-0.6
	c-0.5,0.1-1.1,0.3-1.5,0.1c-1.1-0.5-1.1-1.3-0.4-2.3c0.2-0.3,0.4-0.5,0.7-0.7c0-0.1-0.1-0.2-0.1-0.4c-1,0.3-1.9,0.8-2.9,0.7
	c-0.9-0.1-1.7-0.8-2.8-1.3c0.5-0.7,0.9-1.3,1.4-1.8c0.6-0.7,0.2-1.1-0.4-1.1c-1.1,0-2.3,0-3.4,0.4c-1,0.3-1.7,0.4-2.1-0.7
	c-0.4-0.9-0.2-1.7,0.8-2.1c0.7-0.3,1.1-0.6,0.7-1.4c-1.1-0.1-2.1-0.3-3.2-0.3c-0.2,0-0.5,0.2-0.7,0.3c-1.2,0.7-2.6,0.3-2.9-0.9
	c-0.4-1.4,0.1-1.9,1.5-1.7c1.3,0.2,2.6,0,3.8,0.1c1.7,0.1,3.5,0.3,5.2,0.7c1.3,0.3,1.4,1,0.6,2.1c-0.2,0.3-0.4,0.7-0.7,1.3
	c1.7,0.2,3.1,0.4,4.6,0.6c-0.1,0.6-0.2,1.4-0.3,2.2c0.9,0.4,1.9,0.7,2.9-0.1c0.2-0.2,0.9-0.1,1,0.1c0.4,0.5,1.3,0.9,1,1.8
	c-0.1,0.3,0,0.6,0,1c0.4,0,0.8,0,1.2-0.1c0.5-0.1,1-0.4,1.4-0.5c1.9-0.7,1.9-0.7,1-2.3c-0.6-0.4-1.3-0.7-1.8-1.2
	c-1.2-1.4-2.3-2.8-3.5-4.2c-1.1-1.3-2.2-2.5-3.3-3.8c0.3-1,0.9-1.4,1.9-1.6c1.2-0.2,2.4-0.8,3.5-1.2c0.3-0.1,0.7-0.1,1,0
	c2.2,0.9,4.4,1.8,6.6,2.7c1.2,0.5,2.3,1.1,3.3,1.6c0.7-1.5,1.4-2.9,2.2-4.2c0.2-0.4,0.6-0.7,0.9-0.9c1.3-1,1.2-2.4-0.3-3.1
	c-0.7-0.3-1.3-0.6-2,0.2c-0.5,0.5-1.2,0.9-2.1,0.1c-1-0.8-2.3-0.2-3.4,0.4c-0.3,0.2-0.6,0.3-0.9,0.5c-0.7,0.6-1.4,0.7-2-0.2
	c-0.7-1.1-0.5-1.6,0.3-2.4c0.7-0.7,1.3-1.6,1.9-2.4c0.6-0.7,0-1-0.5-1c-0.6,0-1.3,0.2-1.9,0.3c-0.4,0.1-0.8,0.2-1.2,0.4
	c-0.7,0.3-1.3,0.3-1.8-0.3c-0.5-0.6-0.3-1.1,0-1.9c0.6-1.7,1.9-2.5,3.3-3.3c1-0.6,1.6-0.4,2.9,1.1c-0.6,0.9-0.6,1.2,0.6,1.6
	c1.1,0.3,2,0.8,2,2.1c0,0.6-0.3,1.2-0.5,2c1-0.1,1.9-0.2,2.8-0.1c0.8,0,1.7,0.2,2.6,0.3c0-0.7,0-1.3,0-2c-0.8-0.6-1.9-0.1-2.5-1.3
	c-0.7-1.4-0.5-2.5,0.3-3.7c0.6-0.9,1.3-1.6,0.7-2.8c-0.2-0.4,0.4-1.6,1-1.8c0.8-0.4,1.4,0.2,1.8,1.1c0.8,1.7,0.1,2.8-0.8,4
	c-0.4,0.5-0.7,1-1,1.5c0.1,0.1,0.1,0.2,0.2,0.3c0.6-0.2,1.2-0.4,1.9-0.5c0.7-0.1,1.5-0.1,2.1,0.2c0.3,0.2,0.5,1.4,0.2,1.7
	c-1.2,1.3-0.5,3-1.1,4.3c-0.5,1.2-0.2,1.9,0.5,2.8c0.2,0.3,0.5,0.5,0.6,0.8c0.4,0.9,0.8,1.7,1.1,2.6c0.5,1.4,0.1,2.7-0.6,4
	c-0.7,1.2-1.5,2.5-2.9,3c-0.6,0.2-1.4,0.1-2.2,0.2c-0.1,0.2-0.3,0.6-0.4,0.9c-0.8-0.2-1.6-0.4-2.4-0.6c-0.2-0.2-0.5-0.6-0.8-0.9
	c-0.1,0-0.2,0.1-0.3,0.1c0,0.7-0.1,1.4,0,2.1c0,0.2,0.5,0.5,0.8,0.5c2.3-0.3,2.3,0.1,2.7,2.4c0.2,1,0.4,1.7,1.3,2.2
	c0.4,0.2,0.6,0.9,0.9,1.3c0.6,0.7,1.4,1.2,2,1.9c0.6,0.6,0.5,2.8-0.1,3.7c-0.6,0.9-1.3,1.8-1.9,2.7c-0.7,1.2-0.2,2,0.8,3
	c1.2,1.1,2.2,2.5,3.3,3.8c0.3,0.4,0.8,0.8,0.9,1.2c0.2,0.7,0.2,1.6,0,2.3c-0.2,0.9-0.8,1.6-1.1,2.4
	C210.1,331.7,210.4,332,210.5,332.1z M190.5,312.5c0.1,0.3,0.2,0.6,0.4,0.8c0.7,1.1,2.3,1,2.8,2.4c0.4,1.1,1.4,2.1,1.4,3.1
	c0.1,2-0.3,4-0.6,6c0,0.3-0.1,0.6,0,0.8c0.6,0.8,1.3,1.5,1.9,2.3c0.3,0.3,0.6,0.7,0.6,1.1c0.1,0.7,0,1.5,0,2.2
	c0,1.2,0.5,1.8,1.7,1.9c1.2,0.1,1.4,0.6,1.4,1.9c-0.1,1-0.3,2.3,0.6,3c0.8,0.6,1.8,0.9,2.8,1c0.6,0,1.5-0.3,1.5-1.3
	c-0.1-1.1-0.2-2.2-0.4-3.3c-0.1-0.8,0.1-1.4,0.6-1.9c0.7-0.7,1.5-1.4,2.2-2.1c1-0.9,1.5-2.5,0.7-3.6c-1.1-1.6-2.4-2.9-3.5-4.4
	c-0.6-0.8-1.4-1.8-1.4-2.7c0.1-1,1-2,1.6-2.9c0.8-1.3,1.1-3.2,0.1-4.2c-1-0.9-1.8-1.9-2.6-2.9c-0.4-0.4-0.6-0.9-0.9-1.4
	c-0.1,0-0.1,0.1-0.2,0.1c-0.3-0.6-0.5-1.3-0.8-2c-0.9,0.3-1.6,0.6-2.3,0.8c-1.3,0.2-1.4,0.3-0.7,1.5
	C195.6,311,193.3,311.9,190.5,312.5z M197.7,304.2c-0.1-1.2-0.2-2.4-0.4-3.5c-0.1-0.9-0.3-1.8-1.6-1.6c-0.4,0-0.8-0.3-1.2-0.4
	c-1-0.2-2-0.4-3.1-0.6C191.7,300.3,195,303.9,197.7,304.2z"/>
<path d="M183.5,241.1c0.5,0.5,0.7,0.6,1.4,0c2.2-1.8,4.7-3,7.6-1.7c0.9,0.4,1.7,1.4,2,2.3c0.6,1.5,0.8,3.1,1,4.7
	c0.2,1.3,0.3,1.3,1.5,0.9c0.9-0.2,2-0.2,2.9-0.3c0.4,0,0.9-0.1,1-0.4c0.5-0.9,1.2-0.7,1.7-0.3c0.5,0.5,0.8,1.2,1.1,1.9
	c0.1,0.3-0.2,0.8-0.3,1.2c0.9,0.3,1.8,0.5,2.7,0.7c0.3,0.1,0.6,0.2,0.7,0.4c0.8,1.5,2.2,1.1,3.4,0.9c1.1-0.2,2.1,0.1,2.9,0.6
	c1.2,0.8,2.3,1.7,3.2,2.8c0.5,0.6,0.8,1.5,0.7,2.3c-0.1,1.9,0.7,3.5,1.6,5.1c1,1.8,2.1,3.5,3.2,5.2c0.6,0.9,0.6,2.3,0.1,3.2
	c-0.3,0.5-0.4,1.2-0.3,1.7c0.1,0.9,0.1,1.5-0.7,2c-0.3,0.2-0.6,0.5-0.7,0.9c-0.3,0.6-0.7,1.3-0.6,1.8c0.2,0.6,0.9,1.1,1.4,1.6
	c0.9,0.8,1.9,1.5,2.2,2.8c0.1,0.8,0.7,1.6,0.9,2.4c0.1,0.5,0,1.1-0.2,1.6c-1,1.8-2.6,1.8-4.4,1.4c-0.7-0.2-1.4-0.1-2.1-0.2
	c-1.8-0.3-3.7-0.3-4.9-2.1c-0.7-1-1.7-1.8-1.6-3.3c0.1-0.9,0.2-1.3,1.2-0.8c0.3,0.2,0.8,0.2,1.1,0.2c-0.4,0.4,0,1.9,0.7,2.3
	c0.5,0.3,1,0.5,1.6,0.5c1.6-0.1,3.3-0.3,5-0.4c0.2-1.4-0.7-2.2-1.6-2.9c-1.4-1.1-2.2-2.5-2.4-4.2c0-0.2,0.2-0.5,0.3-0.7
	c0.6-0.9,1.2-1.8,1.7-2.8c0.1-0.2,0.3-0.6,0.2-0.7c-0.9-1,0-1.6,0.4-2.4c0.1-0.2,0.2-0.5,0.1-0.6c-0.5-1-1.1-1.9-1.7-2.9
	c-0.4-0.8-0.8-1.6-1.3-2.3c-0.1-0.2-0.3-0.5-0.5-0.6c-0.9-0.4-1.3-1.1-1.3-2.1c0-0.9,0.1-1.8,0.1-2.7c0.1-2.3-2.7-4.3-4.8-3.6
	c-0.7,0.3-1.5,0.6-2.1,0.5c-0.6-0.1-1.4-0.6-1.6-1.2c-0.4-0.9-0.9-1.3-1.9-1.5c-1.9-0.3-1.9-0.4-2.1-2.5c-1.2,0.1-2.4,0.1-3.5,0.3
	c-1,0.2-2,0.8-3,1.1c-0.3,0.1-1-0.2-1.2-0.5c-0.3-0.7-0.4-1.5-0.6-2.2c-0.3-1.1-0.5-2.3-0.8-3.4c-0.3-0.9-0.8-1.7-1-2.5
	c-0.2-1-1-1-1.7-1.1c-0.7-0.2-1.2,0.2-1.4,0.9c-0.1,0.2-0.2,0.4-0.3,0.7c-0.4-0.1-0.7-0.2-1-0.2c-0.7,0-1.3,0-1.5,0.9
	c-0.1,0.5-0.6,0.9-1,1.3c-0.3,0.2-0.9,0.3-1.1,0.2c-1.3-1.5-2.3,0.1-3.8,0.3c-0.6-0.2-1.6-0.7-2.6-1.1c-1.2-0.6-2.3-0.1-2.9,1.3
	c-0.3,0.8-0.7,1.5-1.1,2.3c-1.3-1.2-1.3-3.3-0.1-4.3c0.3-0.3,0.6-0.6,0.8-1c0.8-1.4,2.2-1.8,3.5-1c1.6,1,3.6,0.9,5.1-0.2
	C182.9,241.5,183.2,241.3,183.5,241.1z"/>
<path d="M213.7,269.3c0,1.7-1,2.7-2.6,3.1c-1.4,0.4-2.6,0-3.8-0.5c-1.8-0.6-2.5-3.9-1.4-5.4c0.5-0.6,0.9-1.4,1.5-1.9
	c1.5-1.3,2.8,0,4,0.5C213,265.9,213.7,267.4,213.7,269.3z"/>
<path d="M179.6,270.4c1.8,0.1,3.2,1.1,4.2,2.5c1,1.4,0.6,2.7-0.7,3.8c-1.4,1.2-3,1.8-4.6,1.1c-3-1.3-3.6-3.5-1.6-6.1
	C177.5,270.8,178.3,270.1,179.6,270.4z"/>
<path class="st0" d="M197.7,304.2c-2.6-0.3-6-3.9-6.3-6.1c1.1,0.2,2.1,0.3,3.1,0.6c0.4,0.1,0.8,0.5,1.2,0.4c1.3-0.2,1.5,0.6,1.6,1.6
	C197.5,301.8,197.6,302.9,197.7,304.2z"/>
<path class="st0" d="M38.6,42.5c-1.8-0.6-3.7-1.2-5.5-1.9c-0.7-0.3-0.9,0-1,0.5c-0.1,0.4-0.2,0.9-0.4,1.2c-0.3,0.5-0.7,1.2-1.2,1.5
	c-0.6,0.3-1.5,0.2-2.2,0.3c-0.3,0-0.7,0.1-0.8,0.3c-0.6,0.9-2.4,1.3-3.3,0.6c-0.2-0.1-0.1-0.5-0.2-0.9h-2.4c0.4,0.5,0.6,0.9,0.9,1.1
	c1.5,0.8,3.1,1.1,4.7,0.7c1.3-0.3,2.5-0.9,3.7-1.2c0.9-0.3,1.2-0.7,1.2-1.6c0-1.5,0.4-1.8,1.8-1.6c1.1,0.2,2.1,0.8,3.2,1.1
	c0.5,0.2,0.9,0.3,1.4,0.4C38.5,42.8,38.5,42.6,38.6,42.5z"/>
<path class="st0" d="M42.3,67.9c0.7-1,1-2.1,1.5-3.1c-0.3-0.9-0.3-1.7-0.7-2.1c-0.6-0.8-1.5-1.7-2.5-1.2c-1.3,0.7-3,0.9-3.4,2.7
	c0,0.1,0,0.2,0,0.4c-0.3,1.3,0.4,2.2,1.2,3.2C39.2,68.9,41.5,69.1,42.3,67.9z"/>
<path class="st0" d="M53.2,67.6c0.5,1.1,1.3,0,2.1,0.4c0.1,0.4,0.1,1,0.3,1.5c0.3,1,0.6,2,1.1,3c0.7,1.3,1.9,0.8,3,0.7
	c1.4-0.1,2.7-0.2,3.9-1.2c0.8-0.7,1.9-1,2.9-1.5c0.8-0.4,1.7-0.8,2.5-1.2c0.8-0.4,1.5-0.8,2.2-1.4c0.4-0.3,0.9-0.8,1-1.2
	c0.1-0.9,0-1.9-0.1-2.9c-0.1-1.7-1.2-2.6-2.8-2.8c-0.6-0.1-1.3-0.1-1.9,0c-1.1,0.1-1.7-0.5-1.9-1.4c-0.4-1.5-0.3-3.1,0.3-4.5
	c0.3-0.7,1-1.7,2.2-0.7c0-0.6,0-1.2-0.3-1.4c-0.8-0.6-1.7-1-2.6-1.3c-1.2-0.5-2.9-0.4-3-2.3c0-0.4,0-0.9,0-1.3
	c-0.1-1.2-0.2-2.3-0.3-3.4c-1.9-0.4-3.5-0.8-5.1-1.1c-1-0.2-2.1-0.2-2-1.7c-1.3,0-1.8,0.5-1.5,1.3c0.3,0.6,0.5,1.3,0.7,1.8
	c1.4,0.1,2.8,0.4,4.2,0.4c1.4,0.1,2.3,1.2,1.9,2.7c-0.4,1.6,0.7,2.4,1.3,3.6c0.1,0.2,0.4,0.3,0.7,0.4c0.7,0.2,1.5,0.4,2.4,0.6
	c-0.4,1.6-0.8,2.9-1.1,4.3c-0.1,0.6-0.4,1.4-0.2,2c0.2,0.9,0.8,1.7,1.2,2.5c0.5,1,1.1,1.4,2.3,1c0.5-0.2,1.1-0.2,1.6-0.1
	c0.9,0.2,1.8,0.5,1.9,1.7c0.1,1.3-0.2,2.3-1.2,2.7c-0.9,0.4-1.8,0.5-2.6,1c-2,1.1-3.8,2.4-5.8,3.6c-1.2,0.7-2.8,0.8-3.3-1.2
	c-0.5-2-0.9-4.1-1.3-6.1c-0.7-0.4-1.6-0.8-2.4-1.3c-1.5-1-2.9-2-2.9-4.2c0-1.1-0.4-2.2-1.5-2.8c-1-0.5-2.2-0.9-3.2-1.4
	c-0.3-0.2-0.5-0.8-0.8-1.2c-0.3-0.5-0.8-0.7-1.3-0.2c-0.8,0.8-1.4,1.6-2.1,2.4c0.1,0.1,0.1,0.2,0.2,0.3c0.7-0.5,1.4-1,2.2-1.4
	c0.3-0.1,0.8,0.1,1.1,0.1c-0.5,1.4,0.8,1.8,1.4,2.1c2.2,1,2.4,3.8,1.8,5.6c1.2,0.9,2.5,1.8,3.8,2.7c0.6,0.4,0.8,0.7,0.6,1.5
	C52.8,66.5,53,67.1,53.2,67.6z"/>
<path class="st0" d="M132.2,12.5c0.8-0.9,1.6-1.9,2.9-2.2c0.4-0.1,0.8-0.8,1.1-1.2c0.7-1.3,0.6-2.8,0.2-4.1c-0.5-1.4-1.1-3-2.2-3.9
	c-1.7-1.6-4.4-1.1-6.4,0.1c-0.6,0.4-1,1.3-1.7,1.6c-1.3,0.6-2.8,0.9-4.2,1.5c-2.3,1-5.3,1.4-5.2,5.1c-0.4-0.3-0.7-0.8-1-0.9
	c-1.7-0.3-2.6-1.6-3.9-2.4c-1-0.6-2.4,0-2.8,1.1c-0.2,0.7-0.5,1.4-0.8,2.1c-0.7,1.9-2.7,1.8-4.2,2.7c-0.5,0.3-1,0.5-1.6,0.7
	c-1.1,0.4-2.1,0.8-3.2,1.2c-0.3,0.1-0.7,0.1-1,0.2c-1.1,0.2-2.2,0.2-3.3,0.6c-1.5,0.5-2.2,2.1-3.1,3.3c-1,1.4-1.6,3.1-3.2,3.9
	c-1,0.6-1.4,1.4-1.7,2.4c-0.1,0.3,0,1,0.2,1.1c0.5,0.1,1,0.3,1.4-0.5c0.3-0.7,0.9-1.3,1.4-2c1.6-1.8,3.2-3.7,4.8-5.5
	c0.3-0.3,0.7-0.5,1.2-0.6c1-0.2,2.2-0.1,3-0.6c1.4-0.9,2.9-1.2,4.5-1.2c0.1,0,0.3,0,0.3-0.1c0.6-1.3,1.7-0.9,2.8-0.9
	c0.5,0,1.3-0.2,1.6-0.6c0.9-1.4,1.7-3,2.6-4.7c0.3,0.1,0.8,0.3,1.2,0.6c1.3,0.9,2.5,2.1,4.3,0.9c0.1,0,0.2,0,0.5,0.1
	c-0.2,0.6-0.4,1.2-0.6,1.7c0.1,0.1,0.1,0.1,0.2,0.2c0.3-0.2,0.8-0.3,0.8-0.5c-0.1-1.2,0.9-1.8,1.4-2.5c0.8-1,1.7-2.2,2.9-2.7
	c1.7-0.8,3.7-1,5.6-1.6c0.8-0.2,1.4-0.9,2.1-1.4c0.6-0.4,1.2-0.9,1.9-0.9c1.2,0,2.6,1.5,3,2.7c0.4,1.1-0.2,2.5,0.9,3.5
	c0.1,0.1-0.1,0.8-0.3,0.9c-1.6,1.1-3.2,2.2-4.4,3.8c-0.5,0.7-1.2,1.4-1.4,2.1c-0.3,0.8,0,1.7-0.1,2.5c-0.3,1.8,0.7,2.9,2.3,2.8
	c-0.4-0.3-1.4-0.6-1.5-1.1c-0.5-1.9-0.4-3.9,0.9-5.6C130.9,13.5,131.6,13.1,132.2,12.5z"/>
<path class="st0" d="M83.4,108.4c-0.1-0.3-0.3-0.5-0.5-0.7c-2.1-1.6-3.8-3.5-5.1-5.8c-0.6-1-1.5-1.9-2.2-2.8
	c-0.3-0.4-0.8-1.3-0.7-1.4c0.7-0.8,0.1-1.4-0.2-2c-0.8-1.5-1-3.1-0.1-4.6c1.5-2.4,2.9-4.9,4.4-7.3c0.9-1.5,0.7-1.8-0.6-2.2
	c-0.6,0.3-1.1,0.4-1.5,0.7c-0.5,0.4-1.1,0.9-1.2,1.5c-0.3,1.8-1.3,3.1-2.3,4.6c-0.5,0.8-0.9,1.7-1.4,2.5c-1,1.9,0,3.7,0.2,5.6
	c0.1,0.7,0.1,1.5-0.3,2.1c-0.6,0.9-1.5,1.5-2.2,2.3c-1,1.1-2.2,2.1-2.8,3.4c-1,2.2-1.5,4.5-2.4,6.7c-0.4,0.9-1,1.7-1.6,2.6
	c-0.4,0.5-1,0.9-1.3,1.4c-0.9,1.4-1.9,2.8-2.7,4.3c-0.5,0.8-1.3,1.8-1.2,2.5c0.3,1.8,0.2,3.5-0.9,4.8c-0.9,1-2,1.9-3.2,2.2
	c-1.4,0.4-3,0-4.5,0.5c-0.3,0.1-1-0.3-1.1-0.6c-0.3-1.4-1.4-1.7-2.6-1.9c0,0.1,0.1,0.2,0.1,0.3c-0.9,0.3-1.7,0.7-2.6,1
	c1.1-4.6,1.5-6.1,6-8.9c1.2-0.8,1.7-1.7,1.7-3.1c-0.1-1.4,0-2.8,0-4.2c0-1.9,0.5-3.7,1.8-5.2c0.6-0.6,1.1-1.3,1.8-2
	c-0.1-0.2,0.7-1.5,1.3-1.5c1.4,0,1.4-0.9,1.4-1.9c0-1.1,0.2-2.2,1-3c0.5-0.5,0.9-1,1.4-1.4c0.4-0.3,1-0.5,1.4-0.3
	c1.2,0.4,2.3,1,3.4,1.6c1-1.9,1-2-0.4-3.2c-1.4-1.2-1.5-1.5-0.7-3.2c0.7-1.5,1.3-3.2,2.1-4.9h-2c1.1,1.2,1.1,1.8,0.1,3.2
	c-0.2,0.2-0.5,0.4-0.8,0.5c-0.1-0.3-0.4-0.7-0.4-1C62,88.8,62.2,88,62,87.2c-0.2-0.8-0.1-1.6,0.5-2c0.5-0.3,1.3-0.1,2.2-0.1
	c-0.7-1-1.4-1.9-2.1-2.9c-0.6-1-1.5-0.7-2.3-0.5c-0.6,0.1-1.2,0.3-1.9,0.3c-0.8,0.1-1.7,0-2.4,0c-0.3,1.2,0,1.9,1,2.4
	c1,0.4,2,0.9,3,1.4c0.2,0.1,0.4,0.3,0.4,0.5c0.1,1.7,0.2,3.4,0.3,5.1c-1,0.3-0.9-0.6-1.3-0.8c-1-0.6-0.9-1.2-0.8-2.1
	c0.1-0.5-0.2-1.5-1.5-1.2c-0.7,0.2-1.6-0.1-2.3-0.2c0,0,0,0.1,0.1,0.2c0.7,0.9,0.6,1.7-0.3,2.4c-0.9,0.7-1.7,1.5-2.4,2.3
	c-0.6,0.6-1.1,0.5-1.7,0.2c-0.7-0.4-1.4-0.8-2.2-1.3c0.2-0.5,0.4-1.1,0.6-2c-0.4-0.5-1.1-1.2-1.8-2c0.3-0.9,0.8-1,1.7-0.1
	c0.3,0.3,1,0.3,1.4,0.2c1-0.3,1.7-1.1,1.9-2.5c-0.7-0.3-1.5-0.6-2.3-0.8c-0.4-0.1-0.9,0-1.2-0.1c-1.2-0.6-2.5,0.1-3.1,1.3
	c-0.3,0.7-0.5,1.4-0.9,2.4c-0.7-0.3-1.4-0.6-2-1c-1.1-0.8-2.1-0.6-2.5,0.7c-0.3,1-0.6,2.1-1,3c-0.8,1.8-0.6,1.6-2.2,1.2
	c-0.5-0.1-1-0.2-1.5-0.3c-0.5-0.1-1-0.3-1.5-0.5c0.2-0.3,0.4-0.7,0.7-1c0.1-0.1,0-0.3,0.1-0.3c0.5-0.5,0.9-1.2,1.5-1.4
	c1.4-0.5,2.2-1.6,2.7-2.9c0.2-0.4-0.1-1.2-0.4-1.6c-0.4-0.6-1.1-1-1.5-1.6c-0.5-0.9-1.2-0.7-1.8-0.3c-1.5,1.1-2.9,2.4-4.4,3.6
	c-0.9,0.8-1.8,1.5-2.7,2.3c-0.2-0.3-0.3-0.4-0.3-0.5c-0.7-1.5-1.3-3-3.2-3.6c-0.8-0.2-0.4-0.8,0-1.3c0.5-0.6,1-1.2,1.6-1.9
	c-0.9-0.2-1.5-0.5-0.6-1.2c0.7-0.6,1.4-1.3,2.1-2c0.2-0.2,0.5-0.5,0.5-0.8c0.1-0.4,0-0.9,0-1.3c0.1-1-0.7-1.8-1.6-1.4
	c-1.2,0.6-2.9,0.7-2.8,2.7c0,0.1-0.2,0.2-0.3,0.3c-0.3,0.4-0.6,0.7-0.9,1.2c-1.1-0.2-2.4-0.4-3.9-0.7c0.5-0.6,0.8-1.4,1.4-1.7
	c0.6-0.4,1.5-0.4,2.1-0.5c0-0.4-0.1-0.8-0.1-1.3c0-1.3-0.8-1.7-2-1.4c-0.8,0.2-1.5,0.7-2.3,1.1c-0.9,0.5-1.9,1.3-2.9,1.3
	c-1.4,0-2.2,0.8-3.3,1.7c0.6,0.5,1.1,1.4,1.6,1.4c0.7,0,1.7,0.1,2-1c0.1-0.2,0.7-0.2,1-0.4c0.1,0.1,0.1,0.2,0.2,0.3
	c-0.4,0.6-0.9,1.1-1.1,1.7c-0.2,1,0.7,1,1.5,0.9c0,0.3,0,0.5-0.1,0.7c-1,1.6-1.9,3.1-2.9,4.6c-0.4,0.5-0.9,1-1.3,1.5
	c-0.1,0.2-0.1,0.5-0.1,0.7c0.2,0,0.5,0,0.7-0.1c0.2-0.1,0.4-0.3,0.5-0.4c1.1-0.8,2.1-1.6,3.2-2.4c0.9-0.7,1.9-1.3,2.8-2
	c0,0,0-0.1-0.1-0.1c-1.1,0.4-2.1,0.8-3.3,1.3c0.5-2.5,1.8-3.7,5.1-3c-0.2,0.4-0.3,0.8-0.4,1.2c-0.1,0.4-0.2,0.7-0.3,1.1
	c-0.2,1-0.1,2.1-0.5,2.9c-0.7,1.2-0.7,2.3-0.2,3.4c0.5,1.1,1.3,2,2.1,2.9c0.9,0.9,2,1,3.4,0.4c-0.1,0.7-0.2,1.2-0.3,1.7
	c-0.4,1.1-1,2.2-1.2,3.4c-0.3,2.6-0.7,5.2,0.9,7.6c0.3,0.4,0.8,0.8,1.2,0.8c1.5,0.1,3,0,4.3,0c0.1-0.3,0.2-0.6,0.3-0.9
	c0.4-1,1.1-2.1,1-3c-0.2-2.5-0.1-5,0.4-7.5c0.4-1.8,1.5-2.4,2.8-1.7c1.2,0.6,2.5,1.1,3.8,1.6c0.6,0.3,1.2,0.5,2.1,0.8
	c0.1-0.1,0.8-0.4,0.8-0.8c0.1-0.8,0.2-1.9-0.2-2.4c-0.7-0.9-0.1-1.4,0-2.3c0.3,0.3,0.5,0.4,0.8,0.6c1,0.5,1.6,1.9,3.1,1.3
	c0.1,0,0.7,0.6,0.7,0.9c0.1,1.3,0.1,2.6,0.3,3.9c0.1,0.5,0.8,1.2,1.2,1.3c0.9,0.1,1.2,0.6,1.7,1.2c1.1,1.6,1.3,3.8,3.2,5
	c0.2,0.1,0.2,0.7,0.1,0.9c-0.8,1-1.7,1.8-2.5,2.8c-0.4,0.5-1,1-1.1,1.5c-0.1,2,0,4.1-0.1,6.1c-0.1,1-0.2,2.2-0.7,3
	c-0.8,1.2-2,2.2-3.2,3c-1.7,1.2-2.8,2.8-3.5,4.7c-0.1,0.4-0.3,0.7-0.4,1.1c-0.3,1.3-1.8,2.3-1,3.8c2.1,0.8,4.1,0.8,6-0.5
	c0.3,1.7,0.9,2.5,2,2.5c1.7,0,3.4-0.1,5.1-0.2c0.9-0.1,1.8-0.2,2.7-0.3c0.4-0.2,0.7-0.4,1.1-0.6c0.4-0.2,1.1-0.2,1.2-0.5
	c0.7-1.4,1.4-2.8,1.8-4.3c0.4-1.4,0.3-2.9,0.6-4.3c0.2-0.8,0.5-1.7,0.9-2.4c1.5-2.1,3.1-4,4.7-6c0.2-0.2,0.8-0.3,0.9-0.1
	c1,0.9,1.9,1.8,2.2,3.2c0.3,1.4,0.3,2.9,0.8,4.3c0.4,1,1,2.3,1.9,2.7c1.1,0.5,1.9,1.1,2.8,1.8c0.7,0.6,1.7,0.5,2.3-0.3
	c0.6-0.7,1.2-1.4,1.8-2.1c0.5-0.6,1-1.1,1.4-1.7c0.3-0.4,0.6-1,0.9-1.5c0-0.1-0.1-0.3-0.2-0.5c-1.2-1.6-1.2-2.1,0.4-3.7
	c0.7-0.7,1.5-1.4,2-2.2c0.3-0.4,0.5-1.1,0.4-1.7C84.1,110.2,83.7,109.3,83.4,108.4z"/>
<path class="st0" d="M17.9,62.6c-1.6-0.3-2.9-0.6-4.2,0.8c-0.8,0.9-1.9,2.5-1.7,3.7c0.3,1.6,1,2.1,3.1,2.4c2.4,0.3,4.3-1.3,4.3-3.7
	c0-0.5-0.2-1-0.1-1.4C19.3,63.3,19,62.8,17.9,62.6z"/>
<path class="st0" d="M11.2,87.4c-0.5-0.7-1.5-1-2.3-1.5c-0.4-0.5-0.6-1.2-0.8-1.9c-0.4-1.7-1.4-2.3-3.1-1.9
	c-1.6,0.3-2.3-0.2-2.6-1.7c-0.2-1.2-0.3-2.4-0.5-3.6c-0.2-1,0.2-1.8,0.8-2.6c1-1.3,2.7-1.9,3.1-3.7c0.2-1,0.9-1.8,1.3-2.7
	C8,65.8,8.9,63.9,9.8,62c0.5-1,0.8-1.9,0.3-2.9c-1-2-1.1-4.2-1-6.3c0.1-1.2,0.3-2.6,1.5-2.9c1.8-0.5,3.6-1.4,5.6-0.6
	c0.2,0.1,0.6,0,1.1,0c-0.3-0.2-0.4-0.3-0.6-0.4c-1.4-0.6-2.9-0.5-4.4-0.3c-1.8,0.2-3.1,0.9-3.6,2.7c-0.1,0.3-0.3,0.6-0.5,0.9
	c-0.8,1.9-1.5,3.7-0.9,5.8c0.4,1.2,0.5,2.4-0.2,3.5c-0.8,1.2-1.7,2.4-2.6,3.5c0.1,0,0.2,0,0.3,0c0,0.7,0,1.4-0.1,2.1
	c-0.5,2.2-2,3.9-3.4,5.5c-2.1,2.4-1.9,5-1.3,7.7c0.2,0.9,0.9,1.7,1.5,2.4c0.5,0.7,1.2,1.2,1.8,1.8c0.4,0.5,0.8,0.9,1.6,0.5
	C5,85,5.5,85.3,5.6,85.5c0.4,0.7,0.8,1.5,0.9,2.3c0.1,1,0.6,1.3,1.4,1.4c0.4,0.1,0.7,0.2,1.1,0.3c0.1,2.3,1.3,2.9,4.5,2.1
	c0.1-0.4,0.2-0.8,0.3-1.1c0.1-0.4,0.2-0.8,0.3-1.2C12.1,89,12.2,88.9,11.2,87.4z"/>
<path class="st0" d="M146.3,41c-0.1-0.8,0-1.7-0.4-2.4c-0.7-1.5-1.5-2.9-2.4-4.4c-0.8-1.2-1.7-2.4-2.5-3.6c-0.8-1.2-1.6-2.5-1.5-4.1
	c0.1-1.4-0.4-2.1-1.7-2.5c-0.9-0.3-1.6-0.8-2.5-1.2c-0.9-0.4-1.7-1.6-2.9-0.5c1.2,0.8,2.3,1.7,3.5,2.4c0.7,0.5,1.2,1,1.3,1.9
	c0.3,1.9,0.9,3.6,2,5.2c1.2,1.7,2.2,3.6,3.5,5.2c1.3,1.8,1.5,3.7,1.4,5.8c-0.1,1.9-0.4,3.8-0.7,5.6c-0.2,0.9-0.7,1.8-2,1.5
	c-0.4-0.1-1.2,0.2-1.3,0.5c-0.3,0.9-0.6,1.9-0.5,2.9c0.2,3.2,0.7,6.3,0.6,9.5c0,2.7,0.4,5.3,1.3,7.8c0.6,1.5,0.5,2.9-0.1,4.2
	c-0.8,1.5-0.7,3-0.5,4.6c0.1,1-0.1,2.1-0.2,3.1c-0.2,2.3-0.5,4.6-0.7,7c-0.1,1.4-0.2,2.8-0.3,4.2c0,0.9,0.2,1.8,0.2,2.6
	c-0.1,1.2,0.8,1.6,1.6,2c0.3-0.2,0.7-0.6,1-0.5c0.8,0,1.1-0.5,1.5-1c0.6-0.9,0.3-1.6,0.1-2.5c-0.6-3-1.3-6.1-0.8-9.2
	c0.1-0.7-0.3-1.5-0.2-2.2c0.2-1.5,0.7-3,0.9-4.5c0.1-1.3,1-2.3,0.6-3.8c-0.5-1.9-0.3-3.9-0.9-5.7c-1.2-3.3-0.9-6.7-1.5-10
	c-0.1-0.3,0.1-0.8,0.4-1c0.3-0.1,0.8,0,1.3,0.1v-1.4c-0.8-0.1-1.4-0.3-2.1-0.4c-0.1-0.1-0.1-0.2-0.2-0.3c0.4-0.3,0.8-0.5,1.2-0.8
	c-0.1-1-0.1-1,0.9-2c0.3-0.3,0.4-0.8,0.6-1.2c0.1-0.3,0.1-0.6,0.2-0.9c0.8-2,1.6-4,2.3-6c0.1-0.2,0-0.5,0-0.8
	C146.6,43.1,146.4,42.1,146.3,41z"/>
<path class="st0" d="M138.9,98.2c0.2,1.8,0.3,3.4,0.4,5.1c0,0.3-0.4,0.8-0.7,0.8c-1.3,0.1-2.7,0.1-4,0.1c-0.4,0-0.9,0.2-1,0.4
	c-0.4,1.1-1.1,1.4-2,1.1c-0.5-0.7-0.9-1.4-1.6-1.7c-0.7-0.3-1.7-0.3-2.5-0.4c0-0.2,0-0.3,0-0.4c0.5-1.2,1.3-2.3,1.2-3.7
	c0-0.3,0.7-0.7,1.1-1c0.2-0.2,0.5-0.3,0.8-0.5c0-0.1-0.1-0.1-0.1-0.2c-0.4,0-0.7,0-1.1-0.1c0.1-0.3,0-0.5,0.1-0.6
	c1.5-1.7,1.6-2.4,0.3-4c-0.2-0.3-0.4-0.8-0.3-1.2c0.5-2.6,0.9-5.2,1.6-7.8c0.4-1.5,0.4-2.1-0.8-3.2c-0.3-0.3-0.6-0.9-0.5-1.2
	c0.9-2.2,1.4-4.5,3.2-6.2c0.3-0.3,0.5-0.7,0.5-1.1c0.1-1.9-1.5-2.8-2.4-4.2c-1-1.4-2.2-2.7-3.3-4c-0.2-0.2-0.2-0.7-0.1-1
	c0.2-0.8,0.6-1.5,0.8-2.3c0.3-1,0.7-2,0.7-3c0-1.3-0.4-2.5,0.2-3.8c0.2-0.5-0.2-1.3-1-1.6c-0.4-0.1-0.8-0.3-1.3-0.5
	c-0.8,0.6-0.7,1.4-0.8,2.3c-0.2,2.8-2,4.9-3.7,7c-0.5,0.7-1.4,1.1-1.7,1.8c-0.4,1.2-0.4,2.6-0.6,3.9c-0.1,1.2-0.2,2.4-0.5,3.5
	c-0.4,1.5-2.8,2.7-4.4,2.3c0-0.4,0-0.8,0.1-1.2c-0.2,0-0.5,0-0.5-0.1c-0.4-0.6-0.8-0.8-1.6-0.5c-1,0.3-0.7,1-1,1.6
	c-0.3,0.7-0.4,1.7-1.6,1.6c-0.8-0.1-1.6,0.1-2.4,0.3c-1.5,0.3-3.1,0.7-4.4,1c-0.5,0.5-0.9,0.9-1.3,1.3c-0.3-0.5-0.5-0.9-0.9-1.6
	c-0.2,0.1-0.8,0.2-0.9,0.5c-0.2,0.8-0.8,0.8-1.4,0.9c-1.6,0.2-3.2,0.3-4.3,1.8c-0.7,0.9-1.7,1.6-2.7,2.3c-1.6,1-3.3,0.2-4.9,0.1
	c-2-0.1-4.1-0.1-6.1,0c-0.5,0-0.9,0.6-1.4,0.9c1,0.1,1.8,0.1,2.5,0.2c1.6,0.3,3.2,0.7,4.8,0.9c2,0.3,4,0.7,5.8-0.4
	c0.9-0.5,1.7-1.3,2.6-1.9c0.7-0.5,1.4-1,2.1-1.4c0.7-0.3,1,0.1,1.2,0.7c0.2,0.4,0.4,0.8,0.8,1c0.6,0.3,1.2,0.5,1.8,0.7
	c-0.2,1.1-0.4,2.2-0.4,3.3c-0.2,2.5-1.9,4.2-3.4,6c-0.5,0.5-0.9,1.2-1.1,1.8c-0.2,0.7,0,1.6-0.3,2.3c-0.5,1.4-1,2.9-1.9,3.9
	c-0.6,0.7-1.4,1.2-1.9,2.1c-0.4,0.8-0.9,1.7-1.2,2.5c-0.4,1.2,1,2.8,2.5,3.3c1.4,0.4,2.8,0.7,4.2,0.5c0.7-0.1,1.4-0.1,2.1-0.1
	c-0.7-2.2-1.9-3-3.8-2.4c-0.2,0.1-0.7,0.2-0.8,0c-0.5-0.4-1.1-0.9-1.2-1.4c-0.1-0.7,0.3-1.3,1.3-1.5c0.6-0.1,1.3-0.5,1.6-0.9
	c0.7-0.9,1.6-1,2.2-0.1c0.6,1,1.2,1.9,1.9,3c-1.1,0.1-1.2,0.6-0.8,1.6h6.3c-0.3-0.7,0.2-1,0.7-1.4c0.6-0.5,1.6-1.2,1.5-1.6
	c-0.4-1.4,0.4-2.2,0.9-3.3c0.5-1,1.1-1.9,0-3c-0.4-0.4-0.3-1.1-0.4-1.5c0.7-0.3,1.5-0.4,1.6-0.8c0.1-0.3-0.3-1-0.5-1.4
	c-0.2-0.5-0.3-0.7,0-1.4c0.9-1.6,2.4-2.6,3.6-3.9c0.1-0.1,0.3-0.4,0.3-0.5c-0.4-1.6-0.5-3.4-1.2-4.8c-1-1.8-0.8-3.3-0.4-5.1
	c0.2-0.8,0.6-1.2,1.5-1.1c0.6,0.1,1.2,0,1.8,0V75c1.3-0.3,2.6-0.6,3.9-1.1c0.5-0.2,1.1-0.6,1.1-1c0.6-2.8,1-5.7,1.5-8.5
	c0.1-0.5,0.4-1,0.6-1.4c0.2,0.3,0.5,0.7,0.7,1c0,0,0.1,0.1,0.1,0.1c1.7,2.1,3.4,4.1,4.9,6.3c0.5,0.7,1,1.9,0.8,2.7
	c-0.3,1.3-1,2.6-1.9,3.6c-1.5,1.8-1.6,3.7-0.8,5.7c0.3,0.8,0.6,1.8,0.4,2.7c-0.4,2.4-1,4.7-1.5,7.1c-0.1,0.5,0,1.1,0.3,1.5
	c0.5,0.7,0.6,1.4,0,2c-0.6,0.6-1.2,1.3-1.8,1.9c-1.1,1.1-2,2.3-2.4,3.9c-0.2,0.8-0.4,1.7-0.8,2.4c-0.4,0.9-0.3,1.7,0.6,2.1
	c0.7,0.4,1.5,0.7,2.2,1.1c0.2,0.1,0.5,0.2,0.8,0.3c1.7,0.3,3.4,0.8,5.1,0.9c1,0.1,2,0.7,3.2,0.1c1.1-0.5,2.4-0.9,3.6-0.9
	c1.4,0,2.7-0.2,3.5-1c0.1-0.6,0.2-1.1,0.3-1.5c0.8-2.8,0.7-4.4-1.4-6.4C139.6,98.3,139.1,98.3,138.9,98.2z"/>
<path class="st0" d="M77.1,25.7c0.4-0.8,1.7-1.3,2.7-1.5c1.4-0.3,1.9-0.4,2.2-2c-3.5-0.2-6.2,1.3-8.6,3.5c-1.1,0.9-2.2,1.9-3.5,2.5
	c-1.2,0.5-2.6,0.6-3.9,0.8C65.4,29,65,29.1,64.5,29c-2.1-0.6-4.2-1.3-6.3-1.7c-0.6-0.1-1.4,0.1-1.9,0.4c-0.9,0.5-1.7,1.2-2.5,1.8
	c-0.3,0.2-0.8,0.3-1.2,0.5c-0.8,0.4-1.8,0.6-2.4,1.2c-1.6,1.7-2.9,3.7-4.5,5.4c-1.1,1.2-1.9,2.8-3.9,3.2c-0.7,0.1-1.2,1-1.8,1.6
	c-0.1,0.1,0.1,0.6,0.3,0.6c0.4,0.1,1,0.2,1.3,0c1.2-0.7,2.3-1.6,3.4-2.4c0.6-0.5,1.4-0.9,1.7-1.5c0.8-1.8,2.3-3.1,3.7-4.3
	c0.7-0.6,1.3-2.4,2.6-1c0.9-0.6,1.7-1.1,2.5-1.6c1.8-1.1,3.6-1.7,5.7-0.6c0.9,0.5,1.9,0.8,2.9,1.1c0.7,0.2,1.5,0.2,2.2,0.3
	c0,0.1,0,0.2,0,0.3c1-0.5,1.9-1.2,3-1.6c1.8-0.7,3.7-1.1,5.1-2.5C75.2,27.2,76.4,26.9,77.1,25.7z"/>
<path d="M43.1,127.9c0.9-0.3,1.7-0.7,2.6-1c0-0.1-0.1-0.2-0.1-0.3c1.2,0.2,2.3,0.5,2.6,1.9c0.1,0.3,0.8,0.7,1.1,0.6
	c1.5-0.5,3.1-0.1,4.5-0.5c1.2-0.3,2.4-1.2,3.2-2.2c1.2-1.3,1.2-3,0.9-4.8c-0.1-0.8,0.7-1.7,1.2-2.5c0.9-1.4,1.8-2.9,2.7-4.3
	c0.4-0.5,1-0.9,1.3-1.4c0.6-0.8,1.3-1.6,1.6-2.6c0.9-2.2,1.4-4.6,2.4-6.7c0.6-1.3,1.8-2.3,2.8-3.4c0.7-0.8,1.6-1.4,2.2-2.3
	c0.4-0.5,0.4-1.4,0.3-2.1c-0.3-1.9-1.2-3.7-0.2-5.6c0.4-0.8,0.9-1.7,1.4-2.5c1-1.4,2-2.8,2.3-4.6c0.1-0.5,0.7-1.1,1.2-1.5
	c0.4-0.3,1-0.5,1.5-0.7c1.3,0.4,1.5,0.7,0.6,2.2c-1.5,2.4-3,4.9-4.4,7.3c-0.9,1.5-0.7,3.1,0.1,4.6c0.3,0.6,0.9,1.2,0.2,2
	c-0.1,0.2,0.4,1,0.7,1.4c0.7,1,1.7,1.8,2.2,2.8c1.3,2.3,3,4.2,5.1,5.8c0.2,0.2,0.4,0.4,0.5,0.7c0.3,0.9,0.6,1.8,0.7,2.7
	c0.1,0.5-0.1,1.2-0.4,1.7c-0.6,0.8-1.3,1.5-2,2.2c-1.5,1.6-1.6,2-0.4,3.7c0.1,0.2,0.2,0.4,0.2,0.5c-0.4,0.6-0.6,1.1-0.9,1.5
	c-0.4,0.6-0.9,1.1-1.4,1.7c-0.6,0.7-1.2,1.3-1.8,2.1c-0.6,0.8-1.5,1-2.3,0.3c-0.8-0.7-1.7-1.4-2.8-1.8c-0.9-0.4-1.5-1.7-1.9-2.7
	c-0.5-1.3-0.5-2.8-0.8-4.3c-0.3-1.4-1.2-2.3-2.2-3.2c-0.2-0.1-0.8,0-0.9,0.1c-1.6,2-3.2,3.9-4.7,6c-0.5,0.7-0.8,1.5-0.9,2.4
	c-0.3,1.4-0.2,2.9-0.6,4.3c-0.4,1.5-1.1,2.9-1.8,4.3c-0.1,0.3-0.8,0.3-1.2,0.5c-0.4,0.2-0.8,0.4-1.1,0.6c-0.9,0.1-1.8,0.3-2.7,0.3
	c-1.7,0.1-3.4,0.3-5.1,0.2c-1.1,0-1.7-0.9-2-2.5c-1.9,1.2-3.9,1.2-6,0.5c-0.8-1.5,0.6-2.5,1-3.8c0.1-0.4,0.3-0.7,0.4-1.1
	c0.7-1.9,1.7-3.5,3.5-4.7c1.2-0.8,2.3-1.9,3.2-3c0.6-0.8,0.7-2,0.7-3c0.1-2,0-4.1,0.1-6.1c0-0.5,0.7-1,1.1-1.5
	c0.8-0.9,1.7-1.8,2.5-2.8c0.1-0.2,0.1-0.8-0.1-0.9c-1.9-1.1-2.1-3.3-3.2-5c-0.5-0.7-0.8-1.1-1.7-1.2c-0.5-0.1-1.1-0.8-1.2-1.3
	c-0.2-1.3-0.1-2.6-0.3-3.9c0-0.3-0.6-1-0.7-0.9c-1.5,0.6-2.1-0.7-3.1-1.3c-0.2-0.1-0.4-0.3-0.8-0.6c-0.1,0.9-0.7,1.4,0,2.3
	c0.4,0.5,0.3,1.6,0.2,2.4c-0.1,0.4-0.7,0.7-0.8,0.8c-0.9-0.3-1.5-0.6-2.1-0.8c-1.3-0.5-2.6-1-3.8-1.6c-1.3-0.7-2.4-0.1-2.8,1.7
	c-0.5,2.5-0.6,4.9-0.4,7.5c0.1,1-0.7,2-1,3c-0.1,0.3-0.2,0.6-0.3,0.9c-1.4,0-2.9,0.1-4.3,0c-0.4,0-0.9-0.5-1.2-0.8
	c-1.6-2.4-1.2-5-0.9-7.6c0.1-1.2,0.8-2.2,1.2-3.4c0.2-0.5,0.2-1,0.3-1.7c-1.4,0.6-2.6,0.5-3.4-0.4c-0.8-0.9-1.6-1.8-2.1-2.9
	c-0.5-1.1-0.5-2.2,0.2-3.4c0.5-0.8,0.4-2,0.5-2.9c0.1-0.4,0.2-0.7,0.3-1.1c0.1-0.4,0.3-0.8,0.4-1.2c-3.3-0.6-4.6,0.6-5.1,3
	c1.1-0.4,2.2-0.9,3.3-1.3c0,0,0,0.1,0.1,0.1c-0.9,0.7-1.9,1.3-2.8,2c-1.1,0.8-2.1,1.6-3.2,2.4c-0.2,0.1-0.3,0.3-0.5,0.4
	C13.1,86,12.9,86,12.6,86c0-0.2,0-0.5,0.1-0.7c0.4-0.5,0.9-0.9,1.3-1.5c1-1.5,2-3.1,2.9-4.6c0.1-0.1,0.1-0.4,0.1-0.7
	c-0.8,0.1-1.7,0.1-1.5-0.9c0.1-0.6,0.7-1.2,1.1-1.7c-0.1-0.1-0.1-0.2-0.2-0.3c-0.4,0.1-0.9,0.1-1,0.4c-0.3,1.1-1.4,1-2,1
	c-0.5,0-1-0.9-1.6-1.4c1.1-0.9,1.9-1.7,3.3-1.7c0.9,0,1.9-0.8,2.9-1.3c0.8-0.4,1.5-0.9,2.3-1.1c1.3-0.3,2,0.1,2,1.4
	c0,0.4,0,0.9,0.1,1.3c-0.6,0.1-1.5,0.1-2.1,0.5c-0.6,0.4-1,1.2-1.4,1.7c1.5,0.3,2.8,0.5,3.9,0.7c0.4-0.4,0.6-0.8,0.9-1.2
	c0.1-0.1,0.3-0.2,0.3-0.3c-0.1-2,1.6-2.2,2.8-2.7c0.9-0.4,1.7,0.5,1.6,1.4c0,0.4,0.1,0.9,0,1.3c-0.1,0.3-0.3,0.6-0.5,0.8
	c-0.7,0.7-1.4,1.3-2.1,2c-0.9,0.7-0.3,1,0.6,1.2c-0.6,0.7-1.1,1.3-1.6,1.9c-0.4,0.5-0.8,1.1,0,1.3c1.9,0.5,2.5,2,3.2,3.6
	c0,0.1,0.1,0.1,0.3,0.5c0.9-0.8,1.8-1.5,2.7-2.3c1.5-1.2,2.9-2.5,4.4-3.6c0.5-0.4,1.2-0.6,1.8,0.3c0.3,0.6,1.1,1,1.5,1.6
	c0.3,0.5,0.6,1.2,0.4,1.6c-0.5,1.3-1.3,2.4-2.7,2.9c-0.6,0.2-1,0.9-1.5,1.4c-0.1,0.1-0.1,0.2-0.1,0.3c-0.2,0.3-0.4,0.7-0.7,1
	c0.5,0.2,1,0.4,1.5,0.5c0.5,0.1,1,0.2,1.5,0.3c1.6,0.4,1.4,0.6,2.2-1.2c0.4-1,0.7-2,1-3c0.4-1.2,1.5-1.5,2.5-0.7
	c0.6,0.4,1.3,0.7,2,1c0.4-1,0.5-1.7,0.9-2.4c0.6-1.2,2-1.9,3.1-1.3c0.3,0.2,0.8,0,1.2,0.1c0.8,0.2,1.5,0.5,2.3,0.8
	c-0.2,1.4-0.9,2.1-1.9,2.5c-0.4,0.1-1.1,0-1.4-0.2c-0.9-0.8-1.4-0.7-1.7,0.1c0.8,0.8,1.4,1.6,1.8,2c-0.3,0.8-0.5,1.5-0.6,2
	c0.9,0.5,1.5,1,2.2,1.3c0.6,0.3,1.1,0.5,1.7-0.2c0.7-0.8,1.6-1.6,2.4-2.3c0.9-0.7,1-1.5,0.3-2.4c-0.1-0.1-0.1-0.2-0.1-0.2
	c0.7,0.1,1.6,0.4,2.3,0.2c1.2-0.4,1.5,0.6,1.5,1.2c-0.1,0.9-0.2,1.5,0.8,2.1c0.4,0.2,0.3,1.1,1.3,0.8c-0.1-1.7-0.1-3.4-0.3-5.1
	c0-0.2-0.2-0.4-0.4-0.5c-1-0.5-2-0.9-3-1.4c-1-0.4-1.3-1.2-1-2.4c0.8,0,1.6,0,2.4,0c0.6,0,1.2-0.2,1.9-0.3c0.9-0.2,1.7-0.5,2.3,0.5
	c0.7,1,1.4,1.9,2.1,2.9c-0.9,0-1.7-0.2-2.2,0.1c-0.6,0.4-0.7,1.1-0.5,2c0.2,0.7,0,1.5,0.1,2.3c0,0.3,0.2,0.7,0.4,1
	c0.3-0.2,0.6-0.3,0.8-0.5c1-1.4,1-2-0.1-3.2c0.6,0,1.1,0,2,0c-0.7,1.7-1.3,3.3-2.1,4.9c-0.8,1.6-0.8,2,0.7,3.2
	c1.4,1.2,1.4,1.3,0.4,3.2c-1.1-0.5-2.2-1.1-3.4-1.6c-0.4-0.1-1,0.1-1.4,0.3c-0.5,0.4-1,0.9-1.4,1.4c-0.8,0.8-1,1.9-1,3
	c0,1,0,1.8-1.4,1.9c-0.6,0-1.4,1.3-1.3,1.5c-0.6,0.7-1.2,1.4-1.8,2c-1.3,1.5-1.8,3.3-1.8,5.2c0,1.4,0,2.8,0,4.2
	c0.1,1.4-0.4,2.3-1.7,3.1C44.6,121.8,44.2,123.3,43.1,127.9z M75,107.8c0,1.5,1.5,2.7,2.8,2.1c0.3-0.1,0.6-0.5,0.9-0.7
	c1.9-1.5,1.9-1.6-0.1-2.9c0,0-0.1,0-0.1-0.1c-0.6-0.3-1-0.6-1.6,0.2C76.4,107,75.6,107.4,75,107.8c0.2-0.3,0.4-0.9,0.7-1.1
	c0.9-0.3,1-1.2,1-1.8c-0.1-0.6-0.5-1.3-1.1-1.6c-0.6-0.4-1.3-0.2-1.8,0.6c-0.5,0.7-1.1,1.2-1.8,1.9C72.3,106.8,73.7,107.8,75,107.8z
	 M70.2,106.8c0.1-0.3,0.2-0.6,0.3-0.9c-1.7-0.1-1.8,0-1.6,1.5c0.4-0.1,0.7-0.2,1.1-0.3c-0.1,0.1-0.2,0.3-0.3,0.4
	c-0.6,1-1.8,1.7-1.2,3c0.6,0.3,1,1,1.4,1c1,0,1.5,0.7,2.1,1.2c1.1,1,1.8,1,2.7-0.1c0.1-0.1,0.2-0.4,0.3-0.5c0.7-0.4,1.3-1.1,0.8-1.7
	c-0.5-0.6-1.4-1.1-2.2-1.3c-0.4-0.1-0.9,0.5-1.4,0.7c0.1-0.3,0.2-0.6,0.5-0.7c0.9-0.5,0.9-1,0-1.6c-0.2-0.1-0.3-0.3-0.4-0.5
	C71.8,106.2,71.1,106.1,70.2,106.8z M56.7,96.3c0.5,0,0.8,0,1-0.1c0.7-0.7,1.4-1.4,2-2.1c0.1-0.2,0-0.8-0.1-0.8
	c-1-0.4-1.4-1.2-1.9-2.1c-0.5-0.9-1.6-0.9-2.2,0c-0.3,0.4-0.6,0.8-1,1c-1.8,1.2-1.8,1.9-0.1,3.1c0.2,0.2,0.5,0.4,0.7,0.4
	c0.4,0,0.9-0.1,1.3-0.3c0.2-0.1,0.3-0.6,0.5-0.9c0.1,0.1,0.2,0.2,0.3,0.3C57,95.3,56.9,95.7,56.7,96.3z M30.5,90.4
	c-0.2-0.1-0.4-0.2-0.5-0.2c-0.3,0.5-0.8,1-1,1.6c-0.5,1.4-0.7,2.9-1.4,4.2c-0.9,1.5-0.4,3.1-0.7,4.7c-0.1,0.4,0.6,1,1.1,1.5
	c0.1,0.1,0.8-0.3,0.9-0.6c0.2-0.7,0.4-1.4,0.4-2.1c0-1.8-0.2-3.6,0.4-5.4C30,92.8,30.2,91.6,30.5,90.4z M79.4,114
	c-0.1-0.2-0.2-0.4-0.3-0.6c-1.2-1.5-2.2-1.6-3.6-0.3c-0.6,0.5-1.7,1.1-1.1,2c0.5,0.8,1.5,1.2,2.3,1.8c0.1,0.1,0.6,0,0.7-0.2
	c0.4-0.4,0.8-0.9,1.2-1.4C78.9,114.9,79.1,114.5,79.4,114z M74,116.3c-0.2,0.7-0.2,1.3-0.4,1.6c-0.6,0.6-0.7,1.2-0.2,1.8
	c0.7,0.8,1.5,1.6,2.4,2c0.3,0.1,1.3-0.8,1.6-1.4c0.2-0.5-0.2-1.3-0.5-1.9c-0.1-0.3-0.5-0.5-0.9-0.8C75.3,117.1,74.7,116.7,74,116.3z
	 M69.6,104.8c0.9,0,1.7,0.2,2.3,0c0.9-0.4,1.6-1.1,2.4-1.8c0.2-0.2,0.3-0.7,0.2-0.9c-1-1.4-1.7-1.3-2.8,0.1c-0.3,0.4-0.7,0.6-1,0.9
	C70.2,103.6,70,104.2,69.6,104.8z M56.2,97.3c-0.4-0.1-0.8,0-0.9-0.1c-0.8-0.7-1.6-1.5-2.5-2.1c-0.3-0.2-0.9-0.1-1.3-0.1
	c0,0.4-0.2,0.9,0,1.1c0.9,0.9,1.9,1.7,3,2.6c0,0.1-0.2,0.5-0.4,1.1C55.6,99.6,55.8,98.5,56.2,97.3z M80.6,109.1
	c-0.3-0.1-0.4-0.1-0.4-0.1c-0.6,0.6-1.2,1.1-1.7,1.7c-0.5,0.7,0.3,0.9,0.7,1.2c0.1,0.1,0.1,0.3,0.2,0.4c0.3,0.2,0.6,0.5,0.8,0.5
	c0.2,0,0.6-0.4,0.6-0.7C80.8,111.1,80.6,110.1,80.6,109.1z M51.3,93.6c-0.7-0.6-1.2-1-1.6-1.4c-0.2,0.4-0.6,0.7-0.6,1.1
	c-0.1,0.5,0.1,1.2,0.9,1.1C50.3,94.3,50.6,94,51.3,93.6z M32.6,87.1c-1.3,0.1-2,0.6-2.4,1.4c-0.1,0.3,0.2,0.7,0.3,1
	c0.3-0.1,0.6-0.2,0.8-0.4C31.8,88.6,32.1,88,32.6,87.1z"/>
<path d="M107.2,105.7c-2.2,0-4.3,0-6.3,0c-0.4-1-0.2-1.5,0.8-1.6c-0.7-1.1-1.3-2.1-1.9-3c-0.6-1-1.5-0.9-2.2,0.1
	c-0.3,0.5-1,0.8-1.6,0.9c-0.9,0.2-1.4,0.8-1.3,1.5c0.1,0.5,0.7,1,1.2,1.4c0.2,0.1,0.6,0.1,0.8,0c1.9-0.7,3.1,0.2,3.8,2.4
	c-0.8,0-1.5,0-2.1,0.1c-1.5,0.2-2.8-0.1-4.2-0.5c-1.5-0.4-2.9-2.1-2.5-3.3c0.3-0.9,0.8-1.7,1.2-2.5c0.4-0.9,1.3-1.4,1.9-2.1
	c0.9-1.1,1.4-2.6,1.9-3.9c0.3-0.7,0.1-1.6,0.3-2.3c0.2-0.7,0.6-1.3,1.1-1.8c1.5-1.8,3.2-3.4,3.4-6c0.1-1.1,0.3-2.2,0.4-3.3
	c-0.6-0.2-1.3-0.4-1.8-0.7c-0.3-0.2-0.6-0.6-0.8-1c-0.3-0.6-0.5-1-1.2-0.7c-0.7,0.4-1.4,0.9-2.1,1.4c-0.9,0.6-1.7,1.3-2.6,1.9
	c-1.8,1.1-3.8,0.7-5.8,0.4c-1.6-0.2-3.2-0.6-4.8-0.9c-0.7-0.1-1.5-0.1-2.5-0.2c0.5-0.3,0.9-0.9,1.4-0.9c2-0.1,4.1,0,6.1,0
	c1.7,0.1,3.4,0.9,4.9-0.1c1-0.6,2-1.4,2.7-2.3c1.1-1.5,2.7-1.6,4.3-1.8c0.7-0.1,1.2-0.1,1.4-0.9c0.1-0.3,0.7-0.4,0.9-0.5
	c0.4,0.7,0.6,1.1,0.9,1.6c0.4-0.4,0.8-0.8,1.3-1.3c1.3-0.3,2.8-0.7,4.4-1c0.8-0.2,1.6-0.4,2.4-0.3c1.3,0.1,1.3-1,1.6-1.6
	c0.3-0.6,0.1-1.3,1-1.6c0.8-0.3,1.2-0.1,1.6,0.5c0.1,0.1,0.4,0.1,0.5,0.1c0,0.4-0.1,0.8-0.1,1.2c1.5,0.4,4-0.9,4.4-2.3
	c0.3-1.1,0.3-2.3,0.5-3.5c0.2-1.3,0.2-2.7,0.6-3.9c0.2-0.7,1.2-1.2,1.7-1.8c1.6-2.1,3.4-4.2,3.7-7c0.1-0.9,0-1.7,0.8-2.3
	c0.4,0.2,0.8,0.4,1.3,0.5c0.8,0.3,1.3,1.1,1,1.6c-0.6,1.3-0.2,2.5-0.2,3.8c0,1-0.4,2-0.7,3c-0.2,0.8-0.6,1.5-0.8,2.3
	c-0.1,0.3-0.1,0.8,0.1,1c1.1,1.4,2.4,2.6,3.3,4c0.9,1.3,2.6,2.3,2.4,4.2c0,0.4-0.3,0.8-0.5,1.1c-1.8,1.7-2.3,4-3.2,6.2
	c-0.1,0.3,0.2,0.9,0.5,1.2c1.1,1.1,1.2,1.7,0.8,3.2c-0.6,2.6-1.1,5.2-1.6,7.8c-0.1,0.4,0.1,0.9,0.3,1.2c1.3,1.7,1.3,2.4-0.3,4
	c-0.1,0.1-0.1,0.3-0.1,0.6c0.4,0,0.8,0,1.1,0.1c0,0.1,0.1,0.1,0.1,0.2c-0.3,0.2-0.5,0.3-0.8,0.5c-0.4,0.3-1.2,0.7-1.1,1
	c0.1,1.4-0.7,2.5-1.2,3.7c0,0.1,0,0.2,0,0.4c0.8,0.1,1.7,0.1,2.5,0.4c0.7,0.3,1.1,1.1,1.6,1.7c0.9,0.3,1.7,0,2-1.1
	c0.1-0.2,0.7-0.4,1-0.4c1.3-0.1,2.7,0,4-0.1c0.3,0,0.7-0.6,0.7-0.8c-0.1-1.6-0.2-3.3-0.4-5.1c0.2,0.1,0.7,0,0.9,0.3
	c2.1,2,2.2,3.5,1.4,6.4c-0.1,0.4-0.2,0.9-0.3,1.5c-0.8,0.8-2.1,1-3.5,1c-1.2,0-2.5,0.4-3.6,0.9c-1.1,0.6-2.1-0.1-3.2-0.1
	c-1.7-0.1-3.4-0.6-5.1-0.9c-0.3-0.1-0.5-0.2-0.8-0.3c-0.8-0.4-1.5-0.7-2.2-1.1c-0.9-0.4-1-1.2-0.6-2.1c0.4-0.8,0.6-1.6,0.8-2.4
	c0.4-1.6,1.3-2.8,2.4-3.9c0.6-0.6,1.2-1.3,1.8-1.9c0.6-0.7,0.5-1.3,0-2c-0.3-0.4-0.3-1-0.3-1.5c0.5-2.4,1.1-4.7,1.5-7.1
	c0.1-0.8-0.1-1.8-0.4-2.7c-0.7-2.1-0.7-3.9,0.8-5.7c0.9-1,1.6-2.3,1.9-3.6c0.2-0.8-0.3-1.9-0.8-2.7c-1.6-2.2-3.3-4.2-4.9-6.3
	c0,0-0.1-0.1-0.1-0.1c-0.2-0.3-0.5-0.7-0.7-1c-0.2,0.5-0.5,0.9-0.6,1.4c-0.5,2.8-0.9,5.7-1.5,8.5c-0.1,0.4-0.7,0.9-1.1,1
	c-1.3,0.4-2.6,0.7-3.9,1.1c0,0.4,0,0.6,0,0.9c-0.6,0-1.2,0.1-1.8,0c-0.9-0.1-1.3,0.3-1.5,1.1c-0.4,1.7-0.6,3.3,0.4,5.1
	c0.8,1.4,0.9,3.2,1.2,4.8c0,0.2-0.2,0.4-0.3,0.5c-1.3,1.2-2.7,2.2-3.6,3.9c-0.3,0.6-0.2,0.9,0,1.4c0.2,0.5,0.6,1.1,0.5,1.4
	c-0.2,0.4-0.9,0.5-1.6,0.8c0.1,0.4,0,1.2,0.4,1.5c1.1,1.1,0.5,2,0,3c-0.5,1-1.3,1.9-0.9,3.3c0.1,0.4-0.9,1.1-1.5,1.6
	C107.4,104.6,106.9,105,107.2,105.7z M108.6,79.3c0,1.9,0.7,2.8,2.2,2.5c-0.2-1-0.5-2-0.7-3C109.6,78.9,109.1,79.1,108.6,79.3
	c0.4-0.3,1-0.6,1.4-1.1c0.3-0.3,0.7-0.8,0.8-1.2c0-0.3-0.7-0.9-0.9-0.9c-1,0.3-1.9,0.8-2.8,1.2c-0.1,0.1-0.2,0.5-0.1,0.7
	C107.4,78.6,107.6,79.5,108.6,79.3z M105.7,81.9c0.3-0.4,0.7-0.8,1-1.2c0.2-0.4,0.6-1,0.5-1.3c-0.2-0.5-0.8-1-1.3-1.1
	c-0.4-0.1-1.2,0.2-1.3,0.4c-0.2,0.8-0.3,1.6-0.3,2.4c0,0.4,0.3,0.8,0.4,1.2C105,82.2,105.4,82,105.7,81.9c-1,1.1-1.7,2.3-1.3,4
	c0.4,0,0.7,0,1.1,0.1c0,0.7-0.1,1.4,0.1,2c0.2,0.3,1.2,0.7,1.4,0.5c1.2-0.9,2.3-1.9,3.4-3c0.2-0.2,0.3-1.1,0.2-1.2
	c-0.5-0.3-0.9-0.9-1.6-0.3c-1.1,0.8-2.3,1.3-3.5,2c0.9-0.7,1.8-1.6,2.9-2.2c1.1-0.6,1.3-1,0.4-1.9c-1.1-1.2-1.1-1.2-2.5-0.2
	C106.1,81.8,105.9,81.9,105.7,81.9z M101,92.2c-0.4,0.2-1,0.4-1.2,0.8c-0.1,0.2,0.4,0.8,0.5,1c-0.6,1.1-1.3,2.2-1.9,3.4
	c-0.1,0.3,0,0.9,0.2,1.1c0.3,0.2,1,0.3,1.2,0.1c0.9-0.6,1.7-1.4,2.5-2.2c1-1.1,0.3-2.7-1.1-2.9C101.1,93.1,101,92.7,101,92.2
	c0.7,0.4,1.4,0.2,2-0.4c0.4-0.4,1-0.6,1.3-1.1c0.3-0.4,0.7-0.9,0.7-1.4c0-0.7-0.5-1-1.3-1c-0.7,0-1.2,0.2-1.5,0.9
	c-0.2,0.4-0.4,0.9-0.8,1.1C100.6,90.9,100.4,91.5,101,92.2z M102.5,102.1c0.1,0.5,0,1,0.2,1.3c0.2,0.2,0.9,0.3,1.2,0.2
	c0.8-0.3,1.5-0.6,2.2-1.1c0.2-0.1,0.4-0.6,0.4-0.8c-0.1-0.9,1-2.4-1-2.6c0,0-0.1-0.2-0.1-0.3c-0.8-2.1-1.7-2.4-3.3-0.9
	c-0.4,0.4-0.9,0.6-1.3,1c-0.3,0.3-0.5,0.7-0.5,1C100.3,100.9,101.6,102.1,102.5,102.1z M107.2,92.2c-0.3-0.5-0.6-1.1-1-1.3
	c-0.4-0.2-1.1,0-1.6,0.2c-0.5,0.3-0.9,0.8-1.4,1.1c-0.7,0.3-1.1,0.7-0.8,1.4c0.6,1.2,1.4,1.6,2.2,1c0.8-0.6,1.5-1.4,2.3-2
	C107.1,92.5,107.1,92.3,107.2,92.2z M111.9,86c-0.1-0.1-0.3-0.2-0.4-0.3c-0.7,0.5-1.3,0.9-2,1.4c-0.7,0.5-1.3,1.1-1.9,1.7
	c-0.3,0.3-0.4,0.8-0.3,1.2c0.1,0.3,0.6,0.7,0.8,0.6c0.4-0.1,0.8-0.4,1.1-0.7c0.5-0.6,1-1.2,1.4-1.8C111.1,87.5,111.5,86.7,111.9,86z
	 M107.3,98.7c0.2-0.1,0.3-0.3,0.5-0.4c-0.2-0.9-0.4-1.8-0.6-2.7c-0.1-0.4-0.4-1.1-0.5-1.1c-0.5,0.1-1.2,0.2-1.4,0.6
	c-0.3,0.4-1.3,0.9-0.4,1.7c0.3,0.3,0.6,0.6,0.9,0.9C106.2,98,106.8,98.3,107.3,98.7z M128.9,99c-1.4-0.1-3.4,2-3.2,3
	c0.1,0.3,0.2,0.6,0.4,0.8c0.2,0.1,0.7,0.2,0.7,0.1c0.3-0.8,0.6-1.6,0.9-2.4C128,100.1,128.3,99.7,128.9,99z"/>
<path d="M132.4,22.4c1.2-1.1,2,0.1,2.9,0.5c0.8,0.3,1.6,0.9,2.5,1.2c1.3,0.4,1.8,1.1,1.7,2.5c-0.1,1.6,0.7,2.8,1.5,4.1
	c0.8,1.2,1.7,2.4,2.5,3.6c0.9,1.4,1.7,2.9,2.4,4.4c0.3,0.7,0.2,1.6,0.4,2.4c0.2,1.1,0.4,2.1,0.6,3.2c0,0.3,0.1,0.5,0,0.8
	c-0.8,2-1.6,4-2.3,6c-0.1,0.3-0.1,0.6-0.2,0.9c-0.2,0.4-0.3,0.9-0.6,1.2c-1,1-1.1,1-0.9,2c-0.4,0.3-0.8,0.6-1.2,0.8
	c0.1,0.1,0.1,0.2,0.2,0.3c0.6,0.1,1.3,0.2,2.1,0.4c0,0.5,0,1.1,0,1.4c-0.5,0-1-0.2-1.3-0.1c-0.2,0.1-0.4,0.7-0.4,1
	c0.7,3.3,0.3,6.7,1.5,10c0.7,1.8,0.4,3.8,0.9,5.7c0.4,1.4-0.4,2.5-0.6,3.8c-0.2,1.5-0.6,3-0.9,4.5c-0.1,0.7,0.3,1.5,0.2,2.2
	c-0.5,3.2,0.2,6.2,0.8,9.2c0.2,0.9,0.6,1.6-0.1,2.5c-0.4,0.6-0.7,1.1-1.5,1c-0.3,0-0.7,0.4-1,0.5c-0.8-0.4-1.7-0.8-1.6-2
	c0-0.9-0.2-1.8-0.2-2.6c0-1.4,0.1-2.8,0.3-4.2c0.2-2.3,0.5-4.6,0.7-7c0.1-1,0.3-2.1,0.2-3.1c-0.2-1.6-0.3-3,0.5-4.6
	c0.6-1.3,0.7-2.7,0.1-4.2c-0.9-2.5-1.3-5.1-1.3-7.8c0-3.2-0.5-6.3-0.6-9.5c0-1,0.2-2,0.5-2.9c0.1-0.3,0.9-0.5,1.3-0.5
	c1.3,0.3,1.8-0.6,2-1.5c0.4-1.8,0.6-3.7,0.7-5.6c0.1-2-0.1-4-1.4-5.8c-1.2-1.7-2.3-3.5-3.5-5.2c-1.1-1.6-1.7-3.3-2-5.2
	c-0.1-0.9-0.6-1.4-1.3-1.9C134.7,24.1,133.6,23.2,132.4,22.4z"/>
<path d="M116.9,10.2c-0.3-0.1-0.4-0.1-0.5-0.1c-1.8,1.2-3-0.1-4.3-0.9c-0.4-0.3-0.9-0.4-1.2-0.6c-0.9,1.7-1.7,3.2-2.6,4.7
	c-0.3,0.4-1,0.6-1.6,0.6c-1.1,0-2.2-0.4-2.8,0.9c0,0.1-0.2,0.1-0.3,0.1c-1.6,0-3,0.3-4.5,1.2c-0.8,0.5-2,0.4-3,0.6
	c-0.4,0.1-0.9,0.3-1.2,0.6c-1.6,1.8-3.2,3.6-4.8,5.5c-0.5,0.6-1.1,1.2-1.4,2c-0.3,0.8-0.9,0.6-1.4,0.5c-0.2,0-0.3-0.7-0.2-1.1
	c0.2-1,0.6-1.8,1.7-2.4c1.5-0.9,2.2-2.6,3.2-3.9c0.9-1.2,1.5-2.7,3.1-3.3c1-0.4,2.2-0.4,3.3-0.6c0.3-0.1,0.7-0.1,1-0.2
	c1.1-0.4,2.1-0.8,3.2-1.2c0.5-0.2,1.1-0.4,1.6-0.7c1.4-0.8,3.4-0.7,4.2-2.7c0.3-0.7,0.6-1.4,0.8-2.1c0.3-1.1,1.8-1.7,2.8-1.1
	c1.3,0.8,2.2,2.2,3.9,2.4c0.3,0.1,0.6,0.6,1,0.9c0-3.7,2.9-4.1,5.2-5.1c1.4-0.6,2.8-0.9,4.2-1.5c0.7-0.3,1-1.2,1.7-1.6
	c1.9-1.2,4.6-1.7,6.4-0.1c1.1,0.9,1.7,2.5,2.2,3.9c0.4,1.3,0.5,2.8-0.2,4.1c-0.2,0.5-0.6,1.2-1.1,1.2c-1.4,0.3-2.1,1.3-2.9,2.2
	c-0.5,0.6-1.2,1-1.7,1.6c-1.3,1.7-1.4,3.7-0.9,5.6c0.1,0.5,1.1,0.8,1.5,1.1c-1.6,0.1-2.6-1-2.3-2.8c0.1-0.8-0.1-1.7,0.1-2.5
	c0.3-0.8,0.9-1.4,1.4-2.1c1.2-1.6,2.8-2.7,4.4-3.8c0.2-0.2,0.4-0.8,0.3-0.9c-1-1-0.5-2.3-0.9-3.5c-0.4-1.2-1.8-2.7-3-2.7
	c-0.6,0-1.3,0.6-1.9,0.9c-0.7,0.4-1.3,1.1-2.1,1.4c-1.8,0.6-3.8,0.8-5.6,1.6c-1.1,0.5-2,1.7-2.9,2.7c-0.6,0.7-1.5,1.3-1.4,2.5
	c0,0.1-0.5,0.3-0.8,0.5c-0.1-0.1-0.1-0.1-0.2-0.2C116.5,11.4,116.6,10.9,116.9,10.2z"/>
<path d="M55.3,68.1c-0.7-0.4-1.6,0.6-2.1-0.4c-0.2-0.5-0.5-1.1-0.4-1.6c0.2-0.7-0.1-1.1-0.6-1.5c-1.3-0.9-2.5-1.8-3.8-2.7
	c0.6-1.8,0.4-4.6-1.8-5.6c-0.7-0.3-1.9-0.7-1.4-2.1c-0.4-0.1-0.9-0.3-1.1-0.1c-0.8,0.4-1.5,0.9-2.2,1.4c-0.1-0.1-0.1-0.2-0.2-0.3
	c0.7-0.8,1.4-1.6,2.1-2.4c0.5-0.5,1-0.3,1.3,0.2c0.3,0.5,0.5,1,0.8,1.2c1.1,0.5,2.2,0.9,3.2,1.4c1.1,0.6,1.5,1.7,1.5,2.8
	c-0.1,2.2,1.4,3.2,2.9,4.2c0.8,0.5,1.7,0.9,2.4,1.3c0.4,2,0.7,4.1,1.3,6.1c0.5,2,2.1,1.9,3.3,1.2c2-1.2,3.8-2.4,5.8-3.6
	c0.8-0.5,1.8-0.6,2.6-1c1-0.5,1.4-1.4,1.2-2.7c-0.1-1.2-1-1.5-1.9-1.7c-0.5-0.1-1.1-0.1-1.6,0.1c-1.2,0.4-1.8-0.1-2.3-1
	c-0.4-0.8-1-1.6-1.2-2.5c-0.2-0.6,0-1.3,0.2-2c0.3-1.4,0.7-2.8,1.1-4.3c-0.9-0.2-1.7-0.4-2.4-0.6c-0.2-0.1-0.6-0.2-0.7-0.4
	c-0.5-1.1-1.6-2-1.3-3.6c0.4-1.6-0.5-2.7-1.9-2.7c-1.4-0.1-2.8-0.3-4.2-0.4c-0.2-0.5-0.5-1.2-0.7-1.8c-0.3-0.8,0.2-1.3,1.5-1.3
	c-0.1,1.4,1,1.5,2,1.7c1.6,0.3,3.2,0.7,5.1,1.1c0.1,1.1,0.2,2.3,0.3,3.4c0,0.4,0,0.9,0,1.3c0.1,1.9,1.8,1.7,3,2.3
	c0.9,0.4,1.8,0.8,2.6,1.3c0.3,0.2,0.3,0.8,0.3,1.4c-1.3-1-1.9,0-2.2,0.7c-0.7,1.4-0.7,3-0.3,4.5c0.2,0.9,0.8,1.5,1.9,1.4
	c0.6-0.1,1.3-0.1,1.9,0c1.6,0.3,2.6,1.1,2.8,2.8c0.1,1,0.2,1.9,0.1,2.9c0,0.4-0.6,0.9-1,1.2c-0.7,0.5-1.4,0.9-2.2,1.4
	c-0.8,0.4-1.7,0.8-2.5,1.2c-1,0.5-2.1,0.8-2.9,1.5c-1.2,0.9-2.5,1-3.9,1.2c-1.1,0.1-2.3,0.6-3-0.7c-0.5-0.9-0.8-2-1.1-3
	C55.5,69.1,55.4,68.5,55.3,68.1z"/>
<path d="M4.5,65.1c0.9-1.2,1.8-2.3,2.6-3.5c0.7-1.1,0.6-2.3,0.2-3.5c-0.6-2.1,0.1-3.9,0.9-5.8c0.1-0.3,0.4-0.6,0.5-0.9
	c0.5-1.9,1.8-2.5,3.6-2.7c1.5-0.2,3-0.3,4.4,0.3c0.1,0.1,0.2,0.1,0.6,0.4c-0.5,0-0.9,0.2-1.1,0c-2-0.9-3.8,0-5.6,0.6
	c-1.2,0.4-1.4,1.8-1.5,2.9c-0.1,2.2,0,4.3,1,6.3c0.5,1,0.1,2-0.3,2.9c-0.9,1.9-1.7,3.9-2.6,5.8c-0.4,0.9-1.1,1.7-1.3,2.7
	c-0.4,1.8-2.2,2.4-3.1,3.7c-0.6,0.8-1,1.5-0.8,2.6c0.2,1.2,0.3,2.4,0.5,3.6c0.3,1.5,1,2,2.6,1.7c1.7-0.3,2.7,0.3,3.1,1.9
	c0.2,0.7,0.4,1.4,0.8,1.9c0.8,0.5,1.8,0.8,2.3,1.5c1.1,1.5,0.9,1.6,3,1.8c-0.1,0.4-0.2,0.8-0.3,1.2c-0.1,0.4-0.2,0.7-0.3,1.1
	c-3.1,0.8-4.4,0.3-4.5-2.1c-0.3-0.1-0.7-0.3-1.1-0.3c-0.8-0.1-1.3-0.4-1.4-1.4c-0.1-0.8-0.5-1.5-0.9-2.3C5.5,85.3,5,85,4.8,85.1
	c-0.7,0.3-1.1,0-1.6-0.5c-0.5-0.6-1.3-1.2-1.8-1.8C0.9,82,0.2,81.2,0,80.4c-0.6-2.7-0.8-5.3,1.3-7.7c1.4-1.6,2.9-3.3,3.4-5.5
	c0.1-0.7,0.1-1.4,0.1-2.1C4.7,65.1,4.6,65.1,4.5,65.1z"/>
<path d="M82,22.2c-0.4,1.5-0.9,1.7-2.2,2c-1,0.2-2.3,0.7-2.7,1.5c-0.6,1.2-1.8,1.6-2.7,2.4c-1.4,1.4-3.4,1.8-5.1,2.5
	c-1,0.4-2,1.1-3,1.6c0-0.1,0-0.2,0-0.3c-0.7-0.1-1.5-0.1-2.2-0.3c-1-0.3-2-0.6-2.9-1.1c-2.1-1.1-3.9-0.5-5.7,0.6
	c-0.8,0.5-1.6,1-2.5,1.6c-1.3-1.3-1.9,0.4-2.6,1c-1.4,1.3-2.9,2.5-3.7,4.3c-0.3,0.6-1.1,1.1-1.7,1.5c-1.1,0.8-2.2,1.7-3.4,2.4
	c-0.3,0.2-0.9,0.1-1.3,0c-0.1,0-0.3-0.6-0.3-0.6c0.6-0.6,1.1-1.4,1.8-1.6c1.9-0.4,2.7-2,3.9-3.2c1.6-1.7,2.9-3.7,4.5-5.4
	c0.6-0.6,1.6-0.8,2.4-1.2c0.4-0.2,0.8-0.3,1.2-0.5c0.8-0.6,1.6-1.3,2.5-1.8c0.6-0.3,1.4-0.5,1.9-0.4c2.1,0.5,4.2,1.2,6.3,1.7
	c0.4,0.1,0.9,0,1.4-0.1c1.3-0.2,2.7-0.3,3.9-0.8c1.3-0.6,2.4-1.5,3.5-2.5C75.8,23.5,78.5,22,82,22.2z"/>
<path d="M19.4,65.7c0,2.4-1.9,4-4.3,3.7c-2.1-0.3-2.8-0.8-3.1-2.4c-0.2-1.2,0.9-2.8,1.7-3.7c1.3-1.4,2.7-1.1,4.2-0.8
	c1.1,0.2,1.5,0.7,1.4,1.7C19.2,64.8,19.4,65.2,19.4,65.7z"/>
<path d="M43.8,64.8c-0.5,1-0.8,2.1-1.5,3.1c-0.8,1.2-3.2,0.9-4-0.2c-0.7-1-1.4-1.9-1.2-3.2c0-0.1,0-0.2,0-0.4c0.5-1.7,2.2-2,3.4-2.7
	c1-0.5,1.9,0.4,2.5,1.2C43.5,63.2,43.6,63.9,43.8,64.8z M38.4,65.6c0,0.9,1.1,2.1,2,2.1c0.9,0,1.1-0.1,1-0.9
	C40.3,66.4,39.4,66,38.4,65.6z"/>
<path d="M21.5,44.1c1,0,1.8,0,2.4,0c0.1,0.3,0,0.7,0.2,0.9c0.9,0.7,2.6,0.3,3.3-0.6c0.1-0.2,0.5-0.2,0.8-0.3c0.7-0.1,1.6,0,2.2-0.3
	c0.5-0.2,0.9-0.9,1.2-1.5c0.2-0.4,0.3-0.8,0.4-1.2c0.2-0.5,0.4-0.8,1-0.5c1.8,0.7,3.6,1.3,5.5,1.9c0,0.2-0.1,0.3-0.1,0.5
	c-0.5-0.1-0.9-0.2-1.4-0.4c-1.1-0.4-2.1-0.9-3.2-1.1c-1.4-0.2-1.8,0.1-1.8,1.6c0,0.9-0.3,1.4-1.2,1.6c-1.3,0.4-2.5,0.9-3.7,1.2
	c-1.6,0.4-3.2,0.1-4.7-0.7C22.1,45,21.9,44.5,21.5,44.1z"/>
<path class="st0" d="M70.2,106.8c0.9-0.7,1.6-0.7,2.2,0.4c0.1,0.2,0.2,0.4,0.4,0.5c0.9,0.5,0.9,1,0,1.6c-0.2,0.1-0.4,0.4-0.5,0.7
	c0.5-0.3,1-0.8,1.4-0.7c0.8,0.2,1.7,0.7,2.2,1.3c0.5,0.6-0.1,1.3-0.8,1.7c-0.2,0.1-0.2,0.3-0.3,0.5c-1,1.1-1.6,1.1-2.7,0.1
	c-0.6-0.5-1-1.2-2.1-1.2c-0.4,0-0.9-0.7-1.4-1c-0.7-1.3,0.6-2,1.2-3c0.1-0.1,0.2-0.3,0.3-0.4C70.1,107,70.1,106.9,70.2,106.8z"/>
<path class="st0" d="M56.7,96.3c0.2-0.6,0.3-1.1,0.5-1.5c-0.1-0.1-0.2-0.2-0.3-0.3c-0.1,0.3-0.2,0.7-0.5,0.9
	c-0.4,0.2-0.9,0.3-1.3,0.3c-0.2,0-0.5-0.3-0.7-0.4c-1.7-1.2-1.6-1.9,0.1-3.1c0.4-0.3,0.7-0.7,1-1c0.6-0.8,1.7-0.8,2.2,0
	c0.5,0.9,0.9,1.7,1.9,2.1c0.1,0,0.2,0.7,0.1,0.8c-0.6,0.8-1.3,1.5-2,2.1C57.5,96.4,57.2,96.3,56.7,96.3z"/>
<path class="st0" d="M30.5,90.4c-0.3,1.2-0.5,2.5-0.9,3.7c-0.6,1.8-0.5,3.6-0.4,5.4c0,0.7-0.1,1.4-0.4,2.1c-0.1,0.3-0.8,0.6-0.9,0.6
	c-0.4-0.4-1.2-1-1.1-1.5c0.3-1.5-0.2-3.2,0.7-4.7c0.7-1.2,0.9-2.8,1.4-4.2c0.2-0.6,0.7-1.1,1-1.6C30.2,90.2,30.3,90.3,30.5,90.4z"/>
<path class="st0" d="M79.4,114c-0.3,0.4-0.5,0.8-0.8,1.2c-0.4,0.5-0.8,1-1.2,1.4c-0.2,0.2-0.6,0.3-0.7,0.2c-0.8-0.5-1.8-1-2.3-1.8
	c-0.5-0.9,0.6-1.5,1.1-2c1.4-1.3,2.4-1.1,3.6,0.3C79.3,113.6,79.3,113.8,79.4,114z"/>
<path class="st0" d="M74,116.3c0.7,0.5,1.4,0.8,2,1.3c0.3,0.2,0.7,0.4,0.9,0.8c0.3,0.6,0.7,1.4,0.5,1.9c-0.3,0.6-1.3,1.6-1.6,1.4
	c-0.9-0.4-1.7-1.2-2.4-2c-0.5-0.5-0.4-1.2,0.2-1.8C73.8,117.5,73.8,117,74,116.3z"/>
<path class="st0" d="M75,107.9c-1.3-0.1-2.7-1.1-3-2c0.7-0.7,1.3-1.3,1.8-1.9c0.5-0.7,1.2-0.9,1.8-0.6c0.5,0.3,1,1,1.1,1.6
	c0.1,0.6,0,1.5-1,1.8C75.4,106.9,75.2,107.5,75,107.9L75,107.9z"/>
<path class="st0" d="M75,107.9c0.6-0.5,1.4-0.9,1.9-1.5c0.6-0.8,1-0.4,1.6-0.2c0,0,0.1,0,0.1,0.1c2,1.3,2,1.4,0.1,2.9
	c-0.3,0.2-0.5,0.6-0.9,0.7C76.5,110.5,75,109.4,75,107.9C75,107.9,75,107.9,75,107.9z"/>
<path class="st0" d="M69.6,104.8c0.4-0.6,0.6-1.2,1-1.7c0.3-0.4,0.7-0.6,1-0.9c1.1-1.4,1.8-1.4,2.8-0.1c0.1,0.2,0,0.7-0.2,0.9
	c-0.8,0.7-1.5,1.4-2.4,1.8C71.3,105,70.5,104.8,69.6,104.8z"/>
<path class="st0" d="M56.2,97.3c-0.4,1.2-0.6,2.2-2.2,2.4c0.2-0.6,0.4-1,0.4-1.1c-1.1-0.9-2.1-1.7-3-2.6c-0.2-0.2,0-0.7,0-1.1
	c0.4,0,1-0.1,1.3,0.1c0.9,0.6,1.7,1.4,2.5,2.1C55.4,97.3,55.8,97.3,56.2,97.3z"/>
<path class="st0" d="M80.6,109.1c0.1,0.9,0.2,2,0.2,3c0,0.2-0.4,0.7-0.6,0.7c-0.3,0-0.6-0.3-0.8-0.5c-0.1-0.1-0.1-0.3-0.2-0.4
	c-0.4-0.3-1.2-0.5-0.7-1.2c0.5-0.6,1.1-1.1,1.7-1.7C80.2,109,80.3,109.1,80.6,109.1z"/>
<path class="st0" d="M51.3,93.6c-0.7,0.4-1,0.8-1.3,0.8c-0.8,0.1-0.9-0.5-0.9-1.1c0-0.4,0.4-0.7,0.6-1.1
	C50.2,92.6,50.6,92.9,51.3,93.6z"/>
<path class="st0" d="M32.6,87.1c-0.5,0.9-0.9,1.5-1.3,2.1c-0.2,0.2-0.5,0.3-0.8,0.4c-0.1-0.4-0.4-0.8-0.3-1
	C30.6,87.7,31.3,87.2,32.6,87.1z"/>
<path class="st0" d="M70.2,106.8c-0.1,0.1-0.2,0.2-0.3,0.3c-0.4,0.1-0.7,0.2-1.1,0.3c-0.1-1.5-0.1-1.6,1.6-1.5
	C70.4,106.3,70.3,106.6,70.2,106.8z"/>
<path class="st0" d="M102.5,102.1c-0.9,0-2.2-1.1-2.2-2.2c0-0.3,0.2-0.7,0.5-1c0.4-0.4,0.9-0.6,1.3-1c1.6-1.5,2.5-1.3,3.3,0.9
	c0,0.1,0.1,0.3,0.1,0.3c2.1,0.2,0.9,1.7,1,2.6c0,0.3-0.2,0.7-0.4,0.8c-0.7,0.4-1.4,0.8-2.2,1.1c-0.4,0.1-1,0-1.2-0.2
	C102.4,103.1,102.5,102.5,102.5,102.1z M103.1,101.3c0.1,0.1,0.2,0.2,0.3,0.3c0.6-0.7,1.8-0.9,1.9-2.3
	C104.4,100.1,103.7,100.7,103.1,101.3z"/>
<path class="st0" d="M101,92.2c0.1,0.4,0.2,0.9,0.3,1.4c1.4,0.2,2.1,1.8,1.1,2.9c-0.7,0.8-1.6,1.5-2.5,2.2c-0.3,0.2-0.9,0.1-1.2-0.1
	c-0.2-0.2-0.3-0.8-0.2-1.1c0.6-1.2,1.3-2.3,1.9-3.4c-0.2-0.3-0.7-0.8-0.5-1C100,92.6,100.6,92.5,101,92.2L101,92.2z"/>
<path class="st0" d="M105.4,86c1.2-0.7,2.4-1.2,3.5-2c0.8-0.6,1.2,0.1,1.6,0.3c0.1,0.1,0,0.9-0.2,1.2c-1.1,1.1-2.2,2.1-3.4,3
	c-0.2,0.2-1.3-0.2-1.4-0.5C105.3,87.4,105.5,86.7,105.4,86C105.5,86,105.4,86,105.4,86z"/>
<path class="st0" d="M105.7,81.9c0.2-0.1,0.4-0.1,0.5-0.2c1.3-1,1.3-1,2.5,0.2c0.9,0.9,0.7,1.3-0.4,1.9c-1,0.6-1.9,1.4-2.9,2.2
	c0,0,0,0,0,0c-0.4,0-0.7,0-1.1-0.1C104,84.3,104.7,83,105.7,81.9L105.7,81.9z"/>
<path class="st0" d="M107.2,92.2c-0.1,0.1-0.2,0.3-0.3,0.4c-0.7,0.7-1.4,1.5-2.3,2c-0.8,0.6-1.6,0.2-2.2-1c-0.4-0.7,0.1-1.1,0.8-1.4
	c0.5-0.3,0.9-0.9,1.4-1.1c0.5-0.2,1.1-0.4,1.6-0.2C106.7,91,106.9,91.7,107.2,92.2z"/>
<path class="st0" d="M101,92.2c-0.6-0.8-0.4-1.3,0.3-1.9c0.3-0.3,0.6-0.7,0.8-1.1c0.3-0.7,0.8-0.9,1.5-0.9c0.8,0,1.3,0.3,1.3,1
	c0,0.5-0.4,1-0.7,1.4c-0.4,0.4-0.9,0.7-1.3,1.1C102.3,92.5,101.7,92.6,101,92.2C101,92.2,101,92.2,101,92.2z"/>
<path class="st0" d="M111.9,86c-0.4,0.7-0.8,1.4-1.3,2.1c-0.4,0.6-0.9,1.3-1.4,1.8c-0.3,0.3-0.7,0.7-1.1,0.7c-0.2,0-0.8-0.4-0.8-0.6
	c-0.1-0.4,0.1-0.9,0.3-1.2c0.5-0.6,1.2-1.2,1.9-1.7c0.6-0.5,1.3-0.9,2-1.4C111.6,85.8,111.8,85.9,111.9,86z"/>
<path class="st0" d="M105.7,81.9c-0.3,0.2-0.7,0.3-1,0.5c-0.1-0.4-0.4-0.8-0.4-1.2c0-0.8,0-1.7,0.3-2.4c0.1-0.3,0.9-0.6,1.3-0.4
	c0.5,0.2,1,0.6,1.3,1.1c0.1,0.3-0.2,0.9-0.5,1.3C106.4,81.2,106,81.5,105.7,81.9C105.7,81.9,105.7,81.9,105.7,81.9z"/>
<path class="st0" d="M107.3,98.7c-0.5-0.4-1.1-0.7-1.6-1.1c-0.3-0.2-0.6-0.6-0.9-0.9c-0.8-0.8,0.1-1.2,0.4-1.7
	c0.2-0.4,0.9-0.5,1.4-0.6c0.1,0,0.4,0.7,0.5,1.1c0.2,0.9,0.4,1.8,0.6,2.7C107.6,98.4,107.5,98.5,107.3,98.7z"/>
<path class="st0" d="M108.6,79.3c-1,0.2-1.2-0.6-1.6-1.2c-0.1-0.1,0-0.6,0.1-0.7c0.9-0.5,1.9-0.9,2.8-1.2c0.2-0.1,0.9,0.6,0.9,0.9
	c0,0.4-0.4,0.8-0.8,1.2C109.5,78.6,109,79,108.6,79.3L108.6,79.3z"/>
<path class="st0" d="M128.9,99c-0.5,0.6-0.9,1.1-1.2,1.5c-0.3,0.8-0.6,1.6-0.9,2.4c0,0.1-0.5,0-0.7-0.1c-0.2-0.2-0.4-0.5-0.4-0.8
	C125.4,101,127.4,98.9,128.9,99z"/>
<path class="st0" d="M108.6,79.3c0.5-0.2,1-0.4,1.6-0.6c0.2,1.1,0.5,2.1,0.7,3C109.3,82,108.6,81.2,108.6,79.3
	C108.6,79.3,108.6,79.3,108.6,79.3z"/>
<path class="st0" d="M38.4,65.6c1,0.4,1.9,0.8,2.9,1.3c0.1,0.7,0,0.9-1,0.9C39.6,67.7,38.5,66.5,38.4,65.6z"/>
<path d="M103.1,101.3c0.7-0.6,1.3-1.2,2.2-2.1c-0.1,1.5-1.3,1.6-1.9,2.3C103.2,101.5,103.2,101.4,103.1,101.3z"/>
</svg>
