<?xml version="1.0" encoding="utf-8"?>
<!-- Generator: Adobe Illustrator 24.2.3, SVG Export Plug-In . SVG Version: 6.00 Build 0)  -->
<svg version="1.1" xmlns="http://www.w3.org/2000/svg" xmlns:xlink="http://www.w3.org/1999/xlink" x="0px" y="0px"
	 viewBox="0 0 113.2 150" style="enable-background:new 0 0 113.2 150;" xml:space="preserve">
<style type="text/css">
	.st0{fill:#FFFFFF;}
	.st1{fill:none;}
	.st2{stroke:#020000;stroke-width:0.75;stroke-miterlimit:10;}
</style>
<g id="Layer_1">
	<path class="st0" d="M45.7,74.4c-0.9,0-1.9,0.6-2.2,1.4c-0.3,0.7-0.4,1.5-0.6,2.2c-0.3,1-0.1,2.4,0.8,2.9c0.9,0.5,2,1.1,3.1,1.1
		c1.8,0.1,2.6-1,2.8-2.8C50,76.3,48.1,74.9,45.7,74.4z"/>
	<path class="st0" d="M16.6,73.7c-1.4-0.2-2.2,0.4-2.4,1.9c-0.2,1.2-0.3,2.3,0.7,3.5c0.9,1.1,1.6,1.7,3,1.8c0.7-0.2,1.4-0.3,2.1-0.6
		c1.3-0.6,2.3-2.6,1.8-3.5C20.5,75,18.7,74,16.6,73.7z"/>
	<path class="st0" d="M68.8,93.4c0.7-0.2,0.6-0.6,0.8-1.2c0.3-1.1,0.7-2.4,1.5-3.2c1-1,1.4-1.1,1.3-2.6c0-0.1,0-0.2,0-0.2
		c-0.5-2.2-0.5-4.6-1.5-6.7c-0.4-0.8-0.8-1.6-1.9-1.8c-0.3,0-0.8-0.7-0.8-0.9c0.6-2.4-0.4-4.5-1.1-6.7c-0.1-0.2-0.3-0.5-0.5-0.6
		c-1.4-0.7-2.9-1.3-3.9-2.7c-0.8-1.1-2.3-1.7-3.6-2.5c-0.3-0.2-0.8-0.2-1.2-0.3c-0.3-0.1-0.7-0.2-0.9-0.5c-1.5-2.3-3.5-3.6-6.2-4.4
		c-3.2-0.9-5.1,2.3-5,4.8c1.8,0.7,1.8,0.7,2.4-1.3c0.5-1.5,1.2-1.9,2.8-1.7c2.4,0.3,4.9,2.9,5.2,5.3c0.1,0.4,0.5,1,0.8,1.1
		s0.8-0.3,1.3-0.5c0.2-0.1,0.4-0.2,0.5-0.2c0.8,0.5,2.1,0.9,2.4,1.7c0.7,1.7,1.5,2.5,3.4,2.7c1.5,0.1,2.5,3.7,1.8,5.4
		c-0.4,0.9-0.6,1.9-1,3.2c0.9,0,1.4,0.1,1.7,0c1-0.5,1.6,0,2.2,0.7c0.3,0.5,1.7,0.7,0.6,1.6c0,0,0.1,0,0.1,0.1
		c0.3,1.3,0.6,2.6,0.8,3.9c0,0.3-0.1,0.7-0.4,0.9c-1.2,1-1.8,2.3-2.2,3.7c-0.3,1.2-1,1.8-2,2.2c-0.9,0.3-1.3,2-0.7,2.7
		c0.2,0.2,0.4,0.7,0.2,0.9c-0.1,0.3-0.5,0.5-0.9,0.6c-0.8,0.1-1.6,0-2.4,0c-1.9,0-3.4-1.3-3.7-3.2c-0.2-1.2-0.9-1.8-1.8-1.6
		c-0.5,0.1-1.1,0-1.7-0.1c0-0.6-0.1-1.3,0.1-1.8c0.7-1.3,0.5-2.3-0.4-3.4c-0.7-0.9-1.9-0.7-2.5,0.4c1.2,0.8,1.8,1.9,1,3.3
		c-0.2,0.3-0.2,0.7-0.2,1c-0.3,1.6,0.3,2.5,1.8,3.1c0.6,0.2,1.3,0.6,1.9,1c1.8,1.1,3,3,5.3,3.4c1.6,0.3,3,0.1,4.1-0.8
		c0.9-0.7,1.9-1.5,1.3-3.1C67.5,94.4,68,93.6,68.8,93.4z"/>
	<path class="st1" d="M112.2,70.2c-1.1-1.8-1.1-3,0.4-4.5c0.3-0.3,0.5-0.8,0.5-1.2c0-2.2-0.6-4.2-1.9-6c-0.2-0.3-0.4-0.7-0.5-1.1
		c-0.4-1.5-0.8-2.9-1.2-4.4c0-0.1-0.1-0.2-0.2-0.3c-1-1.1-1.6-2.2-1.6-3.7c0-1.1-0.1-2.3-0.4-3.3c-0.7-1.9-1.7-3.6-2.4-5.5
		c-0.4-1-0.4-2.2-0.3-3.3c0.1-1,0.5-2,0.7-3.1c0.3-2.5-1.4-4-2.8-5.7c-0.8-0.9-1.9-1.4-2.6-2.3c-0.8-1-0.9-2.4-1.9-3.4
		c-0.7-0.7-1.3-0.8-2.1-0.7c0.3,1.4,0.5,1.7,1.4,2.7c0.3,0.3,0.3,0.8,0.4,1.2c0.2,0.5,0.1,1.2,0.5,1.4c0.9,0.6,2,0.8,2.5,2
		c0.3,0.7,1.2,1,1.8,1.6c1.3,1.4,1.6,2.4,0.7,4c-0.8,1.5-1,3-0.5,4.5c0.5,1.6,1.5,3.1,2.4,4.6c0.6,1.1,0.9,2.2,0.8,3.5
		c-0.2,1.7,0.1,3.4,1.2,4.8c1.2,1.7,2.2,3.5,2.2,5.7c0,0.2,0.2,0.5,0.4,0.7c1,1.3,1.8,2.6,1.7,4.2c-0.1,1.2-0.9,2.3-1.3,3.5
		c-0.2,0.7-0.2,1.5-0.1,2.1c0.3,1.2,0.9,2.4,1.3,3.6c0.1,0.3-0.1,0.7-0.2,1.1c0,0-0.5,0-0.6-0.1c-0.8-1.1-1.2-0.3-1.4,0.4
		c-0.9,2.1-3.4,3.5-5.5,2.9c-0.9-0.3-1.8-1.5-1.8-2.5c0-0.8-0.2-1.5-1.2-1.4c-0.1-0.9-0.4-1.8-0.3-2.6c0.1-1,0.2-2.1,0.6-3.1
		c0.3-0.7,0.5-1.2,0.4-2.1c-0.2-1.9-0.9-2.9-2.7-3.3c-0.4-0.1-0.7-0.6-0.9-1c-0.1-0.2,0.4-0.6,0.6-0.8c0.6-0.6,1.4-1,1.7-1.7
		c0.6-1.6-0.6-2.8-1.1-4.1c-0.3,1.1-0.6,2.1,0.2,3.1c0,0.1-0.1,0.3-0.2,0.5c-1,1-1.6,1-3.1,0.1c-0.1,0.3-0.3,0.7-0.3,1
		c0,0.8,0.1,1.6,0.2,2.5c0,0.2,0.1,0.5,0.2,0.7c0.8,1.3,0.6,2-0.7,2.8c-0.2,0.1-0.5,0.6-0.4,0.8c1,4.1-2.5,6-5.7,6.8
		c-0.7,0.2-1.7,0.4-2,0.9c-0.2,0.3,0.3,1.3,0.6,1.9c0.9,1.6,1.5,3.2,0.9,5c-0.1,0.2,0.1,0.4,0.1,0.6c0,0.3,0.1,0.6,0.1,0.8H88
		c-1.4,0.9-2.7,1.9-4.1,2.7c-1.1,0.7-1.3,1.6-0.5,2.6c0.2,0.3,0.4,0.6,0.4,0.9c-0.1,1.9-2.8,4-4.8,3.8c-0.4,0-0.8,0.1-1.2,0.1
		c0.1,0.5,0,1,0.2,1.4c0.7,1.7,1.6,3.3,2.2,5c0.6,1.9-0.8,4-2.7,4.5c-1,0.3-2.1,0.3-3.2,0.5c-0.2,0.6-0.4,1.4-0.9,2.1
		c-0.6,0.9-1.5,1.6-2.2,2.4c-0.2,0.2-0.4,0.6-0.4,0.9c-0.3,1.5-0.5,3-0.7,4.4c-0.1,0.8-0.4,1.6-1.2,1.9c-0.6,0.2-1.1,0.5-1.6,0.8
		c-1.6,1.1-2.9,2.4-4,4c-1.3,1.9-2,4-1.9,6.1c0.1,1.4-0.4,1.8-1.4,2.4c-1.7,1-3,2.3-2.6,4.5c-0.5,0.4-0.8,0.7-1.2,1
		c-2.9,1.9-4.9,4.4-6.2,7.5c-0.5,1.1-1.2,2.4-2.2,2.9c-0.8,0.4-1.5,0.7-2,1.4c-0.3,0.4-0.6,0.9-1,1.1c-1.6,0.6-3.3,1-4.9,1.4
		c-0.3,0.1-0.9-0.4-1.1-0.8c-0.2-0.5-0.2-1.2-0.2-1.7c-0.1-1-0.1-2,0.9-2.7c0.3-0.2,0.4-0.7,0.6-1c0.3-0.5,0.4-1.1,0.8-1.3
		c1.7-1.1,3.5-2.2,5.3-3.1c0.6-0.3,0.8-0.6,0.8-1.2c0-1.6,0.1-3.2-0.1-4.7c-0.3-1.7,0.2-3,1.5-4.1c0.5-0.4,0.8-1,1.2-1.5
		c0.6-0.8,1.3-1.7,2.3-1.1c0.9,0.5,1.3-0.3,1.4-0.5c0.3-1.2,0.5-2.5,0.5-3.8c0-0.8-0.4-1.5-0.3-2.3c0-1,0-1.9,1.3-2.4
		c2.3-1,2.3-1.9,1.7-3.8c-0.1-0.4,0-1,0.2-1.4c0.8-1.2,0.8-2.8-0.1-3.8c-1-0.9-2.6-1.2-2.9-2.9c0-0.1-0.3-0.2-0.5-0.2
		c-1-0.1-2-0.1-2.9-0.3c-0.8-0.1-1.5-0.8-2.4-0.2c-0.1,0.1-0.4-0.2-0.7-0.3c-0.7-0.3-1.3-1.3-2.1-0.4c-0.4,0.4-0.6,0.8-1.1,1.5
		c-1.2,0.5-3.1,0.6-3.5,2.7c0,0.1-0.6,0.3-0.8,0.3c-1.3-0.6-2.4,0-2.5,1.5c0,0.5,0,1.1,0,1.8c-1.3-0.1-1.3-1.2-1.5-1.9
		c-0.2-0.5,0-1.3,0.3-1.8c1-1.6,2.4-3,3.3-4.7c0.8-1.5,1-3.2,0.4-4.8c-0.3-0.8-2.2-1.6-2.7-1.1c-1.1,0.9-2.1,1.8-3.1,2.8
		c-0.7,0.7-1.3,1.5-2,2.2c-1.3,1.3-2.8,2.4-3.8,4c-0.4,0.5-0.9,1-1.4,1.5c-0.3-1.5-0.3-3-1-3.9c-0.7-0.8-2.2-0.9-3.5-1.4
		c0.5-0.5,1-1.1,1.7-1.7c0.6-0.6,1.4-1.1,2-1.7c0.8-0.9,0.2-1.8-0.2-2.7c-0.1-0.2,0.1-0.5,0.2-0.7c0.9-1.3,2.5-2,2.7-3.9
		c0-0.2,0.4-0.4,0.7-0.6c0.7-0.6,1.4-1.2,2.1-1.8c0.5-0.6-0.1-1.7-0.8-2c-0.2-1.1-0.3-2-0.6-2.8c-0.1-0.2-1.2-0.3-1.3-0.2
		c-0.8,1.7-2.7,2.2-4.1,3c-1.2,0.7-1.6,1.4-1.5,2.9h3.6c-0.4,1-0.6,2.3-1.3,3c-1.5,1.5-3.2,2.8-5,4.1C19.3,96.2,19.1,97,20,98
		c0.6,0.6,0.5,1-0.3,1.3c-1.2,0.6-1.5,1.7-0.8,2.8c0.2,0.4,0.4,0.9,0.4,1.4c-0.1,1.7,0.5,3.1,1.5,4.4c0.2,0.2,0.6,0.4,0.7,0.7
		c0.3,1.1,1.3,1.5,2.3,0.9c0.4-0.2,0.9-0.1,1.4-0.1s1.1,0.2,1.4,0c1.1-0.6,2.2-1.2,2.7-2.4c0.1-0.3,0.7-0.7,0.9-0.6
		c0.4,0.1,0.8,0.6,1.1,0.9c0.3,0.3,0.4,0.7,0.6,1c0.2,0.4,0.4,0.8,0.7,1.3c-0.1,0,0.1,0,0.3,0c1.1-0.1,2-0.1,2,1.5
		c0,0.5,0.6,1.3,1.1,1.6c1.4,0.8,2.1,0.3,2.6-1.7c0.1-0.4-0.1-1,0.1-1.4c0.1-0.3,0.7-0.7,0.9-0.7c0.4,0.2,0.6,0.7,0.9,1
		c0,0,0.1,0,0,0c0.6-0.1,1.1-0.2,1.6-0.2c0.2-1.1,0.3-2.2,0.5-3.3c0.9,0,1.9,0.3,2.4-0.1c1.2-0.8,2.2-0.4,3.3,0.1
		c0.1-0.2,0.2-0.6,0.3-0.6c1.3,0.2,2.7,0.4,4,0.7c0.5,0.1,0.9,0.6,1.3,0.9c0.6,0.3,0.8,0.6,0.4,1.2c-0.6,0.9-0.5,1.6,0.7,2.4
		c-0.6,0.7-1.2,1.4-1.7,2c-0.5,0.7-1.2,1.3-1.4,2.1c-0.3,0.9-0.4,1.9-0.3,2.8c0.3,2-1,3-2.1,4.2c-1.2,1.3-2.6,2.4-3.8,3.7
		c-2,2.3-1.2,5.2-1.2,7.9c0,0.9-0.2,1.5-0.8,2c-0.9,0.6-2,1-2.9,1.6c-1,0.7-2.7,0.9-2.4,2.7c0,0.1-0.1,0.2-0.2,0.3
		c-1.1,0.7-1.6,1.8-1.8,3.1c-0.1,1.2-1.2,2-0.7,3.4c0.7,2.3,1.7,3.6,4,3c2.5-0.6,5.3-0.3,7.3-2.5c0-0.1,0.1-0.1,0.2-0.1
		c2.2-0.7,3.2-2.5,3.8-4.5c0.9-2.8,2.5-5,4.9-6.6c1.2-0.8,2.7-1.7,2.9-3.1c0.3-2,1.7-2.8,3-3.8c1.7-1.2,1.9-1.5,1.2-3.5
		c-0.2-0.5-0.2-1.1-0.1-1.6c0.4-2,1.5-3.6,2.9-5.1c0.2-0.2,0.5-0.5,0.8-0.7c1.4-0.9,2.8-1.7,4.1-2.6c0.2-0.2,0.4-0.5,0.6-0.7
		c1-1.1,0.5-2.5,0.7-3.8c0.1-0.9,0.4-1.8,0.8-2.7c0.4-0.7,0.9-1.4,1.5-2c0.3-0.3,0.8-0.6,1.2-0.8c0.7-0.4,1.5-0.7,2.2-1.1
		c0.5-0.3,1-0.7,1.5-1c2-0.9,3-2.2,2.8-4.3c-0.1-1.5-0.5-3-1-4.4c-0.5-1.6-0.4-1.9,1.1-2.5c1.6-0.6,2.7-2,3.2-3.5
		c0.5-1.3,0.3-2.8,0.4-4.3c0,0,0.1-0.1,0.2-0.1c2.3-0.4,3.9-2,4.3-4.1c0.3-1.4-0.2-3.1-0.4-4.6c-0.1-0.7-0.4-1.5-0.6-2
		c0.8-0.4,1.3-0.6,1.8-0.9c0.9-0.5,1.7-1.2,2.6-1.5c2.1-0.8,2.6-2.6,3-4.5c0.1-0.6,0.4-1.2,0.7-1.8c0.1-0.3,0.4-0.6,0.5-0.9
		c0.2-1.5,1.2-1.4,2.4-1.4c-1.6,2.9-2.4,5.8-0.4,8.9c-0.6-0.1-0.9-0.2-1.3-0.2c0,0.5-0.1,1,0,1.5c0.4,1.3,0.9,2.5,1.4,3.8
		c0.4,1.2,1.3,1.7,2.6,1.6c1.2,0,2.4-0.1,3.6,0c2.3,0.2,3.3-1.6,4.6-3c0.4-0.4,0.4-1.2,1.3-0.7c0.1,0.1,0.6-0.2,0.8-0.4
		C113.7,72.7,113.2,71.8,112.2,70.2z"/>
	<path class="st0" d="M97.7,49.9c0-0.4,0-0.9-0.1-1.3c-0.3-1.3-0.7-2.6-1.1-3.9c-0.2-0.1-0.5-0.2-0.8-0.4c-0.7-0.4-1.6,0.1-1.5,0.9
		c0.1,0.6,0.2,1.3,1,1.5c0.3,0.1,0.8,0.4,0.8,0.5c0,1-0.2,1.9-0.3,2.8c0.5,0.8,1.1,1.6,1.5,2.5c0.3,0.7,0.6,1,1.3,1
		c-0.1-0.4-0.1-0.9-0.3-1.2C97.3,51.7,97.6,50.8,97.7,49.9z"/>
	<path d="M98.5,53.8c0.5,1.3,1.8,2.5,1.2,4.1c-0.3,0.7-1.1,1.1-1.7,1.7c-0.3,0.3-0.7,0.7-0.6,0.8c0.2,0.4,0.5,0.9,0.9,1
		c1.8,0.4,2.5,1.4,2.7,3.3c0.1,0.9-0.2,1.4-0.4,2.1c-0.4,1-0.5,2-0.6,3.1c0,0.8,0.2,1.6,0.3,2.6c1-0.1,1.2,0.6,1.2,1.4
		c0.1,1.1,0.9,2.3,1.8,2.5c2.1,0.6,4.6-0.8,5.5-2.9c0.3-0.6,0.6-1.5,1.4-0.4c0.1,0.1,0.6,0.1,0.6,0.1c0.1-0.3,0.3-0.8,0.2-1.1
		c-0.4-1.2-1-2.4-1.3-3.6c-0.2-0.7-0.1-1.5,0.1-2.1c0.3-1.2,1.1-2.3,1.3-3.5c0.2-1.6-0.7-3-1.7-4.2c-0.2-0.2-0.4-0.5-0.4-0.7
		c0-2.2-1-4-2.2-5.7c-1.1-1.5-1.3-3.1-1.2-4.8c0.1-1.3-0.2-2.4-0.8-3.5c-0.8-1.5-1.9-2.9-2.4-4.6c-0.5-1.4-0.3-3,0.5-4.5
		c0.9-1.6,0.7-2.7-0.7-4c-0.6-0.6-1.5-0.9-1.8-1.6c-0.5-1.2-1.6-1.4-2.5-2c-0.3-0.2-0.3-0.9-0.5-1.4c-0.1-0.4-0.2-0.9-0.4-1.2
		c-0.9-1-1.1-1.4-1.4-2.7c0.8-0.1,1.4,0,2.1,0.7c1,1,1.1,2.4,1.9,3.4c0.7,0.9,1.9,1.4,2.6,2.3c1.4,1.6,3.2,3.2,2.8,5.7
		c-0.1,1-0.6,2-0.7,3.1s0,2.3,0.3,3.3c0.7,1.9,1.7,3.6,2.4,5.5c0.4,1,0.4,2.2,0.4,3.3c0,1.5,0.6,2.7,1.6,3.7
		c0.1,0.1,0.2,0.2,0.2,0.3c0.4,1.5,0.8,2.9,1.2,4.4c0.1,0.4,0.2,0.7,0.5,1.1c1.3,1.8,1.9,3.8,1.9,6c0,0.4-0.2,0.9-0.5,1.2
		c-1.5,1.5-1.5,2.7-0.4,4.5c1,1.6,1.4,2.4,0.2,4.3c-0.2,0.2-0.7,0.5-0.8,0.4c-0.9-0.5-0.9,0.2-1.3,0.7c-1.3,1.4-2.3,3.2-4.6,3
		c-1.2-0.1-2.4,0-3.6,0s-2.1-0.4-2.6-1.6s-1-2.5-1.4-3.8c-0.1-0.4,0-1,0-1.5c0.4,0.1,0.7,0.1,1.3,0.2c-1.9-3.1-1.2-6,0.4-8.9
		c-1.2,0.1-2.3-0.1-2.4,1.4c0,0.3-0.4,0.6-0.5,0.9c-0.2,0.6-0.5,1.2-0.7,1.8c-0.4,1.9-0.9,3.7-3,4.5c-0.9,0.4-1.7,1-2.6,1.5
		c-0.5,0.3-1.1,0.5-1.8,0.9c0.2,0.6,0.5,1.3,0.6,2c0.2,1.5,0.7,3.2,0.4,4.6c-0.5,2.1-2,3.7-4.3,4.1c-0.1,0-0.2,0.1-0.2,0.1
		c-0.1,1.5,0,3-0.4,4.3c-0.5,1.5-1.6,2.9-3.2,3.5s-1.6,0.9-1.1,2.5c0.5,1.4,0.9,2.9,1,4.4c0.2,2.2-0.8,3.5-2.8,4.3
		c-0.5,0.2-1,0.7-1.5,1c-0.7,0.4-1.5,0.7-2.2,1.1c-0.4,0.2-0.9,0.4-1.2,0.8c-0.6,0.6-1.2,1.2-1.5,2c-0.4,0.8-0.6,1.8-0.8,2.7
		c-0.2,1.3,0.3,2.7-0.7,3.8c-0.2,0.2-0.3,0.6-0.6,0.7c-1.4,0.9-2.8,1.7-4.1,2.6c-0.3,0.2-0.5,0.4-0.8,0.7c-1.4,1.4-2.5,3-2.9,5.1
		c-0.1,0.5-0.1,1.1,0.1,1.6c0.7,1.9,0.5,2.3-1.2,3.5c-1.3,0.9-2.7,1.8-3,3.8c-0.2,1.4-1.7,2.3-2.9,3.1c-2.4,1.7-4,3.8-4.9,6.6
		c-0.6,2-1.6,3.8-3.8,4.5c-0.1,0-0.2,0-0.2,0.1c-2,2.2-4.8,1.9-7.3,2.5c-2.3,0.6-3.3-0.7-4-3c-0.4-1.4,0.6-2.3,0.7-3.4
		c0.1-1.2,0.7-2.4,1.8-3.1c0.1-0.1,0.2-0.2,0.2-0.3c-0.2-1.8,1.4-2,2.4-2.7c0.9-0.6,2-1,2.9-1.6c0.7-0.4,0.9-1.1,0.8-2
		c0-2.7-0.9-5.6,1.2-7.9c1.2-1.3,2.6-2.5,3.8-3.7c1.1-1.2,2.4-2.2,2.1-4.2c-0.1-0.9,0-1.9,0.3-2.8c0.3-0.8,0.9-1.4,1.4-2.1
		s1.1-1.3,1.7-2c-1.2-0.7-1.3-1.5-0.7-2.4c0.4-0.6,0.1-0.9-0.4-1.2c-0.5-0.2-0.8-0.7-1.3-0.9c-1.3-0.3-2.7-0.5-4-0.7
		c-0.1,0-0.2,0.4-0.3,0.6c-1.1-0.5-2.1-0.9-3.3-0.1c-0.6,0.4-1.5,0.1-2.4,0.1c-0.2,1.1-0.3,2.2-0.5,3.3c-0.4,0.1-0.9,0.1-1.6,0.2
		l0,0c-0.3-0.4-0.5-0.8-0.9-1c-0.2-0.1-0.8,0.4-0.9,0.7c-0.2,0.4,0.1,0.9-0.1,1.4c-0.5,2-1.2,2.5-2.6,1.7c-0.5-0.3-1.1-1.1-1.1-1.6
		c0-1.6-0.9-1.6-2-1.5c-0.2,0-0.3,0-0.3,0c-0.3-0.5-0.5-0.9-0.7-1.3s-0.4-0.7-0.6-1c-0.3-0.4-0.7-0.8-1.1-0.9
		c-0.2-0.1-0.8,0.3-0.9,0.6c-0.6,1.2-1.7,1.8-2.7,2.4c-0.4,0.2-0.9,0-1.4,0s-1-0.1-1.4,0.1c-1,0.5-2,0.1-2.3-0.9
		c-0.1-0.3-0.5-0.4-0.7-0.7c-1.1-1.3-1.6-2.7-1.5-4.4c0-0.5-0.2-1-0.4-1.4c-0.7-1.1-0.4-2.2,0.8-2.8c0.7-0.3,0.9-0.7,0.3-1.3
		c-1-0.9-0.7-1.8,0.4-2.6c1.7-1.3,3.5-2.6,5-4.1c0.7-0.7,0.8-2,1.3-3c-1.3,0-2.4,0-3.6,0c-0.1-1.5,0.2-2.2,1.5-2.9
		c1.4-0.8,3.3-1.2,4.1-3c0.1-0.1,1.2,0,1.3,0.2c0.3,0.8,0.4,1.7,0.6,2.8c0.7,0.3,1.3,1.5,0.8,2c-0.6,0.7-1.4,1.2-2.1,1.8
		c-0.2,0.2-0.6,0.4-0.7,0.6c-0.1,1.8-1.7,2.6-2.7,3.9c-0.1,0.2-0.3,0.5-0.2,0.7c0.4,0.9,1,1.8,0.2,2.7c-0.6,0.6-1.3,1.1-2,1.7
		c-0.6,0.6-1.2,1.2-1.7,1.7c1.3,0.5,2.8,0.6,3.5,1.4s0.6,2.3,1,3.9c0.5-0.6,1-1,1.4-1.5c1-1.6,2.5-2.7,3.8-4c0.7-0.7,1.3-1.5,2-2.2
		c1-1,2-1.9,3.1-2.8c0.5-0.5,2.5,0.4,2.7,1.1c0.6,1.7,0.4,3.4-0.4,4.8c-0.9,1.7-2.3,3.1-3.3,4.7c-0.3,0.5-0.5,1.3-0.3,1.8
		c0.2,0.7,0.2,1.8,1.5,1.9c0-0.7,0-1.2,0-1.8c0.1-1.5,1.1-2.1,2.5-1.5c0.2,0.1,0.7-0.1,0.8-0.3c0.4-2.1,2.3-2.2,3.5-2.7
		c0.5-0.6,0.7-1.1,1.1-1.5c0.9-0.9,1.4,0.1,2.1,0.4c0.2,0.1,0.6,0.4,0.7,0.3c0.9-0.6,1.6,0.1,2.4,0.2c1,0.2,2,0.2,2.9,0.3
		c0.2,0,0.5,0.1,0.5,0.2c0.2,1.7,1.9,1.9,2.9,2.9s0.9,2.5,0.1,3.8c-0.2,0.4-0.3,1-0.2,1.4c0.6,1.9,0.6,2.8-1.7,3.8
		c-1.3,0.5-1.3,1.5-1.3,2.4c0,0.8,0.4,1.5,0.3,2.3c-0.1,1.3-0.3,2.6-0.5,3.8c0,0.2-0.5,1-1.4,0.5c-1.1-0.6-1.7,0.3-2.3,1.1
		c-0.4,0.5-0.8,1.1-1.2,1.5c-1.3,1.1-1.7,2.4-1.5,4.1c0.2,1.5,0.1,3.1,0.1,4.7c0,0.6-0.2,0.9-0.8,1.2c-1.8,0.9-3.6,2-5.3,3.1
		c-0.4,0.3-0.6,0.9-0.8,1.3c-0.2,0.3-0.3,0.8-0.6,1c-1,0.7-0.9,1.7-0.9,2.7c0,0.6,0,1.2,0.2,1.7c0.2,0.4,0.8,0.9,1.1,0.8
		c1.7-0.4,3.3-0.9,4.9-1.4c0.4-0.1,0.7-0.7,1-1.1c0.5-0.7,1.2-1,2-1.4c1-0.4,1.7-1.8,2.2-2.9c1.4-3.1,3.4-5.7,6.2-7.5
		c0.4-0.3,0.8-0.6,1.2-1c-0.4-2.1,0.9-3.5,2.6-4.5c1-0.6,1.5-1,1.4-2.4c-0.1-2.1,0.6-4.2,1.9-6.1c1.1-1.6,2.4-2.9,4-4
		c0.5-0.3,1.1-0.6,1.6-0.8c0.9-0.4,1.1-1.1,1.2-1.9c0.2-1.5,0.4-3,0.7-4.4c0.1-0.3,0.2-0.7,0.4-0.9c0.7-0.8,1.5-1.5,2.2-2.4
		c0.5-0.6,0.6-1.5,0.9-2.1c1.1-0.2,2.2-0.2,3.2-0.5c1.9-0.6,3.3-2.7,2.7-4.5c-0.5-1.7-1.5-3.3-2.2-5c-0.2-0.4-0.1-0.9-0.2-1.4
		c0.4-0.1,0.8-0.2,1.2-0.1c2,0.2,4.6-1.8,4.8-3.8c0-0.3-0.2-0.7-0.4-0.9c-0.8-1-0.5-1.9,0.5-2.6c1.4-0.8,2.7-1.8,4.1-2.7
		c0.2,0,0.5,0,0.8,0c0-0.3-0.1-0.6-0.1-0.8c0-0.2-0.2-0.5-0.1-0.6c0.6-1.8,0-3.4-0.9-5c-0.3-0.6-0.8-1.6-0.6-1.9
		c0.4-0.5,1.3-0.8,2-0.9c3.2-0.8,6.6-2.8,5.7-6.8c-0.1-0.2,0.2-0.7,0.4-0.8c1.3-0.8,1.5-1.5,0.7-2.8c-0.1-0.2-0.2-0.4-0.2-0.7
		c-0.1-0.8-0.2-1.6-0.2-2.5c0-0.3,0.2-0.6,0.3-1c1.5,0.9,2.1,0.8,3.1-0.1c0.1-0.1,0.3-0.4,0.2-0.5C97.9,55.9,98.2,54.8,98.5,53.8
		L98.5,53.8z M36.2,99.1c-0.6,0.5-1.3,0.9-1.7,1.5c-1.1,1.5-3.4,2.5-2,5C33.5,105.3,36.6,100.7,36.2,99.1z"/>
	<path d="M76.4,9.6c-1.2,0.6-2.1,0.2-2.7-1C73.3,8,72.8,7.2,72.2,7c-1.3-0.4-2.3-1.5-3.8-1.3c-0.3,0-0.7-0.3-0.9-0.6
		c-0.3-0.5-0.4-1.3-0.8-1.7c-1.2-1.3-3.9-1.1-5.2,0.3c-1.4,1.6-2.4,1.9-3.7,0.8c-0.2,0.3-0.4,0.5-0.5,0.8c-0.5,0.7-1,1.3-1.4,2.1
		c-0.3,0.7-0.6,1.5-0.6,2.1c0.2,1.6,0.4,3.1-0.5,4.5c-0.2,0.3-0.5,0.6-0.8,0.6c-1.4,0-2,0.8-2.3,2c-0.3,1.2-0.9,2-2,2.6
		c-0.3,0.2-0.6,0.7-0.6,1c0.2,1.4-0.6,2.4-1.1,3.5s-1,2.2-1.6,3.2c-0.8,1.4-2,2.6-3.5,3.2c-1.4,0.6-3,0.7-4.4,1.3
		c-0.9,0.4-1.9,1-2.3,1.7c-1,1.6-1.8,3.3-2.4,5.1c-0.6,1.9-1.5,3.2-3.5,3.9c-1.5,0.5-2.2,0.5-3.3-0.7c-0.6,0.4-1.4,0.7-2,1.2
		c-0.6,0.6-1,1.5-1.5,2.2c-1,1.8-1.8,3.6-2.2,5.7c-0.3,1.6-1.1,3.3-2.1,4.6c-0.9,1-1.4,2.1-1.8,3.3c-0.4,1.1,0.5,1.9,1.6,1.7
		c0.3-0.1,0.6-0.1,1.2-0.1c-0.4,0.5-0.6,0.9-0.8,1c-0.9,0.2-1.8,0.1-2.7,0.3c-1.2,0.1-2.4,0.2-3.5,0.6c-2.1,0.8-2.7,2.8-3.3,4.5
		c-1.5,0.5-3,0.9-4.4,1.4c-0.6,0.2-1.4,0.6-1.6,1.1c-0.4,1.1-0.7,2.3-0.8,3.4C3,74,3.4,75.8,3.2,77.5c-0.1,1-0.7,2.1-1.2,3
		c-0.4,0.7-1.1,1.1-1.6,1.7c-1,1.3-0.7,2.6,0,4.1c0.8,1.7,1.5,3.6,1.1,5.5c-0.2,1,0.1,1.8,0.8,2.6c0.4,0.4,0.6,1,1,1.3
		c0.7,0.6,1.4,1.2,2.1,1.8c0.5,0.4,1.2,0.6,1.5,1c0.8,1.2,1.3,2.6,2.6,3.5c0.5,0.3,0.8,0.9,1.5,0.8s0.9,0.3,0.9,1s-0.1,1.5,0.1,2.1
		c0.4,1.3,0.7,2.5,0.4,3.9c-0.6,2.6-0.5,5.3-1.9,7.7c-0.1,0.1,0,0.2-0.1,0.3c-0.4,1.5-0.8,3-1.3,4.5c-0.2,0.5-0.4,1.1-0.7,1.6
		c-1,1.6-2,3.1-2.9,4.8c-0.3,0.6-0.4,1.4,0.3,2.1c0.6,0.6,0.8,1.5,1.2,2.2c0.7,1.1,0.9,2-0.5,2.6c-0.2,0.1-0.3,0.4-0.4,0.6
		c-1.1,2-0.3,4,0.4,5.8c0.5,1.4,1.8,2.4,2.7,3.7c0.6,0.8,1.3,0.5,1.7,0.1c1.8-1.6,3.4-3.4,4.3-5.7c0.4-0.9,0.7-2.1,1.5-2.7
		c0.9-0.8,1.4-1.6,1.5-2.8c0.1-0.7,0-1.5,0.3-2.2c0.7-2.1,0.6-4.2,0.4-6.3c-0.1-1.1-0.3-2.2,0.7-3c0.5-0.5,1-1,1.5-1.5
		c1-1,1.5-2,1-3.4c-0.6-1.5-0.1-2.9,1.2-3.9c0.4-0.3,0.7-0.7,1-1.1c0.4-0.6,0.3-1.1-0.5-1.3c-1.6-0.4-2.1-0.2-2.9,1.3
		c-0.8,1.6-1.6,3.3-0.9,5.2c0.1,0.2,0,0.6-0.1,0.6c-1.9,1.1-2.5,2.9-2.8,4.9c-0.1,0.8-0.1,1.6-0.1,2.4c0,1.1,0.3,2.3,0.2,3.4
		c-0.1,1.1-0.4,2.1-1.6,2.7c-0.5,0.2-1,0.8-0.5,1.7c0.2,0.4,0.2,1.1,0,1.6c-0.9,1.9-1.9,3.8-2.9,5.6c-0.7,1.4-2,1.7-3,0.5
		c-0.6-0.6-0.8-1.6-1.3-2.3c-0.5-0.8-0.5-1.3,0.3-2c0.9-0.6,1.8-1.5,1.4-2.8c-0.4-1.2-0.8-2.4-1.4-3.5c-0.3-0.5-1-0.8-0.7-1.6
		c0.2-0.6,0.5-1.1,0.8-1.6c1-1.5,2.4-2.8,2.6-4.8c0-0.1,0.1-0.1,0.1-0.2c0.8-2.1,1.8-4.2,2.4-6.4c0.5-1.6,0.7-3.4,0.8-5.1
		c0.2-2.5,0.2-5,0.2-7.5c0-0.6,0.1-1.2-0.7-1.4c-0.2-0.1-0.3-0.7-0.2-1c0.5-1.1,1.1-2.2,1.5-3.3c0.4-1.2,0.6-2.4,0.9-3.4
		c-0.7-1.4-1.3-2.8-2-4c-0.2-0.4-0.9-0.8-1.2-0.7c-0.4,0.1-0.9,0.7-0.9,1.1c-0.1,0.5,0.2,1.2,0.4,1.7c1,1.9,1.3,3.8-0.4,5.5
		c-0.4,0.4-1.2,0.7-1.8,0.7c-0.3,0-0.8-0.9-0.8-1.4c0-1.1-0.2-2.1-0.9-3C7.8,93.9,7.5,94,7,94.3c-0.3,0.2-0.4,0.6-0.8,1.1
		c-0.8-0.9-1.6-1.7-2.2-2.6C3.5,92,3.5,91,4.3,90.2c1-1,0.3-3.6-1.1-4c-1.3-0.4-1.6-1.3-0.6-2.3c1.5-1.5,2.5-3.2,2.5-5.4
		c0-0.2,0.1-0.4,0.2-0.6c0.7-1.3,0.5-2.5,0.1-3.8c-0.3-1.2-0.4-2.7,0.1-3.9c0.5-1.3,3.8-1.9,5.2-1.5c0.5,0.1,1.2,0.3,1.4,0.2
		c0.3-0.5,0.7-1.3,0.5-1.8c-0.4-1.1,0-2.1,0.7-2.7c1-0.9,2.2-1.4,3.6-0.8c0.3,0.1,0.7,0.2,1,0.1c1.3-0.5,2.6-1.1,3.9-1.5
		c0.4-0.2,1-0.4,1.4-0.2c1.2,0.5,2.5,0.8,3.7,1.1c1.7,0.5,3.2,0.2,4.7-0.2c1.3-0.3,3.7,0.4,4.4,1.5c0.5,0.8,1,1.7,1.6,2.5
		c0.5,0.7,1,1.2,1.8,0.4c0.5-0.5,1.2-1.1,1.8-1.1c1.4,0,1.4-0.6,0.9-1.7c-1,0.2-2.1,0.4-3.1,0.5c-0.3,0-0.8-0.1-1-0.3
		c-0.5-0.6-1-1.2-1.4-1.8c-1.2-2.4-3.3-3.2-5.8-2.2c-3.4,1.4-6.5,1.2-9.1-1.6c-0.5,0.4-0.9,0.7-1.4,1.1L20,60c0.7-1.9,3-3.1,2.2-5.5
		c0.2,0,0.4-0.1,0.7-0.1c0-0.2,0.1-0.5,0.1-0.7c-0.1,0-0.2,0-0.3,0.1c0.1-0.7,0.2-1.2,0.3-1.6c0.2-0.6,0.3-1.3,0.5-1.9
		c0.1-0.7,0.2-1.4,0.6-2.1c0-0.1,0.1-0.2,0.1-0.3c0.1-0.3,0.4-0.5,0.6-0.7c0.7-0.7,1.6-1.3,2.8-1.4c0.2-0.2,0.3-0.4,0.5-0.5
		c0.9-0.4,1.8-0.8,2.7-1.1c0.5-0.2,1.2-0.6,1.7-0.5c1.4,0.3,1.7-0.8,2.1-1.6c0.9-2.3,1.7-4.7,2.6-7.1c0.1-0.2,0.2-0.4,0.3-0.5
		c1.8-1.3,3.8-2,6-2.4c2.1-0.4,3.4-1.5,4.2-3.4c0.6-1.5,1.1-3,1.7-4.4c0.4-0.9,0.9-1.7,1.4-2.5c0.6-0.9,1.4-1.8,1.8-2.8
		c0.5-1,1.1-1.5,2.2-1.3c0.2,0,0.4,0,0.5,0c1.1-0.6,2.2-3.1,2-4.4c-0.1-0.9-0.2-1.7-0.3-2.6c-0.1-1,0.3-1.5,1.3-1.7
		c0.5-0.1,1.1-0.2,1.4-0.5c0.8-0.8,1.5-1.7,2.3-2.6c1.2-1.4,2.6-1.4,3.7,0c0.5,0.6,0.5,1.5,0.9,2.1c0.2,0.3,0.8,0.7,1.1,0.6
		c0.9-0.2,1.6-0.1,2.5,0c2.4,0.4,3.1,2.2,4.1,3.9c1.3,0,2.5-0.5,3.8-1.6c0.7-0.6,3.5-0.6,4.2,0c0.1,0.1,0.1,0.1,0.2,0.2
		c0.3,0.3,0.6,0.8,1,0.9c0.5,0.1,1.2,0,1.5-0.3c0.2-0.2,0-0.9-0.1-1.3c-0.2-1.2-1.3-1.1-2.3-1.4"/>
	<path d="M65.6,79.4c0.4-1.2,0.6-2.2,1-3.2c0.7-1.7-0.2-5.3-1.8-5.4c-1.9-0.2-2.7-1-3.4-2.7c-0.3-0.8-1.6-1.1-2.4-1.7
		c-0.1-0.1-0.3,0.1-0.5,0.2c-0.4,0.2-0.9,0.6-1.3,0.5c-0.4-0.1-0.8-0.7-0.8-1.1c-0.4-2.3-2.9-5-5.2-5.3c-1.6-0.2-2.4,0.2-2.8,1.7
		c-0.6,2-0.6,2-2.4,1.3c-0.2-2.5,1.8-5.7,5-4.8c2.7,0.8,4.7,2.1,6.2,4.4c0.2,0.2,0.5,0.4,0.9,0.5s0.9,0.1,1.2,0.3
		c1.2,0.8,2.8,1.4,3.6,2.5c1.1,1.5,2.5,2,3.9,2.7c0.2,0.1,0.4,0.4,0.5,0.6c0.7,2.2,1.7,4.3,1.1,6.7c-0.1,0.3,0.5,0.9,0.8,0.9
		c1.1,0.2,1.6,1,1.9,1.8c1,2.1,0.9,4.5,1.5,6.7c0,0.1,0,0.2,0,0.2c0.1,1.5-0.2,1.6-1.3,2.6c-0.8,0.8-1.2,2.1-1.5,3.2
		c-0.2,0.5-0.1,1-0.8,1.2c-0.8,0.2-1.3,0.9-1,1.6c0.6,1.5-0.4,2.4-1.3,3.1c-1.2,0.9-2.6,1-4.1,0.8c-2.3-0.4-3.5-2.4-5.3-3.4
		c-0.6-0.3-1.2-0.7-1.9-1c-1.5-0.6-2.1-1.6-1.8-3.1c0.1-0.3,0.1-0.7,0.2-1c0.9-1.5,0.2-2.5-1-3.3c0.6-1.1,1.8-1.3,2.5-0.4
		c0.9,1.1,1.1,2.1,0.4,3.4c-0.3,0.5-0.1,1.2-0.1,1.8c0.6,0,1.1,0.2,1.7,0.1c0.9-0.2,1.6,0.4,1.8,1.6c0.3,1.9,1.8,3.2,3.7,3.2
		c0.8,0,1.6,0.1,2.4,0c0.3,0,0.7-0.3,0.9-0.6c0.1-0.2-0.1-0.7-0.2-0.9c-0.6-0.8-0.3-2.4,0.7-2.7c1-0.4,1.7-1,2-2.2
		c0.4-1.4,1-2.7,2.2-3.7c0.2-0.2,0.4-0.6,0.4-0.9c-0.2-1.3-0.5-2.6-0.8-3.9l-0.1-0.1c1.1-1-0.2-1.2-0.6-1.6
		c-0.5-0.7-1.2-1.1-2.2-0.7C67,79.5,66.5,79.4,65.6,79.4z"/>
	<path d="M17.8,81c-1.4-0.2-2.1-0.7-3-1.8c-1-1.3-0.8-2.4-0.7-3.5c0.2-1.5,1-2.1,2.4-1.9c2.1,0.3,3.9,1.2,5.1,3.2
		c0.5,0.9-0.5,2.9-1.8,3.5C19.2,80.7,18.5,80.8,17.8,81z"/>
	<path d="M45.7,74.4c2.4,0.5,4.3,1.9,3.9,4.9c-0.3,1.8-1.1,2.9-2.8,2.8c-1-0.1-2.1-0.6-3.1-1.1c-0.9-0.5-1.2-1.9-0.8-2.9
		c0.2-0.7,0.3-1.5,0.6-2.2C43.8,75,44.8,74.4,45.7,74.4z"/>
	<path d="M98.5,53.7c-0.7,0-1.1-0.3-1.3-1c-0.3-0.9-1-1.7-1.5-2.5c0.1-0.9,0.3-1.9,0.3-2.8c0-0.2-0.5-0.5-0.8-0.5
		c-0.8-0.2-0.9-0.9-1-1.5c-0.1-0.8,0.8-1.3,1.5-0.9c0.3,0.2,0.6,0.3,0.8,0.4c0.4,1.3,0.7,2.6,1.1,3.9c0.1,0.4,0.1,0.9,0.1,1.3
		c-0.1,0.9-0.4,1.9,0.4,2.7C98.4,52.8,98.4,53.4,98.5,53.7C98.5,53.8,98.5,53.7,98.5,53.7z"/>
	<path class="st1" d="M36.2,99.1c0.3,1.7-2.7,6.2-3.8,6.4c-1.4-2.5,0.9-3.5,2-5C34.9,100,35.6,99.6,36.2,99.1z"/>
</g>
<g id="Layer_2">
	<path class="st2" d="M96.2,20.8c0.2-0.6,0.4-1.3,0.4-1.9c0-0.9-0.3-1.9-0.1-2.8c0.1-0.4,0.8-0.9,1.3-1.1c1.1-0.6,1.8-1.9,1.8-2.8
		c0-1.3-0.9-2.6-1.5-3.7c-0.6-1.2-1.6-2.3-1.4-3.7c0-0.6,0.7-1.4,0.5-1.9c-0.6-1.2-0.8-3-2.8-2.7c-0.1,0-0.2-0.2-0.3-0.2
		c-1.3,0-2.6-0.4-3.8,0.6c-1,0.8-2.3,1.3-3.5,1.9c-0.5-1.2-1.2-1.9-2.5-1.8s-1.4,1-1.6,1.9c-0.2,0.7-0.1,1.4-0.4,2.1
		c-0.4,0.9-0.8,2-1.5,2.5L82.6,9c0.4-1.7,0.7-3.3,1.2-4.9C84,2.7,85,2.6,85.5,3.3c0.5,0.6,1,1.3,1.5,2.1c0.6-0.4,1.3-0.5,1.7-1
		C89.7,3,91,2.3,92.6,2c0.7-0.1,1.5,0.1,2.2,0.4c0.2,0.1,0.1,0.9,0.1,1.4c-0.1,0.6-0.2,1.1-0.4,1.7c-0.2,0.8-0.2,1.4,0.6,2.1
		C95.9,8.2,96.6,9,97,9.9c0.7,1.5,0.3,2.5-1.3,3.2c-1,0.4-1.4,1.1-1.3,2.2c0.1,1,0,2,0.1,3c0.1,0.8,0.4,1.6,0.8,2.4L96.2,20.8z"/>
</g>
</svg>
