<?xml version="1.0" encoding="utf-8"?>
<!-- Generator: Adobe Illustrator 24.2.3, SVG Export Plug-In . SVG Version: 6.00 Build 0)  -->
<svg version="1.1" id="Layer_1" xmlns="http://www.w3.org/2000/svg" xmlns:xlink="http://www.w3.org/1999/xlink" x="0px" y="0px"
	 viewBox="0 0 139.3 141.2" style="enable-background:new 0 0 139.3 141.2;" xml:space="preserve">
<style type="text/css">
	.st0{fill:#FFFFFF;}
	.st1{fill:none;}
</style>
<path class="st0" d="M312.6,226.7c1.2,0.3,1.7-0.6,2.3-1.4c1.1-1.4,0.3-2.9,0.6-4.3c0.2-1-0.1-2.1-0.1-3.4c0.4,0.2,0.8,0.3,0.9,0.6
	c1.6,2.5,2.7,5.1,3.1,8c0.2,1.2,0.6,1.5,1.8,1.3c1.3-0.2,1.4-0.4,1.2-1.8c-0.2-1,0.2-1.8,1.1-2.4c2.4-1.7,5.4-1.1,7.9-2.3
	c0,0,0.1,0.1,0.3,0.2c-0.3,0.6-0.6,1.3-0.9,1.9c-0.3,0.7-0.4,1.4,0.3,1.8c0.6,0.2,1.3,0.2,2,0.1c0.2,0,0.3-0.8,0.3-1.2
	c-0.1-2.1,0.2-2.5,2.2-3.3c0.2-0.1,0.4-0.8,0.3-1c-0.5-1-1-2-2.5-1.8c-1.3,0.2-2.6,0-3.8,0c-0.2,0-0.7,0.1-0.7,0.2
	c-0.1,1.2-1.1,1.2-1.9,1.3c-1.3,0.1-2.4,1.3-4,0.6c-1.3-0.6-1.8-0.3-2.2,1.4c-0.4-0.3-0.8-0.5-1-0.8c-1.5-2.4-2.1-5.1-3.9-7.4
	c-1.2-1.5-1.4-2-3.4-1.7c0.1,0.6,0.2,1.3,0.4,1.9c0.3,1.1,0.8,2.2,0.9,3.3c0.1,1.4,0.4,2.8,0.8,4.1c0.1,0.3,0.2,0.6,0.1,0.9
	c-0.1,0.9-0.3,1.8-0.4,2.7c-0.1,1.1-1.2,2.1-2.1,1.9c-0.2,0.6-0.3,1.3-0.5,1.9c0.1,0,0.2,0,0.3,0.1
	C312.3,227.7,312.4,227.2,312.6,226.7z"/>
<path class="st0" d="M334.8,242c0.9-0.8,1.3-0.4,1.7,0.4c0.7,1.3,1.3,2.5,1.9,3.9c0.4,0.8,0.5,1.7,0.8,2.5c0.1,0.4,0.3,0.8,0.5,1.1
	c0.1,0.3,0.5,0.5,0.5,0.8c0,1.6,0,3.3,0,4.9c0,0.1-0.2,0.3-0.3,0.4c-1.5,2.4-2.1,5-1.9,7.8c0.1,1,1.1,1.9,2.1,1.6
	c0.9-0.3,1.8-0.8,2.7-1.3c0.9-0.5,1.7-0.7,2.4,0.2c0.3,0.3,0.9,0.6,1.3,0.5c1.6-0.5,3,0.1,4.5,0.6c1.7,0.6,2,1.7,1.5,3.5
	c-0.2,0.8,0.1,1.8,0.5,2.5c0.6,0.9,2.1,0.3,2.5-1c0.4-1.2,0.8-2.5,1.1-3.7c0.6-2,1.2-2.3,3.1-2.3c0.6,0,1.3-0.1,1.9-0.3
	c2.2-0.5,2.7-1,2.3-3.2c-0.2-1.4-1-2.9-1.7-4.2c-0.9-1.4-2.2-2.5-3-3.9c-0.5-0.9-0.9-2.3-0.5-3.2c0.9-2.1,2.9-3.4,4.8-4.6
	c1.3-0.8,1.7-1.2,0.9-2.5c-0.7-1.2-1.8-2.2-2.8-3.3c-0.6-0.6-1.4-1.1-1.9-1.8c-0.6-0.9-0.9-2-1.5-2.9c-0.3-0.4-1-0.9-1.3-0.8
	c-0.5,0.2-1.1,0.8-1.3,1.3c-0.2,0.5-0.2,1.2,0.6,1.6c0.6,0.3,1,1,1.5,1.5c0.3,0.4,0.5,0.8,0.8,1.1c0.5,0.4,1.1,0.8,1.6,1.2
	c2,1.6,1.9,2.8-0.1,4.3c-0.9,0.7-1.7,1.6-2.5,2.4c-0.7,0.7-1.2,1.6-1.8,2.3c0.2,0.8,0.3,1.7,0.7,2.4c0.5,0.9,1.3,1.6,1.8,2.5
	c1.2,1.9,2.7,3.6,3.1,5.9c0.1,0.9-0.1,1.3-1.1,1.2c-0.8-0.1-1.6-0.2-2.5-0.2c-1.2-0.1-2.5,0.8-2.9,2c-0.4,1.4-1.1,1.5-2.2,0.6
	c-0.3-0.3-0.7-0.5-1.1-0.6c-1.5-0.5-3-0.9-4.4-1.6c-1.6-0.8-3.1-1.8-4.8-0.6c-0.6,0.3-1.2,0.7-1.7,1c-0.1-0.1-0.2-0.2-0.3-0.3
	c0.1-0.9-0.2-2,0.2-2.8c1.1-2.1,2.5-4.1,3.9-6.1c0.2-0.4,0.8-0.5,1.3-0.7c1-0.3,1.5-1.1,1.1-2c-0.1-0.3-0.3-0.7-0.4-1h-2.6
	c-0.6,0.5-0.9,0.7-1.2,1c-0.4-1-0.6-1.9-1.1-2.6c-0.2-0.4-0.9-0.4-1.2-0.8c-0.7-1-1.5-2-1.9-3.2c-0.6-1.8-2-2.2-3.4-2.8
	C335.2,241.2,335,241.6,334.8,242z"/>
<path class="st0" d="M372.5,216.9c0.1-1,0.9-1.3,1.4-1.9c1.6-1.7,3.7-2,5.7-1.7c2.1,0.3,4.2,0.9,6.2,1.4c1.7,0.4,3.5,0.8,5.1,1.5
	c1.8,0.8,3.6,0.5,5.4,0.2c0.5-0.1,1-0.4,1.5-0.7c0.7-0.4,1.3-0.9,2-1.2c0.9-0.3,1.9-0.4,2.9-0.5c2.3-0.1,4.7-0.2,6.9,1.1
	c1-0.5,0.9-1.6,0.5-2.2c-0.3-0.6-1.3-1-2-1.1c-1.9-0.2-3.9-0.4-5.8-0.2c-1.6,0.1-3.2,0.6-4.7,1.3c-2.1,1-4.2,1.8-6.5,1
	c-1.3-0.4-2.4-1-3.7-1.4c-2.9-0.8-5.9-1.6-8.8-2.3c-0.5-0.1-1.2,0.2-1.8,0.4c-0.2,0.1-0.4,0.3-0.6,0.4c-1.5,0.8-3,1.6-4.5,2.5
	c-1,0.6-1.3,2-0.7,2.9C371.4,217.2,372.4,217.4,372.5,216.9z"/>
<path class="st0" d="M415.7,218.9c1.2-0.6,2.4-1.2,3.6-1.8c1.5-0.8,3-1.6,4.5-2.3c0.4-0.2,1-0.2,1.3,0c0.7,0.5,1.4,1.2,2,1.9
	c0.2,0.2,0.3,0.4,0.5,0.5c0.8,0.4,1.7,0.8,2.5,1.2c1.2,0.6,2.7,0.6,3.3-0.1c1.8-2.4,4-3.3,6.9-2.6c0.7,0.2,1.4,0.3,2.1,0.4
	c0.5-1.1,0.5-2-0.8-2.4c-0.8-0.3-1.6-0.6-2.4-0.8c-0.4-0.1-0.9-0.4-1.2-0.3c-1.6,0.8-3.5,0.8-4.9,2.2c-0.4,0.4-0.9,0.8-1.4,1.1
	c-0.4,0.2-1,0.2-1.3,0c-1.3-0.9-2.6-1.9-3.9-2.8c-0.7-0.4-1.7-0.8-2.4-0.7c-1.3,0.3-2.6,1.1-3.9,1.7c-1.8,0.9-3.5,1.8-5.3,2.6
	c-1.3,0.6-1.6,0.9-1.2,2.6C414.5,219.2,415.1,219.2,415.7,218.9z"/>
<path class="st0" d="M329.6,244c-1.3-0.9-2.9-1.6-4.5-0.8c-1.2,0.6-2.5,1.3-3.1,2.3c-1.2,2,0.6,5.1,3,5.5c0.7,0.1,1.6,0,2.3-0.3
	c0.9-0.4,1.6-1.2,2.5-1.9c-0.3-0.8-0.5-1.6,0.2-2.5C330.4,245.5,330.2,244.4,329.6,244z"/>
<path class="st1" d="M287.5,250.9c0.6,0.1,1-0.2,1.1-0.9c0.3-1.2,1.4-2,2.6-2c1.2,0,2.4,0.2,3.6,0.2c0.5,0,1-0.2,1.4-0.2
	c-0.3-0.9-0.5-1.7-0.7-2.5c1.7-0.1,2.1,0.3,1.7,1.7c-0.1,0.2-0.2,0.4-0.2,0.7c-0.2,0.9-0.4,1.7-0.4,2.6c0,0.9,0,1.7,0.2,2.6
	c0.1,0.6,0.4,1.2,0.6,1.8c0.1,0.4,0.3,0.7,0.7,1.5c-2.9-1-5.2-0.2-7.5,0.7c0.1,0.4,0.2,0.7,0.3,1c-1.5,1-1.7,1.5-1.3,3.2
	c0.1,0.7,0.3,1.3,0.3,2c0,2.1,0.5,3.9,2.5,5c0.2,0.1,0.3,0.3,0.4,0.4c0.4,0.9,1.1,1,2,0.9c1.4-0.1,2.4,0.6,2.4,1.7
	c0,1.1-0.1,2.1-0.3,3.2c-0.3,1.6,0.7,3.2,2.3,3.4c0.3,0,0.7,0.1,1,0.2c1.5,0.6,2.9,0.4,4.3-0.4c0.5-0.3,1-0.7,1.5-1
	c0.8-0.5,1.2,0,1.3,0.6c0.1,0.8,0,1.6,0,2.5c0.5,0.4,1.1,1,1.6,1.4c1.5-1.2,2.8-2.2,4-3.2c0.6,0.7,1.2,1.7,1.9,2
	c0.9,0.3,2,0.1,2.8,0.1c0.2-1,0.2-1.8,0.5-2.6c0.6-1.5,1.4-1.7,3-1.2c0.6,0.2,1.4,0.1,2.1,0.1c0.6-0.1,1.2-0.3,1.8-0.5
	c0.9-2.2,0.7-2.8-1.7-3.8c-0.3,0.2-0.8,0.3-1,0.6c-0.5,1-1,0.7-1.7,0.2c-1.4-1.1-2.3-0.9-3.4,0.7c-0.5,0.7-0.7,1.8-2,1.5
	c0-0.2,0-0.3-0.1-0.5c-0.4-1.7-0.8-2.1-2.2-2.2c-0.6-0.1-1.8,1.2-2.2,2c-0.1,0.3-0.4,0.5-0.6,0.7c-0.2-0.2-0.4-0.4-0.5-0.7
	c-0.1-0.3-0.2-0.6-0.2-0.9c-0.3-1.3-1.1-1.6-2.3-1c-0.5,0.2-1,0.3-1.5,0.5c0-0.3-0.1-0.5,0-0.5c1.2-1.8,2.1-3.7,2.3-5.9
	c0-0.3-0.1-0.8-0.3-1c-0.4-0.5-0.9-0.8-1.3-1.2c-0.5,0.1-1.3,0.1-1.5,0.5c-0.5,0.8-1.2,0.9-1.7,0.6c-1.2-0.5-2.1,0.3-3.1,0.5
	c-1.1,0.3-2.3,0.6-3.6,0.9c0.5-2.1,0.5-3.8-0.5-5.7c-1.1-2-2.4-2.8-4.5-3c0-0.2,0-0.4,0.1-0.5c0.6-0.7,3.5-1.2,4.3-0.7
	c0.5,0.3,0.9,0.8,1.3,1c1.4,0.6,2.4,1.5,3.1,2.9c0.2,0.5,1.5,0.9,2,0.7c0.7-0.2,0.9-1.1,0.4-1.9c-0.2-0.4-0.4-0.8-0.6-1.3
	c-0.2-0.7-0.6-1.5-0.6-2.2c0-0.7,0.4-1.4,1.4-0.6c0.6,0.5,1.3,0.8,1.8,1.4c0.5,0.6,1.1,0.9,1.8,0.6c0.8-0.3,1.3-0.8,1.2-1.8
	c0-0.8,0.1-1.6,0.3-2.3c0.1-0.5,0.4-1.2,1.1-0.2c0.3,0.4,1,0.6,1.6,0.7c0.7,0.2,1.4-0.1,1.4-0.9c0-0.8-0.2-1.7-0.6-2.2
	c-0.5-0.6-1.5-0.7-2.2-1.1c-1-0.6-1.8-0.4-2.4,0.6c-0.5,0.9-1,1.8-1.5,2.8c-0.4,0.8-0.7,0.7-1.4,0.1c-1-0.9-1.9-2-3.4-2
	c-0.2,0-0.6-0.4-0.7-0.6c-0.9-2.3,0.5-4.3,3-4.2c1.4,0.1,2.8-0.2,3.4-1.3c1.1-2,1.1-4.2-0.1-6.3c-0.2-0.4-0.6-0.8-1-1
	c-2.6-0.8-5.2,0.9-5.5,3.6c-0.1,1.3-0.6,1.7-1.9,1.3c-0.4-0.1-0.8-0.4-1.4-0.7c0.2-0.4,0.3-1,0.6-1.2c0.8-0.5,1.2-1.2,1.5-2.1
	c0.4-0.9,1.2-2,2.1-2.2c1.5-0.4,2-0.8,1.3-2.2c-0.3-0.7-0.6-1.4-1-2.3c1.2,0.2,2.1,0.2,2.9,0.5c1.8,0.7,3.7,0.4,5.6,0.9
	c0.3,0.1,1.1-0.2,1.2-0.6c0.2-0.5,0.4-1.4,0.1-1.7c-0.7-0.8-0.5-1.6-0.2-2.4c0.2-0.5,0.5-1.1,0.3-1.6c-0.2-0.8-1.2-1.7,0.4-2.2
	c0.1,0,0.1-0.2,0.1-0.3c0.5-1.1-0.2-1.7-1-2.1c-0.3,0.2-0.4,0.5-0.7,0.6c-1.7,0.6-3.3,1.2-4.8,2.2c-0.5,0.3-1,0.9-1.6,0.9
	c-1.9,0.3-3.7,0.3-5.6,0.5c-2.6,0.4-5.6,0.2-6.8,3.5c-0.1,0.2-0.4,0.4-0.7,0.5c-1.3,0.4-2.6,0.7-3.9,1.1c-1.4,0.4-2.9,0.6-4.2,1.3
	c-1.4,0.7-2.6,0.9-3.6,0.1c-0.7,0.2-1.2,0.4-1.7,0.5c-0.4,0.1-0.9,0.1-1.2,0.3c-2.7,1.6-5.4,3.2-8.2,4.7c-0.3,0.2-0.7,0.5-1,0.5
	c-1.5-0.1-3-0.1-4.3-0.5c-1.6-0.4-2.9-0.1-4.1,0.8c-0.8,0.6-1.5,1.7-2.4,1.9c-1.2,0.2-1.7,1.1-2.5,1.7c-0.6,0.5-1.1,1.1-1.5,1.7
	c-0.4,0.7-0.9,1.6-0.8,2.3c0.1,1,0.1,1.8-0.3,2.7c-0.5,1.2-1.3,2.5-0.5,3.8c0.6,0.9,1.4,1.7,2.1,2.5c1.3,1.6,3.1,2.5,5,3.2
	c0.4,0.1,0.8,0,1.3-0.1c1-0.2,1.9-0.5,2.9-0.7c0.4-0.1,0.8,0,1.1-0.2c1.4-0.8,2.8-1.8,4.3-2.5c1.1-0.5,2.4-0.9,3.7-1
	c0.5,0,1.1,0.9,1.7,1.2c0.7,0.3,1.7,0.7,2.3,0.4c2.1-0.9,4.1-2,6.2-3c1-0.5,2.2-0.7,3.2-1.3C284.7,251.6,285.9,250.8,287.5,250.9z"
	/>
<path class="st0" d="M291.3,308.8c1.2,1.6,3,1.9,4.8,1.1c1-0.5,2.2-0.6,3.3-0.7c1.8-0.1,3.6-0.1,4.9-1.5c1.8-2,4.2-3,6.6-3.9
	c1.7-0.7,3.6-0.8,5.4-1.2c0.5-0.1,1-0.2,1.4-0.5c0.9-0.7,1.7-1.7,2.7-2.1c1.8-0.7,2.5-2.5,3.8-3.7c1.1-1,2.9-1.7,4.2-1.4
	c1.8,0.4,3.7,0.8,5.2-0.7c1.3-1.2,2.5-2.4,3.5-3.9c0.6-1,1.3-1.3,2.3-1.5c2.1-0.3,4.1-0.7,6-1.7c1.7-0.9,3.4-1.1,5,0
	c1.6,1,3.1,1.8,5.1,1c1.6-0.6,3.3-0.9,4.8-1.9c0.5-0.4,1.3-0.6,1.9-0.7c1.4-0.2,2.8-0.4,4.2-0.5c0.6-0.1,1.1-0.1,1.7-0.1
	c0.8,0,1.5,0,2.3,0c0.5,0,1.1,0.1,1.8,0.1c1-0.3,2-0.6,3.1-0.9c2.3-0.5,4.6-1.5,7-1.1c0.4,0.1,0.9,0,1.3,0c1.3,0.1,2.6-0.1,3.8,0.2
	c2.8,0.7,5.6,1.6,8.4,2.6c3.8,1.3,7.5,0.7,11.2,0c1.8-0.4,3.5-1,5.3-1.6c0.5-0.2,0.9-0.6,1.3-0.9c0.6-0.4,1.1-0.9,1.8-1.1
	c0.2-0.1,0.9,0.3,0.9,0.5c0.2,1.4,0.4,2.9,0.5,4.3c0.1,2.1,1.2,3.7,2.8,4.7c1.5,1,3.3,0.6,4.9,0.1c0.9-0.3,1.8-0.6,2.7-0.7
	c1.4,0,2-0.6,2.4-1.9c0.2-0.7,1-1.2,1.9-0.6c0.8-1.7,2.9-2.5,4.7-2c1.4,0.4,2.9,0.4,4.3,0.3c2.9-0.1,5.6-1.1,8.1-2.6
	c0.3-0.2,0.7-0.3,1-0.5c0.9-0.4,1.7-0.8,2.6-1.1c0.5-0.2,1.1-0.4,1.7-0.5c0.6-0.1,1.2,0.1,1.8,0c1.3-0.3,3,0,3.2-2
	c0-0.2,0.6-0.4,0.9-0.6c0.3-0.2,0.7-0.3,0.9-0.6c1.1-1.4,1.3-3.2,1.5-4.8c0.4-3.5,0.8-6.9,1.7-10.3c0.1-0.2,0.6-0.6,0.9-0.5
	c0.8,0.2,1.6,0.4,2.6,0.5c1.8,0.1,3.5,0.2,5-1.1c0.3-0.3,0.8-0.3,1.3-0.4c0.8-0.2,1.6-0.4,2.3-0.8c0.8-0.4,1.4-1.1,2.1-1.4
	c1.2-0.6,1.7-1.6,2.1-2.7c0.2-0.5,0-1.1-0.2-1.6c-0.7-2-1.9-4-1.1-6.3c0.1-0.5,0.1-1.2-0.2-1.6c-1.3-2.2-2.8-4.4-4.9-6
	c-2.1-1.6-4.2-3.3-6.4-4.7c-1.8-1.1-1.7-2.5-1.6-4.3c0.2-1.5,0.7-3-0.3-4.5c-1.2-1.9-3.1-2.3-4.9-3c-0.6-0.2-1.2,0-1.3,0.7
	c-0.1,0.6-0.1,1.2,0.8,1.4c0.9,0.3,1.7,0.7,2.5,1.2c0.7,0.5,1,1.1,0.8,2.2c-0.3,2.1-0.5,4.3,0.1,6.4c0,0.2,0.2,0.4,0.4,0.5
	c2.5,1.7,4.8,3.6,7.5,5.1c2.1,1.2,3.2,3.1,4.6,4.9c0.2,0.3,0,0.8,0,1.2c-0.1,0.8-0.6,1.6-0.4,2.3c0.4,1.3,1.2,2.6,1.7,3.9
	c0.2,0.4,0.2,1,0,1.3c-0.2,0.2-0.8,0.2-1.2,0.2c-0.3,0-0.5-0.1-0.9-0.3c-0.1,0.8-0.2,1.4-0.3,2.1c-0.1,0.6-0.3,1-1,0.9
	c-1.5-0.2-2.8,0.3-4,1.2c-1.2,0.9-2.4,0.7-2.9-0.6c-0.5-1.2-1.1-1.1-2-0.8c-0.4,0.1-1.1,0.2-1.2,0c-0.6-1.1-1.2-2.2-1.7-3.4
	c-0.3-0.6-0.3-1.5-0.8-1.9c-1-0.7-2.1-1.5-3.7-0.5c0.2,0.8,0.3,1.8,0.7,2.6c0.5,0.9,1.4,1.6,1.4,2.8c0,0.3,0.5,0.7,0.8,1
	c0.2,0.4,0.6,0.8,0.6,1.2c-0.1,1.4-0.3,2.7-0.4,4.1c-0.2,1.8-0.4,3.5-0.6,5.3c-0.2,1.3-0.5,2.6-0.6,3.9c-0.1,1.9-1.1,3.1-3.1,3
	c-1-0.1-1.5,0.3-1.8,1.2c-0.1,0.4-0.3,0.9-0.6,0.9c-2.1,0.7-4.2,1.4-6.4,2c-1,0.3-2,0.3-2.4,1.5c0,0.2-0.3,0.3-0.5,0.4
	c-1.2,0.3-2.3,0.8-3.5,0.9c-1.3,0.1-2.7,0.1-3.9-0.3c-1.3-0.4-2.5-0.7-3.7,0c-1.7,0.9-3.6,1.8-5.3,2.7c-0.4,0.2-0.7,0.7-1,1
	c-0.5,0.5-0.9,1.1-1.5,1.4c-0.7,0.3-1.5,0.4-2.3,0.5c-2.4,0.4-3.5-0.6-3.5-3c0-0.5,0.1-1.2-0.2-1.6c-0.9-1.3-0.6-2.6,0-3.8
	c0.8-1.6,1.6-3.2,3.6-3.8c0.7-0.2,1.4-0.3,2.1-0.3c0.9-0.1,1.9-0.2,2.8-0.1c1.2,0.1,2.5,0.4,3.7,0.4c1,0,2-0.4,3.1-0.4
	c1-0.1,2.1-1,2.2-2.2c0.1-1.3-0.9-1.2-1.7-1.5c-0.3-0.1-0.8-0.7-0.7-0.9c0.4-0.9,0.9-1.7,1.5-2.5c-0.4-0.8-1-1.8-1.5-2.8
	c-0.4-0.8-0.6-1.8-1.1-2.5c-0.8-1.1-1.8-2.1-2.7-3.2c-0.4-0.4-0.8-3.1-0.3-3.3c1-0.5,1.8-1.5,3.1-1.3c0.9,0.1,3.5-2.1,3.3-2.9
	c-0.3-1-0.8-2-1.4-2.9c-0.6-0.7-1.5-1.1-2-1.5c-0.6,0.1-1.1,0.4-1.5,0.2c-0.3-0.1-0.4-0.7-0.5-1.1c-0.7-2.3,0.8-4,1.9-5.7
	c0.2-0.4,0.6-0.8,0.9-0.9c2-0.3,4.1-0.5,6.1-0.8c0.1,0,0.1,0.1,0.2,0.1c1.2-0.1,2.8,1.4,3.6-0.9c0,0,0.1,0,0.2-0.1
	c1.3-0.6,2.5-1.2,4.1-1c2.3,0.3,4.3,0.7,4.9,3.3c0.2,0.9,0.9,0.7,1.4,0.6c0.7-0.2,1-1.4,0.7-2.2c-0.2-0.3-0.1-0.8-0.3-1.1
	c-0.2-0.5-0.4-1.1-0.9-1.4c-2.6-1.6-5.4-2.5-8.5-2.1c-0.9,0.1-2.1,0.5-2.7,1.2c-0.8,0.9-1.6,1-2.7,0.8c-1.8-0.3-3.6-1.1-5.4,0
	c-1,0.6-2,1.3-3,1.9c-0.3,0.2-0.6,0.3-0.8,0.6c-0.7,0.8-1.3,1.8-2,2.6c-2.1,2-2.5,6.1,0,8.9c0.8,0.9,0.8,1.4,0.1,2.3
	c-0.8,1-1.5,2-2,3.1c-0.2,0.4-0.3,1.2-0.1,1.6c0.5,1,1.1,1.9,1.7,2.8c0.4,0.7,0.9,1.3,1.3,2c0.5,1,0.8,2.1,1.5,2.9
	c1.5,1.5,0.8,3.4-0.8,4.2c-1.9,0.9-3.8,1.9-6,2.2c-1.1,0.1-2.2,0.7-3.1,1.3c-2,1.5-3.8,3.2-5.8,4.7c-0.4,0.4-1.1,0.5-1.4,1
	c-0.8,1-1.7,1.4-2.9,1.5c-0.3,0-0.6,0.1-0.8,0.3c-0.5,0.3-1,0.8-1.5,1c-1.6,0.4-3.2,0.7-4.8,1.1c-1.7,0.5-3.3,0.6-5,0.2
	c-1.8-0.4-3.7-0.6-5.5-1.1c-0.9-0.3-2.5,0-2.4-1.8c-1.8-0.1-3.6-0.2-5.3-0.3c-1.7-0.1-3.3-0.4-4.9-0.5c-1.4-0.1-2.7,0-4.1,0.1
	c-0.6,0-1.6,0.2-1.7,0.5c-0.3,0.9-0.9,0.6-1.4,0.6c-0.2,0-0.4-0.1-0.6,0c-1.5,0.2-3.1,0.6-4.6,0.7c-2.3,0.2-4.6,0-6.9,0.3
	c-1.5,0.2-2.9,1.2-4.3,1.8c-2.9,1.4-5,1.7-7.4-0.8c-0.6-0.6-2.4-0.7-3.2-0.4c-1,0.5-2,1-3.1,1.2c-2.2,0.5-4.4,0.9-6.5,0.4
	c-0.5,0.6-0.9,1.2-1.3,1.7c-0.3,0.4-0.7,0.7-1.1,1.1c-0.9,1-1.7,2.1-2.7,3.1c-1.1,1.2-2,1.2-3.5,0.7c-1-0.3-2.1-0.3-3.1-0.4
	c-0.2,0-0.4,0.1-0.6,0.3c-1.6,1.6-3.1,3.3-4.7,4.9c-0.7,0.7-1.7,1-2.3,1.7c-1.8,1.8-4.1,2-6.3,1.8c-2.3-0.2-3.9,1.3-5.9,2
	c0,0-0.1,0.1-0.1,0.1c-1.5,1.8-3.3,2.9-5.7,2.7c-0.4,0.4-0.9,0.6-1.3,0.7c-0.3,0.1-0.7,0-1,0.1c-1.2,0.5-2.3,1.1-3.5,1.5
	c-0.5,0.2-1.3,0-1.7-0.4c-0.3-0.3-0.2-1.1,0-1.6c0.3-1,0-1.7-1-1.9c-0.5-0.1-0.9-0.3-1.3-0.4c-0.5,0.2-0.6,1.3-1.5,0.4
	c-0.4-0.4-1-0.6-1.5-1c-0.1-0.1,0-0.4,0.1-0.6c0.6-1.3,0.5-2.8-0.1-4.2c-0.1-0.2,0.1-0.5,0.3-0.7c0.2-0.3,0.4-0.7,0.7-0.9
	c1-0.9,1.8-2,3.3-2.1c0.3,0,0.5-0.1,0.8-0.3c1.3-0.9,2.7-1.9,4-2.8c0.1-0.1,0.2-0.1,0.3-0.2c1.9-0.9,3.9-1.1,5.9-1.3
	c1.4-0.2,2.7,0.3,3.9,1.1c1.1,0.7,1.3,0.4,1.9-0.7c0.7-1.3,1.3-3,3.1-3.2c1.6-0.2,3.4-1.6,5,0.1c0.1,0.1,0.3,0.1,0.5,0.1
	c1.5,0.2,3.1,0.3,4.6,0.4c0.6,0,1.3,0.1,1.7-0.3c0.7-0.7,1.3-1.6,1.9-2.5c0.8-1.2,1.4-2.6,2.4-3.7c0.7-0.8,1-2.2,2.5-2
	c0.1,0,0.2-0.2,0.4-0.3c1.3-1.1,2.7-1.7,4.4-1c0.3-0.7,0.5-1.4,0.8-2c0.9-0.1,2-0.1,2.9-0.4c1.3-0.4,2.6-0.9,3.9-1.4
	c0.4-0.1,0.7-0.4,1-0.6c0.7-0.7,0.5-1.6-0.3-2.1c-0.6-0.4-1.2-0.7-1.6-0.9c-1.6,0-2.2,1.2-3.2,1.9c-0.9,0.6-1.8,0.5-2.8-0.1
	c-1.8-1.1-3.6-1.2-5.2,0.5c-0.3,0.3-0.9,0.4-1.3,0.6c-0.2,0.1-0.5,0.2-0.7,0.3c0.1,0.2,0.2,0.4,0.3,0.6c0.1,0.4,0.5,0.9,0.3,1.2
	c-0.5,0.8-1,1.5-1.7,2.1c-1,0.9-2.1,1.7-3.2,2.5c-0.1,0.1-0.3,0.2-0.4,0.2c-0.9-0.1-1.6,0-1.5,1.2c0,0.2-0.5,0.5-0.9,0.7
	c-0.5,0.3-1,0.5-1.4,0.8c-1.5,1.4-3.5,1.6-5,0.5c-0.5,0.2-0.9,0.4-1.3,0.5c-0.3,0.1-0.6,0-0.9,0.1c-1,0.3-2.1,0.5-3,1
	c-0.9,0.5-1.7,1.3-2.6,1.9c-0.4,0.3-0.8,0.7-1.2,0.6c-2.8-0.3-5.4-0.3-8.1,0.8c-1.8,0.7-3.7,1.4-5.1,2.9c-0.3,0.3-0.9,0.5-1.3,0.7
	c-1.5,0.7-3.2,0.7-4.4,2.1c-2.1,2.3-3.3,4.9-3.2,8c0.1,2.1,2,5.2,4.4,5.3C289.8,306.8,290.5,307.8,291.3,308.8z"/>
<path class="st0" d="M347.4,222.6c0.5-0.1,1.1-0.4,1.3-0.8c0.9-1.4,2.6-2.5,4.1-2c1.3,0.4,2.6,0.4,3.9,0.2c1.9-0.4,3.8-0.6,5.7-1
	c0.6-0.1,1.2-0.4,1.9-0.6c0,0.1,0,0.1,0.1,0.2c0.3,0,0.8,0.1,1-0.1c0.8-0.9,1.4-1.9,2.1-2.8c0.4-0.6,0.9-1.1,1.3-1.6
	c0.3-0.4,0.9-1,0.8-1.4c-0.2-1-1.1-1.3-2.1-1.1c-1.4,0.4-2,1.6-2.4,2.7c-0.5,1.3-1.3,1.6-2.4,1.9c-1.7,0.5-3.6,0.6-5.3,0.9
	c-1.9,0.3-3.6,0.2-5.4,0.1c-0.5,0-1.1-0.2-1.4,0.1c-1.1,0.9-2.7,1-3.6,2.2c-0.5,0.7-0.8,1.4-0.5,2.2
	C346.7,222.1,347.2,222.6,347.4,222.6z"/>
<path class="st0" d="M451.1,221c0.6,0.1,1.3,0.4,1.7,0.9c0.5,0.6,0.6,1.5,0.9,2.2c0.9,2,1.8,3,3.8,2c0.3-0.1,0.7-0.5,0.7-0.8
	c0-0.4-0.2-0.9-0.5-1.2c-0.2-0.3-0.7-0.4-1.1-0.5c-0.7-0.3-1.2-0.6-1.3-1.4c-0.1-0.7-0.4-1.5-0.8-2.1c-0.7-1.2-1.8-1.4-3.1-1.5
	c-1.6-0.1-3.3-0.1-4.8-0.4c-0.8-0.1-1.8-0.8-2.4,0c-0.3,0.5,0.1,1.4,0.2,2.1C446.6,220.6,448.9,220.7,451.1,221z"/>
<path d="M372.4,285c-0.7,0-1.2-0.1-1.8-0.1c-0.8,0-1.5,0-2.3,0c-0.6,0-1.1,0-1.7,0.1c-1.4,0.1-2.8,0.3-4.2,0.5
	c-0.7,0.1-1.4,0.3-1.9,0.7c-1.5,1-3.2,1.3-4.8,1.9c-1.9,0.7-3.5,0-5.1-1c-1.6-1.1-3.4-0.8-5,0c-1.9,1-3.9,1.4-6,1.7
	c-1,0.1-1.7,0.5-2.3,1.5c-0.9,1.4-2.2,2.7-3.5,3.9c-1.5,1.4-3.4,1-5.2,0.7c-1.4-0.3-3.2,0.5-4.2,1.4c-1.3,1.2-2,3-3.8,3.7
	c-1,0.4-1.8,1.4-2.7,2.1c-0.4,0.3-0.9,0.4-1.4,0.5c-1.8,0.4-3.7,0.5-5.4,1.2c-2.4,0.9-4.8,1.9-6.6,3.9c-1.3,1.4-3.1,1.4-4.9,1.5
	c-1.1,0.1-2.3,0.2-3.3,0.7c-1.8,0.9-3.6,0.6-4.8-1.1c-0.8-1-1.5-2-3-2.1c-2.4-0.1-4.4-3.2-4.4-5.3c-0.1-3.1,1.1-5.7,3.2-8
	c1.3-1.4,2.9-1.4,4.4-2.1c0.5-0.2,1-0.4,1.3-0.7c1.4-1.5,3.3-2.1,5.1-2.9c2.6-1.1,5.3-1.1,8.1-0.8c0.4,0,0.8-0.3,1.2-0.6
	c0.9-0.6,1.7-1.4,2.6-1.9c0.9-0.5,2-0.7,3-1c0.3-0.1,0.6,0,0.9-0.1c0.4-0.1,0.8-0.3,1.3-0.5c1.5,1,3.4,0.9,5-0.5
	c0.4-0.4,0.9-0.5,1.4-0.8c0.3-0.2,0.9-0.5,0.9-0.7c-0.1-1.2,0.6-1.3,1.5-1.2c0.1,0,0.3-0.1,0.4-0.2c1.1-0.8,2.2-1.6,3.2-2.5
	c0.7-0.6,1.2-1.3,1.7-2.1c0.1-0.2-0.2-0.8-0.3-1.2c-0.1-0.2-0.2-0.4-0.3-0.6c0.2-0.1,0.5-0.2,0.7-0.3c0.4-0.2,1-0.3,1.3-0.6
	c1.6-1.7,3.4-1.6,5.2-0.5c1,0.6,2,0.7,2.8,0.1c1-0.7,1.6-1.9,3.2-1.9c0.3,0.2,0.9,0.5,1.6,0.9c0.8,0.5,1,1.4,0.3,2.1
	c-0.3,0.3-0.6,0.5-1,0.6c-1.3,0.5-2.6,1.1-3.9,1.4c-0.9,0.3-2,0.3-2.9,0.4c-0.2,0.6-0.5,1.3-0.8,2c-1.7-0.6-3.1,0-4.4,1
	c-0.1,0.1-0.3,0.3-0.4,0.3c-1.5-0.2-1.8,1.2-2.5,2c-1,1.1-1.6,2.5-2.4,3.7c-0.6,0.9-1.1,1.8-1.9,2.5c-0.3,0.3-1.1,0.3-1.7,0.3
	c-1.5-0.1-3.1-0.3-4.6-0.4c-0.2,0-0.4,0-0.5-0.1c-1.6-1.7-3.3-0.3-5-0.1c-1.8,0.2-2.4,1.9-3.1,3.2c-0.6,1.1-0.8,1.4-1.9,0.7
	c-1.2-0.8-2.5-1.2-3.9-1.1c-2,0.2-4.1,0.4-5.9,1.3c-0.1,0-0.2,0.1-0.3,0.2c-1.3,0.9-2.7,1.9-4,2.8c-0.2,0.1-0.5,0.3-0.8,0.3
	c-1.5,0.1-2.3,1.2-3.3,2.1c-0.3,0.2-0.5,0.6-0.7,0.9c-0.1,0.2-0.3,0.5-0.3,0.7c0.6,1.4,0.6,2.9,0.1,4.2c-0.1,0.2-0.2,0.5-0.1,0.6
	c0.5,0.3,1.1,0.5,1.5,1c0.8,1,1-0.2,1.5-0.4c0.4,0.1,0.9,0.3,1.3,0.4c1,0.2,1.3,0.9,1,1.9c-0.1,0.5-0.3,1.4,0,1.6
	c0.4,0.4,1.2,0.5,1.7,0.4c1.2-0.4,2.3-1,3.5-1.5c0.3-0.1,0.7,0,1-0.1c0.5-0.1,0.9-0.4,1.3-0.7c2.4,0.1,4.2-1,5.7-2.7
	c0,0,0-0.1,0.1-0.1c1.9-0.7,3.6-2.2,5.9-2c2.3,0.2,4.5,0,6.3-1.8c0.7-0.7,1.7-1,2.3-1.7c1.6-1.6,3.1-3.2,4.7-4.9
	c0.1-0.1,0.4-0.3,0.6-0.3c1.1,0.1,2.1,0.1,3.1,0.4c1.5,0.5,2.5,0.4,3.5-0.7c0.9-1,1.8-2.1,2.7-3.1c0.3-0.4,0.7-0.7,1.1-1.1
	c0.4-0.5,0.8-1.1,1.3-1.7c2.1,0.6,4.3,0.2,6.5-0.4c1.1-0.2,2.1-0.7,3.1-1.2c0.8-0.4,2.6-0.2,3.2,0.4c2.4,2.5,4.5,2.2,7.4,0.8
	c1.4-0.7,2.8-1.6,4.3-1.8c2.2-0.4,4.6-0.1,6.9-0.3c1.5-0.1,3.1-0.5,4.6-0.7c0.2,0,0.4,0,0.6,0c0.5,0,1.1,0.3,1.4-0.6
	c0.1-0.3,1.1-0.4,1.7-0.5c1.4-0.1,2.7-0.1,4.1-0.1c1.7,0.1,3.3,0.3,4.9,0.5c1.8,0.1,3.5,0.2,5.3,0.3c-0.1,1.8,1.4,1.5,2.4,1.8
	c1.8,0.5,3.7,0.7,5.5,1.1c1.7,0.4,3.4,0.2,5-0.2c1.6-0.4,3.2-0.7,4.8-1.1c0.6-0.1,1-0.7,1.5-1c0.2-0.1,0.5-0.2,0.8-0.3
	c1.2-0.1,2.1-0.5,2.9-1.5c0.3-0.4,0.9-0.6,1.4-1c1.9-1.6,3.8-3.3,5.8-4.7c0.9-0.7,2-1.2,3.1-1.3c2.2-0.3,4.1-1.3,6-2.2
	c1.6-0.8,2.3-2.6,0.8-4.2c-0.7-0.7-1-1.9-1.5-2.9c-0.4-0.7-0.9-1.4-1.3-2c-0.6-0.9-1.3-1.8-1.7-2.8c-0.2-0.4-0.1-1.2,0.1-1.6
	c0.6-1.1,1.3-2.1,2-3.1c0.7-0.9,0.7-1.4-0.1-2.3c-2.5-2.7-2.1-6.8,0-8.9c0.8-0.8,1.3-1.7,2-2.6c0.2-0.3,0.6-0.4,0.8-0.6
	c1-0.6,2-1.3,3-1.9c1.8-1.1,3.6-0.3,5.4,0c1.1,0.2,1.8,0.2,2.7-0.8c0.6-0.7,1.7-1.1,2.7-1.2c3.1-0.4,5.9,0.5,8.5,2.1
	c0.4,0.3,0.6,0.9,0.9,1.4c0.2,0.3,0.1,0.8,0.3,1.1c0.4,0.7,0.1,2-0.7,2.2c-0.5,0.1-1.2,0.3-1.4-0.6c-0.7-2.6-2.7-3-4.9-3.3
	c-1.6-0.2-2.8,0.4-4.1,1c-0.1,0-0.2,0-0.2,0.1c-0.7,2.2-2.3,0.8-3.6,0.9c-0.1,0-0.1-0.1-0.2-0.1c-2,0.2-4.1,0.5-6.1,0.8
	c-0.4,0.1-0.7,0.5-0.9,0.9c-1.1,1.8-2.6,3.4-1.9,5.7c0.1,0.4,0.2,1,0.5,1.1c0.4,0.1,0.9-0.1,1.5-0.2c0.5,0.4,1.5,0.8,2,1.5
	c0.7,0.8,1.2,1.8,1.4,2.9c0.2,0.8-2.4,3-3.3,2.9c-1.3-0.2-2.1,0.8-3.1,1.3c-0.4,0.2,0,2.8,0.3,3.3c0.9,1,1.9,2,2.7,3.2
	c0.5,0.7,0.7,1.7,1.1,2.5c0.5,1,1,2,1.5,2.8c-0.5,0.9-1.1,1.7-1.5,2.5c-0.1,0.2,0.4,0.8,0.7,0.9c0.8,0.2,1.8,0.2,1.7,1.5
	c-0.1,1.1-1.2,2.1-2.2,2.2c-1,0.1-2,0.5-3.1,0.4c-1.2,0-2.5-0.3-3.7-0.4c-0.9-0.1-1.9,0-2.8,0.1c-0.7,0.1-1.4,0.1-2.1,0.3
	c-1.9,0.5-2.8,2.2-3.6,3.8c-0.6,1.2-0.9,2.5,0,3.8c0.3,0.4,0.2,1.1,0.2,1.6c0,2.4,1.1,3.3,3.5,3c0.8-0.1,1.6-0.2,2.3-0.5
	c0.6-0.3,1-0.9,1.5-1.4c0.3-0.3,0.6-0.8,1-1c1.8-0.9,3.6-1.8,5.3-2.7c1.3-0.7,2.4-0.5,3.7,0c1.2,0.4,2.6,0.4,3.9,0.3
	c1.2-0.1,2.4-0.5,3.5-0.9c0.2-0.1,0.5-0.2,0.5-0.4c0.4-1.2,1.4-1.3,2.4-1.5c2.1-0.6,4.3-1.2,6.4-2c0.3-0.1,0.5-0.6,0.6-0.9
	c0.3-0.9,0.8-1.3,1.8-1.2c1.9,0.1,3-1.1,3.1-3c0.1-1.3,0.4-2.6,0.6-3.9c0.2-1.8,0.4-3.5,0.6-5.3c0.2-1.4,0.4-2.7,0.4-4.1
	c0-0.4-0.3-0.8-0.6-1.2c-0.2-0.4-0.8-0.7-0.8-1c0-1.2-0.9-1.9-1.4-2.8c-0.4-0.8-0.5-1.8-0.7-2.6c1.6-1,2.7-0.2,3.7,0.5
	c0.5,0.3,0.5,1.2,0.8,1.9c0.5,1.1,1.1,2.3,1.7,3.4c0.1,0.2,0.8,0.1,1.2,0c0.9-0.3,1.6-0.4,2,0.8c0.5,1.3,1.7,1.5,2.9,0.6
	c1.2-0.9,2.5-1.4,4-1.2c0.7,0.1,0.9-0.3,1-0.9c0.1-0.7,0.2-1.3,0.3-2.1c0.4,0.1,0.6,0.3,0.9,0.3c0.4,0,1,0,1.2-0.2
	c0.2-0.3,0.2-0.9,0-1.3c-0.5-1.3-1.3-2.5-1.7-3.9c-0.2-0.7,0.3-1.5,0.4-2.3c0.1-0.4,0.2-1,0-1.2c-1.4-1.8-2.5-3.7-4.6-4.9
	c-2.6-1.5-5-3.4-7.5-5.1c-0.2-0.1-0.3-0.3-0.4-0.5c-0.5-2.1-0.4-4.3-0.1-6.4c0.2-1.1-0.1-1.7-0.8-2.2c-0.8-0.5-1.6-0.9-2.5-1.2
	c-0.8-0.3-0.8-0.9-0.8-1.4c0.1-0.7,0.7-0.9,1.3-0.7c1.8,0.7,3.7,1.1,4.9,3c1,1.5,0.4,3.1,0.3,4.5c-0.2,1.8-0.2,3.2,1.6,4.3
	c2.2,1.4,4.3,3.1,6.4,4.7c2.2,1.6,3.6,3.7,4.9,6c0.3,0.4,0.3,1.1,0.2,1.6c-0.7,2.3,0.4,4.3,1.1,6.3c0.2,0.5,0.4,1.2,0.2,1.6
	c-0.4,1.1-0.9,2.1-2.1,2.7c-0.8,0.4-1.4,1-2.1,1.4c-0.7,0.4-1.5,0.5-2.3,0.8c-0.4,0.1-1,0.1-1.3,0.4c-1.5,1.4-3.1,1.3-5,1.1
	c-0.9-0.1-1.7-0.2-2.6-0.5c-0.2-0.1-0.8,0.3-0.9,0.5c-0.9,3.4-1.4,6.8-1.7,10.3c-0.2,1.6-0.3,3.4-1.5,4.8c-0.2,0.3-0.6,0.4-0.9,0.6
	c-0.3,0.2-0.9,0.4-0.9,0.6c-0.3,2-2,1.7-3.2,2c-0.6,0.1-1.2,0-1.8,0c-0.6,0.1-1.1,0.3-1.7,0.5c-0.9,0.4-1.7,0.7-2.6,1.1
	c-0.3,0.2-0.7,0.3-1,0.5c-2.5,1.5-5.2,2.5-8.1,2.6c-1.4,0.1-2.9,0.1-4.3-0.3c-1.8-0.5-3.9,0.3-4.7,2c-0.9-0.6-1.7-0.1-1.9,0.6
	c-0.4,1.3-1,1.8-2.4,1.9c-0.9,0-1.8,0.4-2.7,0.7c-1.7,0.5-3.5,0.8-4.9-0.1c-1.6-1-2.6-2.6-2.8-4.7c-0.1-1.5-0.3-2.9-0.5-4.3
	c0-0.2-0.7-0.6-0.9-0.5c-0.6,0.3-1.2,0.7-1.8,1.1c-0.5,0.3-0.8,0.8-1.3,0.9c-1.7,0.6-3.5,1.3-5.3,1.6c-3.7,0.7-7.5,1.4-11.2,0
	c-2.7-1-5.5-1.8-8.4-2.6c-1.2-0.3-2.5-0.2-3.8-0.2c-0.4,0-0.9,0-1.3,0c-2.5-0.4-4.7,0.5-7,1.1C374.4,284.4,373.3,284.8,372.4,285z"
	/>
<path d="M317.4,280c-0.7,0-1.9,0.3-2.8-0.1c-0.8-0.3-1.3-1.3-1.9-2c-1.2,1-2.5,2-4,3.2c-0.5-0.4-1.1-1-1.6-1.4c0-0.9,0.1-1.7,0-2.5
	c-0.1-0.6-0.6-1.1-1.3-0.6c-0.5,0.3-1,0.7-1.5,1c-1.3,0.8-2.8,1.1-4.3,0.4c-0.3-0.1-0.7-0.1-1-0.2c-1.6-0.2-2.6-1.8-2.3-3.4
	c0.2-1,0.3-2.1,0.3-3.2c0-1.1-1-1.7-2.4-1.7c-0.8,0-1.6-0.1-2-0.9c-0.1-0.2-0.2-0.4-0.4-0.4c-2-1.1-2.5-2.9-2.5-5
	c0-0.7-0.1-1.3-0.3-2c-0.4-1.7-0.2-2.2,1.3-3.2c-0.1-0.3-0.2-0.6-0.3-1c2.3-0.9,4.6-1.7,7.5-0.7c-0.3-0.8-0.5-1.1-0.7-1.5
	c-0.2-0.6-0.5-1.2-0.6-1.8c-0.1-0.9-0.2-1.7-0.2-2.6c0-0.9,0.3-1.7,0.4-2.6c0-0.2,0.2-0.4,0.2-0.7c0.3-1.4,0-1.8-1.7-1.7
	c0.2,0.8,0.5,1.6,0.7,2.5c-0.4,0.1-0.9,0.2-1.4,0.2c-1.2,0-2.4-0.2-3.6-0.2c-1.3,0-2.4,0.7-2.6,2c-0.2,0.7-0.5,1-1.1,0.9
	c-1.6-0.1-2.9,0.7-4.2,1.5c-0.9,0.6-2.1,0.8-3.2,1.3c-2.1,1-4.1,2.2-6.2,3c-0.6,0.3-1.6-0.1-2.3-0.4c-0.6-0.3-1.2-1.2-1.7-1.2
	c-1.2,0.1-2.5,0.5-3.7,1c-1.5,0.7-2.8,1.7-4.3,2.5c-0.3,0.2-0.8,0.1-1.1,0.2c-1,0.2-1.9,0.5-2.9,0.7c-0.4,0.1-0.9,0.2-1.3,0.1
	c-1.9-0.7-3.7-1.6-5-3.2c-0.7-0.8-1.5-1.6-2.1-2.5c-0.8-1.3,0-2.6,0.5-3.8c0.4-0.9,0.4-1.7,0.3-2.7c-0.1-0.7,0.4-1.6,0.8-2.3
	c0.4-0.6,0.9-1.2,1.5-1.7c0.8-0.6,1.3-1.5,2.5-1.7c0.9-0.2,1.6-1.3,2.4-1.9c1.2-0.9,2.5-1.3,4.1-0.8c1.4,0.4,2.9,0.4,4.3,0.5
	c0.3,0,0.7-0.3,1-0.5c2.7-1.6,5.4-3.2,8.2-4.7c0.4-0.2,0.8-0.2,1.2-0.3c0.5-0.1,1-0.3,1.7-0.5c1,0.8,2.2,0.6,3.6-0.1
	c1.3-0.7,2.8-0.9,4.2-1.3c1.3-0.4,2.6-0.7,3.9-1.1c0.2-0.1,0.6-0.3,0.7-0.5c1.2-3.2,4.1-3.1,6.8-3.5c1.9-0.3,3.7-0.3,5.6-0.5
	c0.6-0.1,1.1-0.6,1.6-0.9c1.5-1,3.1-1.6,4.8-2.2c0.3-0.1,0.4-0.4,0.7-0.6c0.8,0.5,1.4,1,1,2.1c0,0.1-0.1,0.3-0.1,0.3
	c-1.6,0.5-0.6,1.3-0.4,2.2c0.1,0.5-0.1,1.1-0.3,1.6c-0.4,0.9-0.5,1.6,0.2,2.4c0.3,0.3,0.1,1.2-0.1,1.7c-0.1,0.3-0.8,0.6-1.2,0.6
	c-1.8-0.5-3.8-0.2-5.6-0.9c-0.8-0.3-1.7-0.3-2.9-0.5c0.4,0.9,0.7,1.6,1,2.3c0.7,1.4,0.2,1.9-1.3,2.2c-0.8,0.2-1.7,1.3-2.1,2.2
	c-0.4,0.9-0.7,1.6-1.5,2.1c-0.3,0.2-0.4,0.8-0.6,1.2c0.6,0.3,1,0.5,1.4,0.7c1.2,0.4,1.7,0,1.9-1.3c0.3-2.7,2.8-4.3,5.5-3.6
	c0.4,0.1,0.7,0.6,1,1c1.2,2.1,1.2,4.3,0.1,6.3c-0.6,1.1-2,1.4-3.4,1.3c-2.5-0.2-3.9,1.8-3,4.2c0.1,0.3,0.5,0.6,0.7,0.6
	c1.6,0,2.5,1.1,3.4,2c0.7,0.6,1,0.6,1.4-0.1c0.5-0.9,1-1.8,1.5-2.8c0.6-1.1,1.3-1.2,2.4-0.6c0.7,0.4,1.7,0.5,2.2,1.1
	c0.5,0.5,0.6,1.4,0.6,2.2c0,0.8-0.7,1-1.4,0.9c-0.6-0.1-1.3-0.3-1.6-0.7c-0.7-0.9-0.9-0.3-1.1,0.2c-0.2,0.7-0.3,1.6-0.3,2.3
	c0,1-0.5,1.5-1.2,1.8c-0.7,0.3-1.3,0-1.8-0.6c-0.5-0.6-1.2-0.9-1.8-1.4c-1-0.8-1.3-0.1-1.4,0.6c0,0.7,0.3,1.5,0.6,2.2
	c0.1,0.4,0.4,0.9,0.6,1.3c0.4,0.8,0.2,1.7-0.4,1.9c-0.6,0.2-1.8-0.2-2-0.7c-0.7-1.4-1.7-2.3-3.1-2.9c-0.5-0.2-0.9-0.7-1.3-1
	c-0.8-0.5-3.7,0-4.3,0.7c-0.1,0.1-0.1,0.3-0.1,0.5c2.1,0.2,3.4,0.9,4.5,3c1,2,1,3.7,0.5,5.7c1.3-0.3,2.4-0.6,3.6-0.9
	c1-0.3,1.9-1,3.1-0.5c0.6,0.2,1.3,0.1,1.7-0.6c0.2-0.3,1-0.3,1.5-0.5c0.4,0.4,0.9,0.7,1.3,1.2c0.2,0.3,0.3,0.7,0.3,1
	c-0.2,2.2-1.1,4.1-2.3,5.9c-0.1,0.1,0,0.2,0,0.5c0.5-0.2,1.1-0.3,1.5-0.5c1.2-0.6,1.9-0.3,2.3,1c0.1,0.3,0.1,0.6,0.2,0.9
	c0.1,0.3,0.3,0.5,0.5,0.7c0.2-0.2,0.5-0.4,0.6-0.7c0.3-0.8,1.6-2.1,2.2-2c1.4,0.1,1.8,0.5,2.2,2.2c0,0.1,0,0.3,0.1,0.5
	c1.3,0.3,1.6-0.8,2-1.5c1.1-1.6,1.9-1.9,3.4-0.7c0.7,0.6,1.2,0.9,1.7-0.2c0.2-0.3,0.6-0.4,1-0.6c2.3,1,2.6,1.6,1.7,3.8
	c-0.6,0.2-1.2,0.4-1.8,0.5c-0.7,0.1-1.4,0.1-2.1-0.1c-1.6-0.5-2.4-0.3-3,1.2C317.6,278.1,317.6,279,317.4,280z M294.3,236.1
	c-0.1-0.2-0.1-0.3-0.2-0.5c1.6-0.9,3.2-1.8,5-2.8c-0.1-0.2-0.2-0.7-0.5-1.1c-0.5-0.6-1-1.1-1.7-1.9c-1.4,0.2-3,0.1-3.8,2.1
	c-0.2,0.4-0.7,0.8-1.1,1c-2.1,0.9-4.2,1.8-6.3,2.6c-0.7,0.3-1.6,0.1-2.3,0.4c-1.5,0.5-3,1-4.7,1c-1.4,0-2.8,0.5-4.2,0.7
	c-0.1,0-0.1,0.1-0.2,0.1c-2.3,1.5-4.5,3-6.8,4.6c-0.8,0.6-1.6,0.6-2.4,0.2c-2.2-1-4.5-1.3-6.7-0.3c-0.4,0.2-1,0.5-1.1,0.9
	c-0.6,1.7-1.9,2.5-3,3c-0.5,1.6-0.7,3.1-1.3,4.4c-0.4,1-0.9,1.8-0.5,2.9c0.4,0.9,0.8,1.4,2.2,1.4c1.5,0.1,3.1,0.8,4.8,0.6
	c0.2,0,0.4,0.2,0.6,0.2c0.7,0,1.5,0.2,2.1-0.1c1.5-0.7,2.9-1.8,4.4-2.5c1.6-0.7,3.3-0.9,5-0.2c0.8,0.3,1.8,0.9,2.5,0.7
	c1.4-0.4,2.7-1.2,4-1.9c0.8-0.4,1.5-1,2.3-1.3c1.6-0.6,3.2-1.1,4.9-1.7c0.1,0,0.3-0.1,0.4-0.2c0.7-0.6,1.3-1.2,2-1.7
	c1.8-1.2,3.5-2.4,6.2-2c-2-1.5-0.6-2.5,0-3.5c0.5-1,0.8-2.2,1.5-2.9c0.9-0.8,0.7-1.6,0.7-2.5C295.2,236.1,294.8,236.1,294.3,236.1z
	 M303.1,268.6c-1,0.4-1.9,0.4-2.2,0.9c-0.8,1.2-1.3,2.5-1.9,3.9c-0.1,0.1,0.4,0.6,0.6,0.7c0.4,0.1,1.2,0.2,1.4,0
	c0.9-1.2,1.7-2.5,2.5-3.9C303.6,269.7,303.2,269.1,303.1,268.6z M306.8,230.7c-0.4-0.9-0.3-1.5,0.6-1.8c0.1,0,0.1-0.6,0.2-0.9
	c-0.3,0-0.8-0.2-0.9-0.1c-0.3,0.3-0.5,0.7-0.6,1c-1.5,0.1-2.9,0.2-4.5,0.3c0.2,0.3,0.3,0.6,0.4,0.7
	C303.4,230.2,305,230.4,306.8,230.7z M300.1,235.7c0.1,0,0.3,0,0.4,0c0-0.6-0.1-1.1-0.2-1.7c0-0.1-0.4-0.1-0.6-0.2
	c0,0.4,0,0.9,0.1,1.3C299.9,235.3,300,235.5,300.1,235.7z"/>
<path d="M334.8,242c0.2-0.4,0.4-0.7,0.6-1.2c1.4,0.6,2.9,1,3.4,2.8c0.4,1.2,1.2,2.2,1.9,3.2c0.3,0.4,0.9,0.4,1.2,0.8
	c0.4,0.7,0.6,1.5,1.1,2.6c0.3-0.2,0.6-0.5,1.2-1c0.6,0,1.6,0,2.6,0c0.1,0.3,0.3,0.7,0.4,1c0.4,0.9-0.1,1.7-1.1,2
	c-0.5,0.1-1,0.3-1.3,0.7c-1.4,2-2.8,4-3.9,6.1c-0.4,0.7-0.2,1.8-0.2,2.8c0.1,0.1,0.2,0.2,0.3,0.3c0.6-0.3,1.2-0.7,1.7-1
	c1.7-1.1,3.2-0.2,4.8,0.6c1.4,0.7,2.9,1.1,4.4,1.6c0.4,0.1,0.8,0.3,1.1,0.6c1.1,1,1.8,0.8,2.2-0.6c0.3-1.2,1.6-2.1,2.9-2
	c0.8,0.1,1.7,0.1,2.5,0.2c0.9,0.1,1.2-0.2,1.1-1.2c-0.3-2.3-1.9-4-3.1-5.9c-0.5-0.9-1.4-1.6-1.8-2.5c-0.4-0.7-0.5-1.6-0.7-2.4
	c0.6-0.7,1.1-1.6,1.8-2.3c0.8-0.9,1.6-1.7,2.5-2.4c2-1.5,2.1-2.7,0.1-4.3c-0.5-0.4-1.1-0.7-1.6-1.2c-0.3-0.3-0.5-0.8-0.8-1.1
	c-0.5-0.5-0.9-1.2-1.5-1.5c-0.8-0.4-0.8-1.1-0.6-1.6c0.2-0.5,0.7-1.1,1.3-1.3c0.3-0.1,1.1,0.4,1.3,0.8c0.6,0.9,0.9,2,1.5,2.9
	c0.5,0.7,1.3,1.2,1.9,1.8c1,1.1,2.1,2.1,2.8,3.3c0.7,1.3,0.3,1.6-0.9,2.5c-1.9,1.2-3.9,2.5-4.8,4.6c-0.4,0.9,0,2.3,0.5,3.2
	c0.8,1.4,2.1,2.5,3,3.9c0.8,1.3,1.5,2.7,1.7,4.2c0.3,2.2-0.2,2.7-2.3,3.2c-0.6,0.1-1.2,0.3-1.9,0.3c-1.9,0-2.5,0.2-3.1,2.3
	c-0.3,1.2-0.7,2.5-1.1,3.7c-0.5,1.3-2,1.9-2.5,1c-0.4-0.7-0.7-1.8-0.5-2.5c0.5-1.8,0.2-2.9-1.5-3.5c-1.4-0.5-2.9-1.1-4.5-0.6
	c-0.4,0.1-1-0.2-1.3-0.5c-0.8-0.9-1.6-0.7-2.4-0.2c-0.9,0.5-1.8,1-2.7,1.3c-0.9,0.3-2-0.5-2.1-1.6c-0.3-2.8,0.3-5.4,1.9-7.8
	c0.1-0.1,0.3-0.3,0.3-0.4c0-1.6,0.1-3.3,0-4.9c0-0.3-0.3-0.5-0.5-0.8c-0.2-0.4-0.3-0.7-0.5-1.1c-0.3-0.8-0.5-1.7-0.8-2.5
	c-0.6-1.3-1.3-2.6-1.9-3.9C336.1,241.6,335.7,241.2,334.8,242z"/>
<path d="M320.8,221.2c0.4-1.7,0.9-2.1,2.2-1.4c1.5,0.7,2.6-0.5,4-0.6c0.8-0.1,1.8-0.1,1.9-1.3c0-0.1,0.5-0.2,0.7-0.2
	c1.3,0,2.6,0.1,3.8,0c1.5-0.2,2,0.8,2.5,1.8c0.1,0.2-0.1,0.9-0.3,1c-2,0.9-2.2,1.2-2.2,3.3c0,0.4-0.1,1.2-0.3,1.2
	c-0.6,0.1-1.4,0.2-2-0.1c-0.8-0.3-0.6-1.1-0.3-1.8c0.3-0.7,0.6-1.3,0.9-1.9c-0.2-0.1-0.3-0.2-0.3-0.2c-2.5,1.3-5.5,0.7-7.9,2.3
	c-0.9,0.6-1.3,1.4-1.1,2.4c0.2,1.4,0.2,1.6-1.2,1.8c-1.2,0.2-1.6-0.1-1.8-1.3c-0.4-2.9-1.5-5.5-3.1-8c-0.1-0.2-0.5-0.3-0.9-0.6
	c0.1,1.3,0.3,2.4,0.1,3.4c-0.3,1.4,0.5,3-0.6,4.3c-0.6,0.8-1.1,1.6-2.3,1.4c-0.2,0.5-0.3,1-0.4,1.4c-0.1,0-0.2,0-0.3-0.1
	c0.2-0.6,0.3-1.3,0.5-1.9c0.9,0.2,1.9-0.8,2.1-1.9c0.1-0.9,0.3-1.8,0.4-2.7c0-0.3-0.1-0.6-0.1-0.9c-0.4-1.4-0.7-2.7-0.8-4.1
	c-0.1-1.1-0.6-2.2-0.9-3.3c-0.2-0.6-0.3-1.3-0.4-1.9c1.9-0.3,2.2,0.2,3.4,1.7c1.8,2.3,2.4,5,3.9,7.4
	C320,220.7,320.4,220.9,320.8,221.2z"/>
<path d="M409.6,215.2c-2.2-1.3-4.5-1.3-6.9-1.1c-1,0.1-2,0.2-2.9,0.5c-0.7,0.2-1.3,0.8-2,1.2c-0.5,0.3-1,0.6-1.5,0.7
	c-1.8,0.3-3.5,0.6-5.4-0.2c-1.6-0.7-3.4-1-5.1-1.5c-2.1-0.5-4.1-1.2-6.2-1.4c-2.1-0.3-4.1,0-5.7,1.7c-0.5,0.6-1.3,0.9-1.4,1.9
	c-0.1,0.5-1.1,0.3-1.5-0.4c-0.6-0.9-0.3-2.2,0.7-2.9c1.5-0.9,3-1.7,4.5-2.5c0.2-0.1,0.4-0.3,0.6-0.4c0.6-0.2,1.3-0.6,1.8-0.4
	c3,0.7,5.9,1.5,8.8,2.3c1.3,0.4,2.5,1,3.7,1.4c2.3,0.8,4.4,0,6.5-1c1.4-0.7,3.1-1.1,4.7-1.3c1.9-0.2,3.9,0,5.8,0.2
	c0.7,0.1,1.7,0.5,2,1.1C410.5,213.6,410.6,214.6,409.6,215.2z"/>
<path d="M442.4,216.1c-0.7-0.1-1.4-0.2-2.1-0.4c-2.9-0.7-5.2,0.2-6.9,2.6c-0.5,0.7-2.1,0.7-3.3,0.1c-0.8-0.4-1.7-0.8-2.5-1.2
	c-0.2-0.1-0.3-0.3-0.5-0.5c-0.7-0.6-1.3-1.3-2-1.9c-0.3-0.2-0.9-0.1-1.3,0c-1.5,0.7-3,1.5-4.5,2.3c-1.2,0.6-2.4,1.3-3.6,1.8
	c-0.6,0.3-1.3,0.3-1.9,0.5c-0.3-1.7-0.1-2,1.2-2.6c1.8-0.8,3.6-1.8,5.3-2.6c1.3-0.6,2.5-1.3,3.9-1.7c0.7-0.2,1.7,0.2,2.4,0.7
	c1.4,0.8,2.6,1.9,3.9,2.8c0.3,0.2,0.9,0.1,1.3,0c0.5-0.2,1-0.6,1.4-1.1c1.3-1.4,3.3-1.4,4.9-2.2c0.3-0.1,0.8,0.1,1.2,0.3
	c0.8,0.3,1.6,0.6,2.4,0.8C442.9,214.1,442.9,215,442.4,216.1z"/>
<path d="M364.3,218.4c-0.6,0.2-1.2,0.5-1.9,0.6c-1.9,0.4-3.8,0.6-5.7,1c-1.3,0.3-2.6,0.2-3.9-0.2c-1.5-0.5-3.2,0.6-4.1,2
	c-0.3,0.4-0.9,0.7-1.3,0.8c-0.2,0-0.7-0.5-0.8-0.9c-0.3-0.8,0-1.5,0.5-2.2c0.9-1.2,2.5-1.3,3.6-2.2c0.3-0.2,0.9-0.1,1.4-0.1
	c1.8,0.2,3.5,0.3,5.4-0.1c1.7-0.3,3.6-0.4,5.3-0.9c1-0.3,1.9-0.7,2.4-1.9c0.4-1.1,0.9-2.4,2.4-2.7c0.9-0.2,1.9,0.1,2.1,1.1
	c0.1,0.4-0.5,0.9-0.8,1.4c-0.4,0.6-0.9,1.1-1.3,1.6c-0.7,0.9-1.4,1.9-2.1,2.8c-0.2,0.2-0.7,0.1-1,0.1
	C364.3,218.5,364.3,218.5,364.3,218.4z"/>
<path d="M329.6,248.7c-0.9,0.7-1.6,1.4-2.5,1.9c-0.7,0.3-1.6,0.5-2.3,0.3c-2.3-0.4-4.1-3.5-3-5.5c0.6-1,2-1.7,3.1-2.3
	c1.6-0.8,3.2-0.1,4.5,0.8c0.7,0.5,0.9,1.5,0.3,2.2C329.1,247.1,329.3,247.9,329.6,248.7z"/>
<path d="M444.4,220.3c-0.1-0.7-0.5-1.6-0.2-2.1c0.6-0.8,1.5-0.2,2.4,0c1.6,0.3,3.2,0.3,4.8,0.4c1.3,0,2.4,0.3,3.1,1.5
	c0.4,0.6,0.7,1.4,0.8,2.1c0.1,0.9,0.7,1.2,1.3,1.4c0.4,0.1,0.8,0.2,1.1,0.5c0.3,0.3,0.5,0.8,0.5,1.2c0,0.3-0.4,0.7-0.7,0.8
	c-2,1-2.9-0.1-3.8-2c-0.3-0.7-0.5-1.6-0.9-2.2c-0.3-0.5-1.1-0.8-1.7-0.9C448.9,220.7,446.6,220.6,444.4,220.3z"/>
<path class="st1" d="M294.3,236.1c0.5,0,1,0,1.5,0c0,0.9,0.2,1.7-0.7,2.5c-0.8,0.7-1,1.9-1.5,2.9c-0.6,1.1-2.1,2.1,0,3.5
	c-2.7-0.5-4.5,0.8-6.2,2c-0.7,0.5-1.3,1.1-2,1.7c-0.1,0.1-0.3,0.2-0.4,0.2c-1.6,0.5-3.3,1-4.9,1.7c-0.8,0.3-1.5,0.9-2.3,1.3
	c-1.3,0.7-2.6,1.5-4,1.9c-0.7,0.2-1.7-0.4-2.5-0.7c-1.7-0.7-3.4-0.6-5,0.2c-1.5,0.7-2.9,1.7-4.4,2.5c-0.6,0.3-1.4,0.1-2.1,0.1
	c-0.2,0-0.4-0.2-0.6-0.2c-1.7,0.1-3.2-0.6-4.8-0.6c-1.3-0.1-1.8-0.5-2.2-1.4c-0.4-1,0.1-1.9,0.5-2.9c0.5-1.3,0.8-2.8,1.3-4.4
	c1.1-0.5,2.5-1.3,3-3c0.1-0.4,0.7-0.7,1.1-0.9c2.3-1,4.5-0.7,6.7,0.3c0.9,0.4,1.6,0.3,2.4-0.2c2.2-1.6,4.5-3.1,6.8-4.6
	c0.1,0,0.1-0.1,0.2-0.1c1.4-0.3,2.8-0.7,4.2-0.7c1.7,0,3.1-0.4,4.7-1c0.7-0.2,1.6-0.1,2.3-0.4c2.1-0.8,4.3-1.7,6.3-2.6
	c0.4-0.2,0.9-0.6,1.1-1c0.7-2,2.4-1.9,3.8-2.1c0.7,0.7,1.2,1.3,1.7,1.9c0.3,0.4,0.4,0.9,0.5,1.1c-1.8,1-3.4,1.9-5,2.8
	C294.1,235.8,294.2,235.9,294.3,236.1z"/>
<path class="st1" d="M303.1,268.6c0.1,0.5,0.5,1.1,0.3,1.5c-0.7,1.4-1.6,2.7-2.5,3.9c-0.2,0.2-0.9,0.1-1.4,0
	c-0.3-0.1-0.7-0.5-0.6-0.7c0.6-1.3,1.1-2.7,1.9-3.9C301.2,269,302.2,269,303.1,268.6z"/>
<path class="st1" d="M306.8,230.7c-1.8-0.3-3.3-0.5-4.9-0.8c-0.1,0-0.2-0.3-0.4-0.7c1.6-0.1,3.1-0.2,4.5-0.3c0.2-0.3,0.3-0.8,0.6-1
	c0.1-0.1,0.6,0.1,0.9,0.1c0,0.3,0,0.9-0.2,0.9C306.5,229.2,306.4,229.8,306.8,230.7z"/>
<path class="st1" d="M300.1,235.7c-0.1-0.2-0.2-0.4-0.2-0.6c-0.1-0.4-0.1-0.9-0.1-1.3c0.2,0.1,0.6,0.1,0.6,0.2
	c0.1,0.6,0.1,1.1,0.2,1.7C300.4,235.6,300.2,235.7,300.1,235.7z"/>
<path class="st0" d="M134.7,70.7c1.8,0.4,3.4,0.5,4.4-1.4c0.2-0.4,0.3-1.1,0.2-1.6c-0.2-0.8-0.8-1.6-0.9-2.4c-0.2-1.4-1.3-2-2.2-2.8
	c-0.5-0.5-1.2-1-1.4-1.6c-0.1-0.5,0.3-1.2,0.6-1.8c0.2-0.3,0.4-0.7,0.7-0.9c0.8-0.5,0.9-1.1,0.7-2c-0.1-0.6,0-1.2,0.3-1.7
	c0.5-0.9,0.5-2.3-0.1-3.2c-1.1-1.7-2.2-3.4-3.2-5.2c-0.9-1.6-1.7-3.1-1.6-5.1c0.1-0.8-0.3-1.7-0.7-2.3c-0.9-1.1-2-2-3.2-2.8
	c-0.8-0.5-1.8-0.8-2.9-0.6c-1.1,0.2-2.6,0.6-3.4-0.9c-0.1-0.2-0.4-0.3-0.7-0.4c-0.9-0.3-1.8-0.5-2.7-0.7c0.1-0.4,0.4-0.9,0.3-1.2
	c-0.2-0.7-0.6-1.4-1.1-1.9c-0.5-0.4-1.2-0.6-1.7,0.3c-0.1,0.2-0.7,0.3-1,0.4c-1,0.1-2,0.1-2.9,0.3c-1.2,0.3-1.3,0.3-1.5-0.9
	c-0.3-1.6-0.5-3.2-1-4.7c-0.3-0.9-1.1-1.9-2-2.3c-2.8-1.3-5.4-0.1-7.6,1.7c-0.7,0.6-0.9,0.4-1.4,0c-0.3,0.2-0.6,0.3-0.9,0.5
	c-1.6,1.1-3.5,1.2-5.1,0.2c-1.3-0.8-2.7-0.4-3.5,1c-0.2,0.4-0.5,0.7-0.8,1c-1.1,1-1.2,3.1,0.1,4.3c0.4-0.8,0.8-1.5,1.1-2.3
	c0.6-1.3,1.6-1.8,2.9-1.3c1,0.4,2,0.9,2.6,1.1c1.6-0.2,2.5-1.9,3.8-0.3c0.1,0.2,0.8,0,1.1-0.2c0.4-0.3,0.9-0.8,1-1.3
	c0.3-0.9,0.9-0.9,1.5-0.9c0.3,0,0.7,0.1,1,0.2c0.1-0.3,0.3-0.5,0.3-0.7c0.2-0.7,0.6-1.1,1.4-0.9c0.7,0.1,1.4,0.1,1.7,1.1
	c0.2,0.9,0.8,1.7,1,2.5c0.3,1.1,0.5,2.2,0.8,3.4c0.2,0.8,0.3,1.6,0.6,2.2c0.1,0.3,0.8,0.5,1.2,0.5c1-0.3,2-0.8,3-1.1
	c1.1-0.2,2.3-0.2,3.5-0.3c0.2,2.1,0.1,2.3,2.1,2.5c1,0.2,1.5,0.6,1.9,1.5c0.2,0.6,1,1.1,1.6,1.2c0.7,0.1,1.4-0.3,2.1-0.5
	c2.1-0.8,4.9,1.3,4.8,3.6c0,0.9-0.1,1.8-0.1,2.7c0,0.9,0.4,1.7,1.3,2.1c0.2,0.1,0.4,0.4,0.5,0.6c0.4,0.8,0.9,1.5,1.3,2.3
	c0.6,1,1.1,1.9,1.7,2.9c0.1,0.2,0,0.4-0.1,0.6c-0.3,0.8-1.3,1.4-0.4,2.4c0.1,0.1-0.1,0.5-0.2,0.7c-0.6,0.9-1.2,1.8-1.7,2.8
	c-0.1,0.2-0.3,0.5-0.3,0.7c0.2,1.8,0.9,3.1,2.4,4.2c0.9,0.7,1.8,1.5,1.6,2.9c-1.7,0.2-3.3,0.4-5,0.4c-0.5,0-1.1-0.2-1.6-0.5
	c-0.7-0.4-1.1-1.9-0.7-2.3c-0.4-0.1-0.8,0-1.1-0.2c-0.9-0.5-1.1-0.1-1.2,0.8c-0.1,1.5,0.9,2.3,1.6,3.3c1.2,1.8,3.1,1.8,4.9,2.1
	C133.3,70.7,134,70.5,134.7,70.7z"/>
<path class="st0" d="M122.5,55.8c1.2,0.4,2.4,0.9,3.8,0.5c1.6-0.5,2.6-1.5,2.6-3.1c0-1.9-0.7-3.4-2.3-4.1c-1.2-0.6-2.5-1.8-4-0.5
	c-0.6,0.5-1,1.2-1.5,1.9C120,51.9,120.8,55.2,122.5,55.8z"/>
<path class="st0" d="M93.7,61.6c1.7,0.7,3.3,0.2,4.6-1.1c1.3-1.1,1.7-2.4,0.7-3.8c-1-1.4-2.3-2.4-4.2-2.5c-1.3-0.3-2.1,0.4-2.8,1.3
	C90.1,58.1,90.7,60.3,93.7,61.6z"/>
<path class="st1" d="M96.4,92.9c1,0.5,1.9,1.2,2.8,1.3c0.9,0.1,1.9-0.4,2.9-0.7c0,0.1,0.1,0.2,0.1,0.4c-0.2,0.2-0.5,0.5-0.7,0.7
	c-0.8,1-0.7,1.8,0.4,2.3c0.4,0.2,1,0,1.5-0.1c0.6-0.1,1.1,0,0.9,0.6c-0.5,1.2,0.3,1.7,1,2.3c0.3,0.3,0.5,0.6,0.7,0.9
	c0.4,0.6,0.8,1.1,1.1,1.7c0.3,0.6,0.7,1.3,0.8,1.9c0.1,0.6-0.1,1.2-0.2,1.7c-0.3,1.1-0.1,2.3-1.2,3.1c-0.2,0.1-0.2,0.9,0,1.2
	c0.3,0.5,0.7,0.9,1.2,1.1c2.3,1.2,2,2.7,1.5,5.1c-0.1,0.6,0.4,1.8,0.9,2c2.2,0.8,2.3,0.7,2.5,3.2c0.2,2.1,2.1,3.6,4.2,3.4
	c0.6-0.1,1.4-0.1,1.8,0.2c0.6,0.5,1.1,0.5,1.8,0.5c1,0,1.2-0.7,1.6-1.2c0.5-0.7,1-1.6,1.1-2.4c0.1-1.4-0.1-2.8-0.2-3.7
	c1.1-1.1,2-1.9,2.8-2.7c-0.1-0.1-0.4-0.4-0.3-0.5c0.3-0.8,0.9-1.6,1.1-2.4c0.2-0.7,0.1-1.6,0-2.3c-0.1-0.5-0.6-0.8-0.9-1.2
	c-1.1-1.3-2.1-2.6-3.3-3.8c-1-0.9-1.5-1.8-0.8-3c0.5-1,1.2-1.8,1.9-2.7c0.6-0.9,0.8-3,0.1-3.7c-0.6-0.7-1.4-1.2-2-1.9
	c-0.4-0.4-0.5-1-0.9-1.3c-0.9-0.5-1.1-1.2-1.3-2.2c-0.4-2.4-0.4-2.8-2.7-2.4c-0.3,0-0.8-0.3-0.8-0.5c-0.1-0.7,0-1.4,0-2.1l0.3-0.1
	c0.3,0.3,0.6,0.7,0.8,0.9c0.8,0.2,1.6,0.4,2.4,0.6c0.1-0.3,0.3-0.7,0.4-0.9c0.8-0.1,1.5,0,2.2-0.2c1.4-0.5,2.2-1.7,2.9-3
	c0.7-1.2,1.1-2.6,0.6-4c-0.3-0.9-0.7-1.7-1.1-2.6c-0.1-0.3-0.4-0.5-0.6-0.8c-0.7-0.8-1-1.6-0.5-2.8c0.6-1.3,0-3,1.1-4.3
	c0.3-0.3,0.1-1.5-0.2-1.7c-0.5-0.3-1.4-0.3-2.1-0.2c-0.6,0-1.2,0.3-1.9,0.5c-0.1-0.1-0.1-0.2-0.2-0.3c0.3-0.5,0.6-1,1-1.5
	c0.9-1.2,1.6-2.4,0.8-4c-0.4-0.9-1-1.5-1.8-1.1c-0.5,0.3-1.2,1.5-1,1.8c0.7,1.3,0,2-0.7,2.8c-0.8,1.1-1.1,2.3-0.3,3.7
	c0.6,1.2,1.7,0.7,2.5,1.3v2c-0.9-0.1-1.7-0.3-2.6-0.3c-0.9,0-1.8,0.1-2.8,0.1c0.2-0.8,0.5-1.4,0.5-2c0-1.3-1-1.7-2-2.1
	c-1.1-0.4-1.2-0.6-0.6-1.6c-1.3-1.4-1.9-1.7-2.9-1.1c-1.4,0.8-2.6,1.7-3.3,3.3c-0.3,0.7-0.5,1.3,0,1.9c0.5,0.6,1.1,0.6,1.8,0.3
	c0.4-0.2,0.8-0.3,1.2-0.4c0.6-0.1,1.3-0.3,1.9-0.3c0.5,0,1.1,0.3,0.5,1c-0.6,0.8-1.2,1.7-1.9,2.4c-0.8,0.8-1,1.4-0.3,2.4
	c0.6,0.9,1.2,0.7,2,0.2c0.3-0.2,0.6-0.4,0.9-0.5c1.1-0.6,2.4-1.2,3.4-0.4c1,0.7,1.6,0.4,2.1-0.1c0.7-0.8,1.3-0.5,2-0.2
	c1.5,0.7,1.6,2.1,0.3,3.1c-0.3,0.3-0.7,0.6-0.9,0.9c-0.7,1.4-1.4,2.8-2.2,4.2c-1-0.5-2.2-1.1-3.3-1.6c-2.2-0.9-4.4-1.9-6.6-2.7
	c-0.3-0.1-0.7-0.1-1,0c-1.2,0.4-2.3,1-3.5,1.2c-1,0.2-1.6,0.6-1.9,1.6c1.1,1.2,2.2,2.5,3.3,3.8c1.2,1.4,2.3,2.9,3.5,4.2
	c0.5,0.5,1.2,0.8,1.8,1.2c0.9,1.6,0.9,1.6-1,2.3c-0.5,0.2-0.9,0.4-1.4,0.5c-0.4,0.1-0.8,0-1.2,0.1c0-0.3,0-0.7,0-1
	c0.2-0.9-0.6-1.3-1-1.8c-0.2-0.2-0.8-0.3-1-0.1c-1,0.8-2,0.5-2.9,0.1c0.1-0.8,0.2-1.6,0.3-2.2c-1.6-0.2-3-0.4-4.6-0.6
	c0.3-0.5,0.4-0.9,0.7-1.3c0.8-1.1,0.7-1.8-0.6-2.1c-1.7-0.4-3.4-0.5-5.2-0.7c-1.3-0.1-2.6,0.1-3.8-0.1c-1.4-0.2-2,0.3-1.5,1.7
	c0.3,1.1,1.7,1.5,2.9,0.9c0.2-0.1,0.5-0.3,0.7-0.3c1.1,0.1,2.1,0.2,3.2,0.3c0.4,0.8-0.1,1.1-0.7,1.4c-1,0.4-1.2,1.1-0.8,2.1
	c0.4,1.1,1.1,1,2.1,0.7C95,90,96.2,90,97.3,90c0.6,0,1,0.4,0.4,1.1C97.3,91.6,96.9,92.2,96.4,92.9z"/>
<path class="st0" d="M50.7,90c-0.4,3-0.4,3.9,2.2,5.8c0.9,0.7,2.2,1.1,1.9,3c-0.2,1.4,1,2.9,2.4,3.8c1,0.7,2,1.5,2,3
	c0,2.2,0.6,4.1,3,5c0.8,0.3,1.4,0.8,2,1.4c1,0.9,1.7,0.9,2.6-0.2c0.5-0.6,1-1.2,1.5-1.8c0.7,0.4,1.7,0.6,1.9,1.1
	c0.9,1.7,1.6,3.4,1.8,5.4c0.2,2.1,0.3,4.2,0.9,6.3c0.6,1.8,1.7,3,3.3,3.9c0.5,0.3,1.1,0.6,1.5,1.1c0.3,0.3,0.6,0.9,0.5,1.3
	c-0.8,2.6,1,3.9,2.6,5.3c0.4,0.4,0.7,0.8,1.1,1.1c0.9,0.7,1.7,1.6,2.7,2c1.4,0.6,3,0.9,4.5,1.2c0.9,0.1,2,0.1,2.7-0.4
	c1.6-0.9,2.5-2.5,2.4-4.4c-0.1-1.3,0.3-2.4,1.4-3.1c0.3-0.2,0.4-0.5,0.6-0.9c0.6-1.4,0.2-2.6-0.8-3.6c-0.5-0.5-1.4-1.4-1.2-1.6
	c0.5-0.9,0.2-1.7,0.1-2.5c-0.1-1.1,0.2-2.7-1.6-3c-0.1,0-0.2-0.2-0.3-0.3c-0.9-0.7-1.8-1.5-2.9-2.1c-1.1-0.6-1.5-1.5-1.2-2.7
	c0.4-1.2,1-2.5-0.2-3.8c-0.5-0.5-0.7-1.1-1.2-1.6c-1.7-1.5-2.4-3.2-1.8-5.6c0.3-1.1,0.5-2.4-0.4-3.4c-1.4-1.5-2.9-2.9-4.4-4.3
	c-0.6-0.6-0.8-1.2-0.5-1.9c0.5-1.2-0.2-1.9-1.1-2.4c-0.7-0.4-1.6-0.5-2.2-1.1c-0.5-0.4-0.8-1.2-0.8-1.8c0-0.4,0.7-1.1,1.1-1.1
	c0.6,0,1.3,0.4,1.8,0.8c0.5,0.5,2.1,0.9,2.6,0.4c1.2-1,2.3-2.1,3.5-3.1c-1.2-1.5,0.8-1.8,0.8-2.7c-0.8,0.6-1.6,1.2-2.5,1.7
	c-0.9,0.6-1.8,1.1-2.8,1.6c-0.9,0.4-1.3,0.1-1.3-0.9c-0.1-0.8-0.5-1.2-1.3-1.4c-1.4-0.4-2.7,0-4,0.5c-1.1,0.5-1.9,0.1-2.3-1
	c-0.1-0.4-0.3-0.8-0.5-1.1C69,82.3,68.1,83,68.4,84c0.2,1.1,1.1,1.9,2.3,2.1c0.8,0.2,1.6,0.6,2.3,0.9c0.1,0.5,0,1,0.2,1.4
	c0.6,1.2,1.2,2.5,1.8,3.7c0.4,0.9,0.6,1.9,1.2,2.6c1.3,1.5,2.7,3.1,4.4,4.2c1.6,1.1,2.1,2.4,1.8,4.1c-0.3,1.8-0.4,3.5,0.6,5.2
	c0.3,0.6,0.4,1,1.2,1.3c1.4,0.6,1.8,2.2,1.2,3.6c-0.3,0.7-0.6,1.4-0.8,2.1c-0.2,0.8-0.2,1.7,0.8,2.2c1,0.5,1.8,1.3,2.7,1.9
	c0.1,0.1,0.4,0.2,0.6,0.1c1.1-0.3,1.6,0.5,1.9,1.3c0.3,0.8,0.6,1.7,0.5,2.4c-0.2,1.3,0.3,3,1.4,3.7c0.9,0.5,1,1.8,0.3,2.6
	c-0.4,0.5-0.7,1-1.1,1.6c-0.2,0.3-0.4,0.6-0.7,0.7c-0.9,0.6-1.1,1.4-0.6,2.3c0.2,0.3,0.4,1,0.3,1.1c-0.4,0.4-1,0.8-1.5,0.8
	c-1,0-1.9-0.3-2.9-0.4c-0.8-0.1-1.1-0.5-1.3-1.3c-0.2-1.1-0.7-1.8-1.9-2.2c-1.7-0.5-2.4-1.8-2.3-3.7c0.1-1.9-0.6-2.8-2.4-3.2
	c-1.1-0.3-3-2.5-3.1-3.6c-0.2-1.8-0.3-3.6-0.5-5.4c-0.1-0.9-0.2-1.7-0.5-2.5c-0.6-1.8-1.1-3.6-2.9-4.8c-0.9-0.6-1.7-1.5-2.9-2.6
	c-0.8-0.2-1.7,0.3-2.5,1.2c-0.5,0.5,0,1.8-1.1,1.6c-0.6-0.1-1.2-0.8-1.7-1.2c-0.7-0.6-1.5-1.1-0.8-2.4c0.3-0.5,0.3-2.1-1.2-2.5
	c-0.2,0-0.4-0.4-0.5-0.6c-0.6-0.8-1.3-1.6-1.9-2.5c-0.6-0.8-1.3-1.6-0.1-2.6c0.6-0.5,0.6-1.5-0.2-2c-0.8-0.5-1.7-0.7-2.5-1.1
	c-1.7-0.8-2.6-1.8-2.5-3.2c0-0.7,0-1.5,0-2.2c-0.1-2.1-1-3.7-3.1-4.5c-0.5-0.2-0.8-0.9-1.3-1.2c-0.3-0.3-0.7-0.6-1.1-0.6
	c-1.6-0.2-1.9-0.6-1.1-2c0.8-1.5,0.6-2.4-0.6-3.3c-0.4-0.3-0.6-0.7-0.9-1c-0.8-0.8-1.5-1.5-2.3-2.3c-0.3-0.3-0.6-0.5-0.8-0.8
	c-0.7-1.2-1.3-2.4-2.1-3.5c-0.8-1.2-2.3-1.4-3.5-0.5c-0.2,0.1-0.8,0.1-0.9,0c-0.6-0.5-1-1.2-1.5-1.8c-0.7-0.9-0.9-1.7-0.3-2.8
	c0.7-1.2,1.4-2.4,1.8-3.7c0.5-1.5,0.7-3,1-4.6c0.2,0,0.6,0,0.7-0.1c0.7-1,1.1-2,1.8-2.6c1.1-1,1.7-2.3,2.4-3.5
	c0.2-0.4,0.3-0.9,0.6-1.2c1.3-1.2,2.1-2.6,2.9-4.2c0.4-0.9,0.4-1.4-0.4-2.1c-0.6-0.5-1.2-1.2-1.4-1.9c-0.4-1.1-1.1-1.7-2.1-2.1
	c-0.9-0.4-1.8-0.7-2.9-1c0.3-0.4,0.8-0.7,0.8-1.1c0.1-0.8,0.2-1.6,0-2.3c-0.4-1.3-1.6-0.1-2.4-0.5c-0.2,0.4-0.4,0.9-0.6,1.3
	c-0.3,0.6-0.6,1.2-1,1.7c-0.3,0.5-1.1,1-1,1.4c0.1,0.5,0.8,1,1.3,1.2c1.1,0.4,2.4,0.6,3.5,1c0.5,0.2,1,0.6,1.3,1.1
	c0.5,0.9,0.9,1.9,2,2.3c0.2,0.1,0.3,0.8,0.2,1c-0.7,0.9-1.6,1.6-2.3,2.4c-0.6,0.6-1.1,1.1-1.3,2c-0.3,1.2-1.1,2.3-1.7,3.4
	c-0.8,1.2-2,2-3.3,2.7c-1,0.5-1.1,1.5-0.5,2.4c0.2,0.2,0.3,0.6,0.3,0.8c-0.2,0.7-0.4,1.4-0.7,2c-0.5,1.4-1.1,2.7-1.6,4.1
	c-0.3,1-0.5,2,0.2,2.9c0.6,0.8,1.2,1.6,1.6,2.5c0.9,1.8,1.4,3.6-0.2,5.2c-1.6,1.8-2,4.1-2.9,6.2c-0.2,0.4-0.2,1.1,0,1.5
	c0.4,0.9,0,1.4-0.5,1.9c-0.4,0.3-0.7,0.7-1.1,0.9c-0.4,0.3-0.9,0.6-1.4,0.6c-0.7,0.1-1.4,0-2.1,0c-0.3-1.2-1-1.8-2.1-2
	c-0.8-0.2-1.6-0.6-1.1-1.6c0.6-1.2,0.6-2.4,0.4-3.8c-0.3-1.7-0.1-3.6,0-5.3c0-0.3,0.1-0.8,0.3-1c0.7-0.8,0.1-1.3-0.4-1.5
	c-0.9-0.4-1-1.1-0.8-1.9c0.3-1.4-0.4-2.4-1.1-3.5c-0.3-0.4-0.7-1-1.1-1.1c-1.3-0.4-2.5-2-2.4-3.3c0-0.7-0.2-1.3-0.3-2
	c0-0.4,0.1-0.8,0.2-1.3c0.1-0.6,0.2-1.2,0.2-1.9c0-0.6,0.1-1.2,0-1.8c-0.3-1.6-0.6-3.1-1-4.6c-0.1-0.2-0.2-0.5-0.4-0.6
	c-1.1-0.6-2-1.5-2.7-2.6c-0.2-0.3-0.8-0.4-0.9-0.7c-0.4-1.2-1.1-2.4-0.5-3.9c0.1-0.2-0.5-0.8-0.8-1.1c-0.1-0.2-0.5-0.2-0.8-0.2
	c0.4-0.4,0.8-0.8,1-1.2c0.7-1.4-0.1-2.4-0.9-3.3c-0.6-0.7-1.2-1.4-1-2.4c0.2-1.1,0.5-2.2,0.9-3.2c0.1-0.3,0.7-0.5,1.1-0.7
	c0.4-0.2,1.2-0.5,1.2-0.6c-0.3-1.8,0.4-2.9,1.8-3.9c0.7-0.5,0.9-1.5,1.5-2.1c1.1-1.1,0.7-3.7-0.8-4.4c-1.5-0.6-1.5-0.6-0.7-2.1
	c0.2-0.5,0.5-1.1-0.3-1.3c-1.8-0.5-3.5-1.2-5.4-0.8c-0.8,0.2-1.6,0.2-2.5,0.3c-1,0.1-1.8-0.4-2.2-1.3c-0.2-0.5-0.2-1.5,0.2-1.9
	c0.7-0.7,1.5-1.6,2.8-1c1,0.4,2.1-0.1,2.1-1.1c0-0.6-0.7-1.1-0.9-1.7c-0.3-0.7-0.8-1.5-0.7-2c0.4-1.2,1-2.4,2.4-2.8
	c2.2-0.6,3.9-0.6,5.2,1.6c0.4,0.7,1,1.4,2,1c0.6-0.2,1.2-0.5,1.8-0.7c1.6-0.4,2-0.1,2.1,1.6c0,0.5,0.2,1,0.5,1.4
	C21,8.7,20.9,9.3,20,9.7c-1.5,0.6-1.8,1.1-1.1,2.6c0.3,0.6,0.9,1.2,1.5,1.3c0.8,0.2,0.6-0.8,0.9-1.2c0.3-0.4,0.6-0.9,1-1.1
	c1.1-0.5,2.4-0.6,3.3-1.3c1.8-1.3,3.6-0.6,5.4-0.6c0.6,0,1.3,0.1,1.8,0.4c1.1,0.7,2.1,1.7,3.2,2.4c1,0.7,2,1.3,3.4,0.6
	c1.8-0.8,3.7-1.4,5.5-2.3c1.8-0.9,3.6-0.8,5.4-0.8c0.8,0,1.4,0.3,1.7,1.4c0.3,1.1,1,2.2,1.8,3.1c0.3,0.4,1.2,0.3,1.8,0.3
	c0.5,0,1.1-0.4,1.6-0.5c1,0,2,0.1,3,0.1c2.1,0,3,0.8,3.1,2.8c0.1,2,0.5,3.9,1.9,5.5c1.2,1.4,2.4,2.8,3.2,4.4c0.6,1.2,1.4,2,2.4,2.9
	c0.6,0.6,1.1,1.4,1.5,2.1c0.5,1.2-0.9,1.2-1.3,2c-0.1,0.3-0.2,0.6-0.4,0.7c-0.2,0.1-0.6,0.2-0.8,0.1c-1.3-0.7-2.4-0.6-3.3,0.4
	c-1.9,2.3-3.8,4.6-4.7,7.5c-0.1,0.2-0.4,0.4-0.6,0.6c-0.4,0.4-1,0.7-1.2,1.2c-0.4,0.8-0.5,1.6-0.8,2.4c-1.2,3.2,0,5,3.2,5.2
	c0.7,0.1,1.4,0.3,2,0.6c0.7,0.2,0.9,0.6,0.6,1.4c-0.4,1.1-0.8,2.2-0.8,3.3c-0.1,2,1.5,3,3,3.5c1.5,0.5,3.2,0.7,4.9,0.7
	c1.6,0,2.6,0.5,3.3,2c0.3,0.7,1.1,1.4,2.1,1.1c0.9-0.3,1.7-0.8,2.5-1.3c0.5-0.3,0.8-0.8,1.3-1c2.8-1.4,4-3.8,4.4-6.7
	c0.1-0.5,0.2-1,0.1-1.5c-0.5-1.6-2.1-2.2-3.1-3.4c0.5-1.5,0.8-1.7,2.2-0.8c0.7,0.5,1.2,0.1,1.8-0.2c0.7-0.4,1.4-0.7,2.2-1
	c0.9-0.3,1.8-0.6,2.6-0.9c0.8-0.3,1.6-0.6,1.2-1.7c0-0.1,0.2-0.3,0.4-0.5c-1.4-0.3-2.6-0.4-3.8,0.5c-0.8,0.6-1.5,0.7-2.4,0.4
	c-0.6-0.2-1.2-0.5-1.8-0.4c-1.8,0.3-3.3,1.4-4.6,2.7c-0.8,0.8-1.1,1.8-0.4,2.8c0.6,0.8,1.3,1.6,2.1,2.3c0.8,0.8,1,2,0.5,2.8
	c-0.2,0.4-1.5,0.1-2.2,0.2c-0.1,0-0.2,0-0.1,0c-0.5,0.7-1,1.2-1.5,1.9c0.1,0.1,0.1,0.4,0.3,0.6c0.8,0.9,0.3,1.7-0.4,2.1
	c-0.5,0.3-1.5,0.3-2,0.1c-0.6-0.3-1-1-1.3-1.7c-0.6-1.1-2.5-1.8-3.6-1.1c-1.1,0.7-1.7,0.5-2-0.4c-1,0.1-2,0.1-3.2,0.2
	c0.2-1.1,0.2-2,0.5-2.8c0.2-0.7,0.7-1.3,1.1-1.9c0.8-1.1-0.2-2.9-2-3.3c-1.6-0.4-3.1-0.8-4.6-1.1c-0.2-2.3-0.2-2.2,1.9-2.8
	c0.8-0.2,1.3-0.7,1.1-1.7c-0.2-0.8-0.1-1.7,0.2-2.4c0.6-1.5,1.5-2.8,2.3-4.2c0.3-0.5,0.9-0.8,1.3-1.2c0.3,0.4,0.6,0.8,0.8,1.3
	c0.1,0.1,0,0.2,0.1,0.3c0.5,0.8,1.2,1.3,2.2,1c0.9-0.3,1.2-0.9,1.1-1.8c-0.2-1.1,0.2-1.9,1-2.7c0.3-0.3,0.7-0.7,1-1
	c0.9-1.1,1.1-1.1,2.1-0.2c1.8,1.5,3.1,1.8,4.5,0.7c0.4-0.3,0.8-0.7,0.8-1.1c0-0.3-0.6-0.6-1-0.8c-0.9-0.5-1.8-0.9-2.7-1.3
	c-1.1-0.5-2.1-1.2-3.2-1.2c-1.8,0-2.5-0.5-2.6-2.2c0-1.3-0.3-2.4-1.7-2.9C70,25,69.6,24.3,69,24c-1.7-1-2-2.8-2.6-4.4
	c-0.6-1.7-0.9-3.4-1.5-5.1c-0.5-1.4-3.7-3-5.2-2.8c-1.4,0.2-2.8,0.3-4.2,0.4c-0.7-1.3-1.3-2.4-2-3.5c-0.4-0.6-1-1.3-1.5-1.4
	c-1.8-0.1-3.6-0.7-5.3,0.4c-0.2,0.1-0.4,0.1-0.5,0.2c-1.9,0.7-3.8,1.3-5.7,2.1c-1.4,0.6-3.3,0.6-4.2-0.9c-0.1-0.2-0.4-0.3-0.7-0.4
	c-2.2-0.7-4.3-1.3-6.5-1.9c-1.6-0.5-3.1-0.3-4.6,0.5c-0.4,0.2-1,0.2-1.5,0.3c-0.3-1.2-0.5-2.4-0.8-3.5c-0.3-1.1-1.9-2.2-3-2.1
	c-0.8,0.1-1.6,0.4-2.4,0.4c-0.5,0-1-0.1-1.4-0.4c-1.3-1.2-2.7-2-4.5-2C8.5,0,6.5,0.9,5.1,2.9c-0.7,1-1.9,1.7-1.6,3.3
	C3.9,8,3.7,8.1,2.3,8.5C1.7,9.3,1.3,10,0.7,10.6c-0.9,1-1,3.1,0,4.1c0.5,0.5,1.3,0.8,1.6,1.3c0.7,1.4,1.7,1.6,3,1.5
	c0.9-0.1,1.9,0,2.8,0c0.4,0,0.8,0.1,1.2,0.2c0.7,0.1,1.4,0.1,2.1,0.1c0.4,0,0.7,0,1.4-0.1c-0.4,0.6-0.7,0.9-0.9,1.3
	c-0.2,0.4-0.5,1.2-0.3,1.3c1.4,1,0.1,1.7-0.2,2.4c-0.7,1.5-2.3,2.2-2.9,3.9c-0.4,1.3-1.6,2.4-2.2,3.6c-1.3,2.5-1.4,5,0.5,7.4
	c0.8,1,1,2.2,0.3,3.4C7,41.5,6.8,42.3,7,42.8c0.5,1.3,1.1,2.5,1.9,3.7c1,1.5,2.5,2.7,2.3,4.5c0.4,0.4,0.7,0.6,0.9,0.8
	c1.8,1.4,1.6,3.4,1.4,5.4c-0.2,1.8-0.6,3.6,0.2,5.4c0.6,1.3,1.1,2.5,2.5,3.4c0.8,0.5,1.6,1.3,1.8,2.1c0.4,1.6,0.5,3.3,0.6,5
	c0.2,1.8,0.2,3.6,0.5,5.4c0.2,1.4,0.1,2.7-0.4,3.9c-0.6,1.4-0.4,2,0.9,2.9c0.6,0.5,1.4,0.9,1.7,1.6c0.8,1.5,2,2.3,3.6,3
	c2,0.9,3.2,0.6,4.6-1.2c0.9-1.1,1.8-2.1,2.9-3c1-0.9,1.2-1.4,0.6-2.7c-0.5-1,0-2.4,0.7-3.2c0.7-0.9,1.4-1.9,1.8-3
	c0.4-1.3,0.5-2.8,0.8-4.1c0.1-0.4,0.7-0.7,1.1-0.9c0.2-0.1,0.6,0.4,0.8,0.7c0.4,0.6,0.5,1.5,1,1.9c1.4,1.3,2.9,2.5,4.2,3.8
	c0.3,0.3,1.3,0.9,0.3,1.9c-0.6,0.6-1.1,1.9-0.3,2.8c0.8,0.9,1.2,2.2,2.6,2.6c0.7,0.2,1.3,0.9,1.9,1.4c0.2,0.2,0.5,0.4,0.8,0.4
	C50.3,87.4,50.9,88.4,50.7,90z"/>
<path d="M37.4,56.3c-0.1,0-0.5,0-0.7,0.1c-0.3,1.6-0.5,3.2-1,4.6c-0.4,1.3-1.1,2.5-1.8,3.7c-0.6,1.1-0.4,1.9,0.3,2.8
	c0.5,0.6,1,1.3,1.5,1.8c0.2,0.2,0.7,0.2,0.9,0c1.2-0.8,2.7-0.7,3.5,0.5c0.8,1.1,1.4,2.3,2.1,3.5c0.2,0.3,0.5,0.6,0.8,0.8
	c0.8,0.8,1.5,1.5,2.3,2.3c0.3,0.3,0.6,0.7,0.9,1c1.2,0.9,1.4,1.9,0.6,3.3c-0.8,1.4-0.5,1.8,1.1,2c0.4,0,0.7,0.3,1.1,0.6
	c0.5,0.4,0.8,1.1,1.3,1.2c2.2,0.7,3,2.3,3.1,4.5c0,0.7,0,1.5,0,2.2c-0.1,1.4,0.7,2.5,2.5,3.2c0.8,0.4,1.7,0.6,2.5,1.1
	c0.8,0.5,0.8,1.5,0.2,2c-1.2,1-0.5,1.8,0.1,2.6c0.6,0.8,1.3,1.6,1.9,2.5c0.2,0.2,0.3,0.6,0.5,0.6c1.5,0.3,1.4,1.9,1.2,2.5
	c-0.6,1.3,0.1,1.8,0.8,2.4c0.5,0.5,1.1,1.1,1.7,1.2c1.1,0.2,0.7-1.1,1.1-1.6c0.8-0.9,1.7-1.4,2.5-1.2c1.2,1.1,1.9,2,2.9,2.6
	c1.8,1.2,2.3,3,2.9,4.8c0.3,0.8,0.4,1.7,0.5,2.5c0.2,1.8,0.3,3.6,0.5,5.4c0.1,1.1,2,3.3,3.1,3.6c1.8,0.4,2.5,1.3,2.4,3.2
	c-0.1,1.9,0.7,3.2,2.3,3.7c1.2,0.3,1.7,1.1,1.9,2.2c0.2,0.8,0.5,1.2,1.3,1.3c1,0.1,1.9,0.4,2.9,0.4c0.5,0,1.1-0.4,1.5-0.8
	c0.1-0.1-0.1-0.8-0.3-1.1c-0.5-0.9-0.3-1.7,0.6-2.3c0.3-0.2,0.5-0.5,0.7-0.7c0.4-0.5,0.7-1.1,1.1-1.6c0.7-0.8,0.6-2.1-0.3-2.6
	c-1.1-0.7-1.7-2.4-1.4-3.7c0.1-0.8-0.2-1.6-0.5-2.4c-0.3-0.8-0.8-1.6-1.9-1.3c-0.2,0-0.4,0-0.6-0.1c-0.9-0.6-1.8-1.4-2.7-1.9
	c-1-0.6-1-1.4-0.8-2.2c0.1-0.7,0.5-1.4,0.8-2.1c0.6-1.4,0.2-3-1.2-3.6c-0.7-0.3-0.8-0.8-1.2-1.3c-1.1-1.7-0.9-3.4-0.6-5.2
	c0.3-1.7-0.2-3-1.8-4.1c-1.7-1.1-3-2.7-4.4-4.2c-0.6-0.7-0.8-1.8-1.2-2.6c-0.6-1.2-1.2-2.4-1.8-3.7C73,88,73,87.5,73,87
	c-0.7-0.3-1.5-0.7-2.3-0.9c-1.3-0.2-2.1-1-2.3-2.1c-0.2-1.1,0.6-1.7,2.5-2.2c0.2,0.4,0.4,0.7,0.5,1.1c0.4,1.1,1.1,1.5,2.3,1
	c1.3-0.5,2.6-0.9,4-0.5c0.8,0.2,1.2,0.6,1.3,1.4c0.1,1,0.4,1.3,1.3,0.9c1-0.4,1.9-1,2.8-1.6c0.8-0.5,1.6-1.2,2.5-1.7
	c0,0.9-2,1.2-0.8,2.7c-1.1,1-2.3,2.1-3.5,3.1c-0.5,0.5-2.1,0-2.6-0.4c-0.5-0.4-1.2-0.8-1.8-0.8c-0.4,0-1.1,0.7-1.1,1.1
	c0,0.6,0.4,1.4,0.8,1.8c0.6,0.5,1.5,0.7,2.2,1.1c0.9,0.5,1.5,1.2,1.1,2.4c-0.3,0.7-0.1,1.3,0.5,1.9c1.5,1.4,2.9,2.9,4.4,4.3
	c1,1,0.7,2.4,0.4,3.4c-0.6,2.3,0.1,4,1.8,5.6c0.5,0.4,0.7,1.1,1.2,1.6c1.2,1.2,0.5,2.5,0.2,3.8c-0.4,1.3,0,2.1,1.2,2.7
	c1,0.5,1.9,1.4,2.9,2.1c0.1,0.1,0.2,0.3,0.3,0.3c1.8,0.3,1.5,1.8,1.6,3c0.1,0.8,0.5,1.6-0.1,2.5c-0.1,0.2,0.7,1.1,1.2,1.6
	c1.1,1.1,1.4,2.2,0.8,3.6c-0.1,0.3-0.3,0.7-0.6,0.9c-1.1,0.8-1.4,1.8-1.4,3.1c0.1,1.9-0.8,3.5-2.4,4.4c-0.7,0.4-1.8,0.5-2.7,0.4
	c-1.5-0.2-3.1-0.6-4.5-1.2c-1-0.4-1.8-1.3-2.7-2c-0.4-0.3-0.7-0.8-1.1-1.1c-1.6-1.4-3.4-2.7-2.6-5.3c0.1-0.4-0.2-1-0.5-1.3
	c-0.4-0.5-1-0.8-1.5-1.1c-1.6-0.9-2.7-2.1-3.3-3.9c-0.7-2-0.8-4.2-0.9-6.3c-0.1-1.9-0.9-3.7-1.8-5.4c-0.3-0.5-1.2-0.7-1.9-1.1
	c-0.5,0.6-1,1.2-1.5,1.8c-0.9,1.1-1.6,1.1-2.6,0.2c-0.6-0.5-1.3-1.1-2-1.4c-2.4-0.8-3-2.8-3-5c0-1.5-1-2.3-2-3
	c-1.4-1-2.6-2.5-2.4-3.8c0.3-1.9-1-2.4-1.9-3c-2.6-1.9-2.7-2.8-2.2-5.8c0.2-1.6-0.3-2.6-1.8-2.8c-0.3,0-0.6-0.2-0.8-0.4
	c-0.6-0.5-1.2-1.2-1.9-1.4c-1.4-0.4-1.8-1.7-2.6-2.6c-0.8-0.9-0.2-2.2,0.3-2.8c1-1-0.1-1.6-0.3-1.9c-1.3-1.4-2.9-2.5-4.2-3.8
	c-0.5-0.5-0.6-1.3-1-1.9c-0.2-0.3-0.6-0.8-0.8-0.7c-0.4,0.1-1,0.5-1.1,0.9C36,74,36,75.4,35.6,76.7c-0.4,1.1-1,2.1-1.8,3
	c-0.7,0.8-1.1,2.3-0.7,3.2c0.6,1.3,0.5,1.8-0.6,2.7c-1,0.9-2,1.9-2.9,3c-1.4,1.8-2.6,2-4.6,1.2c-1.6-0.6-2.8-1.5-3.6-3
	c-0.4-0.6-1.1-1.1-1.7-1.6c-1.3-0.9-1.5-1.5-0.9-2.9c0.5-1.3,0.6-2.5,0.4-3.9c-0.3-1.8-0.3-3.6-0.5-5.4c-0.2-1.7-0.2-3.4-0.6-5
	c-0.2-0.8-1.1-1.6-1.8-2.1c-1.3-0.8-1.8-2.1-2.5-3.4c-0.9-1.8-0.4-3.6-0.2-5.4c0.2-1.9,0.4-3.9-1.4-5.4c-0.3-0.2-0.5-0.5-0.9-0.8
	c0.2-1.8-1.3-3-2.3-4.5c-0.8-1.1-1.4-2.4-1.9-3.7c-0.2-0.5,0-1.3,0.3-1.8c0.6-1.3,0.4-2.5-0.3-3.4c-1.9-2.4-1.8-4.8-0.5-7.4
	c0.7-1.3,1.8-2.3,2.2-3.6c0.5-1.7,2.2-2.4,2.9-3.9c0.3-0.7,1.6-1.4,0.2-2.4c-0.1-0.1,0.1-0.9,0.3-1.3c0.2-0.4,0.5-0.7,0.9-1.3
	c-0.7,0-1.1,0.1-1.4,0.1c-0.7,0-1.4-0.1-2.1-0.1c-0.4,0-0.8-0.2-1.2-0.2c-0.9,0-1.9,0-2.8,0c-1.3,0.1-2.4-0.1-3-1.5
	c-0.3-0.6-1.1-0.8-1.6-1.3c-1-0.9-1-3.1,0-4.1c0.5-0.6,1-1.3,1.6-2.2C3.7,8.1,3.9,8,3.5,6.2C3.2,4.6,4.5,3.8,5.1,2.9
	C6.5,0.9,8.5,0,11,0c1.8,0,3.2,0.8,4.5,2c0.3,0.3,0.9,0.4,1.4,0.4c0.8,0,1.6-0.3,2.4-0.4c1.1-0.2,2.7,0.9,3,2.1
	c0.3,1.1,0.5,2.2,0.8,3.5c0.6-0.1,1.1-0.1,1.5-0.3c1.5-0.8,3-1,4.6-0.5c2.2,0.7,4.3,1.3,6.5,1.9c0.3,0.1,0.6,0.2,0.7,0.4
	c0.9,1.5,2.8,1.5,4.2,0.9c1.9-0.8,3.8-1.4,5.7-2.1c0.2-0.1,0.4-0.1,0.5-0.2c1.7-1.1,3.5-0.5,5.3-0.4c0.5,0,1.1,0.8,1.5,1.4
	c0.7,1.1,1.3,2.2,2,3.5c1.4-0.1,2.8-0.2,4.2-0.4c1.5-0.2,4.7,1.3,5.2,2.8c0.6,1.7,0.9,3.4,1.5,5.1C67,21.2,67.2,23,69,24
	c0.6,0.3,1,1,1.6,1.2c1.5,0.5,1.7,1.6,1.7,2.9c0.1,1.7,0.8,2.2,2.6,2.2c1.1,0,2.1,0.8,3.2,1.2c0.9,0.4,1.8,0.9,2.7,1.3
	c0.4,0.2,1,0.6,1,0.8c0,0.4-0.4,0.9-0.8,1.1c-1.4,1-2.8,0.8-4.5-0.7c-1-0.9-1.2-0.9-2.1,0.2c-0.3,0.4-0.7,0.7-1,1
	c-0.8,0.7-1.1,1.6-1,2.7c0.1,0.9-0.1,1.5-1.1,1.8c-1,0.3-1.7-0.3-2.2-1c-0.1-0.1,0-0.2-0.1-0.3c-0.3-0.4-0.6-0.9-0.8-1.3
	c-0.5,0.4-1,0.7-1.3,1.2c-0.8,1.4-1.7,2.7-2.3,4.2c-0.3,0.7-0.3,1.7-0.2,2.4c0.3,1.1-0.2,1.5-1.1,1.7c-2,0.5-2,0.5-1.9,2.8
	c1.5,0.4,3.1,0.8,4.6,1.1c1.8,0.4,2.8,2.1,2,3.3c-0.4,0.6-0.9,1.2-1.1,1.9c-0.3,0.8-0.3,1.7-0.5,2.8c1.2-0.1,2.2-0.2,3.2-0.2
	c0.4,1,0.9,1.1,2,0.4c1.1-0.7,3,0,3.6,1.1c0.3,0.6,0.8,1.4,1.3,1.7c0.5,0.3,1.5,0.2,2-0.1c0.7-0.4,1.2-1.2,0.4-2.1
	c-0.2-0.2-0.2-0.5-0.3-0.6c0.5-0.6,1-1.2,1.5-1.9c-0.1,0,0,0,0.1,0c0.8-0.1,2.1,0.2,2.2-0.2c0.4-0.9,0.3-2-0.5-2.8
	c-0.7-0.7-1.4-1.5-2.1-2.3c-0.7-1-0.4-2,0.4-2.8c1.3-1.3,2.8-2.3,4.6-2.7c0.6-0.1,1.2,0.2,1.8,0.4c0.9,0.4,1.7,0.2,2.4-0.4
	c1.1-0.9,2.4-0.7,3.8-0.5c-0.2,0.2-0.4,0.5-0.4,0.5c0.5,1.2-0.4,1.4-1.2,1.7c-0.9,0.3-1.8,0.6-2.6,0.9c-0.8,0.3-1.5,0.7-2.2,1
	c-0.6,0.3-1.1,0.7-1.8,0.2c-1.4-0.9-1.7-0.7-2.2,0.8c1,1.2,2.6,1.8,3.1,3.4c0.1,0.4,0,1-0.1,1.5c-0.4,2.9-1.6,5.3-4.4,6.7
	c-0.5,0.2-0.8,0.7-1.3,1c-0.8,0.5-1.6,1-2.5,1.3c-0.9,0.3-1.7-0.5-2.1-1.1c-0.7-1.4-1.7-1.9-3.3-2c-1.6,0-3.4-0.2-4.9-0.7
	c-1.5-0.5-3.1-1.6-3-3.5c0-1.1,0.4-2.3,0.8-3.3c0.3-0.8,0.1-1.1-0.6-1.4c-0.7-0.2-1.3-0.5-2-0.6c-3.2-0.2-4.5-2-3.2-5.2
	c0.3-0.8,0.4-1.7,0.8-2.4c0.2-0.5,0.8-0.8,1.2-1.2c0.2-0.2,0.5-0.4,0.6-0.6c0.9-2.9,2.7-5.3,4.7-7.5c0.9-1,2-1.2,3.3-0.4
	c0.2,0.1,0.6,0,0.8-0.1c0.2-0.1,0.3-0.5,0.4-0.7c0.3-0.7,1.8-0.8,1.3-2c-0.4-0.8-0.8-1.5-1.5-2.1c-0.9-0.9-1.7-1.7-2.4-2.9
	c-0.9-1.6-2.1-3-3.2-4.4c-1.4-1.6-1.8-3.5-1.9-5.5c-0.1-2-1-2.9-3.1-2.8c-1,0-2-0.2-3-0.1c-0.5,0-1.1,0.4-1.6,0.5
	c-0.6,0-1.5,0.1-1.8-0.3c-0.8-0.9-1.5-2-1.8-3.1c-0.3-1.1-0.9-1.3-1.7-1.4c-1.8-0.1-3.7-0.1-5.4,0.8c-1.8,0.9-3.7,1.4-5.5,2.3
	c-1.4,0.6-2.4,0.1-3.4-0.6c-1.1-0.8-2.1-1.7-3.2-2.4c-0.5-0.3-1.2-0.4-1.8-0.4c-1.8,0-3.7-0.6-5.4,0.6c-0.9,0.7-2.2,0.8-3.3,1.3
	c-0.4,0.2-0.8,0.7-1,1.1c-0.3,0.4-0.1,1.4-0.9,1.2c-0.6-0.1-1.2-0.7-1.5-1.3c-0.7-1.5-0.4-1.9,1.1-2.6c0.8-0.4,1-1,0.5-1.7
	c-0.3-0.4-0.5-1-0.5-1.4c0-1.7-0.4-2.1-2.1-1.6c-0.6,0.2-1.2,0.4-1.8,0.7c-1,0.4-1.6-0.3-2-1c-1.4-2.2-3-2.2-5.2-1.6
	c-1.4,0.4-2,1.6-2.4,2.8c-0.2,0.5,0.4,1.4,0.7,2C7.4,8.4,8.1,9,8.1,9.6c0,1-1.1,1.6-2.1,1.1c-1.3-0.6-2.1,0.3-2.8,1
	c-0.4,0.4-0.4,1.4-0.2,1.9c0.4,0.8,1.2,1.4,2.2,1.3c0.8-0.1,1.7-0.1,2.5-0.3c1.9-0.4,3.7,0.2,5.4,0.8c0.8,0.2,0.6,0.8,0.3,1.3
	c-0.7,1.5-0.7,1.5,0.7,2.1c1.5,0.6,1.9,3.3,0.8,4.4c-0.6,0.6-0.9,1.6-1.5,2.1c-1.3,1-2.1,2.2-1.8,3.9c0,0.1-0.8,0.4-1.2,0.6
	c-0.4,0.2-1,0.4-1.1,0.7c-0.4,1-0.7,2.1-0.9,3.2c-0.2,1,0.3,1.7,1,2.4c0.8,0.9,1.7,1.9,0.9,3.3c-0.2,0.4-0.6,0.7-1,1.2
	c0.3,0.1,0.6,0.1,0.8,0.2c0.3,0.3,0.9,0.9,0.8,1.1c-0.6,1.4,0.1,2.6,0.5,3.9c0.1,0.3,0.7,0.4,0.9,0.7c0.7,1.1,1.6,2,2.7,2.6
	c0.2,0.1,0.4,0.4,0.4,0.6c0.4,1.5,0.7,3.1,1,4.6c0.1,0.6,0,1.2,0,1.8c0,0.6-0.1,1.2-0.2,1.9c-0.1,0.4-0.2,0.9-0.2,1.3
	c0.1,0.7,0.4,1.3,0.3,2c-0.1,1.3,1.2,3,2.4,3.3c0.4,0.1,0.8,0.7,1.1,1.1c0.7,1.1,1.3,2.1,1.1,3.5c-0.1,0.8-0.1,1.4,0.8,1.9
	c0.5,0.3,1.1,0.8,0.4,1.5c-0.2,0.2-0.3,0.7-0.3,1c0,1.8-0.2,3.6,0,5.3c0.2,1.4,0.1,2.5-0.4,3.8c-0.5,1.1,0.3,1.5,1.1,1.6
	c1.1,0.2,1.8,0.8,2.1,2c0.7,0,1.4,0.1,2.1,0c0.5-0.1,1-0.4,1.4-0.6c0.4-0.3,0.8-0.6,1.1-0.9c0.5-0.5,0.9-1,0.5-1.9
	c-0.2-0.4-0.2-1.1,0-1.5c0.9-2.1,1.3-4.4,2.9-6.2c1.5-1.7,1.1-3.5,0.2-5.2c-0.5-0.9-1-1.7-1.6-2.5c-0.7-1-0.5-2-0.2-2.9
	c0.5-1.4,1.1-2.8,1.6-4.1c0.3-0.7,0.5-1.3,0.7-2c0.1-0.2-0.1-0.6-0.3-0.8c-0.6-0.9-0.5-1.9,0.5-2.4c1.3-0.7,2.5-1.4,3.3-2.7
	c0.7-1.1,1.5-2.2,1.7-3.4c0.2-0.9,0.8-1.4,1.3-2c0.8-0.8,1.6-1.6,2.3-2.4c0.1-0.2,0-0.9-0.2-1c-1.1-0.4-1.5-1.4-2-2.3
	c-0.2-0.5-0.8-0.9-1.3-1.1c-1.2-0.4-2.4-0.6-3.5-1c-0.5-0.2-1.2-0.7-1.3-1.2c-0.1-0.4,0.7-0.9,1-1.4c0.4-0.6,0.7-1.2,1-1.7
	c0.2-0.4,0.4-0.9,0.6-1.3c0.7,0.4,1.9-0.8,2.4,0.5c0.2,0.7,0.1,1.6,0,2.3c-0.1,0.4-0.5,0.7-0.8,1.1c1.1,0.4,2,0.7,2.9,1
	c1,0.4,1.7,1,2.1,2.1c0.2,0.7,0.8,1.4,1.4,1.9c0.8,0.7,0.8,1.1,0.4,2.1c-0.7,1.6-1.6,3-2.9,4.2c-0.3,0.3-0.4,0.8-0.6,1.2
	c-0.7,1.3-1.3,2.5-2.4,3.5C38.5,54.3,38.1,55.3,37.4,56.3z"/>
<path d="M125.8,115.9c-0.8,0.8-1.7,1.6-2.8,2.7c0.1,0.9,0.3,2.3,0.2,3.7c-0.1,0.8-0.6,1.7-1.1,2.4c-0.4,0.5-0.6,1.2-1.6,1.2
	c-0.7,0-1.2,0-1.8-0.5c-0.4-0.3-1.2-0.3-1.8-0.2c-2.1,0.2-4-1.3-4.2-3.4c-0.2-2.5-0.3-2.4-2.5-3.2c-0.5-0.2-1-1.4-0.9-2
	c0.5-2.4,0.7-3.9-1.5-5.1c-0.5-0.3-1-0.7-1.2-1.1c-0.2-0.3-0.2-1.1,0-1.2c1.1-0.8,0.9-2,1.2-3.1c0.2-0.6,0.3-1.2,0.2-1.7
	c-0.1-0.7-0.5-1.3-0.8-1.9c-0.3-0.6-0.7-1.2-1.1-1.7c-0.2-0.3-0.5-0.6-0.7-0.9c-0.7-0.6-1.5-1.1-1-2.3c0.2-0.6-0.3-0.8-0.9-0.6
	c-0.5,0.1-1.1,0.3-1.5,0.1c-1.1-0.5-1.1-1.3-0.4-2.3c0.2-0.3,0.4-0.5,0.7-0.7c0-0.1-0.1-0.2-0.1-0.4c-1,0.3-1.9,0.8-2.9,0.7
	c-0.9-0.1-1.7-0.8-2.8-1.3c0.5-0.7,0.9-1.3,1.4-1.8c0.6-0.7,0.2-1.1-0.4-1.1c-1.1,0-2.3,0-3.4,0.4c-1,0.3-1.7,0.4-2.1-0.7
	c-0.4-0.9-0.2-1.7,0.8-2.1c0.7-0.3,1.1-0.6,0.7-1.4c-1.1-0.1-2.1-0.3-3.2-0.3c-0.2,0-0.5,0.2-0.7,0.3c-1.2,0.7-2.6,0.3-2.9-0.9
	c-0.4-1.4,0.1-1.9,1.5-1.7c1.3,0.2,2.6,0,3.8,0.1c1.7,0.1,3.5,0.3,5.2,0.7c1.3,0.3,1.4,1,0.6,2.1c-0.2,0.3-0.4,0.7-0.7,1.3
	c1.7,0.2,3.1,0.4,4.6,0.6c-0.1,0.6-0.2,1.4-0.3,2.2c0.9,0.4,1.9,0.7,2.9-0.1c0.2-0.2,0.9-0.1,1,0.1c0.4,0.5,1.3,0.9,1,1.8
	c-0.1,0.3,0,0.6,0,1c0.4,0,0.8,0,1.2-0.1c0.5-0.1,1-0.4,1.4-0.5c1.9-0.7,1.9-0.7,1-2.3c-0.6-0.4-1.3-0.7-1.8-1.2
	c-1.2-1.4-2.3-2.8-3.5-4.2c-1.1-1.3-2.2-2.5-3.3-3.8c0.3-1,0.9-1.4,1.9-1.6c1.2-0.2,2.4-0.8,3.5-1.2c0.3-0.1,0.7-0.1,1,0
	c2.2,0.9,4.4,1.8,6.6,2.7c1.2,0.5,2.3,1.1,3.3,1.6c0.7-1.5,1.4-2.9,2.2-4.2c0.2-0.4,0.6-0.7,0.9-0.9c1.3-1,1.2-2.4-0.3-3.1
	c-0.7-0.3-1.3-0.6-2,0.2c-0.5,0.5-1.2,0.9-2.1,0.1c-1-0.8-2.3-0.2-3.4,0.4c-0.3,0.2-0.6,0.3-0.9,0.5c-0.7,0.6-1.4,0.7-2-0.2
	c-0.7-1.1-0.5-1.6,0.3-2.4c0.7-0.7,1.3-1.6,1.9-2.4c0.6-0.7,0-1-0.5-1c-0.6,0-1.3,0.2-1.9,0.3c-0.4,0.1-0.8,0.2-1.2,0.4
	c-0.7,0.3-1.3,0.3-1.8-0.3c-0.5-0.6-0.3-1.1,0-1.9c0.6-1.7,1.9-2.5,3.3-3.3c1-0.6,1.6-0.4,2.9,1.1c-0.6,0.9-0.6,1.2,0.6,1.6
	c1.1,0.3,2,0.8,2,2.1c0,0.6-0.3,1.2-0.5,2c1-0.1,1.9-0.2,2.8-0.1c0.8,0,1.7,0.2,2.6,0.3c0-0.7,0-1.3,0-2c-0.8-0.6-1.9-0.1-2.5-1.3
	c-0.7-1.4-0.5-2.5,0.3-3.7c0.6-0.9,1.3-1.6,0.7-2.8c-0.2-0.4,0.4-1.6,1-1.8c0.8-0.4,1.4,0.2,1.8,1.1c0.8,1.7,0.1,2.8-0.8,4
	c-0.4,0.5-0.7,1-1,1.5c0.1,0.1,0.1,0.2,0.2,0.3c0.6-0.2,1.2-0.4,1.9-0.5c0.7-0.1,1.5-0.1,2.1,0.2c0.3,0.2,0.5,1.4,0.2,1.7
	c-1.2,1.3-0.5,3-1.1,4.3c-0.5,1.2-0.2,1.9,0.5,2.8c0.2,0.3,0.5,0.5,0.6,0.8c0.4,0.9,0.8,1.7,1.1,2.6c0.5,1.4,0.1,2.7-0.6,4
	c-0.7,1.2-1.5,2.5-2.9,3c-0.6,0.2-1.4,0.1-2.2,0.2c-0.1,0.2-0.3,0.6-0.4,0.9c-0.8-0.2-1.6-0.4-2.4-0.6c-0.2-0.2-0.5-0.6-0.8-0.9
	c-0.1,0-0.2,0.1-0.3,0.1c0,0.7-0.1,1.4,0,2.1c0,0.2,0.5,0.5,0.8,0.5c2.3-0.3,2.3,0.1,2.7,2.4c0.2,1,0.4,1.7,1.3,2.2
	c0.4,0.2,0.6,0.9,0.9,1.3c0.6,0.7,1.4,1.2,2,1.9c0.6,0.6,0.5,2.8-0.1,3.7c-0.6,0.9-1.3,1.8-1.9,2.7c-0.7,1.2-0.2,2,0.8,3
	c1.2,1.1,2.2,2.5,3.3,3.8c0.3,0.4,0.8,0.8,0.9,1.2c0.2,0.7,0.2,1.6,0,2.3c-0.2,0.9-0.8,1.6-1.1,2.4
	C125.4,115.5,125.7,115.8,125.8,115.9z M105.8,96.3c0.1,0.3,0.2,0.6,0.4,0.8c0.7,1.1,2.3,1,2.8,2.4c0.4,1.1,1.4,2.1,1.4,3.1
	c0.1,2-0.3,4-0.6,6c0,0.3-0.1,0.6,0,0.8c0.6,0.8,1.3,1.5,1.9,2.3c0.3,0.3,0.6,0.7,0.6,1.1c0.1,0.7,0,1.5,0,2.2
	c0,1.2,0.5,1.8,1.7,1.9c1.2,0.1,1.4,0.6,1.4,1.9c-0.1,1-0.3,2.3,0.6,3c0.8,0.6,1.8,0.9,2.8,1c0.6,0,1.5-0.3,1.5-1.3
	c-0.1-1.1-0.2-2.2-0.4-3.3c-0.1-0.8,0.1-1.4,0.6-1.9c0.7-0.7,1.5-1.4,2.2-2.1c1-0.9,1.5-2.5,0.7-3.6c-1.1-1.6-2.4-2.9-3.5-4.4
	c-0.6-0.8-1.4-1.8-1.4-2.7c0.1-1,1-2,1.6-2.9c0.8-1.3,1.1-3.2,0.1-4.2c-1-0.9-1.8-1.9-2.6-2.9c-0.4-0.4-0.6-0.9-0.9-1.4
	c-0.1,0-0.1,0.1-0.2,0.1c-0.3-0.6-0.5-1.3-0.8-2c-0.9,0.3-1.6,0.6-2.3,0.8c-1.3,0.2-1.4,0.3-0.7,1.5
	C110.9,94.8,108.5,95.7,105.8,96.3z M112.9,88c-0.1-1.2-0.2-2.4-0.4-3.5c-0.1-0.9-0.3-1.8-1.6-1.6c-0.4,0-0.8-0.3-1.2-0.4
	c-1-0.2-2-0.4-3.1-0.6C107,84.1,110.3,87.7,112.9,88z"/>
<path d="M98.7,25c0.5,0.5,0.7,0.6,1.4,0c2.2-1.8,4.7-3,7.6-1.7c0.9,0.4,1.7,1.4,2,2.3c0.6,1.5,0.8,3.1,1,4.7
	c0.2,1.3,0.3,1.3,1.5,0.9c0.9-0.2,2-0.2,2.9-0.3c0.4,0,0.9-0.1,1-0.4c0.5-0.9,1.2-0.7,1.7-0.3c0.5,0.5,0.8,1.2,1.1,1.9
	c0.1,0.3-0.2,0.8-0.3,1.2c0.9,0.3,1.8,0.5,2.7,0.7c0.3,0.1,0.6,0.2,0.7,0.4c0.8,1.5,2.2,1.1,3.4,0.9c1.1-0.2,2.1,0.1,2.9,0.6
	c1.2,0.8,2.3,1.7,3.2,2.8c0.5,0.6,0.8,1.5,0.7,2.3c-0.1,1.9,0.7,3.5,1.6,5.1c1,1.8,2.1,3.5,3.2,5.2c0.6,0.9,0.6,2.3,0.1,3.2
	c-0.3,0.5-0.4,1.2-0.3,1.7c0.1,0.9,0.1,1.5-0.7,2c-0.3,0.2-0.6,0.5-0.7,0.9c-0.3,0.6-0.7,1.3-0.6,1.8c0.2,0.6,0.9,1.1,1.4,1.6
	c0.9,0.8,1.9,1.5,2.2,2.8c0.1,0.8,0.7,1.6,0.9,2.4c0.1,0.5,0,1.1-0.2,1.6c-1,1.8-2.6,1.8-4.4,1.4c-0.7-0.2-1.4-0.1-2.1-0.2
	c-1.8-0.3-3.7-0.3-4.9-2.1c-0.7-1-1.7-1.8-1.6-3.3c0.1-0.9,0.2-1.3,1.2-0.8c0.3,0.2,0.8,0.2,1.1,0.2c-0.4,0.4,0,1.9,0.7,2.3
	c0.5,0.3,1,0.5,1.6,0.5c1.6-0.1,3.3-0.3,5-0.4c0.2-1.4-0.7-2.2-1.6-2.9c-1.4-1.1-2.2-2.5-2.4-4.2c0-0.2,0.2-0.5,0.3-0.7
	c0.6-0.9,1.2-1.8,1.7-2.8c0.1-0.2,0.3-0.6,0.2-0.7c-0.9-1,0-1.6,0.4-2.4c0.1-0.2,0.2-0.5,0.1-0.6c-0.5-1-1.1-1.9-1.7-2.9
	c-0.4-0.8-0.8-1.6-1.3-2.3c-0.1-0.2-0.3-0.5-0.5-0.6c-0.9-0.4-1.3-1.1-1.3-2.1c0-0.9,0.1-1.8,0.1-2.7c0.1-2.3-2.7-4.3-4.8-3.6
	c-0.7,0.3-1.5,0.6-2.1,0.5c-0.6-0.1-1.4-0.6-1.6-1.2c-0.4-0.9-0.9-1.3-1.9-1.5c-1.9-0.3-1.9-0.4-2.1-2.5c-1.2,0.1-2.4,0.1-3.5,0.3
	c-1,0.2-2,0.8-3,1.1c-0.3,0.1-1-0.2-1.2-0.5c-0.3-0.7-0.4-1.5-0.6-2.2c-0.3-1.1-0.5-2.3-0.8-3.4c-0.3-0.9-0.8-1.7-1-2.5
	c-0.2-1-1-1-1.7-1.1c-0.7-0.2-1.2,0.2-1.4,0.9c-0.1,0.2-0.2,0.4-0.3,0.7c-0.4-0.1-0.7-0.2-1-0.2c-0.7,0-1.3,0-1.5,0.9
	c-0.1,0.5-0.6,0.9-1,1.3c-0.3,0.2-0.9,0.3-1.1,0.2c-1.3-1.5-2.3,0.1-3.8,0.3c-0.6-0.2-1.6-0.7-2.6-1.1c-1.2-0.6-2.3-0.1-2.9,1.3
	c-0.3,0.8-0.7,1.5-1.1,2.3c-1.3-1.2-1.3-3.3-0.1-4.3c0.3-0.3,0.6-0.6,0.8-1c0.8-1.4,2.2-1.8,3.5-1c1.6,1,3.6,0.9,5.1-0.2
	C98.1,25.3,98.4,25.1,98.7,25z"/>
<path d="M128.9,53.1c0,1.7-1,2.7-2.6,3.1c-1.4,0.4-2.6,0-3.8-0.5c-1.8-0.6-2.5-3.9-1.4-5.4c0.5-0.6,0.9-1.4,1.5-1.9
	c1.5-1.3,2.8,0,4,0.5C128.2,49.7,128.9,51.2,128.9,53.1z"/>
<path d="M94.8,54.2c1.8,0.1,3.2,1.1,4.2,2.5c1,1.4,0.6,2.7-0.7,3.8c-1.4,1.2-3,1.8-4.6,1.1c-3-1.3-3.6-3.5-1.6-6.1
	C92.7,54.6,93.6,53.9,94.8,54.2z"/>
<path class="st1" d="M112.9,88c-2.6-0.3-6-3.9-6.3-6.1c1.1,0.2,2.1,0.3,3.1,0.6c0.4,0.1,0.8,0.5,1.2,0.4c1.3-0.2,1.5,0.6,1.6,1.6
	C112.7,85.6,112.8,86.8,112.9,88z"/>
</svg>
