<?xml version="1.0" encoding="utf-8"?>
<!-- Generator: Adobe Illustrator 24.0.0, SVG Export Plug-In . SVG Version: 6.00 Build 0)  -->
<svg version="1.1" id="Layer_1" xmlns="http://www.w3.org/2000/svg" xmlns:xlink="http://www.w3.org/1999/xlink" x="0px" y="0px"
	 viewBox="0 0 94.29 19.41" style="enable-background:new 0 0 94.29 19.41;" xml:space="preserve">
<style type="text/css">
	.st0{fill:#FFFFFF;}
</style>
<path class="st0" d="M21.73,13c0.02-0.12,0.03-0.24,0.05-0.36c0.64-0.05,1.29-0.09,1.93-0.14c0.44-0.04,0.68-0.26,0.71-0.72
	c0.03-0.44-0.15-0.74-0.59-0.82c-0.37-0.06-0.77-0.14-1.12-0.06c-0.96,0.21-1.92,0.46-2.85,0.8c-0.35,0.13-0.85,0.55-0.83,0.81
	c0.03,0.38,0.38,0.87,0.73,1.07c0.77,0.44,1.63,0.73,2.45,1.07c0.67,0.28,1.42,0.44,1.91,1.09c-0.87,0.56-2.01,0.94-2.52,0.86
	c-0.54-0.08-2.85-2.12-2.99-2.7c-0.13-0.54-0.19-1.11-0.24-1.67c-0.07-0.72-0.41-1.07-1.15-1.12c-0.77-0.06-0.78,0.51-0.84,1.03
	c-0.05,0.37-0.03,0.77-0.17,1.1c-0.12,0.28-0.43,0.47-0.65,0.7c-0.25-0.56-0.23-0.98-0.25-1.39c-0.04-0.77-0.59-1.18-1.47-1.12
	c-0.65,0.05-0.86,0.38-0.76,1.21c0.08,0.65,0.17,1.31,0.28,1.95c0.13,0.74,0.59,1.23,1.34,1.2c0.81-0.03,1.61-0.24,2.33-0.35
	c0.79,0.43,1.59,0.85,2.38,1.3c0.19,0.11,0.33,0.31,0.47,0.49c0.58,0.79,1.38,0.93,2.27,0.73c0.64-0.14,1.28-0.3,1.92-0.46
	c0.36-0.09,0.74-0.17,1.08-0.33c1.15-0.54,1.32-1.36,0.39-2.19c-0.52-0.46-1.17-0.78-1.79-1.11C23.11,13.56,22.41,13.3,21.73,13z"/>
<path class="st0" d="M88.92,8.9c0.19-0.97,0.08-1.21-0.63-1.39c-1.22-0.31-3.31,0.84-3.66,2.05c-0.32,1.12,0.21,2.01,0.88,2.84
	c0.44,0.54,0.92,1.03,1.39,1.55c-0.32,0.36-0.61,0.62-0.81,0.92c-0.58,0.88-0.44,2.09,0.31,2.7c0.92,0.73,2.03,0.7,3.11,0.65
	c0.83-0.03,1.36-0.56,1.83-1.45c-0.46-0.69-0.97-1.45-1.59-2.38c1.19-0.74,2.35-1.51,3.57-2.19c0.44-0.25,0.71-0.41,0.41-1.04
	c-2.03,0-3.7,1.06-5.54,2.1c-0.61-0.8-1.28-1.53-1.78-2.35c-0.48-0.78-0.24-1.34,0.63-1.66C87.61,9.06,88.23,9.03,88.92,8.9z"/>
<path class="st0" d="M57.66,14.21c0.64-0.12,0.96-0.18,1.27-0.25c0.92-0.19,1.85-0.35,2.76-0.57c0.37-0.09,0.72-0.29,0.49-0.88
	c-1.47-0.31-3.04,0.47-4.61-0.17c-0.08-0.99-0.11-1.98-0.24-2.95c-0.23-1.72-0.51-3.44-0.82-5.15c-0.1-0.54-0.4-0.99-1.1-0.74
	c-0.72,0.25-0.92,0.68-0.81,1.39c0.33,2.09,0.6,4.19,0.92,6.28c0.11,0.76,0.08,1.39-0.73,1.78c-0.18,0.09-0.21,0.46-0.37,0.83
	c1.63,0.21,1.81,1.49,2.19,2.63c0.17,0.49,0.37,0.97,0.61,1.43c0.12,0.24,0.3,0.48,0.51,0.65c0.38,0.31,0.83,0.29,1.15-0.05
	c0.32-0.34,0.53-0.72,0.22-1.27C58.6,16.28,58.2,15.34,57.66,14.21z"/>
<path class="st0" d="M27.74,11.94c-0.33,0.14-0.52,0.18-0.66,0.29c-0.32,0.23-0.86,0.47-0.87,0.73c-0.03,0.56,0.42,0.95,1.02,0.91
	c0.61-0.04,0.81,0.26,0.93,0.78c0.11,0.5,0.2,1.06,0.49,1.46c0.27,0.38,0.75,0.72,1.2,0.83c0.53,0.13,0.96-0.23,1.16-0.86
	c-0.85-0.65-1.2-1.51-1.12-2.52c0.68-0.41,1.58-0.57,1.42-1.7c-0.59-0.14-1.13-0.26-1.71-0.4c-0.31-1.34-0.6-2.66-0.91-3.98
	c-0.09-0.36-0.17-0.74-0.34-1.06c-0.3-0.56-0.97-0.75-1.59-0.48c-0.67,0.28-0.49,0.75-0.32,1.29C26.88,8.74,27.28,10.28,27.74,11.94
	z"/>
<path class="st0" d="M53.53,14.02c-0.31,0.06-0.54,0.06-0.74,0.15c-0.51,0.23-1,0.53-1.52,0.75c-1.64,0.71-2.2,0.5-3.12-0.95
	c-0.28-0.45-0.7-0.91-1.17-1.12c-1.22-0.53-3.29,0.13-4.1,1.2c-0.78,1.03-0.34,2.35,0.94,2.61c0.51,0.1,1.11,0.03,1.62-0.13
	c0.89-0.26,1.69-0.73,2.57,0.16c0.29,0.29,1.01,0.34,1.48,0.23c1.64-0.37,2.93-1.35,4.06-2.56C53.57,14.34,53.55,14.27,53.53,14.02z
	"/>
<path class="st0" d="M9.32,6.08C9.27,6.09,9.21,6.09,9.16,6.1c0.32,2.71,0.62,5.42,0.98,8.13c0.07,0.49,0.29,1,0.55,1.43
	c0.28,0.47,0.8,0.51,1.26,0.31c0.53-0.24,0.35-0.65,0.17-1.07c-0.15-0.34-0.24-0.72-0.26-1.08c-0.2-3.01-0.37-6.01-0.55-9.02
	c-0.02-0.32,0-0.67-0.11-0.97c-0.24-0.67-0.87-0.68-1.42-0.63c-0.6,0.06-0.68,0.52-0.61,1.06C9.24,4.86,9.27,5.47,9.32,6.08z"/>
<path class="st0" d="M77.79,12.06c-0.42-0.67-0.61-1.13-0.94-1.43c-0.32-0.29-0.77-0.49-1.19-0.57c-0.24-0.05-0.68,0.16-0.79,0.37
	c-0.12,0.23-0.08,0.74,0.09,0.89c0.74,0.66,1.05,1.54,1.45,2.39c0.43,0.92,1.37,1.02,2.05,0.27c0.34-0.38,0.62-0.81,0.95-1.23
	c2.07,3.11,4.18,3.31,5.97,1.37c-0.6-0.03-1.03-0.08-1.46-0.08c-1.03,0.02-1.83-0.38-2.35-1.29c-0.26-0.45-0.52-0.9-0.75-1.36
	c-0.36-0.73-0.95-1.11-1.78-1.29C78.65,10.71,78.28,11.29,77.79,12.06z"/>
<path class="st0" d="M7.78,12.77c0.22-2.41-0.53-4.67-1.12-6.94C6.56,5.42,6.06,5,5.63,4.8c-0.3-0.14-0.85-0.02-1.15,0.18
	C4.09,5.24,4.15,5.71,4.39,6.13c0.82,1.42,1.03,3.02,1.31,4.59c0.24,1.34,0.31,2.71,0.45,4.07c0.07,0.67,0.43,1.06,0.93,0.98
	c0.56-0.09,0.75-0.45,0.7-1.02C7.74,14.09,7.78,13.43,7.78,12.77z"/>
<path class="st0" d="M73.91,14.2c-0.76-1.95-2.94-1.94-4.32-3.04c-1.03,0.11-2.06,0.18-3.07,0.35c-0.24,0.04-0.64,0.44-0.61,0.59
	c0.07,0.31,0.33,0.69,0.61,0.8c0.42,0.16,0.91,0.11,1.38,0.16C68.95,15.85,71.97,16.46,73.91,14.2z"/>
<path class="st0" d="M33.88,12.46c-0.02,0.15-0.09,0.32-0.04,0.41c0.53,0.88,1.05,1.76,1.65,2.6c0.54,0.76,1.64,0.66,1.9-0.23
	c0.29-0.99,0.98-1.31,1.79-1.61c0.31-0.12,0.63-0.21,0.93-0.35c0.38-0.17,0.84-0.32,0.71-0.88c-0.13-0.57-0.56-0.73-1.08-0.66
	c-0.42,0.05-0.85,0.1-1.24,0.24c-0.83,0.31-1.64,0.68-2.55,1.07C35.37,12.7,34.8,11.97,33.88,12.46z"/>
<path class="st0" d="M1.01,12.59c0.09,1.08,0.16,1.95,0.24,2.82c0.05,0.57,0.36,0.95,0.9,1.12c0.57,0.18,1.03-0.04,1.35-0.48
	c0.24-0.33,0.38-0.73,0.5-0.97c-0.22-0.64-0.3-1.21-0.6-1.63c-0.3-0.42-0.78-0.78-1.26-0.97C1.81,12.35,1.34,12.55,1.01,12.59z"/>
<path class="st0" d="M63.34,12.11c-0.77,1.3-0.76,1.4,0.16,2.2c0.39,0.34,0.75,0.7,1.16,1.02c0.25,0.19,0.54,0.41,0.84,0.44
	c0.27,0.03,0.64-0.09,0.83-0.28c0.11-0.11,0-0.52-0.11-0.74c-0.16-0.33-0.58-0.6-0.61-0.92C65.46,12.42,64.45,12.29,63.34,12.11z"/>
<path class="st0" d="M0.73,6.02c-0.76,0.81-0.85,1.03-0.62,1.45c0.27,0.48,1.09,0.88,1.57,0.64c0.33-0.17,0.76-0.57,0.75-0.86
	C2.41,6.26,1.56,6.18,0.73,6.02z"/>
<path class="st0" d="M64.18,9.8c0.54-0.01,1.02-0.48,0.99-0.98c-0.04-0.75-0.55-1.24-1.26-1.22c-0.7,0.02-1.06,0.38-1.05,1.03
	C62.86,9.29,63.45,9.81,64.18,9.8z"/>
<path d="M21.73,13c0.68,0.3,1.38,0.56,2.04,0.9c0.62,0.32,1.27,0.64,1.79,1.11c0.93,0.83,0.76,1.65-0.39,2.19
	c-0.34,0.16-0.71,0.23-1.08,0.33c-0.64,0.16-1.28,0.32-1.92,0.46c-0.89,0.19-1.69,0.06-2.27-0.73c-0.13-0.18-0.28-0.38-0.47-0.49
	c-0.79-0.45-1.6-0.87-2.38-1.3c-0.72,0.12-1.52,0.32-2.33,0.35c-0.75,0.03-1.21-0.46-1.34-1.2c-0.11-0.65-0.2-1.3-0.28-1.95
	c-0.1-0.83,0.11-1.16,0.76-1.21c0.87-0.06,1.43,0.35,1.47,1.12c0.02,0.41,0,0.83,0.25,1.39c0.22-0.23,0.53-0.43,0.65-0.7
	c0.14-0.33,0.12-0.73,0.17-1.1c0.07-0.52,0.07-1.09,0.84-1.03c0.74,0.06,1.08,0.4,1.15,1.12c0.05,0.56,0.12,1.12,0.24,1.67
	c0.13,0.58,2.45,2.62,2.99,2.7c0.51,0.08,1.65-0.3,2.52-0.86c-0.48-0.66-1.23-0.81-1.91-1.09c-0.82-0.34-1.68-0.63-2.45-1.07
	c-0.35-0.2-0.7-0.69-0.73-1.07c-0.02-0.25,0.48-0.68,0.83-0.81c0.92-0.34,1.89-0.58,2.85-0.8c0.35-0.08,0.75,0,1.12,0.06
	c0.44,0.07,0.62,0.37,0.59,0.82c-0.03,0.45-0.28,0.68-0.71,0.72c-0.64,0.05-1.29,0.1-1.93,0.14C21.76,12.76,21.75,12.88,21.73,13z"
	/>
<path d="M88.92,8.9c-0.68,0.12-1.31,0.16-1.87,0.36c-0.87,0.31-1.11,0.88-0.63,1.66c0.5,0.83,1.17,1.56,1.78,2.35
	c1.83-1.04,3.5-2.1,5.54-2.1c0.3,0.63,0.03,0.8-0.41,1.04c-1.22,0.68-2.38,1.45-3.57,2.19c0.62,0.92,1.12,1.68,1.59,2.38
	c-0.47,0.89-1,1.41-1.83,1.45c-1.08,0.04-2.19,0.07-3.11-0.65c-0.76-0.6-0.89-1.82-0.31-2.7c0.2-0.31,0.49-0.56,0.81-0.92
	c-0.47-0.52-0.95-1.02-1.39-1.55c-0.67-0.82-1.2-1.71-0.88-2.84c0.35-1.2,2.44-2.36,3.66-2.05C88.99,7.69,89.11,7.93,88.92,8.9z
	 M87.79,16.37c0.87,0.21,0.87,0.21,1.5-0.15C88.43,15.18,88.28,15.19,87.79,16.37z"/>
<path d="M57.66,14.21c0.55,1.13,0.94,2.07,1.44,2.96c0.31,0.54,0.09,0.93-0.22,1.27c-0.32,0.35-0.77,0.36-1.15,0.05
	c-0.21-0.17-0.39-0.41-0.51-0.65c-0.23-0.46-0.44-0.94-0.61-1.43c-0.39-1.14-0.56-2.43-2.19-2.63c0.16-0.37,0.19-0.75,0.37-0.83
	c0.81-0.39,0.84-1.03,0.73-1.78c-0.32-2.09-0.59-4.19-0.92-6.28c-0.11-0.72,0.09-1.14,0.81-1.39c0.7-0.25,1,0.2,1.1,0.74
	c0.31,1.71,0.58,3.43,0.82,5.15c0.13,0.98,0.16,1.96,0.24,2.95c1.57,0.64,3.14-0.14,4.61,0.17c0.23,0.59-0.12,0.79-0.49,0.88
	c-0.91,0.22-1.84,0.39-2.76,0.57C58.61,14.03,58.3,14.09,57.66,14.21z"/>
<path d="M27.74,11.94c-0.46-1.66-0.86-3.2-1.32-4.72c-0.16-0.54-0.35-1.01,0.32-1.29c0.63-0.26,1.3-0.08,1.59,0.48
	c0.17,0.32,0.25,0.7,0.34,1.06c0.31,1.32,0.61,2.64,0.91,3.98c0.58,0.14,1.12,0.26,1.71,0.4c0.17,1.12-0.74,1.29-1.42,1.7
	c-0.08,1.01,0.27,1.87,1.12,2.52c-0.2,0.63-0.62,0.99-1.16,0.86c-0.45-0.11-0.93-0.45-1.2-0.83c-0.29-0.4-0.38-0.96-0.49-1.46
	c-0.12-0.52-0.31-0.82-0.93-0.78c-0.6,0.04-1.05-0.35-1.02-0.91c0.01-0.26,0.55-0.51,0.87-0.73C27.22,12.12,27.41,12.08,27.74,11.94
	z"/>
<path d="M53.53,14.02c0.02,0.25,0.05,0.32,0.03,0.34c-1.13,1.21-2.42,2.19-4.06,2.56c-0.47,0.1-1.19,0.06-1.48-0.23
	c-0.87-0.89-1.68-0.43-2.57-0.16c-0.51,0.15-1.11,0.23-1.62,0.13c-1.28-0.26-1.73-1.58-0.94-2.61c0.81-1.06,2.88-1.73,4.1-1.2
	c0.47,0.2,0.88,0.67,1.17,1.12c0.92,1.45,1.48,1.66,3.12,0.95c0.52-0.22,1-0.52,1.52-0.75C52.99,14.09,53.22,14.08,53.53,14.02z
	 M44.71,14.65c-0.06,0.12-0.12,0.24-0.18,0.36c0.28,0.06,0.56,0.13,0.84,0.19c0.02-0.07,0.04-0.13,0.07-0.2
	C45.2,14.89,44.95,14.77,44.71,14.65z"/>
<path d="M9.32,6.08C9.27,5.47,9.24,4.86,9.16,4.25c-0.07-0.54,0.01-1,0.61-1.06c0.55-0.05,1.18-0.04,1.42,0.63
	c0.11,0.3,0.09,0.64,0.11,0.97c0.18,3.01,0.36,6.02,0.55,9.02c0.02,0.37,0.12,0.75,0.26,1.08c0.18,0.42,0.37,0.83-0.17,1.07
	c-0.46,0.21-0.98,0.16-1.26-0.31c-0.26-0.43-0.48-0.93-0.55-1.43C9.79,11.52,9.48,8.81,9.16,6.1C9.21,6.09,9.27,6.09,9.32,6.08z"/>
<path d="M77.79,12.06c0.49-0.77,0.85-1.34,1.24-1.95c0.83,0.17,1.42,0.56,1.78,1.29c0.23,0.46,0.49,0.91,0.75,1.36
	c0.52,0.91,1.31,1.31,2.35,1.29c0.43-0.01,0.86,0.04,1.46,0.08c-1.79,1.93-3.89,1.73-5.97-1.37c-0.33,0.43-0.61,0.86-0.95,1.23
	c-0.68,0.75-1.62,0.65-2.05-0.27c-0.4-0.85-0.71-1.73-1.45-2.39c-0.17-0.16-0.21-0.66-0.09-0.89c0.11-0.21,0.55-0.42,0.79-0.37
	c0.42,0.08,0.88,0.29,1.19,0.57C77.18,10.92,77.37,11.39,77.79,12.06z"/>
<path d="M7.78,12.77c0,0.66-0.04,1.32,0.01,1.97c0.04,0.57-0.14,0.93-0.7,1.02c-0.5,0.08-0.86-0.31-0.93-0.98
	c-0.15-1.36-0.21-2.73-0.45-4.07c-0.28-1.57-0.5-3.17-1.31-4.59c-0.24-0.42-0.3-0.88,0.09-1.14c0.31-0.2,0.85-0.32,1.15-0.18
	C6.06,5,6.56,5.42,6.66,5.83C7.25,8.1,8.01,10.36,7.78,12.77z"/>
<path d="M73.91,14.2c-1.94,2.26-4.96,1.65-6.02-1.14c-0.46-0.04-0.96,0.01-1.38-0.15c-0.28-0.11-0.54-0.49-0.61-0.8
	c-0.03-0.15,0.37-0.55,0.61-0.59c1.02-0.17,2.05-0.24,3.07-0.35C70.97,12.26,73.15,12.25,73.91,14.2z M71.13,13.73
	c0.02-0.1,0.03-0.2,0.05-0.3c-0.4-0.08-0.79-0.16-1.19-0.25C70.24,13.9,70.69,13.78,71.13,13.73z"/>
<path d="M33.88,12.46c0.92-0.49,1.5,0.24,2.07,0.59c0.91-0.39,1.72-0.76,2.55-1.07c0.39-0.15,0.82-0.19,1.24-0.24
	c0.52-0.06,0.95,0.09,1.08,0.66c0.13,0.57-0.33,0.71-0.71,0.88c-0.3,0.13-0.62,0.23-0.93,0.35c-0.81,0.3-1.5,0.62-1.79,1.61
	c-0.26,0.89-1.35,0.99-1.9,0.23c-0.6-0.83-1.12-1.72-1.65-2.6C33.78,12.78,33.86,12.61,33.88,12.46z"/>
<path d="M1.01,12.59c0.33-0.04,0.8-0.24,1.14-0.11c0.48,0.19,0.96,0.55,1.26,0.97c0.3,0.41,0.38,0.99,0.6,1.63
	c-0.12,0.24-0.26,0.64-0.5,0.97c-0.32,0.44-0.78,0.66-1.35,0.48c-0.55-0.17-0.85-0.55-0.9-1.12C1.17,14.55,1.1,13.68,1.01,12.59z"/>
<path d="M63.34,12.11c1.11,0.18,2.13,0.31,2.26,1.71c0.03,0.32,0.44,0.59,0.61,0.92c0.11,0.22,0.22,0.63,0.11,0.74
	c-0.19,0.19-0.56,0.31-0.83,0.28c-0.29-0.03-0.59-0.25-0.84-0.44c-0.41-0.31-0.77-0.68-1.16-1.02
	C62.58,13.51,62.57,13.41,63.34,12.11z"/>
<path d="M0.73,6.02c0.83,0.16,1.68,0.24,1.71,1.22c0.01,0.29-0.43,0.69-0.75,0.86c-0.48,0.25-1.3-0.15-1.57-0.64
	C-0.12,7.05-0.03,6.84,0.73,6.02z"/>
<path d="M64.18,9.8c-0.72,0.01-1.31-0.51-1.32-1.17c-0.01-0.65,0.36-1.01,1.05-1.03c0.72-0.03,1.23,0.47,1.26,1.22
	C65.19,9.32,64.71,9.79,64.18,9.8z"/>
<path class="st0" d="M87.79,16.37c0.49-1.19,0.64-1.19,1.5-0.15C88.66,16.59,88.66,16.59,87.79,16.37z"/>
<path class="st0" d="M44.71,14.65c0.24,0.12,0.49,0.24,0.73,0.36c-0.02,0.07-0.04,0.13-0.07,0.2c-0.28-0.06-0.56-0.13-0.84-0.19
	C44.59,14.89,44.65,14.77,44.71,14.65z"/>
<path class="st0" d="M71.13,13.73c-0.44,0.05-0.89,0.17-1.14-0.55c0.4,0.08,0.79,0.16,1.19,0.25
	C71.16,13.53,71.15,13.63,71.13,13.73z"/>
</svg>
