<?xml version="1.0" encoding="utf-8"?>
<!-- Generator: Adobe Illustrator 24.2.3, SVG Export Plug-In . SVG Version: 6.00 Build 0)  -->
<svg version="1.1" id="Layer_1" xmlns="http://www.w3.org/2000/svg" xmlns:xlink="http://www.w3.org/1999/xlink" x="0px" y="0px"
	 viewBox="0 0 88.5 88.3" style="enable-background:new 0 0 88.5 88.3;" xml:space="preserve">
<style type="text/css">
	.st0{fill:#0D0C0B;}
</style>
<g>
	<path class="st0" d="M44.4,9.4c11.3,0,12.7,0,17.1,0.2c4.1,0.2,6.4,0.9,7.9,1.5c2,0.8,3.4,1.7,4.9,3.2s2.4,2.9,3.2,4.9
		c0.6,1.5,1.3,3.7,1.5,7.9c0.2,4.5,0.2,5.8,0.2,17.1s0,12.7-0.2,17.1c-0.2,4.1-0.9,6.4-1.5,7.9c-0.8,2-1.7,3.4-3.2,4.9
		s-2.9,2.4-4.9,3.2c-1.5,0.6-3.7,1.3-7.9,1.5C57,79,55.7,79,44.4,79s-12.7,0-17.1-0.2c-4.1-0.2-6.4-0.9-7.9-1.5
		c-2-0.8-3.4-1.7-4.9-3.2s-2.4-2.9-3.2-4.9c-0.6-1.5-1.3-3.7-1.5-7.9c-0.2-4.5-0.2-5.8-0.2-17.1s0-12.7,0.2-17.1
		c0.2-4.1,0.9-6.4,1.5-7.9c0.8-2,1.7-3.4,3.2-4.9s2.9-2.4,4.9-3.2c1.5-0.6,3.7-1.3,7.9-1.5C31.8,9.5,33.1,9.4,44.4,9.4 M44.4,1.8
		c-11.5,0-13,0-17.5,0.3c-4.5,0.2-7.6,0.9-10.3,2C13.8,5.2,11.4,6.6,9.1,9s-3.8,4.7-4.9,7.5c-1,2.7-1.8,5.8-2,10.3s-0.3,6-0.3,17.5
		s0,13,0.3,17.5c0.2,4.5,0.9,7.6,2,10.3c1.1,2.8,2.5,5.2,4.9,7.5c2.4,2.4,4.7,3.8,7.5,4.9c2.7,1,5.8,1.8,10.3,2s6,0.3,17.5,0.3
		s13,0,17.5-0.3c4.5-0.2,7.6-0.9,10.3-2c2.8-1.1,5.2-2.5,7.5-4.9c2.4-2.4,3.8-4.7,4.9-7.5c1-2.7,1.8-5.8,2-10.3s0.3-6,0.3-17.5
		s0-13-0.3-17.5c-0.2-4.5-0.9-7.6-2-10.3c-1.1-2.8-2.5-5.2-4.9-7.5S75,5.2,72.2,4.1c-2.7-1-5.8-1.8-10.3-2
		C57.4,1.8,55.9,1.8,44.4,1.8z M44.4,22.4c-12,0-21.8,9.7-21.8,21.8S32.3,66,44.4,66s21.8-9.7,21.8-21.8S56.4,22.4,44.4,22.4z
		 M44.4,58.3c-7.8,0-14.1-6.3-14.1-14.1s6.3-14.1,14.1-14.1s14.1,6.3,14.1,14.1S52.2,58.3,44.4,58.3z M72.1,21.5
		c0,2.8-2.3,5.1-5.1,5.1s-5.1-2.3-5.1-5.1s2.3-5.1,5.1-5.1S72.1,18.7,72.1,21.5z"/>
</g>
</svg>
