<?xml version="1.0" encoding="utf-8"?>
<!-- Generator: Adobe Illustrator 24.0.0, SVG Export Plug-In . SVG Version: 6.00 Build 0)  -->
<svg version="1.1" id="Layer_1" xmlns="http://www.w3.org/2000/svg" xmlns:xlink="http://www.w3.org/1999/xlink" x="0px" y="0px"
	 viewBox="0 0 75.16 33.3" style="enable-background:new 0 0 75.16 33.3;" xml:space="preserve">
<style type="text/css">
	.st0{fill:#FFFFFF;}
</style>
<path class="st0" d="M94.54,1.54"/>
<path d="M94.54,1.54"/>
<path class="st0" d="M65.11,8.62c0.12-0.01,0.25-0.01,0.37-0.02c0.63,0.71,0.94,1.56,1.14,2.48c0.11,0.52,0.33,0.99,0.98,1.05
	c0.64,0.06,1.11-0.21,1.41-0.74c0.22-0.39,0.36-0.82,0.58-1.35c0.31,0.47,0.63,0.82,0.81,1.24c0.35,0.81,0.92,1.13,1.78,1
	c1.04-0.16,2.09-0.34,2.55-1.44c0.11-0.28,0.01-0.81-0.2-1c-0.18-0.17-0.68-0.1-0.99,0.01c-0.41,0.16-0.77,0.46-1.26,0.77
	c-0.57-0.81-1.05-1.49-1.53-2.18c-0.44-0.63-0.93-1.09-1.8-1.18c-0.84-0.08-1.21,0.41-1.54,0.93c-0.5-0.43-0.88-0.87-1.35-1.15
	c-0.88-0.51-1.56-0.25-2.04,0.67c-0.19,0.36-0.39,0.71-0.58,1.07c-0.29-0.25-0.49-0.45-0.72-0.6c-0.43-0.27-0.89-0.34-1.3,0.04
	C61,8.62,61.27,9,61.44,9.39c0.38,0.86,0.74,1.73,1.11,2.59c0.33,0.77,0.71,1.01,1.38,0.88c0.66-0.12,0.91-0.6,0.93-1.47
	C64.89,10.47,65.02,9.55,65.11,8.62z"/>
<path class="st0" d="M11.68,12.7c-1.27-0.3-1.68-1.16-2.01-2.1c-0.12-0.35-0.31-0.7-0.52-1C8.21,8.32,7.08,8.32,6.11,9.56
	C6.02,9.67,5.91,9.76,5.78,9.9c-0.2-0.11-0.4-0.3-0.6-0.3c-0.39,0-0.85,0.01-1.16,0.2c-0.45,0.29-0.18,0.73-0.01,1.13
	c0.3,0.73,0.57,1.48,0.82,2.23c0.25,0.75,0.65,1.07,1.31,1.03c0.79-0.05,0.82-0.63,0.89-1.2c0.09-0.78,0.04-1.6,0.76-2.39
	c0.28,0.66,0.5,1.21,0.73,1.76C9.14,13.8,10.29,14.01,11.68,12.7z"/>
<path class="st0" d="M49.78,13.1c-0.28-0.96-0.54-1.84-0.85-2.92c0.92,0,1.66,0.06,2.39-0.03c0.78-0.09,1.56-0.29,2.31-0.52
	c0.19-0.06,0.44-0.49,0.38-0.64c-0.1-0.25-0.41-0.43-0.66-0.59c-0.1-0.06-0.27-0.01-0.41-0.01c-1.41,0-2.81,0-4.22-0.01
	c-0.7,0-1.4-0.03-2.19-0.04c-0.07,0.3-0.22,0.6-0.21,0.9c0.04,1.36,0.69,2.53,1.3,3.68C48.02,13.68,48.67,13.69,49.78,13.1z"/>
<path class="st0" d="M61.76,11.61c-0.33-0.18-0.57-0.43-0.81-0.42c-1.16,0.01-1.69-0.52-1.81-1.67c-0.04-0.34-0.54-0.85-0.9-0.91
	c-1.24-0.23-2.45-0.05-3.43,0.84c-0.67,0.61-0.87,1.3-0.6,1.88c0.27,0.6,1.08,0.95,1.96,0.74c0.53-0.12,1.02-0.39,1.51-0.58
	C59.07,12.96,60.44,13.04,61.76,11.61z"/>
<path class="st0" d="M1.59,9.08C1,9.06,0.62,9.46,0.74,10.07c0.22,1.19,0.43,2.4,0.74,3.57c0.12,0.46,0.44,0.93,0.79,1.26
	c0.38,0.36,1.11,0.18,1.48-0.32c0.34-0.45,0.47-0.98-0.11-1.32c-0.56-0.32-0.55-0.83-0.59-1.33C3,11.41,3.02,10.89,2.97,10.38
	C2.9,9.61,2.34,9.1,1.59,9.08z"/>
<path class="st0" d="M3.39,4.22c0.02-0.75-0.75-1.46-1.34-1.44c-0.42,0.01-0.7,0.21-0.73,0.68c-0.04,0.72,0.48,1.43,1.1,1.34
	C2.8,4.73,3.13,4.37,3.39,4.22z"/>
<path d="M41.31,16.53c-1.21,1.03-2.63,1.74-4.04,2.45c-1.43,0.72-2.87,1.42-4.29,2.15c-1.74,0.89-1.96,2.63-1.24,4.25
	c0.61,1.37,1.63,2.43,2.83,3.29c2.6,1.89,5.41,2.8,8.64,1.76c1.1-0.36,1.9-0.97,2.39-2.03c1.12-2.45,1.38-4.98,0.78-7.59
	c-0.78-3.44-2.47-6.5-4.18-9.54c-0.09-0.17-0.19-0.33-0.22-0.37c-1.18,0.27-2.17,0.59-3.17,0.7c-1.18,0.13-2.08-0.48-2.49-1.47
	c-0.35-0.84-0.27-1.31,0.43-1.87c1.17-0.93,2.45-1.4,3.95-0.84c0.31,0.12,0.61,0.23,1,0.38c0.3-0.27,0.59-0.58,0.93-0.81
	c0.39-0.25,0.81-0.52,1.25-0.59c0.71-0.11,1.15,0.49,0.88,1.17c-0.14,0.34-0.33,0.7-0.6,0.94c-0.89,0.79-0.71,1.68-0.29,2.57
	c0.59,1.23,1.24,2.43,1.87,3.64c1.45,2.79,2.53,5.68,2.64,8.86c0.07,1.83-0.41,3.55-1.08,5.22c-0.96,2.4-3.04,3.06-5.33,3.3
	c-1.91,0.2-3.76-0.15-5.5-0.99c-1.92-0.93-3.75-2.03-5-3.81c-0.61-0.87-1.14-1.85-1.44-2.86c-0.44-1.48,0.07-2.83,1.31-3.76
	c0.74-0.56,1.6-1,2.45-1.39c2.32-1.05,4.66-2.04,7-3.04c0.11-0.05,0.26,0,0.39,0C41.21,16.35,41.26,16.44,41.31,16.53z M40.57,9.88
	c-0.03-0.68-0.17-1.2-0.83-1.21c-0.76-0.01-1.46,0.17-1.89,0.99C38.7,10.58,39.6,10.31,40.57,9.88z"/>
<path d="M24.62,9.15c-1.07,0.13-1.99,0.25-3.08,0.39c0.18,0.75,0.34,1.42,0.51,2.09c0.05,0.18,0.19,0.33,0.24,0.51
	c0.19,0.7-0.04,1.17-0.64,1.34c-0.65,0.18-1-0.18-1.16-0.73c-0.28-0.99-0.5-2-0.76-3.08c-0.39-0.01-0.76-0.01-1.12-0.02
	c-0.32-0.01-0.7,0.07-0.96-0.07c-0.29-0.15-0.48-0.5-0.71-0.76c0.24-0.2,0.45-0.49,0.72-0.57c0.48-0.14,1-0.16,1.53-0.23
	c-0.34-2.24-0.67-4.4-1-6.53c1.75-0.61,2.08-0.35,2.22,1.22c0.15,1.68,0.44,3.34,0.65,4.92c1.49,0.74,2.98-0.38,4.08,0.39
	c1.04-0.23,1.93-0.47,2.84-0.63c0.61-0.11,1.02,0.18,1.37,0.75c1.19,1.98,2.45,2.5,4.75,2.11c0.39-0.07,0.8-0.08,1.17-0.12
	c0.19,0.69-0.12,0.91-0.54,1.13c-1.59,0.82-3.17,0.78-4.73-0.06c-0.49-0.26-0.96-0.56-1.46-0.84c-0.39,0.44-0.68,0.89-1.09,1.19
	c-0.44,0.32-0.96,0.64-1.48,0.72c-1.16,0.19-1.79-0.47-1.68-1.64C24.36,10.16,24.5,9.71,24.62,9.15z M26.24,10.55
	c0.22-0.17,0.44-0.34,0.74-0.56C26.3,9.83,26.3,9.83,26.24,10.55z"/>
<path d="M65.11,8.62c-0.09,0.92-0.22,1.84-0.24,2.77c-0.02,0.87-0.27,1.35-0.93,1.47c-0.67,0.12-1.05-0.11-1.38-0.88
	c-0.37-0.86-0.73-1.73-1.11-2.59C61.27,9,61,8.62,61.42,8.24c0.41-0.38,0.87-0.31,1.3-0.04c0.23,0.15,0.43,0.35,0.72,0.6
	c0.2-0.36,0.4-0.71,0.58-1.07c0.48-0.92,1.16-1.18,2.04-0.67c0.47,0.28,0.85,0.71,1.35,1.15c0.32-0.52,0.69-1.01,1.54-0.93
	c0.87,0.09,1.36,0.54,1.8,1.18c0.48,0.69,0.96,1.37,1.53,2.18c0.49-0.31,0.85-0.61,1.26-0.77c0.3-0.12,0.81-0.18,0.99-0.01
	c0.21,0.19,0.31,0.72,0.2,1c-0.46,1.11-1.51,1.29-2.55,1.44c-0.86,0.13-1.43-0.19-1.78-1c-0.18-0.42-0.5-0.77-0.81-1.24
	c-0.22,0.53-0.35,0.96-0.58,1.35c-0.3,0.53-0.78,0.8-1.41,0.74c-0.64-0.06-0.86-0.53-0.98-1.05c-0.2-0.92-0.51-1.78-1.14-2.48
	C65.35,8.61,65.23,8.62,65.11,8.62z"/>
<path d="M13.87,11.73c-0.36-0.2-0.71-0.42-1.08-0.6c-0.34-0.16-0.71-0.25-1.05-0.42c-0.84-0.43-1.24-1.24-1.26-2.07
	c-0.02-0.76,0.82-0.98,1.44-1.15c0.67-0.19,1.37-0.3,2.06-0.31c0.52-0.01,1.11,0.21,1.06,0.86c-0.04,0.59-0.61,0.59-1.09,0.63
	c-0.52,0.04-1.04,0.15-1.56,0.23c-0.02,0.12-0.05,0.23-0.07,0.35c0.43,0.23,0.85,0.49,1.29,0.7c0.81,0.38,1.65,0.7,2.43,1.13
	c1.03,0.56,1.17,1.42,0.24,2.11c-0.85,0.64-1.85,1.12-2.83,1.53c-0.69,0.29-1.4-0.08-1.69-0.66c-0.35-0.71,0.03-1.19,0.57-1.55
	c0.49-0.32,1.06-0.54,1.59-0.81c-0.14,0.43-0.27,0.86-0.5,1.59c0.69-0.44,1.16-0.74,1.63-1.03c-0.01-0.09-0.03-0.18-0.04-0.28
	C14.62,11.89,14.25,11.81,13.87,11.73z"/>
<path d="M11.68,12.7c-1.38,1.31-2.54,1.1-3.15-0.35C8.3,11.81,8.07,11.26,7.8,10.6c-0.72,0.79-0.67,1.61-0.76,2.39
	c-0.07,0.57-0.11,1.15-0.89,1.2c-0.66,0.04-1.06-0.27-1.31-1.03c-0.25-0.75-0.52-1.5-0.82-2.23c-0.17-0.4-0.44-0.84,0.01-1.13
	c0.31-0.2,0.76-0.2,1.16-0.2c0.2,0,0.4,0.19,0.6,0.3c0.14-0.14,0.24-0.23,0.33-0.34C7.08,8.32,8.21,8.32,9.14,9.6
	c0.22,0.3,0.4,0.65,0.52,1C10,11.54,10.41,12.4,11.68,12.7z"/>
<path d="M49.78,13.1c-1.11,0.59-1.77,0.58-2.17-0.18c-0.61-1.15-1.26-2.32-1.3-3.68c-0.01-0.3,0.14-0.61,0.21-0.9
	c0.79,0.02,1.49,0.04,2.19,0.04c1.41,0.01,2.81,0.01,4.22,0.01c0.14,0,0.32-0.06,0.41,0.01C53.6,8.57,53.91,8.75,54.01,9
	c0.06,0.15-0.19,0.59-0.38,0.64c-0.75,0.23-1.53,0.42-2.31,0.52c-0.72,0.09-1.46,0.02-2.39,0.03C49.25,11.26,49.5,12.15,49.78,13.1z
	"/>
<path d="M61.76,11.61c-1.32,1.43-2.69,1.35-4.08-0.13c-0.49,0.2-0.98,0.46-1.51,0.58c-0.88,0.2-1.69-0.14-1.96-0.74
	c-0.27-0.59-0.07-1.28,0.6-1.88c0.98-0.9,2.2-1.07,3.43-0.84c0.36,0.07,0.86,0.57,0.9,0.91c0.12,1.16,0.64,1.69,1.81,1.67
	C61.19,11.18,61.43,11.43,61.76,11.61z"/>
<path d="M1.59,9.08c0.75,0.02,1.31,0.53,1.38,1.3c0.05,0.51,0.02,1.03,0.06,1.55c0.04,0.5,0.04,1.01,0.59,1.33
	c0.58,0.34,0.45,0.87,0.11,1.32c-0.37,0.49-1.1,0.68-1.48,0.32c-0.35-0.33-0.67-0.8-0.79-1.26c-0.31-1.17-0.52-2.37-0.74-3.57
	C0.62,9.46,1,9.06,1.59,9.08z"/>
<path d="M3.39,4.22C3.13,4.37,2.8,4.73,2.41,4.79c-0.63,0.09-1.15-0.62-1.1-1.34c0.03-0.47,0.31-0.67,0.73-0.68
	C2.64,2.76,3.41,3.46,3.39,4.22z"/>
</svg>
