<?xml version="1.0" encoding="utf-8"?>
<!-- Generator: Adobe Illustrator 24.0.0, SVG Export Plug-In . SVG Version: 6.00 Build 0)  -->
<svg version="1.1" id="Layer_1" xmlns="http://www.w3.org/2000/svg" xmlns:xlink="http://www.w3.org/1999/xlink" x="0px" y="0px"
	 viewBox="0 0 41.4 36.72" style="enable-background:new 0 0 41.4 36.72;" xml:space="preserve">
<style type="text/css">
	.st0{fill:#FFFFFF;}
</style>
<path class="st0" d="M104.3-43.46"/>
<path d="M104.3-43.46"/>
<path class="st0" d="M13.98,33.79c0,0.07,0.01,0.14,0.01,0.21c0.52,0,1.04,0.02,1.55,0c3.78-0.2,7.53,0.15,11.28,0.63
	c1.34,0.17,2.73,0.22,4.08,0.12c1.78-0.14,3.54-0.49,5.32-0.74c0.63-0.09,1.03-0.34,1.11-1.04c0.13-1.16,0.34-2.31,0.49-3.47
	c0.28-2.18,0.54-4.37,0.79-6.55c0.31-2.76,0.42-5.55,0.92-8.28c0.55-3.06,0.2-6.09,0.12-9.14c-0.02-0.76-0.34-1.39-1.16-1.57
	c-0.91-0.2-1.83-0.41-2.75-0.49c-1.97-0.17-3.94-0.29-5.91-0.38c-1.27-0.06-2.55,0.04-3.81-0.05c-2.67-0.19-5.34-0.45-8.01-0.68
	c-0.18-0.02-0.41-0.05-0.52-0.16c-0.39-0.43-0.84-0.29-1.31-0.26C15.63,1.95,15.03,2,14.54,1.81c-1.5-0.58-2.95-0.4-4.42,0.05
	c-0.31,0.1-0.66,0.26-0.95,0.19c-1.53-0.34-2.91,0.2-4.25,0.73C3.55,3.33,2.22,4.1,1.91,5.72c-0.31,1.64-0.94,3.28-0.34,5
	c0.07,0.21,0.05,0.47,0.02,0.7c-0.15,1.25,0.1,2.44,0.58,3.59c0.4,0.96,0.43,1.9,0.11,2.89c-0.18,0.57-0.21,1.2-0.27,1.81
	c-0.15,1.78-0.08,3.61-0.46,5.34c-0.62,2.81,0.37,5.41,0.68,8.1c0.11,0.99,0.88,1.3,1.89,1.23C7.41,34.17,10.7,33.99,13.98,33.79z"
	/>
<path d="M13.98,33.79c-3.29,0.2-6.57,0.37-9.86,0.6c-1.01,0.07-1.78-0.25-1.89-1.23c-0.31-2.69-1.3-5.29-0.68-8.1
	c0.38-1.73,0.31-3.56,0.46-5.34c0.05-0.61,0.08-1.24,0.27-1.81c0.32-1,0.29-1.93-0.11-2.89c-0.48-1.14-0.73-2.33-0.58-3.59
	c0.03-0.23,0.05-0.49-0.02-0.7c-0.6-1.72,0.03-3.36,0.34-5C2.22,4.1,3.55,3.33,4.91,2.79c1.34-0.53,2.72-1.07,4.25-0.73
	c0.29,0.06,0.64-0.1,0.95-0.19c1.47-0.45,2.92-0.63,4.42-0.05c0.49,0.19,1.09,0.14,1.64,0.11c0.47-0.02,0.92-0.16,1.31,0.26
	c0.11,0.12,0.34,0.15,0.52,0.16c2.67,0.24,5.34,0.5,8.01,0.68c1.27,0.09,2.54,0,3.81,0.05c1.97,0.09,3.94,0.2,5.91,0.38
	c0.92,0.08,1.84,0.29,2.75,0.49c0.82,0.18,1.14,0.81,1.16,1.57c0.07,3.05,0.43,6.07-0.12,9.14c-0.49,2.73-0.61,5.52-0.92,8.28
	c-0.24,2.19-0.51,4.37-0.79,6.55c-0.15,1.16-0.36,2.31-0.49,3.47c-0.08,0.7-0.48,0.95-1.11,1.04c-1.77,0.25-3.54,0.6-5.32,0.74
	c-1.35,0.11-2.73,0.05-4.08-0.12c-3.75-0.49-7.5-0.84-11.28-0.63c-0.52,0.03-1.04,0-1.55,0C13.99,33.93,13.99,33.86,13.98,33.79z
	 M3.8,11.37c0.23-0.53,0.61-1.05,0.67-1.6c0.16-1.33,0.18-2.67,0.25-4c-0.1-0.02-0.19-0.05-0.29-0.07C4.3,6.1,4.16,6.51,4.03,6.91
	C3.54,8.38,3.8,9.88,3.8,11.37c0,0.53,0,1.06,0,1.59c0.04,0,0.07,0,0.11,0C3.87,12.42,3.84,11.89,3.8,11.37z M16.97,5.42
	c-0.01-0.04-0.01-0.09-0.02-0.13C15,5.55,13.03,5.74,11.1,6.12c-0.73,0.15-1.5,0.64-2,1.2c-2.01,2.27-3.23,4.84-2.49,7.99
	c0.06,0.27,0.03,0.56,0.01,0.84c-0.12,1.69-0.16,3.39-0.39,5.06c-0.26,1.9-0.16,3.71,0.3,5.58c0.62,2.56,1.38,3.33,4.02,3.39
	c2.78,0.07,5.56,0.17,8.34,0.18c2.44,0.01,4.89,0.47,7.32-0.21c0.21-0.06,0.46,0.03,0.7,0.04c2.79,0.22,5.02-0.82,6.46-3.2
	c0.66-1.1,1.44-2.19,1.52-3.6c0.08-1.5,0.33-2.98,0.49-4.47c0.12-1.17,0.26-2.33,0.3-3.5c0.06-1.69-0.09-3.39,0.49-5.03
	c0.22-0.61,0.24-1.29,0.34-1.94c0.09-0.65-0.24-0.94-0.86-1.03c-2.24-0.31-4.46-0.82-6.7-0.93c-2.43-0.12-4.87,0.1-7.3,0.24
	c-0.7,0.04-1.25,0.02-1.8-0.51c-0.34-0.33-0.85-0.54-1.32-0.67C18.03,5.43,17.49,5.46,16.97,5.42z M35.18,31.04
	c-3.35,2.67-7.1,1.92-10.79,1.56c3.47,1.08,6.88,0.84,10.26-0.35C35.1,32.09,35.41,31.9,35.18,31.04z M5.9,32.37
	c-0.67-0.73-1.02-1.34-1.94-1.58c0.17,0.63,0.3,1.1,0.43,1.58C4.84,32.37,5.19,32.37,5.9,32.37z M6.79,6.75
	C7.88,5.87,8.8,5.12,9.73,4.36C8.49,4.74,7.24,5.1,6.79,6.75z M16.44,32.27c-0.02,0.05-0.05,0.1-0.07,0.15c0.46,0,0.91,0,1.37,0
	c0-0.03,0-0.05,0-0.08C17.3,32.33,16.87,32.3,16.44,32.27z"/>
<path class="st0" d="M16.97,5.42c0.52,0.04,1.05,0,1.55,0.13c0.47,0.13,0.98,0.34,1.32,0.67c0.54,0.53,1.09,0.55,1.8,0.51
	c2.43-0.15,4.88-0.36,7.3-0.24c2.24,0.11,4.47,0.62,6.7,0.93c0.63,0.09,0.95,0.38,0.86,1.03c-0.09,0.65-0.12,1.33-0.34,1.94
	c-0.58,1.65-0.44,3.34-0.49,5.03c-0.04,1.17-0.18,2.34-0.3,3.5c-0.16,1.49-0.41,2.98-0.49,4.47c-0.08,1.41-0.86,2.5-1.52,3.6
	c-1.44,2.38-3.67,3.42-6.46,3.2c-0.23-0.02-0.49-0.1-0.7-0.04c-2.42,0.68-4.88,0.22-7.32,0.21c-2.78-0.01-5.56-0.11-8.34-0.18
	c-2.64-0.07-3.4-0.84-4.02-3.39c-0.45-1.87-0.56-3.68-0.3-5.58c0.23-1.67,0.27-3.37,0.39-5.06c0.02-0.28,0.06-0.57-0.01-0.84
	C5.86,12.15,7.09,9.59,9.1,7.32c0.5-0.56,1.28-1.05,2-1.2c1.93-0.39,3.9-0.57,5.86-0.83C16.96,5.33,16.97,5.38,16.97,5.42z
	 M20.93,11.71c-2.56-0.11-3.56,0.65-5.36,2.13c-1.35,1.11-2.64,4.05-1.41,6.02c0.98,1.58,1.98,3.23,4.03,3.69
	c0.4,0.09,0.75,0.4,1.15,0.51c1.83,0.53,3.67,0.66,5.24-0.6c1.2-0.96,2.24-2.11,3.1-3.43c1.22-1.89,0.39-5.38-0.72-6.5
	c-0.29-0.29-0.65-0.55-1.02-0.72C24.39,12.13,22.79,11.59,20.93,11.71z M31.27,7.74c-0.56,0.08-1.13,0.09-1.66,0.25
	c-0.32,0.1-0.68,0.37-0.83,0.66c-0.33,0.63,0.19,2.55,0.79,2.96c1.03,0.71,2.39,1.08,3.7,0.33c1.26-0.72,1.46-2.1,0.52-3.21
	C33.11,7.93,32.26,7.68,31.27,7.74z"/>
<path class="st0" d="M35.18,31.04c0.23,0.86-0.08,1.05-0.53,1.21c-3.37,1.19-6.78,1.43-10.26,0.35
	C28.08,32.96,31.83,33.72,35.18,31.04z"/>
<path class="st0" d="M3.8,11.37c0-1.49-0.26-2.99,0.23-4.45C4.16,6.51,4.3,6.1,4.44,5.69c0.1,0.02,0.19,0.05,0.29,0.07
	c-0.08,1.34-0.09,2.68-0.25,4C4.41,10.32,4.03,10.83,3.8,11.37L3.8,11.37z"/>
<path class="st0" d="M5.9,32.37c-0.71,0-1.06,0-1.51,0c-0.13-0.48-0.26-0.95-0.43-1.58C4.88,31.02,5.23,31.64,5.9,32.37z"/>
<path class="st0" d="M6.79,6.75c0.45-1.66,1.7-2.02,2.93-2.39C8.8,5.12,7.88,5.87,6.79,6.75z"/>
<path class="st0" d="M16.44,32.27c0.43,0.03,0.87,0.05,1.3,0.08c0,0.03,0,0.05,0,0.08c-0.46,0-0.91,0-1.37,0
	C16.39,32.38,16.41,32.33,16.44,32.27z"/>
<path class="st0" d="M3.8,11.37c0.03,0.53,0.07,1.06,0.1,1.59c-0.04,0-0.07,0-0.11,0C3.8,12.43,3.8,11.9,3.8,11.37
	C3.8,11.37,3.8,11.37,3.8,11.37z"/>
<path d="M20.93,11.71c1.87-0.13,3.46,0.42,5.01,1.1c0.38,0.17,0.74,0.43,1.02,0.72c1.1,1.12,1.94,4.61,0.72,6.5
	c-0.86,1.33-1.9,2.47-3.1,3.43c-1.57,1.26-3.42,1.13-5.24,0.6c-0.4-0.12-0.75-0.42-1.15-0.51c-2.06-0.46-3.05-2.11-4.03-3.69
	c-1.22-1.97,0.06-4.91,1.41-6.02C17.37,12.37,18.36,11.61,20.93,11.71z M18.03,15.45c-0.88,1.43-1.09,2.79-0.9,4.24
	c0.09,0.69,0.33,1.21,1,1.58c1.44,0.79,2.95,0.96,4.52,0.68c1.22-0.22,2.25-1.64,2.35-3.05c0.08-1.06-0.64-2.09-1.8-2.63
	c-1.23-0.56-2.48-0.95-3.77-0.26C18.76,16.37,18.37,16.07,18.03,15.45z M23.47,14.53c0.74,0.34,1.48,0.69,2.29,1.07
	c-0.11-1.02-0.67-1.52-1.59-1.68C23.72,13.84,23.45,14,23.47,14.53z"/>
<path d="M31.27,7.74c0.99-0.05,1.84,0.2,2.52,0.99c0.94,1.11,0.74,2.49-0.52,3.21c-1.32,0.75-2.67,0.38-3.7-0.33
	c-0.6-0.41-1.12-2.33-0.79-2.96c0.15-0.29,0.51-0.56,0.83-0.66C30.13,7.83,30.71,7.81,31.27,7.74z"/>
<path class="st0" d="M18.03,15.45c0.34,0.62,0.73,0.92,1.4,0.56c1.3-0.69,2.54-0.3,3.77,0.26c1.16,0.53,1.88,1.57,1.8,2.63
	c-0.11,1.41-1.13,2.83-2.35,3.05c-1.56,0.28-3.08,0.12-4.52-0.68c-0.67-0.37-0.91-0.89-1-1.58C16.94,18.24,17.16,16.88,18.03,15.45z
	"/>
<path class="st0" d="M23.47,14.53c-0.02-0.53,0.25-0.69,0.7-0.61c0.92,0.16,1.48,0.66,1.59,1.68
	C24.96,15.23,24.21,14.88,23.47,14.53z"/>
</svg>
