<?xml version="1.0" encoding="utf-8"?>
<!-- Generator: Adobe Illustrator 24.0.0, SVG Export Plug-In . SVG Version: 6.00 Build 0)  -->
<svg version="1.1" id="Layer_1" xmlns="http://www.w3.org/2000/svg" xmlns:xlink="http://www.w3.org/1999/xlink" x="0px" y="0px"
	 viewBox="0 0 64.71 15.44" style="enable-background:new 0 0 64.71 15.44;" xml:space="preserve">
<style type="text/css">
	.st0{fill:#FFFFFF;}
</style>
<path class="st0" d="M94.54,0.54"/>
<path d="M94.54,0.54"/>
<path class="st0" d="M41.97,8.6c-0.62-0.79-1.45-1.06-2.3-0.77c-1.07,0.36-1.85,1.17-2.15,2.27c-0.39,1.41,0.6,2.53,2.05,2.45
	c1.28-0.07,2.2-0.76,2.62-2c0.15-0.43,0.25-0.88,0.38-1.32c0.37-0.02,0.65-0.01,0.92-0.07c0.92-0.19,1.56,0.18,1.95,0.99
	c0.26,0.54,0.43,1.12,0.66,1.68c0.21,0.51,0.55,0.95,1.15,0.84c0.58-0.11,1.04-0.47,1.04-1.16c0-0.14-0.06-0.28-0.08-0.42
	c-0.1-0.83,0.19-1.41,0.92-1.89c0.95-0.61,1.81-1.34,2.69-2.05c0.18-0.14,0.25-0.42,0.53-0.92c-2.42,0.29-3.98,1.7-5.71,2.67
	C45.14,7.29,44.58,7.25,41.97,8.6z"/>
<path class="st0" d="M21.92,10.45c0.19-1.64-0.72-2.38-2.22-1.85c-0.13,0.05-0.27,0.09-0.39,0.17c-0.64,0.45-1.28,0.91-1.96,1.39
	c0.12,0.3,0.25,0.6,0.36,0.9c0.47,1.28,0.86,1.62,2.19,1.4c0.99-0.17,1.95-0.61,2.88-1.01c0.5-0.21,0.91-0.61,1.43-0.98
	c0.12,0.25,0.21,0.4,0.27,0.56c0.21,0.61,0.27,1.36,1.08,1.49c0.84,0.14,1.25-0.51,1.68-1.07c0.03-0.04,0.06-0.07,0.09-0.11
	c0.62-1.09,1.67-1.27,2.78-1.26c0.23,0,0.52,0.17,0.68,0.08c0.33-0.18,0.74-0.45,0.83-0.76c0.12-0.43-0.31-0.61-0.73-0.64
	c-0.84-0.06-1.72-0.27-2.53-0.13c-0.82,0.15-1.58,0.64-2.41,1C25.83,9.49,25.64,9.21,25.39,9c-0.71-0.58-1.14-0.5-1.64,0.33
	C23.33,10.03,22.71,10.35,21.92,10.45z"/>
<path class="st0" d="M13.08,9.01c0.01,0.5,0.02,1,0.03,1.5c0.02,0.85,0,1.7,0.08,2.54c0.07,0.68,0.48,1,1.01,0.89
	c0.6-0.12,0.85-0.55,0.88-1.11c0.01-0.18-0.14-0.36-0.14-0.54c-0.02-1.2-0.01-2.4-0.02-3.29c0.88-0.95,2.31-0.24,2.6-1.62
	c-0.78-1.04-1.83,0.11-2.77-0.49c-0.06-0.49-0.09-1.09-0.22-1.68c-0.25-1.14-0.51-2.29-0.86-3.41c-0.21-0.67-1.27-1.03-1.89-0.77
	c-0.5,0.21-0.49,0.7,0.03,1.58c0.05,0.08,0.12,0.15,0.16,0.23c0.69,1.38,0.82,2.84,0.86,4.27c-0.78,0.44-1.69-0.19-2.21,0.7
	C10.98,8.99,12.03,8.84,13.08,9.01z"/>
<path class="st0" d="M7.4,9.17c0.12-0.01,0.24-0.01,0.36-0.02c0.09,0.4,0.19,0.8,0.27,1.21c0.16,0.88,0.28,1.77,0.49,2.63
	c0.13,0.52,0.45,0.93,1.11,0.87c0.7-0.06,0.79-0.53,0.81-1.1c0.02-0.65-1.05-4.09-1.45-4.58C8.92,8.11,8.86,8.03,8.79,7.96
	C8,7.15,7.12,7.15,6.35,7.99C6.04,8.33,5.79,8.72,5.53,9.07C4.87,9.08,4.27,9.09,3.51,9.11c0.1,0.46,0.14,0.81,0.26,1.14
	c0.15,0.43,0.4,0.84,0.53,1.27c0.16,0.53,0.38,0.98,0.97,1.08c0.55,0.09,1.04-0.36,1.29-1.07C6.83,10.74,7.11,9.96,7.4,9.17z"/>
<path class="st0" d="M0.53,8.2c0.29,1.51,0.55,3.05,0.91,4.56c0.06,0.26,0.53,0.54,0.84,0.58c0.24,0.03,0.61-0.26,0.76-0.5
	c0.17-0.3,0.22-0.71,0.22-1.07c0-0.7-0.07-1.4-0.13-2.1C3.01,8.17,2.21,7.7,0.53,8.2z"/>
<path class="st0" d="M33.85,11.97c0.43-0.33,0.88-0.51,1.03-0.84c0.29-0.62-0.7-2.41-1.37-2.55c-0.27-0.06-0.66,0.05-0.87,0.22
	c-0.15,0.12-0.16,0.51-0.1,0.75c0.13,0.55,0.29,1.1,0.54,1.6C33.21,11.45,33.54,11.66,33.85,11.97z"/>
<path class="st0" d="M2.42,3.24c0.66,0.01,1.14-0.33,1.16-0.79c0.02-0.5-0.56-1.01-1.15-0.99C1.78,1.47,1.29,1.9,1.32,2.46
	C1.37,3.17,1.93,3.18,2.42,3.24z"/>
<path class="st0" d="M32.36,5.84c0.98,0.54,1.82,1,2.83,1.56c-0.22-1.02-0.3-1.94-1.31-2.26C33.26,4.95,32.69,5.19,32.36,5.84z"/>
<path d="M58.97,8.51c1.59,1.99,0.86,4.6-1.44,5.41c-0.75,0.26-1.53,0.45-2.32,0.6c-0.41,0.08-0.88,0.1-1.26-0.03
	c-0.46-0.16-1.08-0.42-1.22-0.79c-0.13-0.34,0.19-0.98,0.5-1.32c0.95-1.04,1.98-2,2.98-2.99c-1.01-0.64-2.02-1.12-2.85-1.83
	c-0.8-0.68-1.71-1.35-2.01-2.48c0.24-0.84,0.81-1.38,1.57-1.71C54,2.91,55.09,2.46,56.2,2.07c0.22-0.08,0.55,0.16,0.83,0.26
	c-0.15,0.3-0.22,0.75-0.47,0.88c-0.7,0.38-1.48,0.61-2.21,0.94c-0.41,0.19-0.79,0.45-1.24,0.71c0.76,1.49,1.87,2.37,3.22,3
	c0.52,0.24,0.94,0.21,1.4-0.23c1.11-1.09,2.28-2.11,3.42-3.16c0.24-0.22,0.51-0.45,0.64-0.73c0.61-1.38,0.61-1.39,2.12-1.08
	c0.4,0.75-0.18,1.08-0.63,1.5c-1.33,1.26-2.65,2.54-3.96,3.82C59.2,8.1,59.13,8.28,58.97,8.51z M54.67,12.93
	c0.04,0.12,0.09,0.23,0.13,0.35c1.12-0.11,2.27-0.24,3.16-1.06c0.38-0.35,0.59-0.95,0.71-1.48c0.12-0.53-0.09-1.01-0.58-1.09
	C56.89,10.8,55.78,11.86,54.67,12.93z"/>
<path d="M41.97,8.6c2.61-1.35,3.17-1.31,4.69,0.29c1.72-0.97,3.29-2.38,5.71-2.67c-0.28,0.5-0.35,0.78-0.53,0.92
	c-0.88,0.71-1.75,1.44-2.69,2.05c-0.74,0.47-1.03,1.06-0.92,1.89c0.02,0.14,0.08,0.28,0.08,0.42c0,0.69-0.47,1.04-1.04,1.16
	c-0.6,0.12-0.94-0.33-1.15-0.84c-0.23-0.56-0.4-1.14-0.66-1.68c-0.39-0.81-1.03-1.18-1.95-0.99c-0.27,0.06-0.56,0.04-0.92,0.07
	c-0.13,0.45-0.23,0.89-0.38,1.32c-0.43,1.24-1.35,1.94-2.62,2c-1.45,0.08-2.44-1.04-2.05-2.45c0.3-1.1,1.09-1.91,2.15-2.27
	C40.52,7.54,41.35,7.81,41.97,8.6z M39.05,10.57c0.38,0.57,0.74,0.44,1.1,0.16c0.47-0.37,0.63-0.82,0.35-1.42
	C40,9.74,39.57,10.12,39.05,10.57z"/>
<path d="M21.92,10.45c0.79-0.1,1.41-0.42,1.83-1.12c0.49-0.82,0.93-0.91,1.64-0.33c0.25,0.21,0.44,0.48,0.57,0.64
	c0.83-0.36,1.59-0.86,2.41-1c0.81-0.14,1.68,0.07,2.53,0.13c0.42,0.03,0.85,0.21,0.73,0.64c-0.09,0.31-0.5,0.58-0.83,0.76
	c-0.16,0.09-0.45-0.08-0.68-0.08c-1.12-0.01-2.16,0.16-2.78,1.26c-0.02,0.04-0.06,0.07-0.09,0.11c-0.43,0.56-0.84,1.2-1.68,1.07
	c-0.81-0.13-0.87-0.88-1.08-1.49c-0.06-0.16-0.15-0.32-0.27-0.56c-0.52,0.36-0.93,0.76-1.43,0.98c-0.93,0.4-1.89,0.84-2.88,1.01
	c-1.33,0.23-1.72-0.12-2.19-1.4c-0.11-0.3-0.24-0.59-0.36-0.9c0.68-0.49,1.32-0.94,1.96-1.39c0.11-0.08,0.25-0.12,0.39-0.17
	C21.2,8.07,22.11,8.81,21.92,10.45z"/>
<path d="M13.08,9.01c-1.05-0.17-2.1-0.02-2.46-1.19c0.52-0.89,1.43-0.27,2.21-0.7c-0.04-1.43-0.17-2.9-0.86-4.27
	c-0.04-0.08-0.11-0.15-0.16-0.23c-0.52-0.87-0.53-1.37-0.03-1.58c0.62-0.26,1.69,0.1,1.89,0.77c0.35,1.12,0.61,2.26,0.86,3.41
	c0.13,0.58,0.16,1.19,0.22,1.68c0.95,0.6,2-0.55,2.77,0.49C17.23,8.77,15.8,8.05,14.92,9c0,0.89,0,2.09,0.02,3.29
	c0,0.18,0.15,0.36,0.14,0.54c-0.03,0.57-0.27,1-0.88,1.11c-0.54,0.1-0.95-0.21-1.01-0.89c-0.08-0.84-0.06-1.69-0.08-2.54
	C13.1,10.01,13.09,9.51,13.08,9.01z"/>
<path d="M7.4,9.17c-0.28,0.78-0.57,1.56-0.84,2.35c-0.25,0.71-0.74,1.16-1.29,1.07c-0.59-0.09-0.81-0.55-0.97-1.08
	c-0.13-0.44-0.38-0.84-0.53-1.27C3.65,9.92,3.61,9.56,3.51,9.11c0.76-0.02,1.36-0.03,2.02-0.04c0.26-0.35,0.51-0.74,0.82-1.08
	C7.12,7.15,8,7.15,8.79,7.96c0.07,0.07,0.12,0.14,0.18,0.22c0.4,0.5,1.47,3.94,1.45,4.58c-0.02,0.56-0.11,1.03-0.81,1.1
	c-0.65,0.06-0.98-0.35-1.11-0.87c-0.21-0.87-0.32-1.75-0.49-2.63C7.95,9.95,7.85,9.55,7.76,9.15C7.64,9.16,7.52,9.17,7.4,9.17z"/>
<path d="M0.53,8.2c1.68-0.51,2.48-0.03,2.6,1.47c0.06,0.7,0.13,1.4,0.13,2.1c0,0.36-0.05,0.77-0.22,1.07
	c-0.14,0.25-0.52,0.53-0.76,0.5c-0.31-0.04-0.78-0.32-0.84-0.58C1.08,11.25,0.82,9.71,0.53,8.2z"/>
<path d="M33.85,11.97c-0.31-0.31-0.64-0.52-0.78-0.81c-0.24-0.5-0.41-1.06-0.54-1.6c-0.06-0.24-0.05-0.63,0.1-0.75
	c0.21-0.18,0.6-0.28,0.87-0.22c0.67,0.14,1.66,1.93,1.37,2.55C34.73,11.45,34.28,11.63,33.85,11.97z"/>
<path d="M2.42,3.24c-0.49-0.06-1.05-0.07-1.1-0.78C1.29,1.9,1.78,1.47,2.44,1.45c0.58-0.01,1.17,0.49,1.15,0.99
	C3.56,2.91,3.08,3.25,2.42,3.24z"/>
<path d="M32.36,5.84c0.33-0.65,0.89-0.89,1.51-0.7c1.02,0.31,1.09,1.24,1.31,2.26C34.19,6.85,33.35,6.38,32.36,5.84z"/>
</svg>
