<?xml version="1.0" encoding="utf-8"?>
<!-- Generator: Adobe Illustrator 24.2.3, SVG Export Plug-In . SVG Version: 6.00 Build 0)  -->
<svg version="1.1" xmlns="http://www.w3.org/2000/svg" xmlns:xlink="http://www.w3.org/1999/xlink" x="0px" y="0px"
	 viewBox="0 0 486.5 72" style="enable-background:new 0 0 486.5 72;" xml:space="preserve">
<style type="text/css">
	.st0{fill:#ED2290;}
</style>
<g id="Layer_1">
	<g>
		<path class="st0" d="M22.2,44.7c0.5,3.3,1.8,5.4,5.5,5.4c3.5,0,6-1.5,6-7.2V12.8h11.2v32.1c0,9.7-7.6,15.6-16.6,15.6
			c-9.6,0-16.9-5.8-16.9-15.5L22.2,44.7z M42,31.2V15h-5.5v16.2H42z"/>
		<path class="st0" d="M69.2,11.3h2L93.8,59H81.7l-2.3-4.8H61.1L58.9,59H46.7L69.2,11.3z M56.9,56.9l5-10.7h-6.2l-5.1,10.7H56.9z
			 M75.5,46.2l-5.3-11.7H70l-5.4,11.7H75.5z M83.5,56.9h6.4l-5.1-10.7h-6.2L83.5,56.9z"/>
		<path class="st0" d="M98.8,12.8h11.9l17.9,27.4V12.8h11.2V59h-11.8l-18-27.5V59H98.8V12.8z M107.2,56.9V28.7l-5.6-8.9v37H107.2z
			 M137,51.7V15h-5.5v28.1L137,51.7z"/>
		<path class="st0" d="M147.3,12.8h30.6v10h-19.2v8.3h17.8V41h-17.8v8.3h20.1V59h-31.4V12.8z M155.7,51.5V20.7l-5.6-5.7v41.9
			L155.7,51.5z"/>
		<path class="st0" d="M201.7,58l21.1-34.7h-18.5V12.8h36.3v1.1l-21.9,34.6h21.1V59h-38.1V58z M224.3,21.1l3.9-6H207v6H224.3z
			 M237.2,56.8v-6.1h-20.2l-3.7,6.1H237.2z"/>
		<path class="st0" d="M244.6,12.8h11.9l9.3,21.8l5.6-14.5l-2.9-7.3h11.7l9.2,21.7l8.5-21.7h11.8l-19.2,47.7h-1.5l-11.4-26.6
			l-11,26.6H265L244.6,12.8z M275.9,30.5l-2.9-6.6l-5.5,14.1l2.8,6.5L275.9,30.5z M293.9,44.6L306,15H300l-9,22.8L293.9,44.6z"/>
		<path class="st0" d="M314.1,12.8h30.6v10h-19.2v8.3h17.8V41h-17.8v8.3h20.1V59h-31.4V12.8z M322.6,51.5V20.7L317,15v41.9
			L322.6,51.5z"/>
		<path class="st0" d="M351,12.8h11.3V59H351V12.8z M359.5,56.9V40.4h-5.6v16.5H359.5z"/>
		<path class="st0" d="M369.7,12.8h18.6c7.7,0,13.9,5.7,13.9,12.9c0,4.3-1.8,7-5,9.5v0.2c4.8,3.4,6.8,6.6,6.8,11.4
			c0,6.4-5.1,12.2-13.9,12.2h-20.4V12.8z M378.1,56.9V15h-5.5v41.9H378.1z M386.3,31.2c2.6,0,4.5-1.8,4.5-4.3c0-2.4-1.8-4.2-4.5-4.2
			H381v8.5H386.3z M387.8,48.9c2.6,0,4.3-1.5,4.3-4c0-2.2-1.7-4.1-4.3-4.1H381v8.1H387.8z"/>
		<path class="st0" d="M409.4,12.8H440v10h-19.2v8.3h17.8V41h-17.8v8.3h20.1V59h-31.4V12.8z M417.9,51.5V20.7l-5.6-5.7v41.9
			L417.9,51.5z"/>
		<path class="st0" d="M446.3,12.8h11.3v36.5h20.1V59h-31.4V12.8z M454.8,51.5V15h-5.6v41.9L454.8,51.5z"/>
	</g>
</g>
<g id="Layer_2">
	<g>
		<path d="M22.2,44.7c0.5,3.3,1.8,5.4,5.5,5.4c3.5,0,6-1.5,6-7.2V12.8h11.2v32.1c0,9.7-7.6,15.6-16.6,15.6
			c-9.6,0-16.9-5.8-16.9-15.5L22.2,44.7z M28.2,58.4c7.5,0,13.8-5.1,13.8-13.5V15h-5.5v27.9c0,5.3-2.4,9.3-8.9,9.3
			c-3.7,0-6.1-1.3-7.5-5.3l-5.9,0.2C15.1,54.3,20.8,58.4,28.2,58.4z"/>
		<path d="M69.2,11.3h2L93.8,59H81.7l-2.3-4.8H61.1L58.9,59H46.7L69.2,11.3z M56.8,56.9L69.7,29h1.1l12.8,27.9h6.2L70.2,15.5
			L50.7,56.9H56.8z M78.4,52.2l-1.8-3.9h-13L62,52.2H78.4z M75.4,46.1l-5.2-11.6H70l-5.3,11.6H75.4z"/>
		<path d="M98.8,12.8h11.9l17.9,27.4V12.8h11.2V59h-11.8l-18-27.4V59H98.8V12.8z M107.2,56.9V24.3h1.2l21.5,32.6h7.2V15h-5.5v32.2
			h-1.4L108.9,15h-7.3v41.9H107.2z"/>
		<path d="M147.3,12.8h30.6v10h-19.2v8.3h17.8V41h-17.8v8.3h20.1V59h-31.4V12.8z M175.8,56.9v-5.4h-20.1V38.9h17.8v-5.5h-17.8V20.7
			H175V15h-24.9v41.9H175.8z"/>
		<path d="M201.7,58l19.6-34.7h-17.8V12.8h36.3v1.1l-20.3,34.6h20.4V59h-38.1V58z M237,56.9v-6.2h-21.6v-0.6L236,15h-29.6v6.1h19.1
			v0.5l-19.9,35.3H237z"/>
		<path d="M244.6,12.8h11.9l9.3,21.8l5.6-14.5l-2.9-7.3h11.7l9.2,21.7l8.5-21.7h11.8l-19.2,47.7h-1.5l-11.4-26.6l-11,26.6H265
			L244.6,12.8z M276.9,28.2h1.1l11.5,27.1L305.9,15H300l-9.9,25h-1.2l-10.9-25h-5.8l2,5.1l-7.5,19.8h-1.5L254.4,15h-5.9l17.2,40.3
			L276.9,28.2z"/>
		<path d="M314.1,12.8h30.6v10h-19.2v8.3h17.8V41h-17.8v8.3h20.1V59h-31.4V12.8z M342.7,56.9v-5.4h-20.1V38.9h17.8v-5.5h-17.8V20.7
			h19.2V15H317v41.9H342.7z"/>
		<path d="M351,12.8h11.3V59H351V12.8z M359.5,56.9V15h-5.6v41.9H359.5z"/>
		<path d="M369.7,12.8h18.6c7.7,0,13.9,5.7,13.9,12.9c0,4.3-1.8,7-5,9.5v0.2c4.8,3.4,6.8,6.6,6.8,11.4c0,6.4-5.1,12.2-13.9,12.2
			h-20.4V12.8z M390.1,56.9c7,0,11-4.9,11-10.1c0-4-2.2-8-7.5-11v-0.6c4.3-2.5,5.7-5.7,5.7-9.4c0-6-4.9-10.8-11-10.8h-15.8v41.9
			H390.1z M378.1,20.5h8.2c4.3,0,7.3,2.8,7.3,6.4c0,3.9-3,6.5-7.3,6.5h-8.2V20.5z M378.1,38.7h9.7c4.3,0,7.2,2.8,7.2,6.2
			c0,3.8-2.8,6.2-7.2,6.2h-9.7V38.7z M386.3,31.2c2.6,0,4.5-1.8,4.5-4.3c0-2.4-1.8-4.2-4.5-4.2H381v8.5H386.3z M387.8,48.9
			c2.6,0,4.3-1.5,4.3-4c0-2.2-1.7-4.1-4.3-4.1H381v8.1H387.8z"/>
		<path d="M409.4,12.8H440v10h-19.2v8.3h17.8V41h-17.8v8.3h20.1V59h-31.4V12.8z M438,56.9v-5.4h-20.1V38.9h17.8v-5.5h-17.8V20.7
			h19.2V15h-24.9v41.9H438z"/>
		<path d="M446.3,12.8h11.3v36.5h20.1V59h-31.4V12.8z M474.9,56.9v-5.4h-20.1V15h-5.6v41.9H474.9z"/>
	</g>
</g>
</svg>
