<?xml version="1.0" encoding="utf-8"?>
<!-- Generator: Adobe Illustrator 24.2.3, SVG Export Plug-In . SVG Version: 6.00 Build 0)  -->
<svg version="1.1" id="Layer_1" xmlns="http://www.w3.org/2000/svg" xmlns:xlink="http://www.w3.org/1999/xlink" x="0px" y="0px"
	 viewBox="0 0 335.9 212.1" style="enable-background:new 0 0 335.9 212.1;" xml:space="preserve">
<style type="text/css">
	.st0{fill:none;}
</style>
<path d="M87.6,105.8c-3.3,2.8-6.7,5.2-9.7,8c-5.6,5.2-13.1,9.6-15.8,16.1c-2.6,6.1,1,14.4,0.2,21.6c-1.4,12.8-3.2,25.7-6.6,38.1
	c-3.5,13.1-21.6,19.3-33,12.3c-1.9-1.1-3.7-3.1-4.5-5.1c-7.9-17.8-11.2-38.8,8.3-54.2c6.8-5.3,13.1-11.3,20-16.4
	c3.7-2.7,5.5-5.6,4.9-10c-1.8-13.8-3.7-27.6-5.5-41.3c-0.7-5.1-1.5-10.3-2.2-15.4c5.9-1.4,6.9,2.3,7.5,5.4c2,9.7,3.9,19.5,5.5,29.3
	c1.1,6.5,1.8,13,2.8,20.7c3.1-1.4,5.4-1.8,6.9-3.2c7.1-6,14.1-12.2,20.8-18.6c1.7-1.7,2.2-4.6,3.2-7c3.2-7.5,6.8-14.9,14.4-21
	c6.8,8.8,11,18.1,15.8,27.9c11.9-4.3,17.7-15.7,29.4-21.2c1,1,2.9,2.6,4.2,4.6c0.8,1.3,0.7,3.2,1.1,4.8c3.1,12.3,10.1,14.8,20.3,7.3
	c1.3-1,2.5-2.1,3.8-3.2c8.8-7.4,8.7-7.3,16.9,1.4c2,2.1,4.5,4.7,7.1,5.1c10.5,1.7,20.5-1,30-5.1c2.1-0.9,3.3-5.5,3.6-8.5
	c0.8-7.5,4.6-12.3,11.2-15.2c5.9-2.6,9.5-0.5,10.8,5.8c1.8,8.6-1.5,15.5-7.4,21c1.5,4.5,4.9,3.9,7.7,3.9c20.7-0.6,41.3-1.9,60-12.1
	c2.7-1.5,5.8-3.1,8.1-0.3c1.7,2.1,3.5,5.6,2.8,7.6c-0.9,2.6-4,5.6-6.7,6.2c-15.5,3.5-31.1,6.5-46.7,9.3c-12.3,2.2-24.5,2.2-35.7-5
	c-1.5-1-4.3-0.5-6.4,0c-6.1,1.4-12.1,3.7-18.3,4.8c-9.7,1.6-19.3,1.9-26.6-6.7c-2.3-2.7-5.3-2.6-8.1-0.6c-2.2,1.5-4.2,3.2-6.3,4.9
	c-10,8-20.4,5.3-25.5-6.7c-0.8-1.8-1.7-3.5-2.8-5.7c-7.8,2.8-12.7,8.8-18.3,13.6c-9.9,8.6-12.3,8.4-17.5-3.6
	c-0.4-0.8-1.2-1.5-2.4-2.9c-1.2,1.9-2.3,3.3-2.9,4.9c-0.9,2.1-1.3,4.5-2,6.7c-1.2,3.9-2.5,8.8-7.1,8.3c-2.6-0.3-4.8-4.6-7.1-7.2
	C89.5,108.5,89,107.6,87.6,105.8z M52.8,135.4c-2.4,0.7-3.9,1.1-5.4,1.6c-10.1,4.1-15.2,13.4-22.3,20.8c-5.6,5.8-6.1,13.1-6.3,20.3
	c-0.1,5.7,6.2,14.3,10.8,15.7c5,1.5,14.6-3.3,17.3-9.3C54,169,54.4,152.7,52.8,135.4z"/>
<path d="M43.8,25.4c-4.1-0.9-7.3-1.6-10.4-2.2c-0.5-1.6-1.1-2.8-1.2-4.1c-0.6-5.8,1.1-9.2,4.6-9.5c3.4-0.3,7.2,3.1,7.8,7.7
	C44.9,19.7,44.1,22.3,43.8,25.4z"/>
<path class="st0" d="M52.8,135.4c1.6,17.4,1.1,33.6-5.9,49.1c-2.7,6-12.2,10.8-17.3,9.3c-4.6-1.4-10.9-10-10.8-15.7
	c0.2-7.3,0.7-14.5,6.3-20.3c7-7.3,12.2-16.7,22.3-20.8C48.9,136.4,50.4,136.1,52.8,135.4z"/>
</svg>
