<?xml version="1.0" encoding="utf-8"?>
<!-- Generator: Adobe Illustrator 24.0.0, SVG Export Plug-In . SVG Version: 6.00 Build 0)  -->
<svg version="1.1" id="Layer_1" xmlns="http://www.w3.org/2000/svg" xmlns:xlink="http://www.w3.org/1999/xlink" x="0px" y="0px"
	 viewBox="0 0 59.48 31.86" style="enable-background:new 0 0 59.48 31.86;" xml:space="preserve">
<style type="text/css">
	.st0{fill:#FFFFFF;}
</style>
<path class="st0" d="M104.3-48.32"/>
<path d="M104.3-48.32"/>
<path class="st0" d="M1.76,27.32c0.46,0.52,1.01,0.98,1.58,1.39c1.38,0.97,3.03,1.3,4.63,1.61c3.7,0.72,7.4,0.81,11.01-0.51
	c2.07-0.75,3.59-2.15,4.22-4.26c0.48-1.61,0.79-3.3,0.93-4.97c0.34-4.27-0.96-8.28-2.21-12.28c-0.2-0.63-0.7-0.92-1.41-0.93
	c-0.84-0.01-1.15,0.51-1.54,1.31c0.27,0.3,0.53,0.77,0.93,0.97c0.5,0.25,0.69,0.6,0.82,1.06c0.31,1.13,0.62,2.27,0.94,3.4
	c0.89,3.09,0.96,6.22,0.41,9.37c-0.32,1.82-1.02,3.48-2.71,4.43c-1.02,0.56-2.15,0.95-3.26,1.3c-2.88,0.91-5.78,0.7-8.65-0.03
	c-1.42-0.36-2.83-0.76-3.94-1.79C2.78,26.73,2.4,26,2.75,24.99c0.1-0.3,0.02-0.66,0.02-1.04c-0.93,0.08-1.17,0.62-1.34,1.23"/>
<path class="st0" d="M31.59,12.11c1.23,0.18,2.19,0.39,3.15,0.42c0.29,0.01,0.79-0.41,0.86-0.71c0.12-0.51-0.39-0.64-0.82-0.75
	c-1.36-0.34-1.34-0.35-1.56-1.85c-0.05-0.32-0.28-0.79-0.53-0.86c-1.09-0.33-2.21-0.39-3.25,0.21c-0.94,0.54-1.19,1.88-0.61,2.98
	c0.58,1.1,1.18,1.28,2.43,0.72C31.48,12.18,31.68,12.07,31.59,12.11z"/>
<path class="st0" d="M37.19,10.1c0.35,0.69,0.58,1.29,0.95,1.8c0.21,0.3,0.62,0.56,0.98,0.63c0.5,0.1,0.92-0.2,1.08-0.71
	c0.1-0.31,0.09-0.65,0.17-0.97c0.18-0.76,0.64-1.18,1.22-1.13c0.59,0.05,0.89,0.45,0.93,1.28c0.01,0.09-0.03,0.19-0.01,0.28
	c0.09,0.59,0.6,0.94,1.26,0.81c0.54-0.11,0.96-0.41,0.96-1.02c0-1.52-1.27-2.77-2.82-2.71c-0.59,0.02-1.18,0.24-1.77,0.38
	c-0.54,0.13-1.07,0.37-1.61,0.39C37.71,9.15,37.29,9.49,37.19,10.1z"/>
<path class="st0" d="M21.19,2.12c-0.53-0.23-1-0.5-1.52-0.63c-0.54-0.14-1.05,0-1.24,0.61c-0.16,0.53,0.38,1.24,1.01,1.29
	C20.19,3.45,20.84,3.25,21.19,2.12z"/>
<path d="M1.43,25.18c0.17-0.61,0.41-1.15,1.34-1.23c0,0.38,0.09,0.74-0.02,1.04c-0.35,1,0.03,1.74,0.74,2.39
	c1.12,1.03,2.53,1.43,3.94,1.79c2.88,0.72,5.78,0.94,8.65,0.03c1.12-0.35,2.25-0.73,3.26-1.3c1.69-0.94,2.4-2.61,2.71-4.43
	c0.55-3.15,0.48-6.28-0.41-9.37c-0.33-1.13-0.63-2.27-0.94-3.4c-0.13-0.46-0.32-0.82-0.82-1.06c-0.4-0.2-0.66-0.68-0.93-0.97
	c0.4-0.8,0.71-1.32,1.54-1.31c0.72,0.01,1.22,0.3,1.41,0.93c1.25,4,2.55,8.01,2.21,12.28c-0.13,1.67-0.45,3.36-0.93,4.97
	c-0.63,2.11-2.15,3.51-4.22,4.26c-3.61,1.32-7.31,1.23-11.01,0.51c-1.61-0.31-3.25-0.64-4.63-1.61c-0.57-0.4-1.12-0.86-1.58-1.39"/>
<path d="M49.06,10.07c1.21,0.62,2.31,1.39,3.74,0.89c0.53-0.19,1.2,0.07,1.78-0.02c0.63-0.1,1.26-0.32,1.84-0.59
	c1.08-0.51,2.02-0.5,3.06,0.18c-0.14,0.5-0.31,0.95-0.92,1.07c-1.62,0.31-3.22,0.73-4.85,0.91c-2.08,0.23-4.13,0.06-6.05-0.97
	c-1.73-0.93-1.98-2.54-0.58-3.91c1.43-1.41,3.21-1.92,5.15-1.93c0.49,0,1.03,0.17,1.48,0.4c0.93,0.49,1.07,1.34,0.32,2.08
	c-1.04,1.01-2.33,1.56-3.77,1.75C49.86,9.97,49.46,10.02,49.06,10.07z M48.72,8.11c1.46,0.23,2.55,0.02,3.58-0.82
	C51,6.58,50.11,6.77,48.72,8.11z"/>
<path d="M31.59,12.11c0.08-0.04-0.12,0.07-0.33,0.17c-1.24,0.56-1.84,0.38-2.43-0.72c-0.59-1.11-0.33-2.44,0.61-2.98
	c1.04-0.6,2.16-0.54,3.25-0.21c0.25,0.08,0.48,0.55,0.53,0.86c0.23,1.51,0.2,1.51,1.56,1.85c0.43,0.11,0.94,0.24,0.82,0.75
	c-0.07,0.3-0.57,0.72-0.86,0.71C33.78,12.5,32.83,12.29,31.59,12.11z"/>
<path d="M37.19,10.1c0.1-0.61,0.52-0.95,1.32-0.98c0.54-0.02,1.07-0.26,1.61-0.39c0.59-0.14,1.18-0.35,1.77-0.38
	c1.55-0.06,2.82,1.19,2.82,2.71c0,0.61-0.42,0.92-0.96,1.02c-0.66,0.13-1.17-0.22-1.26-0.81c-0.01-0.09,0.02-0.19,0.01-0.28
	c-0.05-0.83-0.34-1.23-0.93-1.28c-0.58-0.05-1.04,0.37-1.22,1.13c-0.08,0.32-0.07,0.66-0.17,0.97c-0.16,0.51-0.58,0.81-1.08,0.71
	c-0.36-0.07-0.77-0.33-0.98-0.63C37.77,11.39,37.54,10.79,37.19,10.1z"/>
<path d="M21.19,2.12c-0.35,1.13-1,1.33-1.75,1.27c-0.63-0.05-1.17-0.76-1.01-1.29c0.19-0.61,0.7-0.76,1.24-0.61
	C20.18,1.62,20.66,1.89,21.19,2.12z"/>
</svg>
