<?xml version="1.0" encoding="utf-8"?>
<!-- Generator: Adobe Illustrator 24.2.3, SVG Export Plug-In . SVG Version: 6.00 Build 0)  -->
<svg version="1.1" id="Layer_1" xmlns="http://www.w3.org/2000/svg" xmlns:xlink="http://www.w3.org/1999/xlink" x="0px" y="0px"
	 viewBox="0 0 105 98" style="enable-background:new 0 0 105 98;" xml:space="preserve">
<g>
	<path d="M86.4,13.3c-9.7-9.7-25.5-9.7-35.2,0C27.5,37,33.9,30.5,12,52.4c-9.7,9.7-9.7,25.4,0,35.2c9.7,9.7,25.5,9.7,35.2,0
		c21.9-21.9,22.7-22.7,39.1-39.1C96.1,38.7,96.1,23,86.4,13.3z M63,64.4c-0.2,0.2-2.8,2.8-19.5,19.5c-7.7,7.7-20.1,7.7-27.8,0
		C8,76.2,8,63.8,15.7,56.1l9.1-9.1c-0.4,3.4-0.1,6.8,0.7,9.9L20.5,62c-2.3,2.3-3.6,5.3-3.6,8.6c0,10.7,13.1,16.2,20.7,8.6
		c0.9-0.9,19-19,19.9-19.9c6.8-6.9,3.1-18.8-6.5-20.5c4.9-4.9,4.4-4.4,6-6C68.8,38.1,72.9,53.8,63,64.4L63,64.4z M27.7,62.1
		c2.2,4,5.6,7.5,9.8,9.8L34,75.5c-2.7,2.7-7.1,2.7-9.8,0c-2.7-2.7-2.7-7.1,0-9.8L27.7,62.1z M44,55.6c-2.7-2.7-2.7-7.1,0-9.8
		c2.7-2.7,7.1-2.7,9.8,0c2.7,2.7,2.7,7.1,0,9.8C51.1,58.3,46.7,58.3,44,55.6L44,55.6z M60.9,28.9l3-3c2.7-2.7,7.1-2.7,9.8,0
		c2.7,2.7,2.7,7.1,0,9.8l-3,3C68.5,34.8,65.1,31.3,60.9,28.9L60.9,28.9z M73.6,53.9c0.4-3.3,0.2-6.7-0.7-9.9l4.5-4.5
		c4.7-4.7,4.7-12.4,0-17.2c-4.7-4.7-12.4-4.7-17.2,0L40.3,42.1c-6.9,6.9-3.1,18.8,6.5,20.5L41.4,68c-11.5-5.2-16.1-20.6-6-31.5
		c0.2-0.2,0.2-0.2,19.5-19.5c7.7-7.7,20.1-7.7,27.8,0c7.7,7.7,7.7,20.1,0,27.8L73.6,53.9z"/>
	<path d="M7.8,38.8l5.1-0.5c1.4-0.1,2.5-1.4,2.4-2.8c-0.1-1.4-1.4-2.5-2.8-2.4l-5.1,0.5c-1.4,0.1-2.5,1.4-2.4,2.8
		C5.1,37.9,6.4,39,7.8,38.8z"/>
	<path d="M34.6,16.5c1.3,0,2.5-1,2.6-2.4l0.5-5.1c0.1-1.4-0.9-2.7-2.4-2.8c-1.4-0.1-2.7,0.9-2.8,2.4L32,13.7
		C31.8,15.2,33,16.5,34.6,16.5L34.6,16.5z"/>
	<path d="M17.6,22.1c1,1,2.7,1,3.7,0c1-1,1-2.7,0-3.7L18,15.1c-1-1-2.7-1-3.7,0c-1,1-1,2.7,0,3.7L17.6,22.1z"/>
	<path d="M90.6,62l-5.1,0.5c-1.4,0.1-2.5,1.4-2.4,2.8c0.1,1.3,1.3,2.4,2.6,2.4c0.1,0,0.2,0,0.2,0l5.1-0.5c1.4-0.1,2.5-1.4,2.4-2.8
		C93.3,62.9,92,61.9,90.6,62z"/>
	<path d="M64.1,84.3c-1.4-0.1-2.7,0.9-2.8,2.4l-0.5,5.1c-0.1,1.5,1.1,2.8,2.6,2.8c1.3,0,2.5-1,2.6-2.4l0.5-5.1
		C66.6,85.7,65.5,84.5,64.1,84.3z"/>
	<path d="M80.8,78.8c-1-1-2.7-1-3.7,0c-1,1-1,2.7,0,3.7l3.3,3.3c0.5,0.5,1.2,0.8,1.8,0.8c2.3,0,3.5-2.8,1.8-4.4L80.8,78.8z"/>
</g>
<g>
	<g>
		<path d="M618.3,534.1c-5.9-8.5-15.2-13.4-25.6-13.4s-19.7,4.9-25.6,13.4c-5.9,8.5-7.2,19.2-3.6,28.7c1,2.6,2.5,5.1,4.5,7.5
			l22.7,26.6c0.5,0.6,1.3,0.9,2.1,0.9s1.5-0.3,2.1-0.9l22.7-26.6c2-2.4,3.6-4.9,4.5-7.5C625.5,553.3,624.1,542.6,618.3,534.1z
			 M616.9,560.9c-0.7,2-1.9,3.9-3.6,5.8c0,0,0,0,0,0L592.7,591l-20.6-24.2c-1.6-1.9-2.8-3.8-3.6-5.8c-3-7.8-1.8-16.7,3-23.7
			c4.9-7,12.6-11.1,21.2-11.1c8.6,0,16.3,4,21.2,11.1C618.7,544.2,619.8,553.1,616.9,560.9z"/>
	</g>
</g>
<g>
	<g>
		<path d="M592.7,536.7c-8.3,0-15.1,6.8-15.1,15.1c0,8.3,6.8,15.1,15.1,15.1s15.1-6.8,15.1-15.1C607.8,543.5,601,536.7,592.7,536.7z
			 M592.7,561.5c-5.4,0-9.7-4.4-9.7-9.7s4.4-9.7,9.7-9.7s9.7,4.4,9.7,9.7S598,561.5,592.7,561.5z"/>
	</g>
</g>
</svg>
