<svg id="Capa_1" enable-background="new 0 0 512 512" height="512" viewBox="0 0 512 512" width="512" xmlns="http://www.w3.org/2000/svg"><g><path d="m470.017 41.975c-55.833-55.831-146.676-55.831-202.509 0-136.802 136.796-99.441 99.441-225.529 225.529-55.96 55.96-55.982 146.545-.008 202.517 55.841 55.842 146.695 55.83 202.526.001 126.443-126.439 130.592-130.589 225.529-225.53 55.968-55.967 55.966-146.543-.009-202.517zm-134.544 294.629c-.904.943-16.132 16.158-112.187 112.208-44.14 44.142-115.963 44.14-160.105-.001-44.237-44.236-44.241-115.847.008-160.096l52.509-52.509c-2.465 19.491-.813 39.036 4.241 56.935l-29.364 29.365c-13.211 13.21-20.486 30.774-20.486 49.456 0 61.839 75.308 93.545 119.398 49.457 5.001-5.001 109.599-109.599 114.418-114.418 39.449-39.803 18.129-108.221-37.357-118.046 28.489-28.49 25.202-25.203 34.36-34.361 67.961 30.627 91.381 121 34.565 182.01zm-203.219-13.357c12.63 22.991 32.203 43.145 56.49 56.493l-20.468 20.468c-15.575 15.574-40.917 15.574-56.492 0-15.611-15.611-15.613-40.879.001-56.492zm94.068-37.576c-15.502-15.503-15.566-40.769-.193-56.298 15.571-15.426 40.844-15.366 56.349.14 15.499 15.498 15.559 40.769.189 56.302-15.572 15.421-40.841 15.359-56.345-.144zm96.928-153.421 17.266-17.266c15.574-15.573 40.918-15.574 56.492 0 15.61 15.61 15.615 40.876.001 56.492l-17.265 17.265c-12.635-22.989-32.205-43.147-56.494-56.491zm73.066 143.533c2.373-18.954.966-38.461-4.247-56.946l26.151-26.152c27.33-27.33 27.342-71.571-.001-98.912-27.268-27.27-71.64-27.269-98.912 0l-114.406 114.406c-39.467 39.793-18.137 108.225 37.354 118.051l-31.17 31.17c-66.277-29.905-92.523-118.957-34.828-181.713.99-1.06 1.231-1.274 112.462-112.502 44.134-44.132 115.949-44.137 160.089 0 44.243 44.243 44.26 115.846.009 160.097z"/><path d="m17.773 189.314 29.28-2.716c8.248-.765 14.314-8.071 13.549-16.319s-8.07-14.319-16.32-13.548l-29.28 2.716c-8.248.765-14.314 8.071-13.549 16.319.767 8.26 8.089 14.317 16.32 13.548z"/><path d="m171.692 60.656c7.658 0 14.195-5.837 14.917-13.613l2.716-29.279c.765-8.248-5.301-15.555-13.549-16.319-8.25-.767-15.554 5.301-16.32 13.548l-2.716 29.279c-.813 8.772 6.081 16.384 14.952 16.384z"/><path d="m74.069 92.579c5.858 5.858 15.353 5.857 21.21 0s5.857-15.353 0-21.21l-18.782-18.783c-5.857-5.857-15.353-5.857-21.21 0s-5.857 15.353 0 21.21z"/><path d="m494.226 322.686-29.279 2.716c-8.248.765-14.314 8.071-13.548 16.319.722 7.777 7.258 13.613 14.916 13.613.464 0 .932-.021 1.403-.065l29.279-2.716c8.248-.765 14.314-8.071 13.548-16.319-.765-8.249-8.083-14.32-16.319-13.548z"/><path d="m341.71 451.409c-8.258-.769-15.554 5.301-16.319 13.548l-2.716 29.279c-.814 8.769 6.076 16.385 14.951 16.385 7.658 0 14.194-5.837 14.916-13.613l2.716-29.279c.766-8.249-5.3-15.555-13.548-16.32z"/><path d="m437.93 419.421c-5.857-5.857-15.353-5.857-21.21 0-5.858 5.857-5.858 15.353 0 21.21l18.783 18.783c2.928 2.928 6.767 4.393 10.605 4.393 13.24 0 20.083-16.127 10.605-25.603z"/></g></svg>