<?xml version="1.0" encoding="utf-8"?>
<!-- Generator: Adobe Illustrator 24.2.3, SVG Export Plug-In . SVG Version: 6.00 Build 0)  -->
<svg version="1.1" id="Layer_1" xmlns="http://www.w3.org/2000/svg" xmlns:xlink="http://www.w3.org/1999/xlink" x="0px" y="0px"
	 viewBox="0 0 105 98" style="enable-background:new 0 0 105 98;" xml:space="preserve">
<g>
	<g>
		<path d="M81.9,18.8C75,8.8,64,3,51.7,3S28.5,8.8,21.6,18.8c-6.9,10-8.5,22.6-4.3,33.8c1.1,3.1,2.9,6,5.3,8.8l26.7,31.3
			c0.6,0.7,1.5,1.1,2.4,1.1c0.9,0,1.8-0.4,2.4-1.1l26.7-31.3c2.4-2.8,4.2-5.8,5.3-8.8C90.4,41.4,88.8,28.8,81.9,18.8z M80.2,50.4
			c-0.9,2.3-2.3,4.6-4.2,6.9c0,0,0,0,0,0L51.7,85.8L27.5,57.3c-1.9-2.2-3.3-4.5-4.2-6.9c-3.5-9.2-2.2-19.7,3.5-28
			c5.7-8.3,14.8-13.1,24.9-13.1c10.1,0,19.2,4.8,24.9,13.1C82.4,30.7,83.7,41.1,80.2,50.4z"/>
	</g>
</g>
<g>
	<g>
		<path d="M51.7,21.8c-9.8,0-17.8,8-17.8,17.8s8,17.8,17.8,17.8s17.8-8,17.8-17.8C69.5,29.8,61.6,21.8,51.7,21.8z M51.7,51.1
			c-6.3,0-11.4-5.1-11.4-11.4s5.1-11.4,11.4-11.4c6.3,0,11.4,5.1,11.4,11.4S58.1,51.1,51.7,51.1z"/>
	</g>
</g>
</svg>
