<?xml version="1.0" encoding="utf-8"?>
<!-- Generator: Adobe Illustrator 24.2.3, SVG Export Plug-In . SVG Version: 6.00 Build 0)  -->
<svg version="1.1" id="Layer_1" xmlns="http://www.w3.org/2000/svg" xmlns:xlink="http://www.w3.org/1999/xlink" x="0px" y="0px"
	 viewBox="0 0 105 98" style="enable-background:new 0 0 105 98;" xml:space="preserve">
<style type="text/css">
	.st0{stroke:#070707;stroke-miterlimit:10;}
</style>
<g>
	<path d="M737.2,380.4c-8.6-8.6-22.6-8.6-31.2,0c-21.1,21.1-15.3,15.3-34.8,34.8c-8.6,8.6-8.6,22.6,0,31.2c8.6,8.6,22.6,8.6,31.2,0
		c19.5-19.5,20.1-20.1,34.8-34.8C745.9,403,745.9,389,737.2,380.4z M716.5,425.8c-0.1,0.1-2.5,2.5-17.3,17.3
		c-6.8,6.8-17.9,6.8-24.7,0c-6.8-6.8-6.8-17.9,0-24.7l8.1-8.1c-0.4,3-0.1,6,0.7,8.8l-4.5,4.5c-2,2-3.2,4.7-3.2,7.6
		c0,9.5,11.6,14.4,18.4,7.6c0.8-0.8,16.9-16.9,17.6-17.6c6.1-6.1,2.8-16.7-5.8-18.2c4.4-4.4,3.9-3.9,5.3-5.3
		C721.6,402.5,725.3,416.4,716.5,425.8L716.5,425.8z M685.2,423.7c1.9,3.5,5,6.7,8.7,8.7l-3.2,3.2c-2.4,2.4-6.3,2.4-8.7,0
		c-2.4-2.4-2.4-6.3,0-8.7L685.2,423.7z M699.7,418c-2.4-2.4-2.4-6.3,0-8.7c2.4-2.4,6.3-2.4,8.7,0c2.4,2.4,2.4,6.3,0,8.7
		C706,420.4,702.1,420.3,699.7,418L699.7,418z M714.6,394.3l2.7-2.7c2.4-2.4,6.3-2.4,8.7,0c2.4,2.4,2.4,6.3,0,8.7l-2.7,2.7
		C721.4,399.5,718.4,396.4,714.6,394.3L714.6,394.3z M725.9,416.4c0.4-2.9,0.1-5.9-0.7-8.8l4-4c4.2-4.2,4.2-11,0-15.3
		c-4.2-4.2-11-4.2-15.3,0L696.4,406c-6.1,6.1-2.8,16.7,5.8,18.2l-4.8,4.8c-10.2-4.6-14.3-18.3-5.4-28c0.2-0.2,0.2-0.2,17.3-17.3
		c6.8-6.8,17.9-6.8,24.7,0c6.8,6.8,6.8,17.9,0,24.7L725.9,416.4z"/>
	<path d="M667.5,403.1l4.5-0.4c1.3-0.1,2.2-1.2,2.1-2.5s-1.2-2.2-2.5-2.1l-4.5,0.4c-1.3,0.1-2.2,1.2-2.1,2.5
		C665.1,402.3,666.2,403.2,667.5,403.1z"/>
	<path d="M691.2,383.3c1.2,0,2.2-0.9,2.3-2.1l0.4-4.5c0.1-1.3-0.8-2.4-2.1-2.5c-1.3-0.1-2.4,0.8-2.5,2.1l-0.4,4.5
		C688.8,382.1,689.9,383.3,691.2,383.3L691.2,383.3z"/>
	<path d="M676.2,388.2c0.9,0.9,2.4,0.9,3.3,0s0.9-2.4,0-3.3l-2.9-2.9c-0.9-0.9-2.4-0.9-3.3,0s-0.9,2.4,0,3.3L676.2,388.2z"/>
	<path d="M741,423.7l-4.5,0.4c-1.3,0.1-2.2,1.2-2.1,2.5c0.1,1.2,1.1,2.1,2.3,2.1c0.1,0,0.1,0,0.2,0l4.5-0.4c1.3-0.1,2.2-1.2,2.1-2.5
		C743.4,424.5,742.3,423.5,741,423.7z"/>
	<path d="M717.5,443.5c-1.3-0.1-2.4,0.8-2.5,2.1l-0.4,4.5c-0.1,1.4,0.9,2.5,2.3,2.5c1.2,0,2.2-0.9,2.3-2.1l0.4-4.5
		C719.7,444.8,718.7,443.6,717.5,443.5z"/>
	<path d="M732.3,438.6c-0.9-0.9-2.4-0.9-3.3,0c-0.9,0.9-0.9,2.4,0,3.3l2.9,2.9c0.5,0.5,1,0.7,1.6,0.7c2,0,3.1-2.5,1.6-3.9
		L732.3,438.6z"/>
</g>
<g>
	<g>
		<path class="st0" d="M90.7,17H12.3C7.7,17,4,20.7,4,25.3v48.4c0,4.6,3.7,8.3,8.3,8.3h78.3c4.6,0,8.3-3.7,8.3-8.3V25.3
			C99,20.7,95.3,17,90.7,17z M89.6,22.5l-1.1,0.9l-33.6,28c-1.9,1.6-4.7,1.6-6.6,0l-33.6-28l-1.1-0.9H89.6z M9.6,26.5L37,49.4
			L9.6,67.6V26.5z M90.7,76.5H12.3c-1.3,0-2.5-1-2.7-2.2l31.8-21.2l3.2,2.7c2,1.7,4.4,2.5,6.9,2.5s4.9-0.8,6.9-2.5l3.2-2.7
			l31.8,21.2C93.1,75.5,92,76.5,90.7,76.5z M93.4,67.6L66,49.4l27.4-22.8V67.6z"/>
	</g>
</g>
<g>
	<g>
		<path d="M618.3,534.1c-5.9-8.5-15.2-13.4-25.6-13.4s-19.7,4.9-25.6,13.4c-5.9,8.5-7.2,19.2-3.6,28.7c1,2.6,2.5,5.1,4.5,7.5
			l22.7,26.6c0.5,0.6,1.3,0.9,2.1,0.9s1.5-0.3,2.1-0.9l22.7-26.6c2-2.4,3.6-4.9,4.5-7.5C625.5,553.3,624.1,542.6,618.3,534.1z
			 M616.9,560.9c-0.7,2-1.9,3.9-3.6,5.8c0,0,0,0,0,0L592.7,591l-20.6-24.2c-1.6-1.9-2.8-3.8-3.6-5.8c-3-7.8-1.8-16.7,3-23.7
			c4.9-7,12.6-11.1,21.2-11.1c8.6,0,16.3,4,21.2,11.1C618.7,544.2,619.8,553.1,616.9,560.9z"/>
	</g>
</g>
<g>
	<g>
		<path d="M592.7,536.7c-8.3,0-15.1,6.8-15.1,15.1c0,8.3,6.8,15.1,15.1,15.1s15.1-6.8,15.1-15.1C607.8,543.5,601,536.7,592.7,536.7z
			 M592.7,561.5c-5.4,0-9.7-4.4-9.7-9.7s4.4-9.7,9.7-9.7s9.7,4.4,9.7,9.7S598,561.5,592.7,561.5z"/>
	</g>
</g>
</svg>
