<?xml version="1.0" encoding="utf-8"?>
<!-- Generator: Adobe Illustrator 24.2.3, SVG Export Plug-In . SVG Version: 6.00 Build 0)  -->
<svg version="1.1" id="Layer_1" xmlns="http://www.w3.org/2000/svg" xmlns:xlink="http://www.w3.org/1999/xlink" x="0px" y="0px"
	 viewBox="0 0 99.7 69.4" style="enable-background:new 0 0 99.7 69.4;" xml:space="preserve">
<style type="text/css">
	.st0{stroke:#070707;stroke-miterlimit:10;}
</style>
<g>
	<g>
		<path class="st0" d="M88.9,2.6H10.5c-4.6,0-8.3,3.7-8.3,8.3v48.4c0,4.6,3.7,8.3,8.3,8.3h78.3c4.6,0,8.3-3.7,8.3-8.3V10.9
			C97.2,6.3,93.5,2.6,88.9,2.6z M87.8,8.1L86.7,9L53.1,37c-1.9,1.6-4.7,1.6-6.6,0L12.9,9l-1.1-0.9C11.8,8.1,87.8,8.1,87.8,8.1z
			 M7.8,12.1L35.2,35L7.8,53.2V12.1z M88.9,62.1H10.5c-1.3,0-2.5-1-2.7-2.2l31.8-21.2l3.2,2.7c2,1.7,4.4,2.5,6.9,2.5
			s4.9-0.8,6.9-2.5l3.2-2.7l31.8,21.2C91.3,61.1,90.2,62.1,88.9,62.1z M91.6,53.2L64.2,35l27.4-22.8V53.2z"/>
	</g>
</g>
</svg>
