<?xml version="1.0" encoding="utf-8"?>
<!-- Generator: Adobe Illustrator 24.0.0, SVG Export Plug-In . SVG Version: 6.00 Build 0)  -->
<svg version="1.1" id="Layer_1" xmlns="http://www.w3.org/2000/svg" xmlns:xlink="http://www.w3.org/1999/xlink" x="0px" y="0px"
	 viewBox="0 0 150.1 27.62" style="enable-background:new 0 0 150.1 27.62;" xml:space="preserve">
<style type="text/css">
	.st0{fill:#FFFFFF;}
</style>
<path class="st0" d="M113.02,1.81c-0.66-0.01-1.14,0.34-1.27,1c-0.08,0.4,0.04,0.83-0.03,1.22c-0.23,1.26-0.41,2.53-0.78,3.75
	c-0.62,2.04-1.82,3.72-3.16,5.39c-1.06,1.33-2.11,2.48-3.64,3.16c-0.94,0.55-1.83,1.21-2.82,1.62c-1.45,0.6-2.98,1.03-4.48,1.49
	c-0.72,0.22-1.25,0.55-1.4,1.53c0.48-0.02,0.86,0,1.23-0.06c1.34-0.22,2.49-0.93,3.72-1.43c0.67-0.28,1.54-0.28,2.24-0.73
	c0.72-0.46,1.45-0.9,2.14-1.33c-0.06-0.21-0.06-0.34-0.13-0.43c-0.17-0.24-0.37-0.45-0.55-0.68c1.97,0.8,3.31-0.22,4.38-1.66
	c1.17-1.58,2.19-3.28,3.38-5.1c0.19,0.12,0.61,0.23,0.79,0.51c0.46,0.68,0.87,1.4,1.18,2.16c1.2,2.93,3.72,4.37,6.48,5.06
	c1.69,0.43,3.57-0.39,5.19-1.24c1.03-0.54,1.98-1.21,2.97-1.82c0.5-0.31,1.05-0.54,1.49-0.92c0.96-0.8,1.87-1.66,2.78-2.52
	c1.05-0.99,2.08-2.01,3.22-3.1c0.46,0.42,1.05,0.88,1.55,1.44c0.55,0.61,1.04,1.28,1.49,1.96c1.95,2.94,4.25,5.58,6.77,8.03
	c1.19-0.92,1.19-1.06,0.25-1.75c-0.35-0.26-0.64-0.62-0.9-0.98c-0.41-0.57-0.72-1.21-1.15-1.76c-0.62-0.77-1.41-1.41-1.97-2.21
	c-1.44-2.04-2.96-4.01-4.72-5.79c-0.88-0.88-1.64-0.89-2.47,0.08c-1.37,1.6-2.87,3.03-4.44,4.45c-2.25,2.03-4.79,3.3-7.58,4.32
	c-2.83,1.03-4.93-0.19-6.53-2.05c-1.38-1.61-2.11-3.48-2.66-5.48c-0.29-1.06-0.32-2.06,0.03-3.11c0.2-0.6,0.28-1.26,0.28-1.89
	C113.9,2.39,113.71,1.82,113.02,1.81"/>
<path class="st0" d="M73.73,16.63c2.07,0.92,2.24,3.58,4.58,4.14c1.63-1.95,3.24-3.87,4.86-5.81c0.51,0.32,0.89,0.59,1.29,0.82
	c2.18,1.28,4.32,2.62,6.55,3.8c0.8,0.42,1.79,0.53,2.71,0.65c0.34,0.05,0.73-0.28,1.27-0.51c-1.11-0.3-1.96-0.44-2.73-0.77
	c-2.59-1.1-4.91-2.67-7.09-4.43c-0.32-0.26-0.65-0.51-0.99-0.74c-0.57-0.39-1.08-0.35-1.56,0.19c-0.86,0.97-1.73,1.92-2.62,2.85
	c-0.44,0.47-0.91,0.93-1.43,1.31c-0.93,0.68-1.23,0.64-1.88-0.27c-0.48-0.67-0.9-1.38-1.3-2.1c-0.38-0.7-0.88-1.21-1.73-1.44
	c-1.16,1.44-2.27,2.88-3.43,4.26c-1.7,2.02-3.67,3.62-6.44,3.85c-2.02,0.17-3.5-0.83-4.67-2.35c-1.11-1.44-0.69-2.84,0.15-4.26
	c0.44-0.75,0.73-1.6,0.98-2.44c0.22-0.7-0.11-1.3-0.74-1.63c-0.65-0.33-1.1,0.1-1.51,0.56c-1.12,1.24-1.59,2.68-1.63,4.35
	c-0.02,0.84-0.17,1.83-0.65,2.47c-0.87,1.17-1.97,2.18-3.06,3.16c-1.37,1.23-3.03,1.75-4.88,1.67c-2.46-0.1-4.81-0.72-6.8-2.15
	c-2.09-1.5-4.01-3.24-5.97-4.91c-0.69-0.59-1.42-1.39-2.29-0.87c-1.29,0.77-2.49,1.76-3.59,2.8c-0.97,0.92-1.67,2.13-2.65,3.04
	c-1.19,1.1-2.44,2.18-4.16,2.76c-1.18-1.65-2.47-3.19-3.46-4.91c-1.02-1.76-2.3-3.25-3.79-4.57c-1.35-1.2-2.44-1.14-3.68,0.17
	c-0.71,0.76-1.12,1.83-1.89,2.5c-1.04,0.91-1.58,2.01-1.9,3.29c-0.19,0.76-0.51,1.4-1.39,1.76c-0.23-0.64-0.43-1.18-0.63-1.73
	c-0.84-2.31-1.64-4.64-2.52-6.94c-0.51-1.32-1.1-1.42-2.01-0.61c0.4,0.8,0.94,1.53,1.12,2.34c0.2,0.95,0.46,1.8,1.08,2.55
	c0.25,0.3,0.46,0.71,0.53,1.1c0.47,2.59,1.78,4.91,2.34,7.47c0.05,0.23,0.37,0.57,0.56,0.56c0.29,0,0.74-0.2,0.83-0.43
	c0.23-0.59,0.3-1.25,0.45-1.88c0.72-3.11,1.58-6.14,4.03-8.45c1.22-1.14,1.67-1.24,2.91-0.1c0.3,0.28,0.57,0.6,0.82,0.93
	c1.27,1.69,2.53,3.39,3.79,5.08c0.67,0.9,1.31,1.81,2.01,2.68c0.92,1.13,1.48,1.14,2.59,0.2c0.36-0.3,0.78-0.52,1.14-0.82
	c1.54-1.25,3.36-2.21,4.08-4.26c0.1-0.28,0.46-0.59,0.75-0.66c0.89-0.2,1.37-0.84,1.89-1.49c0.32-0.4,0.74-0.71,1.19-1.13
	c1.05,0.86,2.06,1.57,2.94,2.41c2.28,2.2,4.9,3.8,7.86,4.93c2.88,1.09,5.68,0.69,8.47-0.15c0.79-0.24,1.47-0.9,2.12-1.46
	c1.06-0.9,1.95-1.99,3.49-2.8c0.1,0.26,0.14,0.52,0.28,0.7c2.26,2.87,5.53,3.65,8.76,2.06c2.3-1.13,4.38-2.51,5.52-4.96
	C72.8,17.52,73.29,17.14,73.73,16.63z"/>
<path d="M73.73,16.63c-0.44,0.51-0.94,0.89-1.17,1.39c-1.14,2.45-3.22,3.83-5.52,4.96c-3.23,1.59-6.49,0.81-8.76-2.06
	c-0.14-0.18-0.18-0.44-0.28-0.7c-1.54,0.8-2.43,1.9-3.49,2.8c-0.66,0.56-1.34,1.22-2.12,1.46c-2.79,0.83-5.59,1.24-8.47,0.15
	c-2.96-1.13-5.58-2.73-7.86-4.93c-0.88-0.84-1.88-1.55-2.94-2.41c-0.45,0.42-0.87,0.73-1.19,1.13c-0.52,0.65-0.99,1.29-1.89,1.49
	c-0.29,0.07-0.65,0.38-0.75,0.66c-0.72,2.05-2.54,3.02-4.08,4.26c-0.36,0.29-0.79,0.52-1.14,0.82c-1.11,0.94-1.66,0.93-2.59-0.2
	c-0.71-0.86-1.35-1.78-2.01-2.68c-1.26-1.69-2.52-3.39-3.79-5.08c-0.25-0.33-0.51-0.65-0.82-0.93c-1.24-1.14-1.69-1.04-2.91,0.1
	c-2.45,2.31-3.31,5.33-4.03,8.45c-0.14,0.63-0.21,1.29-0.45,1.88c-0.09,0.23-0.54,0.42-0.83,0.43c-0.19,0-0.51-0.33-0.56-0.56
	c-0.55-2.56-1.86-4.88-2.34-7.47c-0.07-0.39-0.27-0.8-0.53-1.1c-0.63-0.75-0.88-1.6-1.08-2.55c-0.17-0.81-0.72-1.53-1.12-2.34
	c0.92-0.8,1.51-0.7,2.01,0.61c0.89,2.3,1.69,4.62,2.52,6.94c0.2,0.55,0.4,1.09,0.63,1.73c0.88-0.36,1.2-1,1.39-1.76
	c0.32-1.28,0.86-2.37,1.9-3.29c0.77-0.67,1.18-1.74,1.89-2.5c1.24-1.31,2.33-1.37,3.68-0.17c1.49,1.32,2.77,2.81,3.79,4.57
	c1,1.71,2.28,3.26,3.46,4.91c1.72-0.58,2.98-1.65,4.16-2.76c0.98-0.91,1.68-2.12,2.65-3.04c1.1-1.04,2.29-2.02,3.59-2.8
	c0.87-0.52,1.61,0.29,2.29,0.87c1.96,1.67,3.88,3.41,5.97,4.91c1.99,1.43,4.33,2.05,6.8,2.15c1.85,0.08,3.51-0.44,4.88-1.67
	c1.09-0.98,2.19-1.99,3.06-3.16c0.47-0.64,0.62-1.63,0.65-2.47c0.05-1.67,0.51-3.11,1.63-4.35c0.42-0.46,0.87-0.89,1.51-0.56
	c0.64,0.32,0.96,0.92,0.74,1.63c-0.26,0.84-0.54,1.69-0.98,2.44c-0.84,1.42-1.26,2.83-0.15,4.26c1.17,1.51,2.65,2.51,4.67,2.35
	c2.77-0.23,4.74-1.83,6.44-3.85c1.16-1.38,2.27-2.81,3.43-4.26c0.84,0.23,1.34,0.74,1.73,1.44c0.4,0.72,0.82,1.43,1.3,2.1
	c0.65,0.9,0.94,0.95,1.88,0.27c0.52-0.38,0.98-0.84,1.43-1.31c0.89-0.93,1.76-1.89,2.62-2.85c0.48-0.54,0.99-0.58,1.56-0.19
	c0.34,0.23,0.67,0.48,0.99,0.74c2.19,1.76,4.5,3.33,7.09,4.43c0.77,0.33,1.62,0.46,2.73,0.77c-0.53,0.23-0.93,0.56-1.27,0.51
	c-0.92-0.12-1.91-0.23-2.71-0.65c-2.23-1.18-4.38-2.52-6.55-3.8c-0.4-0.23-0.78-0.5-1.29-0.82c-1.62,1.94-3.22,3.85-4.86,5.81
	C75.98,20.21,75.81,17.55,73.73,16.63z"/>
<path d="M113.02,1.81c0.69,0.01,0.88,0.58,0.88,1.11c0,0.63-0.08,1.3-0.28,1.89c-0.35,1.05-0.32,2.06-0.03,3.11
	c0.55,2,1.28,3.87,2.66,5.48c1.6,1.87,3.7,3.08,6.53,2.05c2.79-1.01,5.33-2.29,7.58-4.32c1.57-1.41,3.07-2.85,4.44-4.45
	c0.83-0.96,1.59-0.96,2.47-0.08c1.76,1.78,3.28,3.75,4.72,5.79c0.57,0.8,1.35,1.44,1.97,2.21c0.44,0.54,0.75,1.19,1.15,1.76
	c0.26,0.36,0.54,0.72,0.9,0.98c0.94,0.69,0.94,0.83-0.25,1.75c-2.52-2.45-4.82-5.09-6.77-8.03c-0.45-0.68-0.95-1.35-1.49-1.96
	c-0.5-0.55-1.09-1.02-1.55-1.44c-1.13,1.09-2.16,2.11-3.22,3.1c-0.91,0.86-1.83,1.72-2.78,2.52c-0.44,0.37-1,0.61-1.49,0.92
	c-0.99,0.61-1.95,1.29-2.97,1.82c-1.62,0.85-3.5,1.67-5.19,1.24c-2.77-0.7-5.28-2.13-6.48-5.06c-0.31-0.76-0.73-1.48-1.18-2.16
	c-0.18-0.28-0.6-0.39-0.79-0.51c-1.19,1.81-2.21,3.51-3.38,5.1c-1.06,1.44-2.41,2.46-4.38,1.66l0.04,0.01
	c1.55-0.67,2.6-1.81,3.66-3.14c1.34-1.68,2.54-3.36,3.16-5.39c0.37-1.22,0.55-2.49,0.78-3.75c0.07-0.4-0.04-0.83,0.03-1.22
	C111.89,2.15,112.36,1.8,113.02,1.81"/>
<path d="M104.08,16.31c0.19,0.23,0.38,0.44,0.55,0.68c0.06,0.09,0.07,0.22,0.13,0.43c-0.7,0.43-1.43,0.87-2.14,1.33
	c-0.7,0.45-1.56,0.45-2.24,0.73c-1.23,0.5-2.37,1.22-3.72,1.43c-0.37,0.06-0.75,0.04-1.23,0.06c0.14-0.98,0.68-1.31,1.4-1.53
	c1.51-0.46,3.03-0.89,4.48-1.49c1-0.41,1.89-1.07,2.82-1.62C104.12,16.33,104.08,16.31,104.08,16.31z"/>
</svg>
