<?xml version="1.0" encoding="utf-8"?>
<!-- Generator: Adobe Illustrator 24.0.0, SVG Export Plug-In . SVG Version: 6.00 Build 0)  -->
<svg version="1.1" id="Layer_1" xmlns="http://www.w3.org/2000/svg" xmlns:xlink="http://www.w3.org/1999/xlink" x="0px" y="0px"
	 viewBox="0 0 74.26 31.43" style="enable-background:new 0 0 74.26 31.43;" xml:space="preserve">
<style type="text/css">
	.st0{fill:#FFFFFF;}
</style>
<path class="st0" d="M94.54,12.55"/>
<path d="M94.54,12.55"/>
<path class="st0" d="M47.1,10.31c0.87,0.22,0.93,0.92,1.15,1.52c0.46,1.26,1.57,1.47,2.33,0.37c0.45-0.65,0.98-1.07,1.7-1.07
	c0.63,0,1.25,0.39,1.88,0.4c1.45,0.02,2.18,0.87,2.74,2.03c0.45,0.93,0.94,1.85,1.33,2.81c0.51,1.26,0.47,1.26-0.52,2.17
	c-1.67,1.53-3.34,3.05-4.99,4.59c-0.85,0.8-1.38,1.79-1.58,2.94c-0.32,1.77,0.56,3.25,2.37,4.03c1.76,0.76,3.25,0.38,4.34-1.15
	c0.33-0.46,0.6-0.96,0.84-1.47c1.2-2.56,1.69-5.29,1.75-8.09c0.02-0.94,0.34-1.61,0.9-2.27c0.73-0.86,1.54-1.68,2.1-2.64
	c0.42-0.72,0.88-0.95,1.65-1.02c0.93-0.08,1.96-0.14,2.72-0.59c0.71-0.43,1.43-0.63,2.18-0.89c0.98-0.33,1.96-0.69,2.85-1.2
	c0.79-0.44,0.7-1.08-0.09-1.49c-0.29-0.15-0.62-0.22-0.94-0.3c-1.1-0.29-2.17-0.63-3.04-1.43c-0.32-0.29-0.74-0.53-1.08-0.03
	c-0.35,0.51,0.08,0.78,0.42,1.02c0.77,0.54,1.57,1.05,2.5,1.66c-0.67,0.2-1.21,0.35-1.74,0.52c-1.25,0.41-2.24,0.03-2.92-1.05
	C65.52,9,65.17,8.22,64.8,7.47c-0.3-0.61-0.78-0.78-1.54-0.56c-0.55,0.16-0.52,0.52-0.49,0.99c0.05,0.89-0.03,1.78-0.02,2.67
	c0.01,0.73-0.22,1.28-0.91,1.6c-0.15,0.07-0.23,0.27-0.37,0.45c0.22,0.38,0.42,0.72,0.68,1.16c-0.69,0.79-1.37,1.57-2.13,2.45
	c-0.41-0.9-0.7-1.6-1.03-2.27c-0.35-0.72-0.76-1.41-1.12-2.13c-0.27-0.54-0.57-1.08-0.23-1.73c0.26-0.5-0.03-0.9-0.36-1.26
	c-1.21-1.32-2.93-1.58-4.45-0.39c-0.91,0.71-1.87,1.17-2.73,1.46C49,9.2,48.07,8.5,47.05,7.96c-0.39-0.2-0.99-0.09-1.47-0.01
	c-0.46,0.08-0.89,0.32-1.47,0.54c0.09,0.76,0.2,1.59,0.28,2.42c0.06,0.61,0.43,0.89,1,1.02c0.66,0.14,1.11-0.14,1.41-0.68
	C46.95,10.99,47,10.66,47.1,10.31z"/>
<path class="st0" d="M4.23,12.96c1.13-0.24,2.09-0.44,3.05-0.66c1.09-0.24,1.85-0.89,2.28-1.91c0.32-0.78,0.15-1.6-0.58-1.97
	C7.17,7.5,5.26,6.77,3.17,6.98C1.6,7.14,0.68,8.37,0.84,9.96c0.07,0.66-0.12,1.22-0.27,1.83c-0.11,0.45,0.67,1.11,1.05,1.67
	c0.05,0.08,0.07,0.18,0.08,0.27c0.54,2.57,1.1,5.14,1.62,7.72c0.19,0.97,0.28,1.95,0.43,2.93c0.11,0.66,0.57,0.98,1.19,0.99
	c0.64,0.01,0.82-0.46,0.93-1.03c0.23-1.29,0.15-2.54-0.34-3.74C4.54,18.21,4.68,15.64,4.23,12.96z"/>
<path class="st0" d="M39.95,9.17c0.13,0.21,0.27,0.36,0.32,0.53c0.18,0.63,0.31,1.28,0.51,1.9c0.23,0.68,0.75,0.9,1.48,0.7
	c0.56-0.16,0.76-0.66,0.53-1.38c-0.16-0.49-0.4-0.96-0.49-1.46c-0.11-0.6-0.39-0.91-0.99-1.01c-1.1-0.18-2.19-0.38-3.39-0.59
	c-0.04-0.2-0.1-0.52-0.19-0.83c-0.49-1.72-0.94-3.45-1.5-5.14c-0.32-0.97-1.07-1.23-1.89-0.8c-0.55,0.29-0.46,0.54-0.05,1.58
	c0.57,1.43,1.02,2.92,1.48,4.4c0.1,0.33,0.05,0.7,0.07,1.01c-1.03,0.53-2.21-0.3-3.12,0.68c0.7,1.69,2.22,0.94,3.34,1.13
	c0.17,0.87,0.28,1.72,0.52,2.52c0.26,0.85,0.92,1.09,1.65,0.74c0.6-0.3,0.71-0.76,0.2-1.53c-0.4-0.6-0.47-1.19-0.41-1.93
	C38.69,9.5,39.31,9.34,39.95,9.17z"/>
<path class="st0" d="M26.89,9.73c-0.41-0.21-0.72-0.44-1.07-0.54c-0.73-0.21-1.18,0.25-0.99,1c0.1,0.41,0.3,0.79,0.37,1.2
	c0.1,0.56,0.3,1,0.89,1.13c0.64,0.13,1.2,0.02,1.61-0.57c0.32-0.45,0.69-0.86,1.18-1.46c0.56,0.68,1.05,1.22,1.47,1.81
	c0.37,0.52,0.82,0.75,1.44,0.64c0.6-0.11,0.87-0.49,0.88-1.17c-0.85-0.72-1.69-1.54-2.64-2.21C28.56,8.52,28.39,8.57,26.89,9.73z"/>
<path class="st0" d="M19.15,11.81c-0.02-0.37-0.02-0.6-0.04-0.82c-0.08-0.78-0.74-1.33-1.43-0.99c-0.55,0.27-0.94,0.16-1.44,0.04
	c-0.4-0.1-0.85-0.07-1.26-0.01c-0.71,0.09-1.18,0.66-1.36,1.44c-0.18,0.78,0.31,1.18,0.88,1.41c0.5,0.2,1.11,0.35,1.62,0.25
	c0.91-0.17,1.72-0.27,2.59,0.22c0.67,0.38,1.39,0.08,1.99-0.31c0.19-0.12,0.38-0.49,0.33-0.68c-0.05-0.2-0.37-0.41-0.61-0.47
	C20.06,11.8,19.68,11.84,19.15,11.81z"/>
<path class="st0" d="M24.71,12.38c-0.22-0.4-0.36-0.64-0.47-0.89c-0.29-0.69-0.53-1.4-0.85-2.08c-0.25-0.53-1.2-0.88-1.7-0.67
	c-0.5,0.2-0.57,0.63-0.21,1.46c0.27,0.65,0.55,1.3,0.87,1.93c0.3,0.59,0.81,0.95,1.49,0.83C24.14,12.89,24.39,12.59,24.71,12.38z"/>
<path class="st0" d="M23.98,6.26c-0.14-0.78-0.68-1-1.22-1.1c-0.68-0.12-1.39-0.24-2.06-0.13c-0.46,0.08-0.33,0.57-0.07,0.9
	C21.36,6.85,22.49,6.98,23.98,6.26z"/>
<path d="M47.1,10.31c-0.11,0.35-0.15,0.68-0.3,0.94c-0.3,0.54-0.75,0.82-1.41,0.68c-0.57-0.12-0.94-0.4-1-1.02
	c-0.09-0.83-0.19-1.66-0.28-2.42c0.58-0.22,1.01-0.46,1.47-0.54c0.48-0.09,1.08-0.2,1.47,0.01C48.07,8.5,49,9.2,50.08,9.91
	c0.86-0.29,1.82-0.75,2.73-1.46c1.51-1.19,3.24-0.93,4.45,0.39c0.33,0.37,0.63,0.76,0.36,1.26c-0.34,0.65-0.05,1.19,0.23,1.73
	c0.36,0.72,0.76,1.41,1.12,2.13c0.33,0.67,0.62,1.37,1.03,2.27c0.76-0.87,1.44-1.66,2.13-2.45c-0.26-0.44-0.46-0.78-0.68-1.16
	c0.14-0.18,0.23-0.38,0.37-0.45c0.69-0.33,0.92-0.88,0.91-1.6c-0.01-0.89,0.07-1.78,0.02-2.67c-0.02-0.47-0.05-0.83,0.49-0.99
	c0.76-0.22,1.24-0.05,1.54,0.56C65.17,8.22,65.52,9,65.96,9.7c0.68,1.08,1.67,1.46,2.92,1.05c0.53-0.17,1.06-0.32,1.74-0.52
	c-0.93-0.61-1.73-1.12-2.5-1.66c-0.34-0.23-0.78-0.5-0.42-1.02c0.35-0.51,0.76-0.27,1.08,0.03c0.87,0.8,1.94,1.14,3.04,1.43
	c0.32,0.08,0.65,0.15,0.94,0.3c0.8,0.4,0.88,1.04,0.09,1.49c-0.89,0.5-1.88,0.87-2.85,1.2c-0.75,0.25-1.47,0.46-2.18,0.89
	c-0.76,0.45-1.79,0.51-2.72,0.59c-0.77,0.07-1.23,0.3-1.65,1.02c-0.56,0.96-1.38,1.78-2.1,2.64c-0.56,0.66-0.88,1.33-0.9,2.27
	c-0.06,2.79-0.55,5.53-1.75,8.09c-0.24,0.51-0.51,1.01-0.84,1.47c-1.09,1.53-2.58,1.91-4.34,1.15c-1.81-0.78-2.69-2.26-2.37-4.03
	c0.21-1.15,0.73-2.14,1.58-2.94c1.65-1.54,3.32-3.07,4.99-4.59c0.99-0.91,1.03-0.92,0.52-2.17c-0.39-0.96-0.88-1.87-1.33-2.81
	c-0.55-1.16-1.29-2.02-2.74-2.03c-0.63-0.01-1.26-0.4-1.88-0.4c-0.72,0-1.25,0.42-1.7,1.07c-0.76,1.1-1.87,0.89-2.33-0.37
	C48.03,11.23,47.98,10.54,47.1,10.31z M58.71,20.09c-0.1-0.06-0.2-0.11-0.3-0.17c-1.32,1.26-2.66,2.5-3.94,3.79
	c-0.42,0.43-0.81,0.94-1.04,1.49c-0.24,0.59-0.37,1.26-0.37,1.9c0,0.93,0.64,1.6,1.49,1.82c0.82,0.21,1.49-0.06,2.02-0.93
	C58.05,25.57,58.49,22.86,58.71,20.09z M64.89,10.92c-0.22-0.13-0.36-0.22-0.51-0.31c-0.03,0.13-0.11,0.27-0.08,0.37
	c0.03,0.1,0.18,0.2,0.28,0.21C64.66,11.21,64.75,11.06,64.89,10.92z"/>
<path d="M4.23,12.96c0.44,2.68,0.31,5.25,1.29,7.66c0.49,1.2,0.57,2.46,0.34,3.74c-0.1,0.57-0.29,1.04-0.93,1.03
	c-0.61-0.01-1.08-0.34-1.19-0.99c-0.16-0.97-0.24-1.96-0.43-2.93c-0.52-2.58-1.07-5.15-1.62-7.72c-0.02-0.09-0.03-0.19-0.08-0.27
	c-0.38-0.57-1.16-1.22-1.05-1.67c0.14-0.61,0.33-1.17,0.27-1.83C0.68,8.37,1.6,7.14,3.17,6.98c2.09-0.21,4,0.52,5.81,1.44
	c0.73,0.37,0.9,1.19,0.58,1.97c-0.42,1.02-1.19,1.67-2.28,1.91C6.33,12.51,5.37,12.71,4.23,12.96z M4.36,11.54
	c0.49-0.09,1.25-0.16,1.95-0.39c0.47-0.16,0.92-0.48,1.28-0.84c0.58-0.57,0.44-1.14-0.35-1.38c-0.94-0.28-1.92-0.5-2.89-0.6
	C3.28,8.23,2.77,8.75,2.6,9.7C3.16,10.3,3.69,10.84,4.36,11.54z"/>
<path d="M39.95,9.17c-0.64,0.17-1.26,0.33-1.92,0.5c-0.05,0.74,0.02,1.33,0.41,1.93c0.51,0.77,0.4,1.23-0.2,1.53
	c-0.73,0.36-1.39,0.11-1.65-0.74c-0.25-0.8-0.35-1.64-0.52-2.52c-1.12-0.19-2.64,0.55-3.34-1.13c0.91-0.98,2.08-0.16,3.12-0.68
	c-0.02-0.31,0.03-0.68-0.07-1.01c-0.46-1.48-0.91-2.96-1.48-4.4c-0.42-1.04-0.5-1.29,0.05-1.58c0.81-0.43,1.56-0.18,1.89,0.8
	c0.56,1.7,1.01,3.43,1.5,5.14c0.09,0.31,0.14,0.63,0.19,0.83c1.2,0.21,2.29,0.42,3.39,0.59c0.6,0.1,0.88,0.41,0.99,1.01
	c0.09,0.5,0.33,0.97,0.49,1.46c0.23,0.72,0.03,1.22-0.53,1.38c-0.73,0.21-1.25-0.01-1.48-0.7c-0.21-0.62-0.33-1.27-0.51-1.9
	C40.22,9.53,40.08,9.38,39.95,9.17z"/>
<path d="M26.89,9.73c1.5-1.16,1.67-1.21,3.14-0.18c0.95,0.67,1.79,1.49,2.64,2.21c-0.01,0.68-0.29,1.07-0.88,1.17
	c-0.62,0.11-1.07-0.13-1.44-0.64c-0.42-0.59-0.91-1.13-1.47-1.81c-0.49,0.6-0.86,1.01-1.18,1.46c-0.41,0.59-0.98,0.7-1.61,0.57
	c-0.59-0.12-0.79-0.57-0.89-1.13c-0.07-0.41-0.27-0.8-0.37-1.2c-0.19-0.75,0.26-1.21,0.99-1C26.16,9.3,26.48,9.52,26.89,9.73z"/>
<path d="M19.15,11.81c0.53,0.02,0.91-0.02,1.26,0.07c0.24,0.06,0.56,0.27,0.61,0.47c0.05,0.19-0.14,0.55-0.33,0.68
	c-0.6,0.39-1.32,0.7-1.99,0.31c-0.86-0.49-1.68-0.39-2.59-0.22c-0.51,0.09-1.12-0.05-1.62-0.25c-0.57-0.23-1.06-0.63-0.88-1.41
	c0.18-0.78,0.66-1.35,1.36-1.44c0.42-0.05,0.87-0.09,1.26,0.01c0.5,0.12,0.9,0.23,1.44-0.04c0.69-0.34,1.36,0.21,1.43,0.99
	C19.13,11.21,19.14,11.44,19.15,11.81z"/>
<path d="M24.71,12.38c-0.31,0.21-0.57,0.51-0.87,0.57c-0.68,0.13-1.19-0.23-1.49-0.83c-0.32-0.63-0.59-1.28-0.87-1.93
	c-0.35-0.83-0.28-1.26,0.21-1.46c0.49-0.2,1.45,0.14,1.7,0.67c0.32,0.68,0.56,1.39,0.85,2.08C24.34,11.74,24.49,11.98,24.71,12.38z"
	/>
<path d="M23.98,6.26c-1.49,0.71-2.62,0.59-3.35-0.33c-0.27-0.33-0.39-0.83,0.07-0.9c0.66-0.11,1.38,0.01,2.06,0.13
	C23.3,5.26,23.83,5.49,23.98,6.26z"/>
<path class="st0" d="M58.71,20.09c-0.21,2.77-0.66,5.48-2.14,7.91c-0.53,0.87-1.2,1.14-2.02,0.93c-0.86-0.22-1.49-0.9-1.49-1.82
	c0-0.64,0.12-1.31,0.37-1.9c0.22-0.55,0.61-1.07,1.04-1.49c1.29-1.29,2.63-2.53,3.94-3.79C58.5,19.98,58.61,20.04,58.71,20.09z"/>
<path class="st0" d="M64.89,10.92c-0.15,0.14-0.24,0.29-0.3,0.28c-0.11-0.01-0.25-0.12-0.28-0.21c-0.03-0.11,0.05-0.25,0.08-0.37
	C64.53,10.7,64.68,10.79,64.89,10.92z"/>
<path class="st0" d="M4.36,11.54C3.69,10.84,3.16,10.3,2.6,9.7c0.17-0.96,0.68-1.47,1.74-1.37c0.98,0.09,1.95,0.32,2.89,0.6
	c0.8,0.23,0.93,0.8,0.35,1.38c-0.36,0.35-0.81,0.68-1.28,0.84C5.6,11.38,4.85,11.45,4.36,11.54z"/>
</svg>
