<?xml version="1.0" encoding="utf-8"?>
<!-- Generator: Adobe Illustrator 24.2.3, SVG Export Plug-In . SVG Version: 6.00 Build 0)  -->
<svg version="1.1" id="Layer_1" xmlns="http://www.w3.org/2000/svg" xmlns:xlink="http://www.w3.org/1999/xlink" x="0px" y="0px"
	 viewBox="0 0 105 98" style="enable-background:new 0 0 105 98;" xml:space="preserve">
<style type="text/css">
	.st0{fill:#0D0C0B;}
</style>
<g>
	<path d="M737.2,380.4c-8.6-8.6-22.6-8.6-31.2,0c-21.1,21.1-15.3,15.3-34.8,34.8c-8.6,8.6-8.6,22.6,0,31.2c8.6,8.6,22.6,8.6,31.2,0
		c19.5-19.5,20.1-20.1,34.8-34.8C745.9,403,745.9,389,737.2,380.4z M716.5,425.8c-0.1,0.1-2.5,2.5-17.3,17.3
		c-6.8,6.8-17.9,6.8-24.7,0c-6.8-6.8-6.8-17.9,0-24.7l8.1-8.1c-0.4,3-0.1,6,0.7,8.8l-4.5,4.5c-2,2-3.2,4.7-3.2,7.6
		c0,9.5,11.6,14.4,18.4,7.6c0.8-0.8,16.9-16.9,17.6-17.6c6.1-6.1,2.8-16.7-5.8-18.2c4.4-4.4,3.9-3.9,5.3-5.3
		C721.6,402.5,725.3,416.4,716.5,425.8L716.5,425.8z M685.2,423.7c1.9,3.5,5,6.7,8.7,8.7l-3.2,3.2c-2.4,2.4-6.3,2.4-8.7,0
		c-2.4-2.4-2.4-6.3,0-8.7L685.2,423.7z M699.7,418c-2.4-2.4-2.4-6.3,0-8.7c2.4-2.4,6.3-2.4,8.7,0c2.4,2.4,2.4,6.3,0,8.7
		C706,420.4,702.1,420.3,699.7,418L699.7,418z M714.6,394.3l2.7-2.7c2.4-2.4,6.3-2.4,8.7,0c2.4,2.4,2.4,6.3,0,8.7l-2.7,2.7
		C721.4,399.5,718.4,396.4,714.6,394.3L714.6,394.3z M725.9,416.4c0.4-2.9,0.1-5.9-0.7-8.8l4-4c4.2-4.2,4.2-11,0-15.3
		c-4.2-4.2-11-4.2-15.3,0L696.4,406c-6.1,6.1-2.8,16.7,5.8,18.2l-4.8,4.8c-10.2-4.6-14.3-18.3-5.4-28c0.2-0.2,0.2-0.2,17.3-17.3
		c6.8-6.8,17.9-6.8,24.7,0c6.8,6.8,6.8,17.9,0,24.7L725.9,416.4z"/>
	<path d="M667.5,403.1l4.5-0.4c1.3-0.1,2.2-1.2,2.1-2.5s-1.2-2.2-2.5-2.1l-4.5,0.4c-1.3,0.1-2.2,1.2-2.1,2.5
		C665.1,402.3,666.2,403.2,667.5,403.1z"/>
	<path d="M691.2,383.3c1.2,0,2.2-0.9,2.3-2.1l0.4-4.5c0.1-1.3-0.8-2.4-2.1-2.5c-1.3-0.1-2.4,0.8-2.5,2.1l-0.4,4.5
		C688.8,382.1,689.9,383.3,691.2,383.3L691.2,383.3z"/>
	<path d="M676.2,388.2c0.9,0.9,2.4,0.9,3.3,0s0.9-2.4,0-3.3l-2.9-2.9c-0.9-0.9-2.4-0.9-3.3,0s-0.9,2.4,0,3.3L676.2,388.2z"/>
	<path d="M741,423.7l-4.5,0.4c-1.3,0.1-2.2,1.2-2.1,2.5c0.1,1.2,1.1,2.1,2.3,2.1c0.1,0,0.1,0,0.2,0l4.5-0.4c1.3-0.1,2.2-1.2,2.1-2.5
		C743.4,424.5,742.3,423.5,741,423.7z"/>
	<path d="M717.5,443.5c-1.3-0.1-2.4,0.8-2.5,2.1l-0.4,4.5c-0.1,1.4,0.9,2.5,2.3,2.5c1.2,0,2.2-0.9,2.3-2.1l0.4-4.5
		C719.7,444.8,718.7,443.6,717.5,443.5z"/>
	<path d="M732.3,438.6c-0.9-0.9-2.4-0.9-3.3,0c-0.9,0.9-0.9,2.4,0,3.3l2.9,2.9c0.5,0.5,1,0.7,1.6,0.7c2,0,3.1-2.5,1.6-3.9
		L732.3,438.6z"/>
</g>
<g>
	<path class="st0" d="M822.6,378.6c11.3,0,12.7,0,17.1,0.2c4.1,0.2,6.4,0.9,7.9,1.5c2,0.8,3.4,1.7,4.9,3.2s2.4,2.9,3.2,4.9
		c0.6,1.5,1.3,3.7,1.5,7.9c0.2,4.5,0.2,5.8,0.2,17.1c0,11.3,0,12.7-0.2,17.1c-0.2,4.1-0.9,6.4-1.5,7.9c-0.8,2-1.7,3.4-3.2,4.9
		s-2.9,2.4-4.9,3.2c-1.5,0.6-3.7,1.3-7.9,1.5c-4.5,0.2-5.8,0.2-17.1,0.2s-12.7,0-17.1-0.2c-4.1-0.2-6.4-0.9-7.9-1.5
		c-2-0.8-3.4-1.7-4.9-3.2s-2.4-2.9-3.2-4.9c-0.6-1.5-1.3-3.7-1.5-7.9c-0.2-4.5-0.2-5.8-0.2-17.1c0-11.3,0-12.7,0.2-17.1
		c0.2-4.1,0.9-6.4,1.5-7.9c0.8-2,1.7-3.4,3.2-4.9s2.9-2.4,4.9-3.2c1.5-0.6,3.7-1.3,7.9-1.5C810,378.7,811.3,378.6,822.6,378.6
		 M822.6,371c-11.5,0-13,0-17.5,0.3c-4.5,0.2-7.6,0.9-10.3,2c-2.8,1.1-5.2,2.5-7.5,4.9c-2.4,2.4-3.8,4.7-4.9,7.5
		c-1,2.7-1.8,5.8-2,10.3c-0.2,4.5-0.3,6-0.3,17.5c0,11.5,0,13,0.3,17.5c0.2,4.5,0.9,7.6,2,10.3c1.1,2.8,2.5,5.2,4.9,7.5
		c2.4,2.4,4.7,3.8,7.5,4.9c2.7,1,5.8,1.8,10.3,2c4.5,0.2,6,0.3,17.5,0.3s13,0,17.5-0.3c4.5-0.2,7.6-0.9,10.3-2
		c2.8-1.1,5.2-2.5,7.5-4.9c2.4-2.4,3.8-4.7,4.9-7.5c1-2.7,1.8-5.8,2-10.3c0.2-4.5,0.3-6,0.3-17.5c0-11.5,0-13-0.3-17.5
		c-0.2-4.5-0.9-7.6-2-10.3c-1.1-2.8-2.5-5.2-4.9-7.5c-2.4-2.4-4.7-3.8-7.5-4.9c-2.7-1-5.8-1.8-10.3-2C835.6,371,834.1,371,822.6,371
		z M822.6,391.6c-12,0-21.8,9.7-21.8,21.8c0,12,9.7,21.8,21.8,21.8c12,0,21.8-9.7,21.8-21.8C844.4,401.4,834.6,391.6,822.6,391.6z
		 M822.6,427.5c-7.8,0-14.1-6.3-14.1-14.1c0-7.8,6.3-14.1,14.1-14.1s14.1,6.3,14.1,14.1C836.8,421.2,830.4,427.5,822.6,427.5z
		 M850.3,390.7c0,2.8-2.3,5.1-5.1,5.1s-5.1-2.3-5.1-5.1s2.3-5.1,5.1-5.1S850.3,387.9,850.3,390.7z"/>
</g>
<g>
	<g>
		<path d="M1044.5,236h-68.7c-4,0-7.3,3.3-7.3,7.3v42.4c0,4,3.3,7.3,7.3,7.3h68.7c4,0,7.3-3.3,7.3-7.3v-42.4
			C1051.8,239.2,1048.5,236,1044.5,236z M1043.5,240.8l-1,0.8l-29.5,24.6c-1.7,1.4-4.1,1.4-5.8,0l-29.5-24.6l-1-0.8H1043.5z
			 M973.4,244.4l24,20l-24,16V244.4z M1044.5,288.2h-68.7c-1.2,0-2.2-0.8-2.4-2l27.9-18.6l2.8,2.3c1.7,1.5,3.9,2.2,6,2.2
			c2.1,0,4.3-0.7,6-2.2l2.8-2.3l27.9,18.6C1046.7,287.3,1045.7,288.2,1044.5,288.2z M1046.9,280.4l-24-16l24-20V280.4z"/>
	</g>
</g>
<g>
	<g>
		<g>
			<path d="M53,15.9c0.1,0,0.1,0,0.2,0c7.9,0,15.3,3.1,20.8,8.6c5.6,5.6,8.7,13.1,8.6,21c0,1.8,1.4,3.2,3.2,3.3c0,0,0,0,0,0
				c1.8,0,3.2-1.4,3.2-3.2c0-9.7-3.7-18.8-10.5-25.6C71.8,13.1,62.8,9.4,53.1,9.4c-0.1,0-0.1,0-0.2,0c-1.8,0-3.2,1.5-3.2,3.3
				C49.7,14.5,51.2,15.9,53,15.9z"/>
			<path d="M92.5,72.8c-0.1-3.2-1.5-6.2-3.8-8.4c-4.5-4.4-8.3-6.9-11.9-7.9c-5-1.4-9.6-0.1-13.7,3.9c0,0,0,0,0,0l-4.4,4.4
				c-2.7-1.5-8-4.9-13.8-10.7l-0.4-0.4c-5.8-5.8-9.1-11.1-10.7-13.8l4.3-4.4c0,0,0,0,0,0c4-4.1,5.3-8.7,3.9-13.7
				c-1-3.6-3.6-7.4-7.9-11.9c-2.2-2.3-5.2-3.6-8.4-3.8c-3.2-0.1-6.3,1-8.7,3.1l-0.1,0.1c0,0-0.1,0.1-0.1,0.1
				C12,14.1,9.5,20.8,9.6,28.6c0.1,13.3,7.4,28.5,19.6,40.7c0,0,0,0,0,0c2.3,2.3,4.9,4.6,7.7,6.7c1.4,1.1,3.5,0.8,4.5-0.6
				c1.1-1.4,0.8-3.5-0.6-4.5c-2.6-2-5-4.1-7.1-6.2c0,0,0,0,0,0c-11-11-17.6-24.5-17.7-36.2c0-6,1.8-11.1,5.3-14.6l0,0
				c2.4-2.1,5.9-2,8.1,0.3c8.4,8.7,7.8,12.8,4.1,16.6l-6,6.1c-0.9,0.9-1.2,2.4-0.7,3.6c0.2,0.3,3.8,8.5,13,17.7l0.4,0.4
				c9.2,9.2,17.3,12.9,17.7,13c1.2,0.5,2.7,0.3,3.6-0.7l6-6c3.8-3.7,7.9-4.3,16.6,4.1c2.3,2.2,2.4,5.8,0.3,8.1l0,0
				c-3.5,3.4-8.5,5.3-14.4,5.3c0,0-0.1,0-0.1,0c-4.8,0-10.3-1.3-16-3.8c-1.6-0.7-3.5,0-4.3,1.7c-0.7,1.6,0,3.5,1.7,4.3
				c6.6,2.8,12.8,4.3,18.5,4.3c0.1,0,0.1,0,0.2,0c7.8,0,14.4-2.5,19.1-7.2c0,0,0.1-0.1,0.1-0.1l0.1-0.1C91.5,79.1,92.6,76,92.5,72.8
				z"/>
			<path d="M69.4,29.1c-3.5-3.5-6.8-4.4-8.4-4.8c-1.7-0.5-3.5,0.5-4,2.3c-0.5,1.7,0.5,3.5,2.3,4c1.3,0.4,3.3,0.9,5.6,3.2
				c2.2,2.2,2.8,4.2,3.1,5.5l0,0.2c0.4,1.4,1.7,2.3,3.1,2.3c0.3,0,0.6,0,0.9-0.1c1.7-0.5,2.7-2.3,2.2-4l0-0.1
				C73.7,35.6,72.8,32.4,69.4,29.1z"/>
		</g>
	</g>
</g>
<g>
	<g>
		<path d="M618.3,534.1c-5.9-8.5-15.2-13.4-25.6-13.4s-19.7,4.9-25.6,13.4c-5.9,8.5-7.2,19.2-3.6,28.7c1,2.6,2.5,5.1,4.5,7.5
			l22.7,26.6c0.5,0.6,1.3,0.9,2.1,0.9s1.5-0.3,2.1-0.9l22.7-26.6c2-2.4,3.6-4.9,4.5-7.5C625.5,553.3,624.1,542.6,618.3,534.1z
			 M616.9,560.9c-0.7,2-1.9,3.9-3.6,5.8c0,0,0,0,0,0L592.7,591l-20.6-24.2c-1.6-1.9-2.8-3.8-3.6-5.8c-3-7.8-1.8-16.7,3-23.7
			c4.9-7,12.6-11.1,21.2-11.1c8.6,0,16.3,4,21.2,11.1C618.7,544.2,619.8,553.1,616.9,560.9z"/>
	</g>
</g>
<g>
	<g>
		<path d="M592.7,536.7c-8.3,0-15.1,6.8-15.1,15.1c0,8.3,6.8,15.1,15.1,15.1s15.1-6.8,15.1-15.1C607.8,543.5,601,536.7,592.7,536.7z
			 M592.7,561.5c-5.4,0-9.7-4.4-9.7-9.7s4.4-9.7,9.7-9.7s9.7,4.4,9.7,9.7S598,561.5,592.7,561.5z"/>
	</g>
</g>
</svg>
