<?xml version="1.0" encoding="utf-8"?>
<!-- Generator: Adobe Illustrator 24.0.0, SVG Export Plug-In . SVG Version: 6.00 Build 0)  -->
<svg version="1.1" id="Layer_1" xmlns="http://www.w3.org/2000/svg" xmlns:xlink="http://www.w3.org/1999/xlink" x="0px" y="0px"
	 viewBox="0 0 42.65 31.78" style="enable-background:new 0 0 42.65 31.78;" xml:space="preserve">
<style type="text/css">
	.st0{fill:#FFFFFF;}
</style>
<path class="st0" d="M95.4,14.39"/>
<path d="M95.4,14.39"/>
<path class="st0" d="M38.82,16.75c0.82-0.54,1.47-0.93,2.07-1.37c0.54-0.4,1.4-0.72,1.14-1.58c-0.24-0.79-1.09-0.83-1.79-0.85
	c-1.46-0.05-2.92-0.07-4.39-0.04c-1.41,0.03-2.83,0-4.19,0.53c-1.19,0.47-2.39,0.37-3.59,0c-0.49-0.15-1.02-0.21-1.53-0.2
	c-0.28,0.01-0.63,0.19-0.82,0.41c-0.47,0.54-0.78,1.26-1.32,1.71c-0.65,0.55-1.4,1.11-2.49,0.83c0-0.54,0.03-1.05-0.01-1.56
	c-0.03-0.46-0.06-0.95-0.22-1.38c-0.62-1.68-1.86-1.93-3.14-0.69c-0.34,0.33-0.57,0.84-1.19,0.91c-0.06-0.73-0.08-1.39-0.17-2.03
	c-0.24-1.83-0.4-3.6,0.51-5.37c0.53-1.03,0.36-2.24-0.45-3.19c-0.52-0.61-1.08-1.23-1.76-1.62c-0.46-0.27-1.14-0.16-1.73-0.22
	c-0.04,0.44-0.11,0.87-0.12,1.31c-0.01,0.23,0.07,0.47,0.12,0.69c0.34,1.37,0.65,2.75,1.04,4.1C15,7.8,14.91,8.34,14.36,8.77
	c-1.29,1-2.6,1.98-3.88,2.96c-2.1-2.31-6.53-1.78-8.36-0.66c-0.91,0.55-1.07,1.32-0.33,2.11c0.85,0.92,1.82,1.73,2.84,2.7
	c-0.3,0.21-0.57,0.39-0.84,0.57c-0.7,0.47-1.46,0.89-2.1,1.44c-1.03,0.88-0.92,2.09,0.23,2.8c0.55,0.34,1.17,0.65,1.8,0.75
	c1.93,0.32,3.86,0.11,5.74-0.4c0.45-0.12,0.91-0.29,1.3-0.53c1.15-0.71,1.22-1.61,0.23-2.51c-0.31-0.28-0.68-0.49-1.04-0.72
	c-0.78-0.49-1.56-0.98-2.36-1.48c2.49-1.94,4.88-3.8,7.5-5.83c0.11,1.17,0.16,2.05,0.27,2.92c0.2,1.54,0.49,3.06,0.64,4.6
	c0.14,1.45,0.57,1.72,2.14,1.09c0.07-1.98-0.45-4.25,1.84-5.59c0.52,1.07,0.52,1.07,0.23,3.07c-0.23,1.61,0.37,2.24,1.97,1.9
	c0.95-0.2,1.86-0.63,2.81-0.97c2.34,1.56,4.39,1.21,5.84-1.09c0.2,0.29,0.44,0.53,0.56,0.82c0.96,2.19,2.21,4.23,2.95,6.55
	c0.84,2.68,2.13,5.23,3.23,7.83c0.2,0.48,0.54,0.78,1.1,0.66c0.62-0.14,1.1-0.74,0.96-1.34c-0.24-1.05-0.46-2.13-0.9-3.11
	c-0.91-2.06-1.96-4.07-2.95-6.1c-0.48-0.97-0.69-1.99-0.57-3.12"/>
<path d="M35.2,18.08c-0.13,1.13,0.09,2.14,0.57,3.12c0.99,2.03,2.04,4.03,2.95,6.1c0.43,0.98,0.65,2.06,0.9,3.11
	c0.14,0.61-0.34,1.21-0.96,1.34c-0.56,0.12-0.9-0.18-1.1-0.66c-1.1-2.6-2.38-5.15-3.23-7.83c-0.73-2.33-1.99-4.36-2.95-6.55
	c-0.13-0.29-0.36-0.53-0.56-0.82c-1.44,2.31-3.5,2.66-5.84,1.09c-0.95,0.34-1.86,0.76-2.81,0.97c-1.6,0.34-2.2-0.29-1.97-1.9
	c0.28-2,0.28-2-0.23-3.07c-2.3,1.34-1.77,3.61-1.84,5.59c-1.56,0.63-1.99,0.35-2.14-1.09c-0.15-1.54-0.44-3.06-0.64-4.6
	c-0.11-0.87-0.16-1.75-0.27-2.92c-2.61,2.03-5,3.89-7.5,5.83c0.8,0.5,1.59,0.98,2.36,1.48c0.36,0.23,0.73,0.44,1.04,0.72
	c1,0.9,0.92,1.8-0.23,2.51c-0.39,0.24-0.85,0.41-1.3,0.53c-1.88,0.51-3.81,0.72-5.74,0.4c-0.63-0.1-1.25-0.41-1.8-0.75
	c-1.15-0.71-1.26-1.92-0.23-2.8c0.64-0.55,1.39-0.96,2.1-1.44c0.27-0.18,0.54-0.37,0.84-0.57c-1.03-0.96-1.99-1.78-2.84-2.7
	c-0.74-0.8-0.58-1.56,0.33-2.11c1.83-1.12,6.26-1.65,8.36,0.66c1.28-0.98,2.59-1.96,3.88-2.96C14.91,8.34,15,7.8,14.81,7.13
	c-0.39-1.36-0.7-2.73-1.04-4.1c-0.06-0.23-0.13-0.46-0.12-0.69c0.01-0.44,0.08-0.87,0.12-1.31c0.58,0.06,1.27-0.05,1.73,0.22
	c0.67,0.39,1.24,1.02,1.76,1.62c0.81,0.95,0.98,2.16,0.45,3.19c-0.92,1.77-0.76,3.54-0.51,5.37c0.09,0.65,0.11,1.3,0.17,2.03
	c0.62-0.07,0.85-0.58,1.19-0.91c1.28-1.24,2.52-0.99,3.14,0.69c0.16,0.43,0.18,0.92,0.22,1.38c0.04,0.51,0.01,1.02,0.01,1.56
	c1.09,0.28,1.84-0.29,2.49-0.83c0.54-0.45,0.85-1.16,1.32-1.71c0.19-0.22,0.54-0.4,0.82-0.41c0.51-0.01,1.04,0.05,1.53,0.2
	c1.21,0.37,2.4,0.47,3.59,0c1.35-0.53,2.78-0.5,4.19-0.53c1.46-0.03,2.92-0.01,4.39,0.04c0.7,0.02,1.55,0.06,1.79,0.85
	c0.26,0.86-0.6,1.18-1.14,1.58c-0.6,0.45-1.24,0.83-2.07,1.37 M10.27,18.77c-1.25-0.7-2.34-1.34-3.46-1.92
	c-0.25-0.13-0.68-0.17-0.91-0.04c-0.86,0.48-1.7,1.01-2.48,1.61c-0.29,0.23-0.6,0.74-0.53,1.04c0.06,0.28,0.59,0.56,0.96,0.64
	c2.04,0.41,4.02,0.13,5.92-0.72C9.91,19.31,10,19.1,10.27,18.77z M3.32,12.58c0.44,1.13,1.56,1.53,2.44,2.17
	c0.14,0.1,0.48,0.05,0.65-0.06c0.81-0.51,1.59-1.07,2.4-1.62C6.99,11.24,5,11.1,3.32,12.58z M34.56,14.37
	c0.13,0.88,0.23,1.59,0.36,2.52c1.59-0.85,2.97-1.59,4.34-2.32c-0.03-0.1-0.05-0.19-0.08-0.29C37.72,14.11,36.25,14.2,34.56,14.37z
	 M28.62,15.49c-1.38-0.75-1.39-0.75-1.83,0.49C27.51,16.42,28.05,16.19,28.62,15.49z"/>
<path class="st0" d="M10.27,18.77c-0.27,0.33-0.36,0.53-0.5,0.6c-1.9,0.85-3.87,1.13-5.92,0.72c-0.37-0.07-0.9-0.36-0.96-0.64
	c-0.07-0.3,0.24-0.81,0.53-1.04c0.78-0.6,1.62-1.13,2.48-1.61c0.23-0.13,0.66-0.09,0.91,0.04C7.93,17.43,9.02,18.07,10.27,18.77z"/>
<path class="st0" d="M3.32,12.58C5,11.1,6.99,11.24,8.81,13.07c-0.82,0.56-1.6,1.11-2.4,1.62c-0.17,0.11-0.51,0.16-0.65,0.06
	C4.88,14.11,3.76,13.71,3.32,12.58z"/>
<path class="st0" d="M34.56,14.37c1.7-0.17,3.16-0.26,4.63-0.09c0.03,0.1,0.05,0.19,0.08,0.29c-1.37,0.74-2.75,1.47-4.34,2.32
	C34.79,15.96,34.68,15.25,34.56,14.37z"/>
<path class="st0" d="M28.62,15.49c-0.57,0.7-1.11,0.93-1.83,0.49C27.23,14.75,27.24,14.74,28.62,15.49z"/>
</svg>
