<?xml version="1.0" encoding="utf-8"?>
<!-- Generator: Adobe Illustrator 24.0.0, SVG Export Plug-In . SVG Version: 6.00 Build 0)  -->
<svg version="1.1" id="Layer_1" xmlns="http://www.w3.org/2000/svg" xmlns:xlink="http://www.w3.org/1999/xlink" x="0px" y="0px"
	 viewBox="0 0 42.82 14.42" style="enable-background:new 0 0 42.82 14.42;" xml:space="preserve">
<style type="text/css">
	.st0{fill:#FFFFFF;}
</style>
<path class="st0" d="M34.86,13.44c-1.14-1.15-0.96-2.32-0.47-3.55c2.31,0.34,4.56,0.49,6.65,1.49c0.76,0.36,1.04,0.1,1.49-1.11
	c-0.44-0.19-0.88-0.43-1.36-0.57c-0.95-0.27-1.92-0.49-2.88-0.7c-1.2-0.27-2.41-0.51-3.86-0.81c2.59-1.23,4.9-2.33,7.19-3.41
	c-0.37-1.35-0.5-1.43-1.5-0.93c-0.67,0.34-1.31,0.75-1.97,1.1c-1.14,0.62-2.3,1.18-3.63,1.59c-0.09-1.57-0.15-3.02-0.27-4.47
	c-0.11-1.33-0.43-1.51-1.92-1.21c0,0.35-0.02,0.72,0,1.08c0.1,1.36,0.25,2.72,0.31,4.08c0.07,1.39,0.03,1.39-1.25,1.76
	c-0.27,0.08-0.56,0.14-0.78,0.29c-0.21,0.14-0.53,0.46-0.49,0.58c0.09,0.26,0.36,0.54,0.62,0.62c0.61,0.2,1.25,0.28,1.89,0.41
	c0,0.94-0.07,1.8,0.02,2.63C32.75,13.58,33.43,13.95,34.86,13.44z"/>
<path class="st0" d="M0.81,5.92c0,1.1-0.02,2.21,0.01,3.33c0.03,0.98,0.04,1.98,0.21,2.95c0.12,0.71,0.61,1.29,1.36,1.49
	c0.77,0.21,1.25-0.3,1.66-0.82c0.49-0.61,0.92-1.26,1.4-1.93c0.3,0.37,0.51,0.68,0.77,0.94c0.69,0.7,1.49,0.97,2.44,0.55
	c2.04-0.9,3.31-2.41,3.77-4.61c0.16-0.77-0.19-1.29-0.82-1.62c-0.68-0.35-1.4-0.64-2.13-0.11C9.31,6.21,9.12,6.53,9.18,6.65
	c0.1,0.21,0.36,0.37,0.59,0.5c0.09,0.05,0.26-0.07,0.4-0.09c0.97-0.1,1.21,0.17,0.94,1.1c-0.41,1.4-1.39,2.34-2.64,2.98
	c-0.89,0.46-1.41,0.22-1.75-0.74c-0.19-0.52-0.15-1.11-0.3-1.64C6.34,8.49,6.11,8.16,5.87,8.08C5.45,7.92,5.16,8.2,5.1,8.65
	C5.08,8.79,5.07,8.94,5.02,9.06c-0.52,1.2-1.13,2.34-2.47,3.24c-0.09-0.67-0.24-1.16-0.21-1.64c0.07-1.07,0.25-2.13,0.35-3.2
	C2.82,6.22,2.32,5.79,0.81,5.92z"/>
<path class="st0" d="M15.13,9.99c0.04,0.01,0.08,0.02,0.12,0.03c-0.02,0.23-0.05,0.47-0.05,0.7c0.02,1.05,0.3,1.35,1.26,1.78
	c1.34,0.59,3.6-0.7,3.96-2.08c0.19-0.72-0.06-1.46-0.72-1.79c-0.75-0.37-1.53-0.72-2.32-0.99c-1.06-0.36-1.48-0.14-1.9,0.93
	C15.31,9.02,15.24,9.51,15.13,9.99z"/>
<path class="st0" d="M29.81,7.55c-1.94-0.56-3.51,0.23-5.01,1.3c-0.99-1.46-1.66-1.31-3.14,0.2c1.52,0.55,1.52,0.55,2.3,2.39
	c0.04,0.09,0.04,0.22,0.1,0.26c0.33,0.22,0.7,0.62,0.99,0.57c0.31-0.05,0.75-0.51,0.78-0.82c0.21-1.81,1.27-2.63,2.97-2.82
	C29.29,8.57,29.77,8.5,29.81,7.55z"/>
<path d="M34.86,13.44c-1.43,0.51-2.11,0.14-2.23-1.11c-0.09-0.84-0.02-1.69-0.02-2.63c-0.64-0.13-1.28-0.22-1.89-0.41
	c-0.26-0.08-0.53-0.37-0.62-0.62c-0.04-0.13,0.27-0.44,0.49-0.58c0.23-0.15,0.52-0.21,0.78-0.29c1.28-0.37,1.32-0.37,1.25-1.76
	c-0.07-1.36-0.21-2.72-0.31-4.08c-0.03-0.36,0-0.73,0-1.08c1.5-0.31,1.81-0.12,1.92,1.21c0.12,1.44,0.18,2.89,0.27,4.47
	c1.33-0.41,2.49-0.98,3.63-1.59c0.66-0.36,1.3-0.77,1.97-1.1c1-0.51,1.13-0.42,1.5,0.93c-2.29,1.09-4.6,2.19-7.19,3.41
	c1.45,0.3,2.66,0.54,3.86,0.81c0.96,0.21,1.93,0.44,2.88,0.7c0.47,0.13,0.92,0.38,1.36,0.57c-0.44,1.21-0.73,1.47-1.49,1.11
	c-2.09-1-4.34-1.15-6.65-1.49C33.9,11.12,33.72,12.29,34.86,13.44z"/>
<path d="M0.81,5.92c1.52-0.13,2.01,0.3,1.89,1.54c-0.1,1.07-0.28,2.13-0.35,3.2c-0.03,0.48,0.12,0.98,0.21,1.64
	c1.34-0.9,1.94-2.04,2.47-3.24C5.07,8.94,5.08,8.79,5.1,8.65C5.16,8.2,5.45,7.92,5.87,8.08c0.24,0.09,0.47,0.41,0.54,0.68
	c0.15,0.53,0.11,1.13,0.3,1.64c0.34,0.95,0.87,1.2,1.75,0.74c1.24-0.64,2.22-1.59,2.64-2.98c0.27-0.92,0.03-1.2-0.94-1.1
	c-0.14,0.01-0.31,0.14-0.4,0.09c-0.23-0.13-0.49-0.28-0.59-0.5C9.12,6.53,9.31,6.21,9.47,6.09c0.72-0.52,1.45-0.24,2.13,0.11
	c0.63,0.33,0.98,0.85,0.82,1.62c-0.46,2.2-1.74,3.71-3.77,4.61c-0.95,0.42-1.75,0.14-2.44-0.55c-0.26-0.26-0.47-0.57-0.77-0.94
	c-0.48,0.67-0.91,1.32-1.4,1.93c-0.42,0.52-0.89,1.03-1.66,0.82c-0.75-0.21-1.23-0.78-1.36-1.49c-0.17-0.97-0.18-1.96-0.21-2.95
	C0.78,8.14,0.81,7.02,0.81,5.92z"/>
<path d="M15.13,9.99c0.11-0.48,0.18-0.97,0.36-1.43c0.42-1.06,0.85-1.28,1.9-0.93c0.8,0.27,1.57,0.62,2.32,0.99
	c0.66,0.33,0.91,1.07,0.72,1.79c-0.36,1.37-2.62,2.67-3.96,2.08c-0.96-0.42-1.24-0.72-1.26-1.78c0-0.23,0.03-0.47,0.05-0.7
	C15.21,10.01,15.17,10,15.13,9.99z M18.89,9.93c-0.37-0.5-0.89-0.85-1.45-0.59c-0.35,0.16-0.64,0.66-0.76,1.07
	c-0.18,0.6,0.17,0.92,0.78,0.75C18.11,10.97,18.69,10.67,18.89,9.93z"/>
<path d="M29.81,7.55c-0.04,0.95-0.52,1.02-1,1.08c-1.71,0.19-2.77,1.01-2.97,2.82c-0.04,0.32-0.48,0.78-0.78,0.82
	c-0.3,0.04-0.67-0.35-0.99-0.57c-0.06-0.04-0.06-0.17-0.1-0.26c-0.78-1.84-0.78-1.84-2.3-2.39c1.49-1.51,2.16-1.66,3.14-0.2
	C26.3,7.78,27.87,6.99,29.81,7.55z"/>
<path class="st0" d="M18.89,9.93c-0.2,0.73-0.78,1.04-1.43,1.22c-0.6,0.17-0.96-0.14-0.78-0.75c0.12-0.41,0.41-0.91,0.76-1.07
	C18,9.09,18.52,9.43,18.89,9.93z"/>
</svg>
