<?xml version="1.0" standalone="no"?>
<!DOCTYPE svg PUBLIC "-//W3C//DTD SVG 1.1//EN" "http://www.w3.org/Graphics/SVG/1.1/DTD/svg11.dtd" >
<svg xmlns="http://www.w3.org/2000/svg" xmlns:xlink="http://www.w3.org/1999/xlink" version="1.1">
<metadata>
Created by FontForge 20170731 at Wed May 11 17:20:06 2016
 By Aleksey,,,
Copyright 2008 The Bungee Project Authors (david@djr.com)
</metadata>
<defs>
<font id="BungeeShade-Regular" horiz-adv-x="1000" >
  <font-face 
    font-family="Bungee Shade"
    font-weight="400"
    font-stretch="normal"
    units-per-em="1000"
    panose-1="0 0 0 0 0 0 0 0 0 0"
    ascent="860"
    descent="-140"
    x-height="730"
    cap-height="730"
    bbox="-604.118 -914.118 1942.12 1634.12"
    underline-thickness="0"
    underline-position="0"
    unicode-range="U+0020-FF3E"
  />
<missing-glyph horiz-adv-x="1100" 
d="M850 -159h-728q-24 0 -35 11t-11 35v728q0 13 3.5 22t10.5 15l129 109q5 4 13.5 6.5t18.5 2.5h728q24 0 35 -11t11 -35v-728q0 -13 -3.5 -22t-10.5 -15l-130 -108q-4 -4 -12.5 -7t-18.5 -3zM1015 -4v728q0 19 -8.5 27.5t-27.5 8.5h-728q-19 0 -27.5 -8.5t-8.5 -27.5v-728
q0 -19 8.5 -27.5t27.5 -8.5h728q19 0 27.5 8.5t8.5 27.5zM235 -20v760h760v-760h-760zM985 -10v740h-740v-740h740zM965 10h-700v700h700v-700zM826 591h-551v-571h551v571z" />
    <glyph glyph-name="I_I.salt_v" unicode="&#xe201;&#xe201;" 
d="M492 684q0 19 -8.5 27.5t-27.5 8.5h-155q-19 0 -27.5 -8.5t-8.5 -27.5v-648q0 -19 8.5 -27.5t27.5 -8.5h155q19 0 27.5 8.5t8.5 27.5v648zM638 36q0 -19 8.5 -27.5t27.5 -8.5h155q19 0 27.5 8.5t8.5 27.5v648q0 19 -8.5 27.5t-27.5 8.5h-155q-19 0 -27.5 -8.5t-8.5 -27.5
v-648zM374 630h10v-540h-10v540zM746 630h10v-540h-10v540zM488 -1l-130 -108q-4 -4 -12.5 -7t-18.5 -3h-155q-24 0 -35 11t-11 35v648q0 13 3.5 22t10.5 15l129 109q5 4 13.5 6.5t18.5 2.5h155q24 0 35 -11t11 -35v-88q1 5 4 9t7 7l129 109q5 4 13.5 6.5t18.5 2.5h155
q24 0 35 -11t11 -35v-648q0 -13 -3.5 -22t-10.5 -15l-130 -108q-4 -4 -12.5 -7t-18.5 -3h-155q-24 0 -35 11t-11 35v88q-1 -5 -4 -9t-7 -7z" />
    <glyph glyph-name=".notdef" horiz-adv-x="1100" 
d="M850 -159h-728q-24 0 -35 11t-11 35v728q0 13 3.5 22t10.5 15l129 109q5 4 13.5 6.5t18.5 2.5h728q24 0 35 -11t11 -35v-728q0 -13 -3.5 -22t-10.5 -15l-130 -108q-4 -4 -12.5 -7t-18.5 -3zM1015 -4v728q0 19 -8.5 27.5t-27.5 8.5h-728q-19 0 -27.5 -8.5t-8.5 -27.5v-728
q0 -19 8.5 -27.5t27.5 -8.5h728q19 0 27.5 8.5t8.5 27.5zM235 -20v760h760v-760h-760zM985 -10v740h-740v-740h740zM965 10h-700v700h700v-700zM826 591h-551v-571h551v571z" />
    <glyph glyph-name=".null" horiz-adv-x="0" 
 />
    <glyph glyph-name="nonmarkingreturn" horiz-adv-x="333" 
 />
    <glyph glyph-name="space" unicode=" " horiz-adv-x="325" 
 />
    <glyph glyph-name="exclam" unicode="!" horiz-adv-x="524" 
d="M291 -119h-184q-24 0 -35 11t-11 35v131q0 13 3.5 22.5t9.5 14.5l58 48h-11q-24 0 -35 11t-12 35l-15 385q-1 14 2.5 23.5t10.5 15.5l129 108q5 4 13 6.5t18 2.5h191q24 0 34.5 -11t9.5 -35l-14 -387q-1 -12 -4.5 -20.5t-9.5 -14.5l-59 -49h40q24 0 35 -10.5t11 -35.5
v-131q0 -13 -3.5 -22t-9.5 -15l-130 -108q-5 -4 -13.5 -7t-18.5 -3zM405 262q19 0 28 8.5t10 27.5l14 386q1 19 -7 27.5t-27 8.5h-191q-19 0 -27 -8.5t-7 -27.5l15 -386q1 -19 9.5 -27.5t27.5 -8.5h155zM323 630h10v-278h-10v278zM420 0q19 0 27.5 8.5t8.5 27.5v131
q0 19 -8.5 27.5t-27.5 8.5h-184q-19 0 -27.5 -8.5t-8.5 -27.5v-131q0 -19 8.5 -27.5t27.5 -8.5h184zM333 80h-10v43h10v-43z" />
    <glyph glyph-name="quotedbl" unicode="&#x22;" horiz-adv-x="746" 
d="M356 345q26 0 33.5 7.5t8.5 33.5l8 293q1 26 -6.5 33.5t-32.5 7.5h-165q-26 0 -33.5 -7.5t-6.5 -33.5l8 -293q1 -26 8.5 -33.5t33.5 -7.5h144zM666 345q26 0 33.5 7.5t8.5 33.5l8 293q1 26 -6.5 33.5t-32.5 7.5h-165q-26 0 -33.5 -7.5t-6.5 -33.5l8 -293q1 -26 8.5 -33.5
t33.5 -7.5h144zM589 630h10v-195h-10v195zM279 630h10v-195h-10v195zM266 235q-6 -4 -15 -6.5t-24 -2.5h-144q-32 0 -41.5 9t-10.5 42l-8 292q-1 19 1.5 28.5t9.5 15.5l130 109q5 4 14.5 6t23.5 2h165q32 0 41 -9t8 -42v-6l58 49q5 4 14.5 6t23.5 2h165q32 0 41 -9t8 -42
l-8 -294q-1 -17 -4 -26.5t-9 -15.5l-129 -108q-6 -4 -15 -6.5t-24 -2.5h-144q-32 0 -41.5 9t-10.5 42v21z" />
    <glyph glyph-name="numbersign" unicode="#" horiz-adv-x="850" 
d="M649 495h-279l-38 -265h279zM554 411l-14 -97h-113l14 97h113zM302 90l19 130h-81v10h82l38 265h-84v10h85l18 125h10l-18 -125h279l18 125h10l-18 -125h80v-10h-81l-38 -265h83v-10h-84l-19 -130h-10l19 130h-279l-19 -130h-10zM387 36l14 99h113l-14 -99
q-2 -19 7.5 -27.5t28.5 -8.5h105q19 0 26.5 8.5t9.5 27.5l14 99h67q19 0 27.5 8.5t8.5 27.5v107q0 19 -8.5 27.5t-27.5 8.5h-41l14 97h63q19 0 27.5 8.5t8.5 27.5v107q0 19 -8.5 27.5t-27.5 8.5h-37l13 94q2 19 -7.5 27.5t-28.5 8.5h-105q-19 0 -26.5 -8.5t-9.5 -27.5
l-13 -94h-113l13 94q2 19 -7.5 27.5t-28.5 8.5h-105q-19 0 -26.5 -8.5t-9.5 -27.5l-13 -94h-68q-19 0 -27.5 -8.5t-8.5 -27.5v-107q0 -19 8.5 -27.5t27.5 -8.5h42l-14 -97h-64q-19 0 -27.5 -8.5t-8.5 -27.5v-107q0 -19 8.5 -27.5t27.5 -8.5h38l-14 -99q-2 -19 7.5 -27.5
t28.5 -8.5h105q19 0 26.5 8.5t9.5 27.5zM252 -110q-6 -4 -13 -6.5t-17 -2.5h-105q-25 0 -37 11.5t-9 35.5l12 88h-26q-24 0 -35 10.5t-11 35.5v107q0 13 3.5 22t10.5 15l98 82v4h-30q-24 0 -35 10.5t-11 35.5v107q0 13 3.5 22t10.5 15l102 85l1 9q1 13 4.5 22t10.5 15
l129 108q5 4 13 6.5t18 2.5h105q25 0 37 -11.5t9 -35.5l-9 -60l117 98q5 4 13 6.5t18 2.5h105q25 0 37 -11.5t9 -35.5l-12 -83h26q24 0 35 -10.5t11 -35.5v-107q0 -13 -3.5 -22t-10.5 -15l-97 -81v-5h29q24 0 35 -10.5t11 -35.5v-107q0 -13 -3.5 -22t-10.5 -15l-101 -85
l-2 -14q-2 -13 -6 -22.5t-10 -13.5l-129 -109q-6 -4 -13 -6.5t-17 -2.5h-105q-25 0 -37 11.5t-9 35.5l9 61z" />
    <glyph glyph-name="dollar" unicode="$" horiz-adv-x="750" 
d="M391 -209h-145q-24 0 -35 11t-11 35v44h-127q-24 0 -35 11t-11 35v117q0 13 3.5 22t10.5 15l100 84q-53 16 -83.5 54.5t-30.5 110.5v105q0 45 15 80t43 59l115 97q1 12 5 19.5t9 11.5l129 109q5 4 13.5 6.5t18.5 2.5h145q24 0 35 -11t11 -35v-44h87q24 0 35 -11t11 -35
v-119q0 -13 -3.5 -22t-10.5 -15l-90 -75q63 -14 101.5 -52.5t38.5 -119.5v-105q0 -45 -15 -80t-44 -59l-110 -92q0 -13 -3.5 -21.5t-10.5 -14.5l-130 -108q-4 -4 -12.5 -7t-18.5 -3zM520 -90q19 0 27.5 8.5t8.5 27.5v56q79 8 124 53t45 121v105q0 84 -43 120t-113 46
l-149 20q-13 1 -20 10t-7 22t7 21.5t20 8.5h233q19 0 27.5 8.5t8.5 27.5v119q0 19 -8.5 27.5t-27.5 8.5h-97v54q0 19 -8.5 27.5t-27.5 8.5h-145q-19 0 -27.5 -8.5t-8.5 -27.5v-56q-81 -7 -127 -51.5t-46 -122.5v-105q0 -84 42.5 -120t112.5 -46l150 -21q13 -1 19.5 -9
t6.5 -25q0 -12 -6.5 -20.5t-19.5 -8.5h-269q-19 0 -27.5 -8.5t-8.5 -27.5v-117q0 -19 8.5 -27.5t27.5 -8.5h137v-54q0 -19 8.5 -27.5t27.5 -8.5h145zM443 0v90h-187v10h249q46 0 73.5 25.5t27.5 65.5v58q0 47 -16.5 64.5t-44.5 23.5l-211 43q-26 5 -42.5 20.5t-16.5 56.5v82
q0 40 28 65.5t74 25.5h66v90h10v-90h146v-10h-222q-42 0 -67 -23t-25 -58v-82q0 -35 14 -49t37 -18l211 -43q30 -6 49.5 -26t19.5 -72v-58q0 -44 -30 -72.5t-81 -28.5h-52v-90h-10z" />
    <glyph glyph-name="percent" unicode="%" horiz-adv-x="1131" 
d="M805 -125q-105 0 -144.5 30.5t-43.5 78.5l-111 -93q-5 -4 -13.5 -7t-18.5 -3h-105q-25 0 -36 12.5t-5 35.5l82 331l-53 -45q-20 -17 -56.5 -27t-93.5 -10q-58 0 -95 14.5t-57.5 37t-28.5 51t-8 56.5v160q0 28 8 52t29 40l129 109q21 17 58 27t94 10q106 0 144 -30.5
t42 -79.5l114 95q5 4 13 7t19 3h105q25 0 36 -12.5t5 -35.5l-81 -328l49 41q21 17 58 27t94 10q58 0 94.5 -9.5t57 -26.5t28 -41t7.5 -52v-190q0 -28 -8 -52t-29 -40l-129 -109q-20 -17 -56.5 -27t-93.5 -10zM513 416v190q0 26 -7.5 48.5t-27.5 38t-54.5 24t-87.5 8.5
q-107 0 -143 -33t-36 -86v-190q0 -53 36 -86t143 -33q53 0 87.5 8.5t54.5 24t27.5 38t7.5 48.5zM467 36q-4 -18 4 -27t27 -9h105q19 0 28 9t13 27l160 648q4 18 -4 27t-27 9h-105q-19 0 -28 -9t-13 -27zM446 583v-146q0 -43 -25.5 -61t-84.5 -18q-58 0 -84.5 18t-26.5 61
v146q0 43 26.5 61.5t84.5 18.5q59 0 84.5 -18.5t25.5 -61.5zM336 368q51 0 75.5 15t24.5 54v146q0 39 -24.5 54.5t-75.5 15.5t-76 -15.5t-25 -54.5v-146q0 -39 25 -54t76 -15zM574 90h-10l133 540h10zM302 447v128q0 6 6 11.5t28 5.5q21 0 27 -5.5t6 -11.5v-128
q0 -7 -6 -12.5t-27 -5.5q-22 0 -28 5.5t-6 12.5zM1111 113v190q0 26 -7.5 48.5t-27.5 38t-54.5 24t-87.5 8.5q-107 0 -143 -33t-36 -86v-190q0 -53 36 -86t143 -33q53 0 87.5 8.5t54.5 24t27.5 38t7.5 48.5zM1046 280v-146q0 -43 -25.5 -61t-84.5 -18q-58 0 -84.5 18
t-26.5 61v146q0 43 26.5 61.5t84.5 18.5q59 0 84.5 -18.5t25.5 -61.5zM936 65q51 0 75.5 15t24.5 54v146q0 39 -24.5 54.5t-75.5 15.5t-76 -15.5t-25 -54.5v-146q0 -39 25 -54t76 -15zM900 144v128q0 6 6 11.5t28 5.5q21 0 27 -5.5t6 -11.5v-128q0 -7 -6 -12.5t-27 -5.5
q-22 0 -28 5.5t-6 12.5z" />
    <glyph glyph-name="ampersand" unicode="&#x26;" horiz-adv-x="866" 
d="M212 -119q-49 0 -86 16.5t-62 44.5t-38 65.5t-13 79.5v60q0 46 14.5 79t39.5 54l44 36q-17 17 -24 41t-7 53v48q0 36 12 67t39 53l128 108q25 21 63 32.5t89 11.5h211q24 0 35 -11t11 -35v-115q0 -13 -3.5 -22t-10.5 -15l-119 -99q1 -4 1.5 -8.5t0.5 -8.5v-63l58 49
q5 4 13.5 6.5t18.5 2.5h194q24 0 35 -10.5t11 -35.5v-108q0 -13 -3.5 -22t-10.5 -15l-45 -38v-6q0 -46 -15.5 -83t-44.5 -62l-129 -109q-23 -19 -55.5 -30t-73.5 -11h-278zM411 187q-24 0 -31 9t-7 21v31q0 12 7 20.5t31 8.5h80q19 0 27.5 8.5t8.5 27.5v103q0 19 -8.5 27.5
t-27.5 8.5h-15q-24 0 -31 9t-7 21v21q0 12 7 21t31 9h146q19 0 27.5 8.5t8.5 27.5v115q0 19 -8.5 27.5t-27.5 8.5h-211q-101 0 -146.5 -43.5t-45.5 -109.5v-48q0 -38 13 -66t46 -42q-54 -5 -90 -45t-36 -110v-80q0 -80 48.5 -128t140.5 -48h278q87 0 133 48t46 128v45h23
q19 0 27.5 8.5t8.5 27.5v108q0 19 -8.5 27.5t-27.5 8.5h-194q-19 0 -27.5 -8.5t-8.5 -27.5v-138q0 -20 -8 -30t-30 -10h-142zM365 90q-59 0 -88 26.5t-29 81.5v61q0 49 30 81t92 32h7q-26 10 -39 34t-13 63v56q0 55 29 80t89 25h125v-10h-125q-56 0 -82 -23t-26 -74v-54
q0 -49 22.5 -72.5t69.5 -23.5h10v-10h-67q-57 0 -84.5 -29.5t-27.5 -74.5v-61q0 -51 27 -74.5t86 -23.5h235q40 0 61.5 20.5t21.5 60.5v135h75v-10h-65v-125q0 -46 -24.5 -68.5t-68.5 -22.5h-241zM452 197v20l-24 -20h24z" />
    <glyph glyph-name="quotesingle" unicode="'" horiz-adv-x="456" 
d="M237 226h-144q-32 0 -41.5 9t-10.5 42l-8 292q-1 19 1.5 28.5t9.5 15.5l130 109q5 4 14.5 6t23.5 2h165q32 0 41 -9t8 -42l-8 -294q-1 -17 -4 -26.5t-9 -15.5l-129 -108q-6 -4 -15 -6.5t-24 -2.5zM366 345q26 0 33.5 7.5t8.5 33.5l8 293q1 26 -6.5 33.5t-32.5 7.5h-165
q-26 0 -33.5 -7.5t-6.5 -33.5l8 -293q1 -26 8.5 -33.5t33.5 -7.5h144zM289 630h10v-195h-10v195z" />
    <glyph glyph-name="parenleft" unicode="(" horiz-adv-x="529" 
d="M334 -199h-54q-74 0 -123.5 16t-79 44t-41.5 67.5t-12 86.5v471q0 51 14.5 93t48.5 70l129 109q29 25 76.5 38.5t116.5 13.5h54q24 0 35 -11t11 -35v-121q0 -13 -3.5 -22t-10.5 -15l-94 -79v-366q0 -19 6 -29.5t25 -10.5h31q24 0 35 -11t11 -35v-119q0 -13 -3.5 -22
t-10.5 -15l-130 -108q-4 -4 -12.5 -7t-18.5 -3zM463 -80q19 0 27.5 8.5t8.5 27.5v119q0 19 -8.5 27.5t-27.5 8.5h-31q-24 0 -32.5 12t-8.5 38v396q0 26 8.5 38t32.5 12h31q19 0 27.5 8.5t8.5 27.5v121q0 19 -8.5 27.5t-27.5 8.5h-54q-141 0 -193.5 -57t-52.5 -148v-471
q0 -90 52.5 -147t193.5 -57h54zM409 21v-10q-65 0 -101 23.5t-36 89.5v471q0 66 35.5 89.5t101.5 23.5v-10q-60 0 -93.5 -21t-33.5 -82v-471q0 -61 34 -82t93 -21z" />
    <glyph glyph-name="parenright" unicode=")" horiz-adv-x="529" 
d="M67 -199q-24 0 -35 11t-11 35v119q0 13 3.5 22t10.5 15l94 79v366q0 19 -6 29.5t-25 10.5h-31q-24 0 -35 11t-11 35v121q0 13 3.5 22t10.5 15l129 109q5 4 13.5 6.5t18.5 2.5h54q74 0 123.5 -16t79 -44t41.5 -68t12 -87v-471q0 -50 -14.5 -91.5t-48.5 -69.5l-129 -109
q-30 -25 -77 -39t-116 -14h-54zM250 -80q141 0 193.5 57t52.5 147v471q0 91 -52.5 148t-193.5 57h-54q-19 0 -27.5 -8.5t-8.5 -27.5v-121q0 -19 8.5 -27.5t27.5 -8.5h31q24 0 32.5 -12t8.5 -38v-396q0 -26 -8.5 -38t-32.5 -12h-31q-19 0 -27.5 -8.5t-8.5 -27.5v-119
q0 -19 8.5 -27.5t27.5 -8.5h54zM387 124q0 -66 -36 -89.5t-101 -23.5v10q59 0 93 21t34 82v471q0 61 -33.5 82t-93.5 21v10q66 0 101.5 -23.5t35.5 -89.5v-471z" />
    <glyph glyph-name="asterisk" unicode="*" horiz-adv-x="818" 
d="M480 36q-28 -19 -39 -15.5t-27 30.5l-37 70l-109 -91q-9 -8 -20 -7.5t-31 13.5l-94 68q-27 19 -28 32t21 37l96 101l-134 22q-32 6 -39 17t3 42l36 111q4 13 8.5 20.5t8.5 11.5l129 109q4 4 11 5t17 -1v0.5t1 0.5l1 1l130 109q5 4 14.5 6t22.5 2h117q33 0 41.5 -10
t2.5 -42l-18 -131l121 56q28 14 40 9t22 -37l37 -111q7 -20 6 -30t-8 -17l-111 -93l40 -42q20 -22 20 -34t-17 -28l-129 -108q-2 -1 -4.5 -3t-4.5 -4v-1h-1zM404 165l73 141l74 -141q12 -21 21 -23.5t31 11.5l94 68q21 15 22 25t-16 29l-110 115l153 25q25 4 30.5 12.5
t-2.5 33.5l-37 111q-8 25 -17.5 29t-31.5 -7l-137 -64l20 149q4 25 -2.5 33t-31.5 8h-117q-25 0 -32.5 -8t-3.5 -33l23 -149l-142 64q-22 11 -32 7t-17 -29l-36 -111q-8 -25 -2.5 -33.5t30.5 -12.5l152 -25l-109 -115q-17 -19 -16 -29t22 -25l94 -68q22 -14 31.5 -11.5
t21.5 23.5zM588 268l-109 155l-109 -155l-8 6l106 152l-172 56l4 10l174 -57v195h10v-195l174 57l4 -10l-172 -56l106 -152z" />
    <glyph glyph-name="plus" unicode="+" horiz-adv-x="834" 
d="M415 -56h-124q-25 0 -35.5 11t-10.5 35v158h-153q-24 0 -35 10.5t-11 35.5v114q0 13 3.5 22t10.5 15l129 109q5 4 13.5 6.5t18.5 2.5h24v49q0 13 3 22t9 14l1 1l130 109q5 4 13 6.5t19 2.5h124q24 0 35 -11t11 -35v-158h153q24 0 35 -10.5t11 -35.5v-114q0 -13 -3.5 -22
t-10.5 -15l-129 -109q-6 -4 -14 -6.5t-18 -2.5h-24v-49q0 -13 -3.5 -22t-10.5 -15l-129 -109q-6 -4 -14 -6.5t-18 -2.5zM580 99v168h163q19 0 27.5 8.5t8.5 27.5v114q0 19 -8.5 27.5t-27.5 8.5h-163v168q0 19 -8.5 27.5t-27.5 8.5h-124q-19 0 -27.5 -8.5t-8.5 -27.5v-168
h-163q-19 0 -27.5 -8.5t-8.5 -27.5v-114q0 -19 8.5 -27.5t27.5 -8.5h163v-168q0 -19 8.5 -27.5t27.5 -8.5h124q19 0 27.5 8.5t8.5 27.5zM477 153v202h-202v10h202v202h10v-202h202v-10h-202v-202h-10z" />
    <glyph glyph-name="comma" unicode="," horiz-adv-x="484" 
d="M90 -219q-24 0 -35 10.5t-11 35.5v40q0 13 3.5 22t10.5 15l38 32h-19q-24 0 -35 11t-11 35v148q0 13 3.5 22t10.5 15l129 109q5 4 13.5 6.5t18.5 2.5h202q24 0 35 -11t11 -35v-188q0 -44 -13.5 -75.5t-36.5 -51.5l-130 -109q-19 -16 -46.5 -25t-60.5 -9h-77zM296 -100
q67 0 107.5 37.5t40.5 113.5v188q0 19 -8.5 27.5t-27.5 8.5h-202q-19 0 -27.5 -8.5t-8.5 -27.5v-148q0 -19 8.5 -27.5t27.5 -8.5h109v-15q0 -13 -7 -20.5t-20 -7.5h-69q-19 0 -27.5 -8.5t-8.5 -27.5v-40q0 -19 8.5 -27.5t27.5 -8.5h77zM374 170v-119q0 -46 -24 -68.5
t-64 -22.5h-46v10h46q36 0 57 20.5t21 60.5v109h-124v10h134z" />
    <glyph glyph-name="hyphen" unicode="-" horiz-adv-x="520" 
d="M330 138h-268q-24 0 -35 10.5t-11 35.5v134q0 13 3.5 22t10.5 15l129 109q5 4 13.5 6.5t18.5 2.5h268q24 0 35 -10.5t11 -35.5v-134q0 -13 -3.5 -22t-10.5 -15l-129 -109q-6 -4 -14 -6.5t-18 -2.5zM191 257h268q19 0 27.5 8.5t8.5 27.5v134q0 19 -8.5 27.5t-27.5 8.5
h-268q-19 0 -27.5 -8.5t-8.5 -27.5v-134q0 -19 8.5 -27.5t27.5 -8.5zM405 365v-10h-160v10h160z" />
    <glyph glyph-name="period" unicode="." horiz-adv-x="484" 
d="M279 -119h-202q-24 0 -35 11t-11 35v203q0 13 3.5 22.5t9.5 14.5l130 109q5 4 13 6.5t19 2.5h202q24 0 35 -10.5t11 -35.5v-203q0 -13 -3.5 -22t-10.5 -15l-130 -108q-4 -4 -12.5 -7t-18.5 -3zM408 0q19 0 27.5 8.5t8.5 27.5v203q0 19 -8.5 27.5t-27.5 8.5h-202
q-19 0 -27.5 -8.5t-8.5 -27.5v-203q0 -19 8.5 -27.5t27.5 -8.5h202zM302 90v95h10v-95h-10z" />
    <glyph glyph-name="slash" unicode="/" horiz-adv-x="487" 
d="M194 -209h-145q-25 0 -37 11.5t-9 35.5l120 828q1 13 4.5 22t10.5 15l129 108q5 4 13 6.5t18 2.5h145q25 0 37 -11.5t9 -35.5l-120 -828q-2 -13 -5.5 -22.5t-10.5 -13.5l-129 -109q-6 -4 -13 -6.5t-17 -2.5zM142 -54q-2 -19 7.5 -27.5t28.5 -8.5h145q19 0 26.5 8.5
t9.5 27.5l120 828q2 19 -7.5 27.5t-28.5 8.5h-145q-19 0 -26.5 -8.5t-9.5 -27.5zM358 720h10l-104 -720h-10z" />
    <glyph glyph-name="zero" unicode="0" horiz-adv-x="827" 
d="M604 -72q-34 -29 -95.5 -45.5t-158.5 -16.5q-96 0 -158 20.5t-97 54.5t-48 78t-13 91v311q0 47 13 86t47 67l130 109q34 29 95.5 45.5t159.5 16.5q96 0 158 -16t96.5 -44.5t47.5 -68t13 -86.5v-341q0 -46 -13 -85.5t-47 -67.5zM784 189v341q0 46 -13 83.5t-47 64.5
t-93.5 42t-151.5 15t-151.5 -15t-93.5 -42t-47.5 -64.5t-13.5 -83.5v-341q0 -46 13.5 -83.5t47.5 -64t93.5 -41.5t151.5 -15t151.5 15t93.5 41.5t47 64t13 83.5zM281 212v295q0 30 9 55t31 42.5t60.5 27.5t96.5 10q116 0 157.5 -38t41.5 -97v-295q0 -60 -41.5 -97.5
t-157.5 -37.5q-58 0 -96.5 10t-60.5 27.5t-31 42.5t-9 55zM478 632q-107 0 -147 -34t-40 -91v-295q0 -57 40 -91t147 -34t148 34t41 91v295q0 56 -41 90.5t-148 34.5zM399 225v269q0 19 14.5 32.5t65.5 13.5t65.5 -13.5t14.5 -32.5v-269q0 -20 -14.5 -33.5t-65.5 -13.5
t-65.5 13.5t-14.5 33.5zM409 225q0 -7 2 -14t9 -11v185q0 7 -2 14t-9 11v-185z" />
    <glyph glyph-name="one" unicode="1" horiz-adv-x="701" 
d="M512 -119h-442q-24 0 -35 11t-11 35v121q0 13 3.5 22t10.5 15l129 109q1 1 2.5 1.5t2.5 1.5v211h-82q-24 0 -35 11t-11 35v121q0 13 3.5 22t10.5 15l129 109q5 4 13.5 6.5t18.5 2.5h290q24 0 35 -11t11 -35v-481h86q24 0 35 -11t11 -35v-121q0 -13 -3.5 -22t-10.5 -15
l-130 -108q-4 -4 -12.5 -7t-18.5 -3zM641 0q19 0 27.5 8.5t8.5 27.5v121q0 19 -8.5 27.5t-27.5 8.5h-96v491q0 19 -8.5 27.5t-27.5 8.5h-290q-19 0 -27.5 -8.5t-8.5 -27.5v-121q0 -19 8.5 -27.5t27.5 -8.5h92v-334h-112q-19 0 -27.5 -8.5t-8.5 -27.5v-121q0 -19 8.5 -27.5
t27.5 -8.5h442zM253 85v10h170v525h-150v10h160v-535h154v-10h-334z" />
    <glyph glyph-name="two" unicode="2" horiz-adv-x="739" 
d="M538 -119h-476q-24 0 -35 11t-11 35v172q0 72 17 114t47 67l129 109q8 7 17 12.5t19 10.5h-145q-24 0 -35 11t-11 35v117q0 13 3.5 22t10.5 15l129 109q5 4 13.5 6.5t18.5 2.5h295q90 0 138 -45.5t48 -130.5v-94q0 -46 -15 -79t-43 -56l-129 -108q-6 -4 -12.5 -9
t-13.5 -9h170q24 0 35 -11t11 -35v-117q0 -13 -3.5 -22t-10.5 -15l-130 -108q-4 -4 -12.5 -7t-18.5 -3zM667 0q19 0 27.5 8.5t8.5 27.5v117q0 19 -8.5 27.5t-27.5 8.5h-285v21q0 16 5.5 21t20.5 9l136 43q72 22 114 62t42 115v94q0 81 -45.5 123.5t-130.5 42.5h-295
q-19 0 -27.5 -8.5t-8.5 -27.5v-117q0 -19 8.5 -27.5t27.5 -8.5h217q15 0 21 -5.5t6 -20.5q0 -16 -5.5 -24t-21.5 -12l-134 -42q-34 -10 -63 -24t-50 -38t-32.5 -61.5t-11.5 -95.5v-172q0 -19 8.5 -27.5t27.5 -8.5h476zM319 328l233 77q13 5 21 16.5t8 30.5v91q0 46 -26 61.5
t-71 15.5h-201v10h201q51 0 79 -18.5t28 -68.5v-91q0 -23 -9.5 -36t-25.5 -20l-233 -77q-28 -10 -39 -24.5t-11 -48.5v-146h340v-10h-349v156q0 37 12 54.5t43 27.5z" />
    <glyph glyph-name="three" unicode="3" horiz-adv-x="737" 
d="M71 -119q-24 0 -35 11t-11 35v117q0 13 3.5 22t10.5 15l93 78q-13 4 -19.5 14.5t-6.5 28.5v107q0 13 3.5 22t10.5 15l76 64h-125q-24 0 -35 11t-11 35v119q0 13 3.5 22t10.5 15l129 109q5 4 13.5 6.5t18.5 2.5h279q89 0 131.5 -42t42.5 -111v-58q0 -33 -9 -58.5
t-29 -42.5l-2 -2q59 -13 83 -50t24 -100v-100q0 -42 -14 -75.5t-42 -56.5l-128 -108q-25 -22 -62.5 -33.5t-86.5 -11.5h-316zM200 189q-19 0 -27.5 -8.5t-8.5 -27.5v-117q0 -19 8.5 -27.5t27.5 -8.5h316q96 0 145 44.5t49 121.5v100q0 66 -27.5 101.5t-98.5 43.5
q33 14 46 42t13 66v58q0 66 -40.5 104.5t-123.5 38.5h-279q-19 0 -27.5 -8.5t-8.5 -27.5v-119q0 -19 8.5 -27.5t27.5 -8.5h186q24 0 31 -9t7 -21v-15q0 -12 -7 -21t-31 -9h-105q-19 0 -27.5 -8.5t-8.5 -27.5v-107q0 -19 8.5 -27.5t27.5 -8.5h170q24 0 31 -8.5t7 -20.5v-27
q0 -12 -7 -21t-31 -9h-251zM335 359v10h83q38 0 60 7.5t33.5 20t14.5 29t3 34.5v68q0 39 -24 65.5t-97 26.5h-154v10h154q41 0 67 -8.5t40 -23t19 -33.5t5 -41v-64q0 -28 -10.5 -55.5t-55.5 -37.5h16q62 0 89 -28t27 -80v-69q0 -22 -5 -40.5t-18.5 -31.5t-39.5 -20.5
t-68 -7.5h-220v10h220q75 0 98 24.5t23 65.5v69q0 50 -25.5 75t-82.5 25h-152z" />
    <glyph glyph-name="four" unicode="4" horiz-adv-x="809" 
d="M590 -119h-154q-24 0 -35 11t-11 35v121h-159q-103 0 -147.5 58t-44.5 148v321q0 13 3.5 22t10.5 15l129 109q5 4 13.5 6.5t18.5 2.5h155q24 0 35 -11t11 -35v-63l118 100q5 4 13.5 6.5t18.5 2.5h154q24 0 35 -11t11 -35v-648q0 -13 -3.5 -22t-10.5 -15l-130 -108
q-4 -4 -12.5 -7t-18.5 -3zM529 167v-131q0 -19 8.5 -27.5t27.5 -8.5h154q19 0 27.5 8.5t8.5 27.5v648q0 19 -8.5 27.5t-27.5 8.5h-154q-19 0 -27.5 -8.5t-8.5 -27.5v-308h-93q-14 0 -22.5 9t-8.5 25v274q0 19 -8.5 27.5t-27.5 8.5h-155q-19 0 -27.5 -8.5t-8.5 -27.5v-351
q0 -85 42.5 -125.5t139.5 -40.5h169zM637 90v177h-239q-57 0 -84 26.5t-27 78.5v258h10v-258q0 -48 25 -71.5t76 -23.5h239v353h10v-540h-10z" />
    <glyph glyph-name="five" unicode="5" horiz-adv-x="747" 
d="M77 -119q-24 0 -35 11t-11 35v117q0 13 3.5 22t10.5 15l88 74h-46q-24 0 -35 11t-11 35v374q0 13 3.5 22t10.5 15l129 109q5 4 13.5 6.5t18.5 2.5h431q24 0 35 -11t11 -35v-119q0 -13 -3.5 -22t-10.5 -15l-72 -61q57 -13 89.5 -54t32.5 -108v-139q0 -40 -14.5 -73.5
t-42.5 -56.5l-130 -109q-26 -22 -63.5 -34t-83.5 -12h-318zM524 0q90 0 142.5 45t52.5 121v139q0 79 -47 119t-128 40h-137v65h240q19 0 27.5 8.5t8.5 27.5v119q0 19 -8.5 27.5t-27.5 8.5h-431q-19 0 -27.5 -8.5t-8.5 -27.5v-374q0 -19 8.5 -27.5t27.5 -8.5h248
q12 0 19.5 -5.5t7.5 -17.5v-39q0 -12 -7.5 -17.5t-19.5 -5.5h-258q-19 0 -27.5 -8.5t-8.5 -27.5v-117q0 -19 8.5 -27.5t27.5 -8.5h318zM260 90v10h236q56 0 80 21t24 67v88q0 47 -24.5 67.5t-70.5 20.5h-216v266h304v-10h-294v-246h206q52 0 78.5 -23.5t26.5 -74.5v-88
q0 -51 -26 -74.5t-88 -23.5h-236z" />
    <glyph glyph-name="six" unicode="6" horiz-adv-x="793" 
d="M344 -134q-96 0 -157 20t-95 53.5t-46 77.5t-12 91v298q0 51 14.5 93t48.5 70l129 109q29 25 76.5 38.5t116.5 13.5h230q25 0 35.5 -11t10.5 -35v-118q0 -13 -3.5 -22t-10.5 -15l-73 -61q93 -13 128 -60t35 -125v-96q0 -47 -13 -86t-47 -67l-130 -109
q-33 -28 -90.5 -43.5t-146.5 -15.5zM473 -15q86 0 142 14.5t88.5 41t45 63.5t12.5 83v96q0 89 -50 134.5t-185 45.5q-40 0 -71.5 -4t-55.5 -11v22q0 37 13 48.5t50 11.5h187q19 0 27.5 8.5t8.5 27.5v118q0 19 -8.5 27.5t-27.5 8.5h-230q-141 0 -193.5 -57t-52.5 -148v-328
q0 -46 12.5 -83t45.5 -63.5t91.5 -41t150.5 -14.5zM476 71q-40 0 -75 3.5t-61 15.5t-40.5 35.5t-14.5 61.5v328q0 66 35.5 90.5t98.5 24.5h176v-10h-176q-57 0 -90.5 -21.5t-33.5 -83.5v-188q18 40 68 48t116 8q37 0 68.5 -2.5t55 -13t37 -32.5t13.5 -60v-88
q0 -38 -13.5 -61t-37.5 -35t-56.5 -16t-69.5 -4zM476 81q34 0 64.5 3t53.5 14t36 32.5t13 56.5v88q0 36 -13.5 56t-35.5 29.5t-52 11t-63 1.5t-66 -1t-59 -10t-42.5 -28.5t-16.5 -55.5v-91q0 -36 14.5 -57.5t39 -32t57.5 -13.5t70 -3zM399 262q0 15 12 25.5t55 10.5
q45 0 57 -10.5t12 -25.5v-59q0 -16 -12 -26.5t-57 -10.5q-43 0 -55 10.5t-12 26.5v59z" />
    <glyph glyph-name="seven" unicode="7" horiz-adv-x="727" 
d="M295 -119h-162q-24 0 -35 11t-11 35v181q0 59 14.5 96.5t42.5 61.5l129 109q10 8 23 15.5t28 14.5v3h-264q-24 0 -35 11t-11 35v121q0 13 3.5 22t10.5 15l129 109q5 4 13.5 6.5t18.5 2.5h465q24 0 35 -11t11 -35v-253q0 -59 -14.5 -96t-42.5 -62l-130 -108
q-9 -7 -19.5 -14t-23.5 -13v-102q0 -13 -3.5 -22t-10.5 -15l-130 -108q-4 -4 -12.5 -7t-18.5 -3zM654 720h-465q-19 0 -27.5 -8.5t-8.5 -27.5v-121q0 -19 8.5 -27.5t27.5 -8.5h274v-90l-81 -22q-40 -12 -69.5 -26.5t-48.5 -36.5t-28.5 -55t-9.5 -80v-181q0 -19 8.5 -27.5
t27.5 -8.5h162q19 0 27.5 8.5t8.5 27.5v175l74 22q40 12 69.5 26.5t48.5 36.5t28.5 55t9.5 80v253q0 19 -8.5 27.5t-27.5 8.5zM338 90v150q0 23 9.5 36t25.5 20l170 68q15 6 22 16.5t7 29.5v210h-329v10h339v-220q0 -23 -8.5 -36t-26.5 -20l-170 -68q-13 -5 -21 -16t-8 -30
v-150h-10z" />
    <glyph glyph-name="eight" unicode="8" horiz-adv-x="811" 
d="M342 -134q-95 0 -157 17t-98 45t-50 65t-14 77v77q0 49 14.5 83t38.5 54l31 26q-20 17 -28.5 42.5t-8.5 57.5v58q0 35 11 64.5t37 50.5l129 109q30 25 84.5 39t140.5 14q80 0 132.5 -12t83 -34t42.5 -53t12 -69v-58q0 -33 -9 -58.5t-29 -42.5l-5 -4q39 -15 64.5 -53.5
t25.5 -104.5v-97q0 -37 -12 -68t-40 -55l-129 -108q-34 -29 -98.5 -45.5t-167.5 -16.5zM779 256q0 70 -30.5 108t-75.5 47q33 14 46 42t13 66v58q0 37 -12.5 66t-42 49.5t-80 31.5t-125.5 11t-126 -11t-81 -31.5t-43 -49.5t-13 -66v-58q0 -38 13 -66t46 -42
q-45 -9 -75.5 -47t-30.5 -108v-97q0 -39 14.5 -71t49.5 -55t95 -35.5t150 -12.5t149.5 12.5t94.5 35.5t49.5 55t14.5 71v97zM471 67q-60 0 -99.5 8t-62.5 22t-32 33.5t-9 42.5v92q0 38 27.5 66t99.5 38q-48 8 -69.5 29.5t-21.5 56.5v103q0 46 40 70t127 24t126.5 -25
t39.5 -77v-95q0 -35 -21 -56.5t-69 -29.5q72 -10 99 -37.5t27 -65.5v-93q0 -23 -9 -42.5t-31.5 -33.5t-62 -22t-99.5 -8zM314 558v-103q0 -43 39 -62t118 -19t117.5 19t38.5 62v95q0 49 -39 70.5t-117 21.5t-117.5 -20.5t-39.5 -63.5zM408 480v44q0 15 10.5 25.5t52.5 10.5
q43 0 52.5 -10.5t9.5 -25.5v-44q0 -16 -9.5 -26.5t-52.5 -10.5q-42 0 -52.5 10.5t-10.5 26.5zM278 265v-92q0 -43 42.5 -69.5t150.5 -26.5t150 26.5t42 69.5v93q0 43 -42.5 70.5t-149.5 27.5t-150 -28t-43 -71zM383 197v53q0 15 17 25.5t71 10.5t70.5 -10.5t16.5 -25.5v-53
q0 -16 -16.5 -26.5t-70.5 -10.5t-71 10.5t-17 26.5z" />
    <glyph glyph-name="nine" unicode="9" horiz-adv-x="793" 
d="M145 -119q-25 0 -35.5 11t-10.5 35v118q0 13 3.5 22t10.5 15l73 62q-93 13 -128 59.5t-35 124.5v96q0 48 13 87t47 67l129 108q33 28 90.5 43.5t147.5 15.5q96 0 157 -15.5t95 -43.5t46 -67t12 -86v-328q0 -51 -14.5 -92.5t-48.5 -70.5l-130 -108q-29 -25 -76.5 -39
t-115.5 -14h-230zM504 0q141 0 193.5 57t52.5 148v328q0 46 -12.5 83t-45.5 63.5t-91.5 41t-150.5 14.5q-86 0 -142 -14.5t-88.5 -41t-45 -63.5t-12.5 -83v-96q0 -89 50 -134.5t185 -45.5q40 0 71.5 4t55.5 11v-22q0 -37 -13 -48.5t-50 -11.5h-187q-19 0 -27.5 -8.5
t-8.5 -27.5v-118q0 -19 8.5 -27.5t27.5 -8.5h230zM328 90v10h176q57 0 90.5 21.5t33.5 83.5v188q-18 -40 -68 -48t-116 -8q-37 0 -68.5 2.5t-55 13t-37 32.5t-13.5 60v88q0 38 13.5 61t37.5 35t56.5 16t69.5 4q40 0 75 -3.5t61 -15.5t40.5 -35.5t14.5 -61.5v-328
q0 -66 -35.5 -90.5t-98.5 -24.5h-176zM444 347q33 0 66 1t59 10t42.5 28.5t16.5 55.5v91q0 36 -14.5 57.5t-39 32t-57.5 13.5t-70 3q-34 0 -64.5 -3t-53.5 -14t-36 -32.5t-13 -56.5v-88q0 -36 13.5 -56t35.5 -29.5t52 -11t63 -1.5zM524 458q0 -15 -12 -25.5t-55 -10.5
q-45 0 -57 10.5t-12 25.5v59q0 16 12 26.5t57 10.5q43 0 55 -10.5t12 -26.5v-59z" />
    <glyph glyph-name="colon" unicode=":" horiz-adv-x="484" 
d="M279 -119h-202q-24 0 -35 11t-11 35v203q0 13 3.5 22.5t9.5 14.5l82 69h-49q-24 0 -35 11t-11 35v203q0 13 3.5 22.5t9.5 14.5l130 109q5 4 13 6.5t19 2.5h202q24 0 35 -10.5t11 -35.5v-203q0 -13 -3.5 -22t-10.5 -15l-83 -69h51q24 0 35 -10.5t11 -35.5v-203
q0 -13 -3.5 -22t-10.5 -15l-130 -108q-4 -4 -12.5 -7t-18.5 -3zM408 355q19 0 27.5 8.5t8.5 27.5v203q0 19 -8.5 27.5t-27.5 8.5h-202q-19 0 -27.5 -8.5t-8.5 -27.5v-203q0 -19 8.5 -27.5t27.5 -8.5h202zM302 445v95h10v-95h-10zM408 0q19 0 27.5 8.5t8.5 27.5v203
q0 19 -8.5 27.5t-27.5 8.5h-202q-19 0 -27.5 -8.5t-8.5 -27.5v-203q0 -19 8.5 -27.5t27.5 -8.5h202zM302 90v95h10v-95h-10z" />
    <glyph glyph-name="semicolon" unicode=";" horiz-adv-x="484" 
d="M167 -219h-77q-24 0 -35 10.5t-11 35.5v40q0 13 3.5 22t10.5 15l38 32h-19q-24 0 -35 11t-11 35v148q0 13 3.5 22t10.5 15l82 69h-50q-24 0 -35 11t-11 35v203q0 13 3.5 22.5t9.5 14.5l130 109q5 4 13 6.5t19 2.5h202q24 0 35 -10.5t11 -35.5v-203q0 -13 -3.5 -22
t-10.5 -15l-83 -69h51q24 0 35 -11t11 -35v-188q0 -44 -13.5 -75.5t-36.5 -51.5l-130 -109q-19 -16 -46.5 -25t-60.5 -9zM408 355q19 0 27.5 8.5t8.5 27.5v203q0 19 -8.5 27.5t-27.5 8.5h-202q-19 0 -27.5 -8.5t-8.5 -27.5v-203q0 -19 8.5 -27.5t27.5 -8.5h202zM302 445v95
h10v-95h-10zM296 -100q67 0 107.5 37.5t40.5 113.5v188q0 19 -8.5 27.5t-27.5 8.5h-202q-19 0 -27.5 -8.5t-8.5 -27.5v-148q0 -19 8.5 -27.5t27.5 -8.5h109v-15q0 -13 -7 -20.5t-20 -7.5h-69q-19 0 -27.5 -8.5t-8.5 -27.5v-40q0 -19 8.5 -27.5t27.5 -8.5h77zM374 170v-119
q0 -46 -24 -68.5t-64 -22.5h-46v10h46q36 0 57 20.5t21 60.5v109h-124v10h134z" />
    <glyph glyph-name="less" unicode="&#x3c;" horiz-adv-x="814" 
d="M607 -54q-5 -4 -14 -6t-21 0l-382 109q-66 19 -100 53t-34 112v72q0 46 12 75.5t35 48.5l129 109q16 13 38 23t49 18l382 109q25 4 36.5 -5.5t11.5 -35.5v-132q0 -14 -4 -23.5t-11 -15.5l-130 -109q-5 -4 -12 -7t-15 -5l-55 -14l183 -49q23 -4 33.5 -15.5t10.5 -35.5
v-132q0 -13 -3.5 -21.5t-9.5 -13.5zM703 59q19 -4 27.5 4t8.5 27v132q0 19 -8.5 28.5t-27.5 12.5l-287 77q-10 2 -13.5 6t-3.5 13t3.5 13t13.5 6l287 77q19 3 27.5 12.5t8.5 28.5v132q0 19 -8.5 27t-27.5 4l-381 -109q-62 -18 -94.5 -49.5t-32.5 -105.5v-72
q0 -74 32.5 -105.5t94.5 -49.5zM649 176v-10l-300 86q-25 7 -41.5 22.5t-16.5 48.5v72q0 33 16.5 47t41.5 21l300 86v-10l-298 -86q-21 -6 -35.5 -18t-14.5 -40v-72q0 -28 14.5 -41.5t35.5 -19.5z" />
    <glyph glyph-name="equal" unicode="=" horiz-adv-x="834" 
d="M614 -2h-522q-24 0 -35 10.5t-11 35.5v114q0 13 3.5 22t10.5 15l122 103h-90q-24 0 -35 10.5t-11 35.5v114q0 13 3.5 22t10.5 15l129 109q5 4 13.5 6.5t18.5 2.5h522q24 0 35 -10.5t11 -35.5v-114q0 -13 -3.5 -22t-10.5 -15l-122 -103h90q24 0 35 -10.5t11 -35.5v-114
q0 -13 -3.5 -22t-10.5 -15l-129 -109q-6 -4 -14 -6.5t-18 -2.5zM221 417h522q19 0 27.5 8.5t8.5 27.5v114q0 19 -8.5 27.5t-27.5 8.5h-522q-19 0 -27.5 -8.5t-8.5 -27.5v-114q0 -19 8.5 -27.5t27.5 -8.5zM275 505v10h414v-10h-414zM221 117h522q19 0 27.5 8.5t8.5 27.5v114
q0 19 -8.5 27.5t-27.5 8.5h-522q-19 0 -27.5 -8.5t-8.5 -27.5v-114q0 -19 8.5 -27.5t27.5 -8.5zM275 205v10h414v-10h-414z" />
    <glyph glyph-name="greater" unicode="&#x3e;" horiz-adv-x="814" 
d="M114 -60q-25 -4 -36.5 5.5t-11.5 35.5v132q0 14 4 23.5t11 16.5l129 108q5 4 12 7t16 5l55 14l-183 49q-23 4 -33.5 15.5t-10.5 35.5v132q0 13 3 22t9 14l130 108q5 4 14 6t21 0h1l381 -109q66 -19 100 -53t34 -112v-72q0 -46 -12.5 -75.5t-34.5 -48.5l-130 -109
q-15 -13 -36.5 -22.5t-49.5 -18.5zM622 168q62 18 94.5 49.5t32.5 105.5v72q0 74 -32.5 105.5t-94.5 49.5l-381 109q-19 4 -27.5 -4t-8.5 -27v-132q0 -19 8.5 -28.5t27.5 -12.5l287 -77q10 -2 13.5 -6t3.5 -13t-3.5 -13t-13.5 -6l-287 -77q-19 -3 -27.5 -12.5t-8.5 -28.5
v-132q0 -19 8.5 -27t27.5 -4zM595 252l-300 -86v10l298 86q21 6 35.5 19.5t14.5 41.5v72q0 28 -14.5 40t-35.5 18l-298 86v10l300 -86q25 -7 41.5 -21t16.5 -47v-72q0 -33 -16.5 -48.5t-41.5 -22.5z" />
    <glyph glyph-name="question" unicode="?" horiz-adv-x="756" 
d="M330 -119h-183q-25 0 -35.5 11t-10.5 35v131q0 14 3 23.5t10 13.5l29 25q-8 4 -13.5 12.5t-7.5 23.5l-21 132q-3 15 0.5 25.5t11.5 17.5l92 77h-138q-24 0 -35 10.5t-11 35.5v121q0 13 3.5 22t10.5 15l129 109q5 4 13.5 6.5t18.5 2.5h323q102 0 159.5 -48t57.5 -138v-105
q0 -48 -13.5 -80.5t-38.5 -53.5l-129 -108q-11 -9 -23.5 -16t-26.5 -12v-133q0 -13 -3.5 -22t-10.5 -15l-130 -108q-4 -4 -12.5 -7t-18.5 -3zM571 273q71 10 113 46t42 120v105q0 85 -55 130.5t-152 45.5h-323q-19 0 -27.5 -8.5t-8.5 -27.5v-121q0 -19 8.5 -27.5t27.5 -8.5
h276q13 0 20 -7t7 -21q0 -15 -6 -22t-21 -9l-199 -28q-19 -2 -27.5 -12t-5.5 -29l21 -132q3 -19 11.5 -26t27.5 -5zM340 340l-2 11l216 29q19 3 34 10.5t15 33.5v113q0 49 -26.5 65t-57.5 16h-269v10h269q34 0 64 -18.5t30 -72.5v-113q0 -31 -17 -41t-40 -13zM459 0
q19 0 27.5 8.5t8.5 27.5v131q0 19 -8.5 27.5t-27.5 8.5h-183q-19 0 -27.5 -8.5t-8.5 -27.5v-131q0 -19 8.5 -27.5t27.5 -8.5h183zM363 80v43h10v-43h-10z" />
    <glyph glyph-name="at" unicode="@" horiz-adv-x="967" 
d="M610 -210h-190q-116 0 -191 25t-118 66t-59 94.5t-16 109.5v370q0 55 16 101.5t56 80.5l130 109q42 35 117 55t194 20q117 0 192 -19t117 -53t58 -81.5t16 -103.5v-260q0 -54 -12 -97t-46 -71l-129 -108q-4 -3 -9 -6.5t-9 -6.5h12q24 0 34 -10t10 -34v-28q0 -13 -3 -21.5
t-9 -13.5l-1 -1l-129 -108q-5 -4 -13 -6.5t-18 -2.5zM285 568v-81l84 71q17 14 43 24t63 13q-13 1 -26.5 1h-28.5q-40 0 -74 -2.5t-60 -7.5q-1 -4 -1 -9v-9zM739 -91q19 0 26.5 7.5t7.5 26.5v28q0 19 -7.5 26.5t-26.5 7.5h-190q-82 0 -135.5 10.5t-84 29.5t-42.5 46t-12 59
v418q0 32 12 59.5t42.5 46.5t84 30t135.5 11t135.5 -11t83.5 -30t42 -46.5t12 -59.5v-266q0 -40 -11.5 -65.5t-50.5 -25.5v349q0 13 -6.5 19.5t-19.5 6.5h-225q-101 0 -138.5 -40.5t-37.5 -106.5v-193q0 -65 37.5 -105.5t138.5 -40.5h189q70 0 114 15t68.5 41.5t33 64
t8.5 83.5v260q0 55 -16 100.5t-57.5 78t-114.5 50.5t-185 18t-185 -18t-114.5 -50.5t-58 -78t-16.5 -100.5v-410q0 -54 16.5 -99.5t58 -77.5t114.5 -50t185 -18h190zM549 -50q-109 0 -174.5 16.5t-99.5 44.5t-44.5 64t-10.5 75v418q0 39 10.5 75.5t44.5 64t99.5 44
t174.5 16.5t174.5 -16.5t99 -44t44 -64t10.5 -75.5v-266q0 -75 -27 -108.5t-90 -33.5h-262q-49 0 -69 23.5t-20 77.5v161q0 20 2 39t14.5 33.5t39 23.5t75.5 9h144v-357h76q58 0 82.5 31.5t24.5 100.5v266q0 38 -10.5 72.5t-44 60.5t-96.5 41.5t-167 15.5t-167 -15.5
t-96.5 -41.5t-44.5 -60.5t-11 -72.5v-418q0 -37 10.5 -71.5t44 -61t97 -42t167.5 -15.5h174v-10h-174zM498 170h176v347h-134q-44 0 -68.5 -8t-36 -21t-14 -30.5t-2.5 -35.5v-161q0 -48 17.5 -69.5t61.5 -21.5zM530 237q-20 0 -27 9.5t-7 24.5v151q0 13 8 24.5t36 11.5h57
v-221h-67z" />
    <glyph glyph-name="A" unicode="A" horiz-adv-x="830" 
d="M285 303v-31h390v31q0 27 -4.5 50t-11.5 43l-69 163q-11 26 -23 43.5t-40 17.5h-98q-30 0 -42 -17.5t-22 -42.5l-64 -164q-7 -20 -11.5 -43t-4.5 -50zM445 510q4 9 8.5 13t10.5 4h25q6 0 10.5 -4t8.5 -13l47 -152h-157zM675 90v172h-390v-172h-10v213q0 28 4.5 51.5
t12.5 45.5l64 164q11 28 25 47t48 19h98q33 0 46.5 -19t25.5 -48l69 -163q8 -22 12.5 -45.5t4.5 -51.5v-213h-10zM388 36v140h177v-140q0 -19 9.5 -27.5t29.5 -8.5h151q19 0 27.5 8.5t8.5 27.5v264q0 30 -9.5 69t-29.5 91l-87 227q-6 17 -18.5 25t-31.5 8h-269
q-20 0 -32.5 -8t-18.5 -25l-87 -227q-20 -52 -29.5 -91t-9.5 -69v-264q0 -19 8.5 -27.5t27.5 -8.5h147q19 0 27.5 8.5t8.5 27.5zM254 -109q-4 -4 -12.5 -7t-18.5 -3h-147q-24 0 -35 11t-11 35v264q0 31 9.5 70.5t30.5 93.5l86 226q3 9 7.5 15.5t9.5 11.5l1 1l128 107
q8 7 19 10.5t25 3.5h269q23 0 37.5 -9.5t21.5 -29.5l87 -227q21 -54 30.5 -93.5t9.5 -70.5v-264q0 -13 -3.5 -22t-10.5 -15l-130 -108q-4 -4 -12.5 -7t-18.5 -3h-151q-25 0 -37 11.5t-12 34.5v130h-28v-21q0 -13 -3.5 -22t-10.5 -15z" />
    <glyph glyph-name="B" unicode="B" horiz-adv-x="825" 
d="M91 -119q-24 0 -35 11t-11 35v648q0 13 3.5 22t10.5 15l129 109q5 4 13.5 6.5t18.5 2.5h319q104 0 153 -40.5t49 -122.5v-48q0 -35 -9.5 -60t-28.5 -40l-3 -2q54 -12 81 -51.5t27 -109.5v-92q0 -45 -13 -77.5t-39 -54.5l-129 -109q-25 -21 -63 -31.5t-89 -10.5h-384z
M604 0q99 0 146.5 40t47.5 124v92q0 73 -31 111t-95 44q30 13 44.5 39.5t14.5 68.5v48q0 78 -47 115.5t-145 37.5h-319q-19 0 -27.5 -8.5t-8.5 -27.5v-648q0 -19 8.5 -27.5t27.5 -8.5h384zM564 90h-269v540h203q41 0 67 -8.5t40 -23t19 -33.5t5 -41v-64q0 -30 -10.5 -55
t-53.5 -36q41 0 67 -8.5t40 -24t18.5 -36.5t4.5 -46v-64q0 -22 -5 -40.5t-18.5 -31.5t-39.5 -20.5t-68 -7.5zM498 620h-193v-251h193q41 0 65 7.5t36.5 20t16 29t3.5 34.5v64q0 40 -23 68t-98 28zM409 550h85q19 0 28.5 -10t9.5 -30v-28q0 -20 -9.5 -30t-28.5 -10h-85v108z
M565 359h-260v-259h259q75 0 98 24.5t23 65.5v64q0 45 -22.5 75t-97.5 30zM409 288h130q19 0 28.5 -9.5t9.5 -29.5v-39q0 -20 -9.5 -30t-28.5 -10h-130v118z" />
    <glyph glyph-name="C" unicode="C" horiz-adv-x="728" 
d="M534 -119h-244q-131 0 -193.5 68t-62.5 176v281q0 55 16 95.5t47 67.5l130 109q31 26 79 39t113 13h244q24 0 35 -11t11 -35v-121q0 -13 -3.5 -22t-10.5 -15l-130 -108q-4 -4 -12.5 -7t-18.5 -3h-123v-169q0 -21 13 -29.5t38 -8.5h201q24 0 35 -11t11 -35v-119
q0 -13 -3.5 -22t-10.5 -15l-130 -108q-4 -4 -12.5 -7t-18.5 -3zM663 0q19 0 27.5 8.5t8.5 27.5v119q0 19 -8.5 27.5t-27.5 8.5h-201q-31 0 -46 11.5t-15 36.5v238q0 25 15 37.5t46 12.5h201q19 0 27.5 8.5t8.5 27.5v121q0 19 -8.5 27.5t-27.5 8.5h-244q-125 0 -185.5 -50.5
t-60.5 -154.5v-311q0 -104 60.5 -154t185.5 -50h244zM608 100v-10h-167q-97 0 -128.5 30t-31.5 99v280q0 71 32 101t128 30h167v-10h-167q-88 0 -119 -27.5t-31 -93.5v-280q0 -65 30 -92t120 -27h167z" />
    <glyph glyph-name="D" unicode="D" horiz-adv-x="846" 
d="M620 -66q-31 -26 -79 -39.5t-113 -13.5h-337q-24 0 -35 11t-11 35v648q0 13 3.5 22t10.5 15l129 109q5 4 13.5 6.5t18.5 2.5h337q131 0 193.5 -53t62.5 -161v-312q0 -54 -16 -94.5t-47 -67.5zM557 0q125 0 185.5 50t60.5 154v312q0 104 -60.5 154t-185.5 50h-337
q-19 0 -27.5 -8.5t-8.5 -27.5v-648q0 -19 8.5 -27.5t27.5 -8.5h337zM293 90v540h242q51 0 82.5 -11t48.5 -29.5t23 -44t6 -54.5v-265q0 -29 -5.5 -54t-22.5 -43t-49 -28.5t-83 -10.5h-242zM535 620h-232v-520h232q48 0 77.5 9.5t45.5 26t21.5 40t5.5 50.5v265q0 27 -6 51
t-22 41t-45.5 27t-76.5 10zM411 529h119q24 0 35.5 -11.5t11.5 -36.5v-243q0 -25 -11.5 -37t-35.5 -12h-119v340zM438 372q0 13 -4 22t-13 13v-208h17v173z" />
    <glyph glyph-name="E" unicode="E" horiz-adv-x="754" 
d="M555 -119h-464q-24 0 -35 11t-11 35v648q0 13 3.5 22t10.5 15l129 109q5 4 13.5 6.5t18.5 2.5h464q24 0 35 -11t11 -35v-117q0 -13 -3.5 -22t-10.5 -15l-86 -71q10 -5 14.5 -15t4.5 -26v-107q0 -13 -3.5 -22t-10.5 -15l-89 -75h138q24 0 35 -11t11 -35v-117
q0 -13 -3.5 -22t-10.5 -15l-130 -108q-4 -4 -12.5 -7t-18.5 -3zM684 0q19 0 27.5 8.5t8.5 27.5v117q0 19 -8.5 27.5t-27.5 8.5h-276v86h195q19 0 27.5 8.5t8.5 27.5v107q0 19 -8.5 27.5t-27.5 8.5h-195v77h276q19 0 27.5 8.5t8.5 27.5v117q0 19 -8.5 27.5t-27.5 8.5h-464
q-19 0 -27.5 -8.5t-8.5 -27.5v-648q0 -19 8.5 -27.5t27.5 -8.5h464zM630 100v-10h-337v540h337v-10h-327v-251h246v-10h-246v-259h327z" />
    <glyph glyph-name="F" unicode="F" horiz-adv-x="718" 
d="M246 -119h-155q-24 0 -35 11t-11 35v648q0 13 3.5 22t10.5 15l129 109q5 4 13.5 6.5t18.5 2.5h446q24 0 35 -11t11 -35v-119q0 -13 -3.5 -22t-10.5 -15l-112 -93q23 0 34 -11t11 -35v-120q0 -13 -3.5 -22t-10.5 -15l-130 -108q-4 -4 -12.5 -7t-18.5 -3h-35v-78
q0 -13 -3.5 -22t-10.5 -15l-130 -108q-4 -4 -12.5 -7t-18.5 -3zM375 0q19 0 27.5 8.5t8.5 27.5v197h174q19 0 27.5 8.5t8.5 27.5v120q0 19 -8.5 27.5t-27.5 8.5h-174v104h255q19 0 27.5 8.5t8.5 27.5v119q0 19 -8.5 27.5t-27.5 8.5h-446q-19 0 -27.5 -8.5t-8.5 -27.5v-648
q0 -19 8.5 -27.5t27.5 -8.5h155zM293 90v540h319v-10h-309v-286h228v-10h-228v-234h-10z" />
    <glyph glyph-name="G" unicode="G" horiz-adv-x="808" 
d="M605 -119h-315q-131 0 -193.5 68t-62.5 176v282q0 55 16 95t47 67l129 109q31 26 79.5 39t113.5 13h250q24 0 35 -11t11 -35v-121q0 -13 -3.5 -22t-10.5 -15l-130 -108q-4 -4 -12.5 -7t-18.5 -3h-130v-144q1 2 3.5 4.5l4.5 4.5l129 109q5 4 13.5 6.5t18.5 2.5h155
q24 0 35 -11t11 -35v-309q0 -13 -3.5 -22t-10.5 -15l-130 -108q-4 -4 -12.5 -7t-18.5 -3zM734 0q19 0 27.5 8.5t8.5 27.5v309q0 19 -8.5 27.5t-27.5 8.5h-155q-19 0 -27.5 -8.5t-8.5 -27.5v-156h-97q-23 0 -34.5 12t-11.5 37v239q0 25 15 37.5t46 12.5h208q19 0 27.5 8.5
t8.5 27.5v121q0 19 -8.5 27.5t-27.5 8.5h-250q-125 0 -185.5 -50t-60.5 -154v-312q0 -104 60.5 -154t185.5 -50h315zM462 90q-55 0 -90 7t-55 22.5t-27.5 40t-7.5 59.5v280q0 71 32 101t128 30h173v-10h-173q-88 0 -119 -27.5t-31 -93.5v-280q0 -65 34.5 -92t135.5 -27h189
v191h10v-201h-199z" />
    <glyph glyph-name="H" unicode="H" horiz-adv-x="859" 
d="M292 90v540h10v-265h384v265h10v-540h-10v265h-384v-265h-10zM375 0q19 0 27.5 8.5t8.5 27.5v222h167v-222q0 -19 8.5 -27.5t27.5 -8.5h155q19 0 27.5 8.5t8.5 27.5v648q0 19 -8.5 27.5t-27.5 8.5h-155q-19 0 -27.5 -8.5t-8.5 -27.5v-217h-167v217q0 19 -8.5 27.5
t-27.5 8.5h-155q-19 0 -27.5 -8.5t-8.5 -27.5v-648q0 -19 8.5 -27.5t27.5 -8.5h155zM407 -1l-130 -108q-4 -4 -12.5 -7t-18.5 -3h-155q-24 0 -35 11t-11 35v648q0 13 3.5 22t10.5 15l129 109q5 4 13.5 6.5t18.5 2.5h155q24 0 35 -11t11 -35v-207h18v98q0 13 3.5 22t10.5 15
l129 109q5 4 13.5 6.5t18.5 2.5h155q24 0 35 -11t11 -35v-648q0 -13 -3.5 -22t-10.5 -15l-130 -108q-4 -4 -12.5 -7t-18.5 -3h-155q-24 0 -35 11t-11 35v212h-18v-103q0 -13 -3.5 -22t-10.5 -15z" />
    <glyph glyph-name="I" unicode="I" horiz-adv-x="705" 
d="M501 -119h-426q-24 0 -35 11t-11 35v119q0 13 3.5 22t10.5 15l121 102v223h-89q-24 0 -35 11t-11 35v121q0 13 3.5 22t10.5 15l129 109q5 4 13.5 6.5t18.5 2.5h426q24 0 35 -11t11 -35v-121q0 -13 -3.5 -22t-10.5 -15l-119 -100v-225h87q24 0 35 -11t11 -35v-119
q0 -13 -3.5 -22t-10.5 -15l-130 -108q-4 -4 -12.5 -7t-18.5 -3zM204 0h426q19 0 27.5 8.5t8.5 27.5v119q0 19 -8.5 27.5t-27.5 8.5h-97v336h97q19 0 27.5 8.5t8.5 27.5v121q0 19 -8.5 27.5t-27.5 8.5h-426q-19 0 -27.5 -8.5t-8.5 -27.5v-121q0 -19 8.5 -27.5t27.5 -8.5h99
v-336h-99q-19 0 -27.5 -8.5t-8.5 -27.5v-119q0 -19 8.5 -27.5t27.5 -8.5zM576 90h-318v10h155v520h-155v10h318v-10h-153v-520h153v-10z" />
    <glyph glyph-name="J" unicode="J" horiz-adv-x="788" 
d="M317 -134q-91 0 -149.5 20.5t-92 54.5t-46 78t-12.5 91v132q0 13 3.5 22.5t9.5 14.5l130 109q5 4 13 6.5t19 2.5h145q11 0 19.5 -2.5t14.5 -7.5v188q0 13 3.5 22t10.5 15l129 109q5 4 13.5 6.5t18.5 2.5h157q24 0 35 -11t11 -35v-495q0 -47 -13.5 -86.5t-47.5 -67.5
l-129 -109q-34 -28 -92 -44t-150 -16zM739 189v495q0 19 -8.5 27.5t-27.5 8.5h-157q-19 0 -27.5 -8.5t-8.5 -27.5v-455q0 -20 -11.5 -33.5t-54.5 -13.5q-46 0 -58.5 13.5t-12.5 33.5v122q0 19 -8.5 27.5t-27.5 8.5h-145q-19 0 -27.5 -8.5t-8.5 -27.5v-162q0 -46 12.5 -83.5
t45 -64t89 -41.5t143.5 -15q88 0 145 15t89.5 41.5t45.5 64t13 83.5zM619 630h10v-417q0 -59 -37.5 -97t-143.5 -38q-56 0 -92.5 10t-57.5 27.5t-29.5 42.5t-8.5 55v79h10v-79q0 -57 37.5 -91t140.5 -34q99 0 135 34.5t36 90.5v417z" />
    <glyph glyph-name="K" unicode="K" horiz-adv-x="846" 
d="M303 90h-10v540h10v-266h217l115 266h11l-115 -266h41q61 0 91 -23t30 -75v-176h-10v176q0 48 -28 68t-83 20h-269v-264zM375 0q19 0 27.5 8.5t8.5 27.5v229h132q16 0 24 -9t8 -25v-195q0 -19 8.5 -27.5t27.5 -8.5h154q19 0 27.5 8.5t8.5 27.5v282q0 60 -33.5 96.5
t-89.5 39.5l102 233q7 16 1 24.5t-23 8.5h-154q-19 0 -31 -7.5t-19 -25.5l-103 -233h-40v230q0 19 -8.5 27.5t-27.5 8.5h-155q-19 0 -27.5 -8.5t-8.5 -27.5v-648q0 -19 8.5 -27.5t27.5 -8.5h155zM407 -1l-130 -108q-4 -4 -12.5 -7t-18.5 -3h-155q-24 0 -35 11t-11 35v648
q0 13 3.5 22t10.5 15l129 109q5 4 13.5 6.5t18.5 2.5h155q24 0 35 -11t11 -35v-91q3 4 6 8.5t7 7.5l129 109q7 6 17.5 9t23.5 3h154q25 0 33 -12.5t-2 -34.5l-96 -220q54 -7 86 -46t32 -99v-282q0 -13 -3.5 -22t-10.5 -15l-130 -108q-4 -4 -12.5 -7t-18.5 -3h-154
q-24 0 -35 11t-11 35v195q0 10 -4 16t-11 7v-109q0 -13 -3.5 -22t-10.5 -15z" />
    <glyph glyph-name="L" unicode="L" horiz-adv-x="795" 
d="M600 -119h-509q-24 0 -35 11t-11 35v648q0 13 3.5 22t10.5 15l129 109q5 4 13.5 6.5t18.5 2.5h155q24 0 35 -11t11 -35v-407l2 2l129 109q5 4 13.5 6.5t18.5 2.5h145q24 0 35 -11t11 -35v-315q0 -13 -3.5 -22t-10.5 -15l-130 -108q-4 -4 -12.5 -7t-18.5 -3zM729 0
q19 0 27.5 8.5t8.5 27.5v315q0 19 -8.5 27.5t-27.5 8.5h-145q-19 0 -27.5 -8.5t-8.5 -27.5v-162h-137v495q0 19 -8.5 27.5t-27.5 8.5h-155q-19 0 -27.5 -8.5t-8.5 -27.5v-648q0 -19 8.5 -27.5t27.5 -8.5h509zM293 90v540h10v-530h348v197h10v-207h-368z" />
    <glyph glyph-name="M" unicode="M" horiz-adv-x="949" 
d="M536 385q18 0 26 8t25 34l122 186q6 10 13.5 13.5t15.5 3.5h17q14 0 20.5 -7.5t6.5 -23.5v-509h-10v509q0 8 -3.5 14.5t-13.5 6.5h-15q-7 0 -12 -2t-11 -12l-122 -184q-18 -27 -27.5 -37t-31.5 -10t-31.5 10t-27.5 37l-122 184q-6 10 -11.5 12t-12.5 2h-15
q-10 0 -13 -6.5t-3 -14.5v-509h-10v509q0 16 6.5 23.5t19.5 7.5h17q8 0 16 -3.5t14 -13.5l122 -186q17 -26 25 -34t26 -8zM369 0q19 0 27.5 8.5t8.5 27.5v352l59 -109q9 -17 21.5 -24.5t31.5 -7.5h40q19 0 31.5 7.5t21.5 24.5l59 109v-352q0 -19 8.5 -27.5t27.5 -8.5h154
q19 0 27.5 8.5t8.5 27.5v648q0 19 -8.5 27.5t-27.5 8.5h-162q-16 0 -26.5 -7t-19.5 -23l-89 -163q-5 -9 -8.5 -13t-9.5 -4h-9q-6 0 -9.5 4t-8.5 13l-90 163q-9 16 -19.5 23t-26.5 7h-161q-19 0 -27.5 -8.5t-8.5 -27.5v-648q0 -19 8.5 -27.5t27.5 -8.5h149zM401 -1l-130 -108
q-4 -4 -12.5 -7t-18.5 -3h-149q-24 0 -35 11t-11 35v648q0 13 3.5 22t10.5 15l129 109q5 4 13.5 6.5t18.5 2.5h161q19 0 31.5 -8t23.5 -27l68 -125l9 16q4 7 8.5 13.5t9.5 10.5l129 108q8 6 16.5 9t20.5 3h162q24 0 35 -11t11 -35v-648q0 -13 -3.5 -22t-10.5 -15l-130 -108
q-4 -4 -12.5 -7t-18.5 -3h-154q-25 0 -35.5 11t-10.5 35v264l-59 -49q-8 -7 -18.5 -10.5t-24.5 -3.5h-13v-92q0 -13 -3.5 -22t-10.5 -15z" />
    <glyph glyph-name="N" unicode="N" horiz-adv-x="853" 
d="M316 622l368 -414v422h10v-540h-10v103l-378 424q-1 1 -2.5 2t-2.5 1t-1.5 -1t-0.5 -2v-527h-10v529q0 6 4 9t8 3t7 -2t8 -7zM370 0q19 0 27.5 8.5t8.5 27.5v330l171 -207v-123q0 -19 8.5 -27.5t27.5 -8.5h150q19 0 27.5 8.5t8.5 27.5v648q0 19 -8.5 27.5t-27.5 8.5h-150
q-19 0 -27.5 -8.5t-8.5 -27.5v-213l-194 222q-13 15 -26.5 21t-32.5 6h-104q-19 0 -27.5 -8.5t-8.5 -27.5v-648q0 -19 8.5 -27.5t27.5 -8.5h150zM402 -1l-130 -108q-4 -4 -12.5 -7t-18.5 -3h-150q-24 0 -35 11t-11 35v648q0 13 3.5 22t10.5 15l129 109q5 4 13.5 6.5
t18.5 2.5h104q22 0 37 -7t30 -23l69 -80l121 101q5 4 13.5 6.5t18.5 2.5h150q24 0 35 -11t11 -35v-648q0 -13 -3.5 -22t-10.5 -15l-130 -108q-4 -4 -12.5 -7t-18.5 -3h-150q-24 0 -35 11t-11 35v119l-22 27v-37q0 -13 -3.5 -22t-10.5 -15z" />
    <glyph glyph-name="O" unicode="O" horiz-adv-x="837" 
d="M615 -71q-35 -30 -98 -46.5t-162 -16.5q-98 0 -160.5 20.5t-98 54.5t-49 78t-13.5 91v311q0 46 13 85.5t47 67.5l130 108q35 30 97.5 46.5t162.5 16.5q98 0 160.5 -16t98 -44.5t48.5 -68t13 -86.5v-341q0 -46 -13 -85t-47 -67zM794 189v341q0 46 -13.5 83.5t-48 64.5
t-95 42t-153.5 15t-154 -15t-95.5 -42t-48 -64.5t-13.5 -83.5v-341q0 -46 13.5 -83.5t48 -64t95.5 -41.5t154 -15t153.5 15t95 41.5t48 64t13.5 83.5zM685 212q0 -60 -43 -97.5t-160 -37.5t-159 37.5t-42 97.5v295q0 60 42 97.5t159 37.5t160 -37.5t43 -97.5v-295zM291 212
q0 -56 40 -90.5t151 -34.5t152 34.5t41 90.5v295q0 56 -41 90.5t-152 34.5t-151 -34.5t-40 -90.5v-295zM400 225v269q0 19 15 32.5t69 13.5t69 -13.5t15 -32.5v-269q0 -20 -15 -33.5t-69 -13.5t-69 13.5t-15 33.5zM410 225q0 -10 4 -17.5t15 -12.5v190q0 10 -4 17.5
t-15 11.5v-189z" />
    <glyph glyph-name="P" unicode="P" horiz-adv-x="782" 
d="M246 -119h-155q-24 0 -35 11t-11 35v648q0 13 3.5 22t10.5 15l129 109q5 4 13.5 6.5t18.5 2.5h306q71 0 119 -15t76 -42t39.5 -65t11.5 -83v-128q0 -48 -13.5 -87.5t-46.5 -67.5l-130 -108q-25 -21 -64.5 -34.5t-96.5 -15.5v-48q0 -13 -3.5 -22t-10.5 -15l-130 -108
q-4 -4 -12.5 -7t-18.5 -3zM375 0q19 0 27.5 8.5t8.5 27.5v166h115q136 0 186 54t50 141v128q0 87 -50 141t-186 54h-306q-19 0 -27.5 -8.5t-8.5 -27.5v-648q0 -19 8.5 -27.5t27.5 -8.5h155zM512 287h-206v-197h-10v540h216q47 0 76.5 -10.5t45.5 -28.5t22 -43t6 -54v-74
q0 -29 -6 -53.5t-22 -42t-45.5 -27.5t-76.5 -10zM306 297h206q44 0 71.5 9t42.5 25.5t20.5 39t5.5 49.5v74q0 27 -5.5 50t-20.5 40t-42.5 26.5t-71.5 9.5h-206v-323zM409 533h90q29 0 38 -15t9 -34v-53q0 -19 -9 -34t-38 -15h-90v151z" />
    <glyph glyph-name="Q" unicode="Q" horiz-adv-x="837" 
d="M431 -209h-154q-24 0 -35 11t-11 35v46q-58 10 -96.5 33.5t-60.5 55.5t-31 70t-9 77v302q0 46 13 85.5t47 67.5l130 108q35 30 97.5 46.5t162.5 16.5q98 0 160.5 -16t98 -44.5t48.5 -68t13 -86.5v-332q0 -46 -13 -85t-47 -67l-129 -108q-3 -2 -5.5 -4.5t-5.5 -3.5
q-1 -7 -4.5 -12t-7.5 -9l-130 -108q-4 -4 -12.5 -7t-18.5 -3zM560 -90q19 0 27.5 8.5t8.5 27.5v55q59 8 97.5 26t60.5 43t31 57.5t9 70.5v332q0 46 -13.5 83.5t-48 64.5t-95 42t-153.5 15t-154 -15t-95.5 -42t-48 -64.5t-13.5 -83.5v-332q0 -75 40.5 -127.5t156.5 -69.5v-55
q0 -19 8.5 -27.5t27.5 -8.5h154zM477 0v77q-114 1 -155 38t-41 97v295q0 60 42 97.5t159 37.5t160 -37.5t43 -97.5v-295q0 -60 -42 -97t-156 -38v-77h-10zM291 212q0 -56 40 -90.5t151 -34.5t152 34.5t41 90.5v295q0 56 -41 90.5t-152 34.5t-151 -34.5t-40 -90.5v-295z
M400 220v273q0 19 15 32.5t69 13.5t69 -13.5t15 -32.5v-273q0 -20 -15 -33.5t-69 -13.5t-69 13.5t-15 33.5zM410 220q0 -10 4 -17.5t15 -12.5v194q0 10 -4 17.5t-15 11.5v-193z" />
    <glyph glyph-name="R" unicode="R" horiz-adv-x="843" 
d="M520 620h-218v-289h218q62 0 83 30t21 85v70q0 46 -25.5 75t-78.5 29zM410 540h75q26 0 35 -13.5t9 -33.5v-34q0 -20 -9 -33.5t-35 -13.5h-75v128zM302 90h-10v540h228q58 0 86 -32.5t28 -81.5v-69q0 -46 -12 -75.5t-48 -40.5h11q61 0 91 -27.5t30 -79.5v-134h-10v134
q0 49 -27 73.5t-84 24.5h-283v-232zM374 0q19 0 27.5 8.5t8.5 27.5v196h140q21 0 29.5 -10.5t8.5 -32.5v-153q0 -19 8.5 -27.5t27.5 -8.5h155q19 0 27.5 8.5t8.5 27.5v212q0 63 -33.5 101t-87.5 44q31 13 43.5 42.5t12.5 71.5v46q0 74 -42.5 120.5t-154.5 46.5h-333
q-19 0 -27.5 -8.5t-8.5 -27.5v-648q0 -19 8.5 -27.5t27.5 -8.5h154zM406 -1l-130 -108q-4 -4 -12.5 -7t-18.5 -3h-154q-24 0 -35 11t-11 35v648q0 13 3.5 22t10.5 15l129 109q5 4 13.5 6.5t18.5 2.5h333q119 0 163 -49.5t44 -127.5v-46q0 -37 -9 -64.5t-29 -44.5h-1
q47 -13 75.5 -52t28.5 -98v-212q0 -13 -3.5 -22t-10.5 -15l-130 -108q-4 -4 -12.5 -7t-18.5 -3h-155q-24 0 -35 11t-11 35v153q0 16 -6 24.5t-22 8.5h-1v-77q0 -13 -3.5 -22t-10.5 -15z" />
    <glyph glyph-name="S" unicode="S" horiz-adv-x="750" 
d="M73 -119q-24 0 -35 11t-11 35v117q0 13 3.5 22t10.5 15l100 84q-53 16 -83.5 54.5t-30.5 110.5v105q0 45 15 80t43 59l130 109q27 22 67 34.5t91 12.5h280q24 0 35 -11t11 -35v-119q0 -13 -3.5 -22t-10.5 -15l-90 -75q63 -14 101.5 -52.5t38.5 -119.5v-105q0 -45 -15 -80
t-44 -59l-129 -108q-28 -23 -68 -35.5t-90 -12.5h-316zM518 0q96 0 151.5 45.5t55.5 130.5v105q0 84 -43 120t-113 46l-149 20q-13 1 -20 10t-7 22t7 21.5t20 8.5h233q19 0 27.5 8.5t8.5 27.5v119q0 19 -8.5 27.5t-27.5 8.5h-280q-97 0 -152 -45.5t-55 -130.5v-105
q0 -84 42.5 -120t112.5 -46l150 -21q13 -1 19.5 -9t6.5 -25q0 -12 -6.5 -20.5t-19.5 -8.5h-269q-19 0 -27.5 -8.5t-8.5 -27.5v-117q0 -19 8.5 -27.5t27.5 -8.5h316zM599 630v-10h-222q-42 0 -67 -23t-25 -58v-82q0 -35 14 -49t37 -18l211 -43q30 -6 49.5 -26t19.5 -72v-58
q0 -44 -30 -72.5t-81 -28.5h-249v10h249q46 0 73.5 25.5t27.5 65.5v58q0 47 -16.5 64.5t-44.5 23.5l-211 43q-26 5 -42.5 20.5t-16.5 56.5v82q0 40 28 65.5t74 25.5h222z" />
    <glyph glyph-name="T" unicode="T" horiz-adv-x="756" 
d="M395 -119h-162q-24 0 -35 11t-11 35v481h-137q-24 0 -35 11t-11 35v121q0 13 3.5 22t10.5 15l129 109q5 4 13.5 6.5t18.5 2.5h528q24 0 35 -11t11 -35v-121q0 -13 -3.5 -22t-10.5 -15l-130 -108q-4 -4 -12.5 -7t-18.5 -3h-8v-372q0 -13 -3.5 -22t-10.5 -15l-130 -108
q-4 -4 -12.5 -7t-18.5 -3zM524 0q19 0 27.5 8.5t8.5 27.5v491h147q19 0 27.5 8.5t8.5 27.5v121q0 19 -8.5 27.5t-27.5 8.5h-528q-19 0 -27.5 -8.5t-8.5 -27.5v-121q0 -19 8.5 -27.5t27.5 -8.5h147v-491q0 -19 8.5 -27.5t27.5 -8.5h162zM438 90v530h-205v10h420v-10h-205
v-530h-10z" />
    <glyph glyph-name="U" unicode="U" horiz-adv-x="846" 
d="M359 -134q-97 0 -159.5 20.5t-97.5 54.5t-48.5 78t-13.5 91v465q0 13 3.5 22t10.5 15l129 109q5 4 13.5 6.5t18.5 2.5h157q24 0 35 -11t11 -35v-456q0 -9 3 -16.5t13 -11.5v375q0 13 3 22t9 14l1 1l130 109q5 4 13 6.5t19 2.5h152q24 0 35 -11t11 -35v-495q0 -46 -13 -85
t-47 -67l-130 -108q-35 -30 -97 -46.5t-161 -16.5zM797 189v495q0 19 -8.5 27.5t-27.5 8.5h-152q-19 0 -27.5 -8.5t-8.5 -27.5v-456q0 -20 -15 -33.5t-68 -13.5q-52 0 -67 13.5t-15 33.5v456q0 19 -8.5 27.5t-27.5 8.5h-157q-19 0 -27.5 -8.5t-8.5 -27.5v-495
q0 -46 13.5 -83.5t48 -64t94.5 -41.5t153 -15t153 15t94.5 41.5t48 64t13.5 83.5zM289 630h10v-417q0 -56 39.5 -90.5t150.5 -34.5t151 34.5t40 90.5v417h10v-417q0 -60 -42 -97.5t-159 -37.5t-158.5 37.5t-41.5 97.5v417z" />
    <glyph glyph-name="V" unicode="V" horiz-adv-x="830" 
d="M221 -119q-23 0 -37 8.5t-23 30.5l-98 245q-9 23 -15.5 39.5t-10.5 32t-5.5 33t-1.5 41.5v264q0 13 3.5 22t10.5 15l129 109q5 4 13.5 6.5t18.5 2.5h159q24 0 36.5 -11.5t12.5 -34.5v-276q0 -10 2 -19t5 -19l3 -7v212q0 13 3.5 22t10.5 15l129 109q5 4 13.5 6.5t18.5 2.5
h157q25 0 35.5 -11t10.5 -35v-264q0 -24 -1.5 -41.5t-5.5 -33t-10.5 -32t-15.5 -39.5l-98 -245q-3 -9 -8 -16t-10 -11l-129 -107q-8 -7 -18.5 -10.5t-23.5 -3.5h-260zM610 0q19 0 31.5 7t19.5 26l98 245q9 22 15 38.5t10 31.5t5.5 31.5t1.5 40.5v264q0 19 -8.5 27.5
t-27.5 8.5h-157q-19 0 -27.5 -8.5t-8.5 -27.5v-275q0 -10 -2 -20t-6 -21l-47 -141q-3 -10 -7 -13.5t-12 -3.5h-11q-8 0 -12 3.5t-7 13.5l-47 140q-4 11 -6 21t-2 20v276q0 19 -10 27.5t-29 8.5h-159q-19 0 -27.5 -8.5t-8.5 -27.5v-264q0 -24 1.5 -40.5t5.5 -31.5t10 -31.5
t15 -38.5l98 -245q7 -19 19.5 -26t31.5 -7h260zM282 630h10v-216q0 -26 4 -49.5t12 -43.5l66 -160q10 -26 22.5 -43.5t40.5 -17.5h88q28 0 40.5 17.5t22.5 43.5l66 160q8 20 12 43.5t4 49.5v216h10v-216q0 -28 -3.5 -51.5t-12.5 -45.5l-66 -160q-12 -29 -27 -48t-46 -19h-88
q-31 0 -46 19t-27 48l-66 160q-9 22 -12.5 45.5t-3.5 51.5v216z" />
    <glyph glyph-name="W" unicode="W" horiz-adv-x="931" 
d="M544 345q16 0 25.5 -9.5t23.5 -37.5l92 -184q5 -10 12.5 -12t14.5 -2h5q8 0 15 6.5t8 14.5l25 114q4 19 4.5 49t0.5 52v294h10v-295q0 -22 -0.5 -52t-4.5 -49l-25 -113q-4 -16 -12.5 -23.5t-20.5 -7.5h-7q-9 0 -18.5 3.5t-14.5 13.5l-92 186q-13 26 -21 34t-20 8h-25
q-12 0 -20 -8t-21 -34l-92 -186q-5 -10 -14.5 -13.5t-18.5 -3.5h-7q-12 0 -20.5 7.5t-12.5 23.5l-25 113q-4 19 -4.5 49t-0.5 52v295h10v-294q0 -22 0.5 -52t4.5 -49l25 -114q1 -8 8 -14.5t15 -6.5h5q7 0 14.5 2t12.5 12l92 184q14 28 23.5 37.5t25.5 9.5h25zM701 720
q-19 0 -27.5 -8.5t-8.5 -27.5v-368l-58 126q-8 17 -21 24t-32 7h-42q-19 0 -32 -7t-21 -24l-58 -126v368q0 19 -8.5 27.5t-27.5 8.5h-154q-19 0 -27.5 -8.5t-8.5 -27.5v-386q0 -32 2.5 -59.5t15.5 -64.5l50 -138q5 -16 16.5 -26t27.5 -10h132q16 0 27 7.5t15 22.5l47 163
q3 10 7.5 13.5t10.5 3.5h9q6 0 10.5 -3.5t7.5 -13.5l46 -163q4 -16 17 -23t29 -7h133q16 0 25.5 10.5t14.5 25.5l50 136q13 37 15.5 64.5t2.5 59.5v388q0 19 -8.5 27.5t-27.5 8.5h-149zM325 -107q-7 -5 -16 -8.5t-19 -3.5h-132q-19 0 -33 12t-20 31l-50 138
q-14 37 -16.5 65.5t-2.5 61.5v386q0 13 3.5 22t10.5 15l129 109q5 4 13.5 6.5t18.5 2.5h154q24 0 35 -11t11 -35v-261l56 47q8 7 19.5 10t25.5 3h14v92q0 13 3 22t9 14l1 1l130 109q5 4 13 6.5t19 2.5h149q24 0 35 -11t11 -35v-388q0 -33 -2.5 -61.5t-16.5 -65.5l-50 -136
q-3 -10 -8 -18t-12 -15l-129 -107q-6 -6 -13 -9t-16 -3h-133q-20 0 -35 9t-21 28l-20 71z" />
    <glyph glyph-name="X" unicode="X" horiz-adv-x="837" 
d="M292 135v-45h-10v45q0 22 1.5 41.5t13.5 35.5l120 164l-120 162q-11 16 -13 35.5t-2 41.5v15h10v-15q0 -21 2 -40t12 -33l120 -162h119l116 162q10 14 12 33t2 40v15h10v-15q0 -22 -2 -41.5t-13 -35.5l-118 -164l118 -162q11 -16 13 -35.5t2 -41.5v-45h-10v45q0 21 -2 40
t-12 33l-117 162h-120l-118 -162q-10 -13 -12 -32.5t-2 -40.5zM399 36v99q0 10 1 21t8 21l45 63q6 9 11 13t13 4h14q8 0 13 -4t11 -13l44 -63q7 -10 8 -21t1 -21v-99q0 -19 8.5 -27.5t27.5 -8.5h152q19 0 27.5 8.5t8.5 27.5v107q0 46 -7.5 69t-30.5 54l-81 108l81 110
q22 31 30 54t8 69v77q0 19 -8.5 27.5t-27.5 8.5h-152q-19 0 -27.5 -8.5t-8.5 -27.5v-69q0 -10 -1 -21t-8 -21l-45 -63q-6 -8 -11 -12.5t-13 -4.5h-12q-8 0 -13.5 4.5t-10.5 12.5l-44 63q-7 10 -8 21t-1 21v69q0 19 -8.5 27.5t-27.5 8.5h-154q-19 0 -27.5 -8.5t-8.5 -27.5
v-77q0 -46 7.5 -69t30.5 -54l81 -109l-81 -109q-22 -31 -30 -54t-8 -69v-107q0 -19 8.5 -27.5t27.5 -8.5h152q19 0 27.5 8.5t8.5 27.5zM395 -1l-130 -108q-4 -4 -12.5 -7t-18.5 -3h-152q-24 0 -35 11t-11 35v107q0 49 8 73t32 56l77 103l-77 103q-24 32 -32 56t-8 73v77
q0 13 3.5 22t10.5 15l129 109q5 4 13.5 6.5t18.5 2.5h154q24 0 35 -11t11 -35v-69q0 -9 0.5 -18.5t6.5 -17.5l11 -16v12q0 13 3.5 22t10.5 15l129 109q5 4 13.5 6.5t18.5 2.5h152q24 0 35 -11t11 -35v-77q0 -49 -8 -73t-32 -56l-77 -104l77 -102q24 -32 32 -56t8 -73v-107
q0 -13 -3.5 -22t-10.5 -15l-130 -108q-4 -4 -12.5 -7t-18.5 -3h-152q-24 0 -35 11t-11 35v99q0 9 -0.5 18t-6.5 18l-13 18v-44q0 -13 -3.5 -22t-10.5 -15z" />
    <glyph glyph-name="Y" unicode="Y" horiz-adv-x="805" 
d="M420 -119h-162q-25 0 -35.5 11t-10.5 35v125l-151 202q-24 32 -32 56t-8 73v192q0 13 3.5 22t10.5 15l129 109q5 4 13.5 6.5t18.5 2.5h154q24 0 35 -11t11 -35v-164q0 -9 1 -18t6 -19l12 -17v109q0 13 3.5 22t10.5 15l129 109q5 4 13.5 6.5t18.5 2.5h149q24 0 35 -11
t11 -35v-192q0 -49 -8 -73t-32 -56l-150 -203v-124q0 -13 -3.5 -22t-10.5 -15l-130 -108q-4 -4 -12.5 -7t-18.5 -3zM549 0q19 0 27.5 8.5t8.5 27.5v127l152 206q22 31 30 54t8 69v192q0 19 -8.5 27.5t-27.5 8.5h-149q-19 0 -27.5 -8.5t-8.5 -27.5v-164q0 -10 -1 -21t-8 -21
l-46 -72q-5 -9 -10.5 -13t-13.5 -4h-10q-8 0 -13.5 4t-10.5 13l-46 72q-7 10 -8 21t-1 21v164q0 19 -8.5 27.5t-27.5 8.5h-154q-19 0 -27.5 -8.5t-8.5 -27.5v-192q0 -46 7.5 -69t30.5 -54l153 -205v-128q0 -19 8.5 -27.5t27.5 -8.5h162zM480 261h-7v-171h-10v171h-10
q-22 0 -39.5 10t-33.5 32l-97 135q-11 15 -13 35t-2 42v115h10v-115q0 -21 2 -39.5t12 -33.5l97 -135q13 -20 30 -28t34 -8h27q19 0 34.5 8.5t30.5 27.5l100 135q10 13 12 32.5t2 40.5v115h10v-115q0 -22 -1.5 -41.5t-13.5 -35.5l-100 -135q-16 -22 -33.5 -32t-40.5 -10z
" />
    <glyph glyph-name="Z" unicode="Z" horiz-adv-x="760" 
d="M564 -119h-496q-24 0 -35 11t-11 35v134q0 22 6.5 37.5t20.5 30.5l230 279h-193q-24 0 -35 11t-11 35v121q0 13 3.5 22t10.5 15l129 109q5 4 13.5 6.5t18.5 2.5h460q24 0 35 -11t11 -35v-149q0 -22 -6.5 -38t-20.5 -31l-219 -265h218q24 0 35 -11t11 -35v-119
q0 -13 -3.5 -22t-10.5 -15l-130 -108q-4 -4 -12.5 -7t-18.5 -3zM693 0q19 0 27.5 8.5t8.5 27.5v119q0 19 -8.5 27.5t-27.5 8.5h-239l232 281q13 14 19 28.5t6 34.5v149q0 19 -8.5 27.5t-27.5 8.5h-460q-19 0 -27.5 -8.5t-8.5 -27.5v-121q0 -19 8.5 -27.5t27.5 -8.5h214
l-243 -295q-13 -14 -19 -28.5t-6 -33.5v-134q0 -19 8.5 -27.5t27.5 -8.5h496zM588 544l-293 -376q-7 -9 -10.5 -15t-3.5 -16v-14q0 -14 6.5 -18.5t14.5 -4.5h337v-10h-337q-16 0 -23.5 8t-7.5 25v16q0 11 5 19.5t12 17.5l293 376q7 9 10.5 15t3.5 16v14q0 14 -6.5 18.5
t-14.5 4.5h-305v10h305q16 0 23.5 -8t7.5 -25v-16q0 -11 -5 -19.5t-12 -17.5z" />
    <glyph glyph-name="bracketleft" unicode="[" horiz-adv-x="529" 
d="M334 -199h-264q-24 0 -35 11t-11 35v808q0 13 3.5 22t10.5 15l129 109q5 4 13.5 6.5t18.5 2.5h264q24 0 35 -11t11 -35v-121q0 -13 -3.5 -22t-10.5 -15l-94 -79v-406h62q24 0 35 -11t11 -35v-119q0 -13 -3.5 -22t-10.5 -15l-130 -108q-4 -4 -12.5 -7t-18.5 -3zM391 607
h72q19 0 27.5 8.5t8.5 27.5v121q0 19 -8.5 27.5t-27.5 8.5h-264q-19 0 -27.5 -8.5t-8.5 -27.5v-808q0 -19 8.5 -27.5t27.5 -8.5h264q19 0 27.5 8.5t8.5 27.5v119q0 19 -8.5 27.5t-27.5 8.5h-72v496zM272 708h137v-10h-127v-677h127v-10h-137v697z" />
    <glyph glyph-name="backslash" unicode="\" horiz-adv-x="487" 
d="M358 774q-2 19 -9.5 27.5t-26.5 8.5h-145q-19 0 -28.5 -8.5t-7.5 -27.5l120 -828q2 -19 9.5 -27.5t26.5 -8.5h145q19 0 28.5 8.5t7.5 27.5zM313 -209h-145q-23 0 -33 10.5t-13 34.5l-120 828q-1 13 2 22.5t10 15.5l130 108l-1 -1q6 6 14.5 8.5t19.5 2.5h145
q23 0 33 -10.5t13 -34.5l120 -827q2 -13 -1.5 -22.5t-10.5 -15.5l-129 -109q-6 -4 -15 -7t-19 -3zM263 720l104 -720h-10l-104 720h10z" />
    <glyph glyph-name="bracketright" unicode="]" horiz-adv-x="529" 
d="M331 -199h-264q-24 0 -35 11t-11 35v119q0 13 3.5 22t10.5 15l94 79v406h-62q-24 0 -35 11t-11 35v121q0 13 3.5 22t10.5 15l129 109q5 4 13.5 6.5t18.5 2.5h264q24 0 35 -11t11 -35v-808q0 -13 -3.5 -22t-10.5 -15l-130 -108q-4 -4 -12.5 -7t-18.5 -3zM268 111h-72
q-19 0 -27.5 -8.5t-8.5 -27.5v-119q0 -19 8.5 -27.5t27.5 -8.5h264q19 0 27.5 8.5t8.5 27.5v808q0 19 -8.5 27.5t-27.5 8.5h-264q-19 0 -27.5 -8.5t-8.5 -27.5v-121q0 -19 8.5 -27.5t27.5 -8.5h72v-496zM387 708v-697h-137v10h127v677h-127v10h137z" />
    <glyph glyph-name="asciicircum" unicode="^" horiz-adv-x="814" 
d="M466 52q-24 -1 -36 10t-15 33l-37 136l-7 -27q-2 -12 -5.5 -20t-9.5 -14l-130 -108q-6 -5 -15 -7.5t-20 -2.5l-132 1q-25 0 -34.5 12t-5.5 37l108 381q10 34 23 60t34 44l129 109q18 15 44.5 23t63.5 8h73q78 0 111.5 -34.5t53.5 -100.5l108 -382q3 -14 0.5 -24t-9.5 -16
l-129 -108q-6 -4 -13.5 -6.5t-17.5 -2.5zM648 261h-11l-86 301q-6 22 -16 38t-41 16h-73q-31 0 -40.5 -16t-16.5 -39l-85 -300h-11l86 302q7 28 19.5 45.5t47.5 17.5h73q35 0 47.5 -18t19.5 -44zM158 208q-4 -19 3.5 -27.5t26.5 -8.5l132 -1q19 -1 29 7.5t12 27.5l78 289
q2 10 5.5 14t13.5 3q9 1 12.5 -3t5.5 -14l78 -289q2 -19 12 -27.5t29 -7.5l132 1q19 0 26.5 8.5t3.5 27.5l-108 381q-19 62 -50 95t-105 33h-73q-74 0 -105.5 -33t-49.5 -95z" />
    <glyph glyph-name="underscore" unicode="_" horiz-adv-x="834" 
d="M614 -222h-522q-24 0 -35 10.5t-11 35.5v134q0 13 3.5 22t10.5 15l129 109q5 4 13.5 6.5t18.5 2.5h522q24 0 35 -10.5t11 -35.5v-134q0 -13 -3.5 -22t-10.5 -15l-129 -109q-6 -4 -14 -6.5t-18 -2.5zM221 -103h522q19 0 27.5 8.5t8.5 27.5v134q0 19 -8.5 27.5t-27.5 8.5
h-522q-19 0 -27.5 -8.5t-8.5 -27.5v-134q0 -19 8.5 -27.5t27.5 -8.5zM689 5v-10h-414v10h414z" />
    <glyph glyph-name="grave" unicode="`" horiz-adv-x="600" 
d="M441 642q-5 -4 -13 -6.5t-18 -1.5l-349 43q-24 3 -34.5 13t-10.5 33v96q0 13 3.5 21.5t10.5 14.5l129 109q6 4 13.5 6t17.5 1l349 -43q24 -3 34.5 -13t10.5 -33v-96q0 -13 -3.5 -21.5t-10.5 -14.5zM540 753q17 -2 25.5 7t8.5 26v96q0 19 -8.5 26.5t-27.5 9.5l-349 43
q-17 2 -25.5 -7t-8.5 -26v-96q0 -19 8.5 -26.5t27.5 -9.5zM245 867v10l239 -30v-10z" />
    <glyph glyph-name="a" unicode="a" horiz-adv-x="830" 
d="M285 303v-31h390v31q0 27 -4.5 50t-11.5 43l-69 163q-11 26 -23 43.5t-40 17.5h-98q-30 0 -42 -17.5t-22 -42.5l-64 -164q-7 -20 -11.5 -43t-4.5 -50zM445 510q4 9 8.5 13t10.5 4h25q6 0 10.5 -4t8.5 -13l47 -152h-157zM675 90v172h-390v-172h-10v213q0 28 4.5 51.5
t12.5 45.5l64 164q11 28 25 47t48 19h98q33 0 46.5 -19t25.5 -48l69 -163q8 -22 12.5 -45.5t4.5 -51.5v-213h-10zM388 36v140h177v-140q0 -19 9.5 -27.5t29.5 -8.5h151q19 0 27.5 8.5t8.5 27.5v264q0 30 -9.5 69t-29.5 91l-87 227q-6 17 -18.5 25t-31.5 8h-269
q-20 0 -32.5 -8t-18.5 -25l-87 -227q-20 -52 -29.5 -91t-9.5 -69v-264q0 -19 8.5 -27.5t27.5 -8.5h147q19 0 27.5 8.5t8.5 27.5zM254 -109q-4 -4 -12.5 -7t-18.5 -3h-147q-24 0 -35 11t-11 35v264q0 31 9.5 70.5t30.5 93.5l86 226q3 9 7.5 15.5t9.5 11.5l1 1l128 107
q8 7 19 10.5t25 3.5h269q23 0 37.5 -9.5t21.5 -29.5l87 -227q21 -54 30.5 -93.5t9.5 -70.5v-264q0 -13 -3.5 -22t-10.5 -15l-130 -108q-4 -4 -12.5 -7t-18.5 -3h-151q-25 0 -37 11.5t-12 34.5v130h-28v-21q0 -13 -3.5 -22t-10.5 -15z" />
    <glyph glyph-name="b" unicode="b" horiz-adv-x="825" 
d="M91 -119q-24 0 -35 11t-11 35v648q0 13 3.5 22t10.5 15l129 109q5 4 13.5 6.5t18.5 2.5h319q104 0 153 -40.5t49 -122.5v-48q0 -35 -9.5 -60t-28.5 -40l-3 -2q54 -12 81 -51.5t27 -109.5v-92q0 -45 -13 -77.5t-39 -54.5l-129 -109q-25 -21 -63 -31.5t-89 -10.5h-384z
M604 0q99 0 146.5 40t47.5 124v92q0 73 -31 111t-95 44q30 13 44.5 39.5t14.5 68.5v48q0 78 -47 115.5t-145 37.5h-319q-19 0 -27.5 -8.5t-8.5 -27.5v-648q0 -19 8.5 -27.5t27.5 -8.5h384zM564 90h-269v540h203q41 0 67 -8.5t40 -23t19 -33.5t5 -41v-64q0 -30 -10.5 -55
t-53.5 -36q41 0 67 -8.5t40 -24t18.5 -36.5t4.5 -46v-64q0 -22 -5 -40.5t-18.5 -31.5t-39.5 -20.5t-68 -7.5zM498 620h-193v-251h193q41 0 65 7.5t36.5 20t16 29t3.5 34.5v64q0 40 -23 68t-98 28zM409 550h85q19 0 28.5 -10t9.5 -30v-28q0 -20 -9.5 -30t-28.5 -10h-85v108z
M565 359h-260v-259h259q75 0 98 24.5t23 65.5v64q0 45 -22.5 75t-97.5 30zM409 288h130q19 0 28.5 -9.5t9.5 -29.5v-39q0 -20 -9.5 -30t-28.5 -10h-130v118z" />
    <glyph glyph-name="c" unicode="c" horiz-adv-x="728" 
d="M534 -119h-244q-131 0 -193.5 68t-62.5 176v281q0 55 16 95.5t47 67.5l130 109q31 26 79 39t113 13h244q24 0 35 -11t11 -35v-121q0 -13 -3.5 -22t-10.5 -15l-130 -108q-4 -4 -12.5 -7t-18.5 -3h-123v-169q0 -21 13 -29.5t38 -8.5h201q24 0 35 -11t11 -35v-119
q0 -13 -3.5 -22t-10.5 -15l-130 -108q-4 -4 -12.5 -7t-18.5 -3zM663 0q19 0 27.5 8.5t8.5 27.5v119q0 19 -8.5 27.5t-27.5 8.5h-201q-31 0 -46 11.5t-15 36.5v238q0 25 15 37.5t46 12.5h201q19 0 27.5 8.5t8.5 27.5v121q0 19 -8.5 27.5t-27.5 8.5h-244q-125 0 -185.5 -50.5
t-60.5 -154.5v-311q0 -104 60.5 -154t185.5 -50h244zM608 100v-10h-167q-97 0 -128.5 30t-31.5 99v280q0 71 32 101t128 30h167v-10h-167q-88 0 -119 -27.5t-31 -93.5v-280q0 -65 30 -92t120 -27h167z" />
    <glyph glyph-name="d" unicode="d" horiz-adv-x="846" 
d="M620 -66q-31 -26 -79 -39.5t-113 -13.5h-337q-24 0 -35 11t-11 35v648q0 13 3.5 22t10.5 15l129 109q5 4 13.5 6.5t18.5 2.5h337q131 0 193.5 -53t62.5 -161v-312q0 -54 -16 -94.5t-47 -67.5zM557 0q125 0 185.5 50t60.5 154v312q0 104 -60.5 154t-185.5 50h-337
q-19 0 -27.5 -8.5t-8.5 -27.5v-648q0 -19 8.5 -27.5t27.5 -8.5h337zM293 90v540h242q51 0 82.5 -11t48.5 -29.5t23 -44t6 -54.5v-265q0 -29 -5.5 -54t-22.5 -43t-49 -28.5t-83 -10.5h-242zM535 620h-232v-520h232q48 0 77.5 9.5t45.5 26t21.5 40t5.5 50.5v265q0 27 -6 51
t-22 41t-45.5 27t-76.5 10zM411 529h119q24 0 35.5 -11.5t11.5 -36.5v-243q0 -25 -11.5 -37t-35.5 -12h-119v340zM438 372q0 13 -4 22t-13 13v-208h17v173z" />
    <glyph glyph-name="e" unicode="e" horiz-adv-x="754" 
d="M555 -119h-464q-24 0 -35 11t-11 35v648q0 13 3.5 22t10.5 15l129 109q5 4 13.5 6.5t18.5 2.5h464q24 0 35 -11t11 -35v-117q0 -13 -3.5 -22t-10.5 -15l-86 -71q10 -5 14.5 -15t4.5 -26v-107q0 -13 -3.5 -22t-10.5 -15l-89 -75h138q24 0 35 -11t11 -35v-117
q0 -13 -3.5 -22t-10.5 -15l-130 -108q-4 -4 -12.5 -7t-18.5 -3zM684 0q19 0 27.5 8.5t8.5 27.5v117q0 19 -8.5 27.5t-27.5 8.5h-276v86h195q19 0 27.5 8.5t8.5 27.5v107q0 19 -8.5 27.5t-27.5 8.5h-195v77h276q19 0 27.5 8.5t8.5 27.5v117q0 19 -8.5 27.5t-27.5 8.5h-464
q-19 0 -27.5 -8.5t-8.5 -27.5v-648q0 -19 8.5 -27.5t27.5 -8.5h464zM630 100v-10h-337v540h337v-10h-327v-251h246v-10h-246v-259h327z" />
    <glyph glyph-name="f" unicode="f" horiz-adv-x="718" 
d="M246 -119h-155q-24 0 -35 11t-11 35v648q0 13 3.5 22t10.5 15l129 109q5 4 13.5 6.5t18.5 2.5h446q24 0 35 -11t11 -35v-119q0 -13 -3.5 -22t-10.5 -15l-112 -93q23 0 34 -11t11 -35v-120q0 -13 -3.5 -22t-10.5 -15l-130 -108q-4 -4 -12.5 -7t-18.5 -3h-35v-78
q0 -13 -3.5 -22t-10.5 -15l-130 -108q-4 -4 -12.5 -7t-18.5 -3zM375 0q19 0 27.5 8.5t8.5 27.5v197h174q19 0 27.5 8.5t8.5 27.5v120q0 19 -8.5 27.5t-27.5 8.5h-174v104h255q19 0 27.5 8.5t8.5 27.5v119q0 19 -8.5 27.5t-27.5 8.5h-446q-19 0 -27.5 -8.5t-8.5 -27.5v-648
q0 -19 8.5 -27.5t27.5 -8.5h155zM293 90v540h319v-10h-309v-286h228v-10h-228v-234h-10z" />
    <glyph glyph-name="g" unicode="g" horiz-adv-x="808" 
d="M605 -119h-315q-131 0 -193.5 68t-62.5 176v282q0 55 16 95t47 67l129 109q31 26 79.5 39t113.5 13h250q24 0 35 -11t11 -35v-121q0 -13 -3.5 -22t-10.5 -15l-130 -108q-4 -4 -12.5 -7t-18.5 -3h-130v-144q1 2 3.5 4.5l4.5 4.5l129 109q5 4 13.5 6.5t18.5 2.5h155
q24 0 35 -11t11 -35v-309q0 -13 -3.5 -22t-10.5 -15l-130 -108q-4 -4 -12.5 -7t-18.5 -3zM734 0q19 0 27.5 8.5t8.5 27.5v309q0 19 -8.5 27.5t-27.5 8.5h-155q-19 0 -27.5 -8.5t-8.5 -27.5v-156h-97q-23 0 -34.5 12t-11.5 37v239q0 25 15 37.5t46 12.5h208q19 0 27.5 8.5
t8.5 27.5v121q0 19 -8.5 27.5t-27.5 8.5h-250q-125 0 -185.5 -50t-60.5 -154v-312q0 -104 60.5 -154t185.5 -50h315zM462 90q-55 0 -90 7t-55 22.5t-27.5 40t-7.5 59.5v280q0 71 32 101t128 30h173v-10h-173q-88 0 -119 -27.5t-31 -93.5v-280q0 -65 34.5 -92t135.5 -27h189
v191h10v-201h-199z" />
    <glyph glyph-name="h" unicode="h" horiz-adv-x="859" 
d="M292 90v540h10v-265h384v265h10v-540h-10v265h-384v-265h-10zM375 0q19 0 27.5 8.5t8.5 27.5v222h167v-222q0 -19 8.5 -27.5t27.5 -8.5h155q19 0 27.5 8.5t8.5 27.5v648q0 19 -8.5 27.5t-27.5 8.5h-155q-19 0 -27.5 -8.5t-8.5 -27.5v-217h-167v217q0 19 -8.5 27.5
t-27.5 8.5h-155q-19 0 -27.5 -8.5t-8.5 -27.5v-648q0 -19 8.5 -27.5t27.5 -8.5h155zM407 -1l-130 -108q-4 -4 -12.5 -7t-18.5 -3h-155q-24 0 -35 11t-11 35v648q0 13 3.5 22t10.5 15l129 109q5 4 13.5 6.5t18.5 2.5h155q24 0 35 -11t11 -35v-207h18v98q0 13 3.5 22t10.5 15
l129 109q5 4 13.5 6.5t18.5 2.5h155q24 0 35 -11t11 -35v-648q0 -13 -3.5 -22t-10.5 -15l-130 -108q-4 -4 -12.5 -7t-18.5 -3h-155q-24 0 -35 11t-11 35v212h-18v-103q0 -13 -3.5 -22t-10.5 -15z" />
    <glyph glyph-name="i" unicode="i" horiz-adv-x="705" 
d="M501 -119h-426q-24 0 -35 11t-11 35v119q0 13 3.5 22t10.5 15l121 102v223h-89q-24 0 -35 11t-11 35v121q0 13 3.5 22t10.5 15l129 109q5 4 13.5 6.5t18.5 2.5h426q24 0 35 -11t11 -35v-121q0 -13 -3.5 -22t-10.5 -15l-119 -100v-225h87q24 0 35 -11t11 -35v-119
q0 -13 -3.5 -22t-10.5 -15l-130 -108q-4 -4 -12.5 -7t-18.5 -3zM204 0h426q19 0 27.5 8.5t8.5 27.5v119q0 19 -8.5 27.5t-27.5 8.5h-97v336h97q19 0 27.5 8.5t8.5 27.5v121q0 19 -8.5 27.5t-27.5 8.5h-426q-19 0 -27.5 -8.5t-8.5 -27.5v-121q0 -19 8.5 -27.5t27.5 -8.5h99
v-336h-99q-19 0 -27.5 -8.5t-8.5 -27.5v-119q0 -19 8.5 -27.5t27.5 -8.5zM576 90h-318v10h155v520h-155v10h318v-10h-153v-520h153v-10z" />
    <glyph glyph-name="j" unicode="j" horiz-adv-x="788" 
d="M317 -134q-91 0 -149.5 20.5t-92 54.5t-46 78t-12.5 91v132q0 13 3.5 22.5t9.5 14.5l130 109q5 4 13 6.5t19 2.5h145q11 0 19.5 -2.5t14.5 -7.5v188q0 13 3.5 22t10.5 15l129 109q5 4 13.5 6.5t18.5 2.5h157q24 0 35 -11t11 -35v-495q0 -47 -13.5 -86.5t-47.5 -67.5
l-129 -109q-34 -28 -92 -44t-150 -16zM739 189v495q0 19 -8.5 27.5t-27.5 8.5h-157q-19 0 -27.5 -8.5t-8.5 -27.5v-455q0 -20 -11.5 -33.5t-54.5 -13.5q-46 0 -58.5 13.5t-12.5 33.5v122q0 19 -8.5 27.5t-27.5 8.5h-145q-19 0 -27.5 -8.5t-8.5 -27.5v-162q0 -46 12.5 -83.5
t45 -64t89 -41.5t143.5 -15q88 0 145 15t89.5 41.5t45.5 64t13 83.5zM619 630h10v-417q0 -59 -37.5 -97t-143.5 -38q-56 0 -92.5 10t-57.5 27.5t-29.5 42.5t-8.5 55v79h10v-79q0 -57 37.5 -91t140.5 -34q99 0 135 34.5t36 90.5v417z" />
    <glyph glyph-name="k" unicode="k" horiz-adv-x="846" 
d="M303 90h-10v540h10v-266h217l115 266h11l-115 -266h41q61 0 91 -23t30 -75v-176h-10v176q0 48 -28 68t-83 20h-269v-264zM375 0q19 0 27.5 8.5t8.5 27.5v229h132q16 0 24 -9t8 -25v-195q0 -19 8.5 -27.5t27.5 -8.5h154q19 0 27.5 8.5t8.5 27.5v282q0 60 -33.5 96.5
t-89.5 39.5l102 233q7 16 1 24.5t-23 8.5h-154q-19 0 -31 -7.5t-19 -25.5l-103 -233h-40v230q0 19 -8.5 27.5t-27.5 8.5h-155q-19 0 -27.5 -8.5t-8.5 -27.5v-648q0 -19 8.5 -27.5t27.5 -8.5h155zM407 -1l-130 -108q-4 -4 -12.5 -7t-18.5 -3h-155q-24 0 -35 11t-11 35v648
q0 13 3.5 22t10.5 15l129 109q5 4 13.5 6.5t18.5 2.5h155q24 0 35 -11t11 -35v-91q3 4 6 8.5t7 7.5l129 109q7 6 17.5 9t23.5 3h154q25 0 33 -12.5t-2 -34.5l-96 -220q54 -7 86 -46t32 -99v-282q0 -13 -3.5 -22t-10.5 -15l-130 -108q-4 -4 -12.5 -7t-18.5 -3h-154
q-24 0 -35 11t-11 35v195q0 10 -4 16t-11 7v-109q0 -13 -3.5 -22t-10.5 -15z" />
    <glyph glyph-name="l" unicode="l" horiz-adv-x="795" 
d="M600 -119h-509q-24 0 -35 11t-11 35v648q0 13 3.5 22t10.5 15l129 109q5 4 13.5 6.5t18.5 2.5h155q24 0 35 -11t11 -35v-407l2 2l129 109q5 4 13.5 6.5t18.5 2.5h145q24 0 35 -11t11 -35v-315q0 -13 -3.5 -22t-10.5 -15l-130 -108q-4 -4 -12.5 -7t-18.5 -3zM729 0
q19 0 27.5 8.5t8.5 27.5v315q0 19 -8.5 27.5t-27.5 8.5h-145q-19 0 -27.5 -8.5t-8.5 -27.5v-162h-137v495q0 19 -8.5 27.5t-27.5 8.5h-155q-19 0 -27.5 -8.5t-8.5 -27.5v-648q0 -19 8.5 -27.5t27.5 -8.5h509zM293 90v540h10v-530h348v197h10v-207h-368z" />
    <glyph glyph-name="m" unicode="m" horiz-adv-x="949" 
d="M536 385q18 0 26 8t25 34l122 186q6 10 13.5 13.5t15.5 3.5h17q14 0 20.5 -7.5t6.5 -23.5v-509h-10v509q0 8 -3.5 14.5t-13.5 6.5h-15q-7 0 -12 -2t-11 -12l-122 -184q-18 -27 -27.5 -37t-31.5 -10t-31.5 10t-27.5 37l-122 184q-6 10 -11.5 12t-12.5 2h-15
q-10 0 -13 -6.5t-3 -14.5v-509h-10v509q0 16 6.5 23.5t19.5 7.5h17q8 0 16 -3.5t14 -13.5l122 -186q17 -26 25 -34t26 -8zM369 0q19 0 27.5 8.5t8.5 27.5v352l59 -109q9 -17 21.5 -24.5t31.5 -7.5h40q19 0 31.5 7.5t21.5 24.5l59 109v-352q0 -19 8.5 -27.5t27.5 -8.5h154
q19 0 27.5 8.5t8.5 27.5v648q0 19 -8.5 27.5t-27.5 8.5h-162q-16 0 -26.5 -7t-19.5 -23l-89 -163q-5 -9 -8.5 -13t-9.5 -4h-9q-6 0 -9.5 4t-8.5 13l-90 163q-9 16 -19.5 23t-26.5 7h-161q-19 0 -27.5 -8.5t-8.5 -27.5v-648q0 -19 8.5 -27.5t27.5 -8.5h149zM401 -1l-130 -108
q-4 -4 -12.5 -7t-18.5 -3h-149q-24 0 -35 11t-11 35v648q0 13 3.5 22t10.5 15l129 109q5 4 13.5 6.5t18.5 2.5h161q19 0 31.5 -8t23.5 -27l68 -125l9 16q4 7 8.5 13.5t9.5 10.5l129 108q8 6 16.5 9t20.5 3h162q24 0 35 -11t11 -35v-648q0 -13 -3.5 -22t-10.5 -15l-130 -108
q-4 -4 -12.5 -7t-18.5 -3h-154q-25 0 -35.5 11t-10.5 35v264l-59 -49q-8 -7 -18.5 -10.5t-24.5 -3.5h-13v-92q0 -13 -3.5 -22t-10.5 -15z" />
    <glyph glyph-name="n" unicode="n" horiz-adv-x="853" 
d="M316 622l368 -414v422h10v-540h-10v103l-378 424q-1 1 -2.5 2t-2.5 1t-1.5 -1t-0.5 -2v-527h-10v529q0 6 4 9t8 3t7 -2t8 -7zM370 0q19 0 27.5 8.5t8.5 27.5v330l171 -207v-123q0 -19 8.5 -27.5t27.5 -8.5h150q19 0 27.5 8.5t8.5 27.5v648q0 19 -8.5 27.5t-27.5 8.5h-150
q-19 0 -27.5 -8.5t-8.5 -27.5v-213l-194 222q-13 15 -26.5 21t-32.5 6h-104q-19 0 -27.5 -8.5t-8.5 -27.5v-648q0 -19 8.5 -27.5t27.5 -8.5h150zM402 -1l-130 -108q-4 -4 -12.5 -7t-18.5 -3h-150q-24 0 -35 11t-11 35v648q0 13 3.5 22t10.5 15l129 109q5 4 13.5 6.5
t18.5 2.5h104q22 0 37 -7t30 -23l69 -80l121 101q5 4 13.5 6.5t18.5 2.5h150q24 0 35 -11t11 -35v-648q0 -13 -3.5 -22t-10.5 -15l-130 -108q-4 -4 -12.5 -7t-18.5 -3h-150q-24 0 -35 11t-11 35v119l-22 27v-37q0 -13 -3.5 -22t-10.5 -15z" />
    <glyph glyph-name="o" unicode="o" horiz-adv-x="837" 
d="M615 -71q-35 -30 -98 -46.5t-162 -16.5q-98 0 -160.5 20.5t-98 54.5t-49 78t-13.5 91v311q0 46 13 85.5t47 67.5l130 108q35 30 97.5 46.5t162.5 16.5q98 0 160.5 -16t98 -44.5t48.5 -68t13 -86.5v-341q0 -46 -13 -85t-47 -67zM794 189v341q0 46 -13.5 83.5t-48 64.5
t-95 42t-153.5 15t-154 -15t-95.5 -42t-48 -64.5t-13.5 -83.5v-341q0 -46 13.5 -83.5t48 -64t95.5 -41.5t154 -15t153.5 15t95 41.5t48 64t13.5 83.5zM685 212q0 -60 -43 -97.5t-160 -37.5t-159 37.5t-42 97.5v295q0 60 42 97.5t159 37.5t160 -37.5t43 -97.5v-295zM291 212
q0 -56 40 -90.5t151 -34.5t152 34.5t41 90.5v295q0 56 -41 90.5t-152 34.5t-151 -34.5t-40 -90.5v-295zM400 225v269q0 19 15 32.5t69 13.5t69 -13.5t15 -32.5v-269q0 -20 -15 -33.5t-69 -13.5t-69 13.5t-15 33.5zM410 225q0 -10 4 -17.5t15 -12.5v190q0 10 -4 17.5
t-15 11.5v-189z" />
    <glyph glyph-name="p" unicode="p" horiz-adv-x="782" 
d="M246 -119h-155q-24 0 -35 11t-11 35v648q0 13 3.5 22t10.5 15l129 109q5 4 13.5 6.5t18.5 2.5h306q71 0 119 -15t76 -42t39.5 -65t11.5 -83v-128q0 -48 -13.5 -87.5t-46.5 -67.5l-130 -108q-25 -21 -64.5 -34.5t-96.5 -15.5v-48q0 -13 -3.5 -22t-10.5 -15l-130 -108
q-4 -4 -12.5 -7t-18.5 -3zM375 0q19 0 27.5 8.5t8.5 27.5v166h115q136 0 186 54t50 141v128q0 87 -50 141t-186 54h-306q-19 0 -27.5 -8.5t-8.5 -27.5v-648q0 -19 8.5 -27.5t27.5 -8.5h155zM512 287h-206v-197h-10v540h216q47 0 76.5 -10.5t45.5 -28.5t22 -43t6 -54v-74
q0 -29 -6 -53.5t-22 -42t-45.5 -27.5t-76.5 -10zM306 297h206q44 0 71.5 9t42.5 25.5t20.5 39t5.5 49.5v74q0 27 -5.5 50t-20.5 40t-42.5 26.5t-71.5 9.5h-206v-323zM409 533h90q29 0 38 -15t9 -34v-53q0 -19 -9 -34t-38 -15h-90v151z" />
    <glyph glyph-name="q" unicode="q" horiz-adv-x="837" 
d="M431 -209h-154q-24 0 -35 11t-11 35v46q-58 10 -96.5 33.5t-60.5 55.5t-31 70t-9 77v302q0 46 13 85.5t47 67.5l130 108q35 30 97.5 46.5t162.5 16.5q98 0 160.5 -16t98 -44.5t48.5 -68t13 -86.5v-332q0 -46 -13 -85t-47 -67l-129 -108q-3 -2 -5.5 -4.5t-5.5 -3.5
q-1 -7 -4.5 -12t-7.5 -9l-130 -108q-4 -4 -12.5 -7t-18.5 -3zM560 -90q19 0 27.5 8.5t8.5 27.5v55q59 8 97.5 26t60.5 43t31 57.5t9 70.5v332q0 46 -13.5 83.5t-48 64.5t-95 42t-153.5 15t-154 -15t-95.5 -42t-48 -64.5t-13.5 -83.5v-332q0 -75 40.5 -127.5t156.5 -69.5v-55
q0 -19 8.5 -27.5t27.5 -8.5h154zM477 0v77q-114 1 -155 38t-41 97v295q0 60 42 97.5t159 37.5t160 -37.5t43 -97.5v-295q0 -60 -42 -97t-156 -38v-77h-10zM291 212q0 -56 40 -90.5t151 -34.5t152 34.5t41 90.5v295q0 56 -41 90.5t-152 34.5t-151 -34.5t-40 -90.5v-295z
M400 220v273q0 19 15 32.5t69 13.5t69 -13.5t15 -32.5v-273q0 -20 -15 -33.5t-69 -13.5t-69 13.5t-15 33.5zM410 220q0 -10 4 -17.5t15 -12.5v194q0 10 -4 17.5t-15 11.5v-193z" />
    <glyph glyph-name="r" unicode="r" horiz-adv-x="843" 
d="M520 620h-218v-289h218q62 0 83 30t21 85v70q0 46 -25.5 75t-78.5 29zM410 540h75q26 0 35 -13.5t9 -33.5v-34q0 -20 -9 -33.5t-35 -13.5h-75v128zM302 90h-10v540h228q58 0 86 -32.5t28 -81.5v-69q0 -46 -12 -75.5t-48 -40.5h11q61 0 91 -27.5t30 -79.5v-134h-10v134
q0 49 -27 73.5t-84 24.5h-283v-232zM374 0q19 0 27.5 8.5t8.5 27.5v196h140q21 0 29.5 -10.5t8.5 -32.5v-153q0 -19 8.5 -27.5t27.5 -8.5h155q19 0 27.5 8.5t8.5 27.5v212q0 63 -33.5 101t-87.5 44q31 13 43.5 42.5t12.5 71.5v46q0 74 -42.5 120.5t-154.5 46.5h-333
q-19 0 -27.5 -8.5t-8.5 -27.5v-648q0 -19 8.5 -27.5t27.5 -8.5h154zM406 -1l-130 -108q-4 -4 -12.5 -7t-18.5 -3h-154q-24 0 -35 11t-11 35v648q0 13 3.5 22t10.5 15l129 109q5 4 13.5 6.5t18.5 2.5h333q119 0 163 -49.5t44 -127.5v-46q0 -37 -9 -64.5t-29 -44.5h-1
q47 -13 75.5 -52t28.5 -98v-212q0 -13 -3.5 -22t-10.5 -15l-130 -108q-4 -4 -12.5 -7t-18.5 -3h-155q-24 0 -35 11t-11 35v153q0 16 -6 24.5t-22 8.5h-1v-77q0 -13 -3.5 -22t-10.5 -15z" />
    <glyph glyph-name="s" unicode="s" horiz-adv-x="750" 
d="M73 -119q-24 0 -35 11t-11 35v117q0 13 3.5 22t10.5 15l100 84q-53 16 -83.5 54.5t-30.5 110.5v105q0 45 15 80t43 59l130 109q27 22 67 34.5t91 12.5h280q24 0 35 -11t11 -35v-119q0 -13 -3.5 -22t-10.5 -15l-90 -75q63 -14 101.5 -52.5t38.5 -119.5v-105q0 -45 -15 -80
t-44 -59l-129 -108q-28 -23 -68 -35.5t-90 -12.5h-316zM518 0q96 0 151.5 45.5t55.5 130.5v105q0 84 -43 120t-113 46l-149 20q-13 1 -20 10t-7 22t7 21.5t20 8.5h233q19 0 27.5 8.5t8.5 27.5v119q0 19 -8.5 27.5t-27.5 8.5h-280q-97 0 -152 -45.5t-55 -130.5v-105
q0 -84 42.5 -120t112.5 -46l150 -21q13 -1 19.5 -9t6.5 -25q0 -12 -6.5 -20.5t-19.5 -8.5h-269q-19 0 -27.5 -8.5t-8.5 -27.5v-117q0 -19 8.5 -27.5t27.5 -8.5h316zM599 630v-10h-222q-42 0 -67 -23t-25 -58v-82q0 -35 14 -49t37 -18l211 -43q30 -6 49.5 -26t19.5 -72v-58
q0 -44 -30 -72.5t-81 -28.5h-249v10h249q46 0 73.5 25.5t27.5 65.5v58q0 47 -16.5 64.5t-44.5 23.5l-211 43q-26 5 -42.5 20.5t-16.5 56.5v82q0 40 28 65.5t74 25.5h222z" />
    <glyph glyph-name="t" unicode="t" horiz-adv-x="756" 
d="M395 -119h-162q-24 0 -35 11t-11 35v481h-137q-24 0 -35 11t-11 35v121q0 13 3.5 22t10.5 15l129 109q5 4 13.5 6.5t18.5 2.5h528q24 0 35 -11t11 -35v-121q0 -13 -3.5 -22t-10.5 -15l-130 -108q-4 -4 -12.5 -7t-18.5 -3h-8v-372q0 -13 -3.5 -22t-10.5 -15l-130 -108
q-4 -4 -12.5 -7t-18.5 -3zM524 0q19 0 27.5 8.5t8.5 27.5v491h147q19 0 27.5 8.5t8.5 27.5v121q0 19 -8.5 27.5t-27.5 8.5h-528q-19 0 -27.5 -8.5t-8.5 -27.5v-121q0 -19 8.5 -27.5t27.5 -8.5h147v-491q0 -19 8.5 -27.5t27.5 -8.5h162zM438 90v530h-205v10h420v-10h-205
v-530h-10z" />
    <glyph glyph-name="u" unicode="u" horiz-adv-x="846" 
d="M359 -134q-97 0 -159.5 20.5t-97.5 54.5t-48.5 78t-13.5 91v465q0 13 3.5 22t10.5 15l129 109q5 4 13.5 6.5t18.5 2.5h157q24 0 35 -11t11 -35v-456q0 -9 3 -16.5t13 -11.5v375q0 13 3 22t9 14l1 1l130 109q5 4 13 6.5t19 2.5h152q24 0 35 -11t11 -35v-495q0 -46 -13 -85
t-47 -67l-130 -108q-35 -30 -97 -46.5t-161 -16.5zM797 189v495q0 19 -8.5 27.5t-27.5 8.5h-152q-19 0 -27.5 -8.5t-8.5 -27.5v-456q0 -20 -15 -33.5t-68 -13.5q-52 0 -67 13.5t-15 33.5v456q0 19 -8.5 27.5t-27.5 8.5h-157q-19 0 -27.5 -8.5t-8.5 -27.5v-495
q0 -46 13.5 -83.5t48 -64t94.5 -41.5t153 -15t153 15t94.5 41.5t48 64t13.5 83.5zM289 630h10v-417q0 -56 39.5 -90.5t150.5 -34.5t151 34.5t40 90.5v417h10v-417q0 -60 -42 -97.5t-159 -37.5t-158.5 37.5t-41.5 97.5v417z" />
    <glyph glyph-name="v" unicode="v" horiz-adv-x="830" 
d="M221 -119q-23 0 -37 8.5t-23 30.5l-98 245q-9 23 -15.5 39.5t-10.5 32t-5.5 33t-1.5 41.5v264q0 13 3.5 22t10.5 15l129 109q5 4 13.5 6.5t18.5 2.5h159q24 0 36.5 -11.5t12.5 -34.5v-276q0 -10 2 -19t5 -19l3 -7v212q0 13 3.5 22t10.5 15l129 109q5 4 13.5 6.5t18.5 2.5
h157q25 0 35.5 -11t10.5 -35v-264q0 -24 -1.5 -41.5t-5.5 -33t-10.5 -32t-15.5 -39.5l-98 -245q-3 -9 -8 -16t-10 -11l-129 -107q-8 -7 -18.5 -10.5t-23.5 -3.5h-260zM610 0q19 0 31.5 7t19.5 26l98 245q9 22 15 38.5t10 31.5t5.5 31.5t1.5 40.5v264q0 19 -8.5 27.5
t-27.5 8.5h-157q-19 0 -27.5 -8.5t-8.5 -27.5v-275q0 -10 -2 -20t-6 -21l-47 -141q-3 -10 -7 -13.5t-12 -3.5h-11q-8 0 -12 3.5t-7 13.5l-47 140q-4 11 -6 21t-2 20v276q0 19 -10 27.5t-29 8.5h-159q-19 0 -27.5 -8.5t-8.5 -27.5v-264q0 -24 1.5 -40.5t5.5 -31.5t10 -31.5
t15 -38.5l98 -245q7 -19 19.5 -26t31.5 -7h260zM282 630h10v-216q0 -26 4 -49.5t12 -43.5l66 -160q10 -26 22.5 -43.5t40.5 -17.5h88q28 0 40.5 17.5t22.5 43.5l66 160q8 20 12 43.5t4 49.5v216h10v-216q0 -28 -3.5 -51.5t-12.5 -45.5l-66 -160q-12 -29 -27 -48t-46 -19h-88
q-31 0 -46 19t-27 48l-66 160q-9 22 -12.5 45.5t-3.5 51.5v216z" />
    <glyph glyph-name="w" unicode="w" horiz-adv-x="931" 
d="M544 345q16 0 25.5 -9.5t23.5 -37.5l92 -184q5 -10 12.5 -12t14.5 -2h5q8 0 15 6.5t8 14.5l25 114q4 19 4.5 49t0.5 52v294h10v-295q0 -22 -0.5 -52t-4.5 -49l-25 -113q-4 -16 -12.5 -23.5t-20.5 -7.5h-7q-9 0 -18.5 3.5t-14.5 13.5l-92 186q-13 26 -21 34t-20 8h-25
q-12 0 -20 -8t-21 -34l-92 -186q-5 -10 -14.5 -13.5t-18.5 -3.5h-7q-12 0 -20.5 7.5t-12.5 23.5l-25 113q-4 19 -4.5 49t-0.5 52v295h10v-294q0 -22 0.5 -52t4.5 -49l25 -114q1 -8 8 -14.5t15 -6.5h5q7 0 14.5 2t12.5 12l92 184q14 28 23.5 37.5t25.5 9.5h25zM701 720
q-19 0 -27.5 -8.5t-8.5 -27.5v-368l-58 126q-8 17 -21 24t-32 7h-42q-19 0 -32 -7t-21 -24l-58 -126v368q0 19 -8.5 27.5t-27.5 8.5h-154q-19 0 -27.5 -8.5t-8.5 -27.5v-386q0 -32 2.5 -59.5t15.5 -64.5l50 -138q5 -16 16.5 -26t27.5 -10h132q16 0 27 7.5t15 22.5l47 163
q3 10 7.5 13.5t10.5 3.5h9q6 0 10.5 -3.5t7.5 -13.5l46 -163q4 -16 17 -23t29 -7h133q16 0 25.5 10.5t14.5 25.5l50 136q13 37 15.5 64.5t2.5 59.5v388q0 19 -8.5 27.5t-27.5 8.5h-149zM325 -107q-7 -5 -16 -8.5t-19 -3.5h-132q-19 0 -33 12t-20 31l-50 138
q-14 37 -16.5 65.5t-2.5 61.5v386q0 13 3.5 22t10.5 15l129 109q5 4 13.5 6.5t18.5 2.5h154q24 0 35 -11t11 -35v-261l56 47q8 7 19.5 10t25.5 3h14v92q0 13 3 22t9 14l1 1l130 109q5 4 13 6.5t19 2.5h149q24 0 35 -11t11 -35v-388q0 -33 -2.5 -61.5t-16.5 -65.5l-50 -136
q-3 -10 -8 -18t-12 -15l-129 -107q-6 -6 -13 -9t-16 -3h-133q-20 0 -35 9t-21 28l-20 71z" />
    <glyph glyph-name="x" unicode="x" horiz-adv-x="837" 
d="M292 135v-45h-10v45q0 22 1.5 41.5t13.5 35.5l120 164l-120 162q-11 16 -13 35.5t-2 41.5v15h10v-15q0 -21 2 -40t12 -33l120 -162h119l116 162q10 14 12 33t2 40v15h10v-15q0 -22 -2 -41.5t-13 -35.5l-118 -164l118 -162q11 -16 13 -35.5t2 -41.5v-45h-10v45q0 21 -2 40
t-12 33l-117 162h-120l-118 -162q-10 -13 -12 -32.5t-2 -40.5zM399 36v99q0 10 1 21t8 21l45 63q6 9 11 13t13 4h14q8 0 13 -4t11 -13l44 -63q7 -10 8 -21t1 -21v-99q0 -19 8.5 -27.5t27.5 -8.5h152q19 0 27.5 8.5t8.5 27.5v107q0 46 -7.5 69t-30.5 54l-81 108l81 110
q22 31 30 54t8 69v77q0 19 -8.5 27.5t-27.5 8.5h-152q-19 0 -27.5 -8.5t-8.5 -27.5v-69q0 -10 -1 -21t-8 -21l-45 -63q-6 -8 -11 -12.5t-13 -4.5h-12q-8 0 -13.5 4.5t-10.5 12.5l-44 63q-7 10 -8 21t-1 21v69q0 19 -8.5 27.5t-27.5 8.5h-154q-19 0 -27.5 -8.5t-8.5 -27.5
v-77q0 -46 7.5 -69t30.5 -54l81 -109l-81 -109q-22 -31 -30 -54t-8 -69v-107q0 -19 8.5 -27.5t27.5 -8.5h152q19 0 27.5 8.5t8.5 27.5zM395 -1l-130 -108q-4 -4 -12.5 -7t-18.5 -3h-152q-24 0 -35 11t-11 35v107q0 49 8 73t32 56l77 103l-77 103q-24 32 -32 56t-8 73v77
q0 13 3.5 22t10.5 15l129 109q5 4 13.5 6.5t18.5 2.5h154q24 0 35 -11t11 -35v-69q0 -9 0.5 -18.5t6.5 -17.5l11 -16v12q0 13 3.5 22t10.5 15l129 109q5 4 13.5 6.5t18.5 2.5h152q24 0 35 -11t11 -35v-77q0 -49 -8 -73t-32 -56l-77 -104l77 -102q24 -32 32 -56t8 -73v-107
q0 -13 -3.5 -22t-10.5 -15l-130 -108q-4 -4 -12.5 -7t-18.5 -3h-152q-24 0 -35 11t-11 35v99q0 9 -0.5 18t-6.5 18l-13 18v-44q0 -13 -3.5 -22t-10.5 -15z" />
    <glyph glyph-name="y" unicode="y" horiz-adv-x="805" 
d="M420 -119h-162q-25 0 -35.5 11t-10.5 35v125l-151 202q-24 32 -32 56t-8 73v192q0 13 3.5 22t10.5 15l129 109q5 4 13.5 6.5t18.5 2.5h154q24 0 35 -11t11 -35v-164q0 -9 1 -18t6 -19l12 -17v109q0 13 3.5 22t10.5 15l129 109q5 4 13.5 6.5t18.5 2.5h149q24 0 35 -11
t11 -35v-192q0 -49 -8 -73t-32 -56l-150 -203v-124q0 -13 -3.5 -22t-10.5 -15l-130 -108q-4 -4 -12.5 -7t-18.5 -3zM549 0q19 0 27.5 8.5t8.5 27.5v127l152 206q22 31 30 54t8 69v192q0 19 -8.5 27.5t-27.5 8.5h-149q-19 0 -27.5 -8.5t-8.5 -27.5v-164q0 -10 -1 -21t-8 -21
l-46 -72q-5 -9 -10.5 -13t-13.5 -4h-10q-8 0 -13.5 4t-10.5 13l-46 72q-7 10 -8 21t-1 21v164q0 19 -8.5 27.5t-27.5 8.5h-154q-19 0 -27.5 -8.5t-8.5 -27.5v-192q0 -46 7.5 -69t30.5 -54l153 -205v-128q0 -19 8.5 -27.5t27.5 -8.5h162zM480 261h-7v-171h-10v171h-10
q-22 0 -39.5 10t-33.5 32l-97 135q-11 15 -13 35t-2 42v115h10v-115q0 -21 2 -39.5t12 -33.5l97 -135q13 -20 30 -28t34 -8h27q19 0 34.5 8.5t30.5 27.5l100 135q10 13 12 32.5t2 40.5v115h10v-115q0 -22 -1.5 -41.5t-13.5 -35.5l-100 -135q-16 -22 -33.5 -32t-40.5 -10z
" />
    <glyph glyph-name="z" unicode="z" horiz-adv-x="760" 
d="M564 -119h-496q-24 0 -35 11t-11 35v134q0 22 6.5 37.5t20.5 30.5l230 279h-193q-24 0 -35 11t-11 35v121q0 13 3.5 22t10.5 15l129 109q5 4 13.5 6.5t18.5 2.5h460q24 0 35 -11t11 -35v-149q0 -22 -6.5 -38t-20.5 -31l-219 -265h218q24 0 35 -11t11 -35v-119
q0 -13 -3.5 -22t-10.5 -15l-130 -108q-4 -4 -12.5 -7t-18.5 -3zM693 0q19 0 27.5 8.5t8.5 27.5v119q0 19 -8.5 27.5t-27.5 8.5h-239l232 281q13 14 19 28.5t6 34.5v149q0 19 -8.5 27.5t-27.5 8.5h-460q-19 0 -27.5 -8.5t-8.5 -27.5v-121q0 -19 8.5 -27.5t27.5 -8.5h214
l-243 -295q-13 -14 -19 -28.5t-6 -33.5v-134q0 -19 8.5 -27.5t27.5 -8.5h496zM588 544l-293 -376q-7 -9 -10.5 -15t-3.5 -16v-14q0 -14 6.5 -18.5t14.5 -4.5h337v-10h-337q-16 0 -23.5 8t-7.5 25v16q0 11 5 19.5t12 17.5l293 376q7 9 10.5 15t3.5 16v14q0 14 -6.5 18.5
t-14.5 4.5h-305v10h305q16 0 23.5 -8t7.5 -25v-16q0 -11 -5 -19.5t-12 -17.5z" />
    <glyph glyph-name="braceleft" unicode="{" horiz-adv-x="555" 
d="M360 -199h-44q-74 0 -123.5 16t-79 44t-41.5 67.5t-12 86.5v123q-32 11 -48 33.5t-16 60.5v35q0 26 7.5 44.5t22.5 30.5l34 29v115q0 51 14.5 93t48.5 70l129 109q29 25 76.5 38.5t116.5 13.5h44q24 0 35 -11t11 -35v-121q0 -13 -3.5 -22t-10.5 -15l-84 -70v-96
q0 -22 -4.5 -36t-14.5 -22l-39 -33l5 -1q30 -5 41.5 -21t11.5 -51v-115q0 -19 6 -29.5t25 -10.5h21q24 0 35 -11t11 -35v-119q0 -13 -3.5 -22t-10.5 -15l-130 -108q-4 -4 -12.5 -7t-18.5 -3zM427 161v115q0 30 -9.5 44t-35.5 18l-33 6q-7 1 -10 4t-3 10t3 10t10 4l33 6
q26 4 35.5 18t9.5 44v117q0 26 8.5 38t32.5 12h21q19 0 27.5 8.5t8.5 27.5v121q0 19 -8.5 27.5t-27.5 8.5h-44q-141 0 -193.5 -57t-52.5 -148v-133q-32 -10 -48 -30t-16 -56v-35q0 -36 16 -56.5t48 -30.5v-130q0 -90 52.5 -147t193.5 -57h44q19 0 27.5 8.5t8.5 27.5v119
q0 19 -8.5 27.5t-27.5 8.5h-21q-24 0 -32.5 12t-8.5 38zM435 11q-65 0 -96 28t-31 85v151q-30 4 -47 21t-17 48v28q0 32 17 48.5t47 20.5v154q0 63 30.5 88t96.5 25v-10q-60 0 -88.5 -22t-28.5 -81v-162q-35 -4 -49.5 -18.5t-14.5 -42.5v-28q0 -28 15 -42.5t49 -18.5v-159
q0 -52 29 -77.5t88 -25.5v-10z" />
    <glyph glyph-name="bar" unicode="|" horiz-adv-x="447" 
d="M232 -209h-145q-24 0 -35 11t-11 35v828q0 13 3.5 22t10.5 15l129 109q5 4 13.5 6.5t18.5 2.5h145q24 0 35 -11t11 -35v-828q0 -13 -3.5 -22t-10.5 -15l-130 -108q-4 -4 -12.5 -7t-18.5 -3zM397 774q0 19 -8.5 27.5t-27.5 8.5h-145q-19 0 -27.5 -8.5t-8.5 -27.5v-828
q0 -19 8.5 -27.5t27.5 -8.5h145q19 0 27.5 8.5t8.5 27.5v828zM284 720h10v-720h-10v720z" />
    <glyph glyph-name="braceright" unicode="}" horiz-adv-x="555" 
d="M67 -199q-24 0 -35 11t-11 35v119q0 13 3.5 22t10.5 15l84 71v93q0 22 4.5 36t14.5 23l39 32l-5 1q-30 5 -41.5 21t-11.5 51v117q0 19 -6 29.5t-25 10.5h-21q-24 0 -35 11t-11 35v121q0 13 3.5 22t10.5 15l129 109q5 4 13.5 6.5t18.5 2.5h44q74 0 123.5 -16t79 -44
t41.5 -68t12 -87v-126q32 -11 48 -33t16 -60v-35q0 -26 -8 -44.5t-23 -31.5l-33 -28v-113q0 -50 -14.5 -91.5t-48.5 -69.5l-129 -109q-30 -25 -77 -39t-116 -14h-44zM258 161q0 -26 -8.5 -38t-32.5 -12h-21q-19 0 -27.5 -8.5t-8.5 -27.5v-119q0 -19 8.5 -27.5t27.5 -8.5h44
q141 0 193.5 57t52.5 147v130q32 10 48 30.5t16 56.5v35q0 36 -16 56t-48 30v133q0 91 -52.5 148t-193.5 57h-44q-19 0 -27.5 -8.5t-8.5 -27.5v-121q0 -19 8.5 -27.5t27.5 -8.5h21q24 0 32.5 -12t8.5 -38v-117q0 -30 9.5 -44t35.5 -18l33 -6q7 -1 10 -4t3 -10t-3 -10t-10 -4
l-33 -6q-26 -4 -35.5 -18t-9.5 -44v-115zM377 124q0 -57 -31 -85t-96 -28v10q59 0 88 25.5t29 77.5v159q34 4 49 18.5t15 42.5v28q0 28 -14.5 42.5t-49.5 18.5v162q0 59 -28.5 81t-88.5 22v10q66 0 96.5 -25t30.5 -88v-154q30 -4 47 -20.5t17 -48.5v-28q0 -31 -17 -48
t-47 -21v-151z" />
    <glyph glyph-name="asciitilde" unicode="~" horiz-adv-x="834" 
d="M616 168q-39 -14 -65.5 -20t-51 -6.5t-53 3.5t-71.5 10l-23 3l-40 5q-40 6 -66 8t-47 0t-41.5 -7t-47.5 -14q-36 -9 -50 2.5t-14 32.5v106q0 19 5.5 31t13.5 19l130 109q4 4 10.5 7t13.5 5q39 14 65.5 20t50.5 6.5t52.5 -3.5t71.5 -10l24 -3l31 -4q46 -7 73.5 -9.5
t47.5 -1t39.5 7t49.5 14.5q34 10 49.5 -1.5t15.5 -39.5v-99q0 -19 -6 -31t-15 -19l-128 -107q-5 -5 -11 -8.5t-13 -5.5zM482 277l23 -3l70 -10t52 -3.5t50.5 6.5t64.5 19q13 5 25 16t12 37v99q0 22 -13 30t-39 1q-31 -9 -51 -14.5t-40.5 -7t-48 1t-74.5 9.5l-31 4l-24 3
q-43 6 -70.5 10t-51.5 3.5t-50 -6.5t-64 -19q-15 -5 -26 -16t-11 -37v-106q0 -17 13 -24.5t38 -0.5q28 9 48.5 14t42 7t48.5 0t67 -8zM275 368v11q36 10 69.5 10.5t98.5 -9.5l40 -5l23 -3q34 -5 58 -9t44 -5t39 1.5t42 8.5v-11q-23 -6 -42 -8t-39.5 -0.5t-45 5t-58.5 8.5
l-23 3l-40 5q-32 5 -55 7t-41.5 1.5t-35 -3t-34.5 -7.5z" />
    <glyph glyph-name="uni00A0" unicode="&#xa0;" horiz-adv-x="325" 
 />
    <glyph glyph-name="exclamdown" unicode="&#xa1;" horiz-adv-x="523" 
d="M103 -119q-24 0 -34.5 11t-9.5 35l15 386q0 13 3.5 22t10.5 15l57 48h-38q-24 0 -35 10.5t-11 35.5v131q0 13 3.5 22t10.5 15l129 109q5 4 13.5 6.5t18.5 2.5h184q24 0 35 -11t11 -35v-131q0 -13 -3.5 -22t-10.5 -15l-57 -48h10q24 0 35.5 -11t12.5 -35l14 -385
q1 -14 -2.5 -23t-10.5 -15l-130 -109q-4 -4 -12 -6.5t-18 -2.5h-191zM236 720q-19 0 -27.5 -8.5t-8.5 -27.5v-131q0 -19 8.5 -27.5t27.5 -8.5h184q19 0 27.5 8.5t8.5 27.5v131q0 19 -8.5 27.5t-27.5 8.5h-184zM323 640h10v-43h-10v43zM250 458q-19 0 -27.5 -8.5t-9.5 -27.5
l-15 -386q-1 -19 7 -27.5t27 -8.5h191q19 0 27 8.5t7 27.5l-14 386q-1 19 -10 27.5t-28 8.5h-155zM333 90h-10v278h10v-278z" />
    <glyph glyph-name="cent" unicode="&#xa2;" horiz-adv-x="728" 
d="M421 -169h-145q-24 0 -35 11t-11 35v47q-56 6 -93.5 30.5t-60.5 59t-32.5 77t-9.5 84.5v191q0 51 14.5 93t48.5 70l129 109q1 1 2.5 2t2.5 2q2 7 5.5 11.5t7.5 8.5l129 109q5 4 13.5 6.5t18.5 2.5h145q24 0 35 -11t11 -35v-44h67q24 0 35 -11t11 -35v-121q0 -13 -3.5 -22
t-10.5 -15l-130 -108q-4 -4 -12.5 -7t-18.5 -3h-123v-89q0 -17 10 -27.5t41 -10.5h201q24 0 35 -11t11 -35v-119q0 -13 -3.5 -22t-10.5 -15l-129 -107q-4 -4 -7.5 -5.5t-6.5 -2.5l-100 -83q-4 -4 -12.5 -7t-18.5 -3zM586 -14v54h77q19 0 27.5 8.5t8.5 27.5v119
q0 19 -8.5 27.5t-27.5 8.5h-201q-39 0 -50 13.5t-11 34.5v158q0 19 11 34.5t50 15.5h201q19 0 27.5 8.5t8.5 27.5v121q0 19 -8.5 27.5t-27.5 8.5h-77v54q0 19 -8.5 27.5t-27.5 8.5h-145q-19 0 -27.5 -8.5t-8.5 -27.5v-56q-111 -10 -153.5 -65.5t-42.5 -137.5v-231
q0 -82 42.5 -137t153.5 -65v-56q0 -19 8.5 -27.5t27.5 -8.5h145q19 0 27.5 8.5t8.5 27.5zM473 131h-32q-97 0 -128.5 30t-31.5 99v197q0 71 32 101t128 30h32v92h10v-92h125v-10h-167q-88 0 -119 -27.5t-31 -93.5v-197q0 -65 30 -92t120 -27h167v-10h-125v-91h-10v91z" />
    <glyph glyph-name="sterling" unicode="&#xa3;" horiz-adv-x="795" 
d="M765 36v255q0 19 -8.5 27.5t-27.5 8.5h-145q-19 0 -27.5 -8.5t-8.5 -27.5v-102h-137v76h48q19 0 27.5 8.5t8.5 27.5v107q0 19 -8.5 27.5t-27.5 8.5h-48v33q0 19 11 34.5t50 15.5h148q19 0 27.5 8.5t8.5 27.5v121q0 19 -8.5 27.5t-27.5 8.5h-190q-141 0 -193.5 -57
t-52.5 -147v-72h-13q-19 0 -27.5 -8.5t-8.5 -27.5v-107q0 -19 8.5 -27.5t27.5 -8.5h13v-229q0 -19 8.5 -27.5t27.5 -8.5h509q19 0 27.5 8.5t8.5 27.5zM661 237v-147h-368v259h-68v10h68v157q0 65 36.5 89.5t100.5 24.5h136v-10h-136q-58 0 -92.5 -22t-34.5 -82v-157h102v-10
h-102v-249h348v137h10zM631 -109q-4 -4 -12.5 -7t-18.5 -3h-509q-24 0 -35 11t-11 35v219h-3q-24 0 -35 10.5t-11 35.5v107q0 13 3.5 22t10.5 15l35 30v41q0 50 14 92t48 70l129 108q30 25 77.5 39t116.5 14h190q24 0 35 -11t11 -35v-121q0 -13 -3.5 -22t-10.5 -15
l-130 -108l1 1q-3 -3 -8 -5.5t-10 -3.5v-109v-7.5t-1 -6.5l48 41q5 4 13.5 6.5t18.5 2.5h145q24 0 35 -11t11 -35v-255q0 -13 -3.5 -22t-10.5 -15z" />
    <glyph glyph-name="currency" unicode="&#xa4;" horiz-adv-x="921" 
d="M675 -113q-16 -13 -29.5 -11.5t-26.5 16.5l-80 80q-27 -7 -61.5 -11t-76.5 -4q-40 0 -72 3.5t-58 9.5l-99 -84q-13 -11 -26.5 -10t-29.5 16l-76 76q-16 17 -16 32.5t16 30.5l90 91q0 7 -0.5 14.5t-0.5 14.5v199q0 8 0.5 15.5t1.5 14.5l-91 91q-16 15 -17 30t17 32l75 75
q1 2 2.5 3.5l2.5 2.5v1l131 109q15 13 28.5 11.5t28.5 -17.5l81 -81q27 8 62.5 12.5t78.5 4.5q37 0 68.5 -3.5t56.5 -8.5l100 84q13 10 26.5 9t28.5 -17l76 -76q19 -17 18 -32t-18 -30l-87 -87q1 -8 1.5 -16.5t0.5 -17.5v-199q0 -9 -0.5 -17t-1.5 -16l87 -87
q17 -15 18 -29.5t-18 -33.5l-76 -76q-2 -2 -3.5 -3t-2.5 -2zM300 8l85 85q28 -8 63.5 -12.5t80.5 -4.5q43 0 78.5 4.5t62.5 11.5l84 -84q12 -13 23.5 -13t24.5 13l76 76q14 14 13.5 25.5t-13.5 23.5l-90 90q1 9 1.5 18t0.5 19v199q0 10 -0.5 19.5t-1.5 18.5l90 90
q13 12 13.5 23.5t-13.5 24.5l-76 76q-13 14 -24.5 13.5t-23.5 -13.5l-84 -84q-27 8 -62 12.5t-79 4.5q-45 0 -81 -4.5t-63 -13.5l-85 85q-12 13 -24 13t-25 -13l-76 -76q-13 -13 -13 -24.5t13 -23.5l94 -94q-1 -8 -1.5 -16.5t-0.5 -17.5v-199q0 -8 0.5 -17t1.5 -16l-94 -94
q-13 -12 -13 -24t13 -25l76 -76q14 -13 25.5 -13t23.5 13zM774 110l-92 94q-18 -23 -54 -36.5t-99 -13.5t-99.5 13.5t-53.5 36.5l-92 -94l-8 6l94 96q-10 16 -13.5 36t-3.5 42v142q0 23 4 44t14 37l-93 95l8 6l91 -93q18 22 54.5 35t97.5 13t97.5 -13t53.5 -36l92 94l8 -6
l-94 -96q10 -16 14 -36.5t4 -43.5v-142q0 -22 -3.5 -41.5t-13.5 -35.5l95 -97zM529 164q50 0 82.5 9t50.5 25.5t25 40t7 51.5v142q0 29 -7 52.5t-25 40t-50.5 25.5t-82.5 9q-51 0 -83.5 -9t-50.5 -25.5t-25 -40t-7 -52.5v-142q0 -28 7 -51.5t25 -40t50.5 -25.5t83.5 -9z
M449 289v141q0 19 14.5 31.5t65.5 12.5t65.5 -12.5t14.5 -31.5v-141q0 -19 -14.5 -32t-65.5 -13t-65.5 13t-14.5 32z" />
    <glyph glyph-name="yen" unicode="&#xa5;" horiz-adv-x="803" 
d="M414 -119h-152q-25 0 -35.5 11t-10.5 35v84h-99q-24 0 -35 10.5t-11 35.5v97q0 13 3.5 22t10.5 15l43 36l-77 100q-22 30 -26.5 63t-4.5 73v112q0 13 3.5 22t10.5 15l129 109q5 4 13.5 6.5t18.5 2.5h155q24 0 35 -11t11 -35v-144q0 -9 1.5 -17.5t5.5 -18.5l13 -19v90
q0 13 3 22t9 14l1 1l130 109q5 4 13 6.5t19 2.5h147q24 0 35 -11t11 -35v-113q0 -40 -4.5 -73t-26.5 -63l-98 -126h33q24 0 35 -10.5t11 -35.5v-97q0 -13 -3.5 -22t-10.5 -15l-129 -109l-2 -1l-0.5 -0.5t-1.5 -0.5q-1 -6 -4.5 -10.5t-7.5 -8.5l-130 -108q-4 -4 -12.5 -7
t-18.5 -3zM579 36v94h109q19 0 27.5 8.5t8.5 27.5v97q0 19 -8.5 27.5t-27.5 8.5h-53l110 142q21 28 25 60t4 70v113q0 19 -8.5 27.5t-27.5 8.5h-147q-19 0 -27.5 -8.5t-8.5 -27.5v-145q0 -10 -0.5 -20.5t-7.5 -20.5l-43 -64q-6 -9 -12 -13t-14 -4h-12q-8 0 -14 4.5t-12 12.5
l-46 65q-5 11 -6.5 21t-1.5 20v144q0 19 -8.5 27.5t-27.5 8.5h-155q-19 0 -27.5 -8.5t-8.5 -27.5v-112q0 -38 3.5 -70t25.5 -60l111 -143h-53q-19 0 -27.5 -8.5t-8.5 -27.5v-97q0 -19 8.5 -27.5t27.5 -8.5h109v-94q0 -19 8.5 -27.5t27.5 -8.5h152q19 0 27.5 8.5t8.5 27.5z
M634 209h-161v-119h-10v119h-163v10h163v90h-18q-22 0 -37.5 8.5t-31.5 30.5l-86 115q-13 22 -17.5 42.5t-4.5 54.5v70h10v-70q0 -32 4 -51t16 -40l86 -115q15 -19 28.5 -27t32.5 -8h47q19 0 32.5 8t28.5 27l86 115q12 21 16 40t4 51v70h10v-70q0 -34 -4.5 -54.5
t-17.5 -42.5l-86 -115q-16 -22 -31.5 -30.5t-37.5 -8.5h-19v-90h161v-10z" />
    <glyph glyph-name="brokenbar" unicode="&#xa6;" horiz-adv-x="447" 
d="M232 -209h-145q-24 0 -35 11t-11 35v338q0 13 3.5 22t10.5 15l82 69h-50q-24 0 -35 11t-11 35v338q0 13 3.5 22t10.5 15l129 109q5 4 13.5 6.5t18.5 2.5h145q24 0 35 -11t11 -35v-338q0 -13 -3.5 -22t-10.5 -15l-83 -69h51q24 0 35 -11t11 -35v-338q0 -13 -3.5 -22
t-10.5 -15l-130 -108q-4 -4 -12.5 -7t-18.5 -3zM397 774q0 19 -8.5 27.5t-27.5 8.5h-145q-19 0 -27.5 -8.5t-8.5 -27.5v-338q0 -19 8.5 -27.5t27.5 -8.5h145q19 0 27.5 8.5t8.5 27.5v338zM284 720h10v-230h-10v230zM397 284q0 19 -8.5 27.5t-27.5 8.5h-145q-19 0 -27.5 -8.5
t-8.5 -27.5v-338q0 -19 8.5 -27.5t27.5 -8.5h145q19 0 27.5 8.5t8.5 27.5v338zM284 230h10v-230h-10v230z" />
    <glyph glyph-name="section" unicode="&#xa7;" horiz-adv-x="750" 
d="M84 -119q-24 0 -35 11t-11 35v81q0 13 3.5 22t10.5 15l81 68q-58 26 -81.5 75t-23.5 112v106q0 51 14.5 93t48.5 70l129 109q29 25 76.5 38.5t116.5 13.5h240q24 0 35 -11t11 -35v-81q0 -13 -3.5 -22t-10.5 -15l-73 -60q69 -25 96 -76t27 -119v-106q0 -51 -14.5 -92.5
t-48.5 -70.5l-130 -108q-29 -25 -76.5 -39t-115.5 -14h-266zM479 0q141 0 193.5 57t52.5 148v106q0 90 -52.5 147t-193.5 57h-94v2q0 19 11 34.5t50 15.5h207q19 0 27.5 8.5t8.5 27.5v81q0 19 -8.5 27.5t-27.5 8.5h-240q-141 0 -193.5 -57t-52.5 -148v-106q0 -90 52.5 -147
t193.5 -57h94v-2q0 -19 -11 -34.5t-50 -15.5h-233q-19 0 -27.5 -8.5t-8.5 -27.5v-81q0 -19 8.5 -27.5t27.5 -8.5h266zM266 72v10h211q79 0 113.5 25.5t34.5 93.5v59h-203q-80 0 -115.5 38.5t-35.5 94.5v126q0 72 36.5 100.5t121.5 28.5h171v-10h-171q-79 0 -113.5 -25.5
t-34.5 -93.5v-59h203q80 0 115.5 -38t35.5 -95v-126q0 -72 -36.5 -100.5t-121.5 -28.5h-211zM422 270h203v57q0 53 -33.5 88t-107.5 35h-203v-57q0 -52 33.5 -87.5t107.5 -35.5zM446 326q-39 0 -50 13.5t-11 34.5v20h61q39 0 50 -13.5t11 -34.5v-20h-61z" />
    <glyph glyph-name="dieresis" unicode="&#xa8;" horiz-adv-x="600" 
d="M303 760q17 0 25 8t8 25v121q0 17 -8 25t-25 8h-138q-17 0 -25.5 -8t-8.5 -25v-121q0 -17 8.5 -25t25.5 -8h138zM561 760q17 0 25 8t8 25v121q0 17 -8 25t-25 8h-138q-17 0 -25 -8t-8 -25v-121q0 -17 8 -25t25 -8h138zM239 830h-10v47h10v-47zM497 830h-10v47h10v-47z
M251 690l-47 -39q-5 -5 -12.5 -7.5t-17.5 -2.5h-138q-22 0 -33 10.5t-11 32.5v121q0 13 3.5 21t9.5 13l129 109q5 4 13 6.5t18 2.5h138q22 0 32.5 -10.5t10.5 -32.5v-6l47 40q5 4 12.5 6.5t17.5 2.5h138q22 0 32.5 -10.5t10.5 -32.5v-121q0 -12 -3.5 -20.5t-9.5 -13.5
l-129 -108q-5 -5 -12.5 -7.5t-17.5 -2.5h-138q-22 0 -32.5 10.5t-10.5 32.5v6z" />
    <glyph glyph-name="copyright" unicode="&#xa9;" horiz-adv-x="967" 
d="M731 -135q-42 -35 -117 -55t-194 -20q-116 0 -191 23.5t-118 62.5t-59 91t-16 108v380q0 55 16 101.5t56 80.5l130 109q42 35 117 55t194 20q117 0 192 -19t117 -53t58 -81.5t16 -103.5v-410q0 -54 -16 -100.5t-56 -79.5zM922 154v410q0 55 -16 100.5t-57.5 78
t-114.5 50.5t-185 18t-185 -18t-114.5 -50.5t-58 -78t-16.5 -100.5v-410q0 -54 16.5 -99.5t58 -77.5t114.5 -50t185 -18t185 18t114.5 50t57.5 77.5t16 99.5zM877 568v-418q0 -38 -12 -74t-47 -63.5t-99.5 -44t-169.5 -16.5t-170 15t-100 41.5t-47 63t-12 78.5v418
q0 39 9.5 75t43 64t99 44.5t177.5 16.5t177.5 -16.5t98.5 -44.5t42.5 -64t9.5 -75zM549 -38q99 0 161.5 15.5t97 41.5t47 60t12.5 71v418q0 37 -9.5 71.5t-42.5 61t-96.5 42t-169.5 15.5t-169.5 -15.5t-96.5 -42t-43 -61t-10 -71.5v-418q0 -41 12.5 -75.5t47.5 -59.5
t97.5 -39t161.5 -14zM822 150q0 -32 -12 -59t-42 -46t-83.5 -29.5t-135.5 -10.5t-135.5 10.5t-84 29.5t-42.5 46t-12 59v418q0 32 12 59.5t42.5 46.5t84 30t135.5 11t135.5 -11t83.5 -30t42 -46.5t12 -59.5v-418zM704 110q13 0 19.5 6.5t6.5 19.5v85q0 13 -6.5 19.5
t-19.5 6.5h-144q-28 0 -36 9.5t-8 24.5v171q0 13 8 24.5t36 11.5h144q13 0 19.5 6t6.5 19v87q0 13 -6.5 19.5t-19.5 6.5h-175q-101 0 -138.5 -40.5t-37.5 -106.5v-223q0 -65 37.5 -105.5t138.5 -40.5h175zM285 568v-58l101 86q-29 -1 -54 -3.5t-46 -6.5q-1 -4 -1 -9v-9z
M666 173h-121q-69 0 -93 21.5t-24 72.5v201q0 51 25 72.5t92 21.5h121v-9h-121q-62 0 -84.5 -19.5t-22.5 -65.5v-201q0 -46 22 -65t85 -19h121v-10zM560 257h123v190l-83 -69q-4 -4 -10.5 -6.5t-14.5 -2.5h-49v-88q0 -11 7 -17.5t27 -6.5zM683 41v28l-62 -52q17 1 32.5 3.5
t28.5 4.5q1 4 1 8v8z" />
    <glyph glyph-name="ordfeminine" unicode="&#xaa;" horiz-adv-x="620" 
d="M434 -119h-376q-24 0 -35 10.5t-11 35.5v67q0 13 3.5 22t10.5 15l62 52h-36q-20 0 -30 10t-10 30v179q0 31 6 59.5t16 51.5q14 41 30.5 85t30.5 84q3 10 7.5 17t10.5 11l129 109q7 5 16.5 8t22.5 3h189q23 0 35 -9t21 -30l62 -169q9 -24 15 -52t6 -59v-179q0 -11 -3 -19
t-9 -13l-61 -51h27q24 0 35 -10.5t11 -35.5v-67q0 -13 -3.5 -22t-10.5 -15l-129 -109q-6 -4 -14 -6.5t-18 -2.5zM237 420v-21h273v21q0 19 -3.5 35t-8.5 30l-48 115q-8 19 -16.5 30.5t-28.5 11.5h-67q-21 0 -29.5 -11.5t-15.5 -29.5l-45 -116q-5 -14 -8 -30t-3 -35zM358 568
q1 4 3 7t5 3h13q2 0 5 -3t4 -7l34 -105h-99zM510 270v120h-273v-120h-9v150q0 19 3 36t9 32l45 116q7 19 17 33t34 14h70q23 0 33.5 -14t18.5 -34l49 -115q6 -15 9 -32t3 -36v-150h-9zM314 232v95h117v-95q0 -15 7.5 -22.5t22.5 -7.5h108q16 0 23 7.5t7 22.5v179
q0 30 -6 57.5t-14 50.5l-62 169q-7 17 -17.5 24.5t-29.5 7.5h-189q-20 0 -30.5 -7.5t-17.5 -24.5q-14 -40 -30.5 -84t-30.5 -85q-9 -23 -15 -50.5t-6 -57.5v-179q0 -15 7.5 -22.5t22.5 -7.5h103q16 0 23 7.5t7 22.5zM292 149v34l-41 -34h41zM187 0h376q19 0 27.5 8.5
t8.5 27.5v67q0 19 -8.5 27.5t-27.5 8.5h-376q-19 0 -27.5 -8.5t-8.5 -27.5v-67q0 -19 8.5 -27.5t27.5 -8.5zM529 73v-8h-308v8h308z" />
    <glyph glyph-name="guillemotleft" unicode="&#xab;" horiz-adv-x="912" 
d="M471 106q18 -5 27 4t9 27v117q0 19 -9 31.5t-27 17.5l-95 27q-10 4 -13.5 7t-3.5 12t3.5 12t13.5 7l95 28q17 7 26.5 18.5t9.5 30.5v117q0 19 -10 27t-26 4l-179 -52q-62 -19 -94.5 -50t-32.5 -105v-74q0 -74 32.5 -105.5t94.5 -49.5zM831 109q18 -5 27 4t9 27v114
q0 19 -9 31.5t-27 17.5l-95 27q-10 3 -13.5 6.5t-3.5 12.5t3.5 12.5t13.5 6.5l95 28q17 7 26.5 18.5t9.5 30.5v114q0 17 -9.5 26.5t-26.5 4.5l-169 -49q-63 -18 -95 -49.5t-32 -105.5v-74q0 -74 32.5 -105.5t94.5 -49.5zM688 457l99 30v-10l-97 -30q-23 -7 -38.5 -18.5
t-15.5 -42.5v-74q0 -31 15.5 -43t37.5 -18l98 -29v-10l-100 29q-27 7 -44 21.5t-17 49.5v74q0 35 17 49t45 22zM319 251l98 -29v-10l-100 29q-27 7 -44 21.5t-17 49.5v74q0 35 17 49t45 22l99 30v-10l-97 -30q-23 -7 -38.5 -18.5t-15.5 -42.5v-74q0 -31 15.5 -42.5
t37.5 -18.5zM374 -8q-6 -4 -15 -6t-20 1l-179 51q-66 19 -100 53t-34 112v74q0 46 12 75.5t34 48.5l129 108q16 13 38 23t50 19l179 52q21 5 35 -4.5t14 -36.5v-98l55 46q16 13 38 23t49 18l169 49q22 7 35.5 -5t13.5 -36v-114q0 -15 -5 -26.5t-15 -19.5l-83 -70l60 -16
q22 -7 32.5 -21.5t10.5 -37.5v-114q0 -13 -3.5 -21.5t-10.5 -14.5l-129 -109q-6 -4 -15 -6t-20 1l-169 48q-20 6 -37 13t-31 15z" />
    <glyph glyph-name="logicalnot" unicode="&#xac;" horiz-adv-x="834" 
d="M614 -56h-124q-25 0 -35.5 11t-10.5 35v198h-352q-24 0 -35 10.5t-11 35.5v114q0 13 3.5 22t10.5 15l129 109q5 4 13.5 6.5t18.5 2.5h522q24 0 35 -10.5t11 -35.5v-358q0 -13 -3.5 -22t-10.5 -15l-129 -109q-6 -4 -14 -6.5t-18 -2.5zM743 63q19 0 27.5 8.5t8.5 27.5v358
q0 19 -8.5 27.5t-27.5 8.5h-522q-19 0 -27.5 -8.5t-8.5 -27.5v-114q0 -19 8.5 -27.5t27.5 -8.5h362v-208q0 -19 8.5 -27.5t27.5 -8.5h124zM679 395h-404v10h414v-252h-10v242z" />
    <glyph glyph-name="uni00AD" unicode="&#xad;" horiz-adv-x="520" 
d="M330 138h-268q-24 0 -35 10.5t-11 35.5v134q0 13 3.5 22t10.5 15l129 109q5 4 13.5 6.5t18.5 2.5h268q24 0 35 -10.5t11 -35.5v-134q0 -13 -3.5 -22t-10.5 -15l-129 -109q-6 -4 -14 -6.5t-18 -2.5zM191 257h268q19 0 27.5 8.5t8.5 27.5v134q0 19 -8.5 27.5t-27.5 8.5
h-268q-19 0 -27.5 -8.5t-8.5 -27.5v-134q0 -19 8.5 -27.5t27.5 -8.5zM405 365v-10h-160v10h160z" />
    <glyph glyph-name="registered" unicode="&#xae;" horiz-adv-x="660" 
d="M455 125q-25 -22 -71 -34t-118 -12t-117.5 16.5t-71.5 43t-35.5 60t-9.5 67.5v216q0 34 10 63.5t35 50.5l129 108q25 22 71 34t118 12t118 -12t71.5 -33t35 -50t9.5 -64v-246q0 -34 -10 -62.5t-35 -48.5zM619 345v246q0 33 -9.5 60.5t-34.5 47t-68.5 30.5t-111.5 11
q-67 0 -110.5 -11t-68.5 -30.5t-35 -47t-10 -60.5v-246q0 -32 10 -59.5t35 -46.5t68.5 -30t110.5 -11q68 0 111.5 11t68.5 30t34.5 46.5t9.5 59.5zM594 588v-240q0 -29 -8 -52.5t-30 -40t-61 -25t-100 -8.5q-60 0 -99 8.5t-61 25t-30.5 40t-8.5 52.5v240q0 30 8.5 54
t30.5 40.5t61 25t99 8.5q61 0 100 -8.5t61 -25t30 -40.5t8 -54zM395 232q56 0 93 7.5t58 22.5t29.5 36.5t8.5 49.5v240q0 29 -8.5 51t-29.5 37t-58 22.5t-93 7.5q-112 0 -150.5 -30.5t-38.5 -87.5v-240q0 -56 38.5 -86t150.5 -30zM559 343q0 -39 -32.5 -63t-131.5 -24
t-131.5 24t-32.5 63v251q0 39 32.5 63.5t131.5 24.5t131.5 -24.5t32.5 -63.5v-251zM391 579h-69v-114h69q33 0 45 10.5t12 29.5v29q0 21 -14.5 33t-42.5 12zM363 548h31q11 0 14.5 -6t3.5 -14v-13q0 -9 -3.5 -14.5t-14.5 -5.5h-31v53zM322 361h-10v228h79q34 0 50.5 -15.5
t16.5 -39.5v-29q0 -13 -4 -23.5t-15 -16.5q24 -1 36 -13t12 -34v-57h-10v57q0 18 -11 27.5t-31 9.5h-113v-94zM349 326q7 0 10.5 4t3.5 11v83h58q8 0 11.5 -4t3.5 -13v-66q0 -7 4 -11t11 -4h64q7 0 10.5 4t3.5 11v87q0 25 -14 41t-36 19q13 5 18.5 17t5.5 29v19
q0 31 -17.5 49.5t-63.5 18.5h-136q-8 0 -11.5 -3.5t-3.5 -11.5v-265q0 -7 3.5 -11t11.5 -4h63z" />
    <glyph glyph-name="macron" unicode="&#xaf;" horiz-adv-x="600" 
d="M409 641h-347q-24 0 -35 11t-11 35v93q0 13 3.5 22t10.5 15l129 109q5 4 13.5 6.5t18.5 2.5h347q24 0 35 -11t11 -35v-93q0 -13 -3.5 -22t-10.5 -15l-130 -108q-4 -4 -12.5 -7t-18.5 -3zM538 760q19 0 27.5 8.5t8.5 27.5v93q0 19 -8.5 27.5t-27.5 8.5h-347
q-19 0 -27.5 -8.5t-8.5 -27.5v-93q0 -19 8.5 -27.5t27.5 -8.5h347zM245 847h239v-10h-239v10z" />
    <glyph glyph-name="degree" unicode="&#xb0;" horiz-adv-x="583" 
d="M399 230q-22 -19 -63.5 -29.5t-107.5 -10.5q-64 0 -104.5 14t-63.5 36.5t-31 50.5t-8 55v154q0 26 8 48.5t27 38.5l129 108q22 19 63.5 29.5t108.5 10.5q64 0 104.5 -9.5t63 -26t30.5 -40t8 -50.5v-184q0 -26 -8 -48.5t-28 -38.5zM553 425v184q0 26 -8.5 47.5t-30.5 36.5
t-60 23.5t-97 8.5t-97.5 -8.5t-60.5 -23.5t-30.5 -36.5t-8.5 -47.5v-184q0 -26 8.5 -47.5t30.5 -36.5t60.5 -23.5t97.5 -8.5t97 8.5t60 23.5t30.5 36.5t8.5 47.5zM485 581v-129q0 -43 -27 -61t-101 -18q-73 0 -100.5 18t-27.5 61v129q0 43 27.5 61.5t100.5 18.5
q74 0 101 -18.5t27 -61.5zM357 383q66 0 92 15t26 54v129q0 39 -26 54.5t-92 15.5t-92 -15.5t-26 -54.5v-129q0 -39 26 -54t92 -15zM307 474v85q0 11 9.5 19.5t40.5 8.5q33 0 41.5 -8.5t8.5 -19.5v-85q0 -12 -9.5 -19.5t-40.5 -7.5t-40.5 7.5t-9.5 19.5z" />
    <glyph glyph-name="plusminus" unicode="&#xb1;" horiz-adv-x="834" 
d="M614 -118h-522q-24 0 -35 10.5t-11 35.5v114q0 13 3.5 22t10.5 15l129 109q5 4 13.5 6.5t18.5 2.5h24v13h-153q-24 0 -35 10.5t-11 35.5v114q0 13 3.5 22t10.5 15l129 109q5 4 13.5 6.5t18.5 2.5h24v49q0 13 3 22t9 14l1 1l130 109q5 4 13 6.5t19 2.5h124q24 0 35 -11
t11 -35v-158h153q24 0 35 -10.5t11 -35.5v-114q0 -13 -3.5 -22t-10.5 -15l-129 -109q-6 -4 -14 -6.5t-18 -2.5h-24v-13h153q24 0 35 -10.5t11 -35.5v-114q0 -13 -3.5 -22t-10.5 -15l-129 -109q-6 -4 -14 -6.5t-18 -2.5zM743 1q19 0 27.5 8.5t8.5 27.5v114q0 19 -8.5 27.5
t-27.5 8.5h-163v142h163q19 0 27.5 8.5t8.5 27.5v114q0 19 -8.5 27.5t-27.5 8.5h-163v168q0 19 -8.5 27.5t-27.5 8.5h-124q-19 0 -27.5 -8.5t-8.5 -27.5v-168h-163q-19 0 -27.5 -8.5t-8.5 -27.5v-114q0 -19 8.5 -27.5t27.5 -8.5h163v-142h-163q-19 0 -27.5 -8.5t-8.5 -27.5
v-114q0 -19 8.5 -27.5t27.5 -8.5h522zM477 215v202h-202v10h202v202h10v-202h202v-10h-202v-202h-10zM275 89v10h414v-10h-414z" />
    <glyph glyph-name="twosuperior" unicode="&#xb2;" horiz-adv-x="585" 
d="M394 83h-342q-19 0 -27.5 8.5t-8.5 27.5v124q0 53 12.5 83.5t34.5 48.5l107 90h-91q-19 0 -27.5 8.5t-8.5 27.5v84q0 10 3 17.5t8 11.5l129 109l1 1q4 2 10.5 4t13.5 2h212q66 0 101.5 -33.5t35.5 -95.5v-68q0 -34 -11 -58t-32 -41l-102 -86h111q19 0 27.5 -8.5
t8.5 -27.5v-84q0 -10 -3 -17.5t-8 -11.5l-129 -107q-4 -4 -10.5 -6.5t-14.5 -2.5zM523 202q13 0 19.5 6.5t6.5 19.5v84q0 13 -6.5 19.5t-19.5 6.5h-205v15q0 12 4 15t15 7l98 31q52 16 82 44.5t30 82.5v68q0 57 -33 88t-94 31h-212q-13 0 -19.5 -6.5t-6.5 -19.5v-84
q0 -13 6.5 -19.5t19.5 -6.5h156q11 0 15.5 -4t4.5 -15t-4.5 -16.5t-15.5 -9.5l-96 -30q-25 -7 -45.5 -17t-35.5 -27t-23.5 -44.5t-8.5 -68.5v-124q0 -13 6.5 -19.5t19.5 -6.5h342zM273 439l168 55q8 4 13.5 12t5.5 21v66q0 32 -18.5 43t-49.5 11h-145v9h145q37 0 57.5 -13
t20.5 -50v-66q0 -17 -7 -27t-20 -14l-167 -56q-20 -7 -27.5 -17.5t-7.5 -33.5v-104h243v-9h-252v113q0 27 9 40t32 20z" />
    <glyph glyph-name="threesuperior" unicode="&#xb3;" horiz-adv-x="584" 
d="M61 83q-19 0 -27.5 8.5t-8.5 27.5v84q0 10 3 17.5t8 11.5l63 53q-7 4 -11 12t-4 20v77q0 10 3 17.5t8 11.5l49 41h-83q-19 0 -27.5 8.5t-8.5 27.5v85q0 10 3 17.5t8 11.5l129 109l1 1q4 2 10.5 4t13.5 2h201q66 0 97 -31t31 -82v-42q0 -23 -6 -41.5t-20 -30.5
q41 -10 58 -37t17 -73v-72q0 -31 -10.5 -55.5t-30.5 -41.5l-129 -108q-19 -16 -46 -24.5t-63 -8.5h-228zM190 338q-13 0 -19.5 -6.5t-6.5 -19.5v-84q0 -13 6.5 -19.5t19.5 -6.5h228q69 0 104.5 32t35.5 87v72q0 48 -20 73.5t-71 31.5q24 10 33 30t9 47v42q0 48 -29 75.5
t-89 27.5h-201q-13 0 -19.5 -6.5t-6.5 -19.5v-85q0 -13 6.5 -19.5t19.5 -6.5h134q17 0 22.5 -6.5t5.5 -15.5v-11q0 -8 -5.5 -14.5t-22.5 -6.5h-75q-13 0 -19.5 -6.5t-6.5 -19.5v-77q0 -13 6.5 -19.5t19.5 -6.5h122q17 0 22 -6.5t5 -14.5v-20q0 -8 -5 -14.5t-22 -6.5h-181z
M288 459v9h59q54 0 66.5 20t12.5 45v49q0 27 -17 46t-69 19h-111v9h111q60 0 77.5 -22.5t17.5 -54.5v-46q0 -20 -7.5 -40t-40.5 -27h11q46 0 65.5 -20t19.5 -58v-49q0 -33 -17.5 -53t-77.5 -20h-159v9h159q53 0 69.5 17.5t16.5 46.5v49q0 36 -18.5 53.5t-58.5 17.5h-109z
" />
    <glyph glyph-name="acute" unicode="&#xb4;" horiz-adv-x="600" 
d="M61 634q-22 -3 -33.5 8.5t-11.5 34.5v96q0 13 3.5 21.5t9.5 13.5l130 109q4 4 12.5 7t18.5 4l349 43q22 3 33.5 -8.5t11.5 -34.5v-96q0 -13 -3.5 -22t-10.5 -13l-129 -109q-5 -4 -13 -6.5t-18 -4.5zM538 796q19 2 27.5 9.5t8.5 26.5v96q0 17 -8.5 26t-25.5 7l-349 -43
q-19 -2 -27.5 -9.5t-8.5 -26.5v-96q0 -17 8.5 -26t25.5 -7zM245 847l239 30v-10l-239 -30v10z" />
    <glyph glyph-name="mu" unicode="&#xb5;" horiz-adv-x="813" 
d="M474 78q-83 0 -124.5 22t-54.5 59v-159h-10v480h10v-267q0 -56 37.5 -90.5t141.5 -34.5t142.5 34.5t38.5 90.5v267h10v-267q0 -60 -40.5 -97.5t-150.5 -37.5zM403 -54v47q19 -4 42 -6t48 -2q84 0 138 15t85.5 41.5t43.5 64t12 83.5v345q0 19 -8.5 27.5t-27.5 8.5h-152
q-19 0 -27.5 -8.5t-8.5 -27.5v-316q0 -20 -13.5 -33.5t-59.5 -13.5t-59 13.5t-13 33.5v316q0 19 -8.5 27.5t-27.5 8.5h-155q-19 0 -27.5 -8.5t-8.5 -27.5v-588q0 -19 8.5 -27.5t27.5 -8.5h155q19 0 27.5 8.5t8.5 27.5zM269 -199q-4 -4 -12.5 -7t-18.5 -3h-155q-24 0 -35 11
t-11 35v588q0 13 3.5 22t10.5 15l129 109q5 4 13.5 6.5t18.5 2.5h155q24 0 35 -11t11 -35v-85q1 4 3.5 7t4.5 5l1 1l130 109q5 4 13 6.5t19 2.5h152q24 0 35 -11t11 -35v-345q0 -49 -13.5 -89t-47.5 -68l-128 -108q-33 -28 -88 -43t-141 -15h-8t-8 1z" />
    <glyph glyph-name="paragraph" unicode="&#xb6;" horiz-adv-x="782" 
d="M248 425q0 -27 5.5 -49.5t20.5 -39t42.5 -25.5t71.5 -9h242v318h-242q-44 0 -71.5 -9.5t-42.5 -26.5t-20.5 -40t-5.5 -50v-69zM392 292h-4q-47 0 -76.5 10t-45.5 27.5t-22 42t-6 53.5v69q0 29 6 54t22 43t45.5 28.5t76.5 10.5h252v-540h-10v202h-228v-202h-10v202zM454 0
q19 0 27.5 8.5t8.5 27.5v166h51v-166q0 -19 8.5 -27.5t27.5 -8.5h115q19 0 27.5 8.5t8.5 27.5v648q0 19 -8.5 27.5t-27.5 8.5h-306q-136 0 -186 -54t-50 -141v-128q0 -72 33 -122t120 -66v-173q0 -19 8.5 -27.5t27.5 -8.5h115zM402 -71l-46 -38q-4 -4 -12.5 -7t-18.5 -3
h-115q-24 0 -35 11t-11 35v165q-87 18 -120 70t-33 126v128q0 49 13.5 88.5t46.5 66.5l129 109q28 23 74 36.5t112 13.5h306q24 0 35 -11t11 -35v-648q0 -13 -3.5 -22t-10.5 -15l-130 -108q-4 -4 -12.5 -7t-18.5 -3h-115q-24 0 -35 11t-11 35v2z" />
    <glyph glyph-name="periodcentered" unicode="&#xb7;" horiz-adv-x="464" 
d="M269 101h-202q-24 0 -35 11t-11 35v203q0 13 3.5 22.5t9.5 14.5l130 109q5 4 13 6.5t19 2.5h202q24 0 35 -10.5t11 -35.5v-203q0 -13 -3.5 -22t-10.5 -15l-130 -108q-4 -4 -12.5 -7t-18.5 -3zM398 220q19 0 27.5 8.5t8.5 27.5v203q0 19 -8.5 27.5t-27.5 8.5h-202
q-19 0 -27.5 -8.5t-8.5 -27.5v-203q0 -19 8.5 -27.5t27.5 -8.5h202zM292 310v95h10v-95h-10z" />
    <glyph glyph-name="cedilla" unicode="&#xb8;" horiz-adv-x="600" 
d="M254 -245h-126q-34 0 -41 15t1 38l85 230q3 9 6.5 14.5t7.5 9.5l130 109q7 6 17.5 7t24.5 -5l116 -43q22 -7 27.5 -20.5t-1.5 -31.5l-63 -177q-2 -8 -6 -15t-10 -11l-129 -108q-7 -6 -16.5 -9t-22.5 -3zM382 -126q19 0 30 7t16 23l63 177q5 14 0.5 24t-20.5 16l-116 43
q-18 7 -28 1.5t-16 -21.5l-85 -230q-7 -18 -1 -29t31 -11h126zM390 97l10 -1l-48 -132h-10z" />
    <glyph glyph-name="onesuperior" unicode="&#xb9;" horiz-adv-x="557" 
d="M378 83h-318q-19 0 -27.5 8.5t-8.5 27.5v87q0 10 3 17.5t8 11.5l96 81v146h-57q-19 0 -27.5 8.5t-8.5 27.5v87q0 10 3 17.5t8 11.5l129 109q4 4 11 5.5t14 1.5h209q19 0 27.5 -8.5t8.5 -27.5v-343h59q19 0 27.5 -8.5t8.5 -27.5v-87q0 -10 -3 -17.5t-8 -11.5l-129 -107
q-4 -4 -10.5 -6.5t-14.5 -2.5zM507 202q13 0 19.5 6.5t6.5 19.5v87q0 13 -6.5 19.5t-19.5 6.5h-69v353q0 13 -6.5 19.5t-19.5 6.5h-209q-13 0 -19.5 -6.5t-6.5 -19.5v-87q0 -13 6.5 -19.5t19.5 -6.5h67v-240h-81q-13 0 -19.5 -6.5t-6.5 -19.5v-87q0 -13 6.5 -19.5t19.5 -6.5
h318zM468 262h-240v8h121v377h-107v9h116v-385h110v-9z" />
    <glyph glyph-name="ordmasculine" unicode="&#xba;" horiz-adv-x="625" 
d="M436 -119h-375q-24 0 -35 10.5t-11 35.5v67q0 13 3.5 22t10.5 15l74 63q-51 20 -69.5 55.5t-18.5 81.5v241q0 34 10 63.5t35 50.5l129 108q25 22 71 34t118 12t117.5 -12t71 -33t35 -50t9.5 -64v-241q0 -34 -10 -63t-35 -49l-94 -79h93q24 0 35 -10.5t11 -35.5v-67
q0 -13 -3.5 -22t-10.5 -15l-129 -109q-6 -4 -14 -6.5t-18 -2.5zM601 340v241q0 33 -9.5 60.5t-34.5 47t-68.5 30.5t-110.5 11t-110.5 -11t-68.5 -30.5t-35 -47t-10 -60.5v-241q0 -33 10 -60.5t35 -46.5t68.5 -30t110.5 -11t110.5 11t68.5 30t34.5 46.5t9.5 60.5zM522 356
q0 -43 -30.5 -69.5t-114.5 -26.5t-113.5 26.5t-29.5 69.5v209q0 44 29.5 70.5t113.5 26.5t114.5 -26.5t30.5 -70.5v-209zM243 356q0 -39 28 -63t106 -24t107 24t29 63v209q0 39 -29 63.5t-107 24.5t-106 -24.5t-28 -63.5v-209zM323 365v190q0 12 10 20.5t45 8.5
q36 0 45.5 -8.5t9.5 -20.5v-190q0 -12 -9.5 -20t-45.5 -8q-35 0 -45 8t-10 20zM190 0h375q19 0 27.5 8.5t8.5 27.5v67q0 19 -8.5 27.5t-27.5 8.5h-375q-19 0 -27.5 -8.5t-8.5 -27.5v-67q0 -19 8.5 -27.5t27.5 -8.5zM529 73v-8h-308v8h308z" />
    <glyph glyph-name="guillemotright" unicode="&#xbb;" horiz-adv-x="912" 
d="M445 -13q-24 -7 -36.5 3.5t-12.5 37.5v98l-56 -47q-15 -13 -36.5 -22.5t-49.5 -18.5l-169 -48q-24 -7 -36.5 3.5t-12.5 37.5v114q0 15 4.5 27t14.5 20l82 69l-58 17h-1q-20 7 -31 21t-11 37v114q0 13 3.5 22.5t9.5 14.5l130 109q6 4 14 6t21 -2l169 -49q19 -6 36 -12.5
t31 -14.5l88 74q6 4 14.5 6t21.5 -1l179 -52q66 -19 100 -53t34 -112v-74q0 -46 -12.5 -75.5t-34.5 -48.5l-130 -109q-15 -13 -36.5 -22.5t-49.5 -18.5zM571 106l179 51q62 18 94.5 49.5t32.5 105.5v74q0 74 -32.5 105.5t-94.5 49.5l-179 52q-18 5 -27 -3.5t-9 -27.5v-117
q0 -19 9 -31.5t27 -17.5l95 -28q10 -4 13.5 -7t3.5 -12t-3.5 -12t-13.5 -7l-95 -27q-18 -5 -27 -17.5t-9 -31.5v-117q0 -19 9 -27.5t27 -3.5zM380 157q62 18 94.5 49.5t32.5 105.5v74q0 74 -32 105.5t-95 49.5l-169 49q-18 6 -27 -3t-9 -28v-114q0 -19 9.5 -30.5t26.5 -18.5
l95 -28q10 -3 13.5 -6.5t3.5 -12.5t-3.5 -12.5t-13.5 -6.5l-95 -27q-18 -5 -27 -17.5t-9 -31.5v-114q0 -19 9 -27.5t27 -3.5zM625 212v10l98 29q22 7 37.5 18.5t15.5 42.5v74q0 31 -15.5 42.5t-38.5 18.5l-97 30v10l99 -30q28 -8 45 -22t17 -49v-74q0 -35 -17 -49.5
t-44 -21.5zM255 477v10l99 -30q28 -8 45 -22t17 -49v-74q0 -35 -17 -49.5t-44 -21.5l-100 -29v10l98 29q22 6 37.5 18t15.5 43v74q0 31 -15.5 42.5t-38.5 18.5z" />
    <glyph glyph-name="onequarter" unicode="&#xbc;" horiz-adv-x="1303" 
d="M540 36q-4 -19 6.5 -27.5t29.5 -8.5h115q19 0 25.5 8.5t10.5 27.5l120 648q4 19 -6.5 27.5t-29.5 8.5h-115q-19 0 -25.5 -8.5t-10.5 -27.5zM507 202q13 0 19.5 6.5t6.5 19.5v87q0 13 -6.5 19.5t-19.5 6.5h-69v353q0 13 -6.5 19.5t-19.5 6.5h-209q-13 0 -19.5 -6.5
t-6.5 -19.5v-87q0 -13 6.5 -19.5t19.5 -6.5h67v-240h-81q-13 0 -19.5 -6.5t-6.5 -19.5v-87q0 -13 6.5 -19.5t19.5 -6.5h318zM468 262h-240v8h121v377h-107v9h116v-385h110v-9zM649 90h-10l100 540h10zM1106 120v-94q0 -13 6.5 -19.5t19.5 -6.5h111q13 0 19 6.5t6 19.5v466
q0 13 -6 19.5t-19 6.5h-111q-13 0 -19.5 -6.5t-6.5 -19.5v-222h-67q-10 0 -16.5 7t-6.5 18v197q0 13 -6 19.5t-19 6.5h-112q-13 0 -19.5 -6.5t-6.5 -19.5v-253q0 -61 30.5 -90t100.5 -29h122zM1182 64v127h-171q-42 0 -61.5 19t-19.5 57v186h10v-186q0 -34 17.5 -50.5
t53.5 -16.5h171v253h10v-389h-10zM592 -109q-5 -5 -12.5 -7.5t-17.5 -2.5h-115q-25 0 -37.5 12t-8.5 36l36 191l-34 -28q-4 -4 -10.5 -6.5t-14.5 -2.5h-318q-19 0 -27.5 8.5t-8.5 27.5v87q0 10 3 17.5t8 11.5l96 81v146h-57q-19 0 -27.5 8.5t-8.5 27.5v87q0 10 3 17.5
t8 11.5l129 109q4 4 11 5.5t14 1.5h209q19 0 27.5 -8.5t8.5 -27.5v-343h32l41 225q2 13 6 22t9 14l1 1l130 109q4 4 11.5 6t17.5 2h115q25 0 37.5 -12t8.5 -36l-35 -187l32 26l1 1q4 2 10.5 4t13.5 2h112q19 0 27 -8.5t8 -27.5v-39l81 68l1 1q4 2 10.5 4t13.5 2h111
q19 0 27 -8.5t8 -27.5v-466q0 -10 -3 -17.5t-8 -11.5l-130 -109q-4 -3 -9.5 -5t-13.5 -2h-111q-19 0 -27.5 8.5t-8.5 27.5v84h-112q-43 0 -71.5 10t-45.5 30l-1 -7q-3 -13 -6.5 -21.5t-9.5 -14.5z" />
    <glyph glyph-name="onehalf" unicode="&#xbd;" horiz-adv-x="1260" 
d="M540 36q-4 -19 6.5 -27.5t29.5 -8.5h115q19 0 25.5 8.5t10.5 27.5l120 648q4 19 -6.5 27.5t-29.5 8.5h-115q-19 0 -25.5 -8.5t-10.5 -27.5zM507 202q13 0 19.5 6.5t6.5 19.5v87q0 13 -6.5 19.5t-19.5 6.5h-69v353q0 13 -6.5 19.5t-19.5 6.5h-209q-13 0 -19.5 -6.5
t-6.5 -19.5v-87q0 -13 6.5 -19.5t19.5 -6.5h67v-240h-81q-13 0 -19.5 -6.5t-6.5 -19.5v-87q0 -13 6.5 -19.5t19.5 -6.5h318zM468 262h-240v8h121v377h-107v9h116v-385h110v-9zM649 90h-10l100 540h10zM1198 0q13 0 19.5 6.5t6.5 19.5v84q0 13 -6.5 19.5t-19.5 6.5h-205v15
q0 12 4 15t15 7l98 31q52 16 82 44.5t30 82.5v68q0 57 -33 88t-94 31h-212q-13 0 -19.5 -6.5t-6.5 -19.5v-84q0 -13 6.5 -19.5t19.5 -6.5h156q11 0 15.5 -4t4.5 -15t-4.5 -16.5t-15.5 -9.5l-96 -30q-25 -7 -45.5 -17t-35.5 -27t-23.5 -44.5t-8.5 -68.5v-124q0 -13 6.5 -19.5
t19.5 -6.5h342zM948 237l168 55q8 4 13.5 12t5.5 21v66q0 32 -18.5 43t-49.5 11h-145v9h145q37 0 57.5 -13t20.5 -50v-66q0 -17 -7 -27t-20 -14l-167 -56q-20 -7 -27.5 -17.5t-7.5 -33.5v-104h243v-9h-252v113q0 27 9 40t32 20zM845 263h-66l-12 -66zM592 -109
q-5 -5 -12.5 -7.5t-17.5 -2.5h-115q-25 0 -37.5 12t-8.5 36l36 191l-34 -28q-4 -4 -10.5 -6.5t-14.5 -2.5h-318q-19 0 -27.5 8.5t-8.5 27.5v87q0 10 3 17.5t8 11.5l96 81v146h-57q-19 0 -27.5 8.5t-8.5 27.5v87q0 10 3 17.5t8 11.5l129 109q4 4 11 5.5t14 1.5h209
q19 0 27.5 -8.5t8.5 -27.5v-343h32l41 225q2 13 6 22t9 14l1 1l130 109q4 4 11.5 6t17.5 2h115q25 0 37.5 -12t8.5 -36l-36 -192l37 31l1 1q4 2 10.5 4t13.5 2h212q66 0 101.5 -33.5t35.5 -95.5v-68q0 -34 -11 -58t-32 -41l-102 -86h111q19 0 27.5 -8.5t8.5 -27.5v-84
q0 -10 -3 -17.5t-8 -11.5l-129 -107q-4 -4 -10.5 -6.5t-14.5 -2.5h-342q-19 0 -27.5 8.5t-8.5 27.5v56z" />
    <glyph glyph-name="threequarters" unicode="&#xbe;" horiz-adv-x="1313" 
d="M550 36q-4 -19 6.5 -27.5t29.5 -8.5h115q19 0 25.5 8.5t10.5 27.5l120 648q4 19 -6.5 27.5t-29.5 8.5h-115q-19 0 -25.5 -8.5t-10.5 -27.5zM190 338q-13 0 -19.5 -6.5t-6.5 -19.5v-84q0 -13 6.5 -19.5t19.5 -6.5h228q69 0 104.5 32t35.5 87v72q0 48 -20 73.5t-71 31.5
q24 10 33 30t9 47v42q0 48 -29 75.5t-89 27.5h-201q-13 0 -19.5 -6.5t-6.5 -19.5v-85q0 -13 6.5 -19.5t19.5 -6.5h134q17 0 22.5 -6.5t5.5 -15.5v-11q0 -8 -5.5 -14.5t-22.5 -6.5h-75q-13 0 -19.5 -6.5t-6.5 -19.5v-77q0 -13 6.5 -19.5t19.5 -6.5h122q17 0 22 -6.5t5 -14.5
v-20q0 -8 -5 -14.5t-22 -6.5h-181zM288 459v9h59q54 0 66.5 20t12.5 45v49q0 27 -17 46t-69 19h-111v9h111q60 0 77.5 -22.5t17.5 -54.5v-46q0 -20 -7.5 -40t-40.5 -27h11q46 0 65.5 -20t19.5 -58v-49q0 -33 -17.5 -53t-77.5 -20h-159v9h159q53 0 69.5 17.5t16.5 46.5v49
q0 36 -18.5 53.5t-58.5 17.5h-109zM659 90h-10l100 540h10zM1116 120v-94q0 -13 6.5 -19.5t19.5 -6.5h111q13 0 19 6.5t6 19.5v466q0 13 -6 19.5t-19 6.5h-111q-13 0 -19.5 -6.5t-6.5 -19.5v-222h-67q-10 0 -16.5 7t-6.5 18v197q0 13 -6 19.5t-19 6.5h-112q-13 0 -19.5 -6.5
t-6.5 -19.5v-253q0 -61 30.5 -90t100.5 -29h122zM1192 64v127h-171q-42 0 -61.5 19t-19.5 57v186h10v-186q0 -34 17.5 -50.5t53.5 -16.5h171v253h10v-389h-10zM602 -109q-5 -5 -12.5 -7.5t-17.5 -2.5h-115q-25 0 -37.5 12t-8.5 36l43 234l-56 -47q-19 -16 -46 -24.5
t-63 -8.5h-228q-19 0 -27.5 8.5t-8.5 27.5v84q0 10 3 17.5t8 11.5l63 53q-7 4 -11 12t-4 20v77q0 10 3 17.5t8 11.5l49 41h-83q-19 0 -27.5 8.5t-8.5 27.5v85q0 10 3 17.5t8 11.5l129 109l1 1q4 2 10.5 4t13.5 2h201q66 0 97 -31t31 -82v-42q0 -23 -6 -41.5t-20 -30.5
q6 -1 12 -3.5t11 -4.5l15 81q2 13 6 22t9 14l1 1l130 109q4 4 11.5 6t17.5 2h115q25 0 37.5 -12t8.5 -36l-35 -187l32 26l1 1q4 2 10.5 4t13.5 2h112q19 0 27 -8.5t8 -27.5v-39l81 68l1 1q4 2 10.5 4t13.5 2h111q19 0 27 -8.5t8 -27.5v-466q0 -10 -3 -17.5t-8 -11.5
l-130 -109q-4 -3 -9.5 -5t-13.5 -2h-111q-19 0 -27.5 8.5t-8.5 27.5v84h-112q-43 0 -71.5 10t-45.5 30l-1 -7q-3 -13 -6.5 -21.5t-9.5 -14.5z" />
    <glyph glyph-name="questiondown" unicode="&#xbf;" horiz-adv-x="756" 
d="M561 -119h-323q-102 0 -159.5 48t-57.5 138v105q0 49 13.5 81t38.5 53l129 109q10 8 23 15.5t27 12.5v132q0 13 3.5 22t10.5 15l129 109q5 4 13.5 6.5t18.5 2.5h183q25 0 35.5 -11t10.5 -35v-131q0 -13 -3.5 -22t-10.5 -15l-29 -25q9 -4 14 -12.5t8 -23.5l21 -133
q2 -15 -2 -25t-11 -16l-93 -78h140q24 0 35 -10.5t11 -35.5v-121q0 -13 -3.5 -22t-10.5 -15l-130 -108q-4 -4 -12.5 -7t-18.5 -3zM427 720q-19 0 -27.5 -8.5t-8.5 -27.5v-131q0 -19 8.5 -27.5t27.5 -8.5h183q19 0 27.5 8.5t8.5 27.5v131q0 19 -8.5 27.5t-27.5 8.5h-183z
M525 640v-43h-10v43h10zM315 447q-71 -10 -113 -46t-42 -120v-105q0 -85 55 -130.5t152 -45.5h323q19 0 27.5 8.5t8.5 27.5v121q0 19 -8.5 27.5t-27.5 8.5h-276q-13 0 -20 7t-7 21q0 15 6 22t21 9l199 28q19 2 27.5 12t5.5 29l-21 132q-3 19 -11.5 26t-27.5 5zM548 381
l2 -11l-216 -29q-19 -3 -34 -10.5t-15 -33.5v-114q0 -49 26.5 -65t57.5 -16h269v-10h-269q-34 0 -64 18.5t-30 72.5v114q0 31 17 41t40 13z" />
    <glyph glyph-name="Agrave" unicode="&#xc0;" horiz-adv-x="830" 
d="M655 753q17 -2 25.5 7t8.5 26v96q0 19 -8.5 26.5t-27.5 9.5l-349 43q-17 2 -25.5 -7t-8.5 -26v-96q0 -19 8.5 -26.5t27.5 -9.5zM360 867v10l239 -30v-10zM285 303v-31h390v31q0 27 -4.5 50t-11.5 43l-69 163q-11 26 -23 43.5t-40 17.5h-98q-30 0 -42 -17.5t-22 -42.5
l-64 -164q-7 -20 -11.5 -43t-4.5 -50zM445 510q4 9 8.5 13t10.5 4h25q6 0 10.5 -4t8.5 -13l47 -152h-157zM675 90v172h-390v-172h-10v213q0 28 4.5 51.5t12.5 45.5l64 164q11 28 25 47t48 19h98q33 0 46.5 -19t25.5 -48l69 -163q8 -22 12.5 -45.5t4.5 -51.5v-213h-10z
M388 36v140h177v-140q0 -19 9.5 -27.5t29.5 -8.5h151q19 0 27.5 8.5t8.5 27.5v264q0 30 -9.5 69t-29.5 91l-87 227q-6 17 -18.5 25t-31.5 8h-269q-20 0 -32.5 -8t-18.5 -25l-87 -227q-20 -52 -29.5 -91t-9.5 -69v-264q0 -19 8.5 -27.5t27.5 -8.5h147q19 0 27.5 8.5t8.5 27.5
zM254 -109q-4 -4 -12.5 -7t-18.5 -3h-147q-24 0 -35 11t-11 35v264q0 31 9.5 70.5t30.5 93.5l86 226q3 9 7.5 15.5t9.5 11.5l1 1l71 59l-69 9q-24 3 -34.5 13t-10.5 33v96q0 13 3.5 21.5t10.5 14.5l129 109q6 4 13.5 6t17.5 1l349 -43q24 -3 34.5 -13t10.5 -33v-96
q0 -13 -3.5 -21.5t-10.5 -14.5l-34 -28q8 -5 13.5 -13t9.5 -18l87 -227q21 -54 30.5 -93.5t9.5 -70.5v-264q0 -13 -3.5 -22t-10.5 -15l-130 -108q-4 -4 -12.5 -7t-18.5 -3h-151q-25 0 -37 11.5t-12 34.5v130h-28v-21q0 -13 -3.5 -22t-10.5 -15z" />
    <glyph glyph-name="Aacute" unicode="&#xc1;" horiz-adv-x="830" 
d="M653 796q19 2 27.5 9.5t8.5 26.5v96q0 17 -8.5 26t-25.5 7l-349 -43q-19 -2 -27.5 -9.5t-8.5 -26.5v-96q0 -17 8.5 -26t25.5 -7zM360 847l239 30v-10l-239 -30v10zM285 303v-31h390v31q0 27 -4.5 50t-11.5 43l-69 163q-11 26 -23 43.5t-40 17.5h-98q-30 0 -42 -17.5
t-22 -42.5l-64 -164q-7 -20 -11.5 -43t-4.5 -50zM445 510q4 9 8.5 13t10.5 4h25q6 0 10.5 -4t8.5 -13l47 -152h-157zM675 90v172h-390v-172h-10v213q0 28 4.5 51.5t12.5 45.5l64 164q11 28 25 47t48 19h98q33 0 46.5 -19t25.5 -48l69 -163q8 -22 12.5 -45.5t4.5 -51.5v-213
h-10zM388 36v140h177v-140q0 -19 9.5 -27.5t29.5 -8.5h151q19 0 27.5 8.5t8.5 27.5v264q0 30 -9.5 69t-29.5 91l-87 227q-6 17 -18.5 25t-31.5 8h-269q-20 0 -32.5 -8t-18.5 -25l-87 -227q-20 -52 -29.5 -91t-9.5 -69v-264q0 -19 8.5 -27.5t27.5 -8.5h147q19 0 27.5 8.5
t8.5 27.5zM254 -109q-4 -4 -12.5 -7t-18.5 -3h-147q-24 0 -35 11t-11 35v264q0 31 9.5 70.5t30.5 93.5l86 226q3 9 7.5 15.5t9.5 11.5l1 1l35 29l-33 -4q-22 -3 -33.5 8.5t-11.5 34.5v96q0 13 3.5 21.5t9.5 13.5l130 109q4 4 12.5 7t18.5 4l349 43q22 3 33.5 -8.5
t11.5 -34.5v-96q0 -13 -3.5 -22t-10.5 -13l-79 -67h9q23 0 37.5 -9.5t21.5 -29.5l87 -227q21 -54 30.5 -93.5t9.5 -70.5v-264q0 -13 -3.5 -22t-10.5 -15l-130 -108q-4 -4 -12.5 -7t-18.5 -3h-151q-25 0 -37 11.5t-12 34.5v130h-28v-21q0 -13 -3.5 -22t-10.5 -15z" />
    <glyph glyph-name="Acircumflex" unicode="&#xc2;" horiz-adv-x="830" 
d="M598 850l-87 28q-7 2 -14.5 4t-17.5 2t-17.5 -2t-14.5 -4l-87 -28v11l83 27q9 2 17 4t19 2t19 -2t17 -4l83 -27v-11zM448 797q17 4 31 4t31 -4l137 -40q26 -8 34 -2t8 33v81q0 27 -8.5 35t-33.5 18l-137 50q-7 3 -15 4t-17 1q-9 -1 -19.5 -3t-19.5 -6l-128 -46
q-24 -10 -32.5 -18t-8.5 -35v-81q0 -27 8 -33t33 2zM285 303v-31h390v31q0 27 -4.5 50t-11.5 43l-69 163q-11 26 -23 43.5t-40 17.5h-98q-30 0 -42 -17.5t-22 -42.5l-64 -164q-7 -20 -11.5 -43t-4.5 -50zM445 510q4 9 8.5 13t10.5 4h25q6 0 10.5 -4t8.5 -13l47 -152h-157z
M675 90v172h-390v-172h-10v213q0 28 4.5 51.5t12.5 45.5l64 164q11 28 25 47t48 19h98q33 0 46.5 -19t25.5 -48l69 -163q8 -22 12.5 -45.5t4.5 -51.5v-213h-10zM388 36v140h177v-140q0 -19 9.5 -27.5t29.5 -8.5h151q19 0 27.5 8.5t8.5 27.5v264q0 30 -9.5 69t-29.5 91
l-87 227q-6 17 -18.5 25t-31.5 8h-269q-20 0 -32.5 -8t-18.5 -25l-87 -227q-20 -52 -29.5 -91t-9.5 -69v-264q0 -19 8.5 -27.5t27.5 -8.5h147q19 0 27.5 8.5t8.5 27.5zM254 -109q-4 -4 -12.5 -7t-18.5 -3h-147q-24 0 -35 11t-11 35v264q0 31 9.5 70.5t30.5 93.5l86 226
q3 9 7.5 15.5t9.5 11.5l1 1l48 40l-37 -11q-33 -10 -43.5 -2.5t-10.5 43.5v81q0 19 3.5 29t10.5 17l131 109l-1 -1q5 5 13.5 9t19.5 8l127 46q10 4 21.5 6.5t21.5 3.5q10 0 19 -1t16 -5l138 -50q30 -11 39 -21t9 -41v-81q0 -16 -3 -26t-7 -14l-1 -1l-33 -28q6 -4 11 -11
t8 -17l87 -227q21 -54 30.5 -93.5t9.5 -70.5v-264q0 -13 -3.5 -22t-10.5 -15l-130 -108q-4 -4 -12.5 -7t-18.5 -3h-151q-25 0 -37 11.5t-12 34.5v130h-28v-21q0 -13 -3.5 -22t-10.5 -15z" />
    <glyph glyph-name="Atilde" unicode="&#xc3;" horiz-adv-x="830" 
d="M479 764l16 -2q30 -4 49.5 -6.5t35.5 -2.5t32 3.5t40 10.5q17 7 26.5 14.5t9.5 26.5v101q0 19 -9 25t-27 1q-22 -7 -36 -11t-28.5 -5t-34 1t-52.5 7l-22 3l-17 2q-30 4 -49.5 6.5t-35 2.5t-31.5 -3.5t-40 -10.5q-17 -7 -26.5 -14.5t-9.5 -26.5v-101q0 -19 9 -25t27 -1
q20 6 34.5 9.5t29.5 5t34 0t47 -5.5zM598 841v-10q-20 -2 -43 0t-61 8l-16 2l-28 4q-33 5 -53.5 6t-36.5 -2v11q17 2 37.5 0.5t54.5 -5.5l28 -4l16 -2q38 -6 60 -8t42 0zM285 303v-31h390v31q0 27 -4.5 50t-11.5 43l-69 163q-11 26 -23 43.5t-40 17.5h-98q-30 0 -42 -17.5
t-22 -42.5l-64 -164q-7 -20 -11.5 -43t-4.5 -50zM445 510q4 9 8.5 13t10.5 4h25q6 0 10.5 -4t8.5 -13l47 -152h-157zM675 90v172h-390v-172h-10v213q0 28 4.5 51.5t12.5 45.5l64 164q11 28 25 47t48 19h98q33 0 46.5 -19t25.5 -48l69 -163q8 -22 12.5 -45.5t4.5 -51.5v-213
h-10zM388 36v140h177v-140q0 -19 9.5 -27.5t29.5 -8.5h151q19 0 27.5 8.5t8.5 27.5v264q0 30 -9.5 69t-29.5 91l-87 227q-6 17 -18.5 25t-31.5 8h-269q-20 0 -32.5 -8t-18.5 -25l-87 -227q-20 -52 -29.5 -91t-9.5 -69v-264q0 -19 8.5 -27.5t27.5 -8.5h147q19 0 27.5 8.5
t8.5 27.5zM254 -109q-4 -4 -12.5 -7t-18.5 -3h-147q-24 0 -35 11t-11 35v264q0 31 9.5 70.5t30.5 93.5l86 226q3 9 7.5 15.5t9.5 11.5l1 1l52 44q-10 -2 -21 -5.5t-25 -7.5q-25 -7 -37 2t-12 34v101q0 13 3.5 21.5t11.5 15.5l129 108q4 4 11.5 7.5t15.5 6.5h1v1
q24 7 40.5 10.5t33 3.5t36 -2.5t50.5 -6.5l17 -2l22 -3q32 -5 51 -7t33 -1t28 5t35 11q25 7 37 -2t12 -34v-101q0 -13 -4 -21.5t-11 -14.5l-51 -43q16 -3 26.5 -12.5t15.5 -25.5l87 -227q21 -54 30.5 -93.5t9.5 -70.5v-264q0 -13 -3.5 -22t-10.5 -15l-130 -108
q-4 -4 -12.5 -7t-18.5 -3h-151q-25 0 -37 11.5t-12 34.5v130h-28v-21q0 -13 -3.5 -22t-10.5 -15z" />
    <glyph glyph-name="Adieresis" unicode="&#xc4;" horiz-adv-x="830" 
d="M676 760q17 0 25 8t8 25v121q0 17 -8 25t-25 8h-138q-17 0 -25 -8t-8 -25v-121q0 -17 8 -25t25 -8h138zM418 760q17 0 25 8t8 25v121q0 17 -8 25t-25 8h-138q-17 0 -25.5 -8t-8.5 -25v-121q0 -17 8.5 -25t25.5 -8h138zM612 830h-10v47h10v-47zM354 830h-10v47h10v-47z
M285 303v-31h390v31q0 27 -4.5 50t-11.5 43l-69 163q-11 26 -23 43.5t-40 17.5h-98q-30 0 -42 -17.5t-22 -42.5l-64 -164q-7 -20 -11.5 -43t-4.5 -50zM445 510q4 9 8.5 13t10.5 4h25q6 0 10.5 -4t8.5 -13l47 -152h-157zM675 90v172h-390v-172h-10v213q0 28 4.5 51.5
t12.5 45.5l64 164q11 28 25 47t48 19h98q33 0 46.5 -19t25.5 -48l69 -163q8 -22 12.5 -45.5t4.5 -51.5v-213h-10zM388 36v140h177v-140q0 -19 9.5 -27.5t29.5 -8.5h151q19 0 27.5 8.5t8.5 27.5v264q0 30 -9.5 69t-29.5 91l-87 227q-6 17 -18.5 25t-31.5 8h-269
q-20 0 -32.5 -8t-18.5 -25l-87 -227q-20 -52 -29.5 -91t-9.5 -69v-264q0 -19 8.5 -27.5t27.5 -8.5h147q19 0 27.5 8.5t8.5 27.5zM254 -109q-4 -4 -12.5 -7t-18.5 -3h-147q-24 0 -35 11t-11 35v264q0 31 9.5 70.5t30.5 93.5l86 226q3 9 7.5 15.5t9.5 11.5l1 1l38 32h-61
q-22 0 -33 10.5t-11 32.5v121q0 13 3.5 21t9.5 13l129 109q5 4 13 6.5t18 2.5h138q22 0 32.5 -10.5t10.5 -32.5v-6l47 40q5 4 12.5 6.5t17.5 2.5h138q22 0 32.5 -10.5t10.5 -32.5v-121q0 -12 -3.5 -20.5t-9.5 -13.5l-50 -41q6 -4 10.5 -11t7.5 -16l87 -227
q21 -54 30.5 -93.5t9.5 -70.5v-264q0 -13 -3.5 -22t-10.5 -15l-130 -108q-4 -4 -12.5 -7t-18.5 -3h-151q-25 0 -37 11.5t-12 34.5v130h-28v-21q0 -13 -3.5 -22t-10.5 -15z" />
    <glyph glyph-name="Aring" unicode="&#xc5;" horiz-adv-x="830" 
d="M340 760v45q0 22 5.5 41t20.5 32t43 20.5t72 7.5q89 0 116 -28.5t27 -72.5v-45q0 -45 -27 -72.5t-116 -27.5q-44 0 -72 7t-43 20.5t-20.5 32t-5.5 40.5zM481 896q-80 0 -105.5 -24.5t-25.5 -66.5v-45q0 -42 25.5 -66t105.5 -24t106.5 24t26.5 66v45q0 41 -26.5 66
t-106.5 25zM540 764q0 -22 -11 -32.5t-48 -10.5t-47 10.5t-10 32.5v35q0 19 10 29.5t47 10.5t48 -10.5t11 -29.5v-35zM285 303v-31h390v31q0 27 -4.5 50t-11.5 43l-69 163q-11 26 -23 43.5t-40 17.5h-98q-30 0 -42 -17.5t-22 -42.5l-64 -164q-7 -20 -11.5 -43t-4.5 -50z
M445 510q3 9 8 13t11 4h25q6 0 11 -4t8 -13l47 -152h-157zM675 90v172h-390v-172h-10v213q0 28 4.5 51.5t12.5 45.5l64 164q11 28 25 47t48 19h98q33 0 46.5 -19t25.5 -48l69 -163q8 -22 12.5 -45.5t4.5 -51.5v-213h-10zM388 36v140h177v-140q0 -19 9.5 -27.5t29.5 -8.5h151
q19 0 27.5 8.5t8.5 27.5v264q0 30 -9.5 69t-29.5 91l-84 220q16 18 22.5 41t6.5 50v58q0 32 -9.5 58.5t-34 45t-66.5 29t-107 10.5t-107 -10.5t-66.5 -29t-34 -45t-9.5 -58.5v-58q0 -27 6.5 -50t22.5 -41l-84 -220q-20 -52 -29.5 -91t-9.5 -69v-264q0 -19 8.5 -27.5
t27.5 -8.5h147q19 0 27.5 8.5t8.5 27.5zM384 -1l-130 -108q-4 -4 -12.5 -7t-18.5 -3h-147q-24 0 -35 11t-11 35v264q0 31 9.5 70.5t30.5 93.5l82 214q-15 19 -21.5 42.5t-6.5 50.5v58q0 33 9 61t34 48l130 109q25 20 69.5 32t113.5 12t113.5 -11.5t69.5 -31.5t34.5 -48.5
t9.5 -61.5v-58q0 -27 -6.5 -50.5t-21.5 -42.5l82 -214q21 -54 30.5 -93.5t9.5 -70.5v-264q0 -13 -3.5 -22t-10.5 -15l-130 -108q-4 -4 -12.5 -7t-18.5 -3h-151q-25 0 -37 11.5t-12 34.5v130h-28v-21q0 -13 -3.5 -22t-10.5 -15z" />
    <glyph glyph-name="AE" unicode="&#xc6;" horiz-adv-x="1105" 
d="M283 291v-18h381v347h-255q-15 0 -24.5 -8t-16.5 -30l-74 -203q-7 -19 -9 -39.5t-2 -48.5zM449 514q4 10 7.5 13.5t11.5 3.5h87v-173h-158zM273 90v201q0 29 2 50t9 42l74 203q10 26 21.5 35t29.5 9h572v-10h-307v-250h226v-10h-226v-260h307v-10h-317v173h-381v-173h-10
zM387 36v140h168v-140q0 -19 8.5 -27.5t27.5 -8.5h444q19 0 27.5 8.5t8.5 27.5v117q0 19 -8.5 27.5t-27.5 8.5h-253v86h172q19 0 27.5 8.5t8.5 27.5v107q0 19 -8.5 27.5t-27.5 8.5h-172v77h253q19 0 27.5 8.5t8.5 27.5v117q0 19 -8.5 27.5t-27.5 8.5h-688q-25 0 -39.5 -9
t-22.5 -32l-87 -239q-14 -37 -21.5 -71.5t-7.5 -78.5v-254q0 -19 8.5 -27.5t27.5 -8.5h146q19 0 27.5 8.5t8.5 27.5zM383 -1l-130 -108q-4 -4 -12.5 -7t-18.5 -3h-146q-24 0 -35 11t-11 35v254q0 45 7.5 80t22.5 73l87 239q3 13 8.5 21t12.5 13l128 108q9 8 21.5 11.5
t29.5 3.5h688q24 0 35 -11t11 -35v-117q0 -13 -3.5 -22t-10.5 -15l-86 -71q10 -5 14.5 -15t4.5 -26v-107q0 -13 -3.5 -22t-10.5 -15l-89 -75h138q24 0 35 -11t11 -35v-117q0 -13 -3.5 -22t-10.5 -15l-130 -108q-4 -4 -12.5 -7t-18.5 -3h-444q-24 0 -35 11t-11 35v130h-19
v-21q0 -13 -3.5 -22t-10.5 -15z" />
    <glyph glyph-name="Ccedilla" unicode="&#xc7;" horiz-adv-x="728" 
d="M550 -96l34 96h79q8 0 15 1.5t11 5.5q5 4 7.5 11.5t2.5 17.5v119q0 19 -8.5 27.5t-27.5 8.5h-201q-31 0 -46 11.5t-15 36.5v238q0 13 4 22t11 16q7 6 18.5 9t27.5 3h201q8 0 15 1.5t11 5.5q5 4 7.5 11.5t2.5 17.5v121q0 19 -8.5 27.5t-27.5 8.5h-244q-63 0 -109.5 -12.5
t-76.5 -37.5q-31 -25 -45.5 -64t-14.5 -91v-311q0 -94 49.5 -144t150.5 -58h8l-33 -88q-7 -18 -1 -29t31 -11h126q11 0 19 2.5t14 6.5q4 4 7.5 9t5.5 12zM608 90h-88l-46 -126h-10l45 126h-68q-97 0 -128.5 30t-31.5 99v280q0 71 32 101t128 30h167v-10h-167
q-88 0 -119 -27.5t-31 -93.5v-280q0 -65 30 -92t120 -27h167v-10zM414 -232q-6 -7 -16 -10t-23 -3h-126q-34 0 -41 15t2 39l28 75q-52 4 -90.5 24.5t-63.5 52t-37.5 73.5t-12.5 91v281q0 55 16 95.5t47 67.5l130 109q31 26 79 39t113 13h244q24 0 35 -11t11 -35v-121
q0 -13 -3.5 -22t-10.5 -15l-130 -108q-4 -4 -12.5 -7t-18.5 -3h-123v-169q0 -21 13 -29.5t38 -8.5h201q24 0 35 -11t11 -35v-119q0 -13 -3.5 -22t-10.5 -15l-282 -232z" />
    <glyph glyph-name="Egrave" unicode="&#xc8;" horiz-adv-x="754" 
d="M555 -119h-464q-24 0 -35 11t-11 35v648q0 13 3.5 22t10.5 15l77 65q-22 3 -32.5 13.5t-10.5 32.5v96q0 13 3.5 21.5t10.5 14.5l129 109q6 4 13.5 6t17.5 1l349 -43q24 -3 34.5 -13t10.5 -33v-96q0 -13 -3.5 -21.5t-10.5 -14.5l-24 -20h61q24 0 35 -11t11 -35v-117
q0 -13 -3.5 -22t-10.5 -15l-86 -71q10 -5 14.5 -15t4.5 -26v-107q0 -13 -3.5 -22t-10.5 -15l-89 -75h138q24 0 35 -11t11 -35v-117q0 -13 -3.5 -22t-10.5 -15l-130 -108q-4 -4 -12.5 -7t-18.5 -3zM617 753q17 -2 25.5 7t8.5 26v96q0 19 -8.5 26.5t-27.5 9.5l-349 43
q-17 2 -25.5 -7t-8.5 -26v-96q0 -19 8.5 -26.5t27.5 -9.5zM322 867v10l239 -30v-10zM684 0q19 0 27.5 8.5t8.5 27.5v117q0 19 -8.5 27.5t-27.5 8.5h-276v86h195q19 0 27.5 8.5t8.5 27.5v107q0 19 -8.5 27.5t-27.5 8.5h-195v77h276q19 0 27.5 8.5t8.5 27.5v117
q0 19 -8.5 27.5t-27.5 8.5h-464q-19 0 -27.5 -8.5t-8.5 -27.5v-648q0 -19 8.5 -27.5t27.5 -8.5h464zM630 100v-10h-337v540h337v-10h-327v-251h246v-10h-246v-259h327z" />
    <glyph glyph-name="Eacute" unicode="&#xc9;" horiz-adv-x="754" 
d="M555 -119h-464q-24 0 -35 11t-11 35v648q0 13 3.5 22t10.5 15l65 55q-1 2 -1 4.5v5.5v96q0 13 3.5 21.5t9.5 13.5l130 109q4 4 12.5 7t18.5 4l349 43q22 3 33.5 -8.5t11.5 -34.5v-96q0 -13 -3.5 -22t-10.5 -13l-79 -67h86q24 0 35 -11t11 -35v-117q0 -13 -3.5 -22
t-10.5 -15l-86 -71q10 -5 14.5 -15t4.5 -26v-107q0 -13 -3.5 -22t-10.5 -15l-89 -75h138q24 0 35 -11t11 -35v-117q0 -13 -3.5 -22t-10.5 -15l-130 -108q-4 -4 -12.5 -7t-18.5 -3zM645 796q19 2 27.5 9.5t8.5 26.5v96q0 17 -8.5 26t-25.5 7l-349 -43q-19 -2 -27.5 -9.5
t-8.5 -26.5v-96q0 -17 8.5 -26t25.5 -7zM352 847l239 30v-10l-239 -30v10zM684 0q19 0 27.5 8.5t8.5 27.5v117q0 19 -8.5 27.5t-27.5 8.5h-276v86h195q19 0 27.5 8.5t8.5 27.5v107q0 19 -8.5 27.5t-27.5 8.5h-195v77h276q19 0 27.5 8.5t8.5 27.5v117q0 19 -8.5 27.5
t-27.5 8.5h-464q-19 0 -27.5 -8.5t-8.5 -27.5v-648q0 -19 8.5 -27.5t27.5 -8.5h464zM630 100v-10h-337v540h337v-10h-327v-251h246v-10h-246v-259h327z" />
    <glyph glyph-name="Ecircumflex" unicode="&#xca;" horiz-adv-x="754" 
d="M555 -119h-464q-24 0 -35 11t-11 35v648q0 13 3.5 22t10.5 15l46 39q-1 5 -1.5 12t-0.5 16v81q0 19 3.5 29t10.5 17l131 109l-1 -1q5 5 13.5 9t19.5 8l127 46q10 4 21.5 6.5t21.5 3.5q10 0 19 -1t16 -5l138 -50q30 -11 39 -21t9 -41v-81q0 -16 -3 -26t-7 -14l-1 -1
l-20 -17h44q24 0 35 -11t11 -35v-117q0 -13 -3.5 -22t-10.5 -15l-86 -71q10 -5 14.5 -15t4.5 -26v-107q0 -13 -3.5 -22t-10.5 -15l-89 -75h138q24 0 35 -11t11 -35v-117q0 -13 -3.5 -22t-10.5 -15l-130 -108q-4 -4 -12.5 -7t-18.5 -3zM570 850l-87 28q-7 2 -14.5 4t-17.5 2
t-17.5 -2t-14.5 -4l-87 -28v11l83 27q9 2 17 4t19 2t19 -2t17 -4l83 -27v-11zM420 797q17 4 31 4t31 -4l137 -40q26 -8 34 -2t8 33v81q0 27 -8.5 35t-33.5 18l-137 50q-7 3 -15 4t-17 1q-9 -1 -19.5 -3t-19.5 -6l-128 -46q-24 -10 -32.5 -18t-8.5 -35v-81q0 -27 8 -33t33 2z
M684 0q19 0 27.5 8.5t8.5 27.5v117q0 19 -8.5 27.5t-27.5 8.5h-276v86h195q19 0 27.5 8.5t8.5 27.5v107q0 19 -8.5 27.5t-27.5 8.5h-195v77h276q19 0 27.5 8.5t8.5 27.5v117q0 19 -8.5 27.5t-27.5 8.5h-464q-19 0 -27.5 -8.5t-8.5 -27.5v-648q0 -19 8.5 -27.5t27.5 -8.5h464
zM630 100v-10h-337v540h337v-10h-327v-251h246v-10h-246v-259h327z" />
    <glyph glyph-name="Edieresis" unicode="&#xcb;" horiz-adv-x="754" 
d="M555 -119h-464q-24 0 -35 11t-11 35v648q0 13 3.5 22t10.5 15l44 37q-7 5 -10.5 13.5t-3.5 21.5v121q0 13 3.5 21t9.5 13l129 109q5 4 13 6.5t18 2.5h138q22 0 32.5 -10.5t10.5 -32.5v-6l47 40q5 4 12.5 6.5t17.5 2.5h138q22 0 32.5 -10.5t10.5 -32.5v-121
q0 -12 -3.5 -20.5t-9.5 -13.5l-35 -29h31q24 0 35 -11t11 -35v-117q0 -13 -3.5 -22t-10.5 -15l-86 -71q10 -5 14.5 -15t4.5 -26v-107q0 -13 -3.5 -22t-10.5 -15l-89 -75h138q24 0 35 -11t11 -35v-117q0 -13 -3.5 -22t-10.5 -15l-130 -108q-4 -4 -12.5 -7t-18.5 -3zM658 760
q17 0 25 8t8 25v121q0 17 -8 25t-25 8h-138q-17 0 -25 -8t-8 -25v-121q0 -17 8 -25t25 -8h138zM400 760q17 0 25 8t8 25v121q0 17 -8 25t-25 8h-138q-17 0 -25.5 -8t-8.5 -25v-121q0 -17 8.5 -25t25.5 -8h138zM594 830h-10v47h10v-47zM336 830h-10v47h10v-47zM684 0
q19 0 27.5 8.5t8.5 27.5v117q0 19 -8.5 27.5t-27.5 8.5h-276v86h195q19 0 27.5 8.5t8.5 27.5v107q0 19 -8.5 27.5t-27.5 8.5h-195v77h276q19 0 27.5 8.5t8.5 27.5v117q0 19 -8.5 27.5t-27.5 8.5h-464q-19 0 -27.5 -8.5t-8.5 -27.5v-648q0 -19 8.5 -27.5t27.5 -8.5h464z
M630 100v-10h-337v540h337v-10h-327v-251h246v-10h-246v-259h327z" />
    <glyph glyph-name="Igrave" unicode="&#xcc;" horiz-adv-x="705" 
d="M501 -119h-426q-24 0 -35 11t-11 35v119q0 13 3.5 22t10.5 15l121 102v223h-89q-24 0 -35 11t-11 35v121q0 13 3.5 22t10.5 15l76 64l-6 1q-24 3 -34.5 13t-10.5 33v96q0 13 3.5 21.5t10.5 14.5l129 109q6 4 13.5 6t17.5 1l349 -43q24 -3 34.5 -13t10.5 -33v-96
q0 -13 -3.5 -21.5t-10.5 -14.5l-24 -20h32q24 0 35 -11t11 -35v-121q0 -13 -3.5 -22t-10.5 -15l-119 -100v-225h87q24 0 35 -11t11 -35v-119q0 -13 -3.5 -22t-10.5 -15l-130 -108q-4 -4 -12.5 -7t-18.5 -3zM592 753q17 -2 25.5 7t8.5 26v96q0 19 -8.5 26.5t-27.5 9.5
l-349 43q-17 2 -25.5 -7t-8.5 -26v-96q0 -19 8.5 -26.5t27.5 -9.5zM297 867v10l239 -30v-10zM204 0h426q19 0 27.5 8.5t8.5 27.5v119q0 19 -8.5 27.5t-27.5 8.5h-97v336h97q19 0 27.5 8.5t8.5 27.5v121q0 19 -8.5 27.5t-27.5 8.5h-426q-19 0 -27.5 -8.5t-8.5 -27.5v-121
q0 -19 8.5 -27.5t27.5 -8.5h99v-336h-99q-19 0 -27.5 -8.5t-8.5 -27.5v-119q0 -19 8.5 -27.5t27.5 -8.5zM576 90h-318v10h155v520h-155v10h318v-10h-153v-520h153v-10z" />
    <glyph glyph-name="Iacute" unicode="&#xcd;" horiz-adv-x="705" 
d="M501 -119h-426q-24 0 -35 11t-11 35v119q0 13 3.5 22t10.5 15l121 102v223h-89q-24 0 -35 11t-11 35v121q0 13 3.5 22t10.5 15l36 31q-5 5 -8 14t-3 20v96q0 13 3.5 21.5t9.5 13.5l130 109q4 4 12.5 7t18.5 4l349 43q22 3 33.5 -8.5t11.5 -34.5v-96q0 -13 -3.5 -22
t-10.5 -13l-79 -67h87q24 0 35 -11t11 -35v-121q0 -13 -3.5 -22t-10.5 -15l-119 -100v-225h87q24 0 35 -11t11 -35v-119q0 -13 -3.5 -22t-10.5 -15l-130 -108q-4 -4 -12.5 -7t-18.5 -3zM590 796q19 2 27.5 9.5t8.5 26.5v96q0 17 -8.5 26t-25.5 7l-349 -43q-19 -2 -27.5 -9.5
t-8.5 -26.5v-96q0 -17 8.5 -26t25.5 -7zM297 847l239 30v-10l-239 -30v10zM204 0h426q19 0 27.5 8.5t8.5 27.5v119q0 19 -8.5 27.5t-27.5 8.5h-97v336h97q19 0 27.5 8.5t8.5 27.5v121q0 19 -8.5 27.5t-27.5 8.5h-426q-19 0 -27.5 -8.5t-8.5 -27.5v-121q0 -19 8.5 -27.5
t27.5 -8.5h99v-336h-99q-19 0 -27.5 -8.5t-8.5 -27.5v-119q0 -19 8.5 -27.5t27.5 -8.5zM576 90h-318v10h155v520h-155v10h318v-10h-153v-520h153v-10z" />
    <glyph glyph-name="Icircumflex" unicode="&#xce;" horiz-adv-x="705" 
d="M501 -119h-426q-24 0 -35 11t-11 35v119q0 13 3.5 22t10.5 15l121 102v223h-89q-24 0 -35 11t-11 35v121q0 13 3.5 22t10.5 15l32 27q-4 5 -5.5 15t-1.5 25v81q0 19 3.5 29t10.5 17l131 109l-1 -1q5 5 13.5 9t19.5 8l127 46q10 4 21.5 6.5t21.5 3.5q10 0 19 -1t16 -5
l138 -50q30 -11 39 -21t9 -41v-81q0 -16 -3 -26t-7 -14l-1 -1l-21 -17h26q24 0 35 -11t11 -35v-121q0 -13 -3.5 -22t-10.5 -15l-119 -100v-225h87q24 0 35 -11t11 -35v-119q0 -13 -3.5 -22t-10.5 -15l-130 -108q-4 -4 -12.5 -7t-18.5 -3zM535 850l-87 28q-7 2 -14.5 4
t-17.5 2t-17.5 -2t-14.5 -4l-87 -28v11l83 27q9 2 17 4t19 2t19 -2t17 -4l83 -27v-11zM385 797q17 4 31 4t31 -4l137 -40q26 -8 34 -2t8 33v81q0 27 -8.5 35t-33.5 18l-137 50q-7 3 -15 4t-17 1q-9 -1 -19.5 -3t-19.5 -6l-128 -46q-24 -10 -32.5 -18t-8.5 -35v-81
q0 -27 8 -33t33 2zM204 0h426q19 0 27.5 8.5t8.5 27.5v119q0 19 -8.5 27.5t-27.5 8.5h-97v336h97q19 0 27.5 8.5t8.5 27.5v121q0 19 -8.5 27.5t-27.5 8.5h-426q-19 0 -27.5 -8.5t-8.5 -27.5v-121q0 -19 8.5 -27.5t27.5 -8.5h99v-336h-99q-19 0 -27.5 -8.5t-8.5 -27.5v-119
q0 -19 8.5 -27.5t27.5 -8.5zM576 90h-318v10h155v520h-155v10h318v-10h-153v-520h153v-10z" />
    <glyph glyph-name="Idieresis" unicode="&#xcf;" horiz-adv-x="705" 
d="M501 -119h-426q-24 0 -35 11t-11 35v119q0 13 3.5 22t10.5 15l121 102v223h-89q-24 0 -35 11t-11 35v121q0 13 3.5 22t10.5 15l35 30q-17 1 -25.5 12t-8.5 30v121q0 13 3.5 21t9.5 13l129 109q5 4 13 6.5t18 2.5h138q22 0 32.5 -10.5t10.5 -32.5v-6l47 40q5 4 12.5 6.5
t17.5 2.5h138q22 0 32.5 -10.5t10.5 -32.5v-121q0 -12 -3.5 -20.5t-9.5 -13.5l-35 -29h22q24 0 35 -11t11 -35v-121q0 -13 -3.5 -22t-10.5 -15l-119 -100v-225h87q24 0 35 -11t11 -35v-119q0 -13 -3.5 -22t-10.5 -15l-130 -108q-4 -4 -12.5 -7t-18.5 -3zM613 760q17 0 25 8
t8 25v121q0 17 -8 25t-25 8h-138q-17 0 -25 -8t-8 -25v-121q0 -17 8 -25t25 -8h138zM355 760q17 0 25 8t8 25v121q0 17 -8 25t-25 8h-138q-17 0 -25.5 -8t-8.5 -25v-121q0 -17 8.5 -25t25.5 -8h138zM549 830h-10v47h10v-47zM291 830h-10v47h10v-47zM204 0h426q19 0 27.5 8.5
t8.5 27.5v119q0 19 -8.5 27.5t-27.5 8.5h-97v336h97q19 0 27.5 8.5t8.5 27.5v121q0 19 -8.5 27.5t-27.5 8.5h-426q-19 0 -27.5 -8.5t-8.5 -27.5v-121q0 -19 8.5 -27.5t27.5 -8.5h99v-336h-99q-19 0 -27.5 -8.5t-8.5 -27.5v-119q0 -19 8.5 -27.5t27.5 -8.5zM576 90h-318v10
h155v520h-155v10h318v-10h-153v-520h153v-10z" />
    <glyph glyph-name="Eth" unicode="&#xd0;" horiz-adv-x="856" 
d="M101 -119q-24 0 -35 11t-11 35v219h-13q-24 0 -35 10.5t-11 35.5v107q0 13 3.5 22t10.5 15l45 38v201q0 13 3.5 22t10.5 15l129 109q5 4 13.5 6.5t18.5 2.5h337q74 0 123.5 -16t79 -44t41.5 -67.5t12 -86.5v-312q0 -50 -14.5 -91.5t-48.5 -69.5l-129 -109
q-30 -25 -77 -39t-116 -14h-337zM567 0q141 0 193.5 57t52.5 147v312q0 90 -52.5 147t-193.5 57h-337q-19 0 -27.5 -8.5t-8.5 -27.5v-240h-23q-19 0 -27.5 -8.5t-8.5 -27.5v-107q0 -19 8.5 -27.5t27.5 -8.5h23v-229q0 -19 8.5 -27.5t27.5 -8.5h337zM301 90v259h-76v10h76
v271h244q51 0 82.5 -11t48.5 -29.5t23 -44t6 -54.5v-265q0 -29 -5.5 -54t-22.5 -43t-49 -28.5t-83 -10.5h-244zM405 349h-94v-249h234q48 0 77.5 9.5t45.5 26t21.5 40t5.5 50.5v265q0 27 -6 51t-22 41t-45.5 27t-76.5 10h-234v-261h94v-10zM418 189v76h41q19 0 27.5 8.5
t8.5 27.5v107q0 19 -8.5 27.5t-27.5 8.5h-41v85h122q30 0 38.5 -14.5t8.5 -33.5v-243q0 -20 -8.5 -34.5t-38.5 -14.5h-122zM448 199v29l-20 -17v-12h20z" />
    <glyph glyph-name="Ntilde" unicode="&#xd1;" horiz-adv-x="853" 
d="M490 764l16 -2q30 -4 49.5 -6.5t35.5 -2.5t32 3.5t40 10.5q17 7 26.5 14.5t9.5 26.5v101q0 19 -9 25t-27 1q-22 -7 -36 -11t-28.5 -5t-34 1t-52.5 7l-22 3l-17 2q-30 4 -49.5 6.5t-35 2.5t-31.5 -3.5t-40 -10.5q-17 -7 -26.5 -14.5t-9.5 -26.5v-101q0 -19 9 -25t27 -1
q20 6 34.5 9.5t29.5 5t34 0t47 -5.5zM609 841v-10q-20 -2 -43 0t-61 8l-16 2l-28 4q-33 5 -53.5 6t-36.5 -2v11q17 2 37.5 0.5t54.5 -5.5l28 -4l16 -2q38 -6 60 -8t42 0zM460 620l18 15q-7 -1 -15 -1h-15zM316 622l368 -414v422h10v-540h-10v103l-378 424q-1 1 -2.5 2
t-2.5 1t-1.5 -1t-0.5 -2v-527h-10v529q0 6 4 9t8 3t7 -2t8 -7zM370 0q19 0 27.5 8.5t8.5 27.5v330l171 -207v-123q0 -19 8.5 -27.5t27.5 -8.5h150q19 0 27.5 8.5t8.5 27.5v648q0 19 -8.5 27.5t-27.5 8.5h-150q-19 0 -27.5 -8.5t-8.5 -27.5v-213l-194 222q-13 15 -26.5 21
t-32.5 6h-104q-19 0 -27.5 -8.5t-8.5 -27.5v-648q0 -19 8.5 -27.5t27.5 -8.5h150zM272 -109q-4 -4 -12.5 -7t-18.5 -3h-150q-24 0 -35 11t-11 35v648q0 13 3.5 22t10.5 15l83 70v95q0 13 3.5 21.5t11.5 15.5l129 108q4 4 11.5 7.5t15.5 6.5h1v1q24 7 40.5 10.5t33 3.5
t36 -2.5t50.5 -6.5l17 -2l22 -3q32 -5 51 -7t33 -1t28 5t35 11q25 7 37 -2t12 -34v-101q0 -13 -4 -21.5t-11 -14.5l-50 -42h119q24 0 35 -11t11 -35v-648q0 -13 -3.5 -22t-10.5 -15l-130 -108q-4 -4 -12.5 -7t-18.5 -3h-150q-24 0 -35 11t-11 35v119l-22 27v-37
q0 -13 -3.5 -22t-10.5 -15z" />
    <glyph glyph-name="Ograve" unicode="&#xd2;" horiz-adv-x="837" 
d="M355 -134q-98 0 -160.5 20.5t-98 54.5t-49 78t-13.5 91v311q0 46 13 85.5t47 67.5l119 99l-34 4q-24 3 -34.5 13t-10.5 33v96q0 13 3.5 21.5t10.5 14.5l129 109q6 4 13.5 6t17.5 1l349 -43q24 -3 34.5 -13t10.5 -33v-96q0 -13 -3.5 -21.5t-10.5 -14.5l-29 -25
q86 -25 115.5 -76t29.5 -119v-341q0 -46 -13 -85t-47 -67l-129 -108q-35 -30 -98 -46.5t-162 -16.5zM658 753q17 -2 25.5 7t8.5 26v96q0 19 -8.5 26.5t-27.5 9.5l-349 43q-17 2 -25.5 -7t-8.5 -26v-96q0 -19 8.5 -26.5t27.5 -9.5zM363 867v10l239 -30v-10zM794 189v341
q0 46 -13.5 83.5t-48 64.5t-95 42t-153.5 15t-154 -15t-95.5 -42t-48 -64.5t-13.5 -83.5v-341q0 -46 13.5 -83.5t48 -64t95.5 -41.5t154 -15t153.5 15t95 41.5t48 64t13.5 83.5zM685 212q0 -60 -43 -97.5t-160 -37.5t-159 37.5t-42 97.5v295q0 60 42 97.5t159 37.5
t160 -37.5t43 -97.5v-295zM291 212q0 -56 40 -90.5t151 -34.5t152 34.5t41 90.5v295q0 56 -41 90.5t-152 34.5t-151 -34.5t-40 -90.5v-295zM400 225v269q0 19 15 32.5t69 13.5t69 -13.5t15 -32.5v-269q0 -20 -15 -33.5t-69 -13.5t-69 13.5t-15 33.5zM410 225q0 -10 4 -17.5
t15 -12.5v190q0 10 -4 17.5t-15 11.5v-189z" />
    <glyph glyph-name="Oacute" unicode="&#xd3;" horiz-adv-x="837" 
d="M355 -134q-98 0 -160.5 20.5t-98 54.5t-49 78t-13.5 91v311q0 46 13 85.5t47 67.5l72 60q-16 1 -24 12.5t-8 30.5v96q0 13 3.5 21.5t9.5 13.5l130 109q4 4 12.5 7t18.5 4l349 43q22 3 33.5 -8.5t11.5 -34.5v-96q0 -13 -3.5 -22t-10.5 -13l-73 -62q56 -10 93 -29t58 -45.5
t29.5 -59.5t8.5 -71v-341q0 -46 -13 -85t-47 -67l-129 -108q-35 -30 -98 -46.5t-162 -16.5zM656 796q19 2 27.5 9.5t8.5 26.5v96q0 17 -8.5 26t-25.5 7l-349 -43q-19 -2 -27.5 -9.5t-8.5 -26.5v-96q0 -17 8.5 -26t25.5 -7zM363 847l239 30v-10l-239 -30v10zM794 189v341
q0 46 -13.5 83.5t-48 64.5t-95 42t-153.5 15t-154 -15t-95.5 -42t-48 -64.5t-13.5 -83.5v-341q0 -46 13.5 -83.5t48 -64t95.5 -41.5t154 -15t153.5 15t95 41.5t48 64t13.5 83.5zM685 212q0 -60 -43 -97.5t-160 -37.5t-159 37.5t-42 97.5v295q0 60 42 97.5t159 37.5
t160 -37.5t43 -97.5v-295zM291 212q0 -56 40 -90.5t151 -34.5t152 34.5t41 90.5v295q0 56 -41 90.5t-152 34.5t-151 -34.5t-40 -90.5v-295zM400 225v269q0 19 15 32.5t69 13.5t69 -13.5t15 -32.5v-269q0 -20 -15 -33.5t-69 -13.5t-69 13.5t-15 33.5zM410 225q0 -10 4 -17.5
t15 -12.5v190q0 10 -4 17.5t-15 11.5v-189z" />
    <glyph glyph-name="Ocircumflex" unicode="&#xd4;" horiz-adv-x="837" 
d="M355 -134q-98 0 -160.5 20.5t-98 54.5t-49 78t-13.5 91v311q0 46 13 85.5t47 67.5l70 58q-18 -2 -24 8.5t-6 38.5v81q0 19 3.5 29t10.5 17l131 109l-1 -1q5 5 13.5 9t19.5 8l127 46q10 4 21.5 6.5t21.5 3.5q10 0 19 -1t16 -5l138 -50q30 -11 39 -21t9 -41v-81
q0 -16 -3 -26t-7 -14l-1 -1l-28 -23q84 -25 112.5 -76t28.5 -118v-341q0 -46 -13 -85t-47 -67l-129 -108q-35 -30 -98 -46.5t-162 -16.5zM601 850l-87 28q-7 2 -14.5 4t-17.5 2t-17.5 -2t-14.5 -4l-87 -28v11l83 27q9 2 17 4t19 2t19 -2t17 -4l83 -27v-11zM451 797
q17 4 31 4t31 -4l137 -40q26 -8 34 -2t8 33v81q0 27 -8.5 35t-33.5 18l-137 50q-7 3 -15 4t-17 1q-9 -1 -19.5 -3t-19.5 -6l-128 -46q-24 -10 -32.5 -18t-8.5 -35v-81q0 -27 8 -33t33 2zM794 189v341q0 46 -13.5 83.5t-48 64.5t-95 42t-153.5 15t-154 -15t-95.5 -42
t-48 -64.5t-13.5 -83.5v-341q0 -46 13.5 -83.5t48 -64t95.5 -41.5t154 -15t153.5 15t95 41.5t48 64t13.5 83.5zM685 212q0 -60 -43 -97.5t-160 -37.5t-159 37.5t-42 97.5v295q0 60 42 97.5t159 37.5t160 -37.5t43 -97.5v-295zM291 212q0 -56 40 -90.5t151 -34.5t152 34.5
t41 90.5v295q0 56 -41 90.5t-152 34.5t-151 -34.5t-40 -90.5v-295zM400 225v269q0 19 15 32.5t69 13.5t69 -13.5t15 -32.5v-269q0 -20 -15 -33.5t-69 -13.5t-69 13.5t-15 33.5zM410 225q0 -10 4 -17.5t15 -12.5v190q0 10 -4 17.5t-15 11.5v-189z" />
    <glyph glyph-name="Otilde" unicode="&#xd5;" horiz-adv-x="837" 
d="M355 -134q-98 0 -160.5 20.5t-98 54.5t-49 78t-13.5 91v311q0 46 13 85.5t47 67.5l76 63q-18 -2 -27 7.5t-9 31.5v101q0 13 3.5 21.5t11.5 15.5l129 108q4 4 11.5 7.5t15.5 6.5h1v1q24 7 40.5 10.5t33 3.5t36 -2.5t50.5 -6.5l17 -2l22 -3q32 -5 51 -7t33 -1t28 5t35 11
q25 7 37 -2t12 -34v-101q0 -13 -4 -21.5t-11 -14.5l-49 -41q99 -22 133 -75.5t34 -125.5v-341q0 -46 -13 -85t-47 -67l-129 -108q-35 -30 -98 -46.5t-162 -16.5zM482 764l16 -2q30 -4 49.5 -6.5t35.5 -2.5t32 3.5t40 10.5q17 7 26.5 14.5t9.5 26.5v101q0 19 -9 25t-27 1
q-22 -7 -36 -11t-28.5 -5t-34 1t-52.5 7l-22 3l-17 2q-30 4 -49.5 6.5t-35 2.5t-31.5 -3.5t-40 -10.5q-17 -7 -26.5 -14.5t-9.5 -26.5v-101q0 -19 9 -25t27 -1q20 6 34.5 9.5t29.5 5t34 0t47 -5.5zM601 841v-10q-20 -2 -43 0t-61 8l-16 2l-28 4q-33 5 -53.5 6t-36.5 -2v11
q17 2 37.5 0.5t54.5 -5.5l28 -4l16 -2q38 -6 60 -8t42 0zM794 189v341q0 46 -13.5 83.5t-48 64.5t-95 42t-153.5 15t-154 -15t-95.5 -42t-48 -64.5t-13.5 -83.5v-341q0 -46 13.5 -83.5t48 -64t95.5 -41.5t154 -15t153.5 15t95 41.5t48 64t13.5 83.5zM685 212
q0 -60 -43 -97.5t-160 -37.5t-159 37.5t-42 97.5v295q0 60 42 97.5t159 37.5t160 -37.5t43 -97.5v-295zM291 212q0 -56 40 -90.5t151 -34.5t152 34.5t41 90.5v295q0 56 -41 90.5t-152 34.5t-151 -34.5t-40 -90.5v-295zM400 225v269q0 19 15 32.5t69 13.5t69 -13.5t15 -32.5
v-269q0 -20 -15 -33.5t-69 -13.5t-69 13.5t-15 33.5zM410 225q0 -10 4 -17.5t15 -12.5v190q0 10 -4 17.5t-15 11.5v-189z" />
    <glyph glyph-name="Odieresis" unicode="&#xd6;" horiz-adv-x="837" 
d="M355 -134q-98 0 -160.5 20.5t-98 54.5t-49 78t-13.5 91v311q0 46 13 85.5t47 67.5l81 67h-21q-22 0 -33 10.5t-11 32.5v121q0 13 3.5 21t9.5 13l129 109q5 4 13 6.5t18 2.5h138q22 0 32.5 -10.5t10.5 -32.5v-6l47 40q5 4 12.5 6.5t17.5 2.5h138q22 0 32.5 -10.5
t10.5 -32.5v-121q0 -12 -3.5 -20.5t-9.5 -13.5l-43 -36q81 -25 109.5 -76t28.5 -117v-341q0 -46 -13 -85t-47 -67l-129 -108q-35 -30 -98 -46.5t-162 -16.5zM679 760q17 0 25 8t8 25v121q0 17 -8 25t-25 8h-138q-17 0 -25 -8t-8 -25v-121q0 -17 8 -25t25 -8h138zM421 760
q17 0 25 8t8 25v121q0 17 -8 25t-25 8h-138q-17 0 -25.5 -8t-8.5 -25v-121q0 -17 8.5 -25t25.5 -8h138zM615 830h-10v47h10v-47zM357 830h-10v47h10v-47zM794 189v341q0 46 -13.5 83.5t-48 64.5t-95 42t-153.5 15t-154 -15t-95.5 -42t-48 -64.5t-13.5 -83.5v-341
q0 -46 13.5 -83.5t48 -64t95.5 -41.5t154 -15t153.5 15t95 41.5t48 64t13.5 83.5zM685 212q0 -60 -43 -97.5t-160 -37.5t-159 37.5t-42 97.5v295q0 60 42 97.5t159 37.5t160 -37.5t43 -97.5v-295zM291 212q0 -56 40 -90.5t151 -34.5t152 34.5t41 90.5v295q0 56 -41 90.5
t-152 34.5t-151 -34.5t-40 -90.5v-295zM400 225v269q0 19 15 32.5t69 13.5t69 -13.5t15 -32.5v-269q0 -20 -15 -33.5t-69 -13.5t-69 13.5t-15 33.5zM410 225q0 -10 4 -17.5t15 -12.5v190q0 10 -4 17.5t-15 11.5v-189z" />
    <glyph glyph-name="multiply" unicode="&#xd7;" horiz-adv-x="834" 
d="M545 -31q-15 -13 -29.5 -12t-28.5 17l-122 122l-19 -19l-130 -109q-14 -12 -28 -11t-30 17l-80 80q-17 17 -17 33t17 32l132 132l-132 132q-17 16 -18 31.5t18 33.5l82 82l2 4l130 108q16 13 30 12t30 -17l122 -122l149 129q14 11 28 10t30 -17l80 -80q18 -18 17.5 -33.5
t-17.5 -31.5l-132 -132l132 -132q17 -16 17.5 -31.5t-17.5 -33.5l-86 -86zM626 210l-143 143l-143 -143l-7 7l143 143l-143 143l7 7l143 -143l143 143l7 -7l-143 -143l143 -143zM673 90l80 80q14 14 13.5 26t-13.5 25l-139 139l139 139q13 13 13.5 25t-13.5 26l-80 80
q-14 14 -26 13.5t-25 -13.5l-139 -139l-139 139q-13 13 -25.5 13t-25.5 -13l-80 -80q-14 -14 -13.5 -26t13.5 -25l139 -139l-139 -139q-13 -13 -13 -25.5t13 -25.5l80 -80q14 -14 26 -13.5t25 13.5l139 139l139 -139q13 -13 25 -13.5t26 13.5z" />
    <glyph glyph-name="Oslash" unicode="&#xd8;" horiz-adv-x="837" 
d="M281 212q0 -39 18.5 -68.5t68.5 -43.5l221 521q-21 5 -47.5 8t-59.5 3q-59 0 -98 -9t-62 -25.5t-32 -39.5t-9 -51v-295zM482 87q119 0 161 34.5t42 90.5v295q0 39 -19 68t-68 43l-220 -521q20 -4 46 -7t58 -3zM380 494q0 24 18.5 40t85.5 16h12l-116 -273v217zM484 168
h-14l118 278v-221q0 -25 -18 -41t-86 -16zM345 20h-11l30 71q-53 15 -73 46.5t-20 74.5v295q0 30 9.5 55t33.5 43t65 27.5t103 9.5q34 0 61.5 -3t49.5 -8l29 69h11l-31 -72q53 -16 73 -47.5t20 -73.5v-295q0 -30 -10 -55t-34 -43t-65.5 -27.5t-103.5 -9.5q-33 0 -60 3t-48 8
zM410 -34l9 21q15 -1 31.5 -1.5t33.5 -0.5q93 0 153.5 15t95 41.5t48 64t13.5 83.5v341q0 51 -16.5 91.5t-60.5 67.5l27 65q9 16 1 26t-27 10h-115q-19 0 -28 -10t-18 -26l-9 -21q-15 1 -31 1.5t-33 0.5q-93 0 -154 -15t-95.5 -42t-48 -64.5t-13.5 -83.5v-341
q0 -50 17 -90.5t60 -67.5l-27 -65q-9 -16 -1 -26t27 -10h115q19 0 28 10t18 26zM235 -189h-115q-27 0 -37 14t2 36l24 57q-21 14 -35.5 36.5t-23 48.5t-12.5 54t-4 53v311q0 46 13 85.5t47 67.5l130 108q35 30 97.5 46.5t162.5 16.5h19t14 -1l52 45q7 5 15 8t19 3h115
q27 0 37 -14t-2 -36l-24 -57q43 -28 59 -70t16 -93v-341q0 -46 -13 -85t-47 -67l-129 -108q-35 -30 -98 -46.5t-162 -16.5q-9 0 -17.5 0.5t-16.5 0.5l-54 -45l1 1q-6 -6 -14.5 -9t-18.5 -3z" />
    <glyph glyph-name="Ugrave" unicode="&#xd9;" horiz-adv-x="846" 
d="M359 -134q-97 0 -159.5 20.5t-97.5 54.5t-48.5 78t-13.5 91v465q0 13 3.5 22t10.5 15l89 75q-7 5 -10.5 14t-3.5 22v96q0 13 3.5 21.5t10.5 14.5l129 109q6 4 13.5 6t17.5 1l349 -43q24 -3 34.5 -13t10.5 -33v-96q0 -13 -3.5 -21.5t-10.5 -14.5l-24 -20h102q24 0 35 -11
t11 -35v-495q0 -46 -13 -85t-47 -67l-130 -108q-35 -30 -97 -46.5t-161 -16.5zM653 753q17 -2 25.5 7t8.5 26v96q0 19 -8.5 26.5t-27.5 9.5l-349 43q-17 2 -25.5 -7t-8.5 -26v-96q0 -19 8.5 -26.5t27.5 -9.5zM358 867v10l239 -30v-10zM797 189v495q0 19 -8.5 27.5t-27.5 8.5
h-152q-19 0 -27.5 -8.5t-8.5 -27.5v-456q0 -20 -15 -33.5t-68 -13.5q-52 0 -67 13.5t-15 33.5v456q0 19 -8.5 27.5t-27.5 8.5h-157q-19 0 -27.5 -8.5t-8.5 -27.5v-495q0 -46 13.5 -83.5t48 -64t94.5 -41.5t153 -15t153 15t94.5 41.5t48 64t13.5 83.5zM434 200v375q0 13 3 22
t9 14l1 1l32 27l-61 8v-419q0 -9 3 -16.5t13 -11.5zM289 630h10v-417q0 -56 39.5 -90.5t150.5 -34.5t151 34.5t40 90.5v417h10v-417q0 -60 -42 -97.5t-159 -37.5t-158.5 37.5t-41.5 97.5v417z" />
    <glyph glyph-name="Uacute" unicode="&#xda;" horiz-adv-x="846" 
d="M359 -134q-97 0 -159.5 20.5t-97.5 54.5t-48.5 78t-13.5 91v465q0 13 3.5 22t10.5 15l95 80v81q0 13 3.5 21.5t9.5 13.5l130 109q4 4 12.5 7t18.5 4l349 43q22 3 33.5 -8.5t11.5 -34.5v-96q0 -13 -3.5 -22t-10.5 -13l-79 -67h137q24 0 35 -11t11 -35v-495q0 -46 -13 -85
t-47 -67l-130 -108q-35 -30 -97 -46.5t-161 -16.5zM671 796q19 2 27.5 9.5t8.5 26.5v96q0 17 -8.5 26t-25.5 7l-349 -43q-19 -2 -27.5 -9.5t-8.5 -26.5v-96q0 -17 8.5 -26t25.5 -7zM378 847l239 30v-10l-239 -30v10zM797 189v495q0 19 -8.5 27.5t-27.5 8.5h-152
q-19 0 -27.5 -8.5t-8.5 -27.5v-456q0 -20 -15 -33.5t-68 -13.5q-52 0 -67 13.5t-15 33.5v456q0 19 -8.5 27.5t-27.5 8.5h-157q-19 0 -27.5 -8.5t-8.5 -27.5v-495q0 -46 13.5 -83.5t48 -64t94.5 -41.5t153 -15t153 15t94.5 41.5t48 64t13.5 83.5zM434 200v375q0 13 3 22t9 14
l1 1l74 62l-103 -12v-434q0 -9 3 -16.5t13 -11.5zM289 630h10v-417q0 -56 39.5 -90.5t150.5 -34.5t151 34.5t40 90.5v417h10v-417q0 -60 -42 -97.5t-159 -37.5t-158.5 37.5t-41.5 97.5v417z" />
    <glyph glyph-name="Ucircumflex" unicode="&#xdb;" horiz-adv-x="846" 
d="M359 -134q-97 0 -159.5 20.5t-97.5 54.5t-48.5 78t-13.5 91v465q0 13 3.5 22t10.5 15l85 72v76q0 19 3.5 29t10.5 17l131 109l-1 -1q5 5 13.5 9t19.5 8l127 46q10 4 21.5 6.5t21.5 3.5q10 0 19 -1t16 -5l138 -50q30 -11 39 -21t9 -41v-81q0 -16 -3 -26t-7 -14l-1 -1
l-20 -17h85q24 0 35 -11t11 -35v-495q0 -46 -13 -85t-47 -67l-130 -108q-35 -30 -97 -46.5t-161 -16.5zM606 850l-87 28q-7 2 -14.5 4t-17.5 2t-17.5 -2t-14.5 -4l-87 -28v11l83 27q9 2 17 4t19 2t19 -2t17 -4l83 -27v-11zM456 797q17 4 31 4t31 -4l137 -40q26 -8 34 -2
t8 33v81q0 27 -8.5 35t-33.5 18l-137 50q-7 3 -15 4t-17 1q-9 -1 -19.5 -3t-19.5 -6l-128 -46q-24 -10 -32.5 -18t-8.5 -35v-81q0 -27 8 -33t33 2zM797 189v495q0 19 -8.5 27.5t-27.5 8.5h-152q-19 0 -27.5 -8.5t-8.5 -27.5v-456q0 -20 -15 -33.5t-68 -13.5q-52 0 -67 13.5
t-15 33.5v456q0 19 -8.5 27.5t-27.5 8.5h-157q-19 0 -27.5 -8.5t-8.5 -27.5v-495q0 -46 13.5 -83.5t48 -64t94.5 -41.5t153 -15t153 15t94.5 41.5t48 64t13.5 83.5zM434 200v375q0 13 3 22t9 14l1 1l43 36l-72 20v-440q0 -9 3 -16.5t13 -11.5zM289 630h10v-417
q0 -56 39.5 -90.5t150.5 -34.5t151 34.5t40 90.5v417h10v-417q0 -60 -42 -97.5t-159 -37.5t-158.5 37.5t-41.5 97.5v417z" />
    <glyph glyph-name="Udieresis" unicode="&#xdc;" horiz-adv-x="846" 
d="M359 -134q-97 0 -159.5 20.5t-97.5 54.5t-48.5 78t-13.5 91v465q0 13 3.5 22t10.5 15l63 54q-1 4 -1.5 8.5t-0.5 9.5v121q0 13 3.5 21t9.5 13l129 109q5 4 13 6.5t18 2.5h138q22 0 32.5 -10.5t10.5 -32.5v-6l47 40q5 4 12.5 6.5t17.5 2.5h138q22 0 32.5 -10.5t10.5 -32.5
v-121q0 -12 -3.5 -20.5t-9.5 -13.5l-34 -29h81q24 0 35 -11t11 -35v-495q0 -46 -13 -85t-47 -67l-130 -108q-35 -30 -97 -46.5t-161 -16.5zM684 760q17 0 25 8t8 25v121q0 17 -8 25t-25 8h-138q-17 0 -25 -8t-8 -25v-121q0 -17 8 -25t25 -8h138zM426 760q17 0 25 8t8 25v121
q0 17 -8 25t-25 8h-138q-17 0 -25.5 -8t-8.5 -25v-121q0 -17 8.5 -25t25.5 -8h138zM620 830h-10v47h10v-47zM362 830h-10v47h10v-47zM797 189v495q0 19 -8.5 27.5t-27.5 8.5h-152q-19 0 -27.5 -8.5t-8.5 -27.5v-456q0 -20 -15 -33.5t-68 -13.5q-52 0 -67 13.5t-15 33.5v456
q0 19 -8.5 27.5t-27.5 8.5h-157q-19 0 -27.5 -8.5t-8.5 -27.5v-495q0 -46 13.5 -83.5t48 -64t94.5 -41.5t153 -15t153 15t94.5 41.5t48 64t13.5 83.5zM434 200v375q0 13 3 22t9 14l1 1l35 29h-64v-413q0 -9 3 -16.5t13 -11.5zM289 630h10v-417q0 -56 39.5 -90.5t150.5 -34.5
t151 34.5t40 90.5v417h10v-417q0 -60 -42 -97.5t-159 -37.5t-158.5 37.5t-41.5 97.5v417z" />
    <glyph glyph-name="Yacute" unicode="&#xdd;" horiz-adv-x="805" 
d="M420 -119h-162q-25 0 -35.5 11t-10.5 35v125l-151 202q-24 32 -32 56t-8 73v192q0 13 3.5 22t10.5 15l93 79v82q0 13 3.5 21.5t9.5 13.5l130 109q4 4 12.5 7t18.5 4l349 43q22 3 33.5 -8.5t11.5 -34.5v-96q0 -13 -3.5 -22t-10.5 -13l-79 -67h136q24 0 35 -11t11 -35v-192
q0 -49 -8 -73t-32 -56l-150 -203v-124q0 -13 -3.5 -22t-10.5 -15l-130 -108q-4 -4 -12.5 -7t-18.5 -3zM650 796q19 2 27.5 9.5t8.5 26.5v96q0 17 -8.5 26t-25.5 7l-349 -43q-19 -2 -27.5 -9.5t-8.5 -26.5v-96q0 -17 8.5 -26t25.5 -7zM357 847l239 30v-10l-239 -30v10zM549 0
q19 0 27.5 8.5t8.5 27.5v127l152 206q22 31 30 54t8 69v192q0 19 -8.5 27.5t-27.5 8.5h-149q-19 0 -27.5 -8.5t-8.5 -27.5v-164q0 -10 -1 -21t-8 -21l-46 -72q-5 -9 -10.5 -13t-13.5 -4h-10q-8 0 -13.5 4t-10.5 13l-46 72q-7 10 -8 21t-1 21v164q0 19 -8.5 27.5t-27.5 8.5
h-154q-19 0 -27.5 -8.5t-8.5 -27.5v-192q0 -46 7.5 -69t30.5 -54l153 -205v-128q0 -19 8.5 -27.5t27.5 -8.5h162zM415 466v109q0 13 3.5 22t10.5 15l74 63l-107 -13v-142q0 -9 1 -18t6 -19zM480 261h-7v-171h-10v171h-10q-22 0 -39.5 10t-33.5 32l-97 135q-11 15 -13 35
t-2 42v115h10v-115q0 -21 2 -39.5t12 -33.5l97 -135q13 -20 30 -28t34 -8h27q19 0 34.5 8.5t30.5 27.5l100 135q10 13 12 32.5t2 40.5v115h10v-115q0 -22 -1.5 -41.5t-13.5 -35.5l-100 -135q-16 -22 -33.5 -32t-40.5 -10z" />
    <glyph glyph-name="Thorn" unicode="&#xde;" horiz-adv-x="792" 
d="M246 -119h-155q-24 0 -35 11t-11 35v648q0 13 3.5 22t10.5 15l129 109q5 4 13.5 6.5t18.5 2.5h155q24 0 35 -11t11 -35v-54h105q71 0 119 -15t76 -42t39.5 -65t11.5 -83v-128q0 -48 -13.5 -87.5t-46.5 -67.5l-129 -108q-28 -24 -74 -37.5t-112 -13.5h-9l-111 -92
q-4 -4 -12.5 -7t-18.5 -3zM375 0q19 0 27.5 8.5t8.5 27.5v66h115q136 0 186 54t50 141v128q0 87 -50 141t-186 54h-115v64q0 19 -8.5 27.5t-27.5 8.5h-155q-19 0 -27.5 -8.5t-8.5 -27.5v-648q0 -19 8.5 -27.5t27.5 -8.5h155zM292 90v540h10v-99h206q47 0 76.5 -10.5
t45.5 -28.5t22 -43t6 -54v-75q0 -29 -6 -53.5t-22 -42t-45.5 -27.5t-76.5 -10h-206v-97h-10zM302 197h206q44 0 71.5 9t42.5 25.5t20.5 39t5.5 49.5v75q0 27 -5.5 50t-20.5 40t-42.5 26.5t-71.5 9.5h-206v-324zM409 433h90q29 0 38 -15t9 -34v-53q0 -19 -9 -34t-38 -15h-90
v151z" />
    <glyph glyph-name="germandbls" unicode="&#xdf;" horiz-adv-x="859" 
d="M308 90h-10v540h248q51 0 70 -28t4 -84l-40 -144h46q52 0 78.5 -23.5t26.5 -74.5v-88q0 -51 -26 -74.5t-88 -23.5h-56v10h56q56 0 80 21t24 67v88q0 47 -24.5 67.5t-70.5 20.5h-60l44 156q13 49 -2.5 74.5t-61.5 25.5h-238v-530zM411 36v495h79q13 0 17 -8.5t2 -19.5
l-33 -163q-6 -28 3.5 -42t33.5 -14h72q12 0 19.5 -5.5t7.5 -17.5v-49q0 -12 -7.5 -17.5t-19.5 -5.5h-78q-19 0 -27.5 -8.5t-8.5 -27.5v-117q0 -19 8.5 -27.5t27.5 -8.5h138q90 0 142.5 45t52.5 121v123q0 69 -37.5 108t-90.5 49l23 83q23 83 -16.5 137t-127.5 54h-371
q-18 0 -27 -9t-9 -27v-648q0 -19 8.5 -27.5t27.5 -8.5h155q19 0 27.5 8.5t8.5 27.5zM332 -64l-55 -45q-4 -4 -12.5 -7t-18.5 -3h-155q-24 0 -35 11t-11 35v648q0 13 3.5 22t10.5 15l130 109q5 4 13 6.5t18 2.5h371q94 0 136.5 -57.5t17.5 -146.5l-21 -72q53 -13 89.5 -54
t36.5 -111v-123q0 -40 -14.5 -73.5t-42.5 -56.5l-130 -109q-26 -22 -63.5 -34t-83.5 -12h-138q-24 0 -35 11t-11 35v9z" />
    <glyph glyph-name="agrave" unicode="&#xe0;" horiz-adv-x="830" 
d="M655 753q17 -2 25.5 7t8.5 26v96q0 19 -8.5 26.5t-27.5 9.5l-349 43q-17 2 -25.5 -7t-8.5 -26v-96q0 -19 8.5 -26.5t27.5 -9.5zM360 867v10l239 -30v-10zM285 303v-31h390v31q0 27 -4.5 50t-11.5 43l-69 163q-11 26 -23 43.5t-40 17.5h-98q-30 0 -42 -17.5t-22 -42.5
l-64 -164q-7 -20 -11.5 -43t-4.5 -50zM445 510q4 9 8.5 13t10.5 4h25q6 0 10.5 -4t8.5 -13l47 -152h-157zM675 90v172h-390v-172h-10v213q0 28 4.5 51.5t12.5 45.5l64 164q11 28 25 47t48 19h98q33 0 46.5 -19t25.5 -48l69 -163q8 -22 12.5 -45.5t4.5 -51.5v-213h-10z
M388 36v140h177v-140q0 -19 9.5 -27.5t29.5 -8.5h151q19 0 27.5 8.5t8.5 27.5v264q0 30 -9.5 69t-29.5 91l-87 227q-6 17 -18.5 25t-31.5 8h-269q-20 0 -32.5 -8t-18.5 -25l-87 -227q-20 -52 -29.5 -91t-9.5 -69v-264q0 -19 8.5 -27.5t27.5 -8.5h147q19 0 27.5 8.5t8.5 27.5
zM254 -109q-4 -4 -12.5 -7t-18.5 -3h-147q-24 0 -35 11t-11 35v264q0 31 9.5 70.5t30.5 93.5l86 226q3 9 7.5 15.5t9.5 11.5l1 1l71 59l-69 9q-24 3 -34.5 13t-10.5 33v96q0 13 3.5 21.5t10.5 14.5l129 109q6 4 13.5 6t17.5 1l349 -43q24 -3 34.5 -13t10.5 -33v-96
q0 -13 -3.5 -21.5t-10.5 -14.5l-34 -28q8 -5 13.5 -13t9.5 -18l87 -227q21 -54 30.5 -93.5t9.5 -70.5v-264q0 -13 -3.5 -22t-10.5 -15l-130 -108q-4 -4 -12.5 -7t-18.5 -3h-151q-25 0 -37 11.5t-12 34.5v130h-28v-21q0 -13 -3.5 -22t-10.5 -15z" />
    <glyph glyph-name="aacute" unicode="&#xe1;" horiz-adv-x="830" 
d="M653 796q19 2 27.5 9.5t8.5 26.5v96q0 17 -8.5 26t-25.5 7l-349 -43q-19 -2 -27.5 -9.5t-8.5 -26.5v-96q0 -17 8.5 -26t25.5 -7zM360 847l239 30v-10l-239 -30v10zM285 303v-31h390v31q0 27 -4.5 50t-11.5 43l-69 163q-11 26 -23 43.5t-40 17.5h-98q-30 0 -42 -17.5
t-22 -42.5l-64 -164q-7 -20 -11.5 -43t-4.5 -50zM445 510q4 9 8.5 13t10.5 4h25q6 0 10.5 -4t8.5 -13l47 -152h-157zM675 90v172h-390v-172h-10v213q0 28 4.5 51.5t12.5 45.5l64 164q11 28 25 47t48 19h98q33 0 46.5 -19t25.5 -48l69 -163q8 -22 12.5 -45.5t4.5 -51.5v-213
h-10zM388 36v140h177v-140q0 -19 9.5 -27.5t29.5 -8.5h151q19 0 27.5 8.5t8.5 27.5v264q0 30 -9.5 69t-29.5 91l-87 227q-6 17 -18.5 25t-31.5 8h-269q-20 0 -32.5 -8t-18.5 -25l-87 -227q-20 -52 -29.5 -91t-9.5 -69v-264q0 -19 8.5 -27.5t27.5 -8.5h147q19 0 27.5 8.5
t8.5 27.5zM254 -109q-4 -4 -12.5 -7t-18.5 -3h-147q-24 0 -35 11t-11 35v264q0 31 9.5 70.5t30.5 93.5l86 226q3 9 7.5 15.5t9.5 11.5l1 1l35 29l-33 -4q-22 -3 -33.5 8.5t-11.5 34.5v96q0 13 3.5 21.5t9.5 13.5l130 109q4 4 12.5 7t18.5 4l349 43q22 3 33.5 -8.5
t11.5 -34.5v-96q0 -13 -3.5 -22t-10.5 -13l-79 -67h9q23 0 37.5 -9.5t21.5 -29.5l87 -227q21 -54 30.5 -93.5t9.5 -70.5v-264q0 -13 -3.5 -22t-10.5 -15l-130 -108q-4 -4 -12.5 -7t-18.5 -3h-151q-25 0 -37 11.5t-12 34.5v130h-28v-21q0 -13 -3.5 -22t-10.5 -15z" />
    <glyph glyph-name="acircumflex" unicode="&#xe2;" horiz-adv-x="830" 
d="M598 850l-87 28q-7 2 -14.5 4t-17.5 2t-17.5 -2t-14.5 -4l-87 -28v11l83 27q9 2 17 4t19 2t19 -2t17 -4l83 -27v-11zM448 797q17 4 31 4t31 -4l137 -40q26 -8 34 -2t8 33v81q0 27 -8.5 35t-33.5 18l-137 50q-7 3 -15 4t-17 1q-9 -1 -19.5 -3t-19.5 -6l-128 -46
q-24 -10 -32.5 -18t-8.5 -35v-81q0 -27 8 -33t33 2zM285 303v-31h390v31q0 27 -4.5 50t-11.5 43l-69 163q-11 26 -23 43.5t-40 17.5h-98q-30 0 -42 -17.5t-22 -42.5l-64 -164q-7 -20 -11.5 -43t-4.5 -50zM445 510q4 9 8.5 13t10.5 4h25q6 0 10.5 -4t8.5 -13l47 -152h-157z
M675 90v172h-390v-172h-10v213q0 28 4.5 51.5t12.5 45.5l64 164q11 28 25 47t48 19h98q33 0 46.5 -19t25.5 -48l69 -163q8 -22 12.5 -45.5t4.5 -51.5v-213h-10zM388 36v140h177v-140q0 -19 9.5 -27.5t29.5 -8.5h151q19 0 27.5 8.5t8.5 27.5v264q0 30 -9.5 69t-29.5 91
l-87 227q-6 17 -18.5 25t-31.5 8h-269q-20 0 -32.5 -8t-18.5 -25l-87 -227q-20 -52 -29.5 -91t-9.5 -69v-264q0 -19 8.5 -27.5t27.5 -8.5h147q19 0 27.5 8.5t8.5 27.5zM254 -109q-4 -4 -12.5 -7t-18.5 -3h-147q-24 0 -35 11t-11 35v264q0 31 9.5 70.5t30.5 93.5l86 226
q3 9 7.5 15.5t9.5 11.5l1 1l48 40l-37 -11q-33 -10 -43.5 -2.5t-10.5 43.5v81q0 19 3.5 29t10.5 17l131 109l-1 -1q5 5 13.5 9t19.5 8l127 46q10 4 21.5 6.5t21.5 3.5q10 0 19 -1t16 -5l138 -50q30 -11 39 -21t9 -41v-81q0 -16 -3 -26t-7 -14l-1 -1l-33 -28q6 -4 11 -11
t8 -17l87 -227q21 -54 30.5 -93.5t9.5 -70.5v-264q0 -13 -3.5 -22t-10.5 -15l-130 -108q-4 -4 -12.5 -7t-18.5 -3h-151q-25 0 -37 11.5t-12 34.5v130h-28v-21q0 -13 -3.5 -22t-10.5 -15z" />
    <glyph glyph-name="atilde" unicode="&#xe3;" horiz-adv-x="830" 
d="M479 764l16 -2q30 -4 49.5 -6.5t35.5 -2.5t32 3.5t40 10.5q17 7 26.5 14.5t9.5 26.5v101q0 19 -9 25t-27 1q-22 -7 -36 -11t-28.5 -5t-34 1t-52.5 7l-22 3l-17 2q-30 4 -49.5 6.5t-35 2.5t-31.5 -3.5t-40 -10.5q-17 -7 -26.5 -14.5t-9.5 -26.5v-101q0 -19 9 -25t27 -1
q20 6 34.5 9.5t29.5 5t34 0t47 -5.5zM598 841v-10q-20 -2 -43 0t-61 8l-16 2l-28 4q-33 5 -53.5 6t-36.5 -2v11q17 2 37.5 0.5t54.5 -5.5l28 -4l16 -2q38 -6 60 -8t42 0zM285 303v-31h390v31q0 27 -4.5 50t-11.5 43l-69 163q-11 26 -23 43.5t-40 17.5h-98q-30 0 -42 -17.5
t-22 -42.5l-64 -164q-7 -20 -11.5 -43t-4.5 -50zM445 510q4 9 8.5 13t10.5 4h25q6 0 10.5 -4t8.5 -13l47 -152h-157zM675 90v172h-390v-172h-10v213q0 28 4.5 51.5t12.5 45.5l64 164q11 28 25 47t48 19h98q33 0 46.5 -19t25.5 -48l69 -163q8 -22 12.5 -45.5t4.5 -51.5v-213
h-10zM388 36v140h177v-140q0 -19 9.5 -27.5t29.5 -8.5h151q19 0 27.5 8.5t8.5 27.5v264q0 30 -9.5 69t-29.5 91l-87 227q-6 17 -18.5 25t-31.5 8h-269q-20 0 -32.5 -8t-18.5 -25l-87 -227q-20 -52 -29.5 -91t-9.5 -69v-264q0 -19 8.5 -27.5t27.5 -8.5h147q19 0 27.5 8.5
t8.5 27.5zM254 -109q-4 -4 -12.5 -7t-18.5 -3h-147q-24 0 -35 11t-11 35v264q0 31 9.5 70.5t30.5 93.5l86 226q3 9 7.5 15.5t9.5 11.5l1 1l52 44q-10 -2 -21 -5.5t-25 -7.5q-25 -7 -37 2t-12 34v101q0 13 3.5 21.5t11.5 15.5l129 108q4 4 11.5 7.5t15.5 6.5h1v1
q24 7 40.5 10.5t33 3.5t36 -2.5t50.5 -6.5l17 -2l22 -3q32 -5 51 -7t33 -1t28 5t35 11q25 7 37 -2t12 -34v-101q0 -13 -4 -21.5t-11 -14.5l-51 -43q16 -3 26.5 -12.5t15.5 -25.5l87 -227q21 -54 30.5 -93.5t9.5 -70.5v-264q0 -13 -3.5 -22t-10.5 -15l-130 -108
q-4 -4 -12.5 -7t-18.5 -3h-151q-25 0 -37 11.5t-12 34.5v130h-28v-21q0 -13 -3.5 -22t-10.5 -15z" />
    <glyph glyph-name="adieresis" unicode="&#xe4;" horiz-adv-x="830" 
d="M676 760q17 0 25 8t8 25v121q0 17 -8 25t-25 8h-138q-17 0 -25 -8t-8 -25v-121q0 -17 8 -25t25 -8h138zM418 760q17 0 25 8t8 25v121q0 17 -8 25t-25 8h-138q-17 0 -25.5 -8t-8.5 -25v-121q0 -17 8.5 -25t25.5 -8h138zM612 830h-10v47h10v-47zM354 830h-10v47h10v-47z
M285 303v-31h390v31q0 27 -4.5 50t-11.5 43l-69 163q-11 26 -23 43.5t-40 17.5h-98q-30 0 -42 -17.5t-22 -42.5l-64 -164q-7 -20 -11.5 -43t-4.5 -50zM445 510q4 9 8.5 13t10.5 4h25q6 0 10.5 -4t8.5 -13l47 -152h-157zM675 90v172h-390v-172h-10v213q0 28 4.5 51.5
t12.5 45.5l64 164q11 28 25 47t48 19h98q33 0 46.5 -19t25.5 -48l69 -163q8 -22 12.5 -45.5t4.5 -51.5v-213h-10zM388 36v140h177v-140q0 -19 9.5 -27.5t29.5 -8.5h151q19 0 27.5 8.5t8.5 27.5v264q0 30 -9.5 69t-29.5 91l-87 227q-6 17 -18.5 25t-31.5 8h-269
q-20 0 -32.5 -8t-18.5 -25l-87 -227q-20 -52 -29.5 -91t-9.5 -69v-264q0 -19 8.5 -27.5t27.5 -8.5h147q19 0 27.5 8.5t8.5 27.5zM254 -109q-4 -4 -12.5 -7t-18.5 -3h-147q-24 0 -35 11t-11 35v264q0 31 9.5 70.5t30.5 93.5l86 226q3 9 7.5 15.5t9.5 11.5l1 1l38 32h-61
q-22 0 -33 10.5t-11 32.5v121q0 13 3.5 21t9.5 13l129 109q5 4 13 6.5t18 2.5h138q22 0 32.5 -10.5t10.5 -32.5v-6l47 40q5 4 12.5 6.5t17.5 2.5h138q22 0 32.5 -10.5t10.5 -32.5v-121q0 -12 -3.5 -20.5t-9.5 -13.5l-50 -41q6 -4 10.5 -11t7.5 -16l87 -227
q21 -54 30.5 -93.5t9.5 -70.5v-264q0 -13 -3.5 -22t-10.5 -15l-130 -108q-4 -4 -12.5 -7t-18.5 -3h-151q-25 0 -37 11.5t-12 34.5v130h-28v-21q0 -13 -3.5 -22t-10.5 -15z" />
    <glyph glyph-name="aring" unicode="&#xe5;" horiz-adv-x="830" 
d="M340 760v45q0 22 5.5 41t20.5 32t43 20.5t72 7.5q89 0 116 -28.5t27 -72.5v-45q0 -45 -27 -72.5t-116 -27.5q-44 0 -72 7t-43 20.5t-20.5 32t-5.5 40.5zM481 896q-80 0 -105.5 -24.5t-25.5 -66.5v-45q0 -42 25.5 -66t105.5 -24t106.5 24t26.5 66v45q0 41 -26.5 66
t-106.5 25zM540 764q0 -22 -11 -32.5t-48 -10.5t-47 10.5t-10 32.5v35q0 19 10 29.5t47 10.5t48 -10.5t11 -29.5v-35zM285 303v-31h390v31q0 27 -4.5 50t-11.5 43l-69 163q-11 26 -23 43.5t-40 17.5h-98q-30 0 -42 -17.5t-22 -42.5l-64 -164q-7 -20 -11.5 -43t-4.5 -50z
M445 510q3 9 8 13t11 4h25q6 0 11 -4t8 -13l47 -152h-157zM675 90v172h-390v-172h-10v213q0 28 4.5 51.5t12.5 45.5l64 164q11 28 25 47t48 19h98q33 0 46.5 -19t25.5 -48l69 -163q8 -22 12.5 -45.5t4.5 -51.5v-213h-10zM388 36v140h177v-140q0 -19 9.5 -27.5t29.5 -8.5h151
q19 0 27.5 8.5t8.5 27.5v264q0 30 -9.5 69t-29.5 91l-84 220q16 18 22.5 41t6.5 50v58q0 32 -9.5 58.5t-34 45t-66.5 29t-107 10.5t-107 -10.5t-66.5 -29t-34 -45t-9.5 -58.5v-58q0 -27 6.5 -50t22.5 -41l-84 -220q-20 -52 -29.5 -91t-9.5 -69v-264q0 -19 8.5 -27.5
t27.5 -8.5h147q19 0 27.5 8.5t8.5 27.5zM384 -1l-130 -108q-4 -4 -12.5 -7t-18.5 -3h-147q-24 0 -35 11t-11 35v264q0 31 9.5 70.5t30.5 93.5l82 214q-15 19 -21.5 42.5t-6.5 50.5v58q0 33 9 61t34 48l130 109q25 20 69.5 32t113.5 12t113.5 -11.5t69.5 -31.5t34.5 -48.5
t9.5 -61.5v-58q0 -27 -6.5 -50.5t-21.5 -42.5l82 -214q21 -54 30.5 -93.5t9.5 -70.5v-264q0 -13 -3.5 -22t-10.5 -15l-130 -108q-4 -4 -12.5 -7t-18.5 -3h-151q-25 0 -37 11.5t-12 34.5v130h-28v-21q0 -13 -3.5 -22t-10.5 -15z" />
    <glyph glyph-name="ae" unicode="&#xe6;" horiz-adv-x="1105" 
d="M283 291v-18h381v347h-255q-15 0 -24.5 -8t-16.5 -30l-74 -203q-7 -19 -9 -39.5t-2 -48.5zM449 514q4 10 7.5 13.5t11.5 3.5h87v-173h-158zM273 90v201q0 29 2 50t9 42l74 203q10 26 21.5 35t29.5 9h572v-10h-307v-250h226v-10h-226v-260h307v-10h-317v173h-381v-173h-10
zM387 36v140h168v-140q0 -19 8.5 -27.5t27.5 -8.5h444q19 0 27.5 8.5t8.5 27.5v117q0 19 -8.5 27.5t-27.5 8.5h-253v86h172q19 0 27.5 8.5t8.5 27.5v107q0 19 -8.5 27.5t-27.5 8.5h-172v77h253q19 0 27.5 8.5t8.5 27.5v117q0 19 -8.5 27.5t-27.5 8.5h-688q-25 0 -39.5 -9
t-22.5 -32l-87 -239q-14 -37 -21.5 -71.5t-7.5 -78.5v-254q0 -19 8.5 -27.5t27.5 -8.5h146q19 0 27.5 8.5t8.5 27.5zM383 -1l-130 -108q-4 -4 -12.5 -7t-18.5 -3h-146q-24 0 -35 11t-11 35v254q0 45 7.5 80t22.5 73l87 239q3 13 8.5 21t12.5 13l128 108q9 8 21.5 11.5
t29.5 3.5h688q24 0 35 -11t11 -35v-117q0 -13 -3.5 -22t-10.5 -15l-86 -71q10 -5 14.5 -15t4.5 -26v-107q0 -13 -3.5 -22t-10.5 -15l-89 -75h138q24 0 35 -11t11 -35v-117q0 -13 -3.5 -22t-10.5 -15l-130 -108q-4 -4 -12.5 -7t-18.5 -3h-444q-24 0 -35 11t-11 35v130h-19
v-21q0 -13 -3.5 -22t-10.5 -15z" />
    <glyph glyph-name="ccedilla" unicode="&#xe7;" horiz-adv-x="728" 
d="M550 -96l34 96h79q8 0 15 1.5t11 5.5q5 4 7.5 11.5t2.5 17.5v119q0 19 -8.5 27.5t-27.5 8.5h-201q-31 0 -46 11.5t-15 36.5v238q0 13 4 22t11 16q7 6 18.5 9t27.5 3h201q8 0 15 1.5t11 5.5q5 4 7.5 11.5t2.5 17.5v121q0 19 -8.5 27.5t-27.5 8.5h-244q-63 0 -109.5 -12.5
t-76.5 -37.5q-31 -25 -45.5 -64t-14.5 -91v-311q0 -94 49.5 -144t150.5 -58h8l-33 -88q-7 -18 -1 -29t31 -11h126q11 0 19 2.5t14 6.5q4 4 7.5 9t5.5 12zM608 90h-88l-46 -126h-10l45 126h-68q-97 0 -128.5 30t-31.5 99v280q0 71 32 101t128 30h167v-10h-167
q-88 0 -119 -27.5t-31 -93.5v-280q0 -65 30 -92t120 -27h167v-10zM414 -232q-6 -7 -16 -10t-23 -3h-126q-34 0 -41 15t2 39l28 75q-52 4 -90.5 24.5t-63.5 52t-37.5 73.5t-12.5 91v281q0 55 16 95.5t47 67.5l130 109q31 26 79 39t113 13h244q24 0 35 -11t11 -35v-121
q0 -13 -3.5 -22t-10.5 -15l-130 -108q-4 -4 -12.5 -7t-18.5 -3h-123v-169q0 -21 13 -29.5t38 -8.5h201q24 0 35 -11t11 -35v-119q0 -13 -3.5 -22t-10.5 -15l-282 -232z" />
    <glyph glyph-name="egrave" unicode="&#xe8;" horiz-adv-x="754" 
d="M555 -119h-464q-24 0 -35 11t-11 35v648q0 13 3.5 22t10.5 15l77 65q-22 3 -32.5 13.5t-10.5 32.5v96q0 13 3.5 21.5t10.5 14.5l129 109q6 4 13.5 6t17.5 1l349 -43q24 -3 34.5 -13t10.5 -33v-96q0 -13 -3.5 -21.5t-10.5 -14.5l-24 -20h61q24 0 35 -11t11 -35v-117
q0 -13 -3.5 -22t-10.5 -15l-86 -71q10 -5 14.5 -15t4.5 -26v-107q0 -13 -3.5 -22t-10.5 -15l-89 -75h138q24 0 35 -11t11 -35v-117q0 -13 -3.5 -22t-10.5 -15l-130 -108q-4 -4 -12.5 -7t-18.5 -3zM617 753q17 -2 25.5 7t8.5 26v96q0 19 -8.5 26.5t-27.5 9.5l-349 43
q-17 2 -25.5 -7t-8.5 -26v-96q0 -19 8.5 -26.5t27.5 -9.5zM322 867v10l239 -30v-10zM684 0q19 0 27.5 8.5t8.5 27.5v117q0 19 -8.5 27.5t-27.5 8.5h-276v86h195q19 0 27.5 8.5t8.5 27.5v107q0 19 -8.5 27.5t-27.5 8.5h-195v77h276q19 0 27.5 8.5t8.5 27.5v117
q0 19 -8.5 27.5t-27.5 8.5h-464q-19 0 -27.5 -8.5t-8.5 -27.5v-648q0 -19 8.5 -27.5t27.5 -8.5h464zM630 100v-10h-337v540h337v-10h-327v-251h246v-10h-246v-259h327z" />
    <glyph glyph-name="eacute" unicode="&#xe9;" horiz-adv-x="754" 
d="M555 -119h-464q-24 0 -35 11t-11 35v648q0 13 3.5 22t10.5 15l65 55q-1 2 -1 4.5v5.5v96q0 13 3.5 21.5t9.5 13.5l130 109q4 4 12.5 7t18.5 4l349 43q22 3 33.5 -8.5t11.5 -34.5v-96q0 -13 -3.5 -22t-10.5 -13l-79 -67h86q24 0 35 -11t11 -35v-117q0 -13 -3.5 -22
t-10.5 -15l-86 -71q10 -5 14.5 -15t4.5 -26v-107q0 -13 -3.5 -22t-10.5 -15l-89 -75h138q24 0 35 -11t11 -35v-117q0 -13 -3.5 -22t-10.5 -15l-130 -108q-4 -4 -12.5 -7t-18.5 -3zM645 796q19 2 27.5 9.5t8.5 26.5v96q0 17 -8.5 26t-25.5 7l-349 -43q-19 -2 -27.5 -9.5
t-8.5 -26.5v-96q0 -17 8.5 -26t25.5 -7zM352 847l239 30v-10l-239 -30v10zM684 0q19 0 27.5 8.5t8.5 27.5v117q0 19 -8.5 27.5t-27.5 8.5h-276v86h195q19 0 27.5 8.5t8.5 27.5v107q0 19 -8.5 27.5t-27.5 8.5h-195v77h276q19 0 27.5 8.5t8.5 27.5v117q0 19 -8.5 27.5
t-27.5 8.5h-464q-19 0 -27.5 -8.5t-8.5 -27.5v-648q0 -19 8.5 -27.5t27.5 -8.5h464zM630 100v-10h-337v540h337v-10h-327v-251h246v-10h-246v-259h327z" />
    <glyph glyph-name="ecircumflex" unicode="&#xea;" horiz-adv-x="754" 
d="M555 -119h-464q-24 0 -35 11t-11 35v648q0 13 3.5 22t10.5 15l46 39q-1 5 -1.5 12t-0.5 16v81q0 19 3.5 29t10.5 17l131 109l-1 -1q5 5 13.5 9t19.5 8l127 46q10 4 21.5 6.5t21.5 3.5q10 0 19 -1t16 -5l138 -50q30 -11 39 -21t9 -41v-81q0 -16 -3 -26t-7 -14l-1 -1
l-20 -17h44q24 0 35 -11t11 -35v-117q0 -13 -3.5 -22t-10.5 -15l-86 -71q10 -5 14.5 -15t4.5 -26v-107q0 -13 -3.5 -22t-10.5 -15l-89 -75h138q24 0 35 -11t11 -35v-117q0 -13 -3.5 -22t-10.5 -15l-130 -108q-4 -4 -12.5 -7t-18.5 -3zM570 850l-87 28q-7 2 -14.5 4t-17.5 2
t-17.5 -2t-14.5 -4l-87 -28v11l83 27q9 2 17 4t19 2t19 -2t17 -4l83 -27v-11zM420 797q17 4 31 4t31 -4l137 -40q26 -8 34 -2t8 33v81q0 27 -8.5 35t-33.5 18l-137 50q-7 3 -15 4t-17 1q-9 -1 -19.5 -3t-19.5 -6l-128 -46q-24 -10 -32.5 -18t-8.5 -35v-81q0 -27 8 -33t33 2z
M684 0q19 0 27.5 8.5t8.5 27.5v117q0 19 -8.5 27.5t-27.5 8.5h-276v86h195q19 0 27.5 8.5t8.5 27.5v107q0 19 -8.5 27.5t-27.5 8.5h-195v77h276q19 0 27.5 8.5t8.5 27.5v117q0 19 -8.5 27.5t-27.5 8.5h-464q-19 0 -27.5 -8.5t-8.5 -27.5v-648q0 -19 8.5 -27.5t27.5 -8.5h464
zM630 100v-10h-337v540h337v-10h-327v-251h246v-10h-246v-259h327z" />
    <glyph glyph-name="edieresis" unicode="&#xeb;" horiz-adv-x="754" 
d="M555 -119h-464q-24 0 -35 11t-11 35v648q0 13 3.5 22t10.5 15l44 37q-7 5 -10.5 13.5t-3.5 21.5v121q0 13 3.5 21t9.5 13l129 109q5 4 13 6.5t18 2.5h138q22 0 32.5 -10.5t10.5 -32.5v-6l47 40q5 4 12.5 6.5t17.5 2.5h138q22 0 32.5 -10.5t10.5 -32.5v-121
q0 -12 -3.5 -20.5t-9.5 -13.5l-35 -29h31q24 0 35 -11t11 -35v-117q0 -13 -3.5 -22t-10.5 -15l-86 -71q10 -5 14.5 -15t4.5 -26v-107q0 -13 -3.5 -22t-10.5 -15l-89 -75h138q24 0 35 -11t11 -35v-117q0 -13 -3.5 -22t-10.5 -15l-130 -108q-4 -4 -12.5 -7t-18.5 -3zM658 760
q17 0 25 8t8 25v121q0 17 -8 25t-25 8h-138q-17 0 -25 -8t-8 -25v-121q0 -17 8 -25t25 -8h138zM400 760q17 0 25 8t8 25v121q0 17 -8 25t-25 8h-138q-17 0 -25.5 -8t-8.5 -25v-121q0 -17 8.5 -25t25.5 -8h138zM594 830h-10v47h10v-47zM336 830h-10v47h10v-47zM684 0
q19 0 27.5 8.5t8.5 27.5v117q0 19 -8.5 27.5t-27.5 8.5h-276v86h195q19 0 27.5 8.5t8.5 27.5v107q0 19 -8.5 27.5t-27.5 8.5h-195v77h276q19 0 27.5 8.5t8.5 27.5v117q0 19 -8.5 27.5t-27.5 8.5h-464q-19 0 -27.5 -8.5t-8.5 -27.5v-648q0 -19 8.5 -27.5t27.5 -8.5h464z
M630 100v-10h-337v540h337v-10h-327v-251h246v-10h-246v-259h327z" />
    <glyph glyph-name="igrave" unicode="&#xec;" horiz-adv-x="705" 
d="M501 -119h-426q-24 0 -35 11t-11 35v119q0 13 3.5 22t10.5 15l121 102v223h-89q-24 0 -35 11t-11 35v121q0 13 3.5 22t10.5 15l76 64l-6 1q-24 3 -34.5 13t-10.5 33v96q0 13 3.5 21.5t10.5 14.5l129 109q6 4 13.5 6t17.5 1l349 -43q24 -3 34.5 -13t10.5 -33v-96
q0 -13 -3.5 -21.5t-10.5 -14.5l-24 -20h32q24 0 35 -11t11 -35v-121q0 -13 -3.5 -22t-10.5 -15l-119 -100v-225h87q24 0 35 -11t11 -35v-119q0 -13 -3.5 -22t-10.5 -15l-130 -108q-4 -4 -12.5 -7t-18.5 -3zM592 753q17 -2 25.5 7t8.5 26v96q0 19 -8.5 26.5t-27.5 9.5
l-349 43q-17 2 -25.5 -7t-8.5 -26v-96q0 -19 8.5 -26.5t27.5 -9.5zM297 867v10l239 -30v-10zM204 0h426q19 0 27.5 8.5t8.5 27.5v119q0 19 -8.5 27.5t-27.5 8.5h-97v336h97q19 0 27.5 8.5t8.5 27.5v121q0 19 -8.5 27.5t-27.5 8.5h-426q-19 0 -27.5 -8.5t-8.5 -27.5v-121
q0 -19 8.5 -27.5t27.5 -8.5h99v-336h-99q-19 0 -27.5 -8.5t-8.5 -27.5v-119q0 -19 8.5 -27.5t27.5 -8.5zM576 90h-318v10h155v520h-155v10h318v-10h-153v-520h153v-10z" />
    <glyph glyph-name="iacute" unicode="&#xed;" horiz-adv-x="705" 
d="M501 -119h-426q-24 0 -35 11t-11 35v119q0 13 3.5 22t10.5 15l121 102v223h-89q-24 0 -35 11t-11 35v121q0 13 3.5 22t10.5 15l36 31q-5 5 -8 14t-3 20v96q0 13 3.5 21.5t9.5 13.5l130 109q4 4 12.5 7t18.5 4l349 43q22 3 33.5 -8.5t11.5 -34.5v-96q0 -13 -3.5 -22
t-10.5 -13l-79 -67h87q24 0 35 -11t11 -35v-121q0 -13 -3.5 -22t-10.5 -15l-119 -100v-225h87q24 0 35 -11t11 -35v-119q0 -13 -3.5 -22t-10.5 -15l-130 -108q-4 -4 -12.5 -7t-18.5 -3zM590 796q19 2 27.5 9.5t8.5 26.5v96q0 17 -8.5 26t-25.5 7l-349 -43q-19 -2 -27.5 -9.5
t-8.5 -26.5v-96q0 -17 8.5 -26t25.5 -7zM297 847l239 30v-10l-239 -30v10zM204 0h426q19 0 27.5 8.5t8.5 27.5v119q0 19 -8.5 27.5t-27.5 8.5h-97v336h97q19 0 27.5 8.5t8.5 27.5v121q0 19 -8.5 27.5t-27.5 8.5h-426q-19 0 -27.5 -8.5t-8.5 -27.5v-121q0 -19 8.5 -27.5
t27.5 -8.5h99v-336h-99q-19 0 -27.5 -8.5t-8.5 -27.5v-119q0 -19 8.5 -27.5t27.5 -8.5zM576 90h-318v10h155v520h-155v10h318v-10h-153v-520h153v-10z" />
    <glyph glyph-name="icircumflex" unicode="&#xee;" horiz-adv-x="705" 
d="M501 -119h-426q-24 0 -35 11t-11 35v119q0 13 3.5 22t10.5 15l121 102v223h-89q-24 0 -35 11t-11 35v121q0 13 3.5 22t10.5 15l32 27q-4 5 -5.5 15t-1.5 25v81q0 19 3.5 29t10.5 17l131 109l-1 -1q5 5 13.5 9t19.5 8l127 46q10 4 21.5 6.5t21.5 3.5q10 0 19 -1t16 -5
l138 -50q30 -11 39 -21t9 -41v-81q0 -16 -3 -26t-7 -14l-1 -1l-21 -17h26q24 0 35 -11t11 -35v-121q0 -13 -3.5 -22t-10.5 -15l-119 -100v-225h87q24 0 35 -11t11 -35v-119q0 -13 -3.5 -22t-10.5 -15l-130 -108q-4 -4 -12.5 -7t-18.5 -3zM535 850l-87 28q-7 2 -14.5 4
t-17.5 2t-17.5 -2t-14.5 -4l-87 -28v11l83 27q9 2 17 4t19 2t19 -2t17 -4l83 -27v-11zM385 797q17 4 31 4t31 -4l137 -40q26 -8 34 -2t8 33v81q0 27 -8.5 35t-33.5 18l-137 50q-7 3 -15 4t-17 1q-9 -1 -19.5 -3t-19.5 -6l-128 -46q-24 -10 -32.5 -18t-8.5 -35v-81
q0 -27 8 -33t33 2zM204 0h426q19 0 27.5 8.5t8.5 27.5v119q0 19 -8.5 27.5t-27.5 8.5h-97v336h97q19 0 27.5 8.5t8.5 27.5v121q0 19 -8.5 27.5t-27.5 8.5h-426q-19 0 -27.5 -8.5t-8.5 -27.5v-121q0 -19 8.5 -27.5t27.5 -8.5h99v-336h-99q-19 0 -27.5 -8.5t-8.5 -27.5v-119
q0 -19 8.5 -27.5t27.5 -8.5zM576 90h-318v10h155v520h-155v10h318v-10h-153v-520h153v-10z" />
    <glyph glyph-name="idieresis" unicode="&#xef;" horiz-adv-x="705" 
d="M501 -119h-426q-24 0 -35 11t-11 35v119q0 13 3.5 22t10.5 15l121 102v223h-89q-24 0 -35 11t-11 35v121q0 13 3.5 22t10.5 15l35 30q-17 1 -25.5 12t-8.5 30v121q0 13 3.5 21t9.5 13l129 109q5 4 13 6.5t18 2.5h138q22 0 32.5 -10.5t10.5 -32.5v-6l47 40q5 4 12.5 6.5
t17.5 2.5h138q22 0 32.5 -10.5t10.5 -32.5v-121q0 -12 -3.5 -20.5t-9.5 -13.5l-35 -29h22q24 0 35 -11t11 -35v-121q0 -13 -3.5 -22t-10.5 -15l-119 -100v-225h87q24 0 35 -11t11 -35v-119q0 -13 -3.5 -22t-10.5 -15l-130 -108q-4 -4 -12.5 -7t-18.5 -3zM613 760q17 0 25 8
t8 25v121q0 17 -8 25t-25 8h-138q-17 0 -25 -8t-8 -25v-121q0 -17 8 -25t25 -8h138zM355 760q17 0 25 8t8 25v121q0 17 -8 25t-25 8h-138q-17 0 -25.5 -8t-8.5 -25v-121q0 -17 8.5 -25t25.5 -8h138zM549 830h-10v47h10v-47zM291 830h-10v47h10v-47zM204 0h426q19 0 27.5 8.5
t8.5 27.5v119q0 19 -8.5 27.5t-27.5 8.5h-97v336h97q19 0 27.5 8.5t8.5 27.5v121q0 19 -8.5 27.5t-27.5 8.5h-426q-19 0 -27.5 -8.5t-8.5 -27.5v-121q0 -19 8.5 -27.5t27.5 -8.5h99v-336h-99q-19 0 -27.5 -8.5t-8.5 -27.5v-119q0 -19 8.5 -27.5t27.5 -8.5zM576 90h-318v10
h155v520h-155v10h318v-10h-153v-520h153v-10z" />
    <glyph glyph-name="eth" unicode="&#xf0;" horiz-adv-x="856" 
d="M101 -119q-24 0 -35 11t-11 35v219h-13q-24 0 -35 10.5t-11 35.5v107q0 13 3.5 22t10.5 15l45 38v201q0 13 3.5 22t10.5 15l129 109q5 4 13.5 6.5t18.5 2.5h337q74 0 123.5 -16t79 -44t41.5 -67.5t12 -86.5v-312q0 -50 -14.5 -91.5t-48.5 -69.5l-129 -109
q-30 -25 -77 -39t-116 -14h-337zM567 0q141 0 193.5 57t52.5 147v312q0 90 -52.5 147t-193.5 57h-337q-19 0 -27.5 -8.5t-8.5 -27.5v-240h-23q-19 0 -27.5 -8.5t-8.5 -27.5v-107q0 -19 8.5 -27.5t27.5 -8.5h23v-229q0 -19 8.5 -27.5t27.5 -8.5h337zM301 90v259h-76v10h76
v271h244q51 0 82.5 -11t48.5 -29.5t23 -44t6 -54.5v-265q0 -29 -5.5 -54t-22.5 -43t-49 -28.5t-83 -10.5h-244zM405 349h-94v-249h234q48 0 77.5 9.5t45.5 26t21.5 40t5.5 50.5v265q0 27 -6 51t-22 41t-45.5 27t-76.5 10h-234v-261h94v-10zM418 189v76h41q19 0 27.5 8.5
t8.5 27.5v107q0 19 -8.5 27.5t-27.5 8.5h-41v85h122q30 0 38.5 -14.5t8.5 -33.5v-243q0 -20 -8.5 -34.5t-38.5 -14.5h-122zM448 199v29l-20 -17v-12h20z" />
    <glyph glyph-name="ntilde" unicode="&#xf1;" horiz-adv-x="853" 
d="M490 764l16 -2q30 -4 49.5 -6.5t35.5 -2.5t32 3.5t40 10.5q17 7 26.5 14.5t9.5 26.5v101q0 19 -9 25t-27 1q-22 -7 -36 -11t-28.5 -5t-34 1t-52.5 7l-22 3l-17 2q-30 4 -49.5 6.5t-35 2.5t-31.5 -3.5t-40 -10.5q-17 -7 -26.5 -14.5t-9.5 -26.5v-101q0 -19 9 -25t27 -1
q20 6 34.5 9.5t29.5 5t34 0t47 -5.5zM609 841v-10q-20 -2 -43 0t-61 8l-16 2l-28 4q-33 5 -53.5 6t-36.5 -2v11q17 2 37.5 0.5t54.5 -5.5l28 -4l16 -2q38 -6 60 -8t42 0zM460 620l18 15q-7 -1 -15 -1h-15zM316 622l368 -414v422h10v-540h-10v103l-378 424q-1 1 -2.5 2
t-2.5 1t-1.5 -1t-0.5 -2v-527h-10v529q0 6 4 9t8 3t7 -2t8 -7zM370 0q19 0 27.5 8.5t8.5 27.5v330l171 -207v-123q0 -19 8.5 -27.5t27.5 -8.5h150q19 0 27.5 8.5t8.5 27.5v648q0 19 -8.5 27.5t-27.5 8.5h-150q-19 0 -27.5 -8.5t-8.5 -27.5v-213l-194 222q-13 15 -26.5 21
t-32.5 6h-104q-19 0 -27.5 -8.5t-8.5 -27.5v-648q0 -19 8.5 -27.5t27.5 -8.5h150zM272 -109q-4 -4 -12.5 -7t-18.5 -3h-150q-24 0 -35 11t-11 35v648q0 13 3.5 22t10.5 15l83 70v95q0 13 3.5 21.5t11.5 15.5l129 108q4 4 11.5 7.5t15.5 6.5h1v1q24 7 40.5 10.5t33 3.5
t36 -2.5t50.5 -6.5l17 -2l22 -3q32 -5 51 -7t33 -1t28 5t35 11q25 7 37 -2t12 -34v-101q0 -13 -4 -21.5t-11 -14.5l-50 -42h119q24 0 35 -11t11 -35v-648q0 -13 -3.5 -22t-10.5 -15l-130 -108q-4 -4 -12.5 -7t-18.5 -3h-150q-24 0 -35 11t-11 35v119l-22 27v-37
q0 -13 -3.5 -22t-10.5 -15z" />
    <glyph glyph-name="ograve" unicode="&#xf2;" horiz-adv-x="837" 
d="M355 -134q-98 0 -160.5 20.5t-98 54.5t-49 78t-13.5 91v311q0 46 13 85.5t47 67.5l119 99l-34 4q-24 3 -34.5 13t-10.5 33v96q0 13 3.5 21.5t10.5 14.5l129 109q6 4 13.5 6t17.5 1l349 -43q24 -3 34.5 -13t10.5 -33v-96q0 -13 -3.5 -21.5t-10.5 -14.5l-29 -25
q86 -25 115.5 -76t29.5 -119v-341q0 -46 -13 -85t-47 -67l-129 -108q-35 -30 -98 -46.5t-162 -16.5zM658 753q17 -2 25.5 7t8.5 26v96q0 19 -8.5 26.5t-27.5 9.5l-349 43q-17 2 -25.5 -7t-8.5 -26v-96q0 -19 8.5 -26.5t27.5 -9.5zM363 867v10l239 -30v-10zM794 189v341
q0 46 -13.5 83.5t-48 64.5t-95 42t-153.5 15t-154 -15t-95.5 -42t-48 -64.5t-13.5 -83.5v-341q0 -46 13.5 -83.5t48 -64t95.5 -41.5t154 -15t153.5 15t95 41.5t48 64t13.5 83.5zM685 212q0 -60 -43 -97.5t-160 -37.5t-159 37.5t-42 97.5v295q0 60 42 97.5t159 37.5
t160 -37.5t43 -97.5v-295zM291 212q0 -56 40 -90.5t151 -34.5t152 34.5t41 90.5v295q0 56 -41 90.5t-152 34.5t-151 -34.5t-40 -90.5v-295zM400 225v269q0 19 15 32.5t69 13.5t69 -13.5t15 -32.5v-269q0 -20 -15 -33.5t-69 -13.5t-69 13.5t-15 33.5zM410 225q0 -10 4 -17.5
t15 -12.5v190q0 10 -4 17.5t-15 11.5v-189z" />
    <glyph glyph-name="oacute" unicode="&#xf3;" horiz-adv-x="837" 
d="M355 -134q-98 0 -160.5 20.5t-98 54.5t-49 78t-13.5 91v311q0 46 13 85.5t47 67.5l72 60q-16 1 -24 12.5t-8 30.5v96q0 13 3.5 21.5t9.5 13.5l130 109q4 4 12.5 7t18.5 4l349 43q22 3 33.5 -8.5t11.5 -34.5v-96q0 -13 -3.5 -22t-10.5 -13l-73 -62q56 -10 93 -29t58 -45.5
t29.5 -59.5t8.5 -71v-341q0 -46 -13 -85t-47 -67l-129 -108q-35 -30 -98 -46.5t-162 -16.5zM656 796q19 2 27.5 9.5t8.5 26.5v96q0 17 -8.5 26t-25.5 7l-349 -43q-19 -2 -27.5 -9.5t-8.5 -26.5v-96q0 -17 8.5 -26t25.5 -7zM363 847l239 30v-10l-239 -30v10zM794 189v341
q0 46 -13.5 83.5t-48 64.5t-95 42t-153.5 15t-154 -15t-95.5 -42t-48 -64.5t-13.5 -83.5v-341q0 -46 13.5 -83.5t48 -64t95.5 -41.5t154 -15t153.5 15t95 41.5t48 64t13.5 83.5zM685 212q0 -60 -43 -97.5t-160 -37.5t-159 37.5t-42 97.5v295q0 60 42 97.5t159 37.5
t160 -37.5t43 -97.5v-295zM291 212q0 -56 40 -90.5t151 -34.5t152 34.5t41 90.5v295q0 56 -41 90.5t-152 34.5t-151 -34.5t-40 -90.5v-295zM400 225v269q0 19 15 32.5t69 13.5t69 -13.5t15 -32.5v-269q0 -20 -15 -33.5t-69 -13.5t-69 13.5t-15 33.5zM410 225q0 -10 4 -17.5
t15 -12.5v190q0 10 -4 17.5t-15 11.5v-189z" />
    <glyph glyph-name="ocircumflex" unicode="&#xf4;" horiz-adv-x="837" 
d="M355 -134q-98 0 -160.5 20.5t-98 54.5t-49 78t-13.5 91v311q0 46 13 85.5t47 67.5l70 58q-18 -2 -24 8.5t-6 38.5v81q0 19 3.5 29t10.5 17l131 109l-1 -1q5 5 13.5 9t19.5 8l127 46q10 4 21.5 6.5t21.5 3.5q10 0 19 -1t16 -5l138 -50q30 -11 39 -21t9 -41v-81
q0 -16 -3 -26t-7 -14l-1 -1l-28 -23q84 -25 112.5 -76t28.5 -118v-341q0 -46 -13 -85t-47 -67l-129 -108q-35 -30 -98 -46.5t-162 -16.5zM601 850l-87 28q-7 2 -14.5 4t-17.5 2t-17.5 -2t-14.5 -4l-87 -28v11l83 27q9 2 17 4t19 2t19 -2t17 -4l83 -27v-11zM451 797
q17 4 31 4t31 -4l137 -40q26 -8 34 -2t8 33v81q0 27 -8.5 35t-33.5 18l-137 50q-7 3 -15 4t-17 1q-9 -1 -19.5 -3t-19.5 -6l-128 -46q-24 -10 -32.5 -18t-8.5 -35v-81q0 -27 8 -33t33 2zM794 189v341q0 46 -13.5 83.5t-48 64.5t-95 42t-153.5 15t-154 -15t-95.5 -42
t-48 -64.5t-13.5 -83.5v-341q0 -46 13.5 -83.5t48 -64t95.5 -41.5t154 -15t153.5 15t95 41.5t48 64t13.5 83.5zM685 212q0 -60 -43 -97.5t-160 -37.5t-159 37.5t-42 97.5v295q0 60 42 97.5t159 37.5t160 -37.5t43 -97.5v-295zM291 212q0 -56 40 -90.5t151 -34.5t152 34.5
t41 90.5v295q0 56 -41 90.5t-152 34.5t-151 -34.5t-40 -90.5v-295zM400 225v269q0 19 15 32.5t69 13.5t69 -13.5t15 -32.5v-269q0 -20 -15 -33.5t-69 -13.5t-69 13.5t-15 33.5zM410 225q0 -10 4 -17.5t15 -12.5v190q0 10 -4 17.5t-15 11.5v-189z" />
    <glyph glyph-name="otilde" unicode="&#xf5;" horiz-adv-x="837" 
d="M355 -134q-98 0 -160.5 20.5t-98 54.5t-49 78t-13.5 91v311q0 46 13 85.5t47 67.5l76 63q-18 -2 -27 7.5t-9 31.5v101q0 13 3.5 21.5t11.5 15.5l129 108q4 4 11.5 7.5t15.5 6.5h1v1q24 7 40.5 10.5t33 3.5t36 -2.5t50.5 -6.5l17 -2l22 -3q32 -5 51 -7t33 -1t28 5t35 11
q25 7 37 -2t12 -34v-101q0 -13 -4 -21.5t-11 -14.5l-49 -41q99 -22 133 -75.5t34 -125.5v-341q0 -46 -13 -85t-47 -67l-129 -108q-35 -30 -98 -46.5t-162 -16.5zM482 764l16 -2q30 -4 49.5 -6.5t35.5 -2.5t32 3.5t40 10.5q17 7 26.5 14.5t9.5 26.5v101q0 19 -9 25t-27 1
q-22 -7 -36 -11t-28.5 -5t-34 1t-52.5 7l-22 3l-17 2q-30 4 -49.5 6.5t-35 2.5t-31.5 -3.5t-40 -10.5q-17 -7 -26.5 -14.5t-9.5 -26.5v-101q0 -19 9 -25t27 -1q20 6 34.5 9.5t29.5 5t34 0t47 -5.5zM601 841v-10q-20 -2 -43 0t-61 8l-16 2l-28 4q-33 5 -53.5 6t-36.5 -2v11
q17 2 37.5 0.5t54.5 -5.5l28 -4l16 -2q38 -6 60 -8t42 0zM794 189v341q0 46 -13.5 83.5t-48 64.5t-95 42t-153.5 15t-154 -15t-95.5 -42t-48 -64.5t-13.5 -83.5v-341q0 -46 13.5 -83.5t48 -64t95.5 -41.5t154 -15t153.5 15t95 41.5t48 64t13.5 83.5zM685 212
q0 -60 -43 -97.5t-160 -37.5t-159 37.5t-42 97.5v295q0 60 42 97.5t159 37.5t160 -37.5t43 -97.5v-295zM291 212q0 -56 40 -90.5t151 -34.5t152 34.5t41 90.5v295q0 56 -41 90.5t-152 34.5t-151 -34.5t-40 -90.5v-295zM400 225v269q0 19 15 32.5t69 13.5t69 -13.5t15 -32.5
v-269q0 -20 -15 -33.5t-69 -13.5t-69 13.5t-15 33.5zM410 225q0 -10 4 -17.5t15 -12.5v190q0 10 -4 17.5t-15 11.5v-189z" />
    <glyph glyph-name="odieresis" unicode="&#xf6;" horiz-adv-x="837" 
d="M355 -134q-98 0 -160.5 20.5t-98 54.5t-49 78t-13.5 91v311q0 46 13 85.5t47 67.5l81 67h-21q-22 0 -33 10.5t-11 32.5v121q0 13 3.5 21t9.5 13l129 109q5 4 13 6.5t18 2.5h138q22 0 32.5 -10.5t10.5 -32.5v-6l47 40q5 4 12.5 6.5t17.5 2.5h138q22 0 32.5 -10.5
t10.5 -32.5v-121q0 -12 -3.5 -20.5t-9.5 -13.5l-43 -36q81 -25 109.5 -76t28.5 -117v-341q0 -46 -13 -85t-47 -67l-129 -108q-35 -30 -98 -46.5t-162 -16.5zM679 760q17 0 25 8t8 25v121q0 17 -8 25t-25 8h-138q-17 0 -25 -8t-8 -25v-121q0 -17 8 -25t25 -8h138zM421 760
q17 0 25 8t8 25v121q0 17 -8 25t-25 8h-138q-17 0 -25.5 -8t-8.5 -25v-121q0 -17 8.5 -25t25.5 -8h138zM615 830h-10v47h10v-47zM357 830h-10v47h10v-47zM794 189v341q0 46 -13.5 83.5t-48 64.5t-95 42t-153.5 15t-154 -15t-95.5 -42t-48 -64.5t-13.5 -83.5v-341
q0 -46 13.5 -83.5t48 -64t95.5 -41.5t154 -15t153.5 15t95 41.5t48 64t13.5 83.5zM685 212q0 -60 -43 -97.5t-160 -37.5t-159 37.5t-42 97.5v295q0 60 42 97.5t159 37.5t160 -37.5t43 -97.5v-295zM291 212q0 -56 40 -90.5t151 -34.5t152 34.5t41 90.5v295q0 56 -41 90.5
t-152 34.5t-151 -34.5t-40 -90.5v-295zM400 225v269q0 19 15 32.5t69 13.5t69 -13.5t15 -32.5v-269q0 -20 -15 -33.5t-69 -13.5t-69 13.5t-15 33.5zM410 225q0 -10 4 -17.5t15 -12.5v190q0 10 -4 17.5t-15 11.5v-189z" />
    <glyph glyph-name="divide" unicode="&#xf7;" horiz-adv-x="834" 
d="M434 -77h-162q-24 0 -35 11t-11 35v123q0 13 3.5 22.5t9.5 14.5l35 29h-182q-24 0 -35 10.5t-11 35.5v94q0 13 3.5 22t10.5 15l129 109q5 4 13.5 6.5t18.5 2.5h5v80q0 13 3.5 22.5t9.5 14.5l130 109q5 4 13 6.5t19 2.5h162q24 0 35 -10.5t11 -35.5v-123q0 -13 -3.5 -22
t-10.5 -15l-35 -29h183q24 0 35 -10.5t11 -35.5v-94q0 -13 -3.5 -22t-10.5 -15l-129 -109q-6 -4 -14 -6.5t-18 -2.5h-5v-80q0 -13 -3.5 -22t-10.5 -15l-130 -108q-4 -4 -12.5 -7t-18.5 -3zM563 483q19 0 27.5 8.5t8.5 27.5v123q0 19 -8.5 27.5t-27.5 8.5h-162
q-19 0 -27.5 -8.5t-8.5 -27.5v-123q0 -19 8.5 -27.5t27.5 -8.5h162zM477 558v45h10v-45h-10zM221 277h522q19 0 27.5 8.5t8.5 27.5v94q0 19 -8.5 27.5t-27.5 8.5h-522q-19 0 -27.5 -8.5t-8.5 -27.5v-94q0 -19 8.5 -27.5t27.5 -8.5zM275 355v10h414v-10h-414zM563 42
q19 0 27.5 8.5t8.5 27.5v123q0 19 -8.5 27.5t-27.5 8.5h-162q-19 0 -27.5 -8.5t-8.5 -27.5v-123q0 -19 8.5 -27.5t27.5 -8.5h162zM477 117v45h10v-45h-10z" />
    <glyph glyph-name="oslash" unicode="&#xf8;" horiz-adv-x="837" 
d="M281 212q0 -39 18.5 -68.5t68.5 -43.5l221 521q-21 5 -47.5 8t-59.5 3q-59 0 -98 -9t-62 -25.5t-32 -39.5t-9 -51v-295zM482 87q119 0 161 34.5t42 90.5v295q0 39 -19 68t-68 43l-220 -521q20 -4 46 -7t58 -3zM380 494q0 24 18.5 40t85.5 16h12l-116 -273v217zM484 168
h-14l118 278v-221q0 -25 -18 -41t-86 -16zM345 20h-11l30 71q-53 15 -73 46.5t-20 74.5v295q0 30 9.5 55t33.5 43t65 27.5t103 9.5q34 0 61.5 -3t49.5 -8l29 69h11l-31 -72q53 -16 73 -47.5t20 -73.5v-295q0 -30 -10 -55t-34 -43t-65.5 -27.5t-103.5 -9.5q-33 0 -60 3t-48 8
zM410 -34l9 21q15 -1 31.5 -1.5t33.5 -0.5q93 0 153.5 15t95 41.5t48 64t13.5 83.5v341q0 51 -16.5 91.5t-60.5 67.5l27 65q9 16 1 26t-27 10h-115q-19 0 -28 -10t-18 -26l-9 -21q-15 1 -31 1.5t-33 0.5q-93 0 -154 -15t-95.5 -42t-48 -64.5t-13.5 -83.5v-341
q0 -50 17 -90.5t60 -67.5l-27 -65q-9 -16 -1 -26t27 -10h115q19 0 28 10t18 26zM235 -189h-115q-27 0 -37 14t2 36l24 57q-21 14 -35.5 36.5t-23 48.5t-12.5 54t-4 53v311q0 46 13 85.5t47 67.5l130 108q35 30 97.5 46.5t162.5 16.5h19t14 -1l52 45q7 5 15 8t19 3h115
q27 0 37 -14t-2 -36l-24 -57q43 -28 59 -70t16 -93v-341q0 -46 -13 -85t-47 -67l-129 -108q-35 -30 -98 -46.5t-162 -16.5q-9 0 -17.5 0.5t-16.5 0.5l-54 -45l1 1q-6 -6 -14.5 -9t-18.5 -3z" />
    <glyph glyph-name="ugrave" unicode="&#xf9;" horiz-adv-x="846" 
d="M359 -134q-97 0 -159.5 20.5t-97.5 54.5t-48.5 78t-13.5 91v465q0 13 3.5 22t10.5 15l89 75q-7 5 -10.5 14t-3.5 22v96q0 13 3.5 21.5t10.5 14.5l129 109q6 4 13.5 6t17.5 1l349 -43q24 -3 34.5 -13t10.5 -33v-96q0 -13 -3.5 -21.5t-10.5 -14.5l-24 -20h102q24 0 35 -11
t11 -35v-495q0 -46 -13 -85t-47 -67l-130 -108q-35 -30 -97 -46.5t-161 -16.5zM653 753q17 -2 25.5 7t8.5 26v96q0 19 -8.5 26.5t-27.5 9.5l-349 43q-17 2 -25.5 -7t-8.5 -26v-96q0 -19 8.5 -26.5t27.5 -9.5zM358 867v10l239 -30v-10zM797 189v495q0 19 -8.5 27.5t-27.5 8.5
h-152q-19 0 -27.5 -8.5t-8.5 -27.5v-456q0 -20 -15 -33.5t-68 -13.5q-52 0 -67 13.5t-15 33.5v456q0 19 -8.5 27.5t-27.5 8.5h-157q-19 0 -27.5 -8.5t-8.5 -27.5v-495q0 -46 13.5 -83.5t48 -64t94.5 -41.5t153 -15t153 15t94.5 41.5t48 64t13.5 83.5zM434 200v375q0 13 3 22
t9 14l1 1l32 27l-61 8v-419q0 -9 3 -16.5t13 -11.5zM289 630h10v-417q0 -56 39.5 -90.5t150.5 -34.5t151 34.5t40 90.5v417h10v-417q0 -60 -42 -97.5t-159 -37.5t-158.5 37.5t-41.5 97.5v417z" />
    <glyph glyph-name="uacute" unicode="&#xfa;" horiz-adv-x="846" 
d="M359 -134q-97 0 -159.5 20.5t-97.5 54.5t-48.5 78t-13.5 91v465q0 13 3.5 22t10.5 15l95 80v81q0 13 3.5 21.5t9.5 13.5l130 109q4 4 12.5 7t18.5 4l349 43q22 3 33.5 -8.5t11.5 -34.5v-96q0 -13 -3.5 -22t-10.5 -13l-79 -67h137q24 0 35 -11t11 -35v-495q0 -46 -13 -85
t-47 -67l-130 -108q-35 -30 -97 -46.5t-161 -16.5zM671 796q19 2 27.5 9.5t8.5 26.5v96q0 17 -8.5 26t-25.5 7l-349 -43q-19 -2 -27.5 -9.5t-8.5 -26.5v-96q0 -17 8.5 -26t25.5 -7zM378 847l239 30v-10l-239 -30v10zM797 189v495q0 19 -8.5 27.5t-27.5 8.5h-152
q-19 0 -27.5 -8.5t-8.5 -27.5v-456q0 -20 -15 -33.5t-68 -13.5q-52 0 -67 13.5t-15 33.5v456q0 19 -8.5 27.5t-27.5 8.5h-157q-19 0 -27.5 -8.5t-8.5 -27.5v-495q0 -46 13.5 -83.5t48 -64t94.5 -41.5t153 -15t153 15t94.5 41.5t48 64t13.5 83.5zM434 200v375q0 13 3 22t9 14
l1 1l74 62l-103 -12v-434q0 -9 3 -16.5t13 -11.5zM289 630h10v-417q0 -56 39.5 -90.5t150.5 -34.5t151 34.5t40 90.5v417h10v-417q0 -60 -42 -97.5t-159 -37.5t-158.5 37.5t-41.5 97.5v417z" />
    <glyph glyph-name="ucircumflex" unicode="&#xfb;" horiz-adv-x="846" 
d="M359 -134q-97 0 -159.5 20.5t-97.5 54.5t-48.5 78t-13.5 91v465q0 13 3.5 22t10.5 15l85 72v76q0 19 3.5 29t10.5 17l131 109l-1 -1q5 5 13.5 9t19.5 8l127 46q10 4 21.5 6.5t21.5 3.5q10 0 19 -1t16 -5l138 -50q30 -11 39 -21t9 -41v-81q0 -16 -3 -26t-7 -14l-1 -1
l-20 -17h85q24 0 35 -11t11 -35v-495q0 -46 -13 -85t-47 -67l-130 -108q-35 -30 -97 -46.5t-161 -16.5zM606 850l-87 28q-7 2 -14.5 4t-17.5 2t-17.5 -2t-14.5 -4l-87 -28v11l83 27q9 2 17 4t19 2t19 -2t17 -4l83 -27v-11zM456 797q17 4 31 4t31 -4l137 -40q26 -8 34 -2
t8 33v81q0 27 -8.5 35t-33.5 18l-137 50q-7 3 -15 4t-17 1q-9 -1 -19.5 -3t-19.5 -6l-128 -46q-24 -10 -32.5 -18t-8.5 -35v-81q0 -27 8 -33t33 2zM797 189v495q0 19 -8.5 27.5t-27.5 8.5h-152q-19 0 -27.5 -8.5t-8.5 -27.5v-456q0 -20 -15 -33.5t-68 -13.5q-52 0 -67 13.5
t-15 33.5v456q0 19 -8.5 27.5t-27.5 8.5h-157q-19 0 -27.5 -8.5t-8.5 -27.5v-495q0 -46 13.5 -83.5t48 -64t94.5 -41.5t153 -15t153 15t94.5 41.5t48 64t13.5 83.5zM434 200v375q0 13 3 22t9 14l1 1l43 36l-72 20v-440q0 -9 3 -16.5t13 -11.5zM289 630h10v-417
q0 -56 39.5 -90.5t150.5 -34.5t151 34.5t40 90.5v417h10v-417q0 -60 -42 -97.5t-159 -37.5t-158.5 37.5t-41.5 97.5v417z" />
    <glyph glyph-name="udieresis" unicode="&#xfc;" horiz-adv-x="846" 
d="M359 -134q-97 0 -159.5 20.5t-97.5 54.5t-48.5 78t-13.5 91v465q0 13 3.5 22t10.5 15l63 54q-1 4 -1.5 8.5t-0.5 9.5v121q0 13 3.5 21t9.5 13l129 109q5 4 13 6.5t18 2.5h138q22 0 32.5 -10.5t10.5 -32.5v-6l47 40q5 4 12.5 6.5t17.5 2.5h138q22 0 32.5 -10.5t10.5 -32.5
v-121q0 -12 -3.5 -20.5t-9.5 -13.5l-34 -29h81q24 0 35 -11t11 -35v-495q0 -46 -13 -85t-47 -67l-130 -108q-35 -30 -97 -46.5t-161 -16.5zM684 760q17 0 25 8t8 25v121q0 17 -8 25t-25 8h-138q-17 0 -25 -8t-8 -25v-121q0 -17 8 -25t25 -8h138zM426 760q17 0 25 8t8 25v121
q0 17 -8 25t-25 8h-138q-17 0 -25.5 -8t-8.5 -25v-121q0 -17 8.5 -25t25.5 -8h138zM620 830h-10v47h10v-47zM362 830h-10v47h10v-47zM797 189v495q0 19 -8.5 27.5t-27.5 8.5h-152q-19 0 -27.5 -8.5t-8.5 -27.5v-456q0 -20 -15 -33.5t-68 -13.5q-52 0 -67 13.5t-15 33.5v456
q0 19 -8.5 27.5t-27.5 8.5h-157q-19 0 -27.5 -8.5t-8.5 -27.5v-495q0 -46 13.5 -83.5t48 -64t94.5 -41.5t153 -15t153 15t94.5 41.5t48 64t13.5 83.5zM434 200v375q0 13 3 22t9 14l1 1l35 29h-64v-413q0 -9 3 -16.5t13 -11.5zM289 630h10v-417q0 -56 39.5 -90.5t150.5 -34.5
t151 34.5t40 90.5v417h10v-417q0 -60 -42 -97.5t-159 -37.5t-158.5 37.5t-41.5 97.5v417z" />
    <glyph glyph-name="yacute" unicode="&#xfd;" horiz-adv-x="805" 
d="M420 -119h-162q-25 0 -35.5 11t-10.5 35v125l-151 202q-24 32 -32 56t-8 73v192q0 13 3.5 22t10.5 15l93 79v82q0 13 3.5 21.5t9.5 13.5l130 109q4 4 12.5 7t18.5 4l349 43q22 3 33.5 -8.5t11.5 -34.5v-96q0 -13 -3.5 -22t-10.5 -13l-79 -67h136q24 0 35 -11t11 -35v-192
q0 -49 -8 -73t-32 -56l-150 -203v-124q0 -13 -3.5 -22t-10.5 -15l-130 -108q-4 -4 -12.5 -7t-18.5 -3zM650 796q19 2 27.5 9.5t8.5 26.5v96q0 17 -8.5 26t-25.5 7l-349 -43q-19 -2 -27.5 -9.5t-8.5 -26.5v-96q0 -17 8.5 -26t25.5 -7zM357 847l239 30v-10l-239 -30v10zM549 0
q19 0 27.5 8.5t8.5 27.5v127l152 206q22 31 30 54t8 69v192q0 19 -8.5 27.5t-27.5 8.5h-149q-19 0 -27.5 -8.5t-8.5 -27.5v-164q0 -10 -1 -21t-8 -21l-46 -72q-5 -9 -10.5 -13t-13.5 -4h-10q-8 0 -13.5 4t-10.5 13l-46 72q-7 10 -8 21t-1 21v164q0 19 -8.5 27.5t-27.5 8.5
h-154q-19 0 -27.5 -8.5t-8.5 -27.5v-192q0 -46 7.5 -69t30.5 -54l153 -205v-128q0 -19 8.5 -27.5t27.5 -8.5h162zM415 466v109q0 13 3.5 22t10.5 15l74 63l-107 -13v-142q0 -9 1 -18t6 -19zM480 261h-7v-171h-10v171h-10q-22 0 -39.5 10t-33.5 32l-97 135q-11 15 -13 35
t-2 42v115h10v-115q0 -21 2 -39.5t12 -33.5l97 -135q13 -20 30 -28t34 -8h27q19 0 34.5 8.5t30.5 27.5l100 135q10 13 12 32.5t2 40.5v115h10v-115q0 -22 -1.5 -41.5t-13.5 -35.5l-100 -135q-16 -22 -33.5 -32t-40.5 -10z" />
    <glyph glyph-name="thorn" unicode="&#xfe;" horiz-adv-x="792" 
d="M246 -119h-155q-24 0 -35 11t-11 35v648q0 13 3.5 22t10.5 15l129 109q5 4 13.5 6.5t18.5 2.5h155q24 0 35 -11t11 -35v-54h105q71 0 119 -15t76 -42t39.5 -65t11.5 -83v-128q0 -48 -13.5 -87.5t-46.5 -67.5l-129 -108q-28 -24 -74 -37.5t-112 -13.5h-9l-111 -92
q-4 -4 -12.5 -7t-18.5 -3zM375 0q19 0 27.5 8.5t8.5 27.5v66h115q136 0 186 54t50 141v128q0 87 -50 141t-186 54h-115v64q0 19 -8.5 27.5t-27.5 8.5h-155q-19 0 -27.5 -8.5t-8.5 -27.5v-648q0 -19 8.5 -27.5t27.5 -8.5h155zM292 90v540h10v-99h206q47 0 76.5 -10.5
t45.5 -28.5t22 -43t6 -54v-75q0 -29 -6 -53.5t-22 -42t-45.5 -27.5t-76.5 -10h-206v-97h-10zM302 197h206q44 0 71.5 9t42.5 25.5t20.5 39t5.5 49.5v75q0 27 -5.5 50t-20.5 40t-42.5 26.5t-71.5 9.5h-206v-324zM409 433h90q29 0 38 -15t9 -34v-53q0 -19 -9 -34t-38 -15h-90
v151z" />
    <glyph glyph-name="ydieresis" unicode="&#xff;" horiz-adv-x="805" 
d="M420 -119h-162q-25 0 -35.5 11t-10.5 35v125l-151 202q-24 32 -32 56t-8 73v192q0 13 3.5 22t10.5 15l62 52q-1 4 -2 9t-1 11v121q0 13 3.5 21t9.5 13l129 109q5 4 13 6.5t18 2.5h138q22 0 32.5 -10.5t10.5 -32.5v-6l47 40q5 4 12.5 6.5t17.5 2.5h138q22 0 32.5 -10.5
t10.5 -32.5v-121q0 -12 -3.5 -20.5t-9.5 -13.5l-35 -29h81q24 0 35 -11t11 -35v-192q0 -49 -8 -73t-32 -56l-150 -203v-124q0 -13 -3.5 -22t-10.5 -15l-130 -108q-4 -4 -12.5 -7t-18.5 -3zM663 760q17 0 25 8t8 25v121q0 17 -8 25t-25 8h-138q-17 0 -25 -8t-8 -25v-121
q0 -17 8 -25t25 -8h138zM405 760q17 0 25 8t8 25v121q0 17 -8 25t-25 8h-138q-17 0 -25.5 -8t-8.5 -25v-121q0 -17 8.5 -25t25.5 -8h138zM599 830h-10v47h10v-47zM341 830h-10v47h10v-47zM549 0q19 0 27.5 8.5t8.5 27.5v127l152 206q22 31 30 54t8 69v192q0 19 -8.5 27.5
t-27.5 8.5h-149q-19 0 -27.5 -8.5t-8.5 -27.5v-164q0 -10 -1 -21t-8 -21l-46 -72q-5 -9 -10.5 -13t-13.5 -4h-10q-8 0 -13.5 4t-10.5 13l-46 72q-7 10 -8 21t-1 21v164q0 19 -8.5 27.5t-27.5 8.5h-154q-19 0 -27.5 -8.5t-8.5 -27.5v-192q0 -46 7.5 -69t30.5 -54l153 -205
v-128q0 -19 8.5 -27.5t27.5 -8.5h162zM415 466v109q0 13 3.5 22t10.5 15l34 29h-67v-121q0 -9 1 -18t6 -19zM480 261h-7v-171h-10v171h-10q-22 0 -39.5 10t-33.5 32l-97 135q-11 15 -13 35t-2 42v115h10v-115q0 -21 2 -39.5t12 -33.5l97 -135q13 -20 30 -28t34 -8h27
q19 0 34.5 8.5t30.5 27.5l100 135q10 13 12 32.5t2 40.5v115h10v-115q0 -22 -1.5 -41.5t-13.5 -35.5l-100 -135q-16 -22 -33.5 -32t-40.5 -10z" />
    <glyph glyph-name="Amacron" unicode="&#x100;" horiz-adv-x="830" 
d="M653 760q19 0 27.5 8.5t8.5 27.5v93q0 19 -8.5 27.5t-27.5 8.5h-347q-19 0 -27.5 -8.5t-8.5 -27.5v-93q0 -19 8.5 -27.5t27.5 -8.5h347zM360 847h239v-10h-239v10zM285 303v-31h390v31q0 27 -4.5 50t-11.5 43l-69 163q-11 26 -23 43.5t-40 17.5h-98q-30 0 -42 -17.5
t-22 -42.5l-64 -164q-7 -20 -11.5 -43t-4.5 -50zM445 510q4 9 8.5 13t10.5 4h25q6 0 10.5 -4t8.5 -13l47 -152h-157zM675 90v172h-390v-172h-10v213q0 28 4.5 51.5t12.5 45.5l64 164q11 28 25 47t48 19h98q33 0 46.5 -19t25.5 -48l69 -163q8 -22 12.5 -45.5t4.5 -51.5v-213
h-10zM388 36v140h177v-140q0 -19 9.5 -27.5t29.5 -8.5h151q19 0 27.5 8.5t8.5 27.5v264q0 30 -9.5 69t-29.5 91l-87 227q-6 17 -18.5 25t-31.5 8h-269q-20 0 -32.5 -8t-18.5 -25l-87 -227q-20 -52 -29.5 -91t-9.5 -69v-264q0 -19 8.5 -27.5t27.5 -8.5h147q19 0 27.5 8.5
t8.5 27.5zM254 -109q-4 -4 -12.5 -7t-18.5 -3h-147q-24 0 -35 11t-11 35v264q0 31 9.5 70.5t30.5 93.5l86 226q3 9 7.5 15.5t9.5 11.5l1 1l38 32h-35q-24 0 -35 11t-11 35v93q0 13 3.5 22t10.5 15l129 109q5 4 13.5 6.5t18.5 2.5h347q24 0 35 -11t11 -35v-93q0 -13 -3.5 -22
t-10.5 -15l-40 -34q10 -4 17.5 -12.5t11.5 -21.5l87 -227q21 -54 30.5 -93.5t9.5 -70.5v-264q0 -13 -3.5 -22t-10.5 -15l-130 -108q-4 -4 -12.5 -7t-18.5 -3h-151q-25 0 -37 11.5t-12 34.5v130h-28v-21q0 -13 -3.5 -22t-10.5 -15z" />
    <glyph glyph-name="amacron" unicode="&#x101;" horiz-adv-x="830" 
d="M653 760q19 0 27.5 8.5t8.5 27.5v93q0 19 -8.5 27.5t-27.5 8.5h-347q-19 0 -27.5 -8.5t-8.5 -27.5v-93q0 -19 8.5 -27.5t27.5 -8.5h347zM360 847h239v-10h-239v10zM285 303v-31h390v31q0 27 -4.5 50t-11.5 43l-69 163q-11 26 -23 43.5t-40 17.5h-98q-30 0 -42 -17.5
t-22 -42.5l-64 -164q-7 -20 -11.5 -43t-4.5 -50zM445 510q4 9 8.5 13t10.5 4h25q6 0 10.5 -4t8.5 -13l47 -152h-157zM675 90v172h-390v-172h-10v213q0 28 4.5 51.5t12.5 45.5l64 164q11 28 25 47t48 19h98q33 0 46.5 -19t25.5 -48l69 -163q8 -22 12.5 -45.5t4.5 -51.5v-213
h-10zM388 36v140h177v-140q0 -19 9.5 -27.5t29.5 -8.5h151q19 0 27.5 8.5t8.5 27.5v264q0 30 -9.5 69t-29.5 91l-87 227q-6 17 -18.5 25t-31.5 8h-269q-20 0 -32.5 -8t-18.5 -25l-87 -227q-20 -52 -29.5 -91t-9.5 -69v-264q0 -19 8.5 -27.5t27.5 -8.5h147q19 0 27.5 8.5
t8.5 27.5zM254 -109q-4 -4 -12.5 -7t-18.5 -3h-147q-24 0 -35 11t-11 35v264q0 31 9.5 70.5t30.5 93.5l86 226q3 9 7.5 15.5t9.5 11.5l1 1l38 32h-35q-24 0 -35 11t-11 35v93q0 13 3.5 22t10.5 15l129 109q5 4 13.5 6.5t18.5 2.5h347q24 0 35 -11t11 -35v-93q0 -13 -3.5 -22
t-10.5 -15l-40 -34q10 -4 17.5 -12.5t11.5 -21.5l87 -227q21 -54 30.5 -93.5t9.5 -70.5v-264q0 -13 -3.5 -22t-10.5 -15l-130 -108q-4 -4 -12.5 -7t-18.5 -3h-151q-25 0 -37 11.5t-12 34.5v130h-28v-21q0 -13 -3.5 -22t-10.5 -15z" />
    <glyph glyph-name="Abreve" unicode="&#x102;" horiz-adv-x="830" 
d="M697 897v44q0 19 -8.5 27.5t-27.5 8.5h-91q-17 0 -23.5 -6.5t-6.5 -24.5v-21q0 -14 -11 -23.5t-48 -9.5t-47 9.5t-10 23.5v21q0 18 -6.5 24.5t-22.5 6.5h-96q-19 0 -27.5 -8.5t-8.5 -27.5v-44q0 -32 9.5 -58.5t34 -45t66.5 -29t107 -10.5t107 10.5t66.5 29t34 45
t9.5 58.5zM614 907h10v-9q0 -14 -5.5 -28.5t-20.5 -26t-44 -18.5t-75 -7t-74 7t-42.5 18.5t-19 26t-4.5 28.5v9h10v-9q0 -27 24.5 -48.5t105.5 -21.5t108 21.5t27 48.5v9zM285 303v-31h390v31q0 27 -4.5 50t-11.5 43l-69 163q-11 26 -23 43.5t-40 17.5h-98q-30 0 -42 -17.5
t-22 -42.5l-64 -164q-7 -20 -11.5 -43t-4.5 -50zM445 510q4 9 8.5 13t10.5 4h25q6 0 10.5 -4t8.5 -13l47 -152h-157zM675 90v172h-390v-172h-10v213q0 28 4.5 51.5t12.5 45.5l64 164q11 28 25 47t48 19h98q33 0 46.5 -19t25.5 -48l69 -163q8 -22 12.5 -45.5t4.5 -51.5v-213
h-10zM388 36v140h177v-140q0 -19 9.5 -27.5t29.5 -8.5h151q19 0 27.5 8.5t8.5 27.5v264q0 30 -9.5 69t-29.5 91l-87 227q-6 17 -18.5 25t-31.5 8h-269q-20 0 -32.5 -8t-18.5 -25l-87 -227q-20 -52 -29.5 -91t-9.5 -69v-264q0 -19 8.5 -27.5t27.5 -8.5h147q19 0 27.5 8.5
t8.5 27.5zM254 -109q-4 -4 -12.5 -7t-18.5 -3h-147q-24 0 -35 11t-11 35v264q0 31 9.5 70.5t30.5 93.5l86 226q3 9 7.5 15.5t9.5 11.5l1 1l49 41q-58 18 -78.5 54.5t-20.5 83.5v44q0 13 3.5 22t10.5 15l129 109q5 4 13.5 6.5t18.5 2.5h96q21 0 30 -8.5t9 -32.5v-21
q0 -7 4 -12.5t14 -7.5l90 75l-1 -1q4 4 11 6t18 2h91q24 0 35 -11t11 -35v-44q0 -33 -9.5 -61t-34.5 -48l-70 -58h22q23 0 37.5 -9.5t21.5 -29.5l87 -227q21 -54 30.5 -93.5t9.5 -70.5v-264q0 -13 -3.5 -22t-10.5 -15l-130 -108q-4 -4 -12.5 -7t-18.5 -3h-151
q-25 0 -37 11.5t-12 34.5v130h-28v-21q0 -13 -3.5 -22t-10.5 -15z" />
    <glyph glyph-name="abreve" unicode="&#x103;" horiz-adv-x="830" 
d="M697 897v44q0 19 -8.5 27.5t-27.5 8.5h-91q-17 0 -23.5 -6.5t-6.5 -24.5v-21q0 -14 -11 -23.5t-48 -9.5t-47 9.5t-10 23.5v21q0 18 -6.5 24.5t-22.5 6.5h-96q-19 0 -27.5 -8.5t-8.5 -27.5v-44q0 -32 9.5 -58.5t34 -45t66.5 -29t107 -10.5t107 10.5t66.5 29t34 45
t9.5 58.5zM614 907h10v-9q0 -14 -5.5 -28.5t-20.5 -26t-44 -18.5t-75 -7t-74 7t-42.5 18.5t-19 26t-4.5 28.5v9h10v-9q0 -27 24.5 -48.5t105.5 -21.5t108 21.5t27 48.5v9zM285 303v-31h390v31q0 27 -4.5 50t-11.5 43l-69 163q-11 26 -23 43.5t-40 17.5h-98q-30 0 -42 -17.5
t-22 -42.5l-64 -164q-7 -20 -11.5 -43t-4.5 -50zM445 510q4 9 8.5 13t10.5 4h25q6 0 10.5 -4t8.5 -13l47 -152h-157zM675 90v172h-390v-172h-10v213q0 28 4.5 51.5t12.5 45.5l64 164q11 28 25 47t48 19h98q33 0 46.5 -19t25.5 -48l69 -163q8 -22 12.5 -45.5t4.5 -51.5v-213
h-10zM388 36v140h177v-140q0 -19 9.5 -27.5t29.5 -8.5h151q19 0 27.5 8.5t8.5 27.5v264q0 30 -9.5 69t-29.5 91l-87 227q-6 17 -18.5 25t-31.5 8h-269q-20 0 -32.5 -8t-18.5 -25l-87 -227q-20 -52 -29.5 -91t-9.5 -69v-264q0 -19 8.5 -27.5t27.5 -8.5h147q19 0 27.5 8.5
t8.5 27.5zM254 -109q-4 -4 -12.5 -7t-18.5 -3h-147q-24 0 -35 11t-11 35v264q0 31 9.5 70.5t30.5 93.5l86 226q3 9 7.5 15.5t9.5 11.5l1 1l49 41q-58 18 -78.5 54.5t-20.5 83.5v44q0 13 3.5 22t10.5 15l129 109q5 4 13.5 6.5t18.5 2.5h96q21 0 30 -8.5t9 -32.5v-21
q0 -7 4 -12.5t14 -7.5l90 75l-1 -1q4 4 11 6t18 2h91q24 0 35 -11t11 -35v-44q0 -33 -9.5 -61t-34.5 -48l-70 -58h22q23 0 37.5 -9.5t21.5 -29.5l87 -227q21 -54 30.5 -93.5t9.5 -70.5v-264q0 -13 -3.5 -22t-10.5 -15l-130 -108q-4 -4 -12.5 -7t-18.5 -3h-151
q-25 0 -37 11.5t-12 34.5v130h-28v-21q0 -13 -3.5 -22t-10.5 -15z" />
    <glyph glyph-name="Aogonek" unicode="&#x104;" horiz-adv-x="830" 
d="M629 -305h-111q-62 0 -92.5 40t-18.5 107l19 104v111h-28v-21q0 -13 -3.5 -22t-10.5 -15l-130 -108q-4 -4 -12.5 -7t-18.5 -3h-147q-24 0 -35 11t-11 35v264q0 31 9.5 70.5t30.5 93.5l86 226q3 9 7.5 15.5t9.5 11.5l1 1l128 107q8 7 19 10.5t25 3.5h269q23 0 37.5 -9.5
t21.5 -29.5l87 -227q21 -54 30.5 -93.5t9.5 -70.5v-264q0 -24 -11 -35t-35 -11h-25l-4 -26h29q27 0 36.5 -9.5t9.5 -34.5v-72q0 -16 -4 -25t-11 -15l-127 -105q-4 -4 -12 -6t-18 -2zM647 -186h111q19 0 26 7.5t7 26.5v72q0 19 -7.5 26.5t-28.5 7.5h-41l7 46h34
q19 0 27.5 8.5t8.5 27.5v264q0 30 -9.5 69t-29.5 91l-87 227q-6 17 -18.5 25t-31.5 8h-269q-20 0 -32.5 -8t-18.5 -25l-87 -227q-20 -52 -29.5 -91t-9.5 -69v-264q0 -19 8.5 -27.5t27.5 -8.5h147q19 0 27.5 8.5t8.5 27.5v140h177v-119l-19 -108q-10 -69 13.5 -102t87.5 -33z
M677 -106h24v-10h-24q-37 0 -47 19t-4 56l12 83q4 24 10 34t27 22v164h-390v-172h-10v213q0 28 4.5 51.5t12.5 45.5l64 164q11 28 25 47t48 19h98q33 0 46.5 -19t25.5 -48l69 -163q8 -22 12.5 -45.5t4.5 -51.5v-213h-4q-19 -10 -24.5 -18t-8.5 -30l-12 -85q-4 -30 3 -46.5
t38 -16.5zM285 303v-31h390v31q0 27 -4.5 50t-11.5 43l-69 163q-11 26 -23 43.5t-40 17.5h-98q-30 0 -42 -17.5t-22 -42.5l-64 -164q-7 -20 -11.5 -43t-4.5 -50zM445 510q4 9 8.5 13t10.5 4h25q6 0 10.5 -4t8.5 -13l47 -152h-157z" />
    <glyph glyph-name="aogonek" unicode="&#x105;" horiz-adv-x="830" 
d="M629 -305h-111q-62 0 -92.5 40t-18.5 107l19 104v111h-28v-21q0 -13 -3.5 -22t-10.5 -15l-130 -108q-4 -4 -12.5 -7t-18.5 -3h-147q-24 0 -35 11t-11 35v264q0 31 9.5 70.5t30.5 93.5l86 226q3 9 7.5 15.5t9.5 11.5l1 1l128 107q8 7 19 10.5t25 3.5h269q23 0 37.5 -9.5
t21.5 -29.5l87 -227q21 -54 30.5 -93.5t9.5 -70.5v-264q0 -24 -11 -35t-35 -11h-25l-4 -26h29q27 0 36.5 -9.5t9.5 -34.5v-72q0 -16 -4 -25t-11 -15l-127 -105q-4 -4 -12 -6t-18 -2zM647 -186h111q19 0 26 7.5t7 26.5v72q0 19 -7.5 26.5t-28.5 7.5h-41l7 46h34
q19 0 27.5 8.5t8.5 27.5v264q0 30 -9.5 69t-29.5 91l-87 227q-6 17 -18.5 25t-31.5 8h-269q-20 0 -32.5 -8t-18.5 -25l-87 -227q-20 -52 -29.5 -91t-9.5 -69v-264q0 -19 8.5 -27.5t27.5 -8.5h147q19 0 27.5 8.5t8.5 27.5v140h177v-119l-19 -108q-10 -69 13.5 -102t87.5 -33z
M677 -106h24v-10h-24q-37 0 -47 19t-4 56l12 83q4 24 10 34t27 22v164h-390v-172h-10v213q0 28 4.5 51.5t12.5 45.5l64 164q11 28 25 47t48 19h98q33 0 46.5 -19t25.5 -48l69 -163q8 -22 12.5 -45.5t4.5 -51.5v-213h-4q-19 -10 -24.5 -18t-8.5 -30l-12 -85q-4 -30 3 -46.5
t38 -16.5zM285 303v-31h390v31q0 27 -4.5 50t-11.5 43l-69 163q-11 26 -23 43.5t-40 17.5h-98q-30 0 -42 -17.5t-22 -42.5l-64 -164q-7 -20 -11.5 -43t-4.5 -50zM445 510q4 9 8.5 13t10.5 4h25q6 0 10.5 -4t8.5 -13l47 -152h-157z" />
    <glyph glyph-name="Cacute" unicode="&#x106;" horiz-adv-x="728" 
d="M534 -119h-244q-131 0 -193.5 68t-62.5 176v281q0 55 16 95.5t47 67.5l77 65q-16 1 -24.5 12t-8.5 31v96q0 13 3.5 21.5t9.5 13.5l130 109q4 4 12.5 7t18.5 4l349 43q22 3 33.5 -8.5t11.5 -34.5v-96q0 -13 -3.5 -22t-10.5 -13l-80 -67h48q24 0 35 -11t11 -35v-121
q0 -13 -3.5 -22t-10.5 -15l-130 -108q-4 -4 -12.5 -7t-18.5 -3h-123v-169q0 -21 13 -29.5t38 -8.5h201q24 0 35 -11t11 -35v-119q0 -13 -3.5 -22t-10.5 -15l-130 -108q-4 -4 -12.5 -7t-18.5 -3zM663 796q19 2 27.5 9.5t8.5 26.5v96q0 17 -8.5 26t-25.5 7l-349 -43
q-19 -2 -27.5 -9.5t-8.5 -26.5v-96q0 -17 8.5 -26t25.5 -7zM370 847l239 30v-10l-239 -30v10zM663 0q19 0 27.5 8.5t8.5 27.5v119q0 19 -8.5 27.5t-27.5 8.5h-201q-31 0 -46 11.5t-15 36.5v238q0 25 15 37.5t46 12.5h201q19 0 27.5 8.5t8.5 27.5v121q0 19 -8.5 27.5
t-27.5 8.5h-244q-125 0 -185.5 -50.5t-60.5 -154.5v-311q0 -104 60.5 -154t185.5 -50h244zM608 100v-10h-167q-97 0 -128.5 30t-31.5 99v280q0 71 32 101t128 30h167v-10h-167q-88 0 -119 -27.5t-31 -93.5v-280q0 -65 30 -92t120 -27h167z" />
    <glyph glyph-name="cacute" unicode="&#x107;" horiz-adv-x="728" 
d="M534 -119h-244q-131 0 -193.5 68t-62.5 176v281q0 55 16 95.5t47 67.5l77 65q-16 1 -24.5 12t-8.5 31v96q0 13 3.5 21.5t9.5 13.5l130 109q4 4 12.5 7t18.5 4l349 43q22 3 33.5 -8.5t11.5 -34.5v-96q0 -13 -3.5 -22t-10.5 -13l-80 -67h48q24 0 35 -11t11 -35v-121
q0 -13 -3.5 -22t-10.5 -15l-130 -108q-4 -4 -12.5 -7t-18.5 -3h-123v-169q0 -21 13 -29.5t38 -8.5h201q24 0 35 -11t11 -35v-119q0 -13 -3.5 -22t-10.5 -15l-130 -108q-4 -4 -12.5 -7t-18.5 -3zM663 796q19 2 27.5 9.5t8.5 26.5v96q0 17 -8.5 26t-25.5 7l-349 -43
q-19 -2 -27.5 -9.5t-8.5 -26.5v-96q0 -17 8.5 -26t25.5 -7zM370 847l239 30v-10l-239 -30v10zM663 0q19 0 27.5 8.5t8.5 27.5v119q0 19 -8.5 27.5t-27.5 8.5h-201q-31 0 -46 11.5t-15 36.5v238q0 25 15 37.5t46 12.5h201q19 0 27.5 8.5t8.5 27.5v121q0 19 -8.5 27.5
t-27.5 8.5h-244q-125 0 -185.5 -50.5t-60.5 -154.5v-311q0 -104 60.5 -154t185.5 -50h244zM608 100v-10h-167q-97 0 -128.5 30t-31.5 99v280q0 71 32 101t128 30h167v-10h-167q-88 0 -119 -27.5t-31 -93.5v-280q0 -65 30 -92t120 -27h167z" />
    </font>
</defs>
</svg>
